<?xml version="1.0" encoding="UTF-8" standalone="no"?>
<svg
   width="115"
   height="35"
   version="1.1"
   viewBox="0 0 8.8668 2.6986"
   id="svg1294"
   sodipodi:docname="bbc_icon.svg"
   inkscape:version="1.1 (c4e8f9e, 2021-05-24)"
   xmlns:inkscape="http://www.inkscape.org/namespaces/inkscape"
   xmlns:sodipodi="http://sodipodi.sourceforge.net/DTD/sodipodi-0.dtd"
   xmlns="http://www.w3.org/2000/svg"
   xmlns:svg="http://www.w3.org/2000/svg">
  <defs
     id="defs1298" />
  <sodipodi:namedview
     id="namedview1296"
     pagecolor="#505050"
     bordercolor="#eeeeee"
     borderopacity="1"
     inkscape:pageshadow="0"
     inkscape:pageopacity="0"
     inkscape:pagecheckerboard="0"
     showgrid="false"
     inkscape:zoom="1.7324116"
     inkscape:cx="57.723002"
     inkscape:cy="17.605516"
     inkscape:window-width="1296"
     inkscape:window-height="997"
     inkscape:window-x="69"
     inkscape:window-y="25"
     inkscape:window-maximized="0"
     inkscape:current-layer="svg1294" />
  <g
     transform="matrix(0.00989601,0,0,0.00989601,-0.63335712,-0.55073392)"
     id="g1152"
     style="fill:#ffffff">
    <path
       d="M 64,64 V 320 H 320 V 64 Z m 178.5,180.7 c -4.4,6.2 -10.6,10.9 -18.7,14.3 -8.1,3.4 -17.8,5 -29.2,5 H 137.2 V 120 h 54 c 15.9,0 28.3,3.2 37,9.6 8.7,6.4 13.1,15.5 13.1,27.5 0,6.8 -1.6,12.8 -4.7,17.8 -3.1,5 -7.8,9 -13.9,12 8.5,2.8 15,7.3 19.5,13.4 4.5,6.1 6.8,13.5 6.8,22.3 0.1,8.5 -2.1,15.9 -6.5,22.1 z m -36.6,-70.4 c 4,-3.3 6,-7.9 6,-13.8 0,-11.4 -7.8,-17.1 -23.3,-17.1 h -22.1 v 35.8 h 22.1 c 7.6,0 13.3,-1.6 17.3,-4.9 z m -13.6,27.5 h -25.8 v 38.9 H 192 c 8.7,0 15.5,-1.6 20.2,-4.9 4.7,-3.3 7,-8 7,-14.2 -0.1,-13.3 -9,-19.8 -26.9,-19.8 z"
       id="path1146"
       style="fill:#ffffff" />
    <path
       d="M 384,64 V 320 H 640 V 64 Z m 178.5,180.7 c -4.4,6.2 -10.6,10.9 -18.7,14.3 -8.1,3.4 -17.8,5 -29.2,5 H 457.2 V 120 h 54 c 15.9,0 28.3,3.2 37,9.6 8.7,6.4 13.1,15.5 13.1,27.5 0,6.8 -1.6,12.8 -4.7,17.8 -3.1,5 -7.8,9 -13.9,12 8.5,2.8 15,7.3 19.5,13.4 4.5,6.1 6.8,13.5 6.8,22.3 0.1,8.5 -2.1,15.9 -6.5,22.1 z m -36.6,-70.4 c 4,-3.3 6,-7.9 6,-13.8 0,-11.4 -7.8,-17.1 -23.3,-17.1 h -22.1 v 35.8 h 22.1 c 7.6,0 13.3,-1.6 17.3,-4.9 z m -13.6,27.5 h -25.8 v 38.9 H 512 c 8.7,0 15.5,-1.6 20.2,-4.9 4.7,-3.3 7,-8 7,-14.2 -0.1,-13.3 -9,-19.8 -26.9,-19.8 z"
       id="path1148"
       style="fill:#ffffff" />
    <path
       d="M 704,320 H 960 V 64 H 704 Z m 183.9,-65.1 c -6,3.3 -12.9,5.9 -20.7,7.8 -7.9,1.9 -16.1,2.9 -24.8,2.9 -11.5,0 -21.9,-1.7 -31.1,-5 -9.2,-3.4 -17,-8.2 -23.4,-14.5 -6.4,-6.3 -11.2,-14 -14.6,-23.2 -3.4,-9.1 -5.1,-19.4 -5.1,-30.9 0,-11.2 1.8,-21.3 5.3,-30.3 3.5,-9 8.6,-16.7 15.2,-23.2 6.6,-6.4 14.6,-11.4 23.9,-14.8 9.3,-3.4 19.7,-5.1 31.2,-5.1 8,0 15.5,0.8 22.7,2.5 7.1,1.6 13.7,4 19.8,7.2 v 28 c -5.6,-3.7 -11.6,-6.5 -18.1,-8.4 -6.5,-1.9 -13.3,-2.9 -20.5,-2.9 -9.9,0 -18.3,1.8 -25.3,5.5 -7,3.7 -12.3,9 -16.1,16 -3.7,7 -5.6,15.5 -5.6,25.5 0,10 1.8,18.5 5.4,25.6 3.6,7 8.8,12.4 15.6,16.1 6.8,3.7 15.1,5.5 24.9,5.5 14.9,0 28.7,-3.9 41.3,-11.6 z"
       id="path1150"
       style="fill:#ffffff" />
  </g>
</svg>
