<?xml version="1.0" encoding="UTF-8" standalone="no"?>
<!-- Created with Inkscape (http://www.inkscape.org/) -->

<svg
   width="200"
   height="220"
   id="svg2"
   version="1.1"
   inkscape:version="1.2.1 (9c6d41e4, 2022-07-14)"
   sodipodi:docname="boba_fett.svg"
   inkscape:export-filename="/Users/bensegni/Desktop/16.png"
   inkscape:export-xdpi="150"
   inkscape:export-ydpi="150"
   viewBox="0 0 187.5 206.25"
   xmlns:inkscape="http://www.inkscape.org/namespaces/inkscape"
   xmlns:sodipodi="http://sodipodi.sourceforge.net/DTD/sodipodi-0.dtd"
   xmlns:xlink="http://www.w3.org/1999/xlink"
   xmlns="http://www.w3.org/2000/svg"
   xmlns:svg="http://www.w3.org/2000/svg"
   xmlns:rdf="http://www.w3.org/1999/02/22-rdf-syntax-ns#"
   xmlns:cc="http://creativecommons.org/ns#"
   xmlns:dc="http://purl.org/dc/elements/1.1/">
  <defs
     id="defs4">
    <linearGradient
       inkscape:collect="always"
       id="linearGradient4401">
      <stop
         style="stop-color:#ffffff;stop-opacity:1;"
         offset="0"
         id="stop4403" />
      <stop
         style="stop-color:#ffffff;stop-opacity:0;"
         offset="1"
         id="stop4405" />
    </linearGradient>
    <linearGradient
       inkscape:collect="always"
       id="linearGradient4386">
      <stop
         style="stop-color:#ffffff;stop-opacity:1;"
         offset="0"
         id="stop4388" />
      <stop
         style="stop-color:#ffffff;stop-opacity:0;"
         offset="1"
         id="stop4390" />
    </linearGradient>
    <linearGradient
       inkscape:collect="always"
       id="linearGradient4378">
      <stop
         style="stop-color:#ffffff;stop-opacity:1"
         offset="0"
         id="stop4380" />
      <stop
         style="stop-color:#e6e6e6;stop-opacity:1"
         offset="1"
         id="stop4382" />
    </linearGradient>
    <linearGradient
       inkscape:collect="always"
       id="linearGradient4370">
      <stop
         style="stop-color:#ffffff;stop-opacity:1"
         offset="0"
         id="stop4372" />
      <stop
         style="stop-color:#ececec;stop-opacity:1"
         offset="1"
         id="stop4374" />
    </linearGradient>
    <linearGradient
       inkscape:collect="always"
       id="linearGradient3075">
      <stop
         style="stop-color:#ffffff;stop-opacity:1;"
         offset="0"
         id="stop3077" />
      <stop
         style="stop-color:#ffffff;stop-opacity:0;"
         offset="1"
         id="stop3079" />
    </linearGradient>
    <linearGradient
       inkscape:collect="always"
       id="linearGradient3058">
      <stop
         style="stop-color:#682c00;stop-opacity:1;"
         offset="0"
         id="stop3060" />
      <stop
         style="stop-color:#d3a318;stop-opacity:1"
         offset="1"
         id="stop3062" />
    </linearGradient>
    <linearGradient
       inkscape:collect="always"
       id="linearGradient3050">
      <stop
         style="stop-color:#f0e060;stop-opacity:1"
         offset="0"
         id="stop3052" />
      <stop
         style="stop-color:#804400;stop-opacity:1"
         offset="1"
         id="stop3054" />
    </linearGradient>
    <linearGradient
       inkscape:collect="always"
       id="linearGradient3887">
      <stop
         style="stop-color:#e3e2db;stop-opacity:1;"
         offset="0"
         id="stop3889" />
      <stop
         style="stop-color:#e3e2db;stop-opacity:0;"
         offset="1"
         id="stop3891" />
    </linearGradient>
    <linearGradient
       inkscape:collect="always"
       xlink:href="#linearGradient3887"
       id="linearGradient3965"
       gradientUnits="userSpaceOnUse"
       x1="14.297069"
       y1="60.791363"
       x2="-118.10868"
       y2="60.791363" />
    <filter
       inkscape:collect="always"
       id="filter3869"
       style="color-interpolation-filters:sRGB"
       x="-0.066591768"
       y="-0.062152317"
       width="1.1331835"
       height="1.1243046">
      <feGaussianBlur
         inkscape:collect="always"
         stdDeviation="3.8845197"
         id="feGaussianBlur3871" />
    </filter>
    <radialGradient
       inkscape:collect="always"
       xlink:href="#linearGradient3058"
       id="radialGradient3171"
       gradientUnits="userSpaceOnUse"
       gradientTransform="matrix(-1.0603845,1.2833768,-1.4832504,-1.2255357,-189.42448,980.53102)"
       cx="-294.85657"
       cy="-75.784248"
       fx="-294.85657"
       fy="-75.784248"
       r="40.520206" />
    <linearGradient
       inkscape:collect="always"
       xlink:href="#linearGradient3075"
       id="linearGradient3178"
       gradientUnits="userSpaceOnUse"
       gradientTransform="translate(209.25031,489.0958)"
       x1="637.05573"
       y1="-439.70792"
       x2="634.95325"
       y2="-142.55539" />
    <linearGradient
       inkscape:collect="always"
       xlink:href="#linearGradient3887"
       id="linearGradient3188"
       gradientUnits="userSpaceOnUse"
       gradientTransform="matrix(1.5305555,0,0,1.5305555,981.20402,223.70595)"
       x1="14.297069"
       y1="60.791363"
       x2="-118.10868"
       y2="60.791363" />
    <linearGradient
       inkscape:collect="always"
       xlink:href="#linearGradient3050"
       id="linearGradient3194"
       gradientUnits="userSpaceOnUse"
       x1="643.7359"
       y1="-368.9115"
       x2="643.7359"
       y2="-88.423042"
       gradientTransform="translate(210.52866,489.73498)" />
    <linearGradient
       inkscape:collect="always"
       xlink:href="#linearGradient4386"
       id="linearGradient4458"
       gradientUnits="userSpaceOnUse"
       x1="2829.5842"
       y1="623.17871"
       x2="2835.0867"
       y2="854.27753" />
    <radialGradient
       inkscape:collect="always"
       xlink:href="#linearGradient4370"
       id="radialGradient4460"
       gradientUnits="userSpaceOnUse"
       gradientTransform="matrix(-1.6381303e-7,0.97931898,-1.0142288,-7.1195271e-7,2537.7965,-2207.6505)"
       cx="2352.634"
       cy="242.61449"
       fx="2352.634"
       fy="242.61449"
       r="304.80624" />
    <radialGradient
       inkscape:collect="always"
       xlink:href="#linearGradient4378"
       id="radialGradient4462"
       gradientUnits="userSpaceOnUse"
       gradientTransform="matrix(-3.8052859e-7,0.92895852,-0.76834943,-2.5422876e-7,2530.7221,-1515.1243)"
       cx="2159.6731"
       cy="482.91586"
       fx="2159.6731"
       fy="482.91586"
       r="179.17499" />
    <linearGradient
       inkscape:collect="always"
       xlink:href="#linearGradient4401"
       id="linearGradient4464"
       gradientUnits="userSpaceOnUse"
       gradientTransform="translate(8.0339404,1.6067881)"
       x1="2520.0771"
       y1="-169.1599"
       x2="2509.0723"
       y2="623.17871" />
  </defs>
  <sodipodi:namedview
     id="base"
     pagecolor="#22241c"
     bordercolor="#666666"
     borderopacity="1.0"
     inkscape:pageopacity="1"
     inkscape:pageshadow="2"
     inkscape:zoom="0.5822354"
     inkscape:cx="-581.37997"
     inkscape:cy="50.666792"
     inkscape:document-units="px"
     inkscape:current-layer="layer1"
     showgrid="false"
     showguides="true"
     inkscape:guide-bbox="true"
     inkscape:window-width="1680"
     inkscape:window-height="997"
     inkscape:window-x="0"
     inkscape:window-y="92"
     inkscape:window-maximized="0"
     inkscape:showpageshadow="2"
     inkscape:pagecheckerboard="0"
     inkscape:deskcolor="#22241c">
    <inkscape:grid
       type="xygrid"
       id="grid3047"
       empspacing="5"
       visible="true"
       enabled="true"
       snapvisiblegridlinesonly="true"
       originx="0"
       originy="0"
       spacingx="1"
       spacingy="1" />
  </sodipodi:namedview>
  <metadata
     id="metadata7">
    <rdf:RDF>
      <cc:Work
         rdf:about="">
        <dc:format>image/svg+xml</dc:format>
        <dc:type
           rdf:resource="http://purl.org/dc/dcmitype/StillImage" />
      </cc:Work>
    </rdf:RDF>
  </metadata>
  <g
     inkscape:label="Layer 1"
     inkscape:groupmode="layer"
     id="layer1"
     transform="translate(0,447.63783)">
    <g
       id="g560"
       transform="matrix(0.51899248,0,0,0.51899248,-295.49436,-501.43652)">
      <path
         style="fill:#f8ec70;fill-opacity:1;stroke:#ffffff;stroke-width:1.53056px;stroke-linecap:butt;stroke-linejoin:miter;stroke-opacity:1"
         d="m 681.97062,108.68058 c -17.0981,2.8112 -38.4516,-4.9464 -51.991,9.32682 -14.9048,16.04392 -5.8783,39.27707 -7.7963,58.63941 -1.5206,18.41464 2.9245,37.86843 -1.9132,55.62613 -11.8025,16.56352 -1.4931,37.41931 -1.6262,55.67396 -0.2784,4.62465 5.151,13.98043 -2.7741,14.39678 -39.2091,14.81096 -58.7775,67.40682 -36.1116,103.50382 15.5901,26.99181 50.0825,42.44212 80.6412,34.24618 3.9609,9.62365 14.627,13.95578 20.1363,22.43221 6.1498,6.21985 15.8124,6.16645 23.1497,8.75286 12.0112,21.57307 39.6393,27.60922 62.4658,23.72361 24.9053,-0.76809 52.8014,5.59684 75.1608,-8.1696 3.2281,-4.3141 8.2657,-3.49435 12.5591,-1.9225 15.6367,1.58824 29.5286,-15.8032 23.0062,-30.37196 -1.9974,-4.48039 -5.6861,-10.63159 0,-13.96632 7.4753,-10.74217 10.0021,-24.60102 7.3658,-37.40295 21.4652,-7.20296 44.0853,-23.39128 44.7209,-48.11684 1.8182,-23.1191 -0.2843,-46.35661 0.9088,-69.49679 -0.7821,-43.34657 -16.9941,-87.90964 -51.0399,-115.84563 -44.0437,-38.20782 -111.7247,-49.15757 -164.0988,-22.14351 1.4718,-15.99826 -6.2373,-34.93334 -23.5801,-37.97691 -2.9787,-0.79274 -6.0923,-1.11832 -9.1834,-0.90877 z"
         id="path3883"
         inkscape:connector-curvature="0" />
      <path
         style="fill:#22241c;fill-opacity:1;stroke:#ffffff;stroke-width:1.53056px;stroke-linecap:butt;stroke-linejoin:miter;stroke-opacity:1"
         d="m 776.10952,363.79961 c -21.9198,0.10227 -43.0158,5.89154 -62.8962,14.10981 -8.9968,-1.24908 -18.8941,5.85988 -18.3189,15.30555 -4.1826,4.34135 -4.2626,12.05349 -11.24,12.91406 -15.3677,8.015 -15.8656,34.67103 1.1957,41.13368 5.4766,0.0756 2.8682,5.73395 6.6484,8.22674 6.0337,5.79288 15.3796,2.83053 22.3844,4.35252 3.4984,16.5506 21.6661,25.55476 37.6421,25.39765 21.2118,-1.33216 42.4815,0.54264 63.7093,-0.57396 10.4781,-0.20708 20.8489,-3.2535 27.8849,-11.43133 6.3732,-2.7875 15.2237,4.27049 21.6669,-1.19575 9.2692,-8.52172 -3.7075,-20.53277 -1.8175,-29.98932 15.7767,-12.85777 16.8404,-39.85571 0.5261,-52.66068 -7.4149,-6.92816 -16.8902,-11.34518 -24.8237,-17.50573 -6.8027,-1.48032 -13.8482,-0.915 -20.1962,-4.1079 -13.8743,-3.16467 -28.1409,-4.27306 -42.3653,-3.97534 z"
         id="path3807"
         inkscape:connector-curvature="0" />
      <path
         style="fill:#400400;stroke:#ffffff;stroke-width:1.53056px;stroke-linecap:butt;stroke-linejoin:miter;stroke-opacity:1"
         d="m 705.70402,388.02973 -7.6528,61.22222 160.7083,15.30555 -22.9583,-84.18055 z"
         id="path3805"
         inkscape:connector-curvature="0" />
      <rect
         style="fill:#804400;fill-opacity:1;stroke:#e6e6e6;stroke-width:1.53056"
         id="rect3016"
         width="122.44444"
         height="53.569443"
         x="721.00183"
         y="422.0405"
         ry="26.784721" />
      <ellipse
         style="fill:#d4a81c;fill-opacity:1;stroke:#e2e3db;stroke-width:2.29583;stroke-miterlimit:4;stroke-dasharray:none"
         id="path3895"
         cx="781.05023"
         cy="415.3595"
         rx="85.352348"
         ry="42.426605" />
      <path
         d="m 866.40258,415.3595 a 85.352348,42.426605 0 0 1 -44.0092,37.11719 85.352348,42.426605 0 0 1 -86.64374,-1.15939 85.352348,42.426605 0 0 1 -39.92814,-38.24036 l 85.22873,2.28256 z"
         sodipodi:ry="42.426605"
         sodipodi:rx="85.352348"
         sodipodi:cy="415.3595"
         sodipodi:cx="781.05023"
         id="path3012"
         style="fill:#554400;fill-opacity:1;stroke:none"
         sodipodi:type="arc"
         sodipodi:start="0"
         sodipodi:end="3.1954188"
         sodipodi:arc-type="slice" />
      <ellipse
         id="path3014"
         style="fill:none;stroke:#e2e3db;stroke-width:2.29583;stroke-miterlimit:4;stroke-dasharray:none"
         cx="781.05023"
         cy="415.3595"
         rx="85.352348"
         ry="42.426605" />
      <path
         style="fill:#22241c;stroke:#ffffff;stroke-width:3.06111;stroke-linecap:butt;stroke-linejoin:miter;stroke-miterlimit:4;stroke-dasharray:none;stroke-opacity:1"
         d="m 684.25312,122.73487 c -13.9324,3.80177 -31.2012,-4.94886 -43.1426,5.21346 -10.3311,11.73615 -2.5927,28.45639 -4.3845,42.37717 -0.1548,22.2497 0.1445,45.22342 -0.016,67.05754 -12.266,7.50184 -6.6164,23.87144 -4.9685,35.23786 2.3705,18.9876 2.7119,38.59127 7.5513,57.21726 10.2716,2.04649 4.7323,14.52654 5.3569,21.52344 -1.5698,20.85849 17.4974,35.34522 35.155,41.27716 49.7637,18.73468 104.7016,18.73218 156.8341,12.4836 25.6138,-4.10647 52.6398,-10.58471 72.9405,-27.21519 11.9564,-11.99966 10.5123,-29.9747 9.6617,-45.48619 1.0224,-40.52978 3.3725,-84.99927 -19.8016,-120.24427 -33.6075,-56.56823 -111.9535,-82.69214 -172.2983,-53.76908 -19.4841,8.39157 -37.8049,22.88602 -51.0671,38.2722 -0.1119,-7.97924 -1.2531,-18.64119 1.7696,-24.96718 6.4487,9.75049 23.173,6.38979 24.9672,-5.26129 2.6127,-10.16113 1.5053,-21.2077 1.0045,-31.47204 -2.7041,-7.95726 -11.3146,-12.92446 -19.5624,-12.24445 z"
         id="path3854"
         inkscape:connector-curvature="0" />
      <path
         inkscape:connector-curvature="0"
         style="fill:#d4a81c;fill-opacity:1;stroke:#fcf478;stroke-width:3.06111;stroke-linecap:butt;stroke-linejoin:miter;stroke-miterlimit:4;stroke-dasharray:none;stroke-opacity:1"
         d="m 651.51272,138.61663 v 22.4322 h 0.6218 v 89.25052 h -7.6527 l 7.6527,68.875 15.3056,15.30555 7.6528,-84.18055 h -14.3012 v -89.25052 h 5.6918 c 0,-4.13458 4.9903,-7.46145 11.1922,-7.46145 6.2018,0 11.24,3.32687 11.24,7.46145 v -22.4322 z"
         id="path3075" />
      <path
         inkscape:connector-curvature="0"
         id="path3877"
         d="m 782.32742,162.14892 c -67.458,0 -121.7748,54.31686 -121.7748,121.77482 v 52.70851 8.1789 10.76172 c 0,20.99056 54.3168,37.88125 121.7748,37.88125 67.458,0 121.7748,-16.89069 121.7748,-37.88125 v -10.76172 -8.1789 -52.70851 c 0,-67.45796 -54.3168,-121.77482 -121.7748,-121.77482 z"
         style="fill:none;stroke:#fcfc80;stroke-width:3.82639;stroke-miterlimit:4;stroke-dasharray:none" />
      <path
         inkscape:connector-curvature="0"
         style="fill:url(#linearGradient3194);fill-opacity:1;stroke:#fcf478;stroke-width:3.82639;stroke-miterlimit:4;stroke-dasharray:none"
         d="m 782.32742,162.14892 c -67.458,0 -121.7748,54.31686 -121.7748,121.77482 v 52.70851 8.1789 10.76172 c 0,20.99056 54.3168,37.88125 121.7748,37.88125 67.458,0 121.7748,-16.89069 121.7748,-37.88125 v -10.76172 -8.1789 -52.70851 c 0,-67.45796 -54.3168,-121.77482 -121.7748,-121.77482 z"
         id="rect2996" />
      <path
         style="fill:#e8d04c;fill-opacity:1;stroke:#fcf478;stroke-width:5.05083;stroke-miterlimit:4;stroke-dasharray:none"
         d="m 661.50922,268.42687 c -0.6395,5.075 -0.9566,10.243 -0.9566,15.49687 v 52.70851 8.1789 10.76172 c 0,20.99056 54.3168,37.88125 121.7748,37.88125 67.458,0 121.7748,-16.89069 121.7748,-37.88125 v -10.76172 -8.1789 -52.70851 c 0,-5.25387 -0.3171,-10.42187 -0.9566,-15.49687 -7.3946,18.75608 -58.4759,33.19392 -120.8182,33.19392 -62.3423,0 -113.4236,-14.43784 -120.8182,-33.19392 z"
         id="path3006"
         inkscape:connector-curvature="0" />
      <path
         style="fill:#ac8126;fill-opacity:1;stroke:#ffffff;stroke-width:0.918333;stroke-miterlimit:4;stroke-dasharray:none"
         d="m 661.40632,268.75256 c -0.6395,5.075 -0.9566,10.24299 -0.9566,15.49687 v 52.7085 8.17891 10.76172 c 0,3.97016 1.9406,7.79323 5.5483,11.38351 8.5917,-10.59332 22.4462,-17.4579 38.0725,-17.4579 26.0581,0 47.1794,19.12996 47.2081,42.71206 9.8866,0.801 20.2313,1.24358 30.9459,1.24358 10.5062,0 20.7067,-0.42465 30.4198,-1.19575 1.0258,-22.78142 21.74,-40.94236 47.1603,-40.94236 15.2491,0 28.8206,6.54547 37.4507,16.69262 4.3485,-3.90377 6.744,-8.05971 6.744,-12.43576 v -10.76172 -8.17891 -52.7085 c 0,-5.25388 -0.317,-10.42187 -0.9566,-15.49687 -7.3946,18.75608 -58.4759,33.19392 -120.8182,33.19392 -62.3423,0 -113.4235,-14.43784 -120.8182,-33.19392 z"
         id="path3061"
         inkscape:connector-curvature="0" />
      <path
         inkscape:connector-curvature="0"
         style="fill:#241f1c;fill-opacity:1;stroke:#aa8800;stroke-width:5.05083;stroke-miterlimit:4;stroke-dasharray:none"
         d="m 661.46142,268.42687 c -0.6396,5.075 -0.9566,10.243 -0.9566,15.49687 l 0.2869,4.6395 v 7.65278 c 0,0 10.4748,15.30555 21.9539,22.95833 11.4792,7.65278 30.6112,22.93871 76.5278,30.61111 l -7.4136,42.47291 c 12.2666,1.56131 23.1609,1.19863 30.3241,1.19575 0.014,0 0.031,0 0.048,0 v 0.0957 c 0.014,-1e-5 0.034,0 0.048,0 0.028,-1e-5 0.067,0 0.096,0 7.1633,0.003 18.0575,0.36556 30.3241,-1.19575 l -7.4136,-42.47291 c 45.9167,-7.6724 65.0486,-23.00616 76.5278,-30.65894 11.4792,-7.65278 21.9539,-22.95833 21.9539,-22.95833 v -7.65278 l 0.287,-4.59167 c 0,-5.25387 -0.3171,-10.42187 -0.9566,-15.49687 -7.3909,18.74647 -58.4238,33.17862 -120.7226,33.19392 h -0.048 v -0.0957 h -0.048 -0.096 c -62.2988,-0.0153 -113.3317,-14.44745 -120.7226,-33.19392 z"
         id="path3011" />
      <path
         style="fill:url(#linearGradient3188);fill-opacity:1;stroke:none"
         d="m 848.24152,293.60672 c -13.5698,2.88892 -29.1108,4.94447 -45.9166,5.9309 v 92.02463 c 2.4398,-0.17948 4.9735,-0.38861 7.5571,-0.71745 l -7.4136,-42.47289 c 19.6923,-3.29046 34.4247,-8.01552 45.7732,-12.91406 v -41.85113 z"
         id="path3879"
         inkscape:connector-curvature="0" />
      <path
         inkscape:connector-curvature="0"
         id="path3875"
         d="m 661.46142,268.42687 c -0.6396,5.075 -0.9566,10.243 -0.9566,15.49687 l 0.2869,4.6395 v 7.65278 c 0,0 10.4748,15.30555 21.9539,22.95833 11.4792,7.65278 30.6112,22.93871 76.5278,30.61111 l -7.4136,42.47291 c 12.2666,1.56131 23.1609,1.19863 30.3241,1.19575 0.014,0 0.031,0 0.048,0 v 0.0957 c 0.014,-1e-5 0.034,0 0.048,0 0.028,-1e-5 0.067,0 0.096,0 7.1633,0.003 18.0575,0.36556 30.3241,-1.19575 l -7.4136,-42.47291 c 45.9167,-7.6724 65.0486,-23.00616 76.5278,-30.65894 11.4792,-7.65278 21.9539,-22.95833 21.9539,-22.95833 v -7.65278 l 0.287,-4.59167 c 0,-5.25387 -0.3171,-10.42187 -0.9566,-15.49687 -7.3909,18.74647 -58.4238,33.17862 -120.7226,33.19392 h -0.048 v -0.0957 h -0.048 -0.096 c -62.2988,-0.0153 -113.3317,-14.44745 -120.7226,-33.19392 z"
         style="fill:none;stroke:#ffffff;stroke-width:0.918333;stroke-miterlimit:4;stroke-dasharray:none" />
      <circle
         style="fill:#d4a81c;fill-opacity:1;stroke:#ffffff;stroke-width:1.10372"
         id="path3803"
         cx="694.76355"
         cy="426.56302"
         r="13.796455" />
      <rect
         style="fill:#1a1a1a;fill-opacity:1;stroke:none"
         id="rect3794"
         width="30.611109"
         height="30.611109"
         x="220.96243"
         y="749.05115"
         ry="0"
         transform="rotate(-41.610094)" />
      <ellipse
         style="fill:url(#radialGradient3171);fill-opacity:1;stroke:#b47800;stroke-width:9.367;stroke-miterlimit:4;stroke-dasharray:37.468, 37.468;stroke-dashoffset:0;stroke-opacity:1"
         id="path3018"
         transform="rotate(-41.610093)"
         cx="235.47043"
         cy="706.06091"
         rx="60.059181"
         ry="60.059177" />
      <ellipse
         transform="rotate(-41.610094)"
         id="path3020"
         style="fill:#d0a014;fill-opacity:1;stroke:#ffffff;stroke-width:1.48143;stroke-miterlimit:4;stroke-dasharray:none;stroke-dashoffset:0;stroke-opacity:1"
         cx="235.47046"
         cy="706.06091"
         rx="38.250305"
         ry="38.250301" />
      <ellipse
         style="fill:#f4ec6c;fill-opacity:1;stroke:#ffffff;stroke-width:0.839491;stroke-miterlimit:4;stroke-dasharray:none;stroke-dashoffset:0;stroke-opacity:1"
         id="path3790"
         transform="rotate(-41.610094)"
         cx="235.47049"
         cy="706.06097"
         rx="21.675558"
         ry="21.675556" />
      <ellipse
         transform="rotate(-41.610094)"
         id="path3792"
         style="fill:#000000;fill-opacity:1;stroke:#ffffff;stroke-width:3.01826;stroke-miterlimit:4;stroke-dasharray:none;stroke-dashoffset:0;stroke-opacity:1"
         cx="235.47044"
         cy="706.06091"
         rx="14.696717"
         ry="14.696716" />
      <path
         style="fill:url(#linearGradient3178);fill-opacity:1;stroke:none"
         d="m 778.84402,166.93955 c -42.0265,0.52225 -82.5234,25.75899 -101.5625,63.21875 0.7675,45.99258 34.8585,86.66605 76.8899,102.83242 47.5341,19.16202 106.1972,11.36101 145.3289,-22.76992 0.6104,-25.76932 0.7262,-52.6916 -11.2922,-76.22133 -19.2772,-41.30114 -63.8035,-68.90533 -109.3641,-67.05992 z"
         id="path3068"
         inkscape:connector-curvature="0" />
      <path
         style="fill:#ffffff;stroke:none;filter:url(#filter3869)"
         d="m 230,580 10,70 10,-70 60,-10 -60,-10 -10,-60 -10,60 -60,10 z"
         id="path3091"
         inkscape:connector-curvature="0"
         transform="matrix(0.35705351,0,0,0.53235766,531.98412,39.0533)" />
      <path
         transform="matrix(0.6707023,0,0,1,696.16562,-374.48296)"
         inkscape:connector-curvature="0"
         id="path3873"
         d="m 230,580 10,70 10,-70 60,-10 -60,-10 -10,-60 -10,60 -60,10 z"
         style="fill:#ffffff;stroke:none;filter:url(#filter3869)" />
    </g>
    <path
       style="opacity:0.2;fill:#ffffff"
       d="m 1658.537,26.374504 c -0.1242,-0.4481 -0.3913,-1.25 -0.5935,-1.7819 -0.377,-0.9914 -0.5361,-1.8132 -0.759,-3.9213 -0.07,-0.6624 -0.1929,-1.4594 -0.2731,-1.7711 -0.08,-0.3118 -0.1434,-1.4914 -0.1406,-2.6214 0,-1.8222 0.04,-2.1266 0.3164,-2.6921 0.2617,-0.5358 0.3845,-0.6447 0.769,-0.6819 0.4024,-0.039 0.4865,0.016 0.697,0.4578 0.2117,0.4439 0.2176,0.5886 0.051,1.2487 -0.1176,0.466 -0.2123,1.9776 -0.2522,4.0228 -0.06,3.088 -0.045,3.3443 0.2617,4.4633 0.35,1.2761 0.5494,4.0918 0.2898,4.0918 -0.077,0 -0.2423,-0.3666 -0.3666,-0.8147 z m -10.0152,-1.7712 c -0.1826,-0.341 -0.355,-1.5215 -0.5226,-3.5777 -0.057,-0.7014 -0.161,-1.3668 -0.2308,-1.4786 -0.07,-0.1119 -0.1686,-1.2326 -0.2195,-2.4906 -0.078,-1.9367 -0.1398,-2.3846 -0.4005,-2.9232 -0.2508,-0.5181 -0.3079,-0.8893 -0.3079,-2.0029 0,-1.54934 -0.3129,-2.59669 -0.9667,-3.23643 -0.2087,-0.20416 -0.6344,-0.67838 -0.9462,-1.05383 -0.3117,-0.37545 -0.9569,-1.0692 -1.4337,-1.54166 -1.0357,-1.02618 -1.6341,-1.90636 -1.8845,-2.77189 -0.1015,-0.35069 -0.3811,-1.05207 -0.6214,-1.55862 -0.4348,-0.91681 -0.4367,-0.93073 -0.3991,-3.04641 0.021,-1.16896 0.1027,-2.57172 0.182,-3.11724 0.079,-0.54552 0.1761,-1.69323 0.2149,-2.55047 0.056,-1.23113 0.1213,-1.60328 0.3125,-1.77116 0.1331,-0.11689 0.4297,-0.49321 0.6592,-0.83625 0.5309,-0.79376 1.0494,-1.00576 2.4595,-1.00576 1.2749,0 1.5734,0.16553 1.5734,0.87268 0,0.23504 0.2231,0.82642 0.4959,1.31415 0.2727,0.48774 0.4959,1.08439 0.4959,1.32589 0,0.4218 0.8314,2.28152 1.2168,2.72177 0.1023,0.11689 0.3805,0.42922 0.6181,0.69405 0.4939,0.55024 0.5121,0.62189 0.2196,0.86457 -0.1623,0.13477 -0.2125,0.50304 -0.2125,1.56046 0,0.99284997 -0.096,1.75891997 -0.3377,2.71023 -0.1857,0.7294 -0.38,1.92488 -0.4317,2.65661 -0.052,0.73173 -0.1866,1.50965 -0.2999,1.7287 -0.2715,0.52514 -0.2643,2.05362 0.014,2.83874 0.3639,1.02848 0.5116,1.82171 0.63,3.38297 0.072,0.9487 0.2278,1.7959 0.43,2.338 0.2741,0.735 0.3174,1.1285 0.3194,2.9047 0,3.0164 -0.1939,7.368 -0.3338,7.368 -0.067,0 -0.1982,-0.1435 -0.2921,-0.3188 z m 4.7197,-0.2017 c -0.079,-0.1471 -0.1884,-0.7438 -0.2436,-1.3259 -0.055,-0.582 -0.1921,-1.5046 -0.3042,-2.0501 -0.1121,-0.5456 -0.2546,-1.6053 -0.3167,-2.3551 -0.062,-0.7497 -0.1502,-1.4237 -0.1959,-1.4977 -0.217,-0.3511 -0.5221,-3.9552 -0.5327,-6.29256 -0.01,-1.43387 -0.1026,-3.23995 -0.2136,-4.01351 -0.23,-1.60276 -0.2497,-4.45323 -0.039,-5.60733 0.078,-0.42862003 0.1381,-1.03017003 0.1327,-1.33677003 -0.01,-0.38333 0.078,-0.63954 0.2722,-0.82025 0.1552,-0.14454997 0.2821,-0.43831997 0.2821,-0.65283997 0,-0.25115 0.1766,-0.57726 0.496,-0.91581 0.2727,-0.28917 0.4959,-0.63104 0.4959,-0.75969 0,-0.12864 0.1913,-0.63877 0.4251,-1.13359 0.3424,-0.72488 0.425,-1.08697 0.425,-1.86363 0,-0.80571 0.058,-1.04275 0.3543,-1.44408 0.1948,-0.26407 0.3542,-0.58746 0.3542,-0.71864 0,-0.13119 0.1,-0.32137 0.2219,-0.42265 0.3709,-0.30779 0.6283,-0.93899 0.6283,-1.54057 0,-0.45222 -0.073,-0.61868 -0.3543,-0.80264 -0.4278,-0.28036 -0.4478,-0.4341 -0.072,-0.55348 0.1554,-0.0493 0.3786,-0.18569 0.496,-0.30305 0.2863,-0.28639 0.2803,-1.38121 -0.01,-1.67079 -0.4179,-0.41782 -1.5996,-0.19263 -1.8529,0.35306 -0.066,0.143 -0.3416,0.40773 -0.6116,0.58828 -0.9545,0.63826 -1.0704,1.91148 -0.2553,2.8034 0.4623,0.50586 0.817,1.08816 0.817,1.3411 0,0.11964 -0.1354,0.3529 -0.3008,0.51836 -0.2603,0.26027 -0.4044,0.28868 -1.0685,0.21063 -0.4221,-0.0496 -0.8825,-0.0287 -1.023,0.0464 -0.1404,0.0751 -0.5285,0.49842 -0.8623,0.94053 l -0.6069,0.80385 -0.7174,-0.0849 c -1.1005,-0.13034 -1.1627,-0.2493 -0.9505,-1.81756 0.2061,-1.52339 0.2075,-2.56882 0,-2.94901 -0.078,-0.1463 -0.1424,-0.9736 -0.1424,-1.83842 0,-1.60933 -0.3371,-3.14052 -0.7654,-3.47632 -0.099,-0.078 -0.2174,-0.41683 -0.2622,-0.7531 -0.062,-0.46143 -0.2133,-0.7395 -0.619,-1.13354 -0.5362,-0.52095 -1.0898,-0.87638 -1.365,-0.87638 -0.2045,0 -0.4983,0.39552 -0.8155,1.09813 -0.3354,0.74272 -0.7094,0.78577 -1.8468,0.21254 -0.7276,-0.36671 -0.8116,-0.46621 -1.4266,-1.68978 l -0.6534,-1.30011 -0.1047,-3.30271 -0.1047,-3.30269 -0.6469,-1.2066 c -0.3558,-0.66361 -0.7352,-1.37907 -0.8431,-1.58989 -0.3098,-0.60493 -0.7624,-2.22902 -0.8803,-3.15901 -0.1342,-1.05853 -0.409,-1.59802 -1.2676,-2.48879 -0.5123,-0.53153 -0.7756,-0.6993 -1.0974,-0.6993 -0.2329,0 -0.7111,-0.18242 -1.0626,-0.40536 -0.5716,-0.36251 -0.6817,-0.52356 -1.0409,-1.52321 -0.221,-0.61481 -0.4957,-1.30518 -0.6104,-1.53416 -0.3709,-0.74008 -0.7657,-2.80094 -0.8606,-4.49204 -0.084,-1.50705 -0.1215,-1.67287 -0.4283,-1.92085 l -0.3358,-0.27141 0.3516,-0.23038 c 0.1934,-0.1267 0.3892,-0.41003 0.4353,-0.62962 0.09,-0.42947 0.9638,-1.45381 1.4694,-1.72254 0.1703,-0.0904 0.6223,-0.16449 1.0046,-0.16449 0.6073,0 0.7158,0.0456 0.8594,0.3609 0.091,0.19849 0.1645,0.47544 0.1645,0.61544 0,0.13999 0.1275,0.62518 0.2833,1.07821 0.1559,0.45302 0.2834,1.02954 0.2834,1.28115 0,0.47944 0.3126,1.65487 0.6485,2.43871 0.12,0.28 0.4904,0.65388 0.9435,0.95251 0.4103,0.27037 1.0329,0.69306 1.3836,0.9393 0.3507,0.24624 0.9245,0.64652 1.2752,0.8895 0.3507,0.24297 0.7014,0.51042 0.7793,0.59434 0.078,0.0839 0.4093,0.35751 0.7363,0.60801 0.3269,0.25051 0.703,0.70145 0.8356,1.0021 0.1571,0.35587 0.4366,0.65643 0.801,0.86127 0.3079,0.17304 0.7223,0.49696 0.9209,0.71983 0.1985,0.22285 0.4723,0.44053 0.6084,0.48371 0.4018,0.12754 0.5913,0.80615 0.5204,1.86339 -0.036,0.53278 -0.089,1.09622 -0.1184,1.25208 -0.049,0.25805 0.015,0.28047 0.7113,0.25066 0.4205,-0.018 0.9165,-0.13223 1.1021,-0.25385 0.4113,-0.26946 0.5514,-0.1978 0.6583,0.33659 0.106,0.5301 0.4505,0.65845 0.8079,0.30101 0.2103,-0.21029 0.2802,-0.47204 0.2802,-1.04936 0,-0.88734 -0.2312,-1.21451 -0.8584,-1.21451 -0.3408,0 -0.4506,-0.0899 -0.6275,-0.51324 -0.245,-0.58648 -0.2821,-2.14208 -0.069,-2.90825 0.079,-0.28424 0.3018,-0.62045 0.4952,-0.74715 0.1933,-0.12671 0.3515,-0.29267 0.3515,-0.36881 0,-0.0761 0.1325,-0.27087 0.2944,-0.43277 0.1901,-0.1901 0.2585,-0.37826 0.1931,-0.53134 -0.1054,-0.24691 -0.2694,-1.16541 -0.4803,-2.69068 -0.081,-0.58405 -0.2601,-1.101 -0.5164,-1.48777 -0.2159,-0.32601 -0.5758,-0.94342 -0.7997,-1.37205 -0.2238,-0.42861 -0.5192,-0.87495 -0.6563,-0.99184 -0.3445,-0.29373 -0.7269,-0.93416 -0.7269,-1.21729 0,-0.48037 -1.5095,-3.00703 -2.5997,-4.35149 -1.2821,-1.58107 -2.1891,-2.42201 -3.1633,-2.9328 -0.8782,-0.46049 -0.9761,-0.53211 -1.645,-1.20439 -0.3101,-0.31172 -0.7159,-0.9055 -0.9017,-1.31951 -0.1858,-0.414 -0.6204,-1.03938 -0.9658,-1.38973 -0.3454,-0.35035 -0.9024,-1.06369 -1.2377,-1.5852 l -0.6097,-0.9482 v -2.26708 -2.26709 l 0.5191,-1.12103 c 0.2854,-0.61657 0.6361,-1.18602 0.7793,-1.26545 0.1432,-0.0795 0.5563,-0.42392 0.9181,-0.76554 0.3619,-0.34161 0.8401,-0.76165 1.0627,-0.93339 0.2226,-0.17175 0.7252,-0.62991 1.1169,-1.01813 1.6292,-1.61499 2.2083,-1.9143 4.223,-2.1824 1.2387,-0.16484 2.3588,-0.0396 2.8484,0.31847 0.1475,0.10779 0.2846,0.52683 0.3702,1.13128 l 0.1359,0.96007 -0.5926,1.09197 c -0.3259,0.6006 -0.7564,1.29606 -0.9567,1.54547 -0.2002,0.24941 -0.4735,0.60011 -0.6072,0.77931 -0.1336,0.1792 -0.4548,0.5866 -0.7137,0.90531 -0.2588,0.31872 -0.5572,0.84184 -0.663,1.16249 -0.1689,0.51169 -0.1645,0.62279 0.036,0.90829 0.1256,0.17891 0.427,0.61221 0.6698,0.96291 0.2428,0.35068 0.702,0.87672 1.0205,1.16896 0.5169,0.47421 0.6599,0.53135 1.3295,0.53135 0.6372,0 0.8258,-0.0663 1.2512,-0.43976 0.2755,-0.24187 0.5009,-0.50321 0.5009,-0.58077 0,-0.0776 -0.193,-0.32126 -0.4288,-0.54157 -0.3052,-0.28506 -0.5131,-0.69984 -0.7208,-1.43836 -0.6087,-2.16335 -0.492,-3.4342 0.4114,-4.48028 0.5209,-0.6032 0.5354,-0.60919 1.6186,-0.67163 l 1.093,-0.063 0.3728,0.6362 c 0.2255,0.38477 0.4749,0.63621 0.6311,0.63621 0.5243,0 1.6685,-0.70508 1.968,-1.21269 0.388,-0.65759 1.5632,-1.19671 2.6038,-1.19456 0.8148,0.002 2.0114,0.31609 2.3591,0.61979 0.1225,0.10705 0.4141,0.28786 0.6479,0.40177 0.6189,0.30155 3.1107,0.72912 3.6484,0.62604 0.2534,-0.0486 0.7476,-0.14978 1.0983,-0.22493 1.0992,-0.23553 4.0932,-0.16842 4.7697,0.10691 0.6332,0.25777 1.415,1.11771 1.5599,1.71592 0.049,0.20137 0.2409,0.71412 0.4271,1.13943 0.3292,0.75229 0.3367,0.85429 0.2769,3.75486 -0.096,4.67687 -0.2465,5.18419 -1.7188,5.80909 -0.4683,0.19877 -1.0437,0.3612 -1.2786,0.36098 -0.5698,-5.7e-4 -1.9381,0.50868 -2.0884,0.77723 -0.066,0.11783 -0.2602,0.2143 -0.4316,0.21441 -0.1715,9e-5 -0.9341,0.38266 -1.6946,0.85015 -0.7605,0.46748 -1.4368,0.84997 -1.5028,0.84997 -0.066,0 -0.4002,0.20819 -0.7426,0.46265 -0.3424,0.25446 -0.8486,0.56599 -1.1248,0.69229 -0.5866,0.2682 -2.0701,1.58462 -2.1816,1.93589 -0.042,0.13281 -0.2203,0.30467 -0.3959,0.38191 -0.1756,0.0773 -0.3422,0.26226 -0.3703,0.41118 -0.055,0.29281 -1.2106,1.50041 -1.4356,1.50041 -0.075,0 -0.2353,0.1896 -0.3551,0.42133 -0.1198,0.23173 -0.6156,0.73967 -1.1018,1.12877 -0.4861,0.38909 -1.0763,0.86234 -1.3114,1.05167 -0.2352,0.18932 -0.7371,0.93109 -1.1153,1.64837 l -0.6876,1.30417 0.2934,0.37551 c 1.0435,1.33565 1.058,1.37259 1.1988,3.06478 0.1133,1.36142 0.099,1.71667 -0.095,2.28507 -0.2816,0.82657 -0.2922,1.50675 -0.031,2.01123 0.1089,0.21051 0.2445,0.75559 0.3015,1.21126 0.057,0.45708 0.2786,1.15573 0.4941,1.55846 0.407,0.76064 1.2898,2.15959 1.5559,2.46573 0.2191,0.25212 1.3508,0.2241 1.6148,-0.04 0.3043,-0.30423 0.4293,-1.10755 0.2303,-1.47937 -0.091,-0.17016 -0.1276,-0.4082 -0.081,-0.52898 0.046,-0.12078 0.182,-0.69273 0.3015,-1.271 0.3485,-1.68753 1.4671,-3.62841 2.7786,-4.82122 0.103,-0.0937 0.26,-0.2531 0.3488,-0.35424 0.8511,-0.96873 2.8764,-2.31662 3.8537,-2.56463 1.0917,-0.27705 2.4085,-1.13499 2.7857,-1.81488 0.156,-0.28139 0.5706,-0.87845 0.9213,-1.32681 0.3507,-0.44837 0.8608,-1.17457 1.1336,-1.61379 l 0.4959,-0.79859 0.046,-2.18708 c 0.034,-1.60436 0.1,-2.26398 0.248,-2.47573 0.1112,-0.15876 0.2031,-0.44981 0.2042,-0.64678 0,-0.59412 0.3164,-1.03953 0.8223,-1.1705 0.3353,-0.0868 0.5267,-0.25188 0.6675,-0.57568 0.1758,-0.40434 0.198,-0.41733 0.2029,-0.11885 0,0.19255 0.2079,0.52411 0.4811,0.77931 0.2625,0.24517 0.5139,0.64569 0.5611,0.89389 0.047,0.24733 0.4388,1.18453 0.8705,2.08268 l 0.785,1.63298 v 1.82953 c 0,2.81929 -0.039,2.97431 -0.9826,3.94483 -0.4435,0.45592 -1.0666,1.02023 -1.3846,1.25403 -0.3181,0.23379 -0.7116,0.68012 -0.8744,0.99184 -0.1628,0.31173 -0.6844,1.10876 -1.1592,1.77117 -0.8638,1.20525 -2.3821,4.13933 -2.9696,5.73856 -0.4452,1.21184 -0.6018,2.40795 -0.4242,3.2396 0.144,0.67469 0.1367,0.70068 -0.3508,1.24022 -0.3141,0.34774 -0.498,0.69473 -0.4984,0.94034 -10e-4,1.06182 -2.1233,3.04776 -4.1326,3.86783 -0.5141,0.20983 -0.5633,0.38252 -0.648,2.27436 -0.068,1.52366 -0.053,1.65832 0.2073,1.84201 0.1545,0.10899 0.3935,0.42133 0.5311,0.69409 0.1376,0.27275 0.3826,0.64069 0.5444,0.81763 0.2637,0.28833 0.2759,0.37236 0.1177,0.81006 -0.1269,0.35091 -0.1346,0.56682 -0.027,0.7671 0.082,0.15331 0.1492,0.97638 0.1492,1.82905 0,1.3568 -0.045,1.65306 -0.3642,2.3736 -0.2002,0.45282 -0.6883,1.17807 -1.0846,1.61167 -0.9,0.9846 -1.1017,1.46228 -1.1017,2.6085 0,0.65221 -0.063,0.96021 -0.2223,1.09272 -0.1729,0.14341 -0.2015,0.33663 -0.1284,0.86751 0.062,0.45037 0.042,0.68298 -0.058,0.68298 -0.084,0 -0.2811,0.23911 -0.4388,0.53136 -0.1576,0.29223 -0.3832,0.66478 -0.5013,0.82788 -0.1951,0.26956 -0.1886,0.32958 0.071,0.65997 0.3747,0.47637 0.3607,0.58075 -0.064,0.47417 -0.5095,-0.12788 -0.8994,0.48177 -0.6799,1.06325 0.113,0.29944 0.1119,0.52504 0,0.83234 -0.1209,0.32025 -0.1161,0.54046 0.02,0.91633997 0.1193,0.32982 0.1338,0.57899 0.044,0.7474 -0.074,0.13895 -0.1791,0.54524 -0.2327,0.90288 -0.078,0.51720003 -0.047,0.70033003 0.1473,0.89502003 0.2173,0.21732 0.2238,0.30823 0.058,0.81047 -0.1428,0.43278 -0.1495,0.67192 -0.029,1.01783 0.4519,1.29151 0.643,4.87192 0.295,5.52697 -0.09,0.17022 -0.5049,0.71164 -0.921,1.20315 -0.4161,0.4915 -0.7566,0.99542 -0.7566,1.11981 0,0.1244 -0.204,0.64683 -0.4534,1.16093 -0.3012,0.6209 -0.4888,1.2677 -0.559,1.9266 -0.2989,2.8049 -0.3892,4.132 -0.3956,5.8094 -0.01,1.8144 -0.2351,3.993 -0.4431,4.2305 -0.058,0.067 -0.1708,0.001 -0.2495,-0.146 z m 3.1532,-38.80939 c 0.162,-0.16207 0.2226,-0.50635 0.2226,-1.26511 0,-1.15189 -0.1807,-1.48778 -0.8005,-1.48778 -0.4122,0 -1.4666,1.01194 -1.4666,1.40748 0,0.13795 0.1754,0.44658 0.3897,0.68587 0.2143,0.23928 0.4718,0.53566 0.5723,0.65863 0.2344,0.28682 0.7961,0.28729 1.0825,8.5e-4 z m -7.8489,-46.18778 c 0.2534,-0.30538 -0.024,-0.55134 -0.4905,-0.43433 -0.5879,0.14754 -0.4624,0.51026 0.2202,0.63645 0.049,0.009 0.1705,-0.0819 0.2703,-0.20212 z m -5.6481,81.84007 c -0.1735,-0.2853 -0.3253,-0.8532 -0.3772,-1.4109 -0.048,-0.5134 -0.2112,-1.3205 -0.3631,-1.7936 -0.1531,-0.4768 -0.2776,-1.2661 -0.2795,-1.7712 0,-0.9006 -0.037,-1.0895 -0.496,-2.753 -0.3809,-1.3816 -0.5173,-3.44718 -0.263,-3.9831 l 0.2118,-0.44626 0.9483,0.0735 c 1.1654,0.0902 1.6784,0.40689 1.8118,1.11824 0.1795,0.95695 -0.05,7.84412 -0.2894,8.68832 -0.1209,0.4261 -0.2198,1.0994 -0.2198,1.4961 0,0.3968 -0.089,0.8424 -0.1968,0.9904 -0.1872,0.256 -0.2108,0.2459 -0.4871,-0.2084 z m -22.1287,-8.5976 c -1.1228,-0.3592 -2.1441,-0.9557 -2.745,-1.60314 -0.3216,-0.34653 -0.8309,-0.85663 -1.1317,-1.13354 -1.1539,-1.06207 -1.69,-1.67845 -2.5058,-2.88072 -0.4641,-0.68404 -0.8438,-1.35926 -0.8438,-1.50049 0,-0.14122 -0.3188,-0.88295 -0.7085,-1.64829 -0.3897,-0.76534 -0.7085,-1.48025 -0.7085,-1.58869 0,-0.10844 -0.1227,-0.43298 -0.2727,-0.72117 -0.15,-0.2882 -0.3511,-0.93845003 -0.4467,-1.44500003 -0.2252,-1.19242997 -0.2308,-6.17450997 -0.01,-7.29718997 0.093,-0.46759 0.226,-1.29649 0.2964,-1.84201 0.07,-0.54551 0.1934,-1.27878 0.2734,-1.62947 0.08,-0.35068 0.1483,-1.00859 0.1517,-1.462 0,-0.45341 0.1022,-1.53737 0.2195,-2.40878 0.1174,-0.87142 0.2853,-2.12374 0.3733,-2.78294 0.1208,-0.90533 0.3321,-1.58129 0.8633,-2.76301 0.3869,-0.86045 0.7825,-1.66011 0.8794,-1.77701 0.3835,-0.46313 1.4964,-2.37406 1.4964,-2.56943 0,-0.22849 1.0296,-1.70007 1.8358,-2.62387 0.2823,-0.32356 0.6374,-0.83365 0.7889,-1.13355 0.1517,-0.29989 0.4721,-0.76842 0.7123,-1.04118 0.4573,-0.51921 0.5306,-0.62059 1.5544,-2.14868 0.348,-0.51936 0.6809,-0.96569 0.7399,-0.99185 0.1509,-0.0669 0.626,-0.77268 1.0812,-1.60618 0.3322,-0.60841 0.5109,-0.76375 1.2651,-1.09986 0.8211,-0.36595 1.0043,-0.39128 2.8173,-0.38965 1.0664,9.8e-4 2.089,0.0587 2.2722,0.12842 0.1833,0.0697 0.9048,0.68002 1.6033,1.35633 0.6985,0.6763 1.3976,1.34577 1.5534,1.4877 0.6052,0.55106 3.3348,3.50214 3.6742,3.97224 0.6674,0.92445 0.7173,1.0921 0.5319,1.78553 -0.093,0.3485 -0.1289,0.88796 -0.079,1.19883 0.064,0.39833 0.029,0.63733 -0.1168,0.80953 -0.1141,0.1344 -0.3724,0.53392 -0.5741,0.88785 -0.3911,0.68584 -2.1045,2.18772 -3.041,2.66549 -0.3059,0.15607 -0.88,0.59122 -1.2757,0.96701 -0.3957,0.37579 -0.9971,0.89781 -1.3363,1.16006 -0.3393,0.26224 -0.7763,0.74937 -0.9711,1.0825 -0.1948,0.33313 -0.7687,0.97532 -1.2752,1.42709 -0.5066,0.45176 -1.0469,0.98482 -1.2008,1.18459 -0.4603,0.59759 -2.54,3.04435 -2.7174,3.19705 -0.091,0.078 -0.3958,0.49238 -0.6784,0.921 -0.2826,0.42862 -0.6978,1.03436 -0.9227,1.34608 -0.4167,0.57752 -0.6155,0.95502 -1.7539,3.32979 -0.7371,1.53787 -0.9524,2.10784 -1.2843,3.40063 -0.1301,0.50656 -0.2967,1.14417 -0.3703,1.41692 -0.3039,1.12635997 -0.1765,2.04352997 0.507,3.6499 0.3561,0.83705 0.7536,1.68131 0.8832,1.87613 0.1296,0.19483 0.3518,0.60814 0.4938,0.91846 0.142,0.31032 0.3392,0.66101 0.4384,0.77931 0.099,0.1183 0.3502,0.61679 0.558,1.10777 0.4963,1.17282 1.1493,1.96573 1.956,2.37491 0.3605,0.18284 0.6926,0.4294 0.7381,0.54793 0.046,0.11854 0.6083,0.47505 1.2506,0.79227 0.6424,0.31722 1.2595,0.65267 1.3713,0.74546 0.1117,0.0928 1.1351,0.24554 2.2739,0.33944 2.2488,0.18538 3.3681,0.31268 3.7001,0.42078 0.189,0.062 0.189,0.082 0,0.1855 -0.4364,0.2389 -3.5574,0.5863 -5.8832,0.6548 -1.3232,0.039 -3.1391,0.094 -4.0353,0.1226 -1.1533,0.037 -1.8158,-0.01 -2.2671,-0.1522 z m 58.9443,-0.4626 c -0.2728,-0.063 -1.0061,-0.222 -1.6295,-0.3528 -1.0932,-0.2293 -1.842,-0.59591 -1.842,-0.90174 0,-0.0807 0.5101,-0.41474 1.1335,-0.74234 0.6235,-0.3276 1.3886,-0.80203 1.7003,-1.05428 0.3118,-0.25226 0.8856,-0.63924 1.2753,-0.85996 1.3881,-0.78628 1.9128,-1.54525 1.9128,-2.76667 0,-0.39788 0.076,-0.86269 0.1686,-1.03291 0.093,-0.17022 0.2514,-0.81959 0.3527,-1.44304 0.1012,-0.62345 0.2464,-1.51611 0.3226,-1.9837 0.1256,-0.77099003 0.1003,-0.96257003 -0.2716,-2.05733 -0.3751,-1.10443 -0.4935,-1.66105 -0.843,-3.96461 -0.2422,-1.59599 -0.6444,-2.54524 -1.9209,-4.53418 -0.977,-1.5224 -1.4144,-2.29748 -1.7591,-3.11725 -0.1802,-0.42862 -0.5997,-1.06624 -0.9322,-1.41692 -0.3325,-0.3507 -0.8598,-0.98832 -1.1717,-1.41693 -0.3119,-0.42863 -0.7117,-0.90684 -0.8883,-1.0627 -0.1767,-0.15587 -0.5668,-0.61407 -0.8669,-1.01824 -0.3001,-0.40416 -0.8814,-0.9577 -1.2917,-1.23008 -0.4104,-0.27238 -1.0584,-0.85698 -1.4401,-1.29912 -0.3818,-0.44213 -0.8778,-0.91559 -1.1023,-1.05212 -0.2245,-0.13654 -0.823,-0.75154 -1.33,-1.36667 -1.1311,-1.37245 -1.3633,-1.57234 -2.0376,-1.7539 -0.4211,-0.11341 -0.6272,-0.29643 -0.9891,-0.87855 -0.3854,-0.61995 -0.4331,-0.78775 -0.3047,-1.06965 0.084,-0.1839 0.1527,-0.53858 0.1531,-0.78819 0,-0.24961 0.1578,-0.70888 0.3498,-1.02061 0.192,-0.31172 0.351,-0.64332 0.3535,-0.73689 0.01,-0.31098 1.9239,-2.1463 2.3524,-2.25358 0.2283,-0.0571 0.5766,-0.20468 0.774,-0.32786 0.5926,-0.36972 1.5618,-1.51743 1.7061,-2.02032 0.086,-0.3013 0.4101,-0.70028 0.899,-1.10838 0.4201,-0.35068 0.8187,-0.75287 0.8858,-0.89374 0.067,-0.14087 0.5035,-0.41536 0.9698,-0.60999 0.7802,-0.32556 0.9604,-0.34654 2.2528,-0.26222 1.2281,0.0801 1.5732,0.16574 2.7448,0.68083 1.315,0.57817 1.7503,0.91444 3.0832,2.38137 0.2374,0.26121 0.9387,0.7214 1.5587,1.02267 0.6198,0.30127 1.3076,0.67597 1.5284,0.8327 0.3755,0.26663 0.3973,0.33615 0.339,1.08171 -0.093,1.19087 -0.4006,1.8195 -1.2922,2.64276 -0.5614,0.51832 -0.773,0.80745 -0.7104,0.97056 0.1157,0.30163 0.4035,0.35791 2.1124,0.41309 1.0442,0.0337 1.6219,0.12741 2.1962,0.35624 1.4694,0.58543 1.5699,0.73851 1.8314,2.79031 0.07,0.54551 0.1945,1.24689 0.2777,1.55862 0.083,0.31172 0.1528,0.9572 0.1546,1.43441 0,0.4772 0.1364,1.36986 0.299,1.98369 0.2007,0.75804 0.3145,1.70697 0.3547,2.95808 0.057,1.78049 0.1779,3.14415 0.4894,5.52602 0.082,0.62345 0.1863,1.44704 0.233,1.83021 0.047,0.38316 0.2351,0.91809 0.4188,1.18873 0.1837,0.27065 0.3339,0.54603 0.3339,0.61196 0,0.0659 0.3746,0.30895 0.8324,0.54004 0.7506,0.37893 1.0096,0.63753 1.0096,1.00799 0,0.23868 -0.3872,-0.0238 -0.5445,-0.36916 -0.1801,-0.39529 -0.6041,-0.45282 -0.9306,-0.12628 -0.1805,0.1805 -0.2142,0.55705 -0.1873,2.08997 0.025,1.40956 -0.032,2.14883997 -0.2289,3.00334997 -0.264,1.14326003 -1.4451,3.76306003 -2.005,4.44756003 -0.1665,0.2035 -0.58,0.94344 -0.919,1.6443 -0.5469,1.13102 -1.4392,2.45649 -2.3252,3.45407 -0.2934,0.33031 -2.0428,1.68717 -2.8208,2.18777 -0.3194,0.2056 -0.7764,0.2666 -2.3379,0.3122 -1.0675,0.031 -2.1641,0 -2.4368,-0.058 z m 5.3573,-33.891 c 0.4808,-0.16759 0.666,-0.53117 0.5355,-1.05117 -0.2008,-0.79999 -0.8671,-1.00007 -1.436,-0.4312 -0.4018,0.40184 -0.4616,1.07678 -0.1251,1.41325 0.2632,0.26318 0.4356,0.27481 1.0256,0.0691 z m -35.4485,19.63351 c -0.068,-0.17558 -0.014,-0.21869 0.2301,-0.18407 0.3594,0.0511 0.413,0.30641 0.078,0.37094 -0.1211,0.0233 -0.2597,-0.0608 -0.3081,-0.18687 z m 12.0962,-22.17214 c 0,-0.078 0.064,-0.14169 0.1417,-0.14169 0.078,0 0.1417,0.0637 0.1417,0.14169 0,0.078 -0.064,0.1417 -0.1417,0.1417 -0.078,0 -0.1417,-0.0637 -0.1417,-0.1417 z m 3.4791,-0.69611 c -0.1474,-0.2385 0.061,-0.49622 0.2492,-0.30808 0.1109,0.11092 0.1109,0.19715 0,0.30808 -0.1109,0.11092 -0.1807,0.11092 -0.2492,0 z m -17.9318,-16.36952 c 0,-0.11229 0.064,-0.24359 0.1417,-0.29175 0.078,-0.0481 0.1417,0.0437 0.1417,0.20417 0,0.16047 -0.064,0.29176 -0.1417,0.29176 -0.078,0 -0.1417,-0.0919 -0.1417,-0.20418 z m 23.894,-14.67358 c 0.1232,-0.79738 0.1622,-0.85016 0.6294,-0.85016 h 0.4445 l -0.4046,0.39396 c -0.2226,0.21669 -0.4815,0.51956 -0.5753,0.67304 -0.1483,0.24252 -0.1606,0.2141 -0.094,-0.21684 z"
       id="path3996"
       inkscape:connector-curvature="0" />
    <text
       xml:space="preserve"
       style="font-style:normal;font-variant:normal;font-weight:normal;font-stretch:normal;line-height:0%;font-family:Mandalorian;-inkscape-font-specification:Mandalorian;letter-spacing:0px;word-spacing:0px;fill:#f8ec70;fill-opacity:1;stroke:none"
       x="-1280.7729"
       y="-640.6767"
       id="text3128"><tspan
         sodipodi:role="line"
         id="tspan3130"
         x="-1280.7729"
         y="-640.6767"
         style="font-size:64px;line-height:1.25"> </tspan></text>
  </g>
</svg>
