<svg width="600" height="32" version="1.1" viewBox="0 0 158.75 8.4667" xmlns="http://www.w3.org/2000/svg">
 <rect width="158.75" height="8.4667" fill="#fc0" stroke-width=".13046"/>
 <path d="m0 0v0.84646l0.66146-0.84646h-0.66146zm5.9531 0-5.9531 7.6202v0.84646h4.6302l6.6146-8.4667h-5.2917zm10.583 0-6.6146 8.4667h5.2917l6.6146-8.4667h-5.2917zm10.583 0-6.6146 8.4667h5.2917l6.6146-8.4667h-5.2917zm10.583 0-6.6146 8.4667h5.2917l6.6146-8.4667h-5.2917zm10.583 0-6.6146 8.4667h5.2917l6.6146-8.4667h-5.2917zm10.583 0-6.6146 8.4667h5.2917l6.6146-8.4667h-5.2917zm10.583 0-6.6146 8.4667h5.2917l6.6146-8.4667h-5.2917zm10.583 0-6.6146 8.4667h5.2917l6.6146-8.4667h-5.2917zm10.583 0-6.6146 8.4667h5.2917l6.6146-8.4667h-5.2917zm10.583 0-6.6146 8.4667h5.2917l6.6146-8.4667h-5.2917zm10.583 0-6.6146 8.4667h5.2917l6.6146-8.4667h-5.2917zm10.583 0-6.6146 8.4667h5.2917l6.6146-8.4667h-5.2917zm10.583 0-6.6146 8.4667h5.2917l6.6146-8.4667h-5.2917zm10.583 0-6.6146 8.4667h5.2917l6.6146-8.4667h-5.2917zm10.583 0-6.6146 8.4667h5.2917l5.9531-7.6202v-0.84646h-4.6302zm4.6302 7.6202-0.66146 0.84646h0.66146v-0.84646z" stroke-width=".13663"/>
</svg>
