<?xml version="1.0" encoding="UTF-8" standalone="no"?>
<!-- Created with Inkscape (http://www.inkscape.org/) -->

<svg
   width="16"
   height="16"
   viewBox="0 0 4.2333332 4.2333333"
   version="1.1"
   id="svg5"
   xml:space="preserve"
   sodipodi:docname="docker_logo.svg"
   inkscape:version="1.2.1 (9c6d41e4, 2022-07-14)"
   xmlns:inkscape="http://www.inkscape.org/namespaces/inkscape"
   xmlns:sodipodi="http://sodipodi.sourceforge.net/DTD/sodipodi-0.dtd"
   xmlns="http://www.w3.org/2000/svg"
   xmlns:svg="http://www.w3.org/2000/svg"><sodipodi:namedview
     id="namedview10918"
     pagecolor="#ffffff"
     bordercolor="#000000"
     borderopacity="0.25"
     inkscape:showpageshadow="2"
     inkscape:pageopacity="0.0"
     inkscape:pagecheckerboard="0"
     inkscape:deskcolor="#d1d1d1"
     showgrid="false"
     inkscape:zoom="14.75"
     inkscape:cx="-12.915254"
     inkscape:cy="8.0338983"
     inkscape:window-width="1680"
     inkscape:window-height="997"
     inkscape:window-x="3448"
     inkscape:window-y="99"
     inkscape:window-maximized="0"
     inkscape:current-layer="g2691" /><defs
     id="defs2" /><g
     id="g815"
     transform="translate(7.6595131,0.16138922)"><g
       id="g2691"
       transform="translate(8.1259393,-1.9672735e-4)"><rect
         style="fill:#333333;fill-opacity:1;stroke:none;stroke-width:0.264583"
         id="rect9168"
         width="4.2333331"
         height="4.2333331"
         x="-15.785452"
         y="-0.16119249" /><path
         style="fill:#2396ed;fill-opacity:1;stroke-width:0.00529167"
         d="m -14.486823,3.4779499 c -0.596415,-0.035524 -1.008618,-0.3195621 -1.195694,-0.8239218 -0.08149,-0.2196861 -0.12217,-0.5697638 -0.0831,-0.7151156 l 0.0042,-0.01588 1.473348,-0.00311 c 1.089299,-0.00231 1.482316,-0.00473 1.507746,-0.0093 0.08479,-0.015257 0.215296,-0.058138 0.210574,-0.069191 -8.55e-4,-0.002 -0.01154,-0.023747 -0.02381,-0.048322 -0.09953,-0.1998723 -0.0722,-0.4759561 0.06848,-0.6915874 0.05033,-0.077135 0.03687,-0.075029 0.113542,-0.017767 0.155358,0.1160169 0.25764,0.2657745 0.28342,0.4149882 l 0.0062,0.036063 0.03987,-0.00432 c 0.201077,-0.021754 0.351477,0.00485 0.480405,0.084971 0.0587,0.036479 0.05797,0.02354 0.0071,0.1271329 -0.111491,0.2270388 -0.283101,0.331105 -0.546206,0.3312384 -0.07088,3.7e-5 -0.06416,-0.00443 -0.09175,0.060885 -0.37658,0.8918285 -1.236021,1.4039041 -2.254438,1.3432457 z M -15.452552,1.6267042 V 1.422975 h 0.216958 0.216959 v 0.2037292 0.2037292 h -0.216959 -0.216958 z m 0.518582,0 V 1.422975 h 0.21696 0.216957 v 0.2037292 0.2037292 h -0.216957 -0.21696 z m 0.518584,0 V 1.422975 h 0.216959 0.216958 v 0.2037292 0.2037292 h -0.216958 -0.216959 z m 0.513292,0 V 1.422975 h 0.216958 0.216959 v 0.2037292 0.2037292 h -0.216959 -0.216958 z m 0.518584,0 V 1.422975 h 0.216957 0.21696 v 0.2037292 0.2037292 h -0.21696 -0.216957 z M -14.93397,1.1292876 V 0.92555837 h 0.21696 0.216957 V 1.1292876 1.3330167 h -0.216957 -0.21696 z m 0.518584,0 V 0.92555837 h 0.216959 0.216958 V 1.1292876 1.3330167 h -0.216958 -0.216959 z m 0.513292,0 V 0.92555837 h 0.216958 0.216959 V 1.1292876 1.3330167 h -0.216959 -0.216958 z m 0,-0.49477093 v -0.206375 h 0.216958 0.216959 v 0.206375 0.206375 h -0.216959 -0.216958 z"
         id="path2707" /></g></g></svg>
