<svg width="16" height="16" version="1.1" viewBox="0 0 4.2333 4.2333" xmlns="http://www.w3.org/2000/svg">
 <path d="m2.1172 0.13229-0.92242 0.32866c-0.50717 0.18083-0.92328 0.32958-0.92449 0.33073-0.0020527 0.0019537 0.2754 2.4206 0.27957 2.4371 0.0016747 0.0066312 0.061546 0.040236 0.78341 0.44028 0.42985 0.23822 0.78264 0.43259 0.78445 0.43202 0.0031737-0.001008 1.5615-0.86362 1.5637-0.86558 0.0019197-0.0017209 0.28318-2.4421 0.28164-2.4438-8.154e-4 -8.667e-4 -0.41675-0.14989-0.92397-0.33073l-0.92191-0.32866z" fill="#d4aa00" stroke-width=".0024236"/>
 <path d="m2.1167 0.97927-0.52865 0.18862c-0.2907 0.10365-0.52899 0.18848-0.52968 0.18914-0.00118 0.00112 0.15781 1.3874 0.1602 1.3968 9.599e-4 0.0038 0.035304 0.023397 0.44907 0.2527 0.24533 0.13596 0.44633 0.24639 0.44907 0.24701v-2.2743z" fill="#fc0" stroke-width=".0013892"/>
 <path d="m2.1167 0.97927 0.52865 0.18862c0.2907 0.10365 0.52899 0.18848 0.52968 0.18914 0.00118 0.00112-0.15781 1.3874-0.1602 1.3968-9.599e-4 0.0038-0.035304 0.023397-0.44907 0.2527-0.24533 0.13596-0.44633 0.24639-0.44907 0.24701z" fill="#ffe680" stroke-width=".0013892"/>
</svg>
