<svg width="16" height="16" version="1.1" viewBox="0 0 4.2333 4.2333" xmlns="http://www.w3.org/2000/svg" xmlns:xlink="http://www.w3.org/1999/xlink">
 <defs>
  <linearGradient id="linearGradient1512" x1="1202.7" x2="1282.7" y1="448.19" y2="658.64" gradientTransform="matrix(.0068399 0 0 .0068399 -6.647 -2.8561)" gradientUnits="userSpaceOnUse">
   <stop stop-color="#70b5fa" offset="0"/>
   <stop stop-color="#70b5fa" stop-opacity="0" offset="1"/>
  </linearGradient>
 </defs>
 <g>
  <path d="m2.0572 0.11683c0.049853 1.0306e-4 0.099709-2.1267e-4 0.14956 2.1927e-4 0.02325 4.3853e-4 0.04723 0.001096 0.070363 0.002938 0.043173 0.002982 0.086898 0.008573 0.12905 0.016203 0.11797 0.0214 0.23266 0.060531 0.3389 0.11614 0.17049 0.088732 0.31885 0.21955 0.4283 0.37753 0.10919 0.15649 0.1794 0.33975 0.20339 0.52903 0.00153 0.012672 0.00277 0.023928 0.00408 0.03671 0.00363 0.042104 0.00632 0.084395 0.00566 0.12668-2.192e-4 0.010304-8.769e-4 0.0214-0.00197 0.032293-0.0065858 0.064846-0.028811 0.12688-0.055741 0.18582-0.054843 0.11938-0.12766 0.23031-0.17245 0.35431-0.028515 0.077883-0.045507 0.16085-0.041582 0.24406 0.00326 0.082622 0.02513 0.16355 0.056992 0.23953 0.04475 0.10793 0.10747 0.20711 0.15636 0.31306 0.029731 0.065386 0.054434 0.13463 0.057898 0.20701 6.578e-4 0.011904 4.386e-4 0.02572 4.386e-4 0.038525 0 0.013568-4.386e-4 0.026539-0.0011 0.039432-0.00132 0.02932-0.00374 0.05937-0.00715 0.088037-0.0036 0.029974-0.00827 0.059203-0.014048 0.088605-0.00691 0.03523-0.015392 0.07076-0.025608 0.1056-0.045098 0.15481-0.12257 0.29994-0.22525 0.42422-0.13535 0.16442-0.31574 0.2911-0.51611 0.36315-0.040795 0.01464-0.08392 0.027533-0.12611 0.037619-0.049502 0.011792-0.10131 0.02083-0.15251 0.026173-0.065918 0.00746-0.13228 0.00686-0.19851 0.0068-0.059342 1.973e-4 -0.11921 8.77e-4 -0.178-0.0043-0.019098-0.00153-0.03772-0.0036-0.056992-0.00611-0.028376-0.00374-0.057381-0.00859-0.085886-0.014496-0.035578-0.0073026-0.071366-0.016386-0.10651-0.027088-0.027227-0.0082649-0.053222-0.017123-0.079786-0.027306-0.19403-0.074281-0.36777-0.2006-0.49855-0.36201-0.096036-0.11819-0.16919-0.25491-0.21381-0.40054-0.004517-0.014624-0.008419-0.028293-0.012344-0.04283-0.006139-0.023042-0.01217-0.048323-0.016883-0.071722-0.008792-0.04319-0.015238-0.087595-0.019141-0.13098-0.002653-0.029592-0.00399-0.059906-0.004867-0.090078-4.3879e-4 -0.26063-4.3879e-4 -0.52118-4.3879e-4 -0.78181 0-0.27429-2.1926e-4 -0.54865 1.1181e-4 -0.82294-6.5778e-4 -0.06529 0.00296-0.13061 0.012475-0.19523 0.006051-0.042163 0.014954-0.086739 0.025493-0.12724 0.038592-0.1495 0.10644-0.2913 0.19897-0.41493 0.01032-0.013616 0.022115-0.028995 0.033538-0.04283 0.00834-0.010192 0.017475-0.020874 0.025718-0.030365 0.073224-0.083293 0.15786-0.15655 0.25109-0.21664 0.00722-0.004693 0.014736-0.009472 0.021861-0.013813 0.014272-0.008792 0.029126-0.017431 0.04419-0.025833 0.038936-0.021663 0.078522-0.04082 0.11942-0.0579 0.02039-0.00855 0.039603-0.015941 0.060278-0.02334 0.040734-0.014493 0.083336-0.027112 0.12452-0.036825 0.014368-0.003464 0.02916-0.006555 0.04385-0.009515 0.022094-0.004298 0.045058-0.008288 0.068096-0.011445 0.05988-0.00853 0.12039-0.011578 0.18084-0.011555z" fill="#1a1a1a" stroke-width=".0072988"/>
  <path d="m2.0437 1.1064e-5c-0.72784 0-1.3138 0.58594-1.3138 1.3138v1.6271h4.3851e-4c0.011402 0.71785 0.59255 1.2925 1.3132 1.2925h0.14605c0.72784 0 1.3138-0.58594 1.3138-1.3138 0-0.30295-0.27284-0.52024-0.27284-0.80288 0-0.28265 0.27284-0.49994 0.27284-0.80289 0-0.72784-0.58594-1.3138-1.3138-1.3138zm0.013488 0.11682c0.049853 1.0306e-4 0.099709-2.1267e-4 0.14956 2.1927e-4 0.02325 4.3853e-4 0.04723 0.001096 0.070363 0.002938 0.043173 0.002982 0.086898 0.008573 0.12905 0.016203 0.11797 0.0214 0.23266 0.060531 0.3389 0.11614 0.17049 0.088732 0.31885 0.21955 0.4283 0.37753 0.10919 0.15649 0.1794 0.33975 0.20339 0.52903 0.00153 0.012672 0.00277 0.023928 0.00408 0.03671 0.00363 0.042104 0.00632 0.084395 0.00566 0.12668-2.192e-4 0.010304-8.769e-4 0.0214-0.00197 0.032293-0.0065858 0.064846-0.028811 0.12688-0.055741 0.18582-0.054843 0.11938-0.12766 0.23031-0.17245 0.35431-0.028515 0.077883-0.045507 0.16085-0.041582 0.24406 0.00326 0.082622 0.02513 0.16355 0.056992 0.23953 0.04475 0.10793 0.10747 0.20711 0.15636 0.31306 0.029731 0.065386 0.054434 0.13463 0.057898 0.20701 6.578e-4 0.011904 4.386e-4 0.02572 4.386e-4 0.038525 0 0.013568-4.386e-4 0.026539-0.0011 0.039432-0.00132 0.02932-0.00374 0.05937-0.00715 0.088037-0.0036 0.029974-0.00827 0.059203-0.014048 0.088605-0.00691 0.03523-0.015392 0.07076-0.025608 0.1056-0.045098 0.15481-0.12257 0.29994-0.22525 0.42422-0.13535 0.16442-0.31574 0.2911-0.51611 0.36315-0.040795 0.01464-0.08392 0.027533-0.12611 0.037619-0.049502 0.011792-0.10131 0.02083-0.15251 0.026173-0.065918 0.00746-0.13228 0.00686-0.19851 0.0068-0.059342 1.973e-4 -0.11921 8.77e-4 -0.178-0.0043-0.019098-0.00153-0.03772-0.0036-0.056992-0.00611-0.028376-0.00374-0.057381-0.00859-0.085886-0.014496-0.035578-0.0073026-0.071366-0.016386-0.10651-0.027088-0.027227-0.0082649-0.053222-0.017123-0.079786-0.027306-0.19403-0.074281-0.36777-0.2006-0.49855-0.36201-0.096036-0.11819-0.16919-0.25491-0.21381-0.40054-0.004517-0.014624-0.008419-0.028293-0.012344-0.04283-0.006139-0.023042-0.01217-0.048323-0.016883-0.071722-0.008792-0.04319-0.015238-0.087595-0.019141-0.13098-0.002653-0.029592-0.00399-0.059906-0.004867-0.090078-4.3879e-4 -0.26063-4.3879e-4 -0.52118-4.3879e-4 -0.78181 0-0.27429-2.1926e-4 -0.54865 1.1181e-4 -0.82294-6.5778e-4 -0.06529 0.00296-0.13061 0.012475-0.19523 0.006051-0.042163 0.014954-0.086739 0.025493-0.12724 0.038592-0.1495 0.10644-0.2913 0.19897-0.41493 0.01032-0.013616 0.022115-0.028995 0.033538-0.04283 0.00834-0.010192 0.017475-0.020874 0.025718-0.030365 0.073224-0.083293 0.15786-0.15655 0.25109-0.21664 0.00722-0.004693 0.014736-0.009472 0.021861-0.013813 0.014272-0.008792 0.029126-0.017431 0.04419-0.025833 0.038936-0.021663 0.078522-0.04082 0.11942-0.0579 0.02039-0.00855 0.039603-0.015941 0.060278-0.02334 0.040734-0.014493 0.083336-0.027112 0.12452-0.036825 0.014368-0.003464 0.02916-0.006555 0.04385-0.009515 0.022094-0.004298 0.045058-0.008288 0.068096-0.011445 0.05988-0.00853 0.12039-0.011578 0.18084-0.011555z" fill="#70b5fa" stroke-width=".0072988"/>
  <path d="m2.0389 0.20831c-0.028898 4.3851e-4 -0.057075 0.001096-0.085898 0.003202-0.0043 4.3851e-4 -0.00955 6.5778e-4 -0.013984 0.001316-0.15595 0.013901-0.30896 0.060974-0.44521 0.13822-0.099389 0.056019-0.18991 0.12766-0.26744 0.21134-0.092363 0.099563-0.16695 0.21722-0.21687 0.34405-0.051031 0.12855-0.077302 0.26678-0.077526 0.40507-6.5778e-4 0.14931-1.7541e-4 0.29861-2.1925e-4 0.44792 0.034963 0.00677 0.070402 0.012624 0.10523 0.017606 0.056061 0.00798 0.1121 0.013856 0.16844 0.017475 0.027734 0.00197 0.056765 0.00342 0.084691 0.00413 0.055435 0.00153 0.11073-2.194e-4 0.16565-0.00357 0.041171-0.00248 0.083387-0.00634 0.12451-0.011168 0.069397-0.00813 0.13784-0.019427 0.2061-0.033997 0.033051-0.00704 0.066955-0.01504 0.099613-0.023549 0.08173-0.021312 0.16251-0.047299 0.24085-0.07739 0.091766-0.035206 0.18098-0.076202 0.26762-0.12296 0.060365-0.032555 0.12033-0.068499 0.17755-0.10631 0.036656-0.02424 0.072915-0.049744 0.1078-0.075762 0.18993-0.14162 0.35829-0.31203 0.49811-0.50327-0.00368-0.007952-0.00702-0.014576-0.01096-0.022557-0.048651-0.097189-0.11202-0.18692-0.1868-0.26576-0.00371-0.003888-0.00886-0.009168-0.013104-0.0136-0.017694-0.017957-0.035971-0.035314-0.054787-0.052088-0.00395-0.003488-0.00947-0.008288-0.014032-0.012256-0.070672-0.060536-0.14893-0.11225-0.23248-0.15324-0.01024-0.004998-0.021882-0.010525-0.03281-0.015414-0.053816-0.024255-0.1096-0.044113-0.1666-0.059441-0.012304-0.003245-0.025922-0.006688-0.038824-0.009648-0.012064-0.002763-0.026362-0.005789-0.038501-0.008134-0.021707-0.004144-0.043504-0.007674-0.065013-0.010525-0.02037-0.002784-0.041842-0.004824-0.06171-0.006381-0.013664-0.001096-0.026811-0.001754-0.040784-0.002302-0.060827-0.0015354-0.12169-8.7763e-4 -0.18253-8.7763e-4z" fill="url(#linearGradient1512)" stroke-width=".0068399"/>
 </g>
</svg>
