<svg width="16" height="16" version="1.1" viewBox="0 0 4.2333 4.2333" xml:space="preserve" xmlns="http://www.w3.org/2000/svg"><rect x="1.1126e-7" y="1.1126e-7" width="4.2333" height="4.2333" ry=".41257" fill="#363636" stroke-width=".52253"/><g transform="matrix(.012347 0 0 .012347 .88194 .26458)"><path id="path0_fill" class="st0" d="m50 300c27.6 0 50-22.4 50-50v-50h-50c-27.6 0-50 22.4-50 50s22.4 50 50 50z"/><path id="path1_fill" class="st1" d="m0 150c0-27.6 22.4-50 50-50h50v100h-50c-27.6 0-50-22.4-50-50z"/><path id="path1_fill_1_" class="st2" d="m0 50c0-27.6 22.4-50 50-50h50v100h-50c-27.6 0-50-22.4-50-50z"/><path id="path2_fill" class="st3" d="m100 0h50c27.6 0 50 22.4 50 50s-22.4 50-50 50h-50z"/><path id="path3_fill" class="st4" d="m200 150c0 27.6-22.4 50-50 50s-50-22.4-50-50 22.4-50 50-50 50 22.4 50 50z"/></g><style type="text/css">.st0{fill:#0acf83}.st1{fill:#a259ff}.st2{fill:#f24e1e}.st3{fill:#ff7262}.st4{fill:#1abcfe}</style></svg>
