<?xml version="1.0" encoding="UTF-8" standalone="no"?>
<!-- Created with Inkscape (http://www.inkscape.org/) -->

<svg
   width="16"
   height="16"
   viewBox="0 0 4.2333332 4.2333333"
   version="1.1"
   id="svg5"
   xml:space="preserve"
   sodipodi:docname="github_logo.svg"
   inkscape:version="1.2.1 (9c6d41e4, 2022-07-14)"
   xmlns:inkscape="http://www.inkscape.org/namespaces/inkscape"
   xmlns:sodipodi="http://sodipodi.sourceforge.net/DTD/sodipodi-0.dtd"
   xmlns="http://www.w3.org/2000/svg"
   xmlns:svg="http://www.w3.org/2000/svg"><sodipodi:namedview
     id="namedview10918"
     pagecolor="#ffffff"
     bordercolor="#000000"
     borderopacity="0.25"
     inkscape:showpageshadow="2"
     inkscape:pageopacity="0.0"
     inkscape:pagecheckerboard="0"
     inkscape:deskcolor="#d1d1d1"
     showgrid="false"
     inkscape:zoom="14.75"
     inkscape:cx="1.5254237"
     inkscape:cy="8.0338983"
     inkscape:window-width="1680"
     inkscape:window-height="997"
     inkscape:window-x="0"
     inkscape:window-y="92"
     inkscape:window-maximized="0"
     inkscape:current-layer="g2691" /><defs
     id="defs2" /><g
     id="g815"
     transform="translate(7.6595131,0.16138922)"><g
       id="g2691"
       transform="translate(8.1259393,-1.9672735e-4)"><rect
         style="fill:#333333;fill-opacity:1;stroke:none;stroke-width:0.264583"
         id="rect9168"
         width="4.2333331"
         height="4.2333331"
         x="-15.785452"
         y="-0.16119249" /><path
         style="fill:#ff6600;fill-opacity:1;stroke-width:0.0021614"
         d="m -23.604838,0.342077 c 1.05e-4,-0.002514 6.17e-4,-0.003025 0.0013,-0.001302 6.25e-4,0.001557 5.47e-4,0.003421 -1.7e-4,0.004148 -7.19e-4,7.1821e-4 -0.0012,-5.5841e-4 -0.0011,-0.002834 z"
         id="path8678" /><path
         style="fill:#ff6600;fill-opacity:1;stroke-width:0.0021614"
         d="m -23.604845,0.51714291 c 1.05e-4,-0.002514 6.17e-4,-0.003025 0.0013,-0.001302 6.25e-4,0.001557 5.47e-4,0.003421 -1.7e-4,0.004148 -7.19e-4,7.1821e-4 -0.0012,-5.584e-4 -0.0011,-0.002834 z"
         id="path8662" /><path
         style="fill:#ff6600;fill-opacity:1;stroke-width:0.0021614"
         d="m -23.602683,0.55820851 c 1.04e-4,-0.002514 6.16e-4,-0.003025 0.0013,-0.001302 6.24e-4,0.001557 5.48e-4,0.003421 -1.71e-4,0.004148 -7.19e-4,7.1821e-4 -0.0012,-5.5853e-4 -0.0011,-0.002834 z"
         id="path8658" /><path
         style="fill:#ff6600;fill-opacity:1;stroke-width:0.0021614"
         d="m -22.987997,1.924847 -0.01508,-0.01567 0.01568,0.015071 c 0.01455,0.013998 0.01666,0.016267 0.01508,0.016267 -3.3e-4,0 -0.0074,-0.00705 -0.01568,-0.01567 z"
         id="path8602" /><path
         style="fill:#ff6600;fill-opacity:1;stroke-width:0.0021614"
         d="m -22.914449,-1.1350294 c 0.0022,-0.00238 0.0043,-0.00432 0.005,-0.00432 5.94e-4,0 -6.79e-4,0.00195 -0.0028,0.00432 -0.0022,0.00238 -0.0043,0.00432 -0.005,0.00432 -5.93e-4,0 6.8e-4,-0.00195 0.0028,-0.00432 z"
         id="path8568" /><path
         style="fill:#ff6600;fill-opacity:1;stroke-width:0.0021614"
         d="m -22.947952,-1.1036904 c 0.0041,-0.00416 0.0078,-0.00757 0.0084,-0.00757 5.95e-4,0 -0.0022,0.0034 -0.0063,0.00757 -0.0041,0.00416 -0.0078,0.00757 -0.0084,0.00757 -5.94e-4,0 0.0022,-0.0034 0.0063,-0.00757 z"
         id="path8564" /><path
         style="fill:#ff6600;fill-opacity:1;stroke-width:0.0021614"
         d="m -23.025767,-1.0258834 c 0.0028,-0.00297 0.0056,-0.0054 0.0061,-0.0054 5.93e-4,0 -0.0012,0.00243 -0.004,0.0054 -0.0028,0.00297 -0.0056,0.0054 -0.0061,0.0054 -5.94e-4,0 0.0012,-0.00243 0.004,-0.0054 z"
         id="path8560" /><path
         style="fill:#ff6600;fill-opacity:1;stroke-width:0.0021614"
         d="m -23.075478,-0.97158642 c 0,-4.488e-4 0.0017,-0.00215 0.0038,-0.00378 0.0034,-0.00269 0.0034,-0.00261 8.16e-4,8.16e-4 -0.0028,0.0036 -0.0046,0.00475 -0.0046,0.00297 z"
         id="path8554" /><path
         style="fill:#ff6600;fill-opacity:1;stroke-width:0.0021614"
         d="m -23.591858,0.18429916 c 1.05e-4,-0.002514 6.16e-4,-0.003025 0.0013,-0.001302 6.26e-4,0.001557 5.48e-4,0.003421 -1.69e-4,0.004148 -7.19e-4,7.1821e-4 -0.0012,-5.5841e-4 -0.0011,-0.002834 z"
         id="path8396" /><path
         style="fill:#ff6600;fill-opacity:1;stroke-width:0.0021614"
         d="m -23.596191,0.22320856 c 1.03e-4,-0.002514 6.15e-4,-0.003025 0.0013,-0.001302 6.24e-4,0.001557 5.48e-4,0.003421 -1.71e-4,0.004148 -7.19e-4,7.1821e-4 -0.0012,-5.5841e-4 -0.0011,-0.002834 z"
         id="path8382" /><path
         style="fill:#ff6600;fill-opacity:1;stroke-width:0.0021614"
         d="m -23.598346,0.247003 c 1.05e-4,-0.002514 6.16e-4,-0.003025 0.0013,-0.001302 6.26e-4,0.001557 5.48e-4,0.003421 -1.69e-4,0.004148 -7.19e-4,7.1821e-4 -0.0012,-5.5854e-4 -0.0011,-0.002834 z"
         id="path8370" /><path
         style="fill:#ff6600;fill-opacity:1;stroke-width:0.0021614"
         d="m -23.600336,0.2741821 c 0,-0.002974 4.9e-4,-0.004186 0.0011,-0.002706 6e-4,0.001481 6e-4,0.003918 0,0.005399 -6e-4,0.001481 -0.0011,2.7008e-4 -0.0011,-0.002706 z"
         id="path8356" /><path
         style="fill:#ff6600;fill-opacity:1;stroke-width:0.0021614"
         d="m -23.602507,0.30661381 c 0,-0.002974 4.91e-4,-0.004186 0.0011,-0.002706 6e-4,0.001481 6e-4,0.003918 0,0.005399 -5.99e-4,0.001481 -0.0011,2.7007e-4 -0.0011,-0.002706 z"
         id="path8342" /><path
         style="fill:#ff6600;fill-opacity:1;stroke-width:0.0021614"
         d="m -23.604463,0.35306591 c 2.3e-5,-0.004761 4.66e-4,-0.006446 9.83e-4,-0.003752 5.17e-4,0.002693 4.98e-4,0.006573 -4.3e-5,0.008641 -5.41e-4,0.002068 -9.64e-4,-1.3402e-4 -9.4e-4,-0.004888 z"
         id="path8320" /><path
         style="fill:#ff6600;fill-opacity:1;stroke-width:0.0021614"
         d="m -23.604524,0.50758313 c 0,-0.004161 4.45e-4,-0.005858 9.89e-4,-0.003778 5.44e-4,0.00208 5.44e-4,0.005488 0,0.007569 -5.44e-4,0.00208 -9.89e-4,3.7831e-4 -9.89e-4,-0.003778 z"
         id="path8256" /><path
         style="fill:#ff6600;fill-opacity:1;stroke-width:0.0021614"
         d="m -23.602438,0.54973263 c 4.4e-5,-0.003561 5.28e-4,-0.004761 0.0011,-0.002655 5.49e-4,0.002106 5.13e-4,0.005016 -7.9e-5,0.006484 -5.93e-4,0.001468 -10e-4,-2.5719e-4 -9.97e-4,-0.003829 z"
         id="path8240" /><path
         style="fill:#ff6600;fill-opacity:1;stroke-width:0.0021614"
         d="m -23.600347,0.58537743 c 0,-0.002974 4.9e-4,-0.004186 0.0011,-0.002706 6e-4,0.001481 6e-4,0.003918 0,0.005399 -6e-4,0.001481 -0.0011,2.7008e-4 -0.0011,-0.002706 z"
         id="path8220" /><path
         style="fill:#ff6600;fill-opacity:1;stroke-width:0.0021614"
         d="m -23.598357,0.61221777 c 1.04e-4,-0.002514 6.16e-4,-0.003025 0.0013,-0.001302 6.25e-4,0.001557 5.48e-4,0.003421 -1.7e-4,0.004148 -7.18e-4,7.182e-4 -0.0012,-5.5854e-4 -0.0011,-0.002834 z"
         id="path8212" /><path
         style="fill:#ff6600;fill-opacity:1;stroke-width:0.0021614"
         d="m -23.596195,0.63598747 c 1.03e-4,-0.002514 6.15e-4,-0.003025 0.0013,-0.001302 6.25e-4,0.001557 5.48e-4,0.003421 -1.71e-4,0.004148 -7.18e-4,7.182e-4 -0.0012,-5.5854e-4 -0.0011,-0.002834 z"
         id="path8208" /><path
         style="fill:#ff6600;fill-opacity:1;stroke-width:0.0021614"
         d="m -23.062788,1.8459473 c -0.0027,-0.00343 -0.0026,-0.00351 8.17e-4,-8.161e-4 0.0036,0.00282 0.0047,0.00459 0.0029,0.00459 -4.5e-4,0 -0.0022,-0.0017 -0.0038,-0.00378 z"
         id="path8150" /><path
         style="fill:#ff6600;fill-opacity:1;stroke-width:0.0021614"
         d="m -23.03685,1.8740443 c -0.0027,-0.00343 -0.0026,-0.00351 8.17e-4,-8.162e-4 0.0036,0.00282 0.0047,0.00459 0.0029,0.00459 -4.5e-4,0 -0.0022,-0.0017 -0.0038,-0.00378 z"
         id="path8146" /><path
         style="fill:#ff6600;fill-opacity:1;stroke-width:0.0021614"
         d="m -22.937305,1.9734643 -0.0052,-0.00595 0.006,0.00525 c 0.0033,0.00288 0.006,0.00555 0.006,0.00595 0,0.0017 -0.0018,3.156e-4 -0.0066,-0.00525 z"
         id="path8140" /><path
         style="fill:#ffffff;stroke-width:0.00661458"
         d="m -14.409099,3.9883465 c -0.500749,-0.1894397 -0.91375,-0.561484 -1.150733,-1.0366163 -0.37485,-0.7515456 -0.271201,-1.6524513 0.264277,-2.29708648 0.318905,-0.38391365 0.769971,-0.64611648 1.257806,-0.73115783 0.140153,-0.0244321 0.206977,-0.0298098 0.370417,-0.0298098 0.203479,0 0.343193,0.0166385 0.522552,0.06223035 0.74913,0.19042466 1.337956,0.77930162 1.527847,1.52798046 0.04598,0.1812944 0.06243,0.319208 0.06232,0.522552 -1.03e-4,0.1961835 -0.01343,0.3143755 -0.05558,0.4928916 -0.126475,0.5356186 -0.469101,1.0114637 -0.940371,1.3060027 -0.157862,0.098662 -0.414432,0.211939 -0.480037,0.211939 -0.04371,0 -0.07447,-0.017644 -0.09268,-0.053154 -0.01487,-0.029006 -0.01488,-0.029245 -0.01497,-0.3765419 -7.8e-5,-0.3144987 -0.0013,-0.3532597 -0.01256,-0.4079516 -0.01562,-0.075691 -0.05504,-0.160508 -0.09523,-0.2048918 l -0.03062,-0.033815 0.06098,-0.00818 c 0.376867,-0.050532 0.62653,-0.1914789 0.764796,-0.4317644 0.08419,-0.1463159 0.126372,-0.3121523 0.136959,-0.5385005 0.01109,-0.2371813 -0.05066,-0.438448 -0.18351,-0.598082 l -0.03192,-0.038355 0.0096,-0.027086 c 0.02065,-0.058515 0.03079,-0.1299001 0.03059,-0.2152487 -2.23e-4,-0.096112 -0.01136,-0.16616582 -0.04129,-0.25962241 l -0.01959,-0.0611849 h -0.05465 c -0.119378,0 -0.277755,0.0608822 -0.465753,0.17904109 l -0.06137,0.0385702 -0.08418,-0.019155 c -0.305138,-0.0694333 -0.626588,-0.0668784 -0.922848,0.00734 l -0.05153,0.012909 -0.06753,-0.0423505 C -14.440712,0.82460598 -14.61229,0.7600966 -14.72332,0.76426444 l -0.05173,0.001942 -0.01786,0.053863 c -0.05174,0.15599503 -0.05818,0.32096746 -0.01783,0.45690066 0.01335,0.044987 0.01353,0.048614 0.0031,0.062839 -0.0061,0.0083 -0.02871,0.038908 -0.05025,0.068013 -0.07121,0.096232 -0.119833,0.2131276 -0.141499,0.340163 -0.01236,0.072462 -0.0141,0.2271642 -0.0036,0.3232096 0.04403,0.4041984 0.22739,0.6565345 0.570046,0.784478 0.08061,0.030098 0.195903,0.058399 0.300593,0.073786 l 0.08058,0.011843 -0.02925,0.03344 c -0.03889,0.044452 -0.07163,0.1125557 -0.09075,0.1887631 l -0.01565,0.062349 -0.0398,0.014886 c -0.06003,0.02245 -0.133905,0.035703 -0.199009,0.035703 -0.151958,0 -0.268721,-0.069976 -0.370319,-0.2219316 -0.07564,-0.1131246 -0.150294,-0.1778817 -0.239808,-0.2080042 -0.05871,-0.019757 -0.150983,-0.017435 -0.172754,0.00435 -0.0275,0.02751 -0.0014,0.065777 0.08067,0.1183957 0.02411,0.015451 0.05839,0.04486 0.07618,0.065353 0.04657,0.053626 0.117727,0.1694649 0.14629,0.2381422 0.02518,0.060544 0.06214,0.1163487 0.101832,0.1537519 0.05116,0.048206 0.146789,0.091037 0.240202,0.1075787 0.05564,0.00985 0.220008,0.00838 0.297983,-0.00266 0.03632,-0.00514 0.06657,-0.00881 0.06722,-0.00814 6.51e-4,6.679e-4 0.0022,0.096957 0.0034,0.213975 0.0022,0.2063602 0.0018,0.2133123 -0.0114,0.2311017 -0.02432,0.032703 -0.04642,0.044611 -0.08714,0.046944 -0.03215,0.00184 -0.05018,-0.00238 -0.115124,-0.026946 z"
         id="path336" /></g></g></svg>
