<?xml version="1.0" encoding="UTF-8" standalone="no"?>
<!-- Created with Inkscape (http://www.inkscape.org/) -->

<svg
   width="16"
   height="16"
   viewBox="0 0 4.2333332 4.2333333"
   version="1.1"
   id="svg5"
   xml:space="preserve"
   inkscape:version="1.2.1 (9c6d41e4, 2022-07-14)"
   sodipodi:docname="jasmine_logo.svg"
   xmlns:inkscape="http://www.inkscape.org/namespaces/inkscape"
   xmlns:sodipodi="http://sodipodi.sourceforge.net/DTD/sodipodi-0.dtd"
   xmlns="http://www.w3.org/2000/svg"
   xmlns:svg="http://www.w3.org/2000/svg"><sodipodi:namedview
     id="namedview7"
     pagecolor="#ffffff"
     bordercolor="#000000"
     borderopacity="0.25"
     inkscape:showpageshadow="2"
     inkscape:pageopacity="0.0"
     inkscape:pagecheckerboard="0"
     inkscape:deskcolor="#d1d1d1"
     inkscape:document-units="mm"
     showgrid="false"
     inkscape:zoom="14.75"
     inkscape:cx="1.4576271"
     inkscape:cy="5.3220339"
     inkscape:window-width="1680"
     inkscape:window-height="997"
     inkscape:window-x="0"
     inkscape:window-y="92"
     inkscape:window-maximized="0"
     inkscape:current-layer="layer1" /><defs
     id="defs2" /><g
     inkscape:label="Layer 1"
     inkscape:groupmode="layer"
     id="layer1"><path
       style="fill:#8a4182;fill-opacity:1;stroke-width:0.00663532"
       d="M 2.0021813,4.2187209 C 0.2305107,4.0956106 -0.6312406,2.054493 0.5269734,0.72458885 1.5973645,-0.5044739 3.6337551,-0.08087641 4.1347683,1.4750602 4.5830668,2.8672874 3.4542013,4.3196193 2.0021813,4.2187209 Z M 2.3604885,3.7816458 C 3.7344358,3.5748049 4.2937167,1.9040064 3.3162148,0.92650457 2.427617,0.03790687 0.9086717,0.39542408 0.5102932,1.5869399 0.1168331,2.763745 1.1309905,3.9667407 2.3604885,3.7816458 Z m -0.31186,-0.6570683 c 0,-0.3284483 0,-0.3284483 0.066353,-0.3284483 0.066353,0 0.066353,0 0.066353,0.3284483 0,0.3284482 0,0.3284482 -0.066353,0.3284482 -0.066353,0 -0.066353,0 -0.066353,-0.3284482 z M 2.4467476,2.9550513 C 2.1191449,2.5057191 2.1205951,2.5125466 2.3218356,2.3669782 2.5209351,2.2229584 2.5100884,2.216665 2.8393825,2.6672683 3.0360528,2.9363905 3.0941744,3.0202406 3.0882069,3.026239 3.0812669,3.033209 2.7219752,3.2938208 2.7078951,3.3020925 2.7047651,3.3039325 2.5872505,3.1477617 2.4467476,2.9550513 Z M 1.3320141,3.1617887 C 1.2280054,3.0859522 1.143526,3.020813 1.144282,3.0170348 c 0.00168,-0.00839 0.4896364,-0.6776847 0.5051427,-0.6928677 0.096941,-0.09492 0.3941544,0.05993 0.3974223,0.2070596 0.0014,0.062969 -0.4682898,0.7600663 -0.5168937,0.7671578 -0.00486,7.088e-4 -0.093931,-0.060759 -0.1979392,-0.1365958 z M 3.0870559,2.478536 C 2.9228317,2.424911 2.784011,2.379388 2.7785652,2.3773753 c -0.00935,-0.00346 0.021938,-0.1253422 0.032181,-0.1253422 0.00299,0 0.6261312,0.2003152 0.6295659,0.2023812 0.00525,0.00316 -0.040679,0.1226458 -0.046965,0.1221858 -0.00424,-3.1e-4 -0.1420665,-0.044439 -0.3062912,-0.098064 z M 0.8326094,2.566004 c -0.00746,-0.013073 -0.039143,-0.1160363 -0.036514,-0.1186651 0.00322,-0.00322 0.616244,-0.2017967 0.6232441,-0.2018856 0.00412,-5.31e-5 0.047063,0.1206576 0.043648,0.1226783 -8.713e-4,5.155e-4 -0.1389353,0.045158 -0.3068089,0.099206 -0.1678735,0.054048 -0.3086549,0.09958 -0.3128476,0.101182 -0.00419,0.0016 -0.00902,4.705e-4 -0.010721,-0.00252 z M 1.1865068,2.0457268 C 0.9623254,1.9729828 0.7783336,1.9127564 0.7776361,1.9118898 c -0.00387,-0.00481 0.1475757,-0.4520946 0.153777,-0.4541617 0.00604,-0.00201 0.4159934,0.1279574 0.7594691,0.2407766 0.2111657,0.06936 0.1381779,0.4888462 -0.083519,0.4800118 C 1.6000732,2.1782258 1.4106879,2.1184705 1.1865068,2.0457268 Z M 2.5529127,2.1592203 C 2.371905,2.0997433 2.3731916,1.7552287 2.5546427,1.6955479 2.901249,1.5815471 3.2983072,1.4554358 3.3043194,1.4574399 c 0.024442,0.00815 0.155528,0.456151 0.1351613,0.4619307 -0.011363,0.00322 -0.19692,0.062971 -0.4123483,0.1327685 -0.2154284,0.069798 -0.3975679,0.1266148 -0.4047545,0.1262596 -0.00719,-3.553e-4 -0.038447,-0.00899 -0.069467,-0.019178 z M 1.9142633,1.6946272 c -0.038153,-0.052777 -0.038153,-0.052777 -0.038153,-0.4908412 0,-0.43806415 0,-0.43806415 0.2421891,-0.43806415 0.2421892,0 0.2421892,0 0.2421892,0.43683145 0,0.5613984 0.00748,0.5445658 -0.2421892,0.544737 -0.1658829,1.141e-4 -0.1658829,1.141e-4 -0.2040361,-0.052663 z M 2.5371559,1.5250099 c -0.058792,-0.042935 -0.049777,-0.058345 0.3287628,-0.5619933 0.00906,-0.0120515 0.1083368,0.0497648 0.1083368,0.0674561 0,0.00603 -0.3802818,0.5314873 -0.3846481,0.5314873 -0.00102,0 -0.024624,-0.016628 -0.052451,-0.03695 z m -0.9049471,0.00543 C 1.5733202,1.4549725 1.2703374,1.034234 1.2697151,1.0270635 c -0.00183,-0.021104 0.097442,-0.0814987 0.1091091,-0.0663786 0.019021,0.0246498 0.3684807,0.50473032 0.3735138,0.51312582 0.017875,0.029817 -0.098313,0.084591 -0.1201292,0.056632 z"
       id="path4513" /></g></svg>
