<?xml version="1.0" encoding="UTF-8" standalone="no"?>
<!-- Created with Inkscape (http://www.inkscape.org/) -->

<svg
   width="16"
   height="16"
   viewBox="0 0 4.2333332 4.2333333"
   version="1.1"
   id="svg5"
   xml:space="preserve"
   inkscape:version="1.2.1 (9c6d41e4, 2022-07-14)"
   sodipodi:docname="java_logo.svg"
   xmlns:inkscape="http://www.inkscape.org/namespaces/inkscape"
   xmlns:sodipodi="http://sodipodi.sourceforge.net/DTD/sodipodi-0.dtd"
   xmlns="http://www.w3.org/2000/svg"
   xmlns:svg="http://www.w3.org/2000/svg"><sodipodi:namedview
     id="namedview7"
     pagecolor="#ffffff"
     bordercolor="#000000"
     borderopacity="0.25"
     inkscape:showpageshadow="2"
     inkscape:pageopacity="0.0"
     inkscape:pagecheckerboard="0"
     inkscape:deskcolor="#d1d1d1"
     inkscape:document-units="mm"
     showgrid="false"
     inkscape:zoom="14.75"
     inkscape:cx="-10.813559"
     inkscape:cy="4.6779661"
     inkscape:window-width="1680"
     inkscape:window-height="1022"
     inkscape:window-x="0"
     inkscape:window-y="95"
     inkscape:window-maximized="0"
     inkscape:current-layer="layer1" /><defs
     id="defs2" /><g
     inkscape:label="Layer 1"
     inkscape:groupmode="layer"
     id="layer1"><path
       style="fill:#ffffff;stroke-width:0.00826823"
       d="M 1.9263632,4.2260976 C 1.4299905,4.1747914 0.99489096,3.9739895 0.64579956,3.6351071 0.46942926,3.4638948 0.33947066,3.2877593 0.23086506,3.0727382 -0.07600044,2.465195 -0.07561774,1.7642076 0.23190506,1.1586432 0.53063116,0.57041053 1.1013467,0.14778677 1.7485913,0.03551328 2.0612114,-0.01871498 2.340036,-0.00753672 2.651013,0.07169195 3.148297,0.19838666 3.5925993,0.51781683 3.8868659,0.96020576 3.9539989,1.0611305 4.0622571,1.275861 4.1051151,1.393103 4.2068668,1.6714541 4.2513928,2.0072153 4.2247871,2.2955247 4.1790071,2.7916148 3.9780926,3.2328367 3.6378815,3.5844097 3.4588894,3.7693797 3.2806481,3.8999046 3.0549714,4.0112709 2.8424755,4.1161327 2.6522499,4.1766326 2.4291374,4.2103126 2.3036082,4.2292616 2.0377299,4.2376096 1.9263582,4.2260976 Z M 2.5423462,3.886937 C 2.9187543,3.859549 3.1491732,3.80942 3.2761679,3.7272926 c 0.086518,-0.055951 0.1500726,-0.1386905 0.145231,-0.1890703 -0.00379,-0.039482 -0.026717,-0.038727 -0.081169,0.00267 -0.1214328,0.092325 -0.3615274,0.1734112 -0.5829101,0.1968645 -0.2398693,0.025412 -0.7475288,0.032573 -1.1937475,0.01684 -0.1740873,-0.00614 -0.237561,-0.00584 -0.2459798,0.00114 -0.01588,0.013179 -0.014138,0.038389 0.0033,0.047721 0.035638,0.019073 0.3861339,0.068363 0.5889366,0.082823 0.1398146,0.00997 0.499382,0.010338 0.6325195,6.507e-4 z M 2.4224569,3.7018351 c 0.4889066,-0.048966 0.8136789,-0.1503092 0.8517929,-0.265796 0.010884,-0.032978 -0.00814,-0.086651 -0.039447,-0.1112747 -0.025191,-0.019815 -0.030182,-0.02015 -0.047166,-0.00317 -0.00928,0.00928 -0.011716,0.021209 -0.00818,0.040075 0.00457,0.024364 0.00248,0.028057 -0.022515,0.039736 -0.1903073,0.088934 -0.842094,0.1649105 -1.3049927,0.1521214 -0.3360309,-0.00928 -0.6901373,-0.054892 -0.7761705,-0.09997 -0.019777,-0.010363 -0.019434,-0.010803 0.02459,-0.031484 0.046315,-0.021758 0.1340408,-0.047756 0.2162389,-0.064084 0.053102,-0.010548 0.07089,-0.028828 0.052512,-0.053961 -0.010252,-0.014021 -0.01822,-0.0143 -0.1340383,-0.0047 -0.25156864,0.020864 -0.38471594,0.060776 -0.42541554,0.1275242 -0.028945,0.047471 -0.017697,0.093578 0.034922,0.1431504 0.085964,0.080987 0.27094764,0.1206348 0.68490134,0.1467974 0.025011,0.00158 0.2054655,0.00193 0.4010091,7.838e-4 0.2564524,-0.00151 0.3935535,-0.0059 0.4919596,-0.015754 z M 2.2834587,3.3707092 c 0.1123426,-0.014955 0.2474023,-0.047527 0.3374357,-0.081378 0.061397,-0.023084 0.070596,-0.029147 0.072781,-0.047964 0.00228,-0.019612 -0.00689,-0.027012 -0.1024429,-0.082682 -0.057719,-0.033628 -0.1072773,-0.060501 -0.1101299,-0.059717 -0.00285,7.838e-4 -0.080042,0.012876 -0.1715322,0.026872 -0.1208165,0.018482 -0.1954718,0.025446 -0.27276,0.025446 -0.108254,0 -0.2879856,-0.017222 -0.3544882,-0.033968 -0.034196,-0.00861 -0.035933,-0.010347 -0.025404,-0.02538 0.00622,-0.00888 0.00942,-0.023337 0.00712,-0.032138 -0.00869,-0.03324 -0.1412526,-0.012316 -0.1918837,0.030287 -0.057409,0.048306 -0.049031,0.137167 0.017474,0.185343 0.1139046,0.082512 0.5218862,0.1314793 0.7938324,0.095278 z M 2.1477735,2.981556 C 2.3486234,2.960709 2.6977577,2.899249 2.7381572,2.8776279 c 0.031199,-0.016697 0.016511,-0.037917 -0.068022,-0.09827 L 2.5870842,2.7200629 2.4778989,2.7411219 C 2.1809197,2.7984019 1.9519986,2.8150449 1.7279258,2.7956479 1.6157086,2.7859379 1.5538767,2.7743779 1.533194,2.7592539 1.519242,2.7490519 1.520319,2.7469009 1.548541,2.7286089 c 0.032234,-0.020893 0.038397,-0.040081 0.018245,-0.056805 -0.025822,-0.02143 -0.1576698,0.024123 -0.2061787,0.071235 -0.023873,0.023185 -0.029556,0.034865 -0.029556,0.060745 0,0.091531 0.1361659,0.1495563 0.434082,0.1849787 0.066931,0.00796 0.2741332,0.00406 0.3826408,-0.00721 z m 0.8115,-0.045457 C 3.2563988,2.84783 3.4408438,2.6983978 3.4539325,2.5353409 3.4583925,2.4797729 3.4417255,2.4013548 3.4126555,2.3411307 3.3870735,2.2881337 3.3317075,2.2377312 3.2759119,2.2166454 3.1913639,2.1846944 3.0465088,2.2019604 2.925207,2.2584494 c -0.024721,0.011512 -0.033389,0.026564 -0.026155,0.045415 0.00525,0.013672 0.00994,0.014924 0.1058896,0.028279 0.1367658,0.019035 0.2195339,0.080623 0.2195339,0.1633564 0,0.073188 -0.099505,0.1988548 -0.252181,0.318485 -0.1090614,0.085456 -0.1281575,0.1022211 -0.1281575,0.1125163 0,0.00768 0.022144,0.034616 0.028454,0.034616 0.00136,0 0.040365,-0.011258 0.086683,-0.025018 z M 2.0173137,2.6466305 c 0.3071225,-0.017664 0.548135,-0.070381 0.7212152,-0.1577511 0.083622,-0.042212 0.1138759,-0.065208 0.1138759,-0.086556 0,-0.028968 -0.020838,-0.03598 -0.069375,-0.023344 -0.2046532,0.053283 -0.7471814,0.089152 -1.0770894,0.071212 -0.1766934,-0.00961 -0.2845217,-0.021762 -0.3081446,-0.034731 -0.022161,-0.012167 0.091369,-0.057505 0.2424639,-0.096826 0.059044,-0.015366 0.077837,-0.030911 0.068087,-0.056319 -0.00524,-0.013661 -0.015887,-0.014398 -0.1398087,-0.00968 -0.2511418,0.00956 -0.4200517,0.053577 -0.4714149,0.1228552 -0.021068,0.028417 -0.021245,0.079897 -3.977e-4,0.11578 0.069118,0.1189692 0.4463749,0.1826369 0.9205886,0.1553627 z M 2.3372194,2.3570134 C 2.4041214,2.3022234 2.4664098,2.2259143 2.49877,2.1590989 2.520122,2.1150119 2.525404,2.0927279 2.528165,2.0350755 2.532275,1.9492415 2.517999,1.9058198 2.450267,1.7981446 2.378082,1.6833917 2.364569,1.6526416 2.364661,1.6033354 2.3647644,1.5472864 2.390287,1.493054 2.448489,1.4252088 2.501588,1.3633128 2.6182383,1.2570574 2.7345831,1.1646094 c 0.086022,-0.068354 0.099203,-0.0886 0.068407,-0.1050807 -0.019187,-0.010269 -0.064974,0.00728 -0.2165735,0.083004 -0.2495982,0.1246754 -0.409996,0.2528527 -0.4706551,0.3761104 -0.02611,0.053054 -0.028096,0.062684 -0.027188,0.1318047 0.00172,0.1306477 0.039738,0.2341342 0.1294713,0.3523922 0.028298,0.037293 0.060125,0.079336 0.070727,0.093428 0.016993,0.022587 0.018775,0.03211 0.015039,0.080376 -0.00251,0.032408 -0.014578,0.081335 -0.029575,0.1198894 -0.0285,0.073269 -0.029382,0.078531 -0.015491,0.092422 0.015837,0.015837 0.024375,0.012362 0.078473,-0.031942 z M 2.0674666,2.2580264 c 0.0088,-0.00471 0.015993,-0.013544 0.015993,-0.019637 0,-0.00609 -0.016385,-0.046381 -0.036411,-0.089529 C 1.9619906,1.9655976 1.9051671,1.7747595 1.896116,1.6419602 1.891766,1.5781342 1.893416,1.5617432 1.907401,1.5301362 1.931497,1.4756632 2.004911,1.4010347 2.1537391,1.2797213 2.3971546,1.081308 2.5201072,0.94169635 2.5644285,0.81338674 c 0.016462,-0.0476559 0.019258,-0.0719639 0.019258,-0.16737407 0,-0.10059598 -0.00227,-0.11815448 -0.022937,-0.17776692 -0.026372,-0.0760501 -0.06181,-0.14360717 -0.08179,-0.15591742 -0.00991,-0.006107 -0.017593,-0.005321 -0.02738,0.002802 -0.011543,0.009579 -0.012771,0.0220356 -0.00811,0.0822028 0.00697,0.0899366 -0.011441,0.20203032 -0.047342,0.28826729 -0.036704,0.08817 -0.1041162,0.15607839 -0.2812457,0.28331817 C 1.8637139,1.1493434 1.7691958,1.2393071 1.6896961,1.3736168 c -0.055468,0.093709 -0.072316,0.1576825 -0.067186,0.2551008 0.00327,0.062028 0.010095,0.095803 0.030712,0.1519083 0.049492,0.1346831 0.1915983,0.3200004 0.3388276,0.4418572 0.060074,0.049721 0.054145,0.046927 0.075417,0.035543 z"
       id="path16551" /></g></svg>
