<?xml version="1.0" encoding="UTF-8" standalone="no"?>
<!-- Created with Inkscape (http://www.inkscape.org/) -->

<svg
   width="16"
   height="16"
   viewBox="0 0 4.2333332 4.2333333"
   version="1.1"
   id="svg5"
   xml:space="preserve"
   inkscape:version="1.2.1 (9c6d41e4, 2022-07-14)"
   sodipodi:docname="jest_logo.svg"
   xmlns:inkscape="http://www.inkscape.org/namespaces/inkscape"
   xmlns:sodipodi="http://sodipodi.sourceforge.net/DTD/sodipodi-0.dtd"
   xmlns="http://www.w3.org/2000/svg"
   xmlns:svg="http://www.w3.org/2000/svg"><sodipodi:namedview
     id="namedview7"
     pagecolor="#ffffff"
     bordercolor="#000000"
     borderopacity="0.25"
     inkscape:showpageshadow="2"
     inkscape:pageopacity="0.0"
     inkscape:pagecheckerboard="0"
     inkscape:deskcolor="#d1d1d1"
     inkscape:document-units="mm"
     showgrid="false"
     inkscape:zoom="48.5625"
     inkscape:cx="8"
     inkscape:cy="8"
     inkscape:window-width="1680"
     inkscape:window-height="997"
     inkscape:window-x="0"
     inkscape:window-y="92"
     inkscape:window-maximized="0"
     inkscape:current-layer="g1117" /><defs
     id="defs2" /><g
     inkscape:label="Layer 1"
     inkscape:groupmode="layer"
     id="layer1"><g
       id="g1117"
       transform="translate(-2.0531438e-4,0.00263986)"
       style="fill:#aa0000;fill-opacity:1;stroke:none;stroke-opacity:1;stroke-width:0.26458333;stroke-dasharray:none"><path
         style="fill:#aa0000;fill-opacity:1;stroke:none;stroke-width:0.264583;stroke-dasharray:none;stroke-opacity:1"
         d="M 1.03901,4.033415 C 0.48810724,3.988247 0.27727304,3.44916 0.55939004,2.807063 c 0.078134,-0.1778331 0.1257947,-0.2672857 0.139679,-0.2621594 0.028931,0.010682 0.089398,0.025291 0.1046792,0.025291 0.00695,0 0.00695,0.0011 1.082e-4,0.029044 -0.059098,0.241219 0.0442028,0.4935909 0.26067466,0.6368514 0.068047,0.045033 0.098351,0.058514 0.1169707,0.052033 0.3587471,-0.1248535 0.6757103,-0.3758131 0.8863293,-0.7017622 0.012744,-0.019723 0.012744,-0.019723 0.021527,-0.018776 0.294976,0.031811 0.5351451,-0.1704931 0.5544056,-0.4669971 0.00103,-0.015807 0.00103,-0.015807 0.074631,-0.01476 0.040482,5.76e-4 0.1082374,0.00152 0.1505668,0.00211 0.076962,0.00106 0.076962,0.00106 0.076964,0.013962 5.43e-5,0.3644814 0.4352272,0.5928601 0.7510712,0.3941624 0.019763,-0.012433 0.01677,-0.012267 0.022329,-0.00123 0.117321,0.2328604 0.048717,0.5367629 -0.1582542,0.7010353 -0.1239708,0.098395 -0.2405853,0.136236 -0.5664979,0.1838248 -0.179276,0.026177 -0.2515124,0.040247 -0.3493217,0.06804 -0.023729,0.00674 -0.091602,0.027832 -0.097172,0.030193 -0.00182,7.736e-4 -0.016956,0.00615 -0.033624,0.011952 C 2.3799637,3.5366712 2.2553241,3.592714 1.9497987,3.7437658 1.4616558,3.9851038 1.2542516,4.0510626 1.03901,4.033415 Z M 0.83882794,2.379636 c -0.00132,-3.149e-4 -0.00885,-0.00144 -0.016748,-0.00251 C 0.55554324,2.341123 0.47916464,1.9822786 0.70666284,1.8348682 0.9557186,1.6734894 1.2635564,1.9468695 1.1332379,2.2136946 1.0807474,2.3211678 0.93584162,2.4028427 0.83882794,2.379636 Z M 2.1096594,2.374786 C 1.869839,2.3360036 1.7733904,2.0457091 1.9430611,1.8733531 2.1317005,1.6817284 2.4584463,1.8225481 2.4493898,2.0915688 2.443471,2.2673893 2.2813397,2.402551 2.1096594,2.3747871 Z m 1.282532,2.07e-5 C 3.1740015,2.3393847 3.0670427,2.0918218 3.1923342,1.9122256 3.3394888,1.7012903 3.6692714,1.7660652 3.7248893,2.0168285 3.7695596,2.2182324 3.5936458,2.4075139 3.3921914,2.3748078 Z M 3.0248804,1.1407647 C 2.8950411,0.87572827 2.7882563,0.65879363 2.7875807,0.65868764 2.7869051,0.65858165 2.6800691,0.87347137 2.5501675,1.1362204 2.4202659,1.3989694 2.3133754,1.6145827 2.312633,1.6153613 c -7.78e-4,8.16e-4 -0.00697,-3.368e-4 -0.014621,-0.00272 -0.0073,-0.00228 -0.020753,-0.00595 -0.029897,-0.00816 -0.00914,-0.00221 -0.017141,-0.00458 -0.017771,-0.00525 -9.402e-4,-0.00101 -0.4739522,-1.39548048 -0.4764117,-1.40449598 -7.247e-4,-0.002656 0.048253,-0.002791 1.0122982,-0.002791 0.5571828,0 1.0130597,3.0286e-4 1.0130597,6.7303e-4 0,7.1686e-4 -0.4656582,1.37457875 -0.4739303,1.39826755 -0.00471,0.01348 -0.0051,0.014036 -0.010496,0.01505 -0.00431,8.087e-4 -0.040747,0.012055 -0.05211,0.016085 -0.00105,3.626e-4 -0.1002001,-0.200227 -0.2378735,-0.4812552 z"
         id="path1119" /></g></g></svg>
