<?xml version="1.0" encoding="UTF-8" standalone="no"?>
<!-- Created with Inkscape (http://www.inkscape.org/) -->

<svg
   width="16"
   height="16"
   viewBox="0 0 4.2333332 4.2333333"
   version="1.1"
   id="svg5"
   xml:space="preserve"
   inkscape:version="1.2.1 (9c6d41e4, 2022-07-14)"
   sodipodi:docname="link_icon.svg"
   xmlns:inkscape="http://www.inkscape.org/namespaces/inkscape"
   xmlns:sodipodi="http://sodipodi.sourceforge.net/DTD/sodipodi-0.dtd"
   xmlns="http://www.w3.org/2000/svg"
   xmlns:svg="http://www.w3.org/2000/svg"><sodipodi:namedview
     id="namedview7"
     pagecolor="#ffffff"
     bordercolor="#000000"
     borderopacity="0.25"
     inkscape:showpageshadow="2"
     inkscape:pageopacity="0.0"
     inkscape:pagecheckerboard="0"
     inkscape:deskcolor="#d1d1d1"
     inkscape:document-units="mm"
     showgrid="false"
     inkscape:zoom="14.75"
     inkscape:cx="-6.1355932"
     inkscape:cy="4.6779661"
     inkscape:window-width="1680"
     inkscape:window-height="1050"
     inkscape:window-x="0"
     inkscape:window-y="67"
     inkscape:window-maximized="0"
     inkscape:current-layer="layer1" /><defs
     id="defs2" /><g
     inkscape:label="Layer 1"
     inkscape:groupmode="layer"
     id="layer1"><path
       style="fill:#ffffff;stroke-width:0.028007"
       d="M 2.0073463,4.2044642 C 1.8606579,4.1703332 0.05026062,2.3537671 0.01730372,2.2076406 c -0.052452,-0.2325667 -0.048177,-0.2381198 0.9581261,-1.24442273 1.26592038,-1.26592045 1.01654498,-1.26592045 2.28246558,0 C 4.2641154,1.969438 4.2684694,1.9750925 4.2160516,2.2075073 4.1878286,2.3326404 2.379009,4.1669091 2.2566974,4.1944276 2.1179172,4.2256516 2.1012829,4.2263216 2.0073463,4.2044696 Z M 1.6965578,2.426531 V 2.1044507 H 2.1166626 2.5367673 V 2.3771298 2.6498086 L 2.9148683,2.2724857 3.2929696,1.8951629 2.92187,1.5231821 2.5507708,1.1512012 l -0.008,0.2648509 -0.008,0.2648508 -0.5156515,0.00872 -0.5156515,0.00872 -0.099782,0.096783 C 1.1129607,2.0771091 1.174568,2.7486056 1.4911648,2.7486056 h 0.2053846 z"
       id="path410" /></g></svg>
