<?xml version="1.0" encoding="UTF-8" standalone="no"?>
<!-- Created with Inkscape (http://www.inkscape.org/) -->

<svg
   width="16"
   height="16"
   viewBox="0 0 4.2333332 4.2333333"
   version="1.1"
   id="svg5"
   inkscape:version="1.2.1 (9c6d41e4, 2022-07-14)"
   sodipodi:docname="mail_icon.svg"
   xml:space="preserve"
   xmlns:inkscape="http://www.inkscape.org/namespaces/inkscape"
   xmlns:sodipodi="http://sodipodi.sourceforge.net/DTD/sodipodi-0.dtd"
   xmlns="http://www.w3.org/2000/svg"
   xmlns:svg="http://www.w3.org/2000/svg"><sodipodi:namedview
     id="namedview7"
     pagecolor="#ffffff"
     bordercolor="#000000"
     borderopacity="0.25"
     inkscape:showpageshadow="2"
     inkscape:pageopacity="0.0"
     inkscape:pagecheckerboard="0"
     inkscape:deskcolor="#d1d1d1"
     inkscape:document-units="mm"
     showgrid="false"
     inkscape:zoom="14.75"
     inkscape:cx="5.9322034"
     inkscape:cy="11.016949"
     inkscape:window-width="1680"
     inkscape:window-height="987"
     inkscape:window-x="0"
     inkscape:window-y="92"
     inkscape:window-maximized="0"
     inkscape:current-layer="layer1" /><defs
     id="defs2"><inkscape:path-effect
       effect="powerstroke"
       id="path-effect872"
       is_visible="true"
       lpeversion="1"
       offset_points="0.89810443,0.15301204"
       not_jump="true"
       sort_points="true"
       interpolator_type="CentripetalCatmullRom"
       interpolator_beta="0.75"
       start_linecap_type="round"
       linejoin_type="spiro"
       miter_limit="4"
       scale_width="1"
       end_linecap_type="round" /><inkscape:path-effect
       effect="simplify"
       id="path-effect870"
       is_visible="true"
       lpeversion="1"
       steps="1"
       threshold="0.0047745358"
       smooth_angles="0"
       helper_size="0"
       simplify_individual_paths="false"
       simplify_just_coalesce="false"
       step="1" /></defs><g
     inkscape:label="Layer 1"
     inkscape:groupmode="layer"
     id="layer1"><path
       style="fill:#ffffff;stroke-width:0.00826823"
       d="m 0.54570216,3.6702525 c -0.2653921,-0.032386 -0.4794859,-0.233275 -0.5328354,-0.4999718 -0.0117,-0.058488 -0.0129709962,-0.1625764 -0.010983,-0.8991321 l 0.00225,-0.8329864 0.9839192,0.6002916 c 0.54115564,0.3301604 1.00357424,0.6095245 1.02759714,0.620809 0.060898,0.028606 0.1411342,0.028606 0.2020323,0 0.024023,-0.011284 0.4864415,-0.2906486 1.0275971,-0.620809 l 0.9839191,-0.6002916 0.00225,0.8329864 c 0.00199,0.7365557 7.177e-4,0.8406437 -0.010983,0.8991321 C 4.1739776,3.4026782 4.0127745,3.5798821 3.7827149,3.651483 l -0.074414,0.02316 -1.554427,0.00108 c -0.8549355,6e-4 -1.57861224,-0.00186 -1.60817174,-0.00547 z M 1.0952962,1.7021916 C 0.53608426,1.3606607 0.06477526,1.0722899 0.04794296,1.0613675 l -0.030604,-0.019859 0.012807,-0.0435569 c 0.057957,-0.19711344 0.2281517,-0.3607234 0.4387324,-0.42175908 l 0.064422,-0.0186723 H 2.1166662 3.700032 l 0.064422,0.0186723 c 0.2106621,0.0610593 0.3807699,0.22463542 0.4387849,0.42193668 l 0.01286,0.043734 -0.043059,0.027203 C 4.0599961,1.1404821 2.1355162,2.3141498 2.1245716,2.3183497 2.1168416,2.3213197 1.722848,2.0854593 1.0952962,1.7021916 Z"
       id="path259" /></g></svg>
