<?xml version="1.0" encoding="UTF-8" standalone="no"?>
<!-- Created with Inkscape (http://www.inkscape.org/) -->

<svg
   width="16"
   height="16"
   viewBox="0 0 4.2333332 4.2333333"
   version="1.1"
   id="svg5"
   xml:space="preserve"
   inkscape:version="1.2.1 (9c6d41e4, 2022-07-14)"
   sodipodi:docname="ngrx_logo.svg"
   xmlns:inkscape="http://www.inkscape.org/namespaces/inkscape"
   xmlns:sodipodi="http://sodipodi.sourceforge.net/DTD/sodipodi-0.dtd"
   xmlns="http://www.w3.org/2000/svg"
   xmlns:svg="http://www.w3.org/2000/svg"><sodipodi:namedview
     id="namedview7"
     pagecolor="#ffffff"
     bordercolor="#000000"
     borderopacity="0.25"
     inkscape:showpageshadow="2"
     inkscape:pageopacity="0.0"
     inkscape:pagecheckerboard="0"
     inkscape:deskcolor="#d1d1d1"
     inkscape:document-units="mm"
     showgrid="false"
     inkscape:zoom="14.75"
     inkscape:cx="-0.16949153"
     inkscape:cy="10.474576"
     inkscape:window-width="1680"
     inkscape:window-height="997"
     inkscape:window-x="1907"
     inkscape:window-y="54"
     inkscape:window-maximized="0"
     inkscape:current-layer="layer1" /><defs
     id="defs2" /><g
     inkscape:label="Layer 1"
     inkscape:groupmode="layer"
     id="layer1"><path
       style="fill:#ba2bd2;fill-opacity:1;stroke-width:0.00423333"
       d="M 2.1080897,4.1377897 C 2.1046797,4.1346497 1.733774,3.9314364 1.2838534,3.6862056 0.49796186,3.2578526 0.46573056,3.2398195 0.46364796,3.2273071 c -0.00384,-0.023078 -0.2731082,-2.52875511 -0.2730741,-2.54110421 3.29e-5,-0.01192 3.29e-5,-0.01192 0.96283814,-0.3457765 0.9628053,-0.3338567 0.9628053,-0.3338567 1.9260547,0 0.9351088,0.3241033 0.9632507,0.3341659 0.9632928,0.3444401 5.71e-5,0.013975 -0.2740591,2.55311961 -0.2758136,2.55486691 -7.453e-4,7.421e-4 -0.3709251,0.2027738 -0.8226217,0.4489592 -0.4516967,0.2461852 -0.8219016,0.449229 -0.8226777,0.4512083 -0.00202,0.00514 -0.00643,0.00446 -0.013557,-0.00211 z"
       id="path1465" /><path
       style="fill:#4b314f;fill-opacity:1;stroke-width:0.00423333"
       d="M 2.1080897,4.1377897 C 2.1046804,4.1346493 1.733774,3.9314364 1.2838534,3.6862056 0.4979619,3.2578526 0.4657306,3.2398195 0.463648,3.2273071 0.4598068,3.2042287 0.1905398,0.69855196 0.1905739,0.68620287 c 3.29e-5,-0.0119198 3.29e-5,-0.0119198 0.9628381,-0.34577647 0.9628053,-0.33385671 0.9628053,-0.33385671 1.9260547,0 0.9351088,0.32410332 0.9632507,0.33416591 0.9632928,0.34444004 5.71e-5,0.0139754 -0.2740591,2.55311966 -0.2758136,2.55486696 -7.453e-4,7.421e-4 -0.3709251,0.2027738 -0.8226217,0.4489592 -0.4516967,0.2461852 -0.8219016,0.449229 -0.8226777,0.4512083 -0.00202,0.00514 -0.00643,0.00446 -0.013557,-0.00211 z M 2.4003409,3.1720788 C 2.8140333,3.1139465 3.1135525,2.8918541 3.2837134,2.5170615 3.3120164,2.4547224 3.3142144,2.4559955 3.2532364,2.4994144 3.1369744,2.5821994 3.0183231,2.64345 2.934978,2.6637073 2.890886,2.6744243 2.890161,2.6707273 2.931418,2.6455143 3.2033874,2.4793187 3.3431072,2.2237633 3.329847,1.9167655 3.326267,1.8338145 3.326987,1.8340595 3.289675,1.9031755 3.228389,2.0166949 3.1600967,2.1169065 3.1116459,2.1644151 c -0.025904,0.0254 -0.025904,0.0254 -0.00195,-0.016383 0.1468898,-0.2562416 0.1431457,-0.5197125 -0.010071,-0.7086824 -0.019717,-0.024318 -0.020203,-0.022054 -0.00746,0.034745 0.079134,0.3527592 -0.049695,0.680167 -0.3715732,0.9443209 -0.041472,0.034035 -0.0418,0.034626 -0.02132,0.038468 0.084085,0.015774 0.2168947,-0.014314 0.3118294,-0.070645 0.03483,-0.020667 0.03483,-0.020667 0.00623,0.0068 -0.1662034,0.1596203 -0.3903869,0.2673576 -0.5825287,0.2799494 -0.053754,0.00352 -0.054001,0.00402 -0.018841,0.037616 0.07417,0.070876 0.1618544,0.1098317 0.2743737,0.1218951 0.0508,0.00545 0.0508,0.00545 0.00423,0.012982 -0.3096782,0.050117 -0.6373803,-0.085287 -0.8635605,-0.356815 -0.067693,-0.081265 -0.036864,0.077775 0.035207,0.1816276 0.01764,0.025419 0.033344,0.044486 0.081411,0.098846 0.052575,0.059472 -0.1352578,-0.064208 -0.207784,-0.136806 C 1.5318879,2.4241763 1.4955807,2.0220657 1.6644019,1.7968537 1.7744218,1.6500844 1.997916,1.5354642 2.0966292,1.5751838 2.5776697,1.7687416 2.8872045,1.8076291 2.9986317,1.6885043 3.2226481,1.4490127 2.6183263,0.91229329 2.1082409,0.89771699 2.0299242,0.895479 2.0299242,0.895479 2.0108742,0.87783866 1.9480155,0.81963126 1.8746377,0.79092215 1.7883434,0.79077326 1.6909964,0.7906052 1.6634567,0.80335744 1.587409,0.88381426 1.4837377,0.99349639 1.408613,1.0375865 1.3056292,1.0491887 1.1571088,1.0659211 1.1257667,1.1041249 1.1217705,1.2732998 c -0.00305,0.1292721 -0.00249,0.127641 -0.064341,0.185839 -0.1330836,0.1252214 -0.137046,0.1313991 -0.1332618,0.2077635 0.00289,0.058336 0.01415,0.1051838 0.035472,0.1475987 0.029878,0.059433 0.024062,0.1296665 -0.015393,0.1858827 -0.058519,0.08338 -0.045063,0.1348419 0.068904,0.2635161 0.029915,0.033776 0.033091,0.039317 0.051766,0.090328 0.1561596,0.4265465 0.5870582,0.7643224 1.0454407,0.8195074 0.020955,0.00252 0.042863,0.0054 0.048683,0.00638 0.024109,0.00409 0.1956348,-0.00162 0.2413,-0.00804 z M 2.3860292,1.3705174 c -0.065357,-0.019551 -0.037365,-0.1192704 0.028384,-0.1011162 0.047703,0.013171 0.048369,0.1012652 7.654e-4,0.1012652 -0.00312,0 -0.00822,7.872e-4 -0.011317,0.00175 -0.0031,9.622e-4 -0.011126,1.079e-4 -0.017833,-0.0019 z"
       id="path308" /><path
       id="path950"
       style="fill:#412846;fill-opacity:1;stroke-width:0.00423333"
       d="m 2.1159133,0.09007079 c -0.2407566,0 -0.4813298,0.08370251 -0.9627319,0.2506307 -0.9628042,0.33385633 -0.962699,0.33379554 -0.9627319,0.34571533 -3.41e-5,0.0123491 0.2690103,2.51785178 0.2728515,2.54093018 0.00208,0.012512 0.034214,0.030534 0.820105,0.4588867 0.4499201,0.2452306 0.8208298,0.4485116 0.8242391,0.451652 0.00535,0.00493 0.00946,0.00684 0.011886,0.00517 V 3.1751538 c -0.00396,-4.921e-4 -0.0053,-5.52e-4 -0.0093,-0.00103 C 1.6518491,3.1189388 1.2209763,2.7810816 1.0648169,2.3545356 1.0461419,2.3035246 1.0430549,2.2978776 1.0131399,2.2641016 0.8991731,2.1354275 0.8853746,2.0839317 0.9438939,2.0005518 c 0.039455,-0.056216 0.045381,-0.1266022 0.015503,-0.1860352 -0.021322,-0.042415 -0.032767,-0.088942 -0.035657,-0.1472778 -0.00378,-0.076364 2.418e-4,-0.082518 0.1333252,-0.2077393 0.061851,-0.058198 0.061546,-0.056763 0.064596,-0.1860351 0.004,-0.1691747 0.035448,-0.2075433 0.1839681,-0.2242757 0.1029837,-0.011602 0.1779654,-0.0556826 0.2816366,-0.16536461 0.076048,-0.0804567 0.1036744,-0.0931856 0.2010213,-0.0930176 0.086294,1.4889e-4 0.15935,0.0291258 0.2222087,0.0873332 0.01905,0.0176403 0.019352,0.0173991 0.097668,0.0196371 0.00377,1.0762e-4 0.00759,3.5254e-4 0.011369,5.1676e-4 v -0.8082194 c -0.0012,-4.12e-6 -0.00242,0 -0.00362,0 z M 2.0420163,1.5675 C 1.9307338,1.57216 1.7570908,1.6731069 1.6642616,1.7969434 c -0.168821,0.2252117 -0.1325029,0.6274507 0.075448,0.8356079 0.072526,0.072598 0.2603142,0.1964144 0.2077392,0.1369425 -0.048067,-0.05436 -0.064009,-0.0738 -0.081649,-0.099219 C 1.7937288,2.5664223 1.7629669,2.4076256 1.8306598,2.4888905 1.9149498,2.5900797 2.0132299,2.6724972 2.1195311,2.73332 V 1.5845532 c -0.00784,-0.00311 -0.015321,-0.00611 -0.023254,-0.0093 -0.015424,-0.00621 -0.033652,-0.00862 -0.05426,-0.00775 z" /></g></svg>
