<svg width="16" height="16" version="1.1" viewBox="0 0 4.2333 4.2333" xmlns="http://www.w3.org/2000/svg">
 <path d="m2.055 4.2319c-0.00625-4.126e-4 -0.030437-0.00178-0.053743-0.00304-0.20512-0.011082-0.40272-0.05089-0.59738-0.12035-0.017622-0.00629-0.034365-0.012425-0.037207-0.01364-0.00284-0.00121-0.015865-0.00634-0.028939-0.011387-0.1478-0.057072-0.31119-0.14592-0.44855-0.2439-0.19115-0.13635-0.36145-0.30664-0.49534-0.49532-0.22997-0.32409-0.36192-0.69516-0.38825-1.0919-0.00691-0.10417-0.00633-0.18645 0.00213-0.30127 0.020194-0.27412 0.09998-0.55489 0.2282-0.80305 0.084446-0.16343 0.17928-0.30146 0.30396-0.44239 0.032935-0.037228 0.1291-0.13339 0.16632-0.16632 0.13977-0.12366 0.28113-0.22084 0.4416-0.3036 0.23914-0.12333 0.4879-0.19661 0.7656-0.22552 0.11794-0.01228 0.28556-0.012306 0.40618-6.281e-5 0.37686 0.038253 0.71988 0.16644 1.0253 0.38314 0.29479 0.20919 0.54018 0.50424 0.69046 0.8302 0.10269 0.22275 0.16203 0.44039 0.18796 0.68936 0.012219 0.11735 0.012219 0.28986 0 0.40721-0.014528 0.13953-0.040379 0.27328-0.075706 0.39171-0.090463 0.30325-0.23567 0.56636-0.44454 0.80548-0.039083 0.044744-0.14048 0.14614-0.18522 0.18522-0.36 0.31445-0.79358 0.49437-1.2664 0.52552-0.04602 0.00303-0.17188 0.00556-0.19637 0.00394z" fill="#c12127" stroke-width=".0020671"/>
 <path d="m0.52917 1.6069v0.8156h0.4078v-0.60878h0.20099v0.60878h0.20681v-0.8156h-0.4078zm0.9758 0v1.0195h0.41071v-0.2039h0.40489v-0.8156h-0.4078zm0.9758 0v0.8156h0.41071v-0.60878h0.19807l7.283e-4 0.30366 7.28e-4 0.30366 0.20536 0.0014564v-0.60878h0.20099v0.60878h0.20681v-0.8156h-0.6117zm-0.56509 0.20681h0.19807v0.40197h-0.19807v-0.20099z" fill="#fff" stroke-width=".0029128"/>
</svg>
