<svg width="16" height="16" version="1.1" viewBox="0 0 4.2333 4.2333" xmlns="http://www.w3.org/2000/svg">
 <rect x=".13229" y=".13229" width="3.9688" height="3.9688" fill="#00d8ff" stroke-width=".12402"/>
 <path d="m7.5e-8 2.1167v-2.1167h4.2333v4.2333h-4.2333zm1.5424 1.7126c0.13496-0.047631 0.32404-0.163 0.46979-0.28664l0.10719-0.090936 0.038253 0.031141c0.021039 0.017127 0.081812 0.066903 0.13505 0.11061 0.21618 0.17748 0.43766 0.27606 0.62022 0.27606 0.18465 0 0.29444-0.083379 0.36601-0.27798 0.048369-0.13151 0.058527-0.45358 0.020678-0.65557-0.015046-0.080296-0.021339-0.15147-0.013983-0.15816 0.00736-0.00669 0.054301-0.025186 0.10432-0.041097 0.050023-0.015911 0.16423-0.066256 0.25378-0.11188 0.36485-0.18585 0.51805-0.43728 0.40665-0.66738-0.077616-0.16033-0.32488-0.33465-0.62843-0.44303-0.078492-0.028025-0.14464-0.056656-0.14699-0.063623-0.00235-0.00697 0.00873-0.098727 0.024629-0.20391 0.064528-0.42687-0.018343-0.75455-0.21489-0.8497-0.11775-0.057001-0.29232-0.043023-0.46057 0.036876-0.15357 0.07293-0.2907 0.16485-0.41391 0.27746l-0.093443 0.085402-0.086886-0.078654c-0.11648-0.10544-0.33749-0.24854-0.462-0.29914-0.12232-0.049703-0.29771-0.067807-0.38329-0.039564-0.18658 0.061576-0.27597 0.24984-0.27672 0.58277-2.183e-4 0.097281 0.012096 0.24485 0.027365 0.32794 0.015511 0.084404 0.021422 0.15662 0.013395 0.16365-0.0079 0.00692-0.073898 0.033226-0.14666 0.058454-0.41466 0.14377-0.66973 0.37718-0.66973 0.61284 0 0.08314 0.091381 0.2459 0.18564 0.33065 0.13535 0.12169 0.41688 0.2701 0.5975 0.31498 0.052323 0.013 0.05155-0.00961 0.00788 0.2305-0.00993 0.05457-0.01785 0.18107-0.017609 0.28112 6.9539e-4 0.28888 0.077516 0.47165 0.2327 0.55363 0.088459 0.046732 0.26053 0.043828 0.40404-0.00682zm1.2914-0.12558c-0.1396-0.027964-0.41491-0.19472-0.54195-0.32827l-0.048029-0.050486 0.044166-0.054307c0.024291-0.029869 0.10013-0.12686 0.16852-0.21554 0.11365-0.14735 0.12914-0.16123 0.17999-0.16123 0.030597 0 0.14361-0.015041 0.25114-0.033424 0.10753-0.018383 0.20415-0.030107 0.21472-0.026052 0.031317 0.012017 0.060634 0.26893 0.053021 0.46462-0.012822 0.32957-0.10671 0.44773-0.32157 0.40469zm-1.6393-0.024338c-0.08685-0.062655-0.14993-0.30034-0.12897-0.48596 0.017936-0.15882 0.045799-0.32793 0.057024-0.34609 0.00733-0.011853 0.068485-0.00738 0.19235 0.014069 0.099884 0.017297 0.2089 0.031683 0.24227 0.031969 0.088396 7.573e-4 0.10608 0.011446 0.17472 0.10558 0.034127 0.046808 0.11 0.14033 0.1686 0.20783l0.10655 0.12273-0.073362 0.064442c-0.10998 0.096607-0.25274 0.19113-0.37635 0.24918-0.13458 0.063201-0.30225 0.079951-0.36283 0.036247zm0.8084-0.60585c-0.064775-0.076064-0.11776-0.14202-0.11774-0.14657 1.66e-5 -0.00455 0.1042-0.00827 0.23152-0.00827 0.12732 0 0.23148 0.00243 0.23147 0.00539-1.45e-5 0.00574-0.12163 0.1614-0.18781 0.24039l-0.03967 0.047347zm-0.18912-0.32404c-0.058488-0.00607-0.069489-0.016393-0.15128-0.14191-0.048514-0.07445-0.13047-0.21523-0.18212-0.31284l-0.093909-0.17748 0.078839-0.14953c0.043361-0.082239 0.12394-0.2219 0.17907-0.31035l0.10023-0.16082 0.17442-0.014592c0.095931-0.00803 0.26154-0.00915 0.36802-0.0025l0.1936 0.012096 0.099158 0.15959c0.054537 0.087776 0.13448 0.22859 0.17766 0.31293l0.078498 0.15333-0.087417 0.16981c-0.048079 0.093396-0.12803 0.23355-0.17766 0.31145l-0.090244 0.14164-0.10175 0.010635c-0.10508 0.010988-0.45392 0.010077-0.56512-0.0014699zm0.43154-0.31123c0.33376-0.13942 0.26219-0.63977-0.095201-0.66562-0.24008-0.017366-0.39496 0.13643-0.3777 0.37504 0.00951 0.13145 0.064973 0.21507 0.18099 0.27288 0.10029 0.049977 0.20014 0.056028 0.29192 0.017692zm-0.91961 0.26169c-0.17904-0.028947-0.17241-0.00787-0.078847-0.25083l0.053759-0.13959 0.076745 0.13921c0.04221 0.076568 0.096008 0.17084 0.11955 0.20949 0.050003 0.082093 0.061405 0.079316-0.17121 0.041707zm1.3697 0.024656c0-0.00338 0.048369-0.090914 0.10749-0.19452 0.059118-0.10361 0.10749-0.19436 0.10749-0.20167 0-0.00732 0.00571-0.0133 0.012683-0.0133 0.00698 0 0.041413 0.075248 0.076527 0.16722 0.049145 0.12872 0.058984 0.17022 0.042737 0.18026-0.011609 0.00717-0.081392 0.021888-0.15507 0.032696-0.073682 0.010808-0.14699 0.023209-0.16291 0.027558-0.015916 0.00435-0.028939 0.00514-0.028939 0.00176zm-1.8025-0.1347c-0.25313-0.089248-0.46678-0.22751-0.54699-0.354-0.05665-0.089327-0.059765-0.13107-0.01616-0.21654 0.036452-0.071451 0.10345-0.13443 0.22733-0.21372 0.090131-0.057684 0.33135-0.16183 0.41234-0.17803 0.044946-0.00899 0.049192-0.00506 0.069713 0.064435 0.012018 0.040704 0.054224 0.15344 0.093791 0.25053l0.071939 0.17652-0.054167 0.12695c-0.029792 0.069821-0.071125 0.17904-0.091852 0.2427-0.020727 0.063665-0.042374 0.12099-0.048105 0.12739-0.00573 0.0064-0.05876-0.0054-0.11784-0.026236zm2.3143-0.022611c-0.043056-0.11816-0.057759-0.15494-0.11909-0.29784l-0.065725-0.15315 0.057933-0.13624c0.031863-0.074932 0.074932-0.18461 0.095708-0.24373 0.020776-0.059118 0.039999-0.11038 0.042717-0.11393 0.00932-0.012148 0.26217 0.084187 0.37792 0.14399 0.13833 0.071465 0.31271 0.23623 0.32646 0.30846 0.030101 0.15813-0.19831 0.3618-0.55727 0.49691-0.13565 0.05106-0.13844 0.050981-0.15865-0.00447zm-1.9728-0.81642c-0.034041-0.092049-0.058363-0.17089-0.054049-0.17521 0.014506-0.014506 0.32268-0.06154 0.33335-0.050876 0.0058 0.0058-0.022526 0.065074-0.06295 0.13172-0.040424 0.066642-0.089609 0.15279-0.1093 0.19145-0.019692 0.038654-0.037907 0.07028-0.040479 0.07028-0.00257 0-0.032528-0.075313-0.066569-0.16736zm1.661 0.12168c-0.010827-0.026138-0.059709-0.11399-0.10863-0.19522-0.068942-0.11449-0.083198-0.14899-0.063398-0.15343 0.014049-0.00315 0.09501 0.00678 0.17991 0.022066l0.15437 0.027795-0.056662 0.15853c-0.031164 0.087193-0.063243 0.16511-0.071287 0.17316-0.00848 0.00848-0.022902-0.00536-0.03431-0.032898zm-1.7768-0.49425c-0.013343-0.045108-0.039746-0.2147-0.051206-0.32891-0.020705-0.20634 0.040513-0.43739 0.13173-0.49715 0.12378-0.081105 0.45198 0.050792 0.72314 0.29061l0.078549 0.069472-0.096428 0.11021c-0.053036 0.060618-0.1302 0.15486-0.17148 0.20943l-0.075054 0.099219-0.21299 0.030272c-0.11715 0.01665-0.23644 0.034129-0.2651 0.038844-0.040888 0.00673-0.054057 0.00199-0.061154-0.022004zm1.7917 0.00182c-0.059118-0.011848-0.16053-0.026634-0.22536-0.032857l-0.11787-0.011315-0.066293-0.093331c-0.036461-0.051332-0.11148-0.14686-0.16671-0.21229l-0.10042-0.11896 0.086148-0.077971c0.20022-0.18122 0.4424-0.30562 0.59731-0.30682 0.074239-5.7497e-4 0.088696 0.005524 0.13635 0.057521 0.029317 0.03199 0.062948 0.090388 0.074736 0.12977 0.028374 0.0948 0.027992 0.43831-6.433e-4 0.5801-0.025776 0.12763-0.020547 0.12556-0.21724 0.086138zm-1.0251-0.073737c3.308e-4 -0.016521 0.2168-0.26458 0.23089-0.26458 0.014505 0 0.18896 0.20135 0.21492 0.24805 0.011961 0.02152-0.016652 0.024805-0.21609 0.024805-0.12643 0-0.22981-0.00372-0.22971-0.00827z" fill="#222" stroke-width=".016536"/>
</svg>
