<?xml version="1.0" encoding="UTF-8" standalone="no"?>
<!-- Created with Inkscape (http://www.inkscape.org/) -->

<svg
   width="16"
   height="16"
   viewBox="0 0 4.2333332 4.2333333"
   version="1.1"
   id="svg5"
   xml:space="preserve"
   inkscape:version="1.2.1 (9c6d41e4, 2022-07-14)"
   sodipodi:docname="sass_logo.svg"
   xmlns:inkscape="http://www.inkscape.org/namespaces/inkscape"
   xmlns:sodipodi="http://sodipodi.sourceforge.net/DTD/sodipodi-0.dtd"
   xmlns="http://www.w3.org/2000/svg"
   xmlns:svg="http://www.w3.org/2000/svg"><sodipodi:namedview
     id="namedview7"
     pagecolor="#ffffff"
     bordercolor="#000000"
     borderopacity="0.25"
     inkscape:showpageshadow="2"
     inkscape:pageopacity="0.0"
     inkscape:pagecheckerboard="0"
     inkscape:deskcolor="#d1d1d1"
     inkscape:document-units="mm"
     showgrid="false"
     inkscape:zoom="14.75"
     inkscape:cx="12.237288"
     inkscape:cy="7.7288136"
     inkscape:window-width="1680"
     inkscape:window-height="1050"
     inkscape:window-x="0"
     inkscape:window-y="67"
     inkscape:window-maximized="0"
     inkscape:current-layer="layer1" /><defs
     id="defs2" /><g
     inkscape:label="Layer 1"
     inkscape:groupmode="layer"
     id="layer1"><path
       style="fill:#ffffff;fill-opacity:1;stroke-width:3.9245"
       id="path872"
       sodipodi:type="arc"
       sodipodi:cx="2.1166666"
       sodipodi:cy="2.1166666"
       sodipodi:rx="2.1166666"
       sodipodi:ry="2.1166666"
       sodipodi:start="0"
       sodipodi:end="6.2706527"
       sodipodi:open="true"
       sodipodi:arc-type="arc"
       d="M 4.2333331,2.1166666 A 2.1166666,2.1166666 0 0 1 2.1232984,4.2333227 2.1166666,2.1166666 0 0 1 4.1556972e-5,2.1299301 2.1166666,2.1166666 0 0 1 2.0967713,9.3502804e-5 2.1166666,2.1166666 0 0 1 4.2331669,2.0901399" /><path
       style="fill:#ffffff;fill-opacity:1;stroke-width:0.00206706"
       d="m -7.4736216,3.8372902 c -0.00257,-0.00328 -0.0025,-0.00335 7.804e-4,-7.805e-4 0.00344,0.0027 0.00454,0.0044 0.00284,0.0044 -4.292e-4,0 -0.00206,-0.00163 -0.00362,-0.00362 z M -4.510709,3.5976295 c 0.00201,-5.24e-4 0.0048,-4.897e-4 0.0062,7.65e-5 0.0014,5.662e-4 -2.46e-4,9.949e-4 -0.00366,9.529e-4 -0.00341,-4.13e-5 -0.00456,-5.054e-4 -0.00254,-0.00103 z m 0.1012858,0 c 0.00201,-5.24e-4 0.0048,-4.897e-4 0.0062,7.65e-5 0.0014,5.662e-4 -2.46e-4,9.949e-4 -0.00366,9.529e-4 -0.00341,-4.13e-5 -0.00456,-5.054e-4 -0.00254,-0.00103 z m -0.1477046,-0.00205 c 0.00149,-5.97e-4 0.00327,-5.237e-4 0.00396,1.634e-4 6.869e-4,6.869e-4 -5.341e-4,0.00118 -0.00271,0.00109 -0.00241,-9.93e-5 -0.0029,-5.891e-4 -0.00125,-0.00125 z m 0.1922363,0 c 0.00149,-5.97e-4 0.00327,-5.237e-4 0.00396,1.634e-4 6.869e-4,6.869e-4 -5.341e-4,0.00118 -0.00271,0.00109 -0.00241,-9.93e-5 -0.0029,-5.891e-4 -0.00125,-0.00125 z M -4.5199208,3.2689879 c 0.00149,-5.973e-4 0.00327,-5.238e-4 0.00396,1.633e-4 6.869e-4,6.868e-4 -5.341e-4,0.00118 -0.00271,0.00109 -0.00241,-9.92e-5 -0.0029,-5.891e-4 -0.00125,-0.00125 z m 0.088884,0 c 0.00149,-5.973e-4 0.00327,-5.238e-4 0.00396,1.633e-4 6.869e-4,6.868e-4 -5.341e-4,0.00118 -0.00271,0.00109 -0.00241,-9.92e-5 -0.0029,-5.891e-4 -0.00125,-0.00125 z m 0.709714,-0.1866902 c 0,-0.00284 4.693e-4,-0.004 0.00104,-0.00258 5.734e-4,0.00142 5.734e-4,0.00375 0,0.00517 -5.734e-4,0.00142 -0.00104,2.584e-4 -0.00104,-0.00258 z m -1.633e-4,-0.071486 c 9.93e-5,-0.00241 5.892e-4,-0.0029 0.00125,-0.00125 5.971e-4,0.00149 5.237e-4,0.00328 -1.633e-4,0.00396 -6.869e-4,6.869e-4 -0.00118,-5.342e-4 -0.00109,-0.00271 z m -0.4994547,-0.059256 -0.00817,-0.00878 0.00879,0.00817 c 0.00817,0.0076 0.00973,0.0094 0.00817,0.0094 -3.376e-4,0 -0.00429,-0.00395 -0.00879,-0.00879 z M -4.8339897,2.6032572 c -0.00257,-0.00328 -0.0025,-0.00335 7.806e-4,-7.806e-4 0.00199,0.00156 0.00362,0.00319 0.00362,0.00362 0,0.0017 -0.0017,6.062e-4 -0.0044,-0.00284 z M -4.9927262,2.2625373 c 9.92e-5,-0.00241 5.891e-4,-0.0029 0.00125,-0.00125 5.972e-4,0.00149 5.238e-4,0.00328 -1.633e-4,0.00396 -6.869e-4,6.867e-4 -0.00118,-5.343e-4 -0.00109,-0.00271 z m 1.633e-4,-0.06494 c 0,-0.00284 4.692e-4,-0.004 0.00104,-0.00258 5.734e-4,0.00142 5.734e-4,0.00375 0,0.00517 -5.734e-4,0.00142 -0.00104,2.582e-4 -0.00104,-0.00258 z m 1.1912901,-0.2521811 c 0,-0.1062984 2.511e-4,-0.1497842 5.583e-4,-0.096635 3.07e-4,0.053149 3.07e-4,0.1401207 0,0.1932699 -3.072e-4,0.053149 -5.583e-4,0.00966 -5.583e-4,-0.096635 z m -0.4830035,0.064734 c 0.00149,-5.971e-4 0.00328,-5.238e-4 0.00396,1.634e-4 6.868e-4,6.869e-4 -5.342e-4,0.00118 -0.00271,0.00109 -0.00241,-9.92e-5 -0.0029,-5.891e-4 -0.00125,-0.00125 z m 0.082682,0 c 0.00149,-5.971e-4 0.00328,-5.238e-4 0.00396,1.634e-4 6.869e-4,6.869e-4 -5.341e-4,0.00118 -0.00271,0.00109 -0.00241,-9.92e-5 -0.0029,-5.891e-4 -0.00125,-0.00125 z M -4.3524892,1.6835549 c 0.00149,-5.971e-4 0.00328,-5.237e-4 0.00396,1.631e-4 6.868e-4,6.869e-4 -5.342e-4,0.00118 -0.00271,0.00109 -0.00241,-9.92e-5 -0.0029,-5.89e-4 -0.00125,-0.00125 z m 0.039145,-0.00202 c 0.00142,-5.734e-4 0.00375,-5.734e-4 0.00517,0 0.00142,5.735e-4 2.584e-4,0.00104 -0.00258,0.00104 -0.00284,0 -0.004,-4.691e-4 -0.00258,-0.00104 z m 0.1075112,-9.3e-5 c 0.00257,-4.944e-4 0.00629,-4.756e-4 0.00827,4.18e-5 0.00198,5.173e-4 -1.281e-4,9.219e-4 -0.00468,8.988e-4 -0.00455,-2.29e-5 -0.00616,-4.462e-4 -0.00359,-9.406e-4 z"
       id="path261" /><path
       style="fill:#b9b9b9;fill-opacity:1;stroke-width:0.00206706"
       d="m -3.5046081,3.835993 c 0,-4.291e-4 0.00163,-0.00206 0.00362,-0.00362 0.00328,-0.00257 0.00335,-0.0025 7.805e-4,7.805e-4 -0.0027,0.00344 -0.0044,0.00454 -0.0044,0.00284 z m -3.9752147,-0.0049 c -0.00257,-0.00328 -0.0025,-0.00335 7.805e-4,-7.806e-4 0.00344,0.0027 0.00454,0.0044 0.00284,0.0044 -4.293e-4,0 -0.00206,-0.00163 -0.00362,-0.00362 z m -0.014469,-0.014469 c -0.00257,-0.00328 -0.0025,-0.00335 7.805e-4,-7.805e-4 0.00344,0.0027 0.00454,0.0044 0.00284,0.0044 -4.293e-4,0 -0.00206,-0.00163 -0.00362,-0.00362 z m 4.0062205,0.00284 c 0,-4.291e-4 0.00163,-0.00206 0.00362,-0.00362 0.00328,-0.00257 0.00335,-0.0025 7.805e-4,7.806e-4 -0.0027,0.00344 -0.0044,0.00454 -0.0044,0.00284 z M -4.5231506,3.5976371 c 0.00199,-5.201e-4 0.00525,-5.201e-4 0.00723,0 0.00199,5.199e-4 3.618e-4,9.453e-4 -0.00362,9.453e-4 -0.00398,0 -0.00561,-4.254e-4 -0.00362,-9.453e-4 z m 0.1240627,0 c 0.00201,-5.239e-4 0.0048,-4.897e-4 0.0062,7.66e-5 0.0014,5.66e-4 -2.46e-4,9.948e-4 -0.00366,9.529e-4 -0.00341,-4.14e-5 -0.00456,-5.054e-4 -0.00254,-0.00103 z m -0.1642411,-0.00205 c 0.00149,-5.973e-4 0.00327,-5.238e-4 0.00396,1.632e-4 6.869e-4,6.869e-4 -5.341e-4,0.00118 -0.00271,0.00109 -0.00241,-9.92e-5 -0.0029,-5.891e-4 -0.00125,-0.00125 z m 0.2046387,0 c 0.00149,-5.973e-4 0.00327,-5.238e-4 0.00396,1.632e-4 6.869e-4,6.869e-4 -5.341e-4,0.00118 -0.00271,0.00109 -0.00241,-9.92e-5 -0.0029,-5.891e-4 -0.00125,-0.00125 z M -6.1023851,2.8192724 -6.102899,2.0632541 -6.3669656,2.0627217 -6.6310321,2.062189 -6.3669007,2.0616803 c 0.2097795,-4.041e-4 0.2643333,2.28e-5 0.2651122,0.00207 5.395e-4,0.00142 7.415e-4,0.342098 4.491e-4,0.7570597 l -5.317e-4,0.7544758 z m 1.5885363,0.4497585 c 0.00142,-5.735e-4 0.00375,-5.735e-4 0.00517,0 0.00142,5.733e-4 2.584e-4,0.00104 -0.00258,0.00104 -0.00284,0 -0.004,-4.691e-4 -0.00258,-0.00104 z m 0.074414,0 c 0.00142,-5.735e-4 0.00375,-5.735e-4 0.00517,0 0.00142,5.733e-4 2.584e-4,0.00104 -0.00258,0.00104 -0.00284,0 -0.004,-4.691e-4 -0.00258,-0.00104 z m 0.7179487,-0.2644201 c 9.93e-5,-0.00241 5.892e-4,-0.0029 0.00125,-0.00125 5.971e-4,0.00149 5.237e-4,0.00327 -1.633e-4,0.00396 -6.869e-4,6.869e-4 -0.00118,-5.342e-4 -0.00109,-0.00271 z m -0.1387156,-0.3166042 -0.013376,-0.013953 0.013953,0.013376 c 0.01296,0.012424 0.014898,0.014529 0.013376,0.014529 -3.171e-4,0 -0.0066,-0.00628 -0.013953,-0.013952 z m -1.010995,-0.1219565 c -0.00257,-0.00328 -0.0025,-0.00335 7.805e-4,-7.804e-4 0.00344,0.0027 0.00454,0.0044 0.00284,0.0044 -4.292e-4,0 -0.00206,-0.00163 -0.00362,-0.00362 z m 0.3773053,-0.2449462 -0.00394,-0.00465 0.00465,0.00394 c 0.00437,0.0037 0.00559,0.00536 0.00394,0.00536 -3.923e-4,0 -0.00249,-0.00209 -0.00465,-0.00465 z m -0.011436,-0.011369 c -0.00257,-0.00328 -0.0025,-0.00335 7.805e-4,-7.806e-4 0.00344,0.0027 0.00454,0.0044 0.00284,0.0044 -4.291e-4,0 -0.00206,-0.00163 -0.00362,-0.00362 z m -0.4872355,-0.039791 c 0,-0.00284 4.692e-4,-0.004 0.00104,-0.00258 5.734e-4,0.00142 5.734e-4,0.00375 0,0.00517 -5.734e-4,0.00142 -0.00104,2.582e-4 -0.00104,-0.00258 z m -1.633e-4,-0.079754 c 9.92e-5,-0.00241 5.891e-4,-0.0029 0.00125,-0.00125 5.972e-4,0.00149 5.238e-4,0.00328 -1.633e-4,0.00396 -6.869e-4,6.868e-4 -0.00118,-5.343e-4 -0.00109,-0.00271 z M -5.5482503,2.0616883 c 0.073701,-3.009e-4 0.1936942,-3.009e-4 0.2666504,3e-7 0.072956,3.009e-4 0.012655,5.472e-4 -0.1340026,5.472e-4 -0.1466577,0 -0.2063492,-2.464e-4 -0.1326478,-5.475e-4 z m 1.2701752,-0.051538 c 0.00149,-5.972e-4 0.00327,-5.238e-4 0.00396,1.633e-4 6.869e-4,6.869e-4 -5.341e-4,0.00118 -0.00271,0.00109 -0.00241,-9.92e-5 -0.0029,-5.891e-4 -0.00125,-0.00125 z m 0.07028,0 c 0.00149,-5.972e-4 0.00328,-5.238e-4 0.00396,1.633e-4 6.868e-4,6.869e-4 -5.342e-4,0.00118 -0.00271,0.00109 -0.00241,-9.92e-5 -0.0029,-5.891e-4 -0.00125,-0.00125 z m 0.059945,-0.3265951 c 0.00149,-5.971e-4 0.00327,-5.237e-4 0.00396,1.631e-4 6.869e-4,6.869e-4 -5.341e-4,0.00118 -0.00271,0.00109 -0.00241,-9.92e-5 -0.0029,-5.89e-4 -0.00125,-0.00125 z m -0.173762,-0.00202 c 0.00142,-5.734e-4 0.00375,-5.734e-4 0.00517,0 0.00142,5.735e-4 2.584e-4,0.00104 -0.00258,0.00104 -0.00284,0 -0.004,-4.691e-4 -0.00258,-0.00104 z m 0.1292304,-6.34e-5 c 0.00201,-5.241e-4 0.0048,-4.897e-4 0.0062,7.67e-5 0.0014,5.662e-4 -2.46e-4,9.95e-4 -0.00366,9.529e-4 -0.00341,-4.22e-5 -0.00456,-5.054e-4 -0.00254,-0.00103 z m -3.3037139,-1.83696621 c 0,-4.2923e-4 0.00163,-0.002057 0.00362,-0.003617 0.00328,-0.002571 0.00335,-0.002498 7.805e-4,7.8043e-4 -0.0027,0.003443 -0.0044,0.004538 -0.0044,0.002837 z m 4.0098272,-0.002837 c -0.00257,-0.003278 -0.0025,-0.003352 7.805e-4,-7.8043e-4 0.00344,0.0027 0.00454,0.004398 0.00284,0.004398 -4.292e-4,0 -0.00206,-0.001628 -0.00362,-0.003618 z m -3.9932907,-0.0136995 c 0,-4.2924e-4 0.00163,-0.002057 0.00362,-0.003617 0.00328,-0.002571 0.00335,-0.002498 7.804e-4,7.8042e-4 -0.0027,0.003443 -0.0044,0.004538 -0.0044,0.002837 z m 3.9767543,-0.002837 c -0.00257,-0.003278 -0.0025,-0.003352 7.805e-4,-7.8042e-4 0.00199,0.00156 0.00362,0.003188 0.00362,0.003617 0,0.001701 -0.0017,6.0627e-4 -0.0044,-0.002837 z"
       id="path259" /><path
       style="fill:#a3a3a3;fill-opacity:1;stroke-width:0.00206706"
       d="m -3.4942729,3.8254047 c 0.00267,-0.00284 0.00532,-0.00517 0.00589,-0.00517 5.684e-4,0 -0.00115,0.00233 -0.00382,0.00517 -0.00267,0.00284 -0.00532,0.00517 -0.00589,0.00517 -5.685e-4,0 0.00115,-0.00233 0.00382,-0.00517 z m -3.9927173,-0.00155 -0.00394,-0.00465 0.00465,0.00394 c 0.00437,0.0037 0.00559,0.00536 0.00394,0.00536 -3.922e-4,0 -0.00249,-0.00209 -0.00465,-0.00465 z M -4.5324523,3.597693 c 0.00142,-5.734e-4 0.00375,-5.734e-4 0.00517,0 0.00142,5.734e-4 2.584e-4,0.00104 -0.00258,0.00104 -0.00284,0 -0.004,-4.692e-4 -0.00258,-0.00104 z m 0.1426269,0 c 0.00142,-5.734e-4 0.00375,-5.734e-4 0.00517,0 0.00142,5.734e-4 2.583e-4,0.00104 -0.00258,0.00104 -0.00284,0 -0.004,-4.692e-4 -0.00258,-0.00104 z m -0.1797048,-0.00211 c 0.00149,-5.97e-4 0.00328,-5.237e-4 0.00396,1.634e-4 6.868e-4,6.869e-4 -5.342e-4,0.00118 -0.00271,0.00109 -0.00241,-9.93e-5 -0.0029,-5.891e-4 -0.00125,-0.00125 z M -4.9857354,3.4951924 c -5.418e-4,-0.00142 -7.45e-4,-0.095136 -4.517e-4,-0.208256 l 5.329e-4,-0.2056722 0.00103,0.2082562 c 5.685e-4,0.1145408 7.717e-4,0.208256 4.517e-4,0.208256 -3.198e-4,-2e-7 -0.00102,-0.00116 -0.00157,-0.00258 z m 0.4801548,-0.2261615 c 0.00142,-5.735e-4 0.00375,-5.735e-4 0.00517,0 0.00142,5.733e-4 2.583e-4,0.00104 -0.00258,0.00104 -0.00284,0 -0.004,-4.691e-4 -0.00258,-0.00104 z m 0.057878,0 c 0.00142,-5.735e-4 0.00375,-5.735e-4 0.00517,0 0.00142,5.733e-4 2.583e-4,0.00104 -0.00258,0.00104 -0.00284,0 -0.004,-4.691e-4 -0.00258,-0.00104 z m -0.090821,-0.00211 c 0.00149,-5.973e-4 0.00327,-5.238e-4 0.00396,1.631e-4 6.869e-4,6.869e-4 -5.341e-4,0.00118 -0.00271,0.00109 -0.00241,-9.92e-5 -0.0029,-5.891e-4 -0.00125,-0.00125 z m 0.8170375,-0.1734266 c 9.93e-5,-0.00241 5.892e-4,-0.0029 0.00125,-0.00125 5.971e-4,0.00149 5.237e-4,0.00328 -1.633e-4,0.00396 -6.869e-4,6.869e-4 -0.00118,-5.342e-4 -0.00109,-0.00271 z M -3.8438693,2.7045429 c -0.00257,-0.00328 -0.0025,-0.00335 7.805e-4,-7.804e-4 0.00199,0.00156 0.00362,0.00319 0.00362,0.00362 0,0.0017 -0.0017,6.063e-4 -0.0044,-0.00284 z m -0.033073,-0.033073 c -0.00257,-0.00328 -0.0025,-0.00335 7.805e-4,-7.804e-4 0.00199,0.00156 0.00362,0.00319 0.00362,0.00362 0,0.0017 -0.0017,6.063e-4 -0.0044,-0.00284 z M -4.2720031,2.010193 c 0.00142,-5.733e-4 0.00375,-5.733e-4 0.00517,0 0.00142,5.735e-4 2.584e-4,0.00104 -0.00258,0.00104 -0.00284,0 -0.004,-4.692e-4 -0.00258,-0.00104 z m 0.055811,0 c 0.00142,-5.733e-4 0.00375,-5.733e-4 0.00517,0 0.00142,5.735e-4 2.583e-4,0.00104 -0.00258,0.00104 -0.00284,0 -0.004,-4.692e-4 -0.00258,-0.00104 z M -4.8543965,1.8741027 c 0.00386,-0.00398 0.00748,-0.00723 0.00805,-0.00723 5.685e-4,0 -0.00212,0.00326 -0.00598,0.00723 -0.00386,0.00398 -0.00748,0.00723 -0.00805,0.00723 -5.685e-4,0 0.00212,-0.00326 0.00598,-0.00723 z m 0.491572,-0.1905478 c 0.00149,-5.971e-4 0.00328,-5.237e-4 0.00396,1.631e-4 6.869e-4,6.869e-4 -5.341e-4,0.00118 -0.00271,0.00109 -0.00241,-9.92e-5 -0.0029,-5.89e-4 -0.00125,-0.00125 z m 0.2211752,0 c 0.00149,-5.971e-4 0.00327,-5.237e-4 0.00396,1.631e-4 6.869e-4,6.869e-4 -5.341e-4,0.00118 -0.00271,0.00109 -0.00241,-9.92e-5 -0.0029,-5.89e-4 -0.00125,-0.00125 z m -0.1882314,-0.00202 c 0.00142,-5.734e-4 0.00375,-5.734e-4 0.00517,0 0.00142,5.735e-4 2.584e-4,0.00104 -0.00258,0.00104 -0.00284,0 -0.004,-4.691e-4 -0.00258,-0.00104 z m 0.1468902,-4.3e-5 c 0.00149,-5.971e-4 0.00328,-5.237e-4 0.00396,1.631e-4 6.868e-4,6.869e-4 -5.342e-4,0.00118 -0.00271,0.00109 -0.00241,-9.92e-5 -0.0029,-5.89e-4 -0.00125,-0.00125 z m -3.3027698,-1.84757059 c 0.00267,-0.002842 0.00532,-0.005168 0.00589,-0.005168 5.685e-4,0 -0.00115,0.002325 -0.00382,0.005168 -0.00267,0.002842 -0.00532,0.005168 -0.00589,0.005168 -5.684e-4,0 0.00115,-0.002325 0.00382,-0.005168 z m 3.991331,-5.1677e-4 -0.00501,-0.005684 0.00568,0.005011 c 0.00313,0.002756 0.00568,0.005314 0.00568,0.005684 0,0.001621 -0.00167,3.0174e-4 -0.00636,-0.005011 z"
       id="path257" /><g
       id="g735"
       transform="translate(4.3981666e-8,2.3164837e-4)"
       style="fill:#cd669a;fill-opacity:1"><path
         style="fill:#cd669a;fill-opacity:1;stroke-width:0.0132292"
         d="m 1.2542904,3.4966921 c 0.00955,-0.00382 0.02096,-0.00335 0.025356,0.00104 0.0044,0.0044 -0.00342,0.00752 -0.017363,0.00695 -0.015411,-6.35e-4 -0.018546,-0.00377 -0.00799,-0.00799 z M 0.90216241,3.4197395 c 2.6961e-4,-0.021828 0.003235,-0.029156 0.006589,-0.016285 0.003354,0.012872 0.003134,0.030731 -4.9014e-4,0.039687 -0.003624,0.00896 -0.006368,-0.00157 -0.006099,-0.023403 z M 1.5478125,3.3535937 c 0.017089,-0.01819 0.034047,-0.033073 0.037685,-0.033073 0.00364,0 -0.00737,0.014883 -0.024456,0.033073 -0.017089,0.01819 -0.034047,0.033073 -0.037685,0.033073 -0.00364,0 0.00737,-0.014883 0.024456,-0.033073 z M 2.5333854,3.2279166 c 0.01317,-0.014552 0.026921,-0.026458 0.030559,-0.026458 0.00364,0 -0.00416,0.011906 -0.01733,0.026458 -0.01317,0.014552 -0.026921,0.026458 -0.030559,0.026458 -0.00364,0 0.00416,-0.011906 0.01733,-0.026458 z M 1.2832292,3.1179437 c 0,-0.00228 0.019348,-0.021624 0.042995,-0.042995 l 0.042995,-0.038855 -0.038855,0.042995 c -0.036218,0.040077 -0.047134,0.049076 -0.047135,0.038855 z m 0.6106304,-0.075235 c 0,-0.01819 0.003,-0.025632 0.00667,-0.016536 0.00367,0.0091 0.00367,0.023978 0,0.033073 -0.00367,0.0091 -0.00667,0.00165 -0.00667,-0.016536 z m -0.183694,-0.066146 c 0,-0.032742 0.00258,-0.046137 0.00573,-0.029766 0.00315,0.016371 0.00315,0.04316 0,0.059531 -0.00315,0.016371 -0.00573,0.00298 -0.00573,-0.029766 z m 0.1826497,-0.020946 c 6.35e-4,-0.015411 0.00377,-0.018546 0.00799,-0.00799 0.00382,0.00955 0.00335,0.02096 -0.00104,0.025356 -0.0044,0.0044 -0.00752,-0.00342 -0.00695,-0.017363 z m 0.6657715,-0.207257 -0.025201,-0.029766 0.029766,0.025201 c 0.027972,0.023683 0.035788,0.03433 0.025201,0.03433 -0.00251,0 -0.015905,-0.013395 -0.029766,-0.029765 z M 1.9818945,2.7294005 c 0.00955,-0.00382 0.02096,-0.00335 0.025356,0.00104 0.0044,0.0044 -0.00342,0.00752 -0.017363,0.00695 -0.015411,-6.35e-4 -0.018546,-0.00377 -0.00799,-0.00799 z m 0.1322917,0 c 0.00955,-0.00382 0.02096,-0.00335 0.025356,0.00104 0.0044,0.0044 -0.00342,0.00752 -0.017363,0.00695 -0.015411,-6.35e-4 -0.018546,-0.00377 -0.00799,-0.00799 z M 2.0273698,2.5837974 c 0.012733,-0.00333 0.033569,-0.00333 0.046302,0 0.012733,0.00333 0.00232,0.00605 -0.023151,0.00605 -0.025466,0 -0.035884,-0.00272 -0.023151,-0.00605 z m 0.1256771,3.585e-4 c 0.00909,-0.00367 0.023978,-0.00367 0.033073,0 0.00909,0.00367 0.00165,0.00667 -0.016536,0.00667 -0.01819,0 -0.025632,-0.003 -0.016536,-0.00667 z M 0.92435428,2.1728906 c -0.0164554,-0.020982 -0.0159875,-0.02145 0.004995,-0.00499 0.0127331,0.00999 0.023151,0.020404 0.023151,0.023151 0,0.010888 -0.0108636,0.00388 -0.0281458,-0.018156 z M 2.0877279,1.975338 c 0.00955,-0.00382 0.02096,-0.00335 0.025356,0.00104 0.0044,0.0044 -0.00342,0.00752 -0.017363,0.00695 -0.015411,-6.35e-4 -0.018546,-0.00377 -0.00799,-0.00799 z m 0.3307291,0 c 0.00955,-0.00382 0.02096,-0.00335 0.025356,0.00104 0.0044,0.0044 -0.00342,0.00752 -0.017363,0.00695 C 2.411039,1.982693 2.407904,1.979558 2.41846,1.975338 Z M 3.1683854,1.6404167 C 3.1968048,1.6113125 3.2230337,1.5875 3.2266717,1.5875 c 0.00364,0 -0.016638,0.023813 -0.045057,0.052917 -0.028419,0.029104 -0.054648,0.052917 -0.058286,0.052917 -0.00364,0 0.016638,-0.023813 0.045057,-0.052917 z m -0.191823,-0.123202 c 0,-0.00228 0.019348,-0.021624 0.042995,-0.042995 l 0.042995,-0.038855 -0.038855,0.042995 c -0.036219,0.040077 -0.047134,0.049076 -0.047134,0.038855 z M 1.3096875,1.4089063 c 0.017089,-0.01819 0.034047,-0.033073 0.037685,-0.033073 0.00364,0 -0.00737,0.014883 -0.024456,0.033073 -0.017089,0.01819 -0.034047,0.033073 -0.037685,0.033073 -0.00364,0 0.00737,-0.014883 0.024456,-0.033073 z M 2.7152864,0.77104546 c 0.020009,-0.003031 0.052751,-0.003031 0.07276,0 0.020009,0.003031 0.00364,0.005511 -0.03638,0.005511 -0.040018,0 -0.056389,-0.00248 -0.03638,-0.005511 z m 0.6110167,-0.0599777 -0.038855,-0.0429948 0.042995,0.0388553 c 0.023647,0.0213704 0.042995,0.0407181 0.042995,0.0429948 0,0.0102203 -0.010916,0.001222 -0.047134,-0.0388553 z"
         id="path741" /><path
         style="fill:#cd669a;fill-opacity:1;stroke-width:0.0132292"
         d="m 1.9157487,4.2242962 c 0.00955,-0.00382 0.02096,-0.00335 0.025356,0.00104 0.0044,0.0044 -0.00342,0.00752 -0.017363,0.00695 -0.015411,-6.35e-4 -0.018546,-0.00377 -0.00799,-0.00799 z m 0.3836458,0 c 0.00955,-0.00382 0.02096,-0.00335 0.025356,0.00104 0.0044,0.0044 -0.00342,0.00752 -0.017363,0.00695 -0.015411,-6.35e-4 -0.018546,-0.00377 -0.00799,-0.00799 z M 1.1087696,3.7083588 c 0.00955,-0.00382 0.02096,-0.00335 0.025356,0.00104 0.0044,0.0044 -0.00342,0.00752 -0.017363,0.00695 -0.015411,-6.35e-4 -0.018546,-0.00377 -0.00799,-0.00799 z m 0.2116666,0 c 0.00955,-0.00382 0.02096,-0.00335 0.025356,0.00104 0.0044,0.0044 -0.00342,0.00752 -0.017363,0.00695 -0.015411,-6.35e-4 -0.018546,-0.00377 -0.00799,-0.00799 z m 0.359668,-0.1811662 c 0,-0.00275 0.010418,-0.013165 0.023151,-0.023151 0.020982,-0.016455 0.02145,-0.015988 0.00499,0.00499 -0.017282,0.022037 -0.028146,0.029044 -0.028146,0.018156 z M 0.9006278,3.4715538 c 6.3473e-4,-0.015411 0.00377,-0.018546 0.007993,-0.00799 0.003822,0.00955 0.003352,0.02096 -0.001044,0.025356 -0.004396,0.0044 -0.007523,-0.00342 -0.006948,-0.017363 z m 0.2883098,-0.0022 c -0.016455,-0.020982 -0.015988,-0.02145 0.00499,-0.00499 0.012733,0.00999 0.023151,0.020404 0.023151,0.023151 0,0.010888 -0.010864,0.00388 -0.028146,-0.018156 z M 0.9006278,3.3657205 c 6.3473e-4,-0.015411 0.00377,-0.018546 0.007993,-0.00799 0.003822,0.00955 0.003352,0.02096 -0.001044,0.025356 -0.004396,0.0044 -0.007523,-0.00342 -0.006948,-0.017363 z M 1.2435417,3.1700051 c 0,-0.00275 0.010418,-0.013165 0.023151,-0.023151 0.020982,-0.016455 0.02145,-0.015988 0.00499,0.00499 -0.017282,0.022037 -0.028146,0.029044 -0.028146,0.018156 z M 1.8928153,3.087908 c 6.35e-4,-0.015411 0.00377,-0.018546 0.00799,-0.00799 0.00382,0.00955 0.00335,0.02096 -0.00104,0.025356 -0.0044,0.0044 -0.00752,-0.00342 -0.00695,-0.017363 z M 1.0583334,3.062552 c 0.017089,-0.01819 0.034047,-0.033073 0.037685,-0.033073 0.00364,0 -0.00737,0.014883 -0.024456,0.033073 -0.017089,0.01819 -0.034047,0.033073 -0.037685,0.033073 -0.00364,0 0.00737,-0.014883 0.024456,-0.033073 z m 0.092604,-0.077755 c 0,-0.00275 0.010418,-0.013165 0.023151,-0.023151 0.020982,-0.016455 0.02145,-0.015988 0.00499,0.00499 -0.017282,0.022037 -0.028146,0.029044 -0.028146,0.018156 z m 0.7429221,-0.07438 c 0,-0.01819 0.003,-0.025631 0.00667,-0.016536 0.00367,0.0091 0.00367,0.023978 0,0.033073 -0.00367,0.00909 -0.00667,0.00165 -0.00667,-0.016536 z M 2.6044583,2.7946614 c -0.016455,-0.020982 -0.015988,-0.02145 0.00499,-0.00499 0.022037,0.017282 0.029044,0.028146 0.018156,0.028146 -0.00275,0 -0.013165,-0.010418 -0.023151,-0.023151 z M 2.0341386,2.729081 c 0.016456,-0.00316 0.040268,-0.00304 0.052917,2.672e-4 0.012648,0.00331 -8.162e-4,0.0059 -0.02992,0.00575 -0.029104,-1.468e-4 -0.039453,-0.00286 -0.022997,-0.00602 z M 1.7313333,2.5829948 c -0.016455,-0.020982 -0.015987,-0.02145 0.00499,-0.00499 0.012733,0.00999 0.023151,0.020404 0.023151,0.023151 0,0.010888 -0.010864,0.00388 -0.028146,-0.018156 z m 0.2301424,7.54e-4 c 0.012872,-0.00335 0.030731,-0.00313 0.039688,4.908e-4 0.00896,0.00362 -0.00157,0.00637 -0.023403,0.0061 -0.021828,-2.698e-4 -0.029156,-0.00323 -0.016285,-0.00659 z m 0.2453147,1.323e-4 c 0.00955,-0.00382 0.02096,-0.00335 0.025356,0.00104 0.0044,0.0044 -0.00342,0.00752 -0.017363,0.00695 -0.015411,-6.35e-4 -0.018546,-0.00377 -0.00799,-0.00799 z M 1.6255,2.4903906 c -0.016455,-0.020982 -0.015987,-0.02145 0.00499,-0.00499 0.012733,0.00999 0.023151,0.020404 0.023151,0.023151 0,0.010888 -0.010864,0.00388 -0.028146,-0.018156 z m -0.5423957,-0.15875 c -0.016455,-0.020982 -0.015988,-0.02145 0.00499,-0.00499 0.022037,0.017282 0.029044,0.028146 0.018156,0.028146 -0.00275,0 -0.013165,-0.010418 -0.023151,-0.023151 z M 0.00104452,2.3073872 c 6.3479e-4,-0.015411 0.00376952,-0.018546 0.00799262,-0.00799 0.00382152,0.00955 0.00335153,0.02096 -0.00104441,0.025356 -0.00439594,0.0044 -0.007522636,-0.00342 -0.00694821,-0.017363 z m 4.22010398,0 c 6.35e-4,-0.015411 0.00377,-0.018546 0.00799,-0.00799 0.00382,0.00955 0.00335,0.02096 -0.00104,0.025356 -0.0044,0.0044 -0.00752,-0.00342 -0.00695,-0.017363 z m -2.9325616,-0.088195 -0.025201,-0.029766 0.029766,0.025201 c 0.016371,0.013861 0.029766,0.027255 0.029766,0.029766 0,0.010587 -0.010647,0.00277 -0.034331,-0.025201 z m -0.066146,-0.066146 -0.025201,-0.029766 0.029766,0.025202 c 0.027972,0.023683 0.035788,0.03433 0.025201,0.03433 -0.00251,0 -0.015905,-0.013394 -0.029766,-0.029766 z M 2.199748,1.9878632 c 0.034781,-0.00273 0.088359,-0.0027 0.1190625,7.94e-5 0.030704,0.00277 0.00225,0.00501 -0.063238,0.00497 -0.065484,-3.97e-5 -0.090606,-0.00231 -0.055825,-0.00504 z M 0.00104452,1.9237414 c 6.3479e-4,-0.015411 0.00376952,-0.018546 0.00799262,-0.00799 0.00382152,0.00955 0.00335153,0.02096 -0.00104441,0.025356 -0.00439594,0.0044 -0.007522636,-0.00342 -0.00694821,-0.017363 z m 4.22010398,0 c 6.35e-4,-0.015411 0.00377,-0.018546 0.00799,-0.00799 0.00382,0.00955 0.00335,0.02096 -0.00104,0.025356 -0.0044,0.0044 -0.00752,-0.00342 -0.00695,-0.017363 z M 1.0990653,1.9105122 c 6.347e-4,-0.015411 0.00377,-0.018546 0.00799,-0.00799 0.00382,0.00955 0.00335,0.02096 -0.00104,0.025356 -0.0044,0.0044 -0.00752,-0.00342 -0.00695,-0.017363 z m 0.7123292,-0.068351 -0.032072,-0.03638 0.03638,0.032072 c 0.034003,0.029976 0.042447,0.040689 0.032072,0.040689 -0.00237,0 -0.018741,-0.016371 -0.03638,-0.036381 z m 0.2691437,-0.012475 c 0.012872,-0.00335 0.030731,-0.00313 0.039688,4.908e-4 0.00896,0.00362 -0.00157,0.00637 -0.023403,0.0061 -0.021828,-2.699e-4 -0.029156,-0.00323 -0.016285,-0.00659 z m 0.1322917,0 c 0.012872,-0.00335 0.030731,-0.00313 0.039687,4.908e-4 0.00896,0.00362 -0.00157,0.00637 -0.023403,0.0061 -0.021828,-2.699e-4 -0.029156,-0.00323 -0.016285,-0.00659 z m -1.1127202,-0.03052 c 0,-0.01819 0.003,-0.025632 0.00667,-0.016536 0.00367,0.0091 0.00367,0.023978 0,0.033073 -0.00367,0.0091 -0.00667,0.00165 -0.00667,-0.016537 z m 0.6558417,-0.107475 c 0.00897,-0.00904 0.019648,-0.013106 0.023722,-0.00903 0.00407,0.00407 -0.00327,0.01147 -0.016316,0.016438 -0.018854,0.00718 -0.020374,0.00566 -0.00741,-0.00741 z m 1.4719652,-0.109186 c 0,-0.00275 0.010418,-0.013165 0.023151,-0.023151 0.020982,-0.016455 0.02145,-0.015988 0.00499,0.00499 -0.017282,0.022037 -0.028146,0.029044 -0.028146,0.018156 z m -0.3175,-0.013229 c 0,-0.00275 0.010418,-0.013165 0.023151,-0.023151 0.020982,-0.016455 0.02145,-0.015987 0.00499,0.00499 -0.017282,0.022037 -0.028146,0.029044 -0.028146,0.018156 z M 1.2435417,1.4899011 c 0,-0.00275 0.010418,-0.013165 0.023151,-0.023151 0.020982,-0.016455 0.02145,-0.015987 0.00499,0.00499 -0.017282,0.022037 -0.028146,0.029044 -0.028146,0.018156 z M 0.93927089,1.3840677 c 0,-0.00275 0.010418,-0.013165 0.023151,-0.023151 0.0209822,-0.016455 0.0214501,-0.015988 0.004995,0.00499 -0.0172822,0.022037 -0.0281458,0.029044 -0.0281458,0.018156 z M 1.0781771,1.2303125 c 0.035833,-0.03638 0.068128,-0.066146 0.071766,-0.066146 0.00364,0 -0.022703,0.029766 -0.058537,0.066146 -0.035833,0.03638 -0.068128,0.066146 -0.071766,0.066146 -0.00364,0 0.022703,-0.029766 0.058537,-0.066146 z M 3.2186517,1.0715626 c 0,-0.040018 0.00248,-0.056389 0.00551,-0.03638 0.00303,0.020009 0.00303,0.052751 0,0.072761 -0.00303,0.020009 -0.00551,0.00364 -0.00551,-0.036381 z M 3.1538997,0.8962761 3.1286987,0.8665105 3.1584647,0.8917119 c 0.027972,0.0236831 0.035788,0.0343298 0.025201,0.0343298 -0.00251,0 -0.015905,-0.0133945 -0.029766,-0.0297656 z M 2.3787695,0.82440054 c 0.00955,-0.003822 0.02096,-0.003352 0.025356,0.001044 0.0044,0.004396 -0.00342,0.007523 -0.017363,0.006948 -0.015411,-6.3473e-4 -0.018546,-0.00377 -0.00799,-0.007993 z m 0.098644,-0.30440148 c 0.012872,-0.003354 0.030731,-0.003134 0.039687,4.9014e-4 0.00896,0.003624 -0.00157,0.006368 -0.023403,0.006098 -0.021828,-2.6961e-4 -0.029156,-0.003235 -0.016285,-0.006589 z m 0.416467,4.0626e-4 c 0.0091,-0.00367 0.023978,-0.00367 0.033073,0 0.00909,0.00367 0.00165,0.006673 -0.016536,0.006673 -0.01819,0 -0.025631,-0.003003 -0.016536,-0.006673 z M 2.6823678,0.50658111 c 0.016456,-0.003164 0.040268,-0.003044 0.052917,2.6696e-4 0.012648,0.003311 -8.162e-4,0.0059 -0.02992,0.005753 -0.029104,-1.4684e-4 -0.039453,-0.002856 -0.022997,-0.00602 z M 1.9157487,0.00419225 c 0.00955,-0.003821519 0.02096,-0.003351535 0.025356,0.00104441 0.0044,0.00439594 -0.00342,0.00752263 -0.017363,0.00694821 -0.015411,-6.3479e-4 -0.018546,-0.00376952 -0.00799,-0.00799262 z m 0.3836458,0 c 0.00955,-0.003821519 0.02096,-0.003351535 0.025356,0.00104441 0.0044,0.00439594 -0.00342,0.00752263 -0.017363,0.00694821 -0.015411,-6.3479e-4 -0.018546,-0.00376952 -0.00799,-0.00799262 z"
         id="path739" /><path
         style="fill:#cd669a;fill-opacity:1;stroke-width:0.0132292"
         d="M 1.825625,4.2133478 C 0.7809992,4.0698908 5.1664537e-4,3.1732739 5.1664537e-4,2.1166667 5.1664537e-4,0.94750279 0.94750279,5.1664537e-4 2.1166667,5.1664537e-4 c 1.1691639,0 2.1161499,0.94698614463 2.1161499,2.11615005463 0,1.1752263 -0.9547764,2.1235757 -2.1293791,2.1150451 C 2.019763,4.2311046 1.8947474,4.2228404 1.825625,4.2133478 Z M 1.4187755,3.6889693 C 1.6295178,3.6165617 1.7887171,3.4575819 1.8672175,3.2411458 1.9033722,3.1414625 1.913718,2.9290015 1.8871868,2.8310595 1.8763491,2.791051 1.870386,2.7554126 1.8739357,2.7518629 c 0.00355,-0.00355 0.07226,-0.00871 0.1526906,-0.011459 0.3137835,-0.01074 0.527717,0.1053507 0.5719311,0.3103577 0.013164,0.061036 -0.025149,0.1426977 -0.094936,0.2023496 -0.058201,0.049748 -0.065608,0.080639 -0.019338,0.080639 0.034541,0 0.1402638,-0.078017 0.1755934,-0.129577 0.024789,-0.036177 0.033042,-0.068108 0.03679,-0.1423296 C 2.700812,2.9797676 2.6963551,2.95469 2.6653382,2.8855761 2.5568124,2.6437482 2.2395562,2.5287774 1.8738514,2.5987483 l -0.099622,0.019061 -0.070214,-0.064118 C 1.6653982,2.5184266 1.5712943,2.4411933 1.4948959,2.3820619 1.3057785,2.2356871 1.2016155,2.1303673 1.1497557,2.0330888 1.1102887,1.9590568 1.1062649,1.9411458 1.1073169,1.844187 1.1083462,1.749316 1.1139408,1.7258768 1.1562598,1.6391349 1.2573792,1.4318685 1.4975163,1.2306159 1.8917708,1.0227223 2.4154031,0.74660682 2.9912607,0.70070217 3.17254,0.92062543 c 0.039122,0.047462 0.042145,0.058275 0.042107,0.15064397 -4e-5,0.086763 -0.00579,0.1109326 -0.044944,0.1886576 -0.1621955,0.3220069 -0.5929426,0.5666811 -1.0001197,0.5680908 -0.1628945,5.635e-4 -0.252558,-0.026511 -0.336686,-0.1016667 -0.055746,-0.049801 -0.077986,-0.053038 -0.083395,-0.012138 -0.00578,0.04367 0.053838,0.1285678 0.1253656,0.1785393 0.1098537,0.076747 0.195182,0.098301 0.3873192,0.097839 C 2.6972066,1.9895436 3.0829736,1.80786 3.3006476,1.5015104 3.4240222,1.3278758 3.4720835,1.1827776 3.4632534,1.0105994 3.4510035,0.77173584 3.3060903,0.6228842 3.0055177,0.54042333 2.8589701,0.50021858 2.5458825,0.50126572 2.3680208,0.54255548 1.9837531,0.6317615 1.5487386,0.84217087 1.2369271,1.0896468 c -0.1133967,0.09 -0.27046796,0.2577919 -0.33763202,0.3606768 -0.0960533,0.1471389 -0.12372085,0.2276549 -0.12462865,0.3626845 -6.9533e-4,0.103431 0.003121,0.1207139 0.0448127,0.2029244 0.0747682,0.147434 0.22641647,0.3009507 0.45364347,0.4592323 0.1915085,0.1334007 0.31684,0.2255498 0.3122327,0.2295666 -0.00246,0.00214 -0.046142,0.026598 -0.097074,0.054345 -0.2074484,0.1130107 -0.401049,0.261978 -0.4870758,0.3747837 -0.0554923,0.072766 -0.10162206,0.2030942 -0.10162206,0.287107 0,0.1254432 0.0815599,0.2582117 0.17519186,0.2851886 0.0722,0.020802 0.2608702,0.011376 0.3440002,-0.017186 z M 1.191489,3.4575987 C 1.154419,3.4105687 1.159266,3.3572063 1.21043,3.2490543 1.269937,3.1232677 1.417634,2.9884233 1.6289151,2.8669873 l 0.061258,-0.035209 0.00819,0.040973 c 0.01279,0.063952 0.00967,0.1656068 -0.00713,0.2323262 -0.047924,0.1903238 -0.235827,0.3667765 -0.4091933,0.3842585 -0.054562,0.0055 -0.063739,0.00229 -0.090556,-0.031737 z"
         id="path737" /></g></g></svg>
