<?xml version="1.0" encoding="UTF-8" standalone="no"?>
<!-- Created with Inkscape (http://www.inkscape.org/) -->

<svg
   width="192.2747"
   height="64.000008"
   viewBox="0 0 50.87268 16.933335"
   version="1.1"
   id="svg5"
   xml:space="preserve"
   xmlns:inkscape="http://www.inkscape.org/namespaces/inkscape"
   xmlns:sodipodi="http://sodipodi.sourceforge.net/DTD/sodipodi-0.dtd"
   xmlns="http://www.w3.org/2000/svg"
   xmlns:svg="http://www.w3.org/2000/svg"><sodipodi:namedview
     id="namedview7"
     pagecolor="#000000"
     bordercolor="#000000"
     borderopacity="0.25"
     inkscape:showpageshadow="2"
     inkscape:pageopacity="1"
     inkscape:pagecheckerboard="0"
     inkscape:deskcolor="#d1d1d1"
     inkscape:document-units="mm"
     showgrid="false" /><defs
     id="defs2" /><g
     inkscape:label="Layer 1"
     inkscape:groupmode="layer"
     id="layer1"
     transform="translate(-162.98737,162.18224)"><path
       style="fill:#ffffff;stroke-width:0.0726752"
       d="m 162.98737,-153.71556 v -8.46667 h 25.43635 25.43634 v 8.46667 8.46666 h -25.43634 -25.43635 z m 33.91371,4.47439 c 0.96966,-0.18389 1.68191,-0.65055 2.04582,-1.34039 l 0.19642,-0.37234 0.0221,-2.85251 0.0221,-2.8525 h 0.39583 0.39583 v -0.76453 -0.76454 l -1.53283,0.0196 -1.53283,0.0196 0.003,0.63591 c 0.002,0.34975 0.005,0.68496 0.007,0.74492 0.002,0.0803 0.0896,0.10902 0.33034,0.10902 h 0.32704 v 2.56922 c 0,2.54474 -0.002,2.57151 -0.16352,2.80948 -0.33179,0.48751 -0.83732,0.67456 -1.53971,0.56971 -0.45059,-0.0673 -0.68686,-0.23744 -0.89491,-0.64461 -0.16016,-0.31344 -0.16352,-0.37113 -0.16352,-2.80792 v -2.48792 l 0.3452,-0.0221 0.34521,-0.0221 v -0.72675 -0.72676 l -1.90772,-0.0194 -1.90773,-0.0194 v 0.7643 0.7643 h 0.46694 0.46694 l 0.026,2.70715 c 0.0251,2.61134 0.0318,2.72178 0.19068,3.12055 0.19525,0.4901 0.71491,1.06583 1.16697,1.29287 0.64274,0.32281 2.0118,0.46361 2.88946,0.29717 z m -24.08952,-0.40458 c 0.068,-0.19986 0.38446,-1.18097 0.70333,-2.18026 0.31887,-0.99928 0.79667,-2.49548 1.06177,-3.32489 l 0.482,-1.50801 h 0.39612 0.39612 v -0.76309 -0.76309 h -1.70787 -1.70787 v 0.76309 0.76309 h 0.43605 c 0.23983,0 0.43605,0.0224 0.43605,0.0498 0,0.11737 -1.42125,4.38307 -1.46041,4.38324 -0.0238,8e-5 -0.11014,-0.22056 -0.1919,-0.49037 -0.0818,-0.26981 -0.36597,-1.21004 -0.63159,-2.08941 -0.26562,-0.87937 -0.49982,-1.65448 -0.52045,-1.72247 -0.0321,-0.10582 0.0284,-0.12675 0.42047,-0.14535 l 0.45799,-0.0217 v -0.72675 -0.72676 l -2.01674,-0.0193 -2.01674,-0.0193 v 0.76093 0.76091 l 0.48455,0.0215 0.48456,0.0215 1.18798,3.59743 c 0.65339,1.97858 1.20322,3.63926 1.22185,3.69039 0.0257,0.0706 0.26616,0.0881 0.99751,0.0727 l 0.96366,-0.0203 z m 10.92577,0.23619 c 0.0221,-0.0899 0.031,-0.71948 0.0196,-1.39899 l -0.0207,-1.23548 -0.78126,-0.0206 -0.78126,-0.0206 v 0.65654 0.65653 h -1.27182 -1.27181 v -1.1628 -1.1628 h 1.01745 1.01745 v -0.7631 -0.76308 h -1.01745 -1.01745 v -1.01746 -1.01745 h 1.27181 1.27182 v 0.65653 0.65654 l 0.78126,-0.0206 0.78126,-0.0206 0.0239,-1.1572 c 0.0131,-0.63646 0.003,-1.26601 -0.0215,-1.399 l -0.0454,-0.24179 h -3.55779 -3.5578 v 0.76308 0.7631 h 0.43606 0.43605 v 2.94334 2.94335 h -0.47239 -0.47239 v 0.76309 0.76309 h 3.59604 3.59604 z m 8.02945,-1.25364 v -1.41717 h -0.7966 -0.7966 l -0.021,0.63591 -0.021,0.63591 h -1.01746 -1.01745 v -2.90701 -2.90701 l 0.60208,-0.0211 0.60208,-0.0211 -0.0207,-0.74195 -0.0207,-0.74194 h -2.25294 -2.25293 v 0.72675 0.72676 l 0.59766,0.0211 0.59766,0.0211 -0.0163,2.92227 -0.0163,2.92228 -0.5814,0.0363 -0.5814,0.0363 -0.0212,0.64833 c -0.0117,0.35657 -0.005,0.69179 0.0159,0.74492 0.0301,0.0785 0.6914,0.0966 3.52776,0.0966 h 3.4907 z m 12.28212,0.69404 v -0.72313 l -0.38894,-0.0218 -0.38894,-0.0218 0.59832,-0.89501 0.59833,-0.89501 0.6155,0.89501 0.6155,0.89501 -0.38884,0.0218 -0.38883,0.0218 v 0.72313 0.72313 h 2.07124 2.07125 v -0.76309 -0.7631 h -0.50524 -0.50523 l -0.23408,-0.3452 c -0.12874,-0.18987 -0.58817,-0.84144 -1.02095,-1.44795 -0.43277,-0.60651 -0.78686,-1.13618 -0.78686,-1.17705 0,-0.0409 0.4248,-0.7138 0.944,-1.4954 l 0.94401,-1.42109 h 0.58218 0.58217 v -0.76309 -0.76309 h -1.81688 -1.81688 v 0.72675 0.72675 h 0.32703 c 0.17988,0 0.32704,0.017 0.32704,0.0376 0,0.11912 -1.04464,1.56302 -1.09452,1.51284 -0.0332,-0.0334 -0.30543,-0.38768 -0.60507,-0.7874 l -0.54479,-0.72675 0.35155,-0.0217 c 0.29132,-0.018 0.3589,-0.0491 0.39445,-0.18169 0.0558,-0.20813 0.0552,-0.91339 -8.3e-4,-1.12293 l -0.0438,-0.16352 h -1.91742 -1.91742 v 0.7631 0.76308 h 0.38646 0.38646 l 0.60747,0.85394 c 0.33411,0.46966 0.7282,1.01745 0.87575,1.21731 0.14755,0.19986 0.32504,0.45274 0.39443,0.56196 l 0.12615,0.19859 -0.61099,0.92788 c -0.33604,0.51033 -0.78637,1.19769 -1.00074,1.52745 l -0.38976,0.59957 h -0.45495 -0.45495 l -0.0235,0.59957 c -0.0129,0.32977 -0.0131,0.67315 -2.7e-4,0.76309 l 0.0232,0.16352 h 1.73915 1.73915 v -0.72313 z m 6.85905,-2.62414 c 0.51844,-0.35524 0.70549,-1.16279 0.41048,-1.77219 -0.26412,-0.5456 -1.01373,-0.87352 -1.58119,-0.6917 -0.8533,0.2734 -1.25802,1.13901 -0.90052,1.92604 0.2714,0.59748 0.79918,0.86142 1.51272,0.7565 0.16765,-0.0247 0.41899,-0.12305 0.55851,-0.21865 z m -1.32931,-0.12647 c -0.68568,-0.34208 -0.8198,-1.25075 -0.26629,-1.80425 0.77134,-0.77135 2.09683,-0.0293 1.85589,1.03903 -0.16508,0.73196 -0.92398,1.09729 -1.5896,0.76522 z m 0.32061,-0.37805 c 0.0254,-0.0799 0.0263,-0.20801 0.002,-0.28459 -0.084,-0.26466 0.10224,-0.22831 0.2909,0.0568 0.17942,0.27113 0.47025,0.44682 0.47025,0.2841 0,-0.0415 -0.0695,-0.18787 -0.15438,-0.32524 l -0.15437,-0.24979 0.15437,-0.10812 c 0.19459,-0.13629 0.19878,-0.41886 0.009,-0.60861 -0.10659,-0.10659 -0.24225,-0.14535 -0.50873,-0.14535 -0.19985,0 -0.36825,0.0245 -0.37421,0.0545 -0.0355,0.1786 -0.0465,1.10415 -0.0151,1.27182 0.0436,0.23258 0.21327,0.26558 0.28026,0.0545 z m -0.0363,-0.89955 c 0,-0.22378 0.0976,-0.29099 0.33588,-0.23119 0.13663,0.0343 0.17655,0.0861 0.15939,0.2067 -0.0174,0.1225 -0.0793,0.16639 -0.25908,0.18372 -0.20966,0.0202 -0.23619,0.002 -0.23619,-0.15923 z"
       id="path478" /></g></svg>
