<svg width="16" height="16" version="1.1" viewBox="0 0 4.2333 4.2333" xmlns="http://www.w3.org/2000/svg">
  <g transform="matrix(1.3838 0 0 1.3838 -.81269 -.81222)" stroke-width=".0020671">
    <path
      d="m0.99545 1.3392c0.11273-0.01098 0.21274-0.07077 0.27612-0.16508 0.048627-0.072361 0.070997-0.16313 0.061573-0.24983-0.019287-0.17745-0.15678-0.31579-0.33312-0.33516-0.068928-0.00757-0.13652 0.00453-0.2011 0.036017-0.061728 0.030091-0.11029 0.072382-0.14817 0.12902-0.08854 0.13241-0.083851 0.30856 0.011602 0.43586 0.020244 0.026997 0.034865 0.042672 0.057604 0.061751 0.078313 0.065712 0.17697 0.097017 0.27549 0.087422z" />
    <path
      d="m2.2903 3.0896c2.07e-5 -0.36453 7.566e-4 -0.56511 0.00215-0.58136 0.012344-0.1437 0.059279-0.24806 0.14149-0.31459 0.025813-0.020892 0.066054-0.042409 0.10129-0.054156 0.057971-0.019331 0.14091-0.025707 0.20361-0.015655 0.14775 0.023689 0.23682 0.12628 0.26646 0.30689 0.00948 0.057747 0.00916 0.037472 0.00991 0.64027l7.125e-4 0.57516h0.63046l-6.755e-4 -0.68781c-7.365e-4 -0.74949 2.06e-5 -0.70003-0.01194-0.7829-0.019881-0.13778-0.065249-0.25883-0.13264-0.35391-0.031557-0.044521-0.074522-0.090585-0.11536-0.12369-0.12977-0.10518-0.30493-0.1586-0.50222-0.15316-0.065981 0.00182-0.11018 0.00768-0.1664 0.02205-0.086901 0.02222-0.1607 0.056058-0.23304 0.10685-0.067102 0.047116-0.13676 0.11759-0.17915 0.18124l-0.013623 0.020456-5.317e-4 -0.13466-5.318e-4 -0.13466h-0.60768v2.0402h0.60771z" />
    <path d="m1.2816 2.6261v-1.0201h-0.63459v2.0402h0.63459z" />
  </g>
</svg>