<?xml version="1.0" encoding="UTF-8" standalone="no"?>
<!-- Created with Inkscape (http://www.inkscape.org/) -->

<svg
   width="16"
   height="16"
   viewBox="0 0 4.2333332 4.2333333"
   version="1.1"
   id="svg5"
   xml:space="preserve"
   xmlns="http://www.w3.org/2000/svg"
   xmlns:svg="http://www.w3.org/2000/svg"><defs
     id="defs2" /><g
     id="g815"
     transform="translate(7.6595131,0.16138922)"><path
       style="fill:#b9b9b9;fill-opacity:1;stroke-width:0.00206706"
       d="m -6.9911577,4.0704805 c 0.00149,-5.972e-4 0.00327,-5.238e-4 0.00396,1.633e-4 6.869e-4,6.868e-4 -5.34e-4,0.00118 -0.00271,0.00109 -0.00241,-9.92e-5 -0.0029,-5.891e-4 -0.00125,-0.00125 z m 2.8938802,0 c 0.00149,-5.972e-4 0.00328,-5.238e-4 0.00396,1.633e-4 6.868e-4,6.868e-4 -5.342e-4,0.00118 -0.00271,0.00109 -0.00241,-9.92e-5 -0.0029,-5.891e-4 -0.00125,-0.00125 z m -3.3733136,-0.204777 c -0.00257,-0.00328 -0.0025,-0.00335 7.804e-4,-7.805e-4 0.00344,0.0027 0.00454,0.0044 0.00284,0.0044 -4.293e-4,0 -0.00206,-0.00163 -0.00362,-0.00362 z m 3.8511914,0.00284 c 0,-4.291e-4 0.00163,-0.00206 0.00362,-0.00362 0.00328,-0.00257 0.00335,-0.0025 7.805e-4,7.805e-4 -0.0027,0.00344 -0.0044,0.00454 -0.0044,0.00284 z m -3.8904655,-0.042114 c -0.00257,-0.00328 -0.0025,-0.00335 7.805e-4,-7.805e-4 0.00344,0.0027 0.00454,0.0044 0.00284,0.0044 -4.293e-4,0 -0.00206,-0.00163 -0.00362,-0.00362 z m 3.9328402,-5.167e-4 c 0.00206,-0.00227 0.00421,-0.00413 0.00477,-0.00413 5.685e-4,0 -6.501e-4,0.00186 -0.00271,0.00413 -0.00206,0.00227 -0.00421,0.00413 -0.00477,0.00413 -5.685e-4,0 6.501e-4,-0.00186 0.00271,-0.00413 z m -4.137052,-0.478696 c 9.92e-5,-0.00241 5.89e-4,-0.0029 0.00125,-0.00125 5.971e-4,0.00149 5.237e-4,0.00328 -1.632e-4,0.00396 -6.868e-4,6.868e-4 -0.00118,-5.342e-4 -0.00109,-0.00271 z m 4.3408203,0 c 9.92e-5,-0.00241 5.891e-4,-0.0029 0.00125,-0.00125 5.971e-4,0.00149 5.238e-4,0.00328 -1.633e-4,0.00396 -6.869e-4,6.868e-4 -0.00118,-5.342e-4 -0.00109,-0.00271 z M -7.714077,0.56289069 c 9.92e-5,-0.002408 5.89e-4,-0.002898 0.00125,-0.001249 5.971e-4,0.001492 5.237e-4,0.003275 -1.632e-4,0.003962 -6.868e-4,6.8686e-4 -0.00118,-5.3401e-4 -0.00109,-0.002713 z m 4.3408203,0 c 9.92e-5,-0.002408 5.891e-4,-0.002898 0.00125,-0.001249 5.971e-4,0.001492 5.238e-4,0.003275 -1.633e-4,0.003962 -6.869e-4,6.8686e-4 -0.00118,-5.3401e-4 -0.00109,-0.002713 z M -3.5762552,0.08505597 c -0.00257,-0.003278 -0.0025,-0.003352 7.805e-4,-7.8044e-4 0.00344,0.0027 0.00454,0.004398 0.00284,0.004398 -4.291e-4,0 -0.00206,-0.001628 -0.00362,-0.0036176 z m -0.043408,-0.0434082 c -0.00257,-0.003278 -0.0025,-0.003352 7.805e-4,-7.8043e-4 0.00199,0.00156 0.00362,0.003188 0.00362,0.003617 0,0.001701 -0.0017,6.0627e-4 -0.0044,-0.0028366 z m -3.3714945,-0.20243335 c 0.00149,-5.9711e-4 0.00327,-5.2368e-4 0.00396,1.6319e-4 6.869e-4,6.8687e-4 -5.34e-4,0.001175 -0.00271,0.001086 -0.00241,-9.919e-5 -0.0029,-5.8899e-4 -0.00125,-0.001249 z m 2.8938802,0 c 0.00149,-5.9711e-4 0.00328,-5.2368e-4 0.00396,1.6319e-4 6.868e-4,6.8687e-4 -5.342e-4,0.001175 -0.00271,0.001086 -0.00241,-9.919e-5 -0.0029,-5.8899e-4 -0.00125,-0.001249 z"
       id="path318" /><path
       style="fill:#ff9a00;fill-opacity:1;stroke-width:0.00206706"
       d="m -4.8319355,2.8225631 -0.00703,-0.00703 V 2.1052002 1.3948655 l 0.00507,-0.00507 0.00507,-0.00507 h 0.1893656 c 0.1316954,0 0.1906365,6.802e-4 0.1935388,0.00223 0.010615,0.00568 0.010025,-0.036659 0.010013,0.7185864 0,0.4769418 -6.97e-4,0.7048171 -0.00215,0.7100395 -0.00416,0.014992 0.00973,0.014014 -0.1990124,0.014014 h -0.187849 z m -1.9804158,-0.00332 c -0.00666,-0.00268 -0.00952,-0.00965 -0.0084,-0.020441 5.446e-4,-0.00524 0.1314619,-0.3848445 0.2909269,-0.8435762 0.159465,-0.4587316 0.2948657,-0.8503356 0.3008903,-0.8702311 0.012946,-0.042753 0.016719,-0.065633 0.019771,-0.11988927 0.00218,-0.038704 0.00247,-0.040493 0.00732,-0.044958 l 0.00505,-0.00465 h 0.2386963 c 0.1977491,0 0.2398621,4.871e-4 0.2454924,0.00284 0.00556,0.00232 0.00759,0.00504 0.011193,0.014986 0.00242,0.00668 0.1519454,0.42840007 0.3322829,0.93715457 0.2298592,0.6484612 0.3279407,0.9276686 0.3280676,0.933907 3.512e-4,0.017273 0.018312,0.015836 -0.2057061,0.016456 -0.1461151,4.043e-4 -0.2004033,-7.85e-5 -0.2046188,-0.00182 -0.00316,-0.00131 -0.00745,-0.00481 -0.00954,-0.00778 -0.0029,-0.00413 -0.1049241,-0.2964133 -0.1474496,-0.4224401 l -0.0061,-0.018087 -0.3372624,2.07e-5 -0.3372625,2.07e-5 -0.070239,0.2173564 c -0.038631,0.119546 -0.07186,0.2194171 -0.073841,0.2219356 -0.00922,0.011725 -0.00204,0.011316 -0.1962631,0.011174 -0.098168,-7.24e-5 -0.1805201,-9.499e-4 -0.1830038,-0.00195 z M -5.723664,2.0028183 c 0,-0.00337 -0.017636,-0.059343 -0.041374,-0.1313082 C -5.777413,1.8339931 -5.796839,1.7730661 -5.808206,1.7361179 -5.819574,1.6991689 -5.842902,1.6247552 -5.860047,1.5707533 -5.877192,1.5167513 -5.90472,1.4251291 -5.921221,1.3671482 -5.956271,1.2439851 -5.954962,1.2482924 -5.957363,1.2482924 c -0.00103,0 -0.00235,0.00209 -0.00293,0.00465 -5.857e-4,0.00256 -0.00526,0.023018 -0.010389,0.045468 -0.017977,0.0787 -0.023469,0.097803 -0.08484,0.2950801 -0.022458,0.072192 -0.048461,0.1573031 -0.057784,0.1891357 -0.021415,0.073121 -0.041264,0.1362212 -0.058031,0.1844849 l -0.013106,0.037724 h 0.23039 c 0.1484019,0 0.23039,-7.177e-4 0.23039,-0.00202 z m 1.0562663,-0.7733075 c -0.03439,-0.00376 -0.067675,-0.015931 -0.098476,-0.036008 -0.042587,-0.02776 -0.072187,-0.071045 -0.086923,-0.1271111 -0.00694,-0.02641 -0.00893,-0.078623 -0.00405,-0.10645337 0.00977,-0.055708 0.037764,-0.102126 0.081766,-0.13557224 0.018924,-0.0143842 0.055029,-0.0316768 0.079775,-0.0382087 0.02512,-0.00663 0.071936,-0.009042 0.1008441,-0.005195 0.083678,0.0111354 0.1451254,0.0618221 0.1718281,0.14173724 0.00952,0.028479 0.012118,0.049546 0.010981,0.088915 -0.0012,0.041538 -0.00609,0.063877 -0.020776,0.094878 -0.022604,0.047719 -0.054851,0.080934 -0.099579,0.1025702 -0.040921,0.019794 -0.083106,0.026166 -0.1353922,0.020448 z"
       id="path316" /><path
       style="fill:#767676;fill-opacity:1;stroke-width:0.00206706"
       d="m -7.4798256,3.8564018 -0.00394,-0.00465 0.00465,0.00394 c 0.00437,0.0037 0.00559,0.00536 0.00394,0.00536 -3.922e-4,0 -0.00249,-0.00209 -0.00465,-0.00465 z m -0.021771,-0.021704 c -0.00257,-0.00328 -0.0025,-0.00335 7.805e-4,-7.806e-4 0.00344,0.0027 0.00454,0.0044 0.00284,0.0044 -4.292e-4,0 -0.00206,-0.00163 -0.00362,-0.00362 z m 2.661588,-1.7296102 c 0,-0.3865397 2.379e-4,-0.5449776 5.288e-4,-0.3520843 2.908e-4,0.1928934 2.908e-4,0.5091531 0,0.7027994 -2.909e-4,0.1936464 -5.288e-4,0.035825 -5.288e-4,-0.3507151 z M -4.65745,1.2303439 c 0.00149,-5.971e-4 0.00328,-5.237e-4 0.00396,1.631e-4 6.869e-4,6.868e-4 -5.341e-4,0.00118 -0.00271,0.00109 -0.00241,-9.92e-5 -0.0029,-5.89e-4 -0.00125,-0.00125 z M -6.2113263,0.98870443 c 9.92e-5,-0.00241 5.89e-4,-0.0029 0.00125,-0.00125 5.971e-4,0.00149 5.237e-4,0.00327 -1.631e-4,0.00396 -6.868e-4,6.868e-4 -0.00118,-5.34e-4 -0.00109,-0.00271 z m 0.00252,-0.042202 c 0,-0.00625 3.875e-4,-0.00881 8.611e-4,-0.00568 4.736e-4,0.00313 4.736e-4,0.00824 0,0.011369 -4.736e-4,0.00313 -8.611e-4,5.685e-4 -8.611e-4,-0.00568 z m 1.5698676,-0.16893007 c 0.00372,-4.6005e-4 0.0093,-4.5056e-4 0.012402,2.108e-5 0.00311,4.7166e-4 6.61e-5,8.4805e-4 -0.00675,8.3646e-4 -0.00682,-1.241e-5 -0.00936,-3.975e-4 -0.00565,-8.5754e-4 z M -7.5034003,0.07755759 c 0,-4.2922e-4 0.00163,-0.002057 0.00362,-0.003617 0.00328,-0.002571 0.00335,-0.002498 7.804e-4,7.8044e-4 -0.0027,0.003443 -0.0044,0.004538 -0.0044,0.0028366 z m 0.022738,-0.0227376 c 0,-4.2923e-4 0.00163,-0.002057 0.00362,-0.003617 0.00328,-0.002571 0.00335,-0.002498 7.804e-4,7.8043e-4 -0.0027,0.003443 -0.0044,0.004538 -0.0044,0.0028366 z"
       id="path314" /><path
       style="fill:#606060;fill-opacity:1;stroke-width:0.00206706"
       d="m -6.9766883,4.0704805 c 0.00149,-5.972e-4 0.00328,-5.238e-4 0.00396,1.633e-4 6.869e-4,6.868e-4 -5.34e-4,0.00118 -0.00271,0.00109 -0.00241,-9.92e-5 -0.0029,-5.891e-4 -0.00125,-0.00125 z m 2.8649414,0 c 0.00149,-5.972e-4 0.00328,-5.238e-4 0.00396,1.633e-4 6.868e-4,6.868e-4 -5.342e-4,0.00118 -0.00271,0.00109 -0.00241,-9.92e-5 -0.0029,-5.891e-4 -0.00125,-0.00125 z m 0.5140513,-0.2238973 c 0.0056,-0.00568 0.010645,-0.010335 0.011213,-0.010335 5.685e-4,0 -0.00355,0.00465 -0.00915,0.010335 -0.0056,0.00568 -0.010645,0.010335 -0.011213,0.010335 -5.684e-4,0 0.00355,-0.00465 0.00915,-0.010335 z m -3.8934137,-0.00155 -0.00712,-0.00775 0.00775,0.00712 c 0.00721,0.00663 0.0087,0.00838 0.00712,0.00838 -3.454e-4,0 -0.00383,-0.00349 -0.00775,-0.00775 z M -7.714077,3.3327473 c 9.92e-5,-0.00241 5.89e-4,-0.0029 0.00125,-0.00125 5.971e-4,0.00149 5.237e-4,0.00328 -1.632e-4,0.00396 -6.868e-4,6.868e-4 -0.00118,-5.342e-4 -0.00109,-0.00271 z m 4.3408203,0 c 9.92e-5,-0.00241 5.891e-4,-0.0029 0.00125,-0.00125 5.971e-4,0.00149 5.238e-4,0.00328 -1.633e-4,0.00396 -6.869e-4,6.868e-4 -0.00118,-5.342e-4 -0.00109,-0.00271 z m -1.3523797,-0.502639 c 0.050392,-3.082e-4 0.1322478,-3.082e-4 0.181901,2e-7 0.049653,3.084e-4 0.00842,5.606e-4 -0.091623,5.606e-4 -0.1000456,-2e-7 -0.1406707,-2.526e-4 -0.090278,-5.608e-4 z m -0.00429,-1.4469399 c 0.050307,-3.082e-4 0.1326276,-3.082e-4 0.1829346,0 0.050307,3.082e-4 0.00915,5.603e-4 -0.091467,5.603e-4 -0.100614,0 -0.1417743,-2.521e-4 -0.091468,-5.603e-4 z m 0.252698,-0.2123907 c 0.00386,-0.00398 0.00748,-0.00723 0.00805,-0.00723 5.684e-4,0 -0.00212,0.00326 -0.00598,0.00723 -0.00386,0.00398 -0.00748,0.00723 -0.00805,0.00723 -5.684e-4,0 0.00212,-0.00326 0.00598,-0.00723 z m 0.066841,-0.1684651 c 0,-0.00853 3.649e-4,-0.012015 8.11e-4,-0.00775 4.458e-4,0.00426 4.458e-4,0.01124 0,0.015503 -4.461e-4,0.00426 -8.11e-4,7.752e-4 -8.11e-4,-0.00775 z m -0.4508338,0.0062 c 0,-0.00398 4.254e-4,-0.00561 9.452e-4,-0.00362 5.201e-4,0.00199 5.201e-4,0.00525 0,0.00723 -5.198e-4,0.00199 -9.452e-4,3.617e-4 -9.452e-4,-0.00362 z m -1.53e-4,-0.014469 c 0,-0.00284 4.692e-4,-0.004 0.00104,-0.00258 5.734e-4,0.00142 5.734e-4,0.00375 0,0.00517 -5.734e-4,0.00142 -0.00104,2.583e-4 -0.00104,-0.00258 z m 0.055484,-0.1432737 c 0,-3.558e-4 0.00302,-0.00338 0.00672,-0.00672 l 0.00672,-0.006071 -0.00607,0.006718 c -0.00566,0.00626 -0.00736,0.00767 -0.00736,0.00607 z m 0.1567087,-0.0731122 c 0.00149,-5.9711e-4 0.00328,-5.2369e-4 0.00396,1.6309e-4 6.868e-4,6.8686e-4 -5.342e-4,0.001175 -0.00271,0.001086 -0.00241,-9.922e-5 -0.0029,-5.8899e-4 -0.00125,-0.001249 z m 0.028939,0 c 0.00149,-5.9711e-4 0.00328,-5.2369e-4 0.00396,1.6309e-4 6.869e-4,6.8686e-4 -5.342e-4,0.001175 -0.00271,0.001086 -0.00241,-9.922e-5 -0.0029,-5.8899e-4 -0.00125,-0.001249 z m -3.093834,-0.2002983 c 9.92e-5,-0.002408 5.89e-4,-0.002898 0.00125,-0.001249 5.971e-4,0.001492 5.237e-4,0.003275 -1.632e-4,0.003962 -6.868e-4,6.8686e-4 -0.00118,-5.3401e-4 -0.00109,-0.002713 z m 4.3408203,0 c 9.92e-5,-0.002408 5.891e-4,-0.002898 0.00125,-0.001249 5.971e-4,0.001492 5.238e-4,0.003275 -1.633e-4,0.003962 -6.869e-4,6.8686e-4 -0.00118,-5.3401e-4 -0.00109,-0.002713 z m -0.2245166,-0.51400822 -0.010257,-0.0108521 0.010852,0.0102576 c 0.00597,0.005642 0.010852,0.0105251 0.010852,0.0108521 0,0.001542 -0.00192,-1.7363e-4 -0.011447,-0.0102576 z m -3.8921917,5.1742e-4 c 0.00444,-0.004548 0.00854,-0.008268 0.00911,-0.008268 5.685e-4,0 -0.0026,0.003721 -0.00704,0.008268 -0.00444,0.004548 -0.00854,0.008268 -0.00911,0.008268 -5.684e-4,0 0.0026,-0.003721 0.00704,-0.008268 z m 0.5132762,-0.22465421 c 0.00149,-5.9711e-4 0.00328,-5.2368e-4 0.00396,1.6319e-4 6.869e-4,6.8687e-4 -5.34e-4,0.001175 -0.00271,0.001086 -0.00241,-9.919e-5 -0.0029,-5.8899e-4 -0.00125,-0.001249 z m 2.8649414,0 c 0.00149,-5.9711e-4 0.00328,-5.2368e-4 0.00396,1.6319e-4 6.868e-4,6.8687e-4 -5.342e-4,0.001175 -0.00271,0.001086 -0.00241,-9.919e-5 -0.0029,-5.8899e-4 -0.00125,-0.001249 z"
       id="path312" /><path
       style="fill:#494949;fill-opacity:1;stroke-width:0.00206706"
       d="m -6.9704871,4.0704805 c 0.00149,-5.972e-4 0.00327,-5.238e-4 0.00396,1.633e-4 6.868e-4,6.868e-4 -5.34e-4,0.00118 -0.00271,0.00109 -0.00241,-9.92e-5 -0.0029,-5.891e-4 -0.00125,-0.00125 z m 2.8525391,0 c 0.00149,-5.972e-4 0.00328,-5.238e-4 0.00396,1.633e-4 6.869e-4,6.868e-4 -5.341e-4,0.00118 -0.00271,0.00109 -0.00241,-9.92e-5 -0.0029,-5.891e-4 -0.00125,-0.00125 z m 0.7446913,-0.7439343 c 9.92e-5,-0.00241 5.891e-4,-0.0029 0.00125,-0.00125 5.971e-4,0.00149 5.238e-4,0.00327 -1.633e-4,0.00396 -6.869e-4,6.869e-4 -0.00118,-5.341e-4 -0.00109,-0.00271 z M -6.8231753,2.7994466 c 9.92e-5,-0.00241 5.89e-4,-0.0029 0.00125,-0.00125 5.971e-4,0.00149 5.237e-4,0.00328 -1.631e-4,0.00396 -6.868e-4,6.869e-4 -0.00117,-5.341e-4 -0.00109,-0.00271 z m 0.5349007,-0.4271981 c 8.562e-4,-8.562e-4 0.152661,-0.00132 0.3373439,-0.00103 l 0.3357872,5.231e-4 -0.3373438,0.00103 c -0.1855392,5.684e-4 -0.3366434,3.33e-4 -0.3357873,-5.231e-4 z m 0.1873727,-0.368937 c 0.2177762,-0.00142 0.376753,-0.00143 0.3758854,-2.69e-5 -5.272e-4,8.526e-4 -0.1039206,0.00133 -0.2297631,0.00106 -0.1258426,-2.71e-4 -0.1915976,-7.35e-4 -0.1461223,-0.00103 z m 1.3020497,-0.8340841 -0.00394,-0.00465 0.00465,0.00394 c 0.00437,0.0037 0.00559,0.00536 0.00394,0.00536 -3.924e-4,0 -0.00249,-0.00209 -0.00465,-0.00465 z m 0.388096,-0.1483113 c 0,-0.00284 4.692e-4,-0.004 0.00104,-0.00258 5.734e-4,0.00142 5.734e-4,0.00375 0,0.00517 -5.734e-4,0.00142 -0.00104,2.584e-4 -0.00104,-0.00258 z m -0.4506185,-0.00207 c 0,-0.00284 4.692e-4,-0.004 0.00104,-0.00258 5.734e-4,0.00142 5.734e-4,0.00375 0,0.00517 -5.734e-4,0.00142 -0.00104,2.584e-4 -0.00104,-0.00258 z m 0,-0.033073 c 0,-0.00284 4.692e-4,-0.004 0.00104,-0.00258 5.734e-4,0.00142 5.734e-4,0.00375 0,0.00517 -5.734e-4,0.00142 -0.00104,2.584e-4 -0.00104,-0.00258 z m 0.4506185,-0.00207 c 0,-0.00284 4.692e-4,-0.004 0.00104,-0.00258 5.734e-4,0.00142 5.734e-4,0.00375 0,0.00517 -5.734e-4,0.00142 -0.00104,2.583e-4 -0.00104,-0.00258 z m -1.8005701,-0.00534 c 9.92e-5,-0.00241 5.89e-4,-0.0029 0.00125,-0.00125 5.971e-4,0.00149 5.237e-4,0.00328 -1.631e-4,0.00396 -6.868e-4,6.868e-4 -0.00118,-5.34e-4 -0.00109,-0.00271 z m 1.4178381,-0.14012849 c 0,-4.2923e-4 0.00163,-0.002057 0.00362,-0.003617 0.00328,-0.002571 0.00335,-0.002498 7.806e-4,7.8043e-4 -0.0027,0.003443 -0.0044,0.004538 -0.0044,0.002837 z m 0.1381053,-0.0605763 c 0.00149,-5.9711e-4 0.00327,-5.2369e-4 0.00396,1.6309e-4 6.869e-4,6.8686e-4 -5.341e-4,0.001175 -0.00271,0.001086 -0.00241,-9.922e-5 -0.0029,-5.8899e-4 -0.00125,-0.001249 z m 0.041341,0 c 0.00149,-5.9711e-4 0.00328,-5.2369e-4 0.00396,1.6309e-4 6.869e-4,6.8686e-4 -5.341e-4,0.001175 -0.00271,0.001086 -0.00241,-9.922e-5 -0.0029,-5.8899e-4 -0.00125,-0.001249 z m 1.2407852,-0.19409708 c 9.92e-5,-0.002408 5.891e-4,-0.002898 0.00125,-0.001249 5.971e-4,0.001492 5.238e-4,0.003275 -1.633e-4,0.003962 -6.869e-4,6.8686e-4 -0.00118,-5.3401e-4 -0.00109,-0.002713 z"
       id="path310" /><path
       style="fill:#330000;fill-opacity:1;stroke-width:0.00206706"
       d="m -6.9912952,4.0697063 c -0.161185,-0.00977 -0.3125274,-0.0687 -0.439666,-0.1711932 -0.025775,-0.020779 -0.072495,-0.06622 -0.095699,-0.09308 -0.093125,-0.1077966 -0.1548461,-0.2404397 -0.1770663,-0.3805295 -0.00996,-0.062811 -0.00948,0.012141 -0.00948,-1.4717447 0,-1.33493247 1.645e-4,-1.39765978 0.00374,-1.42730299 0.012025,-0.0995974 0.035763,-0.17956803 0.078641,-0.26493346 0.038285,-0.0762194 0.079471,-0.13277905 0.1428184,-0.19612637 0.062932,-0.06293162 0.121413,-0.10543325 0.1975668,-0.1435828 0.097962,-0.04907418 0.1926393,-0.07398234 0.30658,-0.08065614 0.026076,-0.001527 0.4740458,-0.001978 1.467932,-0.001476 1.3280274,6.7057e-4 1.4323983,9.7231e-4 1.4582731,0.004216 0.099927,0.0125269 0.1793987,0.0362179 0.2639358,0.07868041 0.050063,0.02514641 0.091476,0.05183019 0.1380197,0.08893053 0.026777,0.0213442 0.09065,0.0852175 0.1119946,0.1119945 0.097313,0.1220816 0.1533227,0.25975232 0.1685637,0.414322 0.00226,0.0229231 0.00275,0.27609089 0.00275,1.41800112 0,1.4950491 6.075e-4,1.4094556 -0.010474,1.4755602 -0.043804,0.2613002 -0.2201232,0.4820831 -0.4655683,0.5829751 -0.064829,0.026648 -0.1314212,0.043642 -0.2092228,0.053392 -0.0259,0.00325 -0.1295999,0.00352 -1.4675749,0.00382 -0.791838,1.82e-4 -1.4515689,-3.896e-4 -1.4660687,-0.00127 z m 2.5493767,-1.2458323 0.00603,-0.00675 V 2.108053 c 0,-0.6274612 -3.582e-4,-0.7097635 -0.00311,-0.7150899 -0.00208,-0.00402 -0.00568,-0.00676 -0.010852,-0.00827 -0.00539,-0.00156 -0.064104,-0.00206 -0.1932114,-0.00163 l -0.1854719,6.164e-4 -0.00573,0.00573 -0.00573,0.00573 -5.184e-4,0.7074034 c -4.913e-4,0.6703094 -3.287e-4,0.7077827 0.0031,0.7146381 0.00768,0.015363 -0.004,0.014562 0.2037767,0.013967 l 0.1856885,-5.315e-4 z m -1.9983838,-0.0064 c 0.00319,-0.0021 0.00728,-0.00594 0.0091,-0.00853 0.00181,-0.00259 0.034622,-0.1015554 0.072906,-0.2199223 l 0.069607,-0.2152125 0.3367869,-5.23e-4 0.3367867,-5.229e-4 0.074402,0.2165304 c 0.069277,0.2016152 0.074919,0.2170644 0.08191,0.2242819 l 0.00751,0.00775 h 0.2017814 0.2017811 l 0.00437,-0.00437 c 0.00355,-0.00355 0.0042,-0.00617 0.00343,-0.013953 C -5.0404596,2.797566 -5.1842646,2.3887858 -5.371978,1.8591078 -5.639808,1.1033619 -5.7040901,0.92390903 -5.7083244,0.92014703 l -0.00523,-0.00465 h -0.2428675 -0.2428627 l -0.00507,0.00547 c -0.00465,0.00501 -0.00507,0.00712 -0.00508,0.025322 -1.86e-5,0.051565 -0.0067,0.093624 -0.023374,0.14713797 -0.00723,0.023217 -0.1426026,0.4146078 -0.3008187,0.8697573 -0.1582161,0.4551497 -0.2882234,0.8310329 -0.2889051,0.8352962 -0.0013,0.00812 0.00288,0.019429 0.00793,0.021461 0.00145,5.815e-4 0.084948,0.00112 0.1855618,0.00121 0.1746451,1.427e-4 0.1831973,-2.48e-5 0.1887328,-0.00367 z M -6.16464,1.950575 c 0.020005,-0.059633 0.037047,-0.11427 0.052387,-0.1679484 0.00585,-0.020464 0.017935,-0.060461 0.02686,-0.088883 0.077128,-0.2456149 0.098108,-0.3171941 0.1161722,-0.3963582 0.0059,-0.025864 0.011365,-0.047026 0.012141,-0.047026 7.757e-4,0 0.011853,0.036974 0.024615,0.082165 0.029623,0.1048926 0.041959,0.1458815 0.081337,0.2702678 0.017636,0.055707 0.041406,0.1315165 0.052823,0.1684651 0.011417,0.036949 0.027787,0.088108 0.036378,0.1136882 0.017169,0.051118 0.036197,0.1118284 0.036197,0.1154877 0,0.00172 -0.06002,0.00233 -0.228209,0.00233 H -6.182149 Z m 1.5773399,-0.7219445 c 0.069026,-0.013094 0.1233159,-0.054691 0.1537445,-0.1177974 0.051239,-0.1062669 0.020007,-0.23837707 -0.07063,-0.29876602 -0.065125,-0.0433907 -0.1641836,-0.0467117 -0.239693,-0.008036 -0.082564,0.0422889 -0.1267656,0.12876444 -0.1160027,0.22694352 0.00599,0.054663 0.028535,0.1047143 0.062425,0.1386041 0.030157,0.030157 0.080671,0.054714 0.1248917,0.060716 0.016837,0.00229 0.069906,0.00125 0.085265,-0.00166 z"
       id="path308" /></g></svg>
