<?xml version="1.0" encoding="UTF-8" standalone="no"?>
<!-- Created with Inkscape (http://www.inkscape.org/) -->

<svg
   width="16"
   height="16"
   viewBox="0 0 4.2333332 4.2333333"
   version="1.1"
   id="svg5"
   xml:space="preserve"
   sodipodi:docname="inkscape_logo.svg"
   inkscape:version="1.2.1 (9c6d41e4, 2022-07-14)"
   xmlns:inkscape="http://www.inkscape.org/namespaces/inkscape"
   xmlns:sodipodi="http://sodipodi.sourceforge.net/DTD/sodipodi-0.dtd"
   xmlns="http://www.w3.org/2000/svg"
   xmlns:svg="http://www.w3.org/2000/svg"><sodipodi:namedview
     id="namedview10918"
     pagecolor="#ffffff"
     bordercolor="#000000"
     borderopacity="0.25"
     inkscape:showpageshadow="2"
     inkscape:pageopacity="0.0"
     inkscape:pagecheckerboard="0"
     inkscape:deskcolor="#d1d1d1"
     showgrid="false"
     inkscape:zoom="14.75"
     inkscape:cx="1.4576271"
     inkscape:cy="8.0338983"
     inkscape:window-width="1680"
     inkscape:window-height="997"
     inkscape:window-x="0"
     inkscape:window-y="92"
     inkscape:window-maximized="0"
     inkscape:current-layer="g2691" /><defs
     id="defs2" /><g
     id="g815"
     transform="translate(7.6595131,0.16138922)"><g
       id="g2691"
       transform="translate(8.1259393,-1.9672735e-4)"><rect
         style="fill:#ffffff;fill-opacity:1;stroke:none;stroke-width:0.217244"
         id="rect6556"
         width="4.2333331"
         height="4.2333331"
         x="-15.785452"
         y="-0.16119242"
         ry="0" /><g
         id="g6560"><path
           id="path6454"
           style="fill:#ffffff;fill-opacity:1;stroke-width:0.0108547"
           d="m -13.709404,0.01434722 c -0.09109,0.00147 -0.181385,0.026526 -0.253731,0.075448 -0.01537,0.010393 -0.201462,0.1963232 -0.43925,0.4366659 l 0.02739,-0.029972 -0.03566,0.031523 c -0.01941,0.017535 -0.03514,0.033787 -0.03514,0.035657 0,0.00314 0.0015,0.00387 0.0047,0.00207 -0.0034,0.0034 -0.007,0.00639 -0.01033,0.00982 0.003,-0.00418 0.0045,-0.00718 0.0041,-0.00827 l -5.17e-4,-5.167e-4 c -0.0019,0 -0.0072,0.00404 -0.01344,0.00982 -0.0035,0.00328 -0.0082,0.00778 -0.01189,0.011886 -0.0024,0.00261 -0.0043,0.00543 -0.0062,0.00775 -10e-4,0.0013 -0.0028,0.0035 -0.0036,0.00465 -0.003,0.00418 -0.005,0.0077 -0.0047,0.00879 l 5.17e-4,5.168e-4 c 3.73e-4,0 9.36e-4,-2.264e-4 0.0015,-5.168e-4 -0.0026,0.00259 -0.0052,0.00463 -0.0078,0.00723 0.0019,-0.00295 0.0029,-0.00533 0.0026,-0.0062 l -5.17e-4,-5.167e-4 c -0.0015,0 -0.0053,0.00278 -0.0098,0.00672 -8.74e-4,7.721e-4 -0.0027,0.00223 -0.0036,0.0031 -0.0035,0.00328 -0.0082,0.00778 -0.01189,0.011886 -0.0041,0.00448 -0.0073,0.00894 -0.0098,0.012402 -0.003,0.00418 -0.005,0.0077 -0.0047,0.00879 l 5.17e-4,5.168e-4 c 9.31e-4,0 0.0029,-9.077e-4 0.0052,-0.00258 -0.01289,0.013075 -0.02569,0.0255 -0.03876,0.038757 0.0011,-0.00133 0.0022,-0.00294 0.0031,-0.00413 2.12e-4,-2.889e-4 8.33e-4,-0.00127 10e-4,-0.00155 0.0015,-0.00215 0.003,-0.00486 0.0036,-0.0062 1.73e-4,-5.512e-4 6.07e-4,-0.00178 5.16e-4,-0.00207 l -5.16e-4,-5.167e-4 c -0.0015,0 -0.0053,0.00278 -0.0098,0.00672 -8.74e-4,7.721e-4 -0.0027,0.00223 -0.0036,0.0031 -0.0035,0.00328 -0.0082,0.00778 -0.01189,0.011886 -0.0027,0.00298 -0.0052,0.00619 -0.0072,0.00879 -7.44e-4,9.485e-4 -0.0019,0.00275 -0.0026,0.00362 -0.003,0.00418 -0.005,0.0077 -0.0047,0.00879 l 5.17e-4,5.168e-4 c 0.0014,0 0.0046,-0.00217 0.0088,-0.00568 5.68e-4,-4.919e-4 0.002,-0.00153 0.0026,-0.00207 -0.08697,0.088289 -0.175378,0.1781886 -0.264066,0.2687175 l -5.17e-4,-5.168e-4 c -0.003,0 -0.01699,0.012463 -0.03101,0.027389 -0.01231,0.013059 -0.02076,0.023813 -0.02067,0.026355 -8.55e-4,8.728e-4 -0.0017,0.00171 -0.0026,0.00258 1.73e-4,-5.512e-4 9.1e-5,-0.00126 0,-0.00155 l -5.17e-4,-5.168e-4 c -0.0013,0 -0.0045,0.00206 -0.0083,0.00517 -2.76e-4,2.34e-4 -0.0013,0.0013 -0.0016,0.00155 -0.0012,0.00103 -0.0034,0.00294 -0.0046,0.00413 -0.0032,0.00308 -0.0075,0.00712 -0.01085,0.010852 -0.0041,0.00448 -0.0073,0.00894 -0.0098,0.012402 -0.003,0.00418 -0.0055,0.00821 -0.0052,0.0093 -0.0013,0.0013 -0.0023,0.00284 -0.0036,0.00413 2.09e-4,-3.912e-4 3.68e-4,-0.00122 5.17e-4,-0.00155 1.73e-4,-5.513e-4 6.08e-4,-0.00178 5.17e-4,-0.00207 l -5.17e-4,-5.168e-4 c -0.0013,0 -0.0045,0.00206 -0.0083,0.00517 -0.0017,0.0014 -0.0043,0.00389 -0.0062,0.00568 -0.0032,0.00308 -0.0075,0.00712 -0.01085,0.010852 -0.0041,0.00448 -0.0073,0.00894 -0.0098,0.012402 -0.0038,0.0053 -0.0059,0.0093 -0.0041,0.0093 -0.0092,0.00944 -0.01878,0.019068 -0.02791,0.028422 0.0019,-0.00295 0.0029,-0.00533 0.0026,-0.0062 l -5.16e-4,-5.168e-4 c -0.0013,0 -0.0045,0.00206 -0.0083,0.00517 -0.0017,0.0014 -0.0043,0.00389 -0.0062,0.00568 -0.0032,0.00308 -0.0075,0.00712 -0.01085,0.010852 -0.0074,0.00821 -0.01283,0.015949 -0.01447,0.019637 v 5.168e-4 l -0.03152,0.028422 c -0.0194,0.017535 -0.03514,0.03327 -0.03514,0.03514 0,0.00367 0.0018,0.00422 0.0062,0.00103 0.0014,-0.00107 0.0038,-0.00293 0.0057,-0.00465 -0.01122,0.011532 -0.02259,0.022796 -0.03359,0.034107 0.01407,-0.014925 0.02264,-0.027388 0.01964,-0.027388 -0.0015,5.119e-4 -0.0048,0.00281 -0.0083,0.00568 -0.0059,0.00499 -0.01434,0.013309 -0.02222,0.021704 -0.01231,0.013059 -0.02077,0.023813 -0.02067,0.026355 l 5.17e-4,5.168e-4 c 0.003,-0.00105 0.01156,-0.00786 0.02119,-0.017053 -0.0582,0.059881 -0.110141,0.114518 -0.15968,0.1658813 l 0.01189,-0.012919 -0.03514,0.032039 c -0.01273,0.011507 -0.02428,0.022351 -0.03049,0.028939 -0.0027,0.00294 -0.0047,0.00562 -0.0047,0.0062 0,0.00262 4.75e-4,0.00386 0.0026,0.0031 -0.0016,0.00171 -0.0041,0.00347 -0.0057,0.00517 0.0013,-0.00222 0.0018,-0.00392 0.0016,-0.00465 h -5.17e-4 c -0.002,0 -0.0085,0.0046 -0.0155,0.011369 -0.0029,0.00285 -0.0068,0.00698 -0.0098,0.010335 -0.0034,0.00373 -0.0064,0.00726 -0.0088,0.010335 -4.49e-4,5.969e-4 -0.0017,0.00203 -0.0021,0.00258 -0.0015,0.00215 -0.003,0.00486 -0.0036,0.0062 -3.47e-4,0.0011 -2.33e-4,0.00258 5.17e-4,0.00258 9.31e-4,0 0.0024,-9.077e-4 0.0047,-0.00258 -0.284154,0.297613 -0.307479,0.4788659 -0.07648,0.5891113 0.0394,0.018804 0.177822,0.060251 0.323494,0.096635 0.293912,0.073409 0.375688,0.1045908 0.375688,0.1452107 0,0.038973 -0.05173,0.077929 -0.194821,0.1452108 -0.20283,0.095373 -0.235766,0.1345964 -0.160196,0.1922363 0.05381,0.041043 0.132975,0.072961 0.433565,0.1751831 0.312619,0.1063128 0.437897,0.165056 0.458887,0.214974 0.02021,0.048055 0.0036,0.081721 -0.08837,0.181901 -0.09652,0.1051324 -0.105186,0.1424265 -0.04703,0.1963705 0.03258,0.030219 0.0836,0.047543 0.229444,0.078548 0.131505,0.027956 0.195533,0.085618 0.230993,0.2072225 0.01662,0.056982 0.0462,0.093013 0.0925,0.1126546 0.04415,0.01873 0.232944,0.0072 0.334863,-0.020671 0.04987,-0.013636 0.145147,-0.052275 0.211357,-0.085783 0.17162,-0.086851 0.195465,-0.130552 0.09819,-0.1798339 -0.06778,-0.034338 -0.112138,-0.070509 -0.112138,-0.091984 0,-0.020182 0.08067,-0.1050153 0.13746,-0.1441773 0.06951,-0.047934 0.183461,-0.094593 0.30179,-0.1229899 0.160551,-0.038529 0.225495,-0.075593 0.273885,-0.1565796 0.01944,-0.032533 0.03566,-0.07241 0.03566,-0.088884 0,-0.045127 -0.05148,-0.095205 -0.159164,-0.1550293 -0.182026,-0.1011219 -0.210199,-0.1275416 -0.193269,-0.1808675 0.01048,-0.033034 0.120851,-0.081091 0.411861,-0.1782837 0.402914,-0.1345674 0.532625,-0.1903584 0.65474,-0.2821533 0.13413,-0.1008241 0.166155,-0.2158939 0.09819,-0.3519165 -0.02303,-0.046086 -0.02797,-0.060318 -0.254765,-0.2955892 0.0015,0.00124 0.0026,0.00207 0.0031,0.00207 0.0022,0 0.0034,-9.444e-4 0.0036,-0.00207 -1.67e-4,-0.00106 -7.97e-4,-0.00344 -0.0021,-0.00517 -0.0024,-0.00307 -0.0074,-0.00788 -0.01292,-0.012919 -0.0026,-0.00231 -0.0061,-0.00554 -0.0093,-0.00827 l -0.01964,-0.016536 5.17e-4,-5.167e-4 c -4.74e-4,-0.003 -0.0055,-0.00951 -0.01499,-0.018087 -0.0026,-0.00231 -0.0061,-0.00554 -0.0093,-0.00827 l -0.01964,-0.016536 5.17e-4,-5.167e-4 c 3.33e-4,-0.00363 -0.009,-0.013076 -0.02997,-0.031523 l -0.02946,-0.026355 0.0088,0.010335 c -0.06675,-0.068673 -0.176081,-0.1810412 -0.270784,-0.2780192 3.75e-4,3.1e-4 7.13e-4,2.779e-4 10e-4,5.167e-4 5.23e-4,3.268e-4 0.0018,0.00103 0.0021,0.00103 0.0011,0 0.002,2.769e-4 0.0026,0 l 0.02739,0.029972 c 0.02225,0.024661 0.03328,0.034543 0.03721,0.034623 l 0.02222,0.025321 c 0.005,0.00567 0.0097,0.010487 0.01344,0.014469 0.0051,0.00534 0.01,0.010065 0.01292,0.012402 0.0046,0.00337 0.0072,0.00347 0.0072,-5.168e-4 0,-7.897e-4 -0.0025,-0.00387 -0.0062,-0.00775 -0.0055,-0.00562 -0.01453,-0.014079 -0.02377,-0.022221 l -0.0248,-0.022221 c 7.3e-5,-3.987e-4 5.17e-4,-0.00154 5.17e-4,-0.00207 0,-0.00187 -0.01574,-0.017605 -0.03514,-0.03514 l -0.03049,-0.027389 c 0.0023,-0.00207 -0.0025,-0.0083 -0.01447,-0.01912 -0.0026,-0.00231 -0.0061,-0.00554 -0.0093,-0.00827 l -0.0248,-0.020671 0.02067,0.024288 c -0.0091,-0.00928 -0.02012,-0.02041 -0.02946,-0.029972 0.0085,0 0.0015,-0.00848 -0.02635,-0.033073 l -0.02481,-0.022221 c 2.76e-4,-6.113e-4 5.17e-4,-0.0015 5.17e-4,-0.00258 0,-9.013e-4 -0.0022,-0.00363 -0.0057,-0.00723 -0.0045,-0.00454 -0.01147,-0.011011 -0.0186,-0.017053 l -0.01964,-0.016536 5.17e-4,-5.168e-4 c 3.33e-4,-0.00363 -0.009,-0.013076 -0.02997,-0.031523 l -0.02997,-0.026355 c -0.06656,-0.06809 -0.102086,-0.1044302 -0.180351,-0.1844848 -0.02895,-0.029615 -0.04899,-0.049998 -0.07596,-0.077515 0.0051,0.00486 0.009,0.00637 0.01085,0.0062 l 0.02222,0.024805 c 0.0086,0.00975 0.01706,0.018831 0.02274,0.024288 0.0034,0.00323 0.0065,0.00568 0.0072,0.00568 5.32e-4,0 0.0017,-4.464e-4 0.0021,-5.167e-4 h 5.17e-4 l 0.02739,0.030489 c 0.0079,0.00873 0.01445,0.015868 0.01964,0.021187 0.01022,0.01041 0.01642,0.013968 0.0186,0.012919 1.77e-4,-4.679e-4 5.17e-4,-0.00131 5.17e-4,-0.00207 0,-0.00187 -0.01574,-0.018122 -0.03514,-0.035657 l -0.03049,-0.027388 5.17e-4,-5.168e-4 c 8.3e-5,-9.062e-4 -9.31e-4,-0.00244 -0.0021,-0.00413 -0.0038,-0.0052 -0.01308,-0.014322 -0.02791,-0.027388 l -0.0248,-0.022221 c 2.88e-4,-5.704e-4 5.16e-4,-0.00152 5.16e-4,-0.00258 0,-0.00194 -0.01355,-0.014983 -0.02997,-0.029455 l -0.02997,-0.026355 0.02636,0.029456 c -0.01218,-0.012414 -0.02389,-0.023166 -0.03566,-0.03514 0.0075,0 0.0039,-0.00652 -0.01189,-0.020671 -0.0024,-0.0021 -0.0059,-0.00481 -0.0088,-0.00723 l -0.01964,-0.016537 5.17e-4,-5.167e-4 c 8.3e-5,-9.064e-4 -4.14e-4,-0.00244 -0.0015,-0.00413 -0.0038,-0.0052 -0.01308,-0.014323 -0.02791,-0.027388 l -0.0248,-0.022221 c 2.89e-4,-5.705e-4 5.17e-4,-0.00152 5.17e-4,-0.00258 0,-0.00194 -0.01355,-0.014983 -0.02997,-0.029456 l -0.02997,-0.026355 0.01395,0.015503 c -0.242775,-0.245445 -0.37092,-0.3689402 -0.401009,-0.3870564 -0.07723,-0.046501 -0.169362,-0.068654 -0.26045,-0.067179 z m -0.315226,0.118339 c -0.0014,0 -0.0046,0.00217 -0.0088,0.00568 -8.52e-4,7.377e-4 -0.0027,0.00226 -0.0036,0.0031 -0.0037,0.00347 -0.0083,0.00844 -0.0124,0.012919 -0.0037,0.0041 -0.0073,0.00809 -0.0098,0.011369 -0.0034,0.00462 -0.0055,0.00866 -0.0052,0.00982 l 5.17e-4,5.167e-4 c 0.0013,0 0.0045,-0.00206 0.0083,-0.00517 0.0014,-0.00117 0.0036,-0.00321 0.0052,-0.00465 0.0035,-0.00328 0.0082,-0.00778 0.01189,-0.011886 0.0041,-0.00448 0.0073,-0.00894 0.0098,-0.012402 0.0038,-0.0053 0.0059,-0.0093 0.0041,-0.0093 z m 0.669727,0.01602 0.02067,0.024805 c 0.0027,0.00323 0.0054,0.00621 0.0078,0.00879 0.01083,0.01195 0.01757,0.017278 0.01964,0.014986 l 0.0217,0.024805 c 0.02033,0.023067 0.02986,0.031936 0.03256,0.029455 l 0.02739,0.030489 c 0.01754,0.019403 0.03324,0.03514 0.03514,0.03514 0.0084,0 8.41e-4,-0.00904 -0.03204,-0.038757 l -0.02997,-0.027389 c 2.88e-4,-5.705e-4 5.17e-4,-0.00152 5.17e-4,-0.00258 0,-0.00194 -0.01355,-0.015499 -0.02997,-0.029972 l -0.0248,-0.021704 c 2.76e-4,-6.113e-4 5.17e-4,-0.0015 5.17e-4,-0.00258 0,-9.656e-4 -0.0028,-0.00426 -0.0067,-0.00827 -0.0044,-0.00443 -0.01137,-0.01085 -0.01809,-0.016536 z m -0.734839,0.049093 c -0.0014,0 -0.0046,0.00217 -0.0088,0.00568 -0.0045,0.00393 -0.01062,0.01005 -0.01602,0.01602 -0.0037,0.0041 -0.0073,0.00809 -0.0098,0.011369 -0.0021,0.00289 -0.0039,0.00659 -0.0047,0.00827 l -5.17e-4,5.168e-4 -0.03152,0.027905 c -0.01941,0.017535 -0.03514,0.03327 -0.03514,0.03514 0,0.00839 0.009,0.00136 0.03876,-0.031523 l 0.0279,-0.030489 5.17e-4,5.168e-4 c 0.0019,0 0.0072,-0.00404 0.01344,-0.00982 0.0035,-0.00328 0.0082,-0.00778 0.01188,-0.011885 0.0037,-0.0041 0.0068,-0.00809 0.0093,-0.011369 0.0034,-0.00462 0.0055,-0.00866 0.0052,-0.00982 z m -0.108521,0.1085206 c -0.004,0.0014 -0.01735,0.013396 -0.03049,0.027388 -0.01231,0.01306 -0.02076,0.023814 -0.02067,0.026355 l 5.16e-4,5.168e-4 c 1.87e-4,0 7.65e-4,9.31e-5 0.001,0 0.0014,-7.261e-4 0.0043,-0.0027 0.0067,-0.00465 0.006,-0.00496 0.01493,-0.013359 0.02325,-0.022221 0.01231,-0.013059 0.02077,-0.02433 0.02067,-0.026872 l -5.17e-4,-5.167e-4 z m 1.194759,0.2056722 0.02015,0.022221 c -0.0067,-0.00677 -0.01518,-0.015095 -0.0217,-0.021704 3.87e-4,1.05e-4 0.0012,-4.89e-4 0.0015,-5.167e-4 z m 0.05426,0.05426 0.01654,0.019637 c -0.0061,-0.00622 -0.0126,-0.013024 -0.0186,-0.01912 5.31e-4,0 0.0017,-4.464e-4 0.0021,-5.168e-4 z m -1.651062,0.1524455 c -0.0049,0.00254 -0.01771,0.014329 -0.02997,0.027389 -0.01055,0.011194 -0.01823,0.020671 -0.02015,0.024805 l -0.03152,0.028422 c -0.0194,0.017535 -0.03514,0.033787 -0.03514,0.035657 0,0.00839 0.009,8.445e-4 0.03876,-0.032039 l 0.02739,-0.030489 5.17e-4,5.167e-4 c 0.004,-0.0014 0.01786,-0.012879 0.03101,-0.026872 0.01231,-0.01306 0.02077,-0.02433 0.02067,-0.026872 l -5.17e-4,-5.167e-4 c -1.86e-4,0 -7.64e-4,-9.31e-5 -10e-4,0 z m 2.062923,0.2713012 c 4.1e-4,-7.03e-5 7.48e-4,1.442e-4 10e-4,0 l 0.0062,0.00723 c -0.0025,-0.00254 -0.0047,-0.00468 -0.0072,-0.00723 z m 0.04289,0.043408 c 3.53e-4,5.58e-5 7.54e-4,6.54e-5 10e-4,0 l 0.01654,0.018087 c -0.0058,-0.00594 -0.01166,-0.01204 -0.01757,-0.018087 z m -2.557983,0.1519288 c 9.1e-5,2.904e-4 6.58e-4,0 0.001,0 3.73e-4,0 9.36e-4,2.904e-4 0.0016,0 -0.01023,0.010498 -0.01989,0.019616 -0.02997,0.029972 z m 2.981213,0.2821533 h 5.17e-4 c 4.1e-4,-7.04e-5 7.48e-4,1.442e-4 10e-4,0 l 0.01395,0.01602 c -0.0047,-0.0049 -0.0106,-0.010965 -0.0155,-0.01602 z m 0.04392,0.043408 c 4.24e-4,-6.88e-5 7.28e-4,1.384e-4 10e-4,0 l 0.01654,0.01912 c -0.0051,-0.00533 -0.01376,-0.013061 -0.01912,-0.018603 5.42e-4,0 0.0011,-4.48e-4 0.0015,-5.167e-4 z m -3.387907,0.043925 c -0.0028,0.00131 -0.0082,0.00583 -0.01395,0.011369 -0.0029,0.00285 -0.0068,0.00698 -0.0098,0.010335 -0.0034,0.00373 -0.0064,0.00726 -0.0088,0.010335 -4.49e-4,5.969e-4 -0.0017,0.00203 -0.0021,0.00258 -0.0015,0.00215 -0.003,0.00486 -0.0036,0.0062 -3.47e-4,0.0011 -2.33e-4,0.00258 5.17e-4,0.00258 0.0013,0 0.004,-0.00206 0.0078,-0.00517 0.0047,-0.00398 0.01131,-0.010193 0.01705,-0.016536 0.0095,-0.010447 0.01562,-0.019671 0.01499,-0.021704 h -5.16e-4 c -3.74e-4,0 -9.35e-4,-2.904e-4 -0.0016,0 z m 3.449919,0.01602 0.02067,0.024288 c 0.0024,0.00287 0.0046,0.00591 0.0067,0.00827 0.01416,0.01575 0.02119,0.01987 0.02119,0.012402 0,-0.00206 -0.01086,-0.012915 -0.02429,-0.024288 z m 0.06511,0.065112 0.02067,0.024288 c 0.0024,0.00287 0.0046,0.00591 0.0067,0.00827 0.01416,0.01575 0.02119,0.01987 0.02119,0.012402 0,-0.00206 -0.01086,-0.012915 -0.02429,-0.024288 z m 0.04858,0.049093 c 9.9e-5,3.816e-4 4.67e-4,0.00119 0.001,0.00207 0.0015,0.00224 0.005,0.00653 0.0088,0.011369 2.21e-4,2.825e-4 2.97e-4,7.571e-4 5.16e-4,0.00103 6.5e-4,8.112e-4 0.002,0.00234 0.0026,0.0031 0.0037,0.00443 0.0076,0.00846 0.01033,0.010852 5.81e-4,4.795e-4 0.0021,0.00169 0.0026,0.00207 0.002,0.00129 0.0041,0.00198 0.0052,0.00155 6.02e-4,-6.577e-4 0.0015,-0.00194 0.0015,-0.00362 0,-0.00148 -0.0038,-0.00583 -0.0093,-0.010852 -2.69e-4,-2.427e-4 -0.0013,-0.0013 -0.0015,-0.00155 -0.0023,-0.00199 -0.0057,-0.00467 -0.0083,-0.00672 -0.0048,-0.0038 -0.0081,-0.00673 -0.01034,-0.00827 -4.37e-4,-2.834e-4 -0.0018,-8.665e-4 -0.0021,-0.00103 h -5.17e-4 z m -3.289205,0.9224243 c -3.81e-4,9.85e-5 -0.0012,4.666e-4 -0.0021,0.00103 -2.49e-4,1.705e-4 -0.0013,8.343e-4 -0.0015,0.00103 -0.0022,0.00159 -0.0061,0.00428 -0.0098,0.00723 -0.003,0.0023 -0.0058,0.00502 -0.0083,0.00723 -2.69e-4,2.427e-4 -0.0013,0.00131 -0.0015,0.00155 -0.0035,0.00329 -0.007,0.00687 -0.0083,0.00879 -2.53e-4,4.652e-4 -5.17e-4,0.00127 -5.17e-4,0.00155 0,0.00223 4.93e-4,0.0037 0.0015,0.00413 9.78e-4,-2.6e-6 0.0032,-5.825e-4 0.0047,-0.00155 2.64e-4,-1.876e-4 0.0013,-8.197e-4 0.0015,-0.00103 0.0031,-0.00252 0.0075,-0.00711 0.01189,-0.012402 2.11e-4,-2.583e-4 0.0013,-0.00129 0.0015,-0.00155 4.33e-4,-5.408e-4 0.0011,-0.00202 0.0015,-0.00258 0.0034,-0.0043 0.0062,-0.00757 0.0078,-0.00982 5.12e-4,-7.483e-4 0.0013,-0.00211 0.0015,-0.00258 l 5.17e-4,-5.168e-4 v -5.168e-4 z m 3.039091,0.2392619 c -0.07657,0.00312 -0.139482,0.027785 -0.187585,0.07338 -0.0018,0.0017 -0.0039,0.00335 -0.0057,0.00517 0.003,-0.00377 0.0051,-0.00712 0.0067,-0.0093 1.99e-4,-2.807e-4 8.63e-4,-0.0013 10e-4,-0.00155 2.83e-4,-4.365e-4 8.66e-4,-0.00175 0.001,-0.00207 l 5.17e-4,-5.167e-4 v -5.168e-4 h -5.17e-4 c -4.69e-4,2.506e-4 -0.0018,0.00104 -0.0026,0.00155 -0.0022,0.00159 -0.006,0.00489 -0.01033,0.00827 -0.0013,0.00102 -0.0029,0.00208 -0.0041,0.0031 -0.0021,0.00178 -0.0049,0.00404 -0.0067,0.00568 -0.0032,0.003 -0.006,0.00649 -0.0072,0.00827 -2.53e-4,4.652e-4 -10e-4,0.00127 -10e-4,0.00155 0,0.00168 4.31e-4,0.00296 10e-4,0.00362 0.0015,5.976e-4 0.0046,5.41e-5 0.0078,-0.00258 5.31e-4,-4.649e-4 0.002,-0.00152 0.0026,-0.00207 -0.02433,0.028667 -0.04392,0.0638 -0.04392,0.081132 0,0.016811 0.06632,0.042844 0.139009,0.05426 0.106364,0.016705 0.294415,0.00774 0.344165,-0.016536 0.06586,-0.032133 0.06531,-0.068894 -0.0021,-0.1338419 -0.0616,-0.059378 -0.112322,-0.07733 -0.216524,-0.076998 -0.0052,1.66e-5 -0.0104,-2.08e-4 -0.0155,0 z m 0.06873,0.2397787 c -0.0038,2.913e-4 -0.0076,0.00121 -0.01085,0.00207 -0.0026,6.9e-4 -0.0045,0.00145 -0.0052,0.00207 v 5.167e-4 l 5.17e-4,5.168e-4 c 6.05e-4,2.45e-4 0.0021,8.319e-4 0.0031,0.00103 0.0032,5.215e-4 0.0088,9.574e-4 0.01499,0.00103 0.01007,1.294e-4 0.01714,-4.208e-4 0.02015,-0.00155 0.0014,-8.202e-4 0.0017,-0.00199 -10e-4,-0.0031 -0.0014,-5.574e-4 -0.0034,-0.00119 -0.0052,-0.00155 -0.0047,-8.176e-4 -0.01091,-0.00147 -0.01654,-0.00103 z m -2.563151,0.074414 c -0.08809,0.00207 -0.23774,0.069007 -0.255282,0.1147217 -0.02099,0.054713 0.0029,0.1103741 0.06253,0.146761 0.04583,0.027948 0.127905,0.027343 0.187585,-0.00155 0.05369,-0.02599 0.152571,-0.1293195 0.162781,-0.1700154 0.0054,-0.021324 8.86e-4,-0.031811 -0.0186,-0.046509 -0.03024,-0.022808 -0.09361,-0.043408 -0.134875,-0.043408 -0.0014,0 -0.0027,-3.29e-5 -0.0041,0 z m 2.16886,0.010852 c -4.7e-4,2.506e-4 -0.0018,0.00104 -0.0026,0.00155 -0.0022,0.00159 -0.006,0.00489 -0.01034,0.00827 -0.0026,0.00205 -0.0055,0.00421 -0.0078,0.0062 -0.0047,0.00418 -0.0088,0.00853 -0.01033,0.010852 -2.53e-4,4.652e-4 -10e-4,0.00127 -10e-4,0.00155 0,0.00112 2.46e-4,0.00244 5.17e-4,0.0031 l 5.17e-4,5.167e-4 c 0.0011,4.347e-4 0.0032,7.738e-4 0.0052,-5.167e-4 5.28e-4,-3.753e-4 0.002,-0.00159 0.0026,-0.00207 5.32e-4,-4.65e-4 0.002,-0.00152 0.0026,-0.00207 -0.0547,0.057712 -0.04484,0.1457056 0.02119,0.1808675 0.06672,0.035531 0.178926,0.018937 0.190686,-0.027905 0.01394,-0.05554 -0.0519,-0.1350246 -0.134875,-0.1632975 -0.04524,-0.015416 -0.04994,-0.016284 -0.07028,0.00362 v -5.168e-4 c 10e-4,-0.00117 0.002,-0.00281 0.0031,-0.00413 4.32e-4,-5.409e-4 0.0016,-0.0015 0.0021,-0.00207 0.003,-0.00377 0.0051,-0.00712 0.0067,-0.0093 1.99e-4,-2.808e-4 8.62e-4,-0.0013 10e-4,-0.00155 5.67e-4,-8.731e-4 0.0015,-0.0022 0.0015,-0.00258 v -5.168e-4 z m 0.09302,0.2294433 c -7.57e-4,9.04e-5 -0.0018,3.658e-4 -0.0026,5.168e-4 -2.54e-4,5.71e-5 -0.0013,4.529e-4 -0.0015,5.168e-4 -2.53e-4,7.07e-5 -0.0013,4.392e-4 -0.0015,5.167e-4 -2.49e-4,8.44e-5 -0.0013,4.255e-4 -0.0016,5.168e-4 h -5.16e-4 c -2.7e-4,1.084e-4 -7.86e-4,4.101e-4 -10e-4,5.168e-4 -0.0014,6.286e-4 -0.003,0.00151 -0.0036,0.00207 v 5.167e-4 c -4.8e-5,3.291e-4 -2.87e-4,0.00127 0,0.00155 6.78e-4,3.925e-4 0.0022,7.573e-4 0.0036,0.00103 5.12e-4,8.52e-5 0.002,4.46e-4 0.0026,5.168e-4 0.0013,1.269e-4 0.0036,4.516e-4 0.0052,5.168e-4 0.0014,5.87e-5 0.0029,3.2e-5 0.0041,0 6.09e-4,-2.68e-5 0.002,4.75e-5 0.0026,0 2.69e-4,-2.88e-5 0.0013,-4.831e-4 0.0015,-5.168e-4 0.002,-3.076e-4 0.0041,-9.722e-4 0.0052,-0.00155 8e-4,-6.36e-4 0.0018,-0.00176 0.0015,-0.00258 l -5.17e-4,-5.168e-4 -5.17e-4,-5.167e-4 c -0.0027,-0.002 -0.0079,-0.0037 -0.01292,-0.0031 z" /><path
           style="fill:#000000;fill-opacity:1;stroke-width:0.0108547"
           d="m -13.827278,3.887784 c -0.0463,-0.019642 -0.07602,-0.055841 -0.09264,-0.1128231 -0.03546,-0.1216041 -0.09966,-0.1791104 -0.231166,-0.207066 -0.145848,-0.031005 -0.196919,-0.048529 -0.229502,-0.078748 -0.05816,-0.053944 -0.04916,-0.091287 0.04736,-0.1964195 0.09198,-0.1001802 0.108317,-0.133929 0.08811,-0.1819839 -0.02099,-0.049918 -0.146073,-0.1084958 -0.458693,-0.2148087 -0.30059,-0.1022218 -0.379815,-0.1342482 -0.433625,-0.1752909 -0.07557,-0.05764 -0.04279,-0.097054 0.160041,-0.1924272 0.143087,-0.067282 0.194893,-0.1057522 0.194893,-0.1447254 0,-0.04062 -0.08156,-0.072262 -0.375472,-0.145671 -0.145672,-0.036384 -0.284234,-0.077702 -0.323634,-0.096506 -0.231567,-0.1105172 -0.207352,-0.2921868 0.07879,-0.5911097 0.408852,-0.4271113 1.403025,-1.43550391 1.439737,-1.46032862 0.144693,-0.0978429 0.359464,-0.10132179 0.513928,-0.008325 0.03985,0.0239929 0.249954,0.23129746 0.673415,0.66444591 1.022983,1.04638501 1.003979,1.02628061 1.041921,1.10221091 0.06797,0.1360228 0.03575,0.2513992 -0.09838,0.3522234 -0.122115,0.091795 -0.251622,0.1476312 -0.654537,0.2821987 -0.29101,0.097193 -0.401606,0.1449634 -0.41209,0.1779979 -0.01693,0.053326 0.0114,0.079821 0.193427,0.180943 0.107689,0.059824 0.158962,0.1097935 0.158962,0.1549205 0,0.016474 -0.01591,0.056571 -0.03535,0.089104 -0.04839,0.080987 -0.113512,0.1182335 -0.274063,0.1567622 -0.118329,0.028397 -0.232189,0.074664 -0.3017,0.122598 -0.05679,0.039162 -0.137864,0.12388 -0.137864,0.144062 0,0.021475 0.04441,0.058043 0.112193,0.092381 0.09728,0.049282 0.07349,0.092859 -0.09813,0.1797099 -0.06621,0.033508 -0.161183,0.072082 -0.21105,0.085718 -0.101919,0.027871 -0.290741,0.039687 -0.334892,0.020957 z m 0.207928,-1.2221284 c 0.0266,-0.02548 0.04246,-0.068932 0.02516,-0.068932 -0.0219,0 -0.567531,-0.1140085 -0.671588,-0.1403269 -0.120735,-0.030537 -0.147659,-0.03296 -0.147659,-0.013292 0,0.015735 0.116534,0.077653 0.236923,0.1258831 0.212334,0.085065 0.416331,0.139562 0.489322,0.130721 0.02076,-0.00251 0.05051,-0.01745 0.06784,-0.034053 z m -2.49e-4,-1.5330548 0.186653,-0.1181396 0.110414,0.058439 c 0.06073,0.032141 0.115358,0.058439 0.121402,0.058439 0.006,0 0.02178,-0.067163 0.03497,-0.14925221 0.01319,-0.082089 0.02608,-0.1556008 0.02865,-0.1633604 0.0029,-0.00889 0.05471,0.026244 0.139946,0.094979 0.0744,0.059998 0.139885,0.10908701 0.145511,0.10908701 0.02538,0 0.0315,-0.093719 0.0093,-0.14317661 -0.0072,-0.016061 -0.153737,-0.1733413 -0.325653,-0.34951128 -0.359416,-0.36830951 -0.374278,-0.37924445 -0.516441,-0.3799777 -0.147499,-7.6077e-4 -0.164324,0.0112465 -0.519846,0.37099206 -0.169432,0.17144392 -0.319435,0.33125462 -0.333342,0.35513502 -0.03392,0.058245 -0.04256,0.1060759 -0.02744,0.15189471 0.02174,0.065879 0.03782,0.070627 0.239138,0.070627 h 0.18001 l 0.09708,-0.16815611 c 0.0534,-0.092486 0.09964,-0.1681973 0.102766,-0.1682478 0.0031,-5.1e-5 0.03189,0.1061485 0.06393,0.2359979 0.05742,0.23273511 0.063,0.25237181 0.0718,0.25237181 0.0024,0 0.08844,-0.053163 0.191101,-0.1181397 z M -14.789371,3.42257 c -0.05967,-0.036387 -0.08337,-0.092204 -0.06238,-0.1469172 0.01782,-0.04644 0.172065,-0.114485 0.259514,-0.114485 0.04126,0 0.104606,0.020208 0.134842,0.043016 0.01949,0.014698 0.02374,0.025535 0.01839,0.046859 -0.01021,0.040696 -0.109069,0.1438574 -0.162757,0.169847 -0.05968,0.028893 -0.141777,0.029628 -0.18761,0.00168 z m 2.362174,-0.042739 c -0.06708,-0.03572 -0.07616,-0.1255609 -0.01851,-0.1832035 0.0242,-0.024197 0.02623,-0.024414 0.07449,-0.00797 0.08298,0.028273 0.148756,0.1081327 0.134816,0.1636729 -0.01176,0.046842 -0.124071,0.063031 -0.190794,0.0275 z m 0.215385,-0.3056949 c -0.07269,-0.011416 -0.139232,-0.037253 -0.139232,-0.054064 0,-0.021332 0.02989,-0.069877 0.06145,-0.099781 0.05131,-0.048635 0.119645,-0.073404 0.203235,-0.073671 0.104202,-3.321e-4 0.154797,0.017685 0.216401,0.077063 0.06738,0.064948 0.06796,0.1016314 0.0021,0.133764 -0.04975,0.024279 -0.2376,0.033393 -0.343964,0.016688 z"
           id="path6159" /></g></g></g></svg>
