<?xml version="1.0" encoding="UTF-8" standalone="no"?>
<!-- Created with Inkscape (http://www.inkscape.org/) -->

<svg
   width="16"
   height="16"
   viewBox="0 0 4.2333332 4.2333333"
   version="1.1"
   id="svg5"
   xml:space="preserve"
   inkscape:version="1.2.1 (9c6d41e4, 2022-07-14)"
   sodipodi:docname="linkedin_icon.svg"
   xmlns:inkscape="http://www.inkscape.org/namespaces/inkscape"
   xmlns:sodipodi="http://sodipodi.sourceforge.net/DTD/sodipodi-0.dtd"
   xmlns="http://www.w3.org/2000/svg"
   xmlns:svg="http://www.w3.org/2000/svg"><sodipodi:namedview
     id="namedview7"
     pagecolor="#ffffff"
     bordercolor="#000000"
     borderopacity="0.25"
     inkscape:showpageshadow="2"
     inkscape:pageopacity="0.0"
     inkscape:pagecheckerboard="0"
     inkscape:deskcolor="#d1d1d1"
     inkscape:document-units="mm"
     showgrid="false"
     inkscape:zoom="20.802204"
     inkscape:cx="0.88932884"
     inkscape:cy="11.993921"
     inkscape:window-width="1680"
     inkscape:window-height="997"
     inkscape:window-x="0"
     inkscape:window-y="92"
     inkscape:window-maximized="0"
     inkscape:current-layer="layer1"
     showguides="true"><sodipodi:guide
       position="-9.2085592,1.7022514"
       orientation="1,0"
       id="guide3198"
       inkscape:locked="false" /></sodipodi:namedview><defs
     id="defs2" /><g
     inkscape:label="Layer 1"
     inkscape:groupmode="layer"
     id="layer1"><path
       style="fill:#000000;fill-opacity:1;stroke:#000000;stroke-width:0.289848;stroke-dasharray:none;stroke-opacity:1"
       d="M 2.0983947,0.14501065 A 1.971723,1.9716947 0 0 0 0.14496402,2.129221 1.971723,1.9716947 0 0 0 2.1229451,4.0884002 1.971723,1.9716947 0 0 0 4.0884103,2.1167054 v -0.02455 A 1.971723,1.9716947 0 0 0 2.0983947,0.14501065 Z"
       id="path297" /><path
       id="path234"
       style="fill:#ffffff;fill-opacity:1;stroke-width:0.289848;stroke-dasharray:none"
       d="M 2.0985799 0.14521077 A 1.9717231 1.9716948 0 0 0 0.14521077 2.129069 A 1.9717231 1.9716948 0 0 0 2.1228678 4.0886393 A 1.9717231 1.9716948 0 0 0 4.0886393 2.1166667 L 4.0886393 2.0923787 A 1.9717231 1.9716948 0 0 0 2.0985799 0.14521077 z M 1.3565063 0.97461751 C 1.4661434 0.97461751 1.5549438 1.0635085 1.5549438 1.173055 C 1.5549438 1.2826815 1.4661426 1.3714925 1.3565063 1.3714925 C 1.2468692 1.3714925 1.1580688 1.2826821 1.1580688 1.173055 C 1.1580688 1.063508 1.24687 0.97461751 1.3565063 0.97461751 z M 2.6044922 1.4913818 C 2.8382556 1.4898216 3.0768148 1.6346262 3.0768148 1.9962606 L 3.0768148 2.8008626 L 2.6778727 2.8008626 L 2.6778727 2.1337199 C 2.6778727 1.7326822 2.1952148 1.7630062 2.1952148 2.1337199 L 2.1952148 2.8008626 L 1.7978231 2.8008626 L 1.7978231 1.5306559 L 2.1952148 1.5306559 L 2.1952148 1.7017049 C 2.2659788 1.5718001 2.4339081 1.4925204 2.6044922 1.4913818 z M 1.1565186 1.5306559 L 1.5564941 1.5306559 L 1.5564941 2.8008626 L 1.1565186 2.8008626 L 1.1565186 1.5306559 z " /></g></svg>
