<svg width="16" height="16" version="1.1" viewBox="0 0 4.2333 4.2333" xmlns="http://www.w3.org/2000/svg">
 <path d="m2.103 4.2301c-0.00351-0.00143-0.018823-0.019705-0.034024-0.04062-0.0152-0.020914-0.030308-0.040409-0.033575-0.043321-0.00587-0.0052336-0.10916-0.1494-0.19159-0.26741-0.023395-0.033492-0.095008-0.13953-0.15914-0.23564-0.4612-0.69115-0.78116-1.2731-0.93375-1.6983-0.10852-0.30243-0.12781-0.50587-0.073419-0.77446 0.077786-0.38414 0.32087-0.73371 0.65879-0.94738 0.17537-0.11089 0.36672-0.17965 0.59306-0.21311 0.078958-0.011673 0.28165-0.013263 0.35743-0.0028029 0.33433 0.046149 0.61629 0.18008 0.84919 0.40338 0.20996 0.2013 0.36062 0.47407 0.41822 0.75721 0.037345 0.18356 0.041025 0.34357 0.011287 0.49068-0.086891 0.42982-0.43072 1.1014-1.0039 1.961-0.080599 0.12086-0.18296 0.27098-0.22746 0.3336-0.044503 0.062616-0.10254 0.14458-0.12897 0.18214-0.068021 0.096667-0.077179 0.1052-0.1021 0.095077zm0.14668-2.2522c0.18728-0.05393 0.32703-0.19345 0.37702-0.37639 0.01047-0.038315 0.012188-0.05706 0.012104-0.13203-8.3e-5 -0.074424-0.0019-0.094041-0.012287-0.13238-0.052496-0.19384-0.207-0.34203-0.40064-0.38426-0.066734-0.014554-0.17105-0.01236-0.23828 0.0050107-0.12523 0.032355-0.23647 0.11167-0.30928 0.22052-0.067923 0.10155-0.095108 0.20665-0.085127 0.32911 0.010705 0.13135 0.061176 0.24116 0.15308 0.33306 0.066793 0.066792 0.14996 0.11476 0.23703 0.13672 0.060244 0.015191 0.065744 0.015697 0.14992 0.013797 0.058925-0.00133 0.086009-0.00439 0.11647-0.013162z" fill="#70b5fa" stroke-width=".0052952"/>
</svg>
