<?xml version="1.0" encoding="UTF-8" standalone="no"?>
<!-- Created with Inkscape (http://www.inkscape.org/) -->

<svg
   width="253.16754"
   height="64.000008"
   viewBox="0 0 66.98391 16.933335"
   version="1.1"
   id="svg5"
   xml:space="preserve"
   xmlns:inkscape="http://www.inkscape.org/namespaces/inkscape"
   xmlns:sodipodi="http://sodipodi.sourceforge.net/DTD/sodipodi-0.dtd"
   xmlns="http://www.w3.org/2000/svg"
   xmlns:svg="http://www.w3.org/2000/svg"><sodipodi:namedview
     id="namedview7"
     pagecolor="#000000"
     bordercolor="#000000"
     borderopacity="0.25"
     inkscape:showpageshadow="2"
     inkscape:pageopacity="1"
     inkscape:pagecheckerboard="0"
     inkscape:deskcolor="#d1d1d1"
     inkscape:document-units="mm"
     showgrid="false" /><defs
     id="defs2" /><g
     inkscape:label="Layer 1"
     inkscape:groupmode="layer"
     id="layer1"><path
       style="fill:#ffffff;stroke-width:0.0265507"
       d="M 7.9353436,16.91932 C 7.6905125,16.90532 7.1142185,16.83012 6.8334938,16.77551 3.3794312,16.10337 0.69777737,13.35304 0.10532415,9.8750102 c -0.09113275,-0.535 -0.11648788,-0.94297 -0.10113753,-1.62735 0.01532728,-0.68333 0.05868698,-1.0563 0.19179965,-1.64981 0.68808062,-3.06793 3.06464203,-5.52804 6.10649483,-6.32116995 3.5227944,-0.91852 7.2187749,0.4983 9.2124479,3.53150995 0.715802,1.08904 1.143505,2.24405 1.332204,3.59761 0.06564,0.47084 0.06526,1.62939 -7.15e-4,2.11077 -0.181458,1.3244598 -0.621924,2.5219098 -1.316843,3.5799698 -1.673247,2.54763 -4.55132,3.99639 -7.5942534,3.82278 z m 1.6139786,-0.90866 c 1.1129128,-0.16851 2.1406178,-0.56072 3.0706748,-1.17189 0.840863,-0.55256 1.577268,-1.27403 2.111771,-2.06895 0.08791,-0.13074 0.159837,-0.24833 0.159837,-0.2613 0,-0.013 -0.235969,-0.11918 -0.524375,-0.236 -0.288405,-0.11682 -1.739772,-0.70507 -3.225258,-1.3072 L 8.4410872,9.8705202 8.1683021,9.9821502 C 8.0182706,10.04355 7.495268,10.2581 7.0060725,10.45895 c -0.4891953,0.20086 -1.2180094,0.49969 -1.6195884,0.66407 -1.7068225,0.69868 -3.3529268,1.3792 -3.364767,1.39104 -0.020011,0.02 0.2707641,0.4399 0.5215749,0.75318 0.4633704,0.57878 1.0761584,1.13264 1.7280673,1.56189 1.0546247,0.69443 2.2090914,1.10153 3.4914053,1.23119 0.3896654,0.0394 1.3802164,0.0119 1.7865576,-0.0497 z M 2.5196829,11.48735 c 0.4158154,-0.32524 1.6550977,-1.29395 2.7539623,-2.1526698 1.0988632,-0.85873 1.9979332,-1.56497 1.9979332,-1.56944 0,-0.0171 0.9290131,-6.7237 0.9449593,-6.82169995 l 0.016822,-0.10339 -0.2883992,0.0193 c -1.5478059,0.10361 -3.0339071,0.68171995 -4.2553476,1.65537995 -0.3441451,0.27433 -0.9286578,0.85998 -1.1981074,1.20042 -0.7128075,0.90063 -1.2261377,1.96841 -1.4698037,3.05733 -0.33349413,1.49037 -0.21494609,3.08655 0.331728,4.4665498 0.1264164,0.31912 0.3705319,0.83957 0.3937998,0.83957 0.00903,0 0.3566376,-0.26611 0.7724529,-0.59136 z m 12.8163321,0.22629 c 0.344001,-0.72556 0.553931,-1.43808 0.674698,-2.2899898 0.04801,-0.33867 0.04814,-1.57161 2.01e-4,-1.91165 -0.210134,-1.49053 -0.78482,-2.81339 -1.699889,-3.91297 -1.284794,-1.54386 -3.024573,-2.4799 -5.0393938,-2.71132995 -0.2067608,-0.0238 -0.422598,-0.0394 -0.4796393,-0.0349 l -0.1037124,0.008 0.4806918,3.43830995 c 0.2643798,1.89106 0.4896207,3.45269 0.5005358,3.47029 0.010914,0.0176 0.8767259,0.70051 1.9240249,1.51759 1.0473,0.8170698 2.268588,1.7723698 2.713974,2.1228898 0.445388,0.35051 0.822897,0.63835 0.83891,0.63965 0.01601,10e-4 0.101341,-0.14998 0.189614,-0.33617 z m 12.464249,-0.69762 c -0.530907,-0.13908 -0.876448,-0.51166 -1.045892,-1.1277398 -0.05083,-0.18482 -0.05834,-0.2779 -0.05779,-0.71686 5.29e-4,-0.43355 0.0087,-0.53433 0.05828,-0.71687 0.169283,-0.62365 0.532743,-1.03638 1.029052,-1.16855 0.182586,-0.0486 0.577482,-0.0556 0.765079,-0.0136 0.565089,0.12664 0.913255,0.59174 1.024065,1.36801 0.01458,0.10222 0.02677,0.23663 0.02706,0.29869 l 5.29e-4,0.11284 H 28.4418 27.282954 l 0.01786,0.2987 c 0.03742,0.62543 0.172522,1.0317098 0.415841,1.2504698 0.164838,0.1482 0.338441,0.20907 0.596278,0.20907 0.531534,0 0.8471,-0.30285 0.981321,-0.9417998 0.01447,-0.0689 0.02352,-0.073 0.160864,-0.073 0.136702,0 0.145521,0.004 0.145521,0.065 0,0.12202 -0.131998,0.4831498 -0.23417,0.6406598 -0.183245,0.2825 -0.423132,0.45064 -0.754332,0.52873 -0.229243,0.054 -0.575495,0.0482 -0.811879,-0.0137 z m 1.174952,-2.3822498 c -0.05092,-0.51036 -0.154954,-0.81502 -0.342885,-1.00413 -0.347591,-0.34977 -0.871214,-0.22526 -1.110855,0.26416 -0.08762,0.17895 -0.169691,0.4844 -0.194067,0.72232 l -0.01746,0.17031 h 0.840242 0.840245 z m 5.218686,2.3937598 c -0.513935,-0.13641 -0.886436,-0.54009 -1.063522,-1.1525198 -0.08639,-0.29879 -0.101475,-0.90685 -0.03096,-1.24815 0.127283,-0.61607 0.411152,-1.0246 0.873459,-1.25706 0.186782,-0.0939 0.351403,-0.12748 0.621329,-0.12667 0.268544,7.9e-4 0.458004,0.0612 0.648792,0.20689 0.140772,0.10749 0.126495,0.11484 0.25336,-0.13051 0.06398,-0.12374 0.09144,-0.15267 0.144933,-0.15267 h 0.06599 v 0.6389 0.6389 l -0.08279,-0.008 c -0.07847,-0.008 -0.08582,-0.0187 -0.140999,-0.20745 -0.150386,-0.51444 -0.419269,-0.77285 -0.811688,-0.78007 -0.232971,-0.004 -0.389242,0.0595 -0.539594,0.22024 -0.276781,0.2959 -0.416227,0.80369 -0.416227,1.51565 0,1.0751798 0.30517,1.6242698 0.902721,1.6242698 0.413369,0 0.675053,-0.24607 0.80854,-0.76031 0.0226,-0.087 0.04108,-0.1796298 0.04108,-0.2057698 0,-0.0404 0.02394,-0.0475 0.159303,-0.0475 0.18738,0 0.185592,-0.005 0.106854,0.3027798 -0.126796,0.49577 -0.420013,0.82213 -0.835937,0.93044 -0.195472,0.0509 -0.510705,0.0504 -0.704652,-10e-4 z m 3.326148,0.002 c -0.377602,-0.0821 -0.739965,-0.36363 -0.93146,-0.72382 -0.320916,-0.6036098 -0.313338,-1.6740898 0.0163,-2.3013798 0.264221,-0.50281 0.700395,-0.76347 1.274146,-0.76144 0.28339,0.001 0.504198,0.0546 0.701781,0.17042 0.153564,0.09 0.371319,0.32463 0.455554,0.49086 0.10966,0.2164 0.200859,0.57323 0.223052,0.87274 l 0.02037,0.2749 H 38.126785 36.97377 l 0.01566,0.3518 c 0.03854,0.8655598 0.314179,1.3243498 0.83875,1.3960798 0.568441,0.0777 0.971666,-0.21941 1.112597,-0.8199198 l 0.04331,-0.18454 h 0.153101 0.153101 l -0.01535,0.0863 c -0.08571,0.4819298 -0.335751,0.8641598 -0.677331,1.0354398 -0.298889,0.14986 -0.708843,0.19269 -1.077566,0.11257 z m 1.134356,-2.3209598 c 0,-0.15489 -0.05895,-0.49623 -0.117596,-0.68091 -0.07743,-0.24382 -0.197708,-0.41635 -0.354523,-0.50853 -0.107244,-0.063 -0.153922,-0.0736 -0.324398,-0.073 -0.233593,8e-4 -0.361635,0.0558 -0.508939,0.21882 -0.168844,0.18689 -0.301546,0.55668 -0.352396,0.98198 l -0.01667,0.13939 h 0.837261 0.837258 z m 2.32283,2.3147498 c -0.700222,-0.24964 -1.089586,-0.99743 -1.040357,-1.9980598 0.04574,-0.92978 0.513487,-1.60356 1.20001,-1.72859 0.41186,-0.075 0.750771,0.0588 0.992145,0.39167 l 0.122981,0.16961 0.0079,-0.75052 c 0.0084,-0.79811 -0.0056,-0.92482 -0.108421,-0.98076 -0.03234,-0.0176 -0.142436,-0.0387 -0.244655,-0.0469 -0.166222,-0.0133 -0.18674,-0.0211 -0.194215,-0.0737 -0.0097,-0.0678 -0.01976,-0.0647 0.413459,-0.12753 0.164394,-0.0239 0.395145,-0.0664 0.512781,-0.0945 0.117636,-0.0281 0.218623,-0.0511 0.224412,-0.0511 0.0058,0 0.014,1.07232 0.01823,2.38292 0.0082,2.5389398 0.0047,2.4728098 0.13571,2.5546898 0.03182,0.0199 0.14447,0.0417 0.25034,0.0485 0.180827,0.0116 0.192493,0.0161 0.192493,0.0747 0,0.0708 -0.004,0.0722 -0.358434,0.11885 -0.131424,0.0173 -0.336865,0.0584 -0.456531,0.0913 l -0.217577,0.0598 -0.04129,-0.18155 c -0.0227,-0.0998 -0.04147,-0.21503 -0.04169,-0.25595 -7.94e-4,-0.1434 -0.04029,-0.15334 -0.113432,-0.0285 -0.08948,0.15268 -0.283925,0.32983 -0.439061,0.39999 -0.175024,0.0792 -0.624863,0.0933 -0.814808,0.0255 z m 0.799455,-0.26008 c 0.359537,-0.22129 0.507023,-0.7379 0.480689,-1.6837598 -0.01632,-0.58667 -0.05596,-0.81661 -0.190108,-1.10297 -0.150754,-0.32181 -0.365771,-0.47342 -0.669491,-0.47207 -0.278741,10e-4 -0.483862,0.14027 -0.619667,0.41999 -0.156425,0.32218 -0.237702,1.01734 -0.188156,1.60926 0.05977,0.7141298 0.224459,1.0968098 0.540872,1.2568398 0.118911,0.0601 0.16583,0.069 0.327252,0.0615 0.153951,-0.007 0.212265,-0.0234 0.318609,-0.0888 z m 3.156936,0.26675 c -0.794213,-0.17673 -1.217072,-0.89033 -1.172202,-1.9781798 0.03516,-0.8523 0.335108,-1.42697 0.87915,-1.68434 0.198051,-0.0937 0.363612,-0.12599 0.638209,-0.12449 0.398725,0.002 0.64361,0.0898 0.896218,0.32067 0.268864,0.24573 0.450652,0.70748 0.488064,1.23971 l 0.01744,0.24788 -1.152216,0.007 -1.15221,0.007 0.0081,0.27878 c 0.02217,0.7630398 0.270002,1.2879598 0.670933,1.4211198 0.14605,0.0485 0.491116,0.0567 0.630816,0.0149 0.331796,-0.0991 0.549794,-0.36651 0.658715,-0.8078898 l 0.04363,-0.17681 h 0.142213 c 0.165669,0 0.170471,0.0131 0.101632,0.2773898 -0.130733,0.50193 -0.517316,0.87992 -0.991995,0.96994 -0.192172,0.0364 -0.51177,0.0308 -0.70649,-0.0126 z m 1.116225,-2.4229098 c -0.06639,-0.64795 -0.254548,-1.02315 -0.568638,-1.13389 -0.538959,-0.19004 -0.982136,0.28253 -1.080526,1.15218 l -0.0182,0.16093 h 0.842865 0.84287 z m 1.286607,1.8253598 c 0,-0.6181898 0.0016,-0.6373298 0.0531,-0.6411998 0.02921,-0.002 0.06638,-0.005 0.08262,-0.007 0.01622,-10e-4 0.05579,0.087 0.0879,0.19648 0.115911,0.3953398 0.274164,0.6181298 0.527137,0.7420998 0.214429,0.10509 0.4279,0.12832 0.651883,0.0709 0.409297,-0.10485 0.636794,-0.42669 0.558774,-0.79049 -0.04398,-0.2050598 -0.202843,-0.3484298 -0.570788,-0.5150898 -0.545627,-0.24714 -0.952701,-0.4595 -1.063758,-0.55493 -0.06117,-0.0526 -0.144806,-0.16397 -0.185854,-0.24756 -0.06567,-0.13374 -0.07442,-0.18067 -0.07284,-0.39094 0.0021,-0.29495 0.06915,-0.48456 0.236927,-0.67117 0.35084,-0.39021 1.079606,-0.48314 1.573731,-0.20066 0.06226,0.0356 0.123774,0.0582 0.136686,0.0502 0.01291,-0.008 0.04497,-0.0743 0.07125,-0.14737 0.04188,-0.11647 0.05695,-0.13286 0.122179,-0.13286 h 0.07441 v 0.59739 0.59739 h -0.08834 c -0.08802,0 -0.08846,-5.3e-4 -0.121054,-0.17755 -0.06457,-0.35043 -0.260866,-0.6216 -0.502346,-0.69395 -0.128519,-0.0385 -0.409472,-0.0403 -0.542108,-0.003 -0.223805,0.0622 -0.425783,0.29136 -0.460859,0.52299 -0.05246,0.34642 0.09557,0.48843 0.851808,0.81716 0.502838,0.21858 0.701852,0.32882 0.837112,0.46367 0.19182,0.19125 0.224915,0.28311 0.224915,0.62435 0,0.2655298 -0.0069,0.3070298 -0.07618,0.4569798 -0.0846,0.18314 -0.307483,0.41663 -0.483367,0.50636 -0.271489,0.1385 -0.706893,0.18642 -1.021035,0.11237 -0.149175,-0.0352 -0.356624,-0.12838 -0.48119,-0.21622 -0.03876,-0.0273 -0.07678,-0.0497 -0.08449,-0.0497 -0.0077,0 -0.05343,0.0717 -0.101592,0.15931 -0.07437,0.13527 -0.09867,0.1593 -0.161102,0.1593 h -0.07352 z m 10.514042,0.61887 c -0.448236,-0.075 -0.851168,-0.37737 -1.045663,-0.78462 -0.308308,-0.6455498 -0.294386,-1.6419798 0.03162,-2.2623598 0.264211,-0.50279 0.700485,-0.76353 1.273987,-0.76139 0.562499,0.002 0.946529,0.23351 1.173253,0.70702 0.110567,0.2309 0.176543,0.46761 0.199824,0.71686 0.0082,0.0876 0.02021,0.21009 0.02677,0.27215 l 0.01188,0.11284 H 58.363869 57.20556 l 0.01506,0.32524 c 0.03128,0.6757898 0.195919,1.1090298 0.493062,1.2974698 0.15785,0.10011 0.288713,0.13431 0.513839,0.13431 0.490516,0 0.813776,-0.28139 0.944181,-0.8219098 l 0.04616,-0.19132 0.152664,-2e-4 c 0.08397,-10e-5 0.152667,0.01 0.152667,0.0221 0,0.0123 -0.0236,0.11458 -0.05245,0.2273798 -0.169672,0.6634 -0.648655,1.03195 -1.327123,1.02113 -0.124706,-0.002 -0.256609,-0.009 -0.293119,-0.0147 z m 1.026448,-2.4639898 c -0.04738,-0.56047 -0.201673,-0.9145 -0.466402,-1.07013 -0.103627,-0.0609 -0.151892,-0.0716 -0.321091,-0.0711 -0.370213,10e-4 -0.581025,0.19153 -0.747601,0.67515 -0.04068,0.1181 -0.127987,0.55656 -0.12846,0.64513 0,0.0109 0.377999,0.0199 0.840131,0.0199 h 0.840243 z M 20.440684,10.92716 c 0,-0.0857 0.0077,-0.0952 0.08629,-0.10729 0.256602,-0.0393 0.303238,-0.0501 0.372882,-0.0861 0.146744,-0.0759 0.147795,-0.0851 0.232653,-2.0357598 0.100864,-2.31865 0.102835,-2.43216 0.04379,-2.52227 -0.06129,-0.0935 -0.166502,-0.14434 -0.339844,-0.16407 -0.257748,-0.0293 -0.263022,-0.0319 -0.263018,-0.12649 l 4e-6,-0.0858 0.694951,0.003 0.694951,0.003 0.709528,1.93051 c 0.390239,1.06178 0.714743,1.93572 0.721119,1.9421 0.0064,0.006 0.338466,-0.8636 0.737979,-1.93328 l 0.726387,-1.94488 h 0.685156 0.685158 l 2.2e-5,0.0858 c 2.6e-5,0.0946 -0.0052,0.0971 -0.262997,0.12648 -0.171809,0.0195 -0.278503,0.0704 -0.337963,0.1612 -0.05315,0.0811 -0.05286,0.33567 0.0031,2.72413 0.04119,1.7573698 0.04137,1.7589898 0.195979,1.8389498 0.06325,0.0327 0.35031,0.0913 0.461618,0.0943 0.01095,2.6e-4 0.01991,0.0422 0.01991,0.0931 v 0.0925 l -0.165941,-0.0195 c -0.214986,-0.0253 -1.482051,-0.0254 -1.646138,-1.1e-4 l -0.126116,0.0194 v -0.0901 c 0,-0.0856 0.0056,-0.0909 0.11284,-0.10692 0.376638,-0.0562 0.480369,-0.12526 0.510379,-0.33975 0.01735,-0.12403 -0.05013,-4.1019098 -0.06992,-4.1216998 -0.01252,-0.0125 -1.454892,3.8688998 -1.583501,4.2611998 -0.06392,0.19496 -0.07627,0.21406 -0.133837,0.20697 -0.05756,-0.007 -0.0861,-0.0716 -0.30882,-0.69814 -0.291144,-0.8189998 -1.364619,-3.7262898 -1.39699,-3.7834598 -0.0163,-0.0288 -0.02288,-0.0178 -0.02374,0.0398 -6.08e-4,0.0438 -0.03634,0.97713 -0.07929,2.07406 -0.05539,1.41439 -0.07034,2.0224998 -0.05142,2.0910298 0.04695,0.17004 0.144458,0.22149 0.510181,0.2692 0.12455,0.0162 0.12746,0.0187 0.119478,0.10108 -0.0074,0.0759 -0.01625,0.0838 -0.08783,0.0785 -0.221131,-0.0165 -1.236011,-0.0136 -1.334168,0.004 l -0.11284,0.02 z m 9.611322,0.0141 c 0,-0.0749 0.0048,-0.0777 0.165942,-0.0958 0.204089,-0.023 0.321688,-0.0761 0.361391,-0.16327 0.03834,-0.0842 0.04299,-2.9208398 0.0049,-3.0208898 -0.03473,-0.0914 -0.09786,-0.11909 -0.317349,-0.13949 -0.172813,-0.0161 -0.188386,-0.0225 -0.188386,-0.0776 0,-0.0526 0.01744,-0.0623 0.13939,-0.0775 0.267952,-0.0335 0.641273,-0.0995 0.753139,-0.13319 l 0.11279,-0.0339 0.01437,0.0964 c 0.0079,0.053 0.02066,0.15318 0.02835,0.22254 0.0077,0.0694 0.02114,0.18287 0.0299,0.25223 l 0.0159,0.12612 0.05373,-0.1062 c 0.127916,-0.25284 0.36226,-0.45951 0.591077,-0.52128 0.137178,-0.037 0.402653,-0.0354 0.504872,0.003 0.252138,0.0949 0.411533,0.31873 0.411533,0.57784 0,0.26227 -0.13413,0.39717 -0.368609,0.37075 -0.09191,-0.0104 -0.138576,-0.0335 -0.194863,-0.0965 -0.0703,-0.0787 -0.07316,-0.0919 -0.05711,-0.26462 0.01513,-0.16282 0.01098,-0.18771 -0.03969,-0.23839 -0.08072,-0.0807 -0.269372,-0.077 -0.414774,0.008 -0.180228,0.10561 -0.299791,0.32 -0.371157,0.66552 -0.05895,0.28539 -0.06,2.2881398 -0.0013,2.4017298 0.04322,0.0836 0.132559,0.12145 0.352258,0.14934 0.131829,0.0168 0.139391,0.0219 0.139391,0.0942 0,0.0755 -0.0016,0.0763 -0.11284,0.0566 -0.149468,-0.0265 -1.295992,-0.0262 -1.473559,2.7e-4 l -0.139391,0.0208 v -0.0771 z m 29.869444,-5.3e-4 c 0,-0.0728 0.0067,-0.0771 0.147989,-0.0937 0.191058,-0.0225 0.316696,-0.0759 0.360974,-0.15361 0.02769,-0.0486 0.03721,-0.33728 0.04404,-1.3364198 0.0048,-0.70094 7.94e-4,-1.36098 -0.0089,-1.46676 -0.02487,-0.27183 -0.058,-0.3052 -0.321466,-0.32386 -0.198964,-0.0141 -0.209751,-0.0181 -0.217057,-0.0812 -0.0075,-0.0645 -2.64e-4,-0.0676 0.265507,-0.11119 0.150254,-0.0247 0.37932,-0.0758 0.509032,-0.11375 0.129712,-0.0379 0.239956,-0.0648 0.244988,-0.0598 0.01736,0.0173 0.06241,0.37796 0.06293,0.50375 2.65e-4,0.0694 0.0095,0.12545 0.02045,0.12464 0.01095,-8e-4 0.06988,-0.0648 0.130943,-0.14225 0.226282,-0.28688 0.517742,-0.42143 0.911169,-0.42064 0.540896,10e-4 0.892977,0.24139 1.067025,0.72822 0.0583,0.16308 0.06048,0.20498 0.074,1.42199 l 0.01392,1.2539498 0.06965,0.0696 c 0.05495,0.0549 0.112355,0.0758 0.272142,0.0988 0.197327,0.0284 0.202499,0.0311 0.202499,0.10377 v 0.0746 l -0.152664,-0.0201 c -0.197816,-0.0261 -1.196094,-0.0261 -1.393907,0 l -0.152668,0.0201 v -0.0762 c 0,-0.0728 0.0067,-0.077 0.148315,-0.0937 0.174395,-0.0205 0.288237,-0.0735 0.33545,-0.1561 0.02558,-0.0448 0.03606,-0.31543 0.04242,-1.0949298 0.01098,-1.34727 -0.01802,-1.60557 -0.202348,-1.80216 -0.120189,-0.12817 -0.255939,-0.1747 -0.50969,-0.1747 -0.342932,0 -0.543685,0.11013 -0.677051,0.37143 -0.112233,0.21989 -0.122959,0.36611 -0.114318,1.55838 l 0.0081,1.1211798 0.06861,0.0686 c 0.04989,0.0499 0.116906,0.0769 0.245594,0.0989 0.169471,0.029 0.176988,0.0335 0.176988,0.10549 v 0.0752 l -0.13939,-0.0208 c -0.176345,-0.0264 -1.26999,-0.0264 -1.420461,-10e-5 -0.111154,0.0195 -0.11284,0.0186 -0.11284,-0.0566 z m -7.779329,-0.0406 v -0.0897 l 0.200541,-0.0298 c 0.110299,-0.0164 0.234069,-0.0472 0.275042,-0.0684 0.151582,-0.0784 0.148354,-0.0281 0.148354,-2.3111098 0,-2.2804 0.003,-2.23283 -0.146981,-2.3104 -0.04022,-0.0208 -0.125156,-0.0447 -0.188751,-0.0532 -0.304186,-0.0406 -0.288205,-0.0331 -0.288205,-0.13518 v -0.0936 l 1.254516,0.01 c 1.120328,0.009 1.270135,0.0151 1.400543,0.0579 0.589314,0.19331 0.902721,0.60801 0.902721,1.19448 0,0.24127 -0.05003,0.44636 -0.150995,0.61898 -0.09012,0.15407 -0.321003,0.35875 -0.512786,0.45458 l -0.159883,0.0799 0.152964,0.0442 c 0.576056,0.16628 0.91019,0.61911 0.909341,1.2324 -7.94e-4,0.6643598 -0.385868,1.1882698 -1.021882,1.3907798 -0.252925,0.0805 -0.54729,0.0979 -1.661337,0.0979 h -1.113202 z m 2.481138,-0.22891 c 0.405826,-0.15639 0.625284,-0.54927 0.625284,-1.1193898 0,-0.56043 -0.166666,-0.906 -0.511712,-1.06097 -0.129693,-0.0583 -0.17753,-0.063 -0.730671,-0.0716 l -0.591888,-0.009 0.0078,1.0721 c 0.007,0.9695098 0.01222,1.0788998 0.05438,1.1431698 0.06848,0.10444 0.175983,0.12499 0.603888,0.11544 0.324278,-0.007 0.409892,-0.0182 0.542943,-0.0695 z M 54.452452,8.1070002 c 0.191203,-0.0561 0.391049,-0.25527 0.480007,-0.47833 0.05579,-0.13987 0.0626,-0.19977 0.06319,-0.55505 5.29e-4,-0.38457 -0.0021,-0.40403 -0.07673,-0.56588 -0.04656,-0.10083 -0.1192,-0.20341 -0.182311,-0.25743 -0.1793,-0.15348 -0.292761,-0.17961 -0.835509,-0.19247 l -0.484547,-0.0115 v 1.04686 c 0,0.57577 0.009,1.05633 0.01992,1.0679 0.03439,0.0363 0.857112,-0.007 1.015989,-0.0541 z M 64.368,10.49201 c 0.1665,-0.27381 0.636455,-1.0474198 1.044342,-1.7191598 l 0.741617,-1.22132 -0.587309,-0.008 c -0.387112,-0.005 -0.625523,0.003 -0.699418,0.0232 -0.167876,0.0462 -0.290238,0.18414 -0.438407,0.49431 -0.120221,0.25168 -0.136599,0.27345 -0.205737,0.27345 -0.05795,0 -0.07265,-0.0106 -0.06434,-0.0465 0.01191,-0.0514 0.1701,-0.9374 0.1701,-0.9528 0,-0.005 0.59739,-0.01 1.327531,-0.01 0.730142,0 1.327531,0.005 1.327531,0.0121 0,0.007 -0.461375,0.76833 -1.025276,1.6926 -0.563904,0.92426 -1.03146,1.6962398 -1.039016,1.7154998 -0.01119,0.0285 0.09906,0.0334 0.593828,0.0265 0.564325,-0.008 0.615257,-0.0126 0.715582,-0.0663 0.197866,-0.10592 0.365955,-0.34197 0.502369,-0.70552 0.0419,-0.1116598 0.05639,-0.1261098 0.12646,-0.1261098 0.07211,0 0.07787,0.006 0.06482,0.073 -0.0079,0.0402 -0.05334,0.2910598 -0.101031,0.5575598 l -0.08672,0.48455 H 65.4001 64.065269 Z M 50.310127,8.9056102 v -0.19913 h 0.862896 0.862894 v 0.19913 0.19913 h -0.862894 -0.862896 z"
       id="path480" /></g></svg>
