<?xml version="1.0" encoding="UTF-8" standalone="no"?>
<!-- Created with Inkscape (http://www.inkscape.org/) -->

<svg
   width="349.25024mm"
   height="110.85356mm"
   viewBox="0 0 349.25024 110.85356"
   version="1.1"
   id="svg5"
   xml:space="preserve"
   xmlns:inkscape="http://www.inkscape.org/namespaces/inkscape"
   xmlns:sodipodi="http://sodipodi.sourceforge.net/DTD/sodipodi-0.dtd"
   xmlns="http://www.w3.org/2000/svg"
   xmlns:svg="http://www.w3.org/2000/svg"><sodipodi:namedview
     id="namedview7"
     pagecolor="#ffffff"
     bordercolor="#000000"
     borderopacity="0.25"
     inkscape:showpageshadow="2"
     inkscape:pageopacity="0.0"
     inkscape:pagecheckerboard="0"
     inkscape:deskcolor="#d1d1d1"
     inkscape:document-units="mm"
     showgrid="false" /><defs
     id="defs2" /><g
     inkscape:label="Layer 1"
     inkscape:groupmode="layer"
     id="layer1"
     transform="translate(139.25025,158.62513)"><path
       style="fill:#ffffff;stroke-width:0.264583"
       d="m 57.36311,-48.165453 c -2.17769,-0.61301 -3.89485,-1.66776 -5.45024,-3.34776 -3.19327,-3.44912 -3.65657,-8.90757 -1.11602,-13.14861 1.08306,-1.808 2.51591,-3.06137 4.68649,-4.09948 1.55257,-0.74253 2.0028,-0.82982 4.63021,-0.89769 2.46922,-0.0638 3.17112,0.0157 4.63021,0.52466 l 1.71979,0.59984 0.0777,1.91823 c 0.0428,1.05502 0.0228,1.91823 -0.0444,1.91823 -0.0672,0 -0.69824,-0.28936 -1.40236,-0.64302 -5.19739,-2.6105 -10.77929,-0.44517 -12.00309,4.65624 -0.62978,2.62521 0.32273,5.93708 2.14965,7.47433 1.79826,1.51314 2.82587,1.85927 5.53393,1.86403 2.58544,0.005 2.53712,0.0181 5.8991,-1.65717 0.1158,-0.0577 0.17533,0.76978 0.13229,1.83885 l -0.0783,1.94378 -1.56382,0.61959 c -2.03701,0.80707 -5.7464,1.01436 -7.8012,0.43595 z m 40.71815,-3.3e-4 c -0.80036,-0.19634 -1.90169,-0.54521 -2.4474,-0.77526 l -0.99218,-0.41826 v -1.97694 -1.97693 l 0.85989,0.52968 c 2.32093,1.42965 6.62635,2.03198 8.13872,1.1386 1.43108,-0.84536 1.74455,-2.71858 0.66886,-3.99696 -0.46165,-0.54864 -1.21274,-0.94404 -2.57969,-1.35803 -3.42322,-1.03675 -5.17293,-1.876 -6.13782,-2.94401 -2.50986,-2.77812 -1.62348,-7.26466 1.78761,-9.04826 1.69251,-0.88498 6.03535,-0.95886 8.37493,-0.14247 l 1.71979,0.60013 0.0775,1.90839 0.0775,1.90839 -1.26681,-0.56037 c -2.94282,-1.30175 -5.39957,-1.58727 -6.95776,-0.80861 -1.71442,0.85673 -2.02131,2.9178 -0.60083,4.03515 0.37497,0.29495 1.70529,0.84698 2.95625,1.22672 5.22786,1.58698 6.90469,3.20187 6.90469,6.64967 0,4.79804 -4.68265,7.45692 -10.58333,6.00937 z m -195.02859,-1.75384 c -18.07159,-10.34978 -31.07092,-24.07296 -37.41346,-39.49679 l -0.97091,-2.36108 0.59056,-0.44546 c 0.32481,-0.24501 1.82445,-1.18675 3.33252,-2.09278 1.50808,-0.90602 2.74196,-1.69888 2.74196,-1.76192 0,-0.063 -0.64661,-1.40393 -1.43692,-2.97975 l -1.43692,-2.865137 3.35515,-1.6317 c 1.84533,-0.89744 3.43146,-1.6302 3.52474,-1.62837 0.0933,0.002 0.67429,1.37934 1.29116,3.06114 0.91357,2.490697 1.20108,3.025327 1.55021,2.882627 1.64894,-0.67395 5.93848,-2.204437 6.97706,-2.489397 0.69123,-0.18965 1.25677,-0.40878 1.25677,-0.48695 0,-0.0782 -0.3656,-1.50288 -0.81245,-3.16601 -0.44685,-1.66313 -0.74889,-3.08743 -0.6712,-3.16512 0.18659,-0.1866 6.23834,-1.66005 6.81812,-1.66005 0.54538,0 0.62394,0.25278 1.04844,3.37359 0.18311,1.34616 0.41457,2.57966 0.51436,2.74111 0.13124,0.21236 1.03845,0.17573 3.28003,-0.13245 1.70423,-0.2343 3.614128,-0.426 4.24422,-0.426 2.03704,0 1.989833,0.0942 1.802723,-3.59757 l -0.166317,-3.2816 h 3.911285 3.911285 l -0.191585,3.2099 c -0.218062,3.65356 -0.21558,3.65875 1.753873,3.66522 0.678373,0.002 2.62083,0.1948 4.316571,0.42793 1.695744,0.23313 3.134617,0.37243 3.1975,0.30955 0.06288,-0.0629 0.318548,-1.50379 0.568151,-3.20201 0.410622,-2.79378 0.505666,-3.08767 0.998569,-3.08767 0.583311,0 6.698287,1.44616 6.878965,1.62684 0.05943,0.0594 -0.242503,1.41434 -0.670964,3.01092 -0.428461,1.59658 -0.779127,3.02826 -0.779254,3.18152 -1.3e-4,0.15325 0.862968,0.55338 1.917994,0.88917 1.055026,0.33579 2.977671,1.01627 4.272542,1.512167 1.294873,0.49591 2.380906,0.86969 2.413407,0.83062 0.0325,-0.0391 0.508675,-1.321187 1.058164,-2.849157 0.549487,-1.52796 1.092486,-2.88315 1.206664,-3.01153 0.251942,-0.28326 6.858077,2.86266 6.858077,3.2659 0,0.15643 -0.595313,1.47071 -1.322917,2.920627 -0.727604,1.44992 -1.322916,2.68464 -1.322916,2.74383 0,0.0592 1.481934,1.02553 3.293189,2.14745 l 3.293187,2.03986 -0.53376,1.36308 c -6.44638,16.46227 -20.105502,30.85037 -39.42079,41.52464 l -1.750462,0.96737 z m 5.515433,-17.68939 c 1.59321,-1.25322 2.859119,-1.41506 11.227953,-1.43549 4.317045,-0.0105 7.905436,-0.0787 7.974201,-0.15145 0.13085,-0.13845 -0.78662,-23.83273 -0.926441,-23.92601 -0.04415,-0.0294 -1.003329,-0.79778 -2.131521,-1.70741 -1.677199,-1.35227 -2.15968,-1.61673 -2.645833,-1.45023 -0.327017,0.112 -3.154421,0.21108 -6.283119,0.22018 -5.582174,0.0162 -5.72489,0.0305 -7.632398,0.76157 l -1.943857,0.74501 -1.231143,-0.52683 c -2.227487,-0.95321 -4.290637,-1.19465 -8.781095,-1.02764 -2.47585,0.0921 -4.57627,0.0485 -5.1379,-0.10655 -0.91634,-0.25301 -1.02502,-0.20323 -3.06837,1.4054 -1.16511,0.91725 -2.16513,1.90584 -2.22227,2.19688 -0.19629,0.99994 -0.94492,23.23354 -0.78759,23.39071 0.0866,0.0865 3.68949,0.16688 8.00652,0.1787 8.356579,0.0229 9.574937,0.17888 11.156437,1.42848 0.935281,0.73899 3.489465,0.7417 4.426426,0.005 z m -2.949078,-1.56248 c -0.251211,-0.27758 -1.013804,-0.74373 -1.694651,-1.03587 -2.296731,-0.98552 -4.292014,-1.17794 -10.366034,-0.99972 -3.33009,0.0977 -5.84279,0.0659 -6.06059,-0.0766 -0.31796,-0.20812 -0.32612,-1.60302 -0.0561,-9.59508 0.17376,-5.14336 0.37865,-9.78169 0.45531,-10.30739 0.10733,-0.73598 0.39912,-1.15045 1.26854,-1.80188 l 1.12915,-0.84604 4.94938,-0.12787 c 5.529998,-0.14287 7.160964,0.0576 9.549347,1.17354 l 1.597284,0.74634 1.228169,-0.61363 c 2.486314,-1.24224 4.027742,-1.45209 9.635892,-1.31185 l 5.176986,0.12946 1.150274,0.87784 1.150273,0.87784 0.15439,2.64583 c 0.376547,6.45295 0.73356,17.90028 0.563554,18.06986 -0.102767,0.10252 -3.302111,0.18907 -7.109653,0.19234 -7.627527,0.007 -8.469667,0.13982 -10.78139,1.70621 -1.388959,0.94114 -1.360781,0.93683 -1.940105,0.29668 z m -0.481496,-12.79061 -0.06981,-8.53281 -1.322917,-0.65945 c -1.205241,-0.6008 -1.628876,-0.65963 -4.762502,-0.66146 -1.89177,-0.001 -4.05303,0.0572 -4.8028,0.12956 l -1.36322,0.13157 -0.1492,2.11739 c -0.0821,1.16456 -0.18298,4.8502 -0.22428,8.1903 l -0.0751,6.0729 0.66146,0.18458 c 0.3638,0.10151 1.67349,0.1985 2.91042,0.21553 3.19961,0.044 6.987545,0.48142 7.999045,0.92361 0.475472,0.20786 0.955439,0.38764 1.066596,0.39951 0.111157,0.0119 0.170688,-3.81818 0.132292,-8.51123 z m 8.97079,7.34592 c 1.867149,-0.08609 4.019894,-0.22002 4.783878,-0.29761 l 1.389063,-0.14107 -7.94e-4,-3.3544 c -5.29e-4,-1.84492 -0.07811,-5.56784 -0.172656,-8.27316 l -0.171911,-4.91875 -3.465361,-0.27893 c -3.83132,-0.3084 -5.483315,-0.14716 -7.534842,0.73538 l -1.354481,0.58268 v 8.53863 8.53864 l 1.566122,-0.48743 c 0.989727,-0.30804 2.815553,-0.54505 4.960937,-0.64398 z m 63.322941,15.88336 v -10.72771 h 1.79151 1.791509 l 5.749116,7.70706 5.749115,7.70707 v -7.70707 -7.70706 h 1.852083 1.852084 v 10.71562 10.71563 h -1.79206 -1.792063 l -5.682416,-7.65245 c -3.12533,-4.20885 -5.743946,-7.66166 -5.819143,-7.67292 -0.0752,-0.0113 -0.134731,3.40258 -0.132292,7.5863 l 0.0044,7.60677 -1.785937,0.0782 -1.785938,0.0782 v -10.72771 z m 23.8125,-0.0121 v -10.71563 h 6.35 6.35 v 1.5875 1.5875 H 9.445843 4.947927 v 2.77813 2.77812 h 3.836458 3.836458 v 1.5875 1.5875 H 8.784385 4.947927 v 3.04271 3.04271 h 4.630208 4.630208 v 1.71979 1.71979 H 7.726052 1.24376 Z m 19.6234,0.20859 c -1.78141,-5.79004 -3.2345,-10.61664 -3.22908,-10.72578 0.005,-0.10914 0.87393,-0.19844 1.93002,-0.19844 h 1.92017 l 2.37397,7.95563 c 1.57023,5.26216 2.43747,7.79274 2.56156,7.47448 0.10318,-0.26463 0.79882,-2.50521 1.54586,-4.97907 0.74705,-2.47385 1.77741,-5.83737 2.28969,-7.47448 l 0.93142,-2.97656 h 1.38921 1.38921 l 2.32868,7.60677 c 1.28077,4.18373 2.41386,7.77056 2.51797,7.97074 0.13017,0.2503 0.24474,0.12635 0.36684,-0.39687 0.0977,-0.41847 1.1442,-4.0053 2.32566,-7.97074 l 2.14811,-7.2099 h 1.91108 1.91107 l -3.26662,10.51719 c -1.79664,5.78445 -3.2698,10.61149 -3.27367,10.72675 -0.004,0.11527 -0.92502,0.1748 -2.04698,0.1323 l -2.03994,-0.0773 -2.12634,-6.94531 c -1.16948,-3.81992 -2.18628,-6.94485 -2.25954,-6.94429 -0.0733,5.3e-4 -1.08593,3.12595 -2.25036,6.94531 l -2.11716,6.94429 -1.99595,0.0763 -1.99595,0.0763 z m 49.43355,10.44089 c 2.7e-4,-0.0364 1.95458,-4.82865 4.34264,-10.64948 l 4.34195,-10.58333 h 1.91285 1.91285 l 4.32638,10.58333 c 2.37951,5.82083 4.32704,10.6131 4.32784,10.64948 8e-4,0.0364 -0.88361,0.0661 -1.96537,0.0661 h -1.96682 l -1.00974,-2.64077 -1.00974,-2.64077 -4.65695,-0.005 -4.65694,-0.005 -1.03112,2.64583 -1.03112,2.64584 h -1.91871 c -1.05528,0 -1.91839,-0.0298 -1.918,-0.0661 z m 13.75763,-8.58498 c 0,-0.29688 -2.95928,-8.13047 -3.15283,-8.34594 -0.0969,-0.10781 -0.62416,1.02329 -1.17182,2.51355 -0.54765,1.49025 -1.28148,3.4537 -1.63073,4.3632 l -0.63498,1.65365 h 3.29518 c 1.81235,0 3.29518,-0.083 3.29518,-0.18446 z m 34.39584,-0.477 v -9.12812 h -3.43959 -3.43958 v -1.5875 -1.5875 h 8.86354 8.86354 v 1.57981 1.57983 l -3.50573,0.0738 -3.50573,0.0738 -0.0696,9.06198 -0.0696,9.06198 h -1.84861 -1.84861 z m 15.34583,-1.5875 v -10.71562 h 1.85208 1.85209 v 8.99583 8.99583 h 4.89479 4.89479 v 1.71979 1.7198 h -6.74688 -6.74687 z m 17.4625,0 v -10.71562 h 6.35 6.35 v 1.5875 1.5875 h -4.50718 -4.50717 l 0.0754,2.71197 0.0754,2.71198 3.91559,0.0733 3.9156,0.0733 -0.0791,1.51421 -0.0791,1.5142 -3.90261,0.0732 -3.9026,0.0732 v 3.03564 3.03563 h 4.6302 4.63021 v 1.71979 1.7198 h -6.48229 -6.48229 z m -5.55625,-20.58499 c 0,-0.0531 1.12945,-2.49542 2.50986,-5.42735 l 2.50989,-5.33079 -3.95771,-8.6701 -3.95772,-8.670097 3.07949,-0.0749 c 1.6937,-0.0412 3.1642,0.0183 3.26776,0.13229 0.10356,0.11397 1.10921,2.46941 2.23475,5.2343 1.12554,2.764897 2.12976,5.117917 2.2316,5.228937 0.10184,0.11103 1.23677,-2.24046 2.52204,-5.225517 l 2.33685,-5.42738 h 2.99598 c 2.61707,0 2.9758,0.0527 2.8362,0.41647 -0.0879,0.22905 -2.92494,6.56913 -6.30454,14.089057 l -6.14471,13.6726 -3.07988,0.0745 c -1.69392,0.041 -3.07986,0.0311 -3.07986,-0.022 z m -160.205208,-8.3927 c -3.117199,-0.62568 -5.824419,-2.24994 -7.282622,-4.36937 -1.930427,-2.80577 -2.368902,-6.01927 -2.372408,-17.386787 l -0.0023,-7.34219 h 3.151606 3.151605 l 0.110964,9.19428 c 0.12369,10.248397 0.255376,11.153537 1.846805,12.693797 1.232124,1.19252 2.542619,1.66079 4.628959,1.65403 2.196415,-0.007 3.634444,-0.60313 4.765323,-1.97508 1.370833,-1.66306 1.463503,-2.38541 1.587267,-12.372747 l 0.113938,-9.19428 h 3.044433 3.044436 l -0.102867,9.59115 c -0.114104,10.638717 -0.270417,11.839497 -1.892599,14.538577 -2.361626,3.92941 -8.304361,6.07022 -13.792578,4.96862 z m 81.547638,-0.014 c -2.86751,-0.5894 -5.59629,-2.35173 -6.93153,-4.4766 -1.78349,-2.83819 -1.96871,-7.04252 -0.44647,-10.134627 1.06971,-2.17288 3.16849,-4.15357 5.27239,-4.97574 2.1646,-0.84589 5.68689,-0.85166 7.79665,-0.0128 1.92156,0.76405 3.74135,2.51791 4.63268,4.46483 0.54205,1.18398 0.71215,2.04264 0.81089,4.093187 l 0.12496,2.5949 h -6.76849 -6.76848 l 0.27293,0.78295 c 0.36973,1.06062 2.08332,2.55906 3.31883,2.90214 2.15516,0.59845 4.76247,0.22938 7.29477,-1.0326 l 1.52136,-0.75817 v 2.48563 2.48563 l -0.8599,0.44489 c -2.09963,1.08629 -6.74433,1.65562 -9.27059,1.13636 z m 5.63257,-12.574017 c 0,-0.0871 -0.19127,-0.56153 -0.42504,-1.05417 -1.14947,-2.42232 -5.10146,-2.6866 -6.6548,-0.44502 -1.17714,1.6987 -1.25442,1.65764 3.11939,1.65764 2.17825,0 3.96045,-0.0713 3.96045,-0.15845 z m 29.12009,12.471917 c -1.08264,-0.20553 -2.48163,-0.56967 -3.10885,-0.80921 l -1.14041,-0.43553 v -2.62395 c 0,-1.44317 0.0451,-2.62395 0.10032,-2.62395 0.0552,0 0.73979,0.29205 1.52136,0.64899 1.9982,0.91258 4.31243,1.46768 6.11885,1.46768 1.30153,0 1.64971,-0.10577 2.21757,-0.67363 0.61524,-0.61524 0.6405,-0.72417 0.2915,-1.25677 -0.40053,-0.61125 -0.93554,-0.80406 -4.82564,-1.73909 -4.23778,-1.01859 -5.94017,-2.64053 -5.94877,-5.667617 -0.008,-2.67495 1.72136,-4.93351 4.52369,-5.90935 2.16277,-0.75313 6.84081,-0.65125 9.49487,0.20678 l 1.98438,0.64152 0.0757,2.56887 c 0.0419,1.42047 -0.0318,2.56887 -0.1648,2.56887 -0.13229,0 -0.8206,-0.25659 -1.52957,-0.5702 -3.93873,-1.74229 -8.30323,-1.71604 -8.30323,0.0499 0,0.75943 0.91506,1.19837 3.73917,1.79365 4.49036,0.946487 6.45788,2.187567 7.09284,4.474067 0.3709,1.3356 0.35291,1.85015 -0.12043,3.44406 -0.51428,1.73175 -2.37019,3.47542 -4.40262,4.13633 -1.93534,0.62934 -5.22419,0.76258 -7.61595,0.30854 z m 32.9247,0.15445 c -1.41152,-0.37394 -2.98376,-1.32324 -3.58124,-2.16234 -1.07871,-1.51488 -1.31355,-2.9392 -1.31355,-7.96638 v -4.720447 h -1.5875 -1.5875 v -2.50034 -2.50034 l 1.52135,-0.0794 1.52136,-0.0794 0.0754,-2.55414 0.0754,-2.55415 1.77665,-0.30991 c 0.97718,-0.17045 2.34222,-0.37713 3.03345,-0.45927 l 1.25677,-0.14936 v 3.07956 3.07956 h 2.51354 2.51354 v 2.51355 2.51354 h -2.51354 -2.51354 v 4.197647 c 0,3.89954 0.0406,4.2492 0.57099,4.92356 0.52806,0.6713 0.68234,0.71657 2.05052,0.60164 0.81376,-0.0684 1.69254,-0.2149 1.95289,-0.32564 0.43837,-0.18646 0.46773,-0.0179 0.39688,2.27781 l -0.0765,2.47916 -1.05833,0.34676 c -1.33975,0.43896 -3.99127,0.62263 -5.02709,0.34823 z M 4.947927,-97.770953 v -9.789587 h 3.042708 3.042708 v 0.79375 c 0,0.43657 0.0619,0.79375 0.137549,0.79375 0.07565,0 0.597281,-0.29021 1.159177,-0.64492 3.774841,-2.38295 8.753431,-1.66426 10.733661,1.54948 l 0.8019,1.30144 0.0806,7.892837 0.0806,7.89283 h -3.05721 -3.0572 v -6.63493 -6.634937 l -0.7734,-0.7734 c -1.03735,-1.03735 -2.54921,-1.05261 -4.53697,-0.0458 l -1.436505,0.7276 -0.07069,6.680727 -0.07069,6.68073 H 7.985999 4.947834 Z m 23.018753,0 v -9.789587 h 3.04271 3.0427 v 9.789587 9.78958 h -3.0427 -3.04271 z m 12.87157,0.19844 c -2.13493,-5.275137 -3.88036,-9.680447 -3.87872,-9.789587 0.002,-0.10914 1.40211,-0.19844 3.11216,-0.19844 h 3.10919 l 1.9633,5.49011 c 1.07981,3.019557 2.10033,5.847067 2.26781,6.283367 l 0.30452,0.79326 0.49141,-1.32243 c 0.27028,-0.72734 1.34099,-3.52509 2.37937,-6.217217 l 1.88794,-4.89479 2.99101,-0.0751 c 2.77545,-0.0697 2.97853,-0.0411 2.81784,0.39687 -0.0952,0.25959 -1.86569,4.66682 -3.93434,9.793837 l -3.76119,9.32185 -2.9343,0.005 -2.93429,0.005 z m 40.83884,-0.19844 v -9.789587 h 2.91042 2.91042 v 1.19063 c 0,1.28529 0.21624,1.48787 0.72265,0.67698 0.64285,-1.02937 2.64401,-1.93304 4.58881,-2.07219 l 1.83229,-0.1311 v 2.92079 2.92079 l -1.03575,-0.13892 c -1.44086,-0.19326 -3.51885,0.36076 -4.7802,1.27448 l -1.06322,0.7702 v 6.083747 6.08376 H 84.7198 81.67709 Z m 35.71875,0 v -9.789587 h 3.04271 3.04271 v 9.789587 9.78958 h -3.04271 -3.04271 z m -253.48999,3.53352 c -0.52754,-1.36574 -1.80014,-6.530327 -2.20719,-8.957477 -0.82103,-4.89554 -0.94322,-8.937 -0.94592,-31.28698 l -0.003,-22.55573 h 45.657999 45.65803 l -0.106977,24.14323 c -0.09289,20.96422 -0.166142,24.54387 -0.556329,27.18594 -0.699643,4.73748 -2.40049,11.828377 -2.875147,11.986587 -0.264224,0.0881 -4.484264,-2.54968 -4.612098,-2.88281 -0.06618,-0.17246 0.539176,-1.62859 1.345242,-3.23585 l 1.465575,-2.922267 -3.234515,-1.65113 c -4.843794,-2.47262 -7.157535,-3.43467 -7.38301,-3.06984 -0.104257,0.16869 -0.631122,1.55988 -1.170816,3.09153 -0.539692,1.53165 -1.021837,2.83412 -1.071433,2.89438 -0.07561,0.0919 -5.078666,-1.51461 -5.336085,-1.71341 -0.04684,-0.0362 0.297654,-1.51256 0.765532,-3.28085 0.49166,-1.85817 0.750933,-3.30689 0.614326,-3.43263 -0.503807,-0.46374 -10.619793,-2.81869 -10.90082,-2.53766 -0.111961,0.11196 -1.094026,5.95649 -1.105437,6.57877 -0.0021,0.12193 -0.50124,0.13769 -1.108896,0.035 -0.607655,-0.10266 -1.947108,-0.26196 -2.976562,-0.35399 l -1.871734,-0.16732 0.09853,-3.47806 0.09852,-3.47807 -2.81141,-0.19162 c -1.546274,-0.10537 -4.192375,-0.10531 -5.880226,1.5e-4 l -3.068815,0.19175 0.151514,1.36127 c 0.08333,0.7487 0.183263,2.31378 0.22207,3.47794 l 0.07056,2.11667 -1.980998,0.17612 c -1.08955,0.0969 -2.42496,0.24671 -2.96758,0.33296 -0.87126,0.13851 -1.00169,0.087 -1.11576,-0.4407 -0.14569,-0.67399 -0.94036,-5.85527 -0.94036,-6.13121 0,-0.30549 -6.21412,0.97576 -9.54802,1.96864 l -1.78693,0.53217 0.88445,3.31854 c 0.62465,2.34372 0.79333,3.35046 0.57425,3.4272 -0.17062,0.0598 -1.3006,0.4692 -2.51107,0.90986 -1.21048,0.44067 -2.29715,0.80121 -2.41483,0.80121 -0.11768,0 -0.71953,-1.42875 -1.33744,-3.175 -0.6179,-1.74625 -1.16187,-3.175 -1.20881,-3.175 -0.56717,0 -10.43285,4.90567 -10.43285,5.1877 0,0.062 0.65484,1.4185 1.45521,3.014377 0.80036,1.59589 1.4552,2.94982 1.4552,3.00875 0,0.0589 -0.74414,0.57408 -1.65364,1.14478 -0.90951,0.57069 -1.97926,1.25134 -2.37723,1.51256 -0.7234,0.4748 -0.72366,0.47472 -1.01537,-0.28048 z m 11.60498,-27.147587 0.0765,-2.3151 h -4.37592 -4.37593 v 2.3878 2.3878 l 4.29948,-0.0727 4.29948,-0.0727 z m 5.35141,-1.5875 c 0.004,-4.56662 0.11587,-4.95193 1.76827,-6.11328 1.01549,-0.71372 1.17233,-0.74982 1.91708,-0.44134 0.44611,0.18479 1.16774,0.74216 1.60364,1.23862 l 0.79253,0.90264 v 4.22413 4.22413 h 1.71979 1.71979 v -3.31784 c 0,-2.79569 0.0833,-3.48106 0.52917,-4.35508 0.45735,-0.89647 0.52917,-1.55939 0.52917,-4.88425 v -3.847 h -1.19063 -1.19062 v 1.05833 1.05834 h -1.05834 -1.05833 v -1.05834 c 0,-1.02959 -0.0247,-1.05833 -0.91007,-1.05833 -0.86065,0 -0.91453,0.0539 -0.99219,0.99219 -0.0777,0.9383 -0.136,0.99664 -1.0743,1.0743 l -0.99219,0.0821 v -1.0743 -1.07431 h -1.05833 -1.05834 v 1.05834 1.05833 h -1.05833 -1.05833 v -1.05833 -1.05834 h -1.19063 -1.19062 v 3.81019 c 0,3.50492 0.0528,3.92358 0.65887,5.22552 0.57848,1.24264 0.65919,1.77852 0.66146,4.3919 l 0.003,2.97656 h 1.5875 1.5875 l 0.004,-4.0349 z m 20.104437,1.65365 v -2.38125 h -4.233337 -4.23333 v 2.38125 2.38125 h 4.23333 4.233337 z m 19.182291,0 v -2.24896 l -4.299479,-0.0727 -4.299479,-0.0727 v 2.39436 2.39435 l 4.299479,-0.0727 4.299479,-0.0727 z m 5.423959,-1.83179 c 0,-4.15898 0.0089,-4.22359 0.692975,-5.03658 0.381135,-0.45296 1.048205,-1.00725 1.482379,-1.23177 1.002522,-0.51843 1.981438,-0.16345 3.117529,1.13049 l 0.792533,0.90264 v 4.23675 4.23676 l 1.653646,-0.0788 1.653646,-0.0788 0.132292,-3.43959 c 0.09945,-2.58573 0.247232,-3.64978 0.595312,-4.28634 0.380958,-0.69668 0.463021,-1.52903 0.463021,-4.69635 v -3.8496 h -1.190625 -1.190625 v 1.05833 1.05834 h -1.058333 -1.058334 v -1.05834 -1.05833 h -1.058333 -1.058333 v 1.05833 c 0,1.03314 -0.02204,1.05834 -0.926042,1.05834 -0.903994,0 -0.926042,-0.0252 -0.926042,-1.05834 v -1.05833 h -1.058333 -1.058333 v 1.05833 1.05834 h -1.058334 -1.058333 v -1.05834 -1.05833 h -1.190625 -1.190625 v 3.81452 c 0,3.22664 0.08155,4.00479 0.529167,5.04902 0.424656,0.99069 0.529166,1.82239 0.529166,4.21117 0,1.63717 0.07937,3.05605 0.17639,3.15307 0.09701,0.097 0.870918,0.17639 1.719792,0.17639 h 1.543402 z m 20.108333,1.82523 v -2.3878 l -4.299479,0.0727 -4.299479,0.0727 -0.07857,1.95961 c -0.04321,1.07779 -0.0172,2.11959 0.05784,2.31511 0.106349,0.27714 1.071247,0.35549 4.378052,0.35549 h 4.241636 z m -70.37917,-4.10503 c 0,-0.0786 -0.23812,-0.60959 -0.52916,-1.18008 -0.47833,-0.93759 -0.52917,-1.55939 -0.52917,-6.47175 v -5.4345 h -3.04271 -3.04271 l -0.006,5.35781 c -0.005,4.76523 -0.0637,5.48538 -0.52916,6.51119 -0.28785,0.63435 -0.52336,1.1999 -0.52336,1.25677 0,0.0569 1.84547,0.1034 4.10104,0.1034 2.25557,0 4.10104,-0.0643 4.10104,-0.14284 z m -5.02708,-8.98529 v -2.24896 h 0.92604 0.92604 v 2.24896 2.24896 h -0.92604 -0.92604 z m 30.02062,7.73906 c -0.61681,-1.32486 -0.64682,-1.63056 -0.64929,-6.61458 l -0.003,-5.22552 h -3.0427 -3.04271 v 5.56679 c 0,5.06332 -0.0483,5.66155 -0.53455,6.61458 l -0.53454,1.0478 h 4.22654 4.226537 z m -4.62062,-7.75503 v -2.26493 l 0.99219,0.0821 0.99218,0.0821 0.0769,2.18281 0.0768,2.18281 h -1.06903 -1.06903 z m 23.882196,8.15191 c -0.39089,-0.83125 -0.478927,-1.90417 -0.542742,-6.61458 l -0.07617,-5.6224 h -3.032686 -3.032683 v 5.30481 c 0,3.97466 -0.09111,5.48395 -0.363355,6.01927 -0.199848,0.39295 -0.445995,0.98235 -0.546997,1.30977 l -0.183642,0.59532 h 4.122422 4.122423 z m -4.567613,-8.13594 v -2.24896 h 0.926042 0.926042 v 2.24896 2.24896 h -0.926042 -0.926042 z m 30.427084,8.853 c 0,-0.15132 -0.238125,-0.74188 -0.529167,-1.31237 -0.477057,-0.93511 -0.529167,-1.5594 -0.529167,-6.33946 v -5.30221 h -3.042708 -3.042708 v 5.40202 c 0,4.78156 -0.0597,5.5413 -0.519764,6.61458 l -0.519766,1.21257 h 4.091641 c 2.655875,0 4.091639,-0.0965 4.091639,-0.27513 z m -5.027084,-8.86897 v -2.26493 l 0.992188,0.0821 0.992187,0.0821 0.07685,2.18281 0.07684,2.18281 h -1.069033 -1.069033 z m -53.445833,-6.46632 v -4.23333 h -3.04271 -3.04271 v 4.23333 4.23333 h 3.04271 3.04271 z m -3.96875,0.13229 v -2.24896 h 0.92604 0.92604 v 2.24896 2.24896 h -0.92604 -0.92604 z m 48.683333,-0.13229 v -4.23333 h -3.042708 -3.042708 v 4.23333 4.23333 h 3.042708 3.042708 z m -3.96875,0.13229 v -2.24896 h 0.926042 0.926042 v 2.24896 2.24896 h -0.926042 -0.926042 z m -51.329163,-1.85208 v -2.51354 h -1.05834 -1.05833 v 1.05833 1.05833 h -1.05833 -1.05834 v -1.05833 -1.05833 h -1.05833 -1.05833 v 1.05833 c 0,1.03313 -0.0221,1.05833 -0.92605,1.05833 -0.90399,0 -0.92604,-0.0252 -0.92604,-1.05833 v -1.05833 h -1.05833 -1.05833 v 2.51354 2.51354 h 5.15937 5.15938 z m 25.399997,0 v -2.51354 h -1.058334 -1.058333 v 1.05833 c 0,1.03313 -0.022,1.05833 -0.92604,1.05833 -0.904,0 -0.92604,-0.0252 -0.92604,-1.05833 v -1.05833 h -1.05834 -1.05833 v 1.0743 1.07431 l -0.99219,-0.0821 c -0.94123,-0.0779 -0.99645,-0.13384 -1.0752,-1.08927 -0.0813,-0.98644 -0.10307,-1.00549 -1.05833,-0.92605 l -0.97532,0.0811 -0.078,2.09328 c -0.0429,1.15131 -0.0169,2.25264 0.0578,2.4474 0.10691,0.2786 1.20968,0.35412 5.17127,0.35412 h 5.03539 z m 19.314583,0 v -2.51354 h -1.058333 -1.058334 v 1.05833 1.05833 h -1.058333 -1.058333 v -1.05833 -1.05833 h -1.058334 -1.058333 v 1.05833 c 0,1.03313 -0.02204,1.05833 -0.926042,1.05833 -0.903994,0 -0.926041,-0.0252 -0.926041,-1.05833 v -1.05833 h -1.058334 -1.058333 v 2.51354 2.51354 h 5.159375 5.159375 z m 25.4,0 v -2.51354 h -1.058333 -1.058334 v 1.05833 c 0,1.03313 -0.02204,1.05833 -0.926041,1.05833 -0.903994,0 -0.926042,-0.0252 -0.926042,-1.05833 v -1.05833 h -1.058333 -1.058334 v 1.05833 1.05833 h -1.058333 -1.058333 v -1.05833 -1.05833 h -1.058334 -1.058333 v 2.51354 2.51354 h 5.159375 5.159375 z m -57.41458,-6.61459 v -2.51354 h -1.05834 -1.05833 v 1.05834 c 0,1.02959 -0.0247,1.05833 -0.91007,1.05833 -0.86065,0 -0.91453,-0.0539 -0.99219,-0.99219 -0.0777,-0.93831 -0.136,-0.99665 -1.0743,-1.0743 l -0.99219,-0.0821 v 1.0743 1.07431 h -1.05833 -1.05834 v -1.05834 -1.05833 h -1.05833 -1.05833 v 2.51354 2.51354 h 5.15937 5.15938 z m 44.71458,0 v -2.51354 h -1.058333 -1.058334 v 1.05834 1.05833 h -1.058333 -1.058333 v -1.07431 -1.0743 l -0.992188,0.0821 c -0.938308,0.0777 -0.996646,0.136 -1.074306,1.0743 -0.07766,0.93831 -0.131538,0.99219 -0.992188,0.99219 -0.885359,0 -0.910068,-0.0287 -0.910068,-1.05833 v -1.05834 h -1.058334 -1.058333 v 2.51354 2.51355 h 5.159375 5.159375 z m 95.32899,38.25873 c -1.6224,-1.01934 -2.12959,-3.10014 -1.14803,-4.70994 1.82119,-2.98686 6.36071,-1.6932 6.36071,1.81266 0,1.09274 -0.13464,1.43804 -0.87631,2.24734 -0.73143,0.79813 -1.09231,0.97489 -2.18281,1.06917 -0.99244,0.0858 -1.51013,-0.015 -2.15356,-0.41923 z m 89.5403,0.0327 c -0.40476,-0.25079 -0.98601,-0.9725 -1.29167,-1.60379 -0.47523,-0.98152 -0.51321,-1.28975 -0.26217,-2.12765 0.70089,-2.33936 3.40549,-3.4031 5.33247,-2.09731 1.32659,0.89894 1.84273,2.45946 1.31476,3.97507 -0.71452,2.05109 -3.27237,2.98199 -5.09339,1.85368 z M 12.29698,-128.04605 c -2.915266,-0.83556 -5.337384,-2.90125 -6.646259,-5.66822 -0.741527,-1.5676 -0.832451,-2.0199 -0.832451,-4.14106 0,-2.12481 0.09031,-2.57218 0.838576,-4.15415 1.066805,-2.25542 2.801847,-3.99091 5.058809,-5.06013 1.686447,-0.79893 1.928387,-0.83989 4.961615,-0.83989 3.15577,0 3.20963,0.0103 5.21165,0.99979 3.46702,1.71349 5.39048,4.55939 5.68593,8.41275 0.32735,4.26938 -2.00081,8.02599 -6.16728,9.95123 -1.32822,0.61375 -1.97507,0.73521 -4.21485,0.79146 -1.632057,0.041 -3.124749,-0.0708 -3.89574,-0.29178 z m 5.61553,-5.32159 c 3.08286,-1.56774 3.51271,-6.12799 0.79332,-8.4162 -3.42253,-2.87987 -8.5033,0.15642 -7.825463,4.67654 0.508997,3.39425 4.029673,5.26652 7.032143,3.73966 z m 34.23939,5.27295 c -1.19227,-0.42299 -2.58076,-1.64676 -3.17734,-2.80042 -0.55873,-1.08046 -0.88205,-4.06089 -0.89138,-8.21699 l -0.008,-3.63802 h -1.5875 -1.5875 v -2.51355 -2.51354 h 1.5875 1.5875 v -2.5085 c 0,-2.84853 -0.30574,-2.52808 2.91042,-3.0504 0.94588,-0.15361 2.04721,-0.34438 2.44739,-0.42393 l 0.72761,-0.14463 v 3.06373 3.06373 h 2.64583 2.64583 v 2.50396 2.50396 l -2.57968,0.0757 -2.57969,0.0757 -0.0806,3.175 c -0.0444,1.74625 -0.005,3.69597 0.0873,4.3327 0.3144,2.16698 1.78224,2.88559 4.16048,2.03687 l 0.99218,-0.35409 v 2.47212 2.47211 l -1.37094,0.40713 c -1.69138,0.50228 -4.48561,0.49348 -5.92925,-0.0187 z m 36.27207,-0.18722 c -1.61162,-0.77948 -2.30409,-1.50317 -3.08753,-3.22672 -0.56879,-1.25131 -0.6051,-1.70654 -0.7015,-8.7941 l -0.10166,-7.47448 h 3.06982 3.06983 l 0.0149,6.15157 c 0.0172,7.09064 0.14646,7.75931 1.64098,8.48954 1.26521,0.61818 2.62106,0.41777 4.27659,-0.63214 l 1.21126,-0.76815 v -6.62041 -6.62041 h 2.91041 2.91042 v 9.92188 9.92187 h -2.91042 -2.91041 v -0.92604 c 0,-0.89486 -0.32116,-1.21208 -0.66457,-0.65642 -0.0917,0.14828 -0.78328,0.5861 -1.53697,0.97291 -1.08817,0.55848 -1.83343,0.72365 -3.6193,0.80213 -1.95924,0.0861 -2.41938,0.0164 -3.57187,-0.54103 z m 60.58958,0.18046 c -1.11575,-0.35791 -1.63367,-0.37771 -3.30729,-0.12644 -1.09141,0.16386 -2.1332,0.29714 -2.3151,0.29618 -0.26078,-0.001 -0.33073,-3.24823 -0.33073,-15.34758 v -15.34583 h 2.91041 2.91042 v 5.85169 c 0,5.45212 0.0316,5.84175 0.46302,5.70607 0.25466,-0.0801 0.9988,-0.3436 1.65365,-0.58558 1.79768,-0.66428 5.26835,-0.43462 7.01145,0.46396 1.84346,0.95032 3.23784,2.42282 4.20341,4.43886 0.76806,1.60368 0.8236,1.91628 0.82243,4.6302 0,2.60046 -0.0766,3.07154 -0.70908,4.42333 -0.98602,2.10742 -2.84649,4.00482 -4.93511,5.03303 -1.55588,0.76596 -2.00322,0.8596 -4.39341,0.91963 -1.87462,0.0471 -3.05215,-0.0586 -3.98407,-0.35752 z m 5.82631,-5.12706 c 0.56441,-0.34883 1.15721,-1.08901 1.60475,-2.00377 0.6137,-1.25436 0.69133,-1.6798 0.57373,-3.14478 -0.25742,-3.20673 -2.01224,-4.78604 -5.09953,-4.58946 -0.94742,0.0603 -1.93122,0.29746 -2.33691,0.56327 l -0.70064,0.45907 v 4.19484 c 0,4.60204 0.0183,4.65828 1.65529,5.07456 1.2878,0.32751 3.29543,0.0692 4.30331,-0.55373 z m 39.44144,5.15849 c -1.57348,-0.59951 -2.68584,-1.57281 -3.33865,-2.92132 -0.48995,-1.01211 -0.567,-1.51502 -0.45188,-2.94919 0.18701,-2.3298 1.08133,-3.63054 3.23736,-4.70855 1.50662,-0.75331 1.75387,-0.79375 4.85262,-0.79375 h 3.26512 l -0.14417,-0.88788 c -0.0793,-0.48834 -0.3279,-1.16827 -0.55243,-1.51097 -0.88894,-1.35671 -4.3231,-1.48618 -7.31938,-0.27593 l -1.57488,0.63613 0.0751,-2.66796 0.0751,-2.66796 1.45521,-0.53578 c 1.18689,-0.43699 2.11381,-0.53767 5.02708,-0.54605 3.18143,-0.009 3.71991,0.0567 4.92609,0.60263 0.7448,0.33709 1.72104,0.99194 2.1694,1.45521 1.4868,1.53626 1.72061,2.49101 1.8261,7.45689 0.12195,5.74077 0.11028,5.68854 1.26992,5.68854 H 210 v 2.22308 2.22307 l -0.83323,0.29047 c -1.51225,0.52717 -3.45969,0.35625 -5.04354,-0.44265 l -1.45343,-0.73313 -1.29583,0.65256 c -1.63134,0.8215 -5.43814,1.04292 -7.09268,0.41254 z m 6.72288,-4.43921 c 0.58324,-0.29508 0.66145,-0.5045 0.66145,-1.77119 0,-1.42679 -0.006,-1.43793 -0.92604,-1.63916 -1.29384,-0.28308 -3.0304,0.007 -3.68313,0.61498 -0.70194,0.65396 -0.71212,1.91754 -0.0212,2.60864 0.62373,0.62373 2.89386,0.73054 3.96875,0.18673 z m -224.895837,-9.96765 v -14.56074 h 2.907001 2.906998 l 4.969809,6.68072 c 2.733395,3.67441 5.919854,7.98726 7.08102,9.58412 l 2.111214,2.90338 0.06945,-9.58411 0.06945,-9.58411 h 3.041666 3.041668 l -0.0684,14.48593 -0.0684,14.48594 -2.944159,0.0745 -2.944157,0.0745 -4.87054,-6.5568 c -2.678797,-3.60624 -5.818769,-7.88975 -6.977718,-9.51892 -1.158947,-1.62916 -2.199206,-2.96861 -2.311686,-2.97656 -0.112482,-0.008 -0.172014,4.24204 -0.132292,9.44441 l 0.07222,9.45886 -2.976562,0.0748 -2.976563,0.0748 z m 53.181247,4.62155 v -9.92188 h 2.91042 2.91042 v 1.35371 1.3537 l 1.08755,-0.98254 c 1.21584,-1.09844 2.21825,-1.57831 3.86223,-1.84893 2.10003,-0.34569 2.19397,-0.22067 2.19397,2.92002 v 2.76029 l -1.52136,0.001 c -2.03081,0.002 -3.17269,0.35123 -4.36562,1.33527 l -0.99219,0.81844 v 6.06616 6.06615 H 32.3323 29.28959 Z m 33.3375,-5.42396 v -15.34583 h 2.91042 2.91042 v 6.20209 c 0,5.65334 0.14955,7.0616 0.6619,6.23261 0.47388,-0.76676 2.97425,-1.67728 4.92785,-1.7945 2.71283,-0.16278 4.32933,0.37641 5.75036,1.91804 1.60099,1.73687 1.71868,2.46275 1.73893,10.72509 l 0.0178,7.27604 -2.95612,0.0746 -2.95612,0.0746 -0.0866,-6.56927 c -0.0969,-7.34877 -0.17461,-7.68215 -1.92648,-8.26032 -1.11062,-0.36654 -3.31355,0.16037 -4.46841,1.06878 l -0.70315,0.5531 v 6.59538 6.59538 h -2.91042 -2.91042 z m 44.97917,5.42396 v -9.92188 h 3.04271 3.04271 v 0.92022 0.92021 l 1.24763,-0.79123 c 1.574,-0.99819 2.69814,-1.31044 4.7245,-1.31231 2.08807,-0.002 3.78619,0.59415 4.86572,1.70794 l 0.86668,0.89419 1.05473,-0.76403 c 2.3014,-1.66713 5.84052,-2.31279 8.42796,-1.53757 1.34162,0.40196 2.77135,1.61551 3.49285,2.96474 0.56329,1.05339 0.59097,1.42479 0.66828,8.97024 l 0.0806,7.87135 h -2.89814 -2.89816 l -0.0929,-6.56033 c -0.10379,-7.32867 -0.18444,-7.67529 -1.91841,-8.24756 -1.0681,-0.35251 -2.66129,-0.0266 -4.06149,0.83076 l -0.85989,0.52654 v 6.73396 6.73396 l -2.97657,-0.0748 -2.97656,-0.0748 -0.13229,-6.61458 c -0.0728,-3.63802 -0.2308,-6.81375 -0.35119,-7.05717 -0.1204,-0.24342 -0.65217,-0.64818 -1.18171,-0.89946 -0.82648,-0.39219 -1.13159,-0.41174 -2.15486,-0.13806 -0.65563,0.17536 -1.58238,0.56006 -2.05944,0.8549 l -0.86738,0.53607 v 6.7253 6.7253 h -3.04271 -3.04271 z m 58.20833,0.009 v -9.93054 h 2.91042 2.91042 v 1.3537 1.35371 l 1.08754,-0.98254 c 1.21584,-1.09844 2.21827,-1.57832 3.86223,-1.84893 2.10005,-0.34569 2.19398,-0.22067 2.19398,2.92001 v 2.7603 l -1.52136,0.001 c -2.04875,0.002 -3.33893,0.3974 -4.4341,1.35897 l -0.91389,0.80242 -0.071,5.99617 -0.0711,5.99616 -2.97656,0.0748 -2.97657,0.0748 z m 16.13959,-0.009 v -9.92188 h 2.91041 2.91042 v 9.92188 9.92187 h -2.91042 -2.91041 z m 1.9954,-12.76071 c -0.8683,-0.22056 -1.73762,-0.90474 -2.14122,-1.68524 -0.77374,-1.49625 -0.26587,-3.82663 0.97917,-4.49296 1.82836,-0.97851 3.43893,-0.73927 4.70112,0.69829 1.4904,1.69745 0.94208,4.2224 -1.12024,5.15872 -1.12194,0.50938 -1.48709,0.55786 -2.41883,0.32119 z"
       id="path194" /></g></svg>
