<?xml version="1.0" encoding="UTF-8" standalone="no"?>
<!-- Created with Inkscape (http://www.inkscape.org/) -->

<svg
   width="16"
   height="16"
   viewBox="0 0 4.2333332 4.2333333"
   version="1.1"
   id="svg5"
   xml:space="preserve"
   sodipodi:docname="rxjs_logo.svg"
   inkscape:version="1.2.1 (9c6d41e4, 2022-07-14)"
   xmlns:inkscape="http://www.inkscape.org/namespaces/inkscape"
   xmlns:sodipodi="http://sodipodi.sourceforge.net/DTD/sodipodi-0.dtd"
   xmlns="http://www.w3.org/2000/svg"
   xmlns:svg="http://www.w3.org/2000/svg"><sodipodi:namedview
     id="namedview10918"
     pagecolor="#ffffff"
     bordercolor="#000000"
     borderopacity="0.25"
     inkscape:showpageshadow="2"
     inkscape:pageopacity="0.0"
     inkscape:pagecheckerboard="0"
     inkscape:deskcolor="#d1d1d1"
     showgrid="false"
     inkscape:zoom="14.75"
     inkscape:cx="1.5254237"
     inkscape:cy="8"
     inkscape:window-width="1680"
     inkscape:window-height="1050"
     inkscape:window-x="0"
     inkscape:window-y="67"
     inkscape:window-maximized="0"
     inkscape:current-layer="svg5" /><defs
     id="defs2" /><path
     style="fill:#df4ea8;fill-opacity:1;stroke-width:0.0145174"
     d="M 2.0492577,4.1819471 C 1.5580308,4.0941919 1.1569336,3.8944293 0.8079508,3.5637266 0.55058771,3.3198447 0.31901495,2.950838 0.2859311,2.7318989 0.26229715,2.5754929 0.26561106,2.2954795 0.29276951,2.153787 0.36690006,1.7670908 0.60617942,1.4311166 0.9191072,1.2743405 1.0720047,1.1977396 1.1898516,1.174315 1.3814497,1.1824395 1.5560853,1.1898458 1.6862526,1.2247276 1.8750438,1.3147163 1.9903906,1.369697 1.997393,1.3583225 1.802456,1.4326376 1.6643224,1.4852993 1.4800207,1.6105695 1.3830859,1.7176859 1.1986667,1.9214757 1.1004929,2.2585179 1.140524,2.5504288 1.195893,2.9541829 1.4129949,3.2795485 1.7552746,3.4717404 1.8479886,3.5237994 1.8610973,3.5163714 1.7927366,3.4505114 1.7272288,3.387402 1.6122881,3.2072736 1.5865214,3.1273446 c -0.024628,-0.076396 -0.04471,-0.1776853 -0.03523,-0.1776853 0.00337,0 0.063637,0.055605 0.1339341,0.1235679 C 1.9914615,3.3692954 2.292637,3.5383139 2.6402279,3.60917 2.7554481,3.632657 3.0553934,3.637993 3.1380633,3.61803 3.1913093,3.605169 3.1725573,3.597332 3.0398483,3.576985 2.9858293,3.568705 2.8977828,3.541406 2.8441883,3.516325 2.7454183,3.470105 2.5936585,3.3632155 2.5936585,3.3398688 c 0,-0.00702 0.018877,-0.012752 0.041949,-0.012752 0.063922,0 0.2630354,-0.0404 0.3665266,-0.074368 C 3.2200478,3.1812258 3.4762972,3.028317 3.6534344,2.8641069 l 0.094363,-0.087477 -0.094363,0.050167 C 3.482025,2.9179185 3.2452129,2.9693302 3.1387017,2.9385407 l -0.042914,-0.012405 0.06469,-0.04451 C 3.3080975,2.7800546 3.5086951,2.549974 3.6264346,2.3471841 3.6981753,2.2236211 3.7766134,2.0338289 3.8154303,1.8898838 c 0.045059,-0.1670935 0.049026,-0.5302883 0.00711,-0.6505974 -0.014787,-0.042436 -0.023583,-0.080459 -0.019546,-0.084496 0.011736,-0.011737 0.096274,0.1191216 0.14018,0.2170015 0.1311971,0.2924763 0.1069621,0.6060161 -0.074832,0.9681332 L 3.7991043,2.477841 3.8740133,2.397995 C 3.9608386,2.305448 4.076228,2.1326952 4.1552224,1.9769882 l 0.055239,-0.108881 0.012765,0.065328 C 4.2562618,2.1025236 4.2054398,2.4247918 4.1126492,2.6346086 4.0116713,2.8629369 3.7840586,3.1206678 3.5713334,3.2475515 3.4599465,3.3139899 3.4587303,3.315327 3.5157459,3.3086161 3.6153265,3.296895 3.7917145,3.2130271 3.9832061,3.08635 4.0842857,3.0194829 4.1700258,2.9678122 4.1737396,2.9715261 4.188964,2.9867499 4.0287588,3.2847823 3.9444554,3.3980696 3.769323,3.6334128 3.479081,3.8847073 3.24695,4.0019768 2.9769496,4.1383775 2.7000869,4.1989065 2.357018,4.196538 2.2276734,4.1956451 2.0891816,4.1890784 2.0492577,4.1819471 Z M 0.1437983,2.5610626 C 0.0476542,2.4345971 -0.01102745,2.308475 0.00173459,2.2557311 0.00695214,2.2341688 0.0347684,2.1807368 0.06354772,2.1369938 0.13278608,2.0317579 0.13421055,1.9513191 0.07030331,1.7554235 -0.01031072,1.5083165 0.00864044,1.4359762 0.19902063,1.2640725 c 0.064907,-0.058608 0.12791635,-0.1257098 0.14001952,-0.1491149 0.0123494,-0.02388 0.0277121,-0.1132361 0.0350108,-0.20362499 0.007158,-0.0885882 0.0202195,-0.1882764 0.0290372,-0.2215282 C 0.4330092,0.57697178 0.5430089,0.5098474 0.7426851,0.48257538 0.9144735,0.4591118 0.9901711,0.41602979 1.1221684,0.26659917 1.1834172,0.19726024 1.2590722,0.12293802 1.2902893,0.10143866 c 0.1256209,-0.0865154 0.3152111,-0.0862634 0.4942467,6.5816e-4 0.092347,0.0448342 0.1657997,0.09864 0.1526323,0.11180691 -0.00402,0.004023 -0.065381,0.0138389 -0.1363431,0.021806 C 0.882089,0.33885389 0.16376931,1.1708526 0.16795376,2.1269943 c 7.6855e-4,0.1756208 0.0287001,0.4008603 0.0598811,0.4828708 0.0312094,0.082086 0.003029,0.065721 -0.0840366,-0.048802 z m 0.0702227,-0.434533 C 0.21038885,1.6433618 0.41387501,1.1526513 0.7636901,0.80102071 1.035276,0.52802517 1.3712095,0.35101278 1.7274368,0.29319634 1.8646119,0.27093244 2.1816913,0.27525914 2.3187832,0.30126534 2.7073135,0.37496884 3.079171,0.57538441 3.37958,0.87299191 3.5375187,1.0294576 3.6263923,1.1570513 3.6614839,1.2777149 c 0.047126,0.162043 0.00293,0.2694273 -0.1373112,0.333632 -0.066459,0.030426 -0.1094418,0.038289 -0.2383305,0.0436 C 2.9462468,1.6689386 2.5494937,1.5673325 2.049488,1.3383252 1.6741306,1.1664081 1.5450023,1.1290066 1.3306428,1.1301147 1.0796475,1.1314162 0.846087,1.2223671 0.66629004,1.3888315 0.43887782,1.5993803 0.30774079,1.8372461 0.24199002,2.158457 L 0.21524448,2.2891142 0.21402587,2.1265296 Z M 2.6897509,1.0254995 c 0.029945,-0.045701 0.01034,-0.10010349 -0.045187,-0.12540449 -0.077953,-0.035518 -0.1499315,0.054445 -0.1020403,0.12753639 0.032603,0.049758 0.1140004,0.04858 0.1472272,-0.00213 z m -0.9927007,-0.00101 c 0.1338333,-0.00641 0.204517,-0.015649 0.2148376,-0.028085 0.00846,-0.010199 0.010163,-0.021218 0.00379,-0.0245 -0.00638,-0.00328 -0.1095862,-4.927e-4 -0.2293552,0.0062 -0.1197691,0.0067 -0.2596542,0.010423 -0.3108558,0.00831 l -0.093098,-0.00387 -0.05049,-0.1009624 c -0.04646,-0.0929129 -0.048848,-0.1038863 -0.029928,-0.137592 0.025094,-0.0447076 0.093925,-0.0924736 0.1813862,-0.12587568 l 0.065526,-0.0250241 0.2848764,0.089388 c 0.2138166,0.067091 0.2876421,0.084914 0.2959639,0.071449 0.00609,-0.00987 0.00646,-0.021767 8.043e-4,-0.026445 -0.022085,-0.0182667 -0.5531234,-0.17318818 -0.5926191,-0.17288779 -0.092155,7.0088e-4 -0.2501188,0.0982401 -0.2813997,0.17375897 -0.023934,0.057783 -0.00608,0.1211033 0.067039,0.2377259 l 0.053392,0.085161 0.1103375,-0.0086 c 0.060686,-0.00473 0.2000929,-0.0129 0.3097936,-0.018153 z"
     id="path12462" /></svg>
