<?xml version="1.0" encoding="UTF-8" standalone="no"?>
<!-- Created with Inkscape (http://www.inkscape.org/) -->

<svg
   width="16"
   height="16"
   viewBox="0 0 4.2333332 4.2333333"
   version="1.1"
   id="svg5"
   inkscape:version="1.2.1 (9c6d41e4, 2022-07-14)"
   sodipodi:docname="site_build_icon.svg"
   xml:space="preserve"
   xmlns:inkscape="http://www.inkscape.org/namespaces/inkscape"
   xmlns:sodipodi="http://sodipodi.sourceforge.net/DTD/sodipodi-0.dtd"
   xmlns="http://www.w3.org/2000/svg"
   xmlns:svg="http://www.w3.org/2000/svg"><sodipodi:namedview
     id="namedview7"
     pagecolor="#ffffff"
     bordercolor="#000000"
     borderopacity="0.25"
     inkscape:showpageshadow="2"
     inkscape:pageopacity="0.0"
     inkscape:pagecheckerboard="0"
     inkscape:deskcolor="#d1d1d1"
     inkscape:document-units="mm"
     showgrid="false"
     inkscape:zoom="14.75"
     inkscape:cx="6"
     inkscape:cy="11.016949"
     inkscape:window-width="1680"
     inkscape:window-height="987"
     inkscape:window-x="0"
     inkscape:window-y="92"
     inkscape:window-maximized="0"
     inkscape:current-layer="layer1" /><defs
     id="defs2"><inkscape:path-effect
       effect="powerstroke"
       id="path-effect872"
       is_visible="true"
       lpeversion="1"
       offset_points="0.89810443,0.15301204"
       not_jump="true"
       sort_points="true"
       interpolator_type="CentripetalCatmullRom"
       interpolator_beta="0.75"
       start_linecap_type="round"
       linejoin_type="spiro"
       miter_limit="4"
       scale_width="1"
       end_linecap_type="round" /><inkscape:path-effect
       effect="simplify"
       id="path-effect870"
       is_visible="true"
       lpeversion="1"
       steps="1"
       threshold="0.0047745358"
       smooth_angles="0"
       helper_size="0"
       simplify_individual_paths="false"
       simplify_just_coalesce="false"
       step="1" /></defs><g
     inkscape:label="Layer 1"
     inkscape:groupmode="layer"
     id="layer1"><path
       style="font-size:4.23333px;font-family:Arial;-inkscape-font-specification:Arial;fill:#ffffff;stroke-width:0.622565"
       d="m 1.373559,3.2742177 h 0.7544753 q 0.1943032,0 0.2728513,-0.014469 0.1384928,-0.024805 0.2315103,-0.082682 0.093017,-0.057878 0.1529621,-0.1674315 0.059945,-0.111621 0.059945,-0.2563149 0,-0.1694986 -0.086816,-0.2935219 Q 2.6716699,2.3337074 2.5166407,2.2840981 2.3636786,2.2324217 2.0742909,2.2324217 H 1.373559 Z"
       id="path1066" /><path
       style="font-size:4.23333px;font-family:Arial;-inkscape-font-specification:Arial;fill:#ffffff;stroke-width:0.622565"
       d="m 1.373559,1.8748211 h 0.6552566 q 0.2666502,0 0.3824053,-0.03514 0.1529621,-0.045475 0.2294432,-0.150895 0.078548,-0.1054199 0.078548,-0.2645831 0,-0.1508951 -0.072347,-0.2645831 Q 2.5745183,1.0438647 2.4401597,1.0025236 2.3058011,0.95911546 1.9792063,0.95911546 H 1.373559 Z"
       id="path1064" /><path
       style="fill:#ffffff;fill-opacity:1;stroke:#000000;stroke-width:0.272256;stroke-dasharray:none;stroke-opacity:1"
       d="M 2.0995035,0.26466435 A 1.852038,1.852038 0 0 0 0.26464742,2.1284585 1.852038,1.852038 0 0 0 2.1225636,3.9687406 1.852038,1.852038 0 0 0 3.9687237,2.1167024 v -0.02306 A 1.852038,1.852038 0 0 0 2.0995035,0.26466435 Z"
       id="path297" /><g
       id="g361"
       transform="translate(0,0.08343177)"><rect
         style="fill:#000000;stroke-width:0.264583"
         id="rect355"
         width="1.9193503"
         height="1.6502824"
         x="1.1569915"
         y="0.98199999"
         ry="0.14350283" /><rect
         style="fill:#000000;stroke-width:0.117032"
         id="rect357"
         width="1.9193503"
         height="0.32288146"
         x="1.1569915"
         y="-3.0844698"
         ry="0.16144073"
         transform="scale(1,-1)" /></g></g></svg>
