<?xml version="1.0" encoding="UTF-8" standalone="no"?>
<!-- Created with Inkscape (http://www.inkscape.org/) -->

<svg
   width="16"
   height="16"
   viewBox="0 0 4.2333332 4.2333333"
   version="1.1"
   id="svg5"
   xml:space="preserve"
   xmlns="http://www.w3.org/2000/svg"
   xmlns:svg="http://www.w3.org/2000/svg"><defs
     id="defs2" /><g
     id="g815"
     transform="translate(7.6595131,0.16138922)"><g
       id="g2691"
       transform="translate(8.1259393,-1.9672735e-4)"><g
         id="g5379"
         transform="translate(6.8701977,0.34081919)"><path
           style="fill:#ff61f6;fill-opacity:1;stroke-width:0.00826823"
           d="m -19.834356,2.5488005 c -0.162431,-0.035345 -0.265579,-0.088104 -0.361802,-0.1850596 -0.107362,-0.1081789 -0.159324,-0.2307175 -0.177758,-0.4191968 -0.01496,-0.1529883 0.0088,-0.2835328 0.0765,-0.4208397 0.03767,-0.076363 0.05234,-0.096285 0.121806,-0.1654463 0.09067,-0.090271 0.176923,-0.1457197 0.284152,-0.18268 0.09299,-0.032051 0.220762,-0.050576 0.326072,-0.047273 l 0.08476,0.00266 -9e-6,-0.2831869 -9e-6,-0.28318682 h 0.190169 0.190169 l 3.3e-5,0.83715812 c 1.7e-5,0.460437 0.0024,0.8844857 0.0054,0.9423304 l 0.0054,0.1051722 -0.04011,0.017194 c -0.06286,0.026944 -0.19912,0.06536 -0.280741,0.079149 -0.04093,0.00691 -0.135805,0.01422 -0.21084,0.016236 -0.115429,0.0031 -0.148233,0.0011 -0.213146,-0.013029 z m 0.335102,-0.3190959 0.0186,-0.00513 V 1.8412244 1.4578736 l -0.02274,-0.00636 c -0.0125,-0.0035 -0.05436,-0.00592 -0.09302,-0.00539 -0.16035,0.00222 -0.311074,0.098698 -0.365833,0.2341653 -0.01636,0.04047 -0.01855,0.06035 -0.01832,0.1658704 2.31e-4,0.1050809 0.0026,0.125749 0.01913,0.1673293 0.05263,0.1323094 0.141526,0.2022553 0.282158,0.2219998 0.04683,0.00657 0.146839,0.00336 0.180017,-0.00579 z m -2.536279,0.2993552 c 0,-0.00927 0.372194,-0.6284993 0.512915,-0.8533564 l 0.03165,-0.050573 -0.261093,-0.441387 c -0.143601,-0.2427629 -0.262841,-0.4478982 -0.264978,-0.4558564 -0.0036,-0.013509 0.01038,-0.014469 0.21104,-0.014469 0.162018,0 0.216961,0.00254 0.223195,0.010335 0.0045,0.00568 0.03785,0.068006 0.07401,0.1384928 0.03616,0.070487 0.09758,0.1839681 0.136493,0.252181 0.03891,0.068213 0.08876,0.1603003 0.11077,0.2046387 0.02201,0.044338 0.04202,0.080615 0.04446,0.080615 0.0024,0 0.03671,-0.064182 0.07614,-0.142627 0.03943,-0.078445 0.119464,-0.2319238 0.177851,-0.3410644 l 0.106158,-0.1984375 0.201315,-0.00222 c 0.19292,-0.00212 0.201147,-0.00157 0.197284,0.013195 -0.0022,0.00848 -0.118591,0.2048104 -0.258611,0.4362983 -0.14002,0.2314879 -0.256019,0.4235797 -0.257776,0.4268707 -0.0018,0.00329 0.116698,0.2023485 0.263233,0.4423502 0.146535,0.2400016 0.273774,0.4488132 0.282754,0.4640256 0.01367,0.023157 0.01444,0.028856 0.0047,0.035013 -0.0064,0.00404 -0.104736,0.00741 -0.21855,0.00748 -0.172267,1.05e-4 -0.20995,-0.00199 -0.224946,-0.01249 -0.0099,-0.00694 -0.05045,-0.074842 -0.0901,-0.1508952 -0.0612,-0.1173771 -0.281424,-0.5218259 -0.288236,-0.5293441 -0.0012,-0.00135 -0.04412,0.076782 -0.09532,0.1736328 -0.15516,0.2935129 -0.26511,0.4939289 -0.278096,0.5069159 -0.01784,0.017841 -0.41627,0.018483 -0.41627,6.706e-4 z"
           id="path4878" /><path
           style="fill:#b9b9b9;fill-opacity:1;stroke-width:0.00826823"
           d="m -19.540078,2.5598531 c 0.006,-0.00239 0.0131,-0.00209 0.01585,6.524e-4 0.0027,0.00275 -0.0021,0.0047 -0.01085,0.00434 -0.0096,-3.969e-4 -0.01159,-0.00236 -0.005,-0.005 z m 0.448687,-0.1314666 c 3.97e-4,-0.00963 0.0024,-0.011591 0.005,-0.005 0.0024,0.00597 0.0021,0.0131 -6.53e-4,0.015847 -0.0027,0.00275 -0.0047,-0.00214 -0.0043,-0.010852 z m -1.289191,-0.5160753 c 0,-0.011369 0.0019,-0.01602 0.0042,-0.010335 0.0023,0.00568 0.0023,0.014986 0,0.020671 -0.0023,0.00568 -0.0042,0.00103 -0.0042,-0.010335 z m 0.765573,-0.4684967 c 0.0057,-0.00229 0.01499,-0.00229 0.02067,0 0.0057,0.00229 0.001,0.00417 -0.01034,0.00417 -0.01137,0 -0.01602,-0.00188 -0.01033,-0.00417 z m -0.564307,-0.093743 c 0.0082,-0.0091 0.01683,-0.016536 0.0191,-0.016536 0.0023,0 -0.0026,0.00744 -0.01083,0.016536 -0.0082,0.0091 -0.01683,0.016536 -0.0191,0.016536 -0.0023,0 0.0026,-0.00744 0.01083,-0.016536 z"
           id="path4876" /><path
           style="fill:#a3a3a3;fill-opacity:1;stroke-width:0.00826823"
           d="m -20.196638,2.3732649 -0.01575,-0.018604 0.0186,0.015751 c 0.01023,0.00866 0.0186,0.017035 0.0186,0.018604 0,0.00662 -0.0067,0.00173 -0.02146,-0.015751 z M -19.0987,2.2719791 c 1.69e-4,-0.013643 0.002,-0.018223 0.0041,-0.010178 0.0021,0.00804 0.002,0.019207 -3.07e-4,0.024805 -0.0023,0.0056 -0.004,-9.842e-4 -0.0038,-0.014627 z m -0.512175,-0.034638 c 0.008,-0.00208 0.02098,-0.00208 0.02894,0 0.008,0.00208 0.0014,0.00378 -0.01447,0.00378 -0.01592,0 -0.02243,-0.0017 -0.01447,-0.00378 z m 0.02894,-0.7935263 c 0.0057,-0.00229 0.01499,-0.00229 0.02067,0 0.0057,0.00229 10e-4,0.00417 -0.01034,0.00417 -0.01137,0 -0.01602,-0.00188 -0.01033,-0.00417 z m 0.202113,-0.88538982 c 0.04863,-0.001459 0.13049,-0.001464 0.181901,-8.27e-6 0.05141,0.001453 0.01162,0.002647 -0.08843,0.002653 -0.100045,6.29e-6 -0.142109,-0.001183 -0.09348,-0.002642 z"
           id="path4874" /><path
           style="fill:#8c8c8c;fill-opacity:1;stroke-width:0.00826823"
           d="m -19.096332,1.4120833 c 1e-6,-0.4638476 0.001,-0.6523893 0.0022,-0.4189816 0.0012,0.2334077 0.0012,0.6129194 -1e-6,0.8433593 -0.0012,0.2304399 -0.0022,0.03947 -0.0022,-0.4243777 z m -0.790516,0.7255371 c -0.01028,-0.013114 -0.01,-0.013406 0.0031,-0.00312 0.01377,0.010801 0.01815,0.017591 0.01135,0.017591 -0.0017,0 -0.0082,-0.00651 -0.01447,-0.014469 z m -2.022113,-1.4303841 c 0.05825,-0.00142 0.151263,-0.00142 0.206706,8.3e-6 0.05544,0.00143 0.0078,0.00259 -0.105902,0.00259 -0.113688,-5e-6 -0.15905,-0.00117 -0.100804,-0.0026 z m 1.157071,7.2e-6 c 0.05343,-0.00144 0.14087,-0.00144 0.194303,0 0.05343,0.00144 0.0097,0.00262 -0.09715,0.00262 -0.106867,0 -0.150585,-0.00118 -0.09715,-0.00262 z"
           id="path4872" /><path
           style="fill:#767676;fill-opacity:1;stroke-width:0.00826823"
           d="m -19.681155,2.5682936 c 0.0057,-0.00229 0.01499,-0.00229 0.02067,0 0.0057,0.00229 0.001,0.00417 -0.01033,0.00417 -0.01137,0 -0.01602,-0.00188 -0.01034,-0.00417 z m 0.04134,0 c 0.0057,-0.00229 0.01499,-0.00229 0.02067,0 0.0057,0.00229 0.001,0.00417 -0.01033,0.00417 -0.01137,0 -0.01602,-0.00188 -0.01034,-0.00417 z m 0.03736,-1.447194 c 0.008,-0.0021 0.01921,-0.00196 0.0248,3.068e-4 0.0056,0.00226 -9.84e-4,0.00398 -0.01463,0.00381 -0.01364,-1.687e-4 -0.01822,-0.00202 -0.01018,-0.00412 z"
           id="path4870" /><path
           style="fill:#606060;fill-opacity:1;stroke-width:0.00826823"
           d="m -19.705443,2.5681214 c 0.006,-0.00239 0.0131,-0.00209 0.01585,6.523e-4 0.0027,0.00275 -0.0021,0.0047 -0.01085,0.00434 -0.0096,-3.969e-4 -0.01159,-0.00236 -0.005,-0.005 z m 0.0987,1.719e-4 c 0.0057,-0.00229 0.01499,-0.00229 0.02067,0 0.0057,0.00229 10e-4,0.00417 -0.01034,0.00417 -0.01137,0 -0.01602,-0.00188 -0.01034,-0.00417 z m -0.02429,-1.4471122 c 0.006,-0.00239 0.0131,-0.00209 0.01585,6.523e-4 0.0027,0.00275 -0.0021,0.0047 -0.01085,0.00434 -0.0096,-3.969e-4 -0.01159,-0.00236 -0.005,-0.005 z"
           id="path4868" /><path
           style="fill:#494949;fill-opacity:1;stroke-width:0.00826823"
           d="m -19.739032,2.5682936 c 0.0057,-0.00229 0.01499,-0.00229 0.02067,0 0.0057,0.00229 10e-4,0.00417 -0.01033,0.00417 -0.01137,0 -0.01602,-0.00188 -0.01033,-0.00417 z m 0.253925,-0.7262624 c 1e-6,-0.2091862 0.0011,-0.293577 0.0024,-0.1875351 0.0013,0.1060417 0.0013,0.2771941 -4e-6,0.3803385 -0.0013,0.1031443 -0.0024,0.016383 -0.0024,-0.1928034 z m -0.4986,0.028939 c 0,-0.011369 0.0019,-0.01602 0.0042,-0.010335 0.0023,0.00568 0.0023,0.014986 0,0.020671 -0.0023,0.00568 -0.0042,0.00103 -0.0042,-0.010335 z m 0.102048,-0.3059244 c 0.0082,-0.0091 0.01683,-0.016536 0.0191,-0.016536 0.0023,0 -0.0026,0.00744 -0.01083,0.016536 -0.0082,0.0091 -0.01683,0.016536 -0.0191,0.016536 -0.0023,0 0.0026,-0.00744 0.01083,-0.016536 z m 0.396452,-0.7152018 c 3e-6,-0.1546159 0.0011,-0.21669947 0.0025,-0.1379635 0.0014,0.078736 0.0014,0.2052398 -6e-6,0.2811198 -0.0014,0.07588 -0.0025,0.01146 -0.0025,-0.1431563 z"
           id="path4866" /><path
           style="fill:#470137;fill-opacity:1;stroke-width:0.00826823"
           d="m -22.65565,1.6146549 v -2.11666652 h 2.116667 2.116666 V 1.6146549 3.7313215 h -2.116666 -2.116667 z m 3.240812,0.9381998 c 0.08605,-0.013782 0.206738,-0.046969 0.285588,-0.078531 l 0.04134,-0.016548 -0.0023,-0.9403917 c -0.0013,-0.5172154 -0.0039,-0.94504245 -0.0059,-0.95072686 -0.0028,-0.007862 -0.04901,-0.0103353 -0.193188,-0.0103353 -0.165212,0 -0.190188,0.001679 -0.194563,0.0130786 -0.0028,0.007193 -0.005,0.13506066 -0.005,0.28414996 v 0.2710713 l -0.05594,-0.004 c -0.165078,-0.011811 -0.375867,0.039891 -0.507563,0.1244939 -0.144383,0.092754 -0.235546,0.2102898 -0.296057,0.3817043 l -0.02927,0.082923 4.51e-4,0.1570963 c 5.25e-4,0.182273 0.0121,0.2404202 0.07159,0.359668 0.02786,0.05585 0.05038,0.0857 0.109668,0.1453829 0.06326,0.063687 0.08654,0.08095 0.153153,0.113571 0.07658,0.037506 0.164274,0.064877 0.256315,0.080004 0.06478,0.010647 0.270003,0.00369 0.371737,-0.012607 z M -19.69149,2.2267671 c -0.16721,-0.028205 -0.265808,-0.138963 -0.284494,-0.3195827 -0.01489,-0.1439475 0.01213,-0.2457097 0.08629,-0.3249985 0.08995,-0.096168 0.216387,-0.1430573 0.347796,-0.1289845 l 0.05298,0.00567 v 0.3791925 c 0,0.2706771 -0.0026,0.3808282 -0.0092,0.3849084 -0.01445,0.00893 -0.147409,0.011536 -0.193323,0.00379 z m -1.887449,0.2519177 c 0.0181,-0.031833 0.100022,-0.1835489 0.182057,-0.3371471 0.08203,-0.1535982 0.150273,-0.2781502 0.151641,-0.2767823 0.0068,0.00678 0.216778,0.392348 0.283249,0.5200654 0.04177,0.080253 0.08178,0.1481558 0.08892,0.1508951 0.0071,0.00274 0.113134,0.00498 0.235545,0.00498 0.221587,0 0.222566,-7.44e-5 0.222566,-0.017613 0,-0.00969 -0.124847,-0.2221684 -0.277439,-0.4721809 l -0.277439,-0.4545681 0.123223,-0.2037469 c 0.06777,-0.1120608 0.185644,-0.3068207 0.261937,-0.4328 0.08587,-0.1417953 0.136844,-0.2339265 0.133805,-0.2418457 -0.0042,-0.011053 -0.03189,-0.012792 -0.20328,-0.012792 -0.148386,0 -0.200638,0.0026 -0.207369,0.010335 -0.01209,0.013894 -0.218654,0.4025643 -0.292211,0.5498372 -0.03237,0.064802 -0.06088,0.1178222 -0.06337,0.1178222 -0.0025,0 -0.01874,-0.028835 -0.03612,-0.064079 -0.01738,-0.035243 -0.07646,-0.1440739 -0.131301,-0.2418457 -0.05484,-0.097772 -0.119309,-0.2183147 -0.143272,-0.267873 -0.02396,-0.049558 -0.04848,-0.09322 -0.05448,-0.097025 -0.006,-0.00381 -0.106836,-0.00698 -0.224078,-0.00705 -0.181506,-1.075e-4 -0.21387,0.00171 -0.217904,0.01222 -0.0028,0.00737 0.101839,0.1925675 0.259678,0.4594699 l 0.264416,0.4471232 -0.271821,0.4463864 c -0.149502,0.2455125 -0.271821,0.451811 -0.271821,0.4584408 0,0.010309 0.03127,0.011735 0.215979,0.00985 l 0.21598,-0.0022 z"
           id="path4864" /></g></g></g></svg>
