<svg width="16" height="16" version="1.1" viewBox="0 0 4 4" xmlns="http://www.w3.org/2000/svg">
  <path
    d="m3.2118 4.0975c-0.096388-0.013791-0.18812-0.039927-0.24985-0.071189-0.074104-0.037528-0.15708-0.10215-0.21492-0.16738-0.15808-0.17828-0.21587-0.43247-0.15-0.65977 0.00683-0.023585 0.010659-0.044594 0.0085-0.046687-0.00313-0.00303-0.33267-0.18764-1.0636-0.59585l-0.017893-0.00999-0.061482 0.062023c-0.10216 0.10306-0.20523 0.16239-0.33787 0.19451-0.19419 0.04702-0.39572 0.011016-0.5645-0.10085-0.062374-0.041342-0.15399-0.13452-0.19734-0.20072-0.1162-0.17742-0.147-0.41041-0.080498-0.60879 0.014222-0.042422 0.058848-0.13374 0.083642-0.17115 0.083865-0.12655 0.21836-0.22897 0.36519-0.2781 0.15035-0.05031 0.31935-0.048394 0.46896 0.00532 0.10798 0.038765 0.21382 0.1128 0.29564 0.2068l0.024611 0.028274 0.13133-0.07329c0.42192-0.23546 0.93651-0.52344 0.9457-0.52926l0.010696-0.00677-0.011458-0.036158c-0.031713-0.10007-0.036183-0.25783-0.010228-0.36095 0.033897-0.13467 0.096288-0.24431 0.19346-0.33997 0.13751-0.13536 0.30589-0.2039 0.49888-0.20307 0.11788 5.0769e-4 0.21567 0.022961 0.31329 0.071933 0.44041 0.22093 0.52883 0.81198 0.17176 1.1481-0.10229 0.096296-0.22481 0.15839-0.36351 0.18425-0.068024 0.012679-0.19632 0.012778-0.25549 1.97e-4 -0.098382-0.020918-0.19882-0.064096-0.275-0.11822-0.044245-0.031435-0.11954-0.10125-0.14256-0.13217l-0.012168-0.016349-0.54044 0.30111c-0.29724 0.16561-0.54229 0.30273-0.54455 0.30472-0.00226 0.00199 4.043e-4 0.018955 0.00592 0.037704 0.035913 0.12202 0.037796 0.25113 0.00549 0.37639-0.010758 0.041715-0.012692 0.055848-0.00821 0.059995 0.00323 0.00298 0.24139 0.13679 0.52925 0.29736 0.28786 0.16056 0.53012 0.29589 0.53836 0.30073l0.014979 0.0088 0.024597-0.030387c0.068191-0.084242 0.19558-0.1701 0.31007-0.20898 0.077646-0.026369 0.13408-0.034996 0.2282-0.034883 0.096635 1.16e-4 0.15046 0.00868 0.23162 0.036846 0.12853 0.044609 0.25307 0.13584 0.33562 0.24585 0.061089 0.08141 0.11018 0.19447 0.13006 0.2995 0.013272 0.070146 0.012369 0.19958-0.00184 0.26425-0.032188 0.14646-0.090769 0.25345-0.19636 0.35862-0.10845 0.10802-0.23005 0.17271-0.37264 0.19824-0.043551 0.0078-0.16376 0.013638-0.19342 0.00939zm0.14442-0.22741c0.20752-0.036522 0.36561-0.19346 0.40135-0.39844 0.037639-0.21584-0.082575-0.43862-0.28422-0.52671-0.079548-0.034751-0.18182-0.048187-0.26936-0.035388-0.1864 0.027255-0.34283 0.16626-0.39665 0.35247-0.013412 0.046407-0.018563 0.14917-0.010196 0.2034 0.014231 0.092236 0.05955 0.18524 0.12359 0.25362 0.074836 0.079915 0.15601 0.12591 0.26128 0.14805 0.054139 0.011384 0.12007 0.012516 0.17419 0.00299zm-2.2826-1.2827c0.1767-0.047607 0.30768-0.17676 0.35578-0.35082 0.015858-0.05739 0.015672-0.17986-3.632e-4 -0.23953-0.047373-0.17629-0.17814-0.30651-0.35666-0.35517-0.015683-0.00428-0.058652-0.00894-0.095487-0.010361-0.079397-0.00307-0.13624 0.00654-0.20531 0.0347-0.12011 0.048967-0.22721 0.15946-0.27048 0.27904-0.024752 0.068406-0.031857 0.11418-0.028772 0.18537 0.00322 0.074216 0.015764 0.12905 0.042667 0.18646 0.068562 0.14631 0.18583 0.23926 0.3478 0.27568 0.056363 0.012674 0.15301 0.010214 0.21084-0.00537zm2.3309-1.2747c0.081151-0.023082 0.15049-0.062966 0.21085-0.12127 0.046296-0.044726 0.074479-0.084097 0.10212-0.14267 0.03564-0.075513 0.044674-0.11742 0.044227-0.20514-3.22e-4 -0.063198-0.00229-0.081607-0.013033-0.12214-0.072217-0.27235-0.34977-0.42685-0.61631-0.34308-0.16892 0.05309-0.29764 0.19554-0.3326 0.36807-0.011561 0.057054-0.00792 0.16477 0.00748 0.22117 0.048856 0.17895 0.18813 0.31056 0.37281 0.35229 0.049244 0.011128 0.17404 0.00711 0.22446-0.00724z"
    fill="#fff" stroke-width=".0049609" />
</svg>