<?xml version="1.0" encoding="UTF-8" standalone="no"?>
<!-- Created with Inkscape (http://www.inkscape.org/) -->

<svg
   width="16"
   height="16"
   viewBox="0 0 4.2333332 4.2333333"
   version="1.1"
   id="svg5"
   xml:space="preserve"
   inkscape:version="1.2.1 (9c6d41e4, 2022-07-14)"
   sodipodi:docname="agile_logo.svg"
   xmlns:inkscape="http://www.inkscape.org/namespaces/inkscape"
   xmlns:sodipodi="http://sodipodi.sourceforge.net/DTD/sodipodi-0.dtd"
   xmlns="http://www.w3.org/2000/svg"
   xmlns:svg="http://www.w3.org/2000/svg"><sodipodi:namedview
     id="namedview7"
     pagecolor="#ffffff"
     bordercolor="#000000"
     borderopacity="0.25"
     inkscape:showpageshadow="2"
     inkscape:pageopacity="0.0"
     inkscape:pagecheckerboard="0"
     inkscape:deskcolor="#d1d1d1"
     inkscape:document-units="mm"
     showgrid="false"
     inkscape:zoom="14.75"
     inkscape:cx="6.4067797"
     inkscape:cy="8"
     inkscape:window-width="1309"
     inkscape:window-height="456"
     inkscape:window-x="0"
     inkscape:window-y="92"
     inkscape:window-maximized="0"
     inkscape:current-layer="layer1" /><defs
     id="defs2" /><g
     inkscape:label="Layer 1"
     inkscape:groupmode="layer"
     id="layer1"><path
       style="fill:#d7f4ee;stroke-width:0.00529167"
       d="m 3.1829373,3.2052766 v -0.071881 l -0.013574,-0.00516 c -0.00868,-0.0033 -0.4690286,-0.00516 -1.2773712,-0.00516 -1.14753668,0 -1.26409308,-7.7e-4 -1.26700958,-0.00837 -0.00177,-0.0046 -0.00321,-0.075871 -0.00321,-0.158372 0,-0.1293096 0.00115,-0.1511488 0.00832,-0.1583172 0.00748,-0.00748 0.079736,-0.00832 0.71632758,-0.00832 0.6081745,0 0.714639,-0.00113 0.7550074,-0.00802 C 2.2636104,2.7540232 2.3862978,2.6792774 2.4834654,2.5489286 2.5155817,2.5058452 2.5664599,2.3995652 2.5797278,2.3478453 2.6143227,2.2129903 2.6006416,2.0761741 2.5398672,1.9492208 2.5069112,1.880378 2.4702708,1.8295815 2.4154495,1.7767336 2.3401942,1.7041873 2.2629678,1.660049 2.1616457,1.6316737 2.1150326,1.6186197 2.1040593,1.6176163 2.0108332,1.617883 1.9181682,1.6181481 1.9061941,1.619303 1.8579903,1.632602 1.6880371,1.679496 1.551855,1.7945865 1.4764782,1.9550264 c -0.027008,0.057488 -0.042545,0.1110971 -0.050158,0.1730763 -0.00748,0.060908 -0.00712,0.09013 0.00111,0.08996 0.00364,-7.57e-5 0.03638,-0.00456 0.07276,-0.00997 0.03638,-0.00541 0.066897,-0.00916 0.067816,-0.00834 0.00144,0.00129 -0.072498,0.1459135 -0.2048151,0.4006415 -0.019239,0.037037 -0.037096,0.066693 -0.039682,0.065901 -0.0056,-0.00171 -0.36282648,-0.3707273 -0.36082348,-0.3727304 7.607e-4,-7.607e-4 0.026027,-0.00589 0.056147,-0.011399 0.034536,-0.00632 0.057031,-0.013116 0.060901,-0.018409 0.00368,-0.00503 0.0075,-0.04288 0.00953,-0.094444 0.00186,-0.047328 0.00687,-0.1062044 0.011123,-0.1308355 0.00425,-0.024631 0.00694,-0.045574 0.00598,-0.046541 C 1.1054004,1.99097 1.0855436,1.9856263 1.0622406,1.9800593 0.90499432,1.9425064 0.77572382,1.8370054 0.70839962,1.6912909 c -0.0312356,-0.067605 -0.0453567,-0.131781 -0.0459072,-0.208633 -2.609e-4,-0.03638 0.00253,-0.080433 0.0062,-0.097896 0.015663,-0.074515 0.045245,-0.1445689 0.087089,-0.206235 0.045542,-0.067116 0.1311394,-0.1379471 0.2088306,-0.1728048 0.091184,-0.0409115 0.20652448,-0.0559156 0.30069818,-0.0391164 0.061102,0.0109 0.099186,0.024311 0.1653409,0.058227 0.031666,0.016234 0.050663,0.02315 0.055757,0.020298 0.00425,-0.00238 0.015056,-0.014447 0.024015,-0.026816 0.00896,-0.012369 0.018198,-0.02249 0.02053,-0.02249 0.00233,0 0.017875,0.056603 0.03454,0.12578342 0.016664,0.069181 0.031634,0.1308896 0.033266,0.1371303 0.00567,0.021677 -0.00938,0.023374 -0.1312099,0.014793 -0.062086,-0.00437 -0.1230137,-0.00926 -0.135396,-0.010865 l -0.022513,-0.00291 0.024247,-0.029766 0.024247,-0.029766 -0.012317,-0.00945 c -0.032402,-0.024848 -0.1127724,-0.046765 -0.1710675,-0.046651 -0.07016,1.376e-4 -0.1607689,0.035549 -0.21493538,0.084001 -0.039098,0.034973 -0.075617,0.089226 -0.09305,0.1382363 -0.010705,0.030096 -0.014631,0.052774 -0.016398,0.094735 -0.00284,0.06744 0.00366,0.1000089 0.03166,0.1585691 0.016819,0.035181 0.030189,0.053432 0.064372,0.087879 0.034274,0.034539 0.05239,0.048003 0.088123,0.065495 0.050714,0.024825 0.1105502,0.039671 0.1300357,0.032263 0.00761,-0.00289 0.018544,-0.01671 0.027995,-0.035373 C 1.21664,1.7223578 1.26676,1.6487734 1.3109123,1.5961541 1.4362799,1.4467464 1.6221204,1.3383819 1.8232847,1.2973873 1.9411842,1.2733613 2.0544559,1.2716953 2.1749822,1.2922173 2.3646679,1.3245133 2.5429925,1.421003 2.6803022,1.5656397 2.8510217,1.745469 2.944007,1.997823 2.9324512,2.24995 c -0.00764,0.1667189 -0.057518,0.3148499 -0.1563877,0.4644669 -0.023605,0.03572 -0.042918,0.067272 -0.042918,0.070115 0,0.00328 0.079992,0.00517 0.2189562,0.00517 0.1744645,0 0.2201295,-0.00141 0.2247304,-0.00696 0.0033,-0.00397 0.00641,-0.035492 0.00726,-0.073523 l 0.00149,-0.066565 0.047905,0.035158 c 0.3121996,0.2291255 0.3780737,0.2781262 0.3780737,0.2812318 0,0.00199 -0.052983,0.042573 -0.1177396,0.090174 -0.064757,0.047601 -0.1582208,0.1165323 -0.2076979,0.1531793 -0.049477,0.036647 -0.092935,0.06846 -0.096573,0.070695 -0.00517,0.00317 -0.00661,-0.011672 -0.00661,-0.067816 z"
       id="path372" /></g></svg>
