<?xml version="1.0" encoding="UTF-8" standalone="no"?>
<!-- Created with Inkscape (http://www.inkscape.org/) -->

<svg
   width="32"
   height="32"
   viewBox="0 0 8.4666665 8.4666666"
   version="1.1"
   id="svg5"
   xml:space="preserve"
   inkscape:version="1.2.1 (9c6d41e4, 2022-07-14)"
   sodipodi:docname="analytics_icon.svg"
   xmlns:inkscape="http://www.inkscape.org/namespaces/inkscape"
   xmlns:sodipodi="http://sodipodi.sourceforge.net/DTD/sodipodi-0.dtd"
   xmlns="http://www.w3.org/2000/svg"
   xmlns:svg="http://www.w3.org/2000/svg"><sodipodi:namedview
     id="namedview7"
     pagecolor="#ffffff"
     bordercolor="#000000"
     borderopacity="0.25"
     inkscape:showpageshadow="2"
     inkscape:pageopacity="0.0"
     inkscape:pagecheckerboard="0"
     inkscape:deskcolor="#d1d1d1"
     inkscape:document-units="mm"
     showgrid="false"
     inkscape:zoom="6.71875"
     inkscape:cx="16.148837"
     inkscape:cy="16.074419"
     inkscape:window-width="1728"
     inkscape:window-height="1080"
     inkscape:window-x="0"
     inkscape:window-y="37"
     inkscape:window-maximized="0"
     inkscape:current-layer="layer1" /><defs
     id="defs2" /><g
     inkscape:label="Layer 1"
     inkscape:groupmode="layer"
     id="layer1"><g
       id="g812"
       transform="translate(9.02683,-0.08208834)"><path
         style="fill:#d0d0d0;fill-opacity:1;stroke-width:0.00705556"
         d="m -4.1128967,8.1899487 c 0,-0.00146 0.00556,-0.00702 0.012347,-0.012347 0.01119,-0.00878 0.01144,-0.00853 0.00266,0.00266 -0.00922,0.011752 -0.015011,0.015491 -0.015011,0.00968 z m 2.7375554,-0.0066 c 0,-0.00121 0.010319,-0.011533 0.022931,-0.022931 l 0.022931,-0.020723 -0.020723,0.022931 c -0.019317,0.021375 -0.025138,0.026174 -0.025139,0.020723 z m -2.6987498,-0.03307 c 0.00702,-0.00776 0.014358,-0.014111 0.016298,-0.014111 0.00194,0 -0.00222,0.00635 -0.00924,0.014111 -0.00702,0.00776 -0.014358,0.014111 -0.016298,0.014111 -0.00194,0 0.00222,-0.00635 0.00924,-0.014111 z M -5.5310633,3.625461 c 0,-0.00121 0.010319,-0.011533 0.022931,-0.022931 l 0.022931,-0.020723 -0.020723,0.022931 c -0.019316,0.021375 -0.025138,0.026174 -0.025139,0.020723 z m 1.4353617,-0.034834 -0.020723,-0.022931 0.022931,0.020723 c 0.021375,0.019317 0.026174,0.025138 0.020723,0.025138 -0.00121,0 -0.011533,-0.010319 -0.02293,-0.02293 z"
         id="path258" /><path
         style="fill:#b9b9b9;fill-opacity:1;stroke-width:0.00705556"
         d="m -7.561165,8.4628901 c 0.00686,-0.00179 0.01639,-0.00167 0.021167,2.61e-4 0.00478,0.00193 -8.398e-4,0.0034 -0.012482,0.00325 -0.011642,-1.411e-4 -0.01555,-0.00173 -0.00869,-0.00351 z m 0.0635,0 c 0.00686,-0.00179 0.01639,-0.00167 0.021167,2.61e-4 0.00478,0.00193 -8.399e-4,0.0034 -0.012482,0.00325 -0.011642,-1.411e-4 -0.01555,-0.00173 -0.00869,-0.00351 z m 5.4396988,0 c 0.00679,-0.00178 0.017903,-0.00178 0.024694,0 0.00679,0.00177 0.00123,0.00323 -0.012347,0.00323 -0.013582,0 -0.019138,-0.00145 -0.012347,-0.00323 z M -3.0957827,7.4658907 c 0,-0.0097 0.0016,-0.01367 0.00356,-0.00882 0.00196,0.00485 0.00196,0.012788 0,0.017639 -0.00196,0.00485 -0.00356,8.819e-4 -0.00356,-0.00882 z m 2.0467764,-0.017639 c 7.76e-5,-0.015522 0.00152,-0.021042 0.00321,-0.012265 0.00169,0.00878 0.00162,0.021476 -1.411e-4,0.028222 -0.00177,0.00675 -0.00315,-4.375e-4 -0.00307,-0.015958 z M -7.561165,6.4167791 c 0.00686,-0.00179 0.01639,-0.00167 0.021167,2.618e-4 0.00478,0.00193 -8.398e-4,0.0034 -0.012482,0.00325 -0.011642,-1.439e-4 -0.01555,-0.00173 -0.00869,-0.00351 z m 0.0635,0 c 0.00686,-0.00179 0.01639,-0.00167 0.021167,2.618e-4 0.00478,0.00193 -8.399e-4,0.0034 -0.012482,0.00325 -0.011642,-1.439e-4 -0.01555,-0.00173 -0.00869,-0.00351 z m 4.4018823,-5.2444436 c 0,-0.0097 0.0016,-0.01367 0.00356,-0.00882 0.00196,0.00485 0.00196,0.012788 0,0.017639 -0.00196,0.00485 -0.00356,8.819e-4 -0.00356,-0.00882 z M -2.124994,0.16577389 c 0.00485,-0.001957 0.012788,-0.001957 0.017639,0 0.00485,0.001957 8.819e-4,0.003559 -0.00882,0.003559 -0.0097,0 -0.01367,-0.001601 -0.00882,-0.003559 z m 0.1062743,-1.4696e-4 c 0.00509,-0.002038 0.011179,-0.001787 0.013523,5.5703e-4 0.00234,0.002344 -0.00182,0.004012 -0.00926,0.003706 -0.00822,-3.3852e-4 -0.00989,-0.00201 -0.00426,-0.004263 z"
         id="path256" /><path
         style="fill:#a3a3a3;fill-opacity:1;stroke-width:0.00705556"
         d="m -7.5295493,8.4631067 c 0.00485,-0.00196 0.012788,-0.00196 0.017639,0 0.00485,0.00196 8.82e-4,0.00356 -0.00882,0.00356 -0.0097,0 -0.01367,-0.0016 -0.00882,-0.00356 z m 2.6740554,-3.034e-4 c 0.00873,-0.00168 0.023019,-0.00168 0.03175,0 0.00873,0.00168 0.00159,0.00306 -0.015875,0.00306 -0.017462,0 -0.024606,-0.00138 -0.015875,-0.00306 z m 0.059972,1.129e-4 c 0.00679,-0.00178 0.017903,-0.00178 0.024694,0 0.00679,0.00177 0.00123,0.00323 -0.012347,0.00323 -0.013582,0 -0.019138,-0.00145 -0.012347,-0.00323 z m 2.631722,-3.246e-4 c 0.018433,-0.00145 0.048595,-0.00145 0.067028,0 0.018433,0.00145 0.00335,0.00264 -0.033514,0.00264 -0.036865,0 -0.051947,-0.00119 -0.033514,-0.00264 z m 0.7390697,-0.2373651 c 0,-0.00146 0.00556,-0.00702 0.012347,-0.012347 0.011191,-0.00878 0.01144,-0.00853 0.00266,0.00266 -0.00922,0.011752 -0.015011,0.01549 -0.015011,0.00968 z m -1.3374715,-0.034377 -0.020723,-0.022931 0.022931,0.020723 c 0.021375,0.019317 0.026174,0.025138 0.020723,0.025138 -0.00121,0 -0.011533,-0.010319 -0.022931,-0.02293 z m -0.045951,-0.045861 -0.017105,-0.019403 0.019403,0.017105 c 0.010672,0.00941 0.019403,0.018139 0.019403,0.019403 0,0.00553 -0.00571,0.00103 -0.021701,-0.017105 z M -3.0892841,7.5393863 c 3.386e-4,-0.00822 0.00201,-0.00989 0.00426,-0.00426 0.00204,0.00509 0.00179,0.011179 -5.566e-4,0.013523 -0.00234,0.00234 -0.00401,-0.00182 -0.00371,-0.00926 z m 2.0319995,-0.00706 c 3.387e-4,-0.00822 0.00201,-0.00989 0.00426,-0.00426 0.00204,0.00509 0.00179,0.011179 -5.574e-4,0.013523 -0.00234,0.00234 -0.00401,-0.00182 -0.00371,-0.00926 z m -5.4468882,-0.014107 c 3.386e-4,-0.00822 0.00201,-0.00989 0.00426,-0.00426 0.00204,0.00509 0.00179,0.011179 -5.566e-4,0.013523 -0.00234,0.00234 -0.00401,-0.00182 -0.00371,-0.00926 z m 3.4107725,-3.1991066 c 0,-1.7249068 8.078e-4,-2.4305505 0.0018,-1.5680971 9.873e-4,0.8624534 9.873e-4,2.2737408 0,3.1361943 -9.874e-4,0.8624534 -0.0018,0.1568097 -0.0018,-1.5680972 z m 2.0461113,-0.070556 c 0,-1.7481902 8.079e-4,-2.4633589 0.00179,-1.5892638 9.871e-4,0.8740951 9.871e-4,2.3044325 0,3.1785276 -9.87e-4,0.8740951 -0.00179,0.1589264 -0.00179,-1.5892638 z M -6.5041728,7.362997 c 3.386e-4,-0.00822 0.00201,-0.00989 0.00426,-0.00426 0.00204,0.00509 0.00179,0.011179 -5.566e-4,0.013523 -0.00234,0.00234 -0.00401,-0.00182 -0.00371,-0.00926 z m 0.6778902,-0.1017178 c 0,-0.0097 0.0016,-0.01367 0.00356,-0.00882 0.00196,0.00485 0.00196,0.012788 0,0.017639 -0.00196,0.00485 -0.00356,8.819e-4 -0.00356,-0.00882 z M -7.5295493,6.4169958 c 0.00485,-0.00196 0.012788,-0.00196 0.017639,0 0.00485,0.00196 8.82e-4,0.00356 -0.00882,0.00356 -0.0097,0 -0.01367,-0.0016 -0.00882,-0.00356 z M -3.7877841,4.258553 c 3.387e-4,-0.00822 0.00201,-0.00989 0.00426,-0.00426 0.00204,0.00509 0.00179,0.011179 -5.567e-4,0.013523 -0.00234,0.00234 -0.00401,-0.00182 -0.00371,-0.00926 z m 0.6985,-3.1608888 c 3.386e-4,-0.00822 0.00201,-0.00989 0.00426,-0.00426 0.00204,0.00509 0.00179,0.011179 -5.566e-4,0.013523 -0.00234,0.00234 -0.00401,-0.00182 -0.00371,-0.00926 z m 0.3028318,-0.6203009 c 0.021078,-0.0213431 0.039911,-0.0388056 0.041851,-0.0388056 0.00194,0 -0.013718,0.0174625 -0.034796,0.0388056 -0.021078,0.0213431 -0.039911,0.0388056 -0.041851,0.0388056 -0.00194,0 0.013718,-0.0174625 0.034796,-0.0388056 z m 1.4737107,0.0264583 c -0.00878,-0.0111905 -0.00853,-0.0114401 0.00266,-0.002664 0.00679,0.005326 0.012347,0.0108821 0.012347,0.0123472 0,0.005807 -0.00579,0.002069 -0.015011,-0.009683 z m -0.073853,-0.0740833 -0.013441,-0.015875 0.015875,0.0134407 c 0.014918,0.012631 0.019087,0.0183093 0.013441,0.0183093 -0.00134,0 -0.00848,-0.007144 -0.015875,-0.015875 z M -2.188053,0.17268246 c 0.00509,-0.002038 0.011179,-0.001787 0.013523,5.5704e-4 0.00234,0.002344 -0.00182,0.004012 -0.00926,0.003706 -0.00822,-3.3853e-4 -0.00989,-0.00201 -0.00426,-0.004263 z m 0.2328333,0 c 0.00509,-0.002038 0.011179,-0.001787 0.013523,5.5704e-4 0.00234,0.002344 -0.00182,0.004012 -0.00926,0.003706 -0.00822,-3.3853e-4 -0.00989,-0.00201 -0.00426,-0.004263 z m -0.1273146,-0.007349 c 0.012681,-0.00157 0.031731,-0.001538 0.042333,7.204e-5 0.010602,0.00161 2.265e-4,0.002895 -0.023057,0.002855 -0.023283,-3.951e-5 -0.031958,-0.001357 -0.019276,-0.002927 z"
         id="path254" /><path
         style="fill:#f9ab00;fill-opacity:1;stroke-width:0.00705556"
         d="m -7.6278861,8.4559044 c 0.00509,-0.00204 0.011179,-0.00179 0.013523,5.573e-4 0.00234,0.00234 -0.00182,0.00401 -0.00926,0.00371 -0.00822,-3.386e-4 -0.00989,-0.00201 -0.00426,-0.00426 z m 0.2046111,0 c 0.00509,-0.00204 0.011179,-0.00179 0.013523,5.573e-4 0.00234,0.00234 -0.00182,0.00401 -0.00926,0.00371 -0.00822,-3.386e-4 -0.00989,-0.00201 -0.00426,-0.00426 z m 2.7163888,0 c 0.00509,-0.00204 0.011179,-0.00179 0.013523,5.573e-4 0.00234,0.00234 -0.00182,0.00401 -0.00926,0.00371 -0.00822,-3.386e-4 -0.00989,-0.00201 -0.00426,-0.00426 z m 2.4496005,-0.003 C -2.4657399,8.406435 -2.6374283,8.3121439 -2.7846797,8.1632625 -2.9277224,8.0186356 -3.0237444,7.8405929 -3.069915,7.6343809 l -0.016398,-0.07324 V 4.3191131 1.0770855 l 0.016503,-0.074083 c 0.046329,-0.20797628 0.1346916,-0.36726147 0.2899449,-0.52266657 0.129189,-0.12931528 0.2539519,-0.20687036 0.4238021,-0.26344373 0.1171373,-0.0390159 0.188278,-0.0487079 0.3245555,-0.0442168 0.089671,0.002955 0.1340189,0.007958 0.1930358,0.0217757 0.3882488,0.0909018 0.6899846,0.39986916 0.7732246,0.7917556 l 0.014808,0.0697124 -0.00206,3.2561388 -0.00206,3.2561387 -0.014862,0.063585 c -0.049895,0.2135036 -0.1421603,0.3827275 -0.288398,0.5289645 -0.1439785,0.1439785 -0.3093508,0.2351786 -0.5078829,0.2800886 -0.050145,0.011343 -0.094661,0.014867 -0.2116666,0.016757 -0.083166,0.00134 -0.1620952,-7.119e-4 -0.1799167,-0.00468 z m -3.1721424,-0.2197241 -0.013441,-0.015875 0.015875,0.013441 c 0.014919,0.012631 0.019087,0.018309 0.013441,0.018309 -0.00134,0 -0.00848,-0.00714 -0.015875,-0.015875 z m -2.814717,-0.070556 -0.042112,-0.044097 0.044097,0.042112 c 0.040963,0.039119 0.047326,0.046082 0.042112,0.046082 -0.00109,0 -0.020935,-0.019844 -0.044097,-0.044097 z m 1.4007486,0.041889 c 0,-0.00121 0.010319,-0.011533 0.022931,-0.022931 l 0.022931,-0.020723 -0.020723,0.022931 c -0.019317,0.021375 -0.025138,0.026174 -0.025139,0.020723 z m 1.3363573,-0.048945 -0.013441,-0.015875 0.015875,0.013441 c 0.014919,0.012631 0.019087,0.018309 0.013441,0.018309 -0.00134,0 -0.00848,-0.00714 -0.015875,-0.015875 z m -1.2728573,-0.015872 c 0.00911,-0.0097 0.018158,-0.017639 0.020099,-0.017639 0.00194,0 -0.00393,0.00794 -0.013043,0.017639 -0.00911,0.0097 -0.018158,0.017639 -0.020099,0.017639 -0.00194,0 0.00393,-0.00794 0.013043,-0.017639 z m 2.7304998,-0.020303 c 0,-0.00146 0.00556,-0.00702 0.012347,-0.012347 0.011191,-0.00878 0.01144,-0.00853 0.00266,0.00266 -0.00922,0.011753 -0.015011,0.015491 -0.015011,0.00968 z m 0.2626925,-0.6041136 c 0,-0.013582 0.00145,-0.019138 0.00323,-0.012347 0.00177,0.00679 0.00177,0.017904 0,0.024694 -0.00177,0.00679 -0.00323,0.00123 -0.00323,-0.012347 z m -4.7554442,-0.021167 c 0,-0.013582 0.00145,-0.019138 0.00323,-0.012347 0.00178,0.00679 0.00178,0.017904 0,0.024694 -0.00178,0.00679 -0.00323,0.00123 -0.00323,-0.012347 z m 2.038794,-0.00353 c 1.439e-4,-0.011642 0.00173,-0.01555 0.00351,-0.00869 0.00179,0.00687 0.00167,0.01639 -2.618e-4,0.021167 -0.00193,0.00478 -0.0034,-8.396e-4 -0.00325,-0.012481 z m 0,-0.098778 c 1.439e-4,-0.011642 0.00173,-0.01555 0.00351,-0.00869 0.00179,0.00687 0.00167,0.01639 -2.618e-4,0.021167 -0.00193,0.00478 -0.0034,-8.396e-4 -0.00325,-0.012481 z m -2.0390554,-0.042333 c 1.437e-4,-0.011642 0.00173,-0.01555 0.00351,-0.00869 0.00179,0.00687 0.00167,0.01639 -2.615e-4,0.021167 -0.00193,0.00478 -0.0034,-8.396e-4 -0.00325,-0.012481 z m 2.7226258,-0.00764 c 3.387e-4,-0.00822 0.00201,-0.00989 0.00426,-0.00426 0.00204,0.00509 0.00179,0.011179 -5.567e-4,0.013523 -0.00234,0.00234 -0.00401,-0.00182 -0.00371,-0.00926 z m -0.00598,-0.1158289 c 0,-0.013582 0.00145,-0.019138 0.00323,-0.012347 0.00177,0.00679 0.00177,0.017904 0,0.024694 -0.00177,0.00679 -0.00323,0.00123 -0.00323,-0.012347 z M -8.2545076,6.7215297 c 0.021078,-0.021343 0.039911,-0.038806 0.041851,-0.038806 0.00194,0 -0.013718,0.017463 -0.034796,0.038806 -0.021078,0.021343 -0.039911,0.038805 -0.041851,0.038805 -0.00194,0 0.013718,-0.017462 0.034796,-0.038805 z m 1.474077,0.019403 -0.017105,-0.019403 0.019403,0.017105 c 0.018135,0.015987 0.022638,0.021701 0.017105,0.021701 -0.00126,0 -0.00999,-0.00873 -0.019403,-0.019403 z m -0.045771,-0.045861 -0.020723,-0.022931 0.022931,0.020723 c 0.021375,0.019317 0.026174,0.025138 0.020723,0.025138 -0.00121,0 -0.011533,-0.010319 -0.022931,-0.02293 z M -7.6278861,6.4239044 c 0.00509,-0.00204 0.011179,-0.00179 0.013523,5.567e-4 0.00234,0.00234 -0.00182,0.00401 -0.00926,0.00371 -0.00822,-3.387e-4 -0.00989,-0.00201 -0.00426,-0.00426 z m 0.2046111,0 c 0.00509,-0.00204 0.011179,-0.00179 0.013523,5.567e-4 0.00234,0.00234 -0.00182,0.00401 -0.00926,0.00371 -0.00822,-3.387e-4 -0.00989,-0.00201 -0.00426,-0.00426 z m 1.5975153,-2.1047913 c 0,-0.013582 0.00145,-0.019138 0.00323,-0.012347 0.00177,0.00679 0.00177,0.017904 0,0.024694 -0.00177,0.00679 -0.00323,0.00123 -0.00323,-0.012347 z m 2.038794,-0.03175 c 1.44e-4,-0.011642 0.00173,-0.01555 0.00351,-0.00869 0.00179,0.00686 0.00167,0.01639 -2.618e-4,0.021167 -0.00193,0.00478 -0.0034,-8.398e-4 -0.00325,-0.012481 z m -1.768792,-0.6314722 c 0.00702,-0.00776 0.014358,-0.014111 0.016298,-0.014111 0.00194,0 -0.00222,0.00635 -0.00924,0.014111 -0.00702,0.00776 -0.014358,0.014111 -0.016298,0.014111 -0.00194,0 0.00222,-0.00635 0.00924,-0.014111 z m 1.505461,-0.012347 c -0.00878,-0.01119 -0.00853,-0.01144 0.00266,-0.00266 0.011753,0.00922 0.01549,0.015011 0.00968,0.015011 -0.00147,0 -0.00702,-0.00556 -0.012347,-0.012347 z m -1.4243221,-0.067928 c 0,-0.00147 0.00556,-0.00702 0.012347,-0.012347 0.011191,-0.00878 0.01144,-0.00853 0.00266,0.00266 -0.00922,0.011753 -0.015011,0.01549 -0.015011,0.00968 z m 1.3325999,-0.023794 c -0.00878,-0.011191 -0.00853,-0.01144 0.00266,-0.00266 0.011753,0.00922 0.01549,0.015011 0.00968,0.015011 -0.00147,0 -0.00702,-0.00556 -0.012347,-0.012347 z M -4.8479973,3.2982935 c 0.00509,-0.00204 0.011179,-0.00179 0.013523,5.566e-4 0.00234,0.00234 -0.00182,0.00401 -0.00926,0.00371 -0.00822,-3.387e-4 -0.00989,-0.00201 -0.00426,-0.00426 z m 0.080698,-4.24e-5 c 0.00679,-0.00177 0.017904,-0.00177 0.024694,0 0.00679,0.00177 0.00123,0.00323 -0.012347,0.00323 -0.013582,0 -0.019138,-0.00145 -0.012347,-0.00323 z"
         id="path252" /><path
         style="fill:#e37400;fill-opacity:1;stroke-width:0.00705556"
         d="m -4.9313411,8.4574646 c -0.00582,-0.00139 -0.034396,-0.0064 -0.0635,-0.011125 -0.058328,-0.00947 -0.1734253,-0.047337 -0.2289337,-0.075309 -0.1915142,-0.096509 -0.3440305,-0.258692 -0.4483033,-0.4767185 -0.073832,-0.154377 -0.109416,-0.2844419 -0.1423051,-0.5201433 -0.011095,-0.07951 -0.017239,-2.9361145 -0.00661,-3.0726943 0.011864,-0.1524355 0.043981,-0.273586 0.1056797,-0.3986388 0.1631811,-0.3307397 0.4656698,-0.5491184 0.8262351,-0.5964922 0.2175367,-0.028582 0.4702772,0.041094 0.6726121,0.1854252 0.075316,0.053725 0.1812526,0.160354 0.2353559,0.2368935 0.08194,0.11592 0.147722,0.2648167 0.1747023,0.3954366 0.024739,0.1197693 0.025904,0.2114492 0.023422,1.8424868 l -0.00245,1.6086665 -0.015072,0.060887 c -0.093071,0.3759965 -0.3350747,0.6502685 -0.6791145,0.769669 -0.1084705,0.037645 -0.1756311,0.048666 -0.3141353,0.051546 -0.06985,0.00145 -0.1317625,0.0015 -0.1375834,1.129e-4 z"
         id="path321" /><path
         style="fill:#e37400;fill-opacity:1;stroke-width:0.00705556"
         d="m -7.6336187,8.4564046 c -0.013582,-0.00167 -0.056065,-0.00956 -0.094407,-0.017523 -0.3589182,-0.074562 -0.6531654,-0.3403339 -0.7647817,-0.6907685 -0.03416,-0.10725 -0.046056,-0.1921277 -0.045985,-0.3280833 5.08e-5,-0.095504 0.00315,-0.1345918 0.015219,-0.1918292 0.042311,-0.2006894 0.124611,-0.3517621 0.2724229,-0.5000703 0.1518384,-0.1523482 0.3121206,-0.2400285 0.523932,-0.2866105 0.103872,-0.022844 0.3079315,-0.022799 0.4102561,9.04e-5 0.4203168,0.094021 0.7302675,0.4149654 0.8018138,0.830253 0.016068,0.093268 0.016068,0.2453985 0,0.3386666 -0.053916,0.3129527 -0.2546967,0.5893272 -0.532166,0.7325261 -0.1543687,0.079668 -0.2735481,0.1101506 -0.4451935,0.1138682 -0.064029,0.00139 -0.1275292,0.00115 -0.1411111,-5.221e-4 z"
         id="path250" /></g></g></svg>
