<?xml version="1.0" encoding="UTF-8" standalone="no"?>
<!-- Created with Inkscape (http://www.inkscape.org/) -->

<svg
   width="16"
   height="16"
   viewBox="0 0 4.2333332 4.2333333"
   version="1.1"
   id="svg5"
   xml:space="preserve"
   inkscape:version="1.2.1 (9c6d41e4, 2022-07-14)"
   sodipodi:docname="angular_logo.svg"
   xmlns:inkscape="http://www.inkscape.org/namespaces/inkscape"
   xmlns:sodipodi="http://sodipodi.sourceforge.net/DTD/sodipodi-0.dtd"
   xmlns="http://www.w3.org/2000/svg"
   xmlns:svg="http://www.w3.org/2000/svg"><sodipodi:namedview
     id="namedview7"
     pagecolor="#ffffff"
     bordercolor="#000000"
     borderopacity="0.25"
     inkscape:showpageshadow="2"
     inkscape:pageopacity="0.0"
     inkscape:pagecheckerboard="0"
     inkscape:deskcolor="#d1d1d1"
     inkscape:document-units="mm"
     showgrid="false"
     inkscape:zoom="14.75"
     inkscape:cx="1.5932203"
     inkscape:cy="8.0338983"
     inkscape:window-width="1680"
     inkscape:window-height="997"
     inkscape:window-x="0"
     inkscape:window-y="92"
     inkscape:window-maximized="0"
     inkscape:current-layer="layer1" /><defs
     id="defs2" /><g
     inkscape:label="Layer 1"
     inkscape:groupmode="layer"
     id="layer1"><path
       id="path613"
       style="fill:#ffffff;stroke-width:0.00242361"
       d="M 2.1171834 0.13229167 L 1.1947591 0.46095378 C 0.68758671 0.64178247 0.27147435 0.79053454 0.27026774 0.79168294 C 0.26821506 0.79363664 0.54566974 3.2122421 0.54983724 3.2287435 C 0.55151191 3.2353747 0.61138292 3.2689794 1.333252 3.6690267 C 1.7631029 3.9072425 2.1158902 4.1016157 2.1177002 4.1010417 C 2.1208739 4.1000337 3.679249 3.2374214 3.681429 3.2354614 C 3.6833487 3.2337405 3.9646056 0.79331294 3.9630656 0.79168294 C 3.9622502 0.79081624 3.5463171 0.64179059 3.039091 0.46095378 L 2.1171834 0.13229167 z " /><path
       style="fill:#aa0000;stroke-width:0.00242361"
       d="M 1.3330533,3.6689635 C 0.61118355,3.2689158 0.55136709,3.2352951 0.54969242,3.2286639 0.54552492,3.2121625 0.26841543,0.79389299 0.27046811,0.79193929 0.27167472,0.79079089 0.68762159,0.6419003 1.1947945,0.46107143 L 2.1169269,0.13229168 3.0391573,0.46108622 c 0.5072266,0.18083699 0.9228976,0.32950377 0.923713,0.33037047 0.00154,0.00163 -0.2796208,2.44246391 -0.2815405,2.44418481 -0.00218,0.00196 -1.5602707,0.8643909 -1.5634444,0.8653989 -0.00181,5.74e-4 -0.3549807,-0.1938609 -0.7848321,-0.4320769 z M 1.5078837,2.8724852 1.6233998,2.5840763 2.1137842,2.5834989 2.6041688,2.5829217 2.6779255,2.7676929 c 0.040566,0.1016244 0.092777,0.2319406 0.1160249,0.2895921 l 0.04227,0.1048206 h 0.2156618 c 0.2043675,0 0.2155807,-2.229e-4 0.2141111,-0.00424 C 3.2613033,3.1450346 2.1168246,0.57131696 2.1158136,0.57132245 2.1149487,0.5713273 0.96658481,3.1437318 0.96015391,3.1600696 c -4.467e-4,0.00113 0.096619,0.00178 0.21570079,0.00144 l 0.216513,-6.133e-4 z m 0.2766539,-0.661038 c 0.00305,-0.007 0.078561,-0.1885751 0.1678041,-0.4035043 0.089243,-0.2149292 0.1628048,-0.3907902 0.1634714,-0.3908021 6.664e-4,-1.21e-5 0.073152,0.1731126 0.161077,0.3847213 0.087926,0.2116088 0.1634149,0.3931954 0.1677537,0.403526 l 0.00789,0.018783 H 2.1157626 1.7789931 Z"
       id="path302" /></g></svg>
