<?xml version="1.0" encoding="UTF-8" standalone="no"?>
<!-- Created with Inkscape (http://www.inkscape.org/) -->

<svg
   width="16"
   height="16"
   viewBox="0 0 4.2333332 4.2333333"
   version="1.1"
   id="svg5"
   xml:space="preserve"
   inkscape:version="1.2.1 (9c6d41e4, 2022-07-14)"
   sodipodi:docname="behance_icon.svg"
   xmlns:inkscape="http://www.inkscape.org/namespaces/inkscape"
   xmlns:sodipodi="http://sodipodi.sourceforge.net/DTD/sodipodi-0.dtd"
   xmlns="http://www.w3.org/2000/svg"
   xmlns:svg="http://www.w3.org/2000/svg"><sodipodi:namedview
     id="namedview7"
     pagecolor="#ffffff"
     bordercolor="#000000"
     borderopacity="0.25"
     inkscape:showpageshadow="2"
     inkscape:pageopacity="0.0"
     inkscape:pagecheckerboard="0"
     inkscape:deskcolor="#d1d1d1"
     inkscape:document-units="mm"
     showgrid="false"
     inkscape:zoom="20.802204"
     inkscape:cx="-7.330954"
     inkscape:cy="11.465131"
     inkscape:window-width="1680"
     inkscape:window-height="997"
     inkscape:window-x="0"
     inkscape:window-y="92"
     inkscape:window-maximized="0"
     inkscape:current-layer="layer1" /><defs
     id="defs2" /><g
     inkscape:label="Layer 1"
     inkscape:groupmode="layer"
     id="layer1"><path
       style="fill:#000000;fill-opacity:1;stroke:#000000;stroke-width:0.289848;stroke-dasharray:none;stroke-opacity:1"
       d="M 2.0983947,0.14501065 A 1.971723,1.9716947 0 0 0 0.14496402,2.129221 1.971723,1.9716947 0 0 0 2.1229451,4.0884002 1.971723,1.9716947 0 0 0 4.0884103,2.1167054 v -0.02455 A 1.971723,1.9716947 0 0 0 2.0983947,0.14501065 Z"
       id="path297" /><path
       id="path234"
       style="fill:#ffffff;fill-opacity:1;stroke-width:0.289848;stroke-dasharray:none"
       d="M 2.0985799 0.14521077 A 1.9717231 1.9716948 0 0 0 0.14521077 2.129069 A 1.9717231 1.9716948 0 0 0 2.1228678 4.0886393 A 1.9717231 1.9716948 0 0 0 4.0886393 2.1166667 L 4.0886393 2.0923787 A 1.9717231 1.9716948 0 0 0 2.0985799 0.14521077 z M 2.38125 1.4552083 L 2.9987834 1.4552083 L 2.9987834 1.631425 L 2.38125 1.631425 L 2.38125 1.4552083 z M 1.0583333 1.4572754 L 1.6717326 1.4572754 C 2.1546796 1.4644154 2.1637444 1.937085 1.9115112 2.0660238 C 2.2167486 2.1771475 2.2271452 2.7770915 1.6288411 2.7770915 L 1.0583333 2.7770915 L 1.0583333 1.4572754 z M 1.3229167 1.7197917 L 1.3229167 1.984375 L 1.6391764 1.984375 C 1.8603655 1.984375 1.8950772 1.7197917 1.6112712 1.7197917 L 1.3229167 1.7197917 z M 2.6923421 1.7554484 C 2.9641542 1.7554484 3.1299675 1.9124221 3.166215 2.1456055 C 3.173095 2.1902314 3.1757132 2.2507811 3.1744832 2.3347412 L 2.4670329 2.3347412 C 2.4784979 2.6179302 2.7742056 2.6266939 2.8716593 2.5135417 L 3.1507121 2.5135417 C 3.1117301 2.6279286 2.9720573 2.778125 2.7011271 2.778125 C 2.4300206 2.778125 2.210201 2.6253916 2.210201 2.2773804 C 2.210201 1.9325442 2.4153266 1.7554484 2.6923421 1.7554484 z M 2.6804565 1.9652547 C 2.5586983 1.9693486 2.4907445 2.0366225 2.4727173 2.1605916 L 2.9109334 2.1605916 C 2.9016734 2.0241565 2.8106094 1.9652547 2.6923421 1.9652547 C 2.6883018 1.9652547 2.6843842 1.9651227 2.6804565 1.9652547 z M 1.3229167 2.2489583 L 1.3229167 2.515092 L 1.6174723 2.515092 C 1.8869033 2.515092 1.8706523 2.2489583 1.6221232 2.2489583 L 1.3229167 2.2489583 z " /></g></svg>
