<?xml version="1.0" encoding="UTF-8" standalone="no"?>
<!-- Created with Inkscape (http://www.inkscape.org/) -->

<svg
   width="16"
   height="16"
   viewBox="0 0 4.2333332 4.2333333"
   version="1.1"
   id="svg5"
   xml:space="preserve"
   inkscape:version="1.2.1 (9c6d41e4, 2022-07-14)"
   sodipodi:docname="close_icon_closed.svg"
   xmlns:inkscape="http://www.inkscape.org/namespaces/inkscape"
   xmlns:sodipodi="http://sodipodi.sourceforge.net/DTD/sodipodi-0.dtd"
   xmlns="http://www.w3.org/2000/svg"
   xmlns:svg="http://www.w3.org/2000/svg"><sodipodi:namedview
     id="namedview7"
     pagecolor="#ffffff"
     bordercolor="#000000"
     borderopacity="0.25"
     inkscape:showpageshadow="2"
     inkscape:pageopacity="0.0"
     inkscape:pagecheckerboard="0"
     inkscape:deskcolor="#d1d1d1"
     inkscape:document-units="mm"
     showgrid="true"
     inkscape:zoom="14.75"
     inkscape:cx="4.6440678"
     inkscape:cy="5.3898305"
     inkscape:window-width="1680"
     inkscape:window-height="987"
     inkscape:window-x="43"
     inkscape:window-y="47"
     inkscape:window-maximized="0"
     inkscape:current-layer="layer1"><inkscape:grid
       type="xygrid"
       id="grid238" /></sodipodi:namedview><defs
     id="defs2" /><g
     inkscape:label="Layer 1"
     inkscape:groupmode="layer"
     id="layer1"><path
       id="rect5623"
       style="fill:#ffffff;stroke-width:0.531"
       d="m 0.11730552,1.9817913 c 2.565e-4,0.3417427 0.25470787,0.6268739 0.6170166,0.820105 0.038856,0.020723 0.0793681,0.040546 0.12092286,0.059428 L 0.23822837,3.684013 c -0.0439739,0.058631 -0.032277,0.1410282 0.026355,0.1850016 0.0586319,0.043974 0.14102808,0.032277 0.18500163,-0.026355 L 1.0846883,2.9956829 c 0.00888,-0.011836 0.015749,-0.024449 0.020154,-0.037724 0.2617953,0.085846 0.5601273,0.1384881 0.8795329,0.1498617 v 0.9601481 c 0,0.091612 0.059002,0.1653646 0.1322917,0.1653646 0.07329,0 0.1322916,-0.073753 0.1322916,-0.1653646 V 3.1078208 C 2.568364,3.0964472 2.866696,3.0438054 3.1284912,2.9579591 c 0.0044,0.013275 0.011277,0.025888 0.020154,0.037724 l 0.6351034,0.8469768 c 0.043973,0.058632 0.1263697,0.070329 0.1850016,0.026355 0.058632,-0.043973 0.070329,-0.1263707 0.026355,-0.1850016 L 3.3780884,2.8613242 C 3.4196431,2.8424422 3.4601553,2.8226193 3.4990112,2.8018963 3.86132,2.6086652 4.1157713,2.323534 4.1160278,1.9817913 H 3.852478 C 3.8522096,2.1895476 3.6889529,2.4024579 3.3760213,2.5693524 3.0628367,2.7363842 2.6141575,2.8447877 2.1177002,2.8447877 h -0.00103 -0.00103 C 1.6191715,2.8447879 1.1704966,2.7363842 0.85731203,2.5693524 0.54438445,2.4024579 0.38112373,2.1895476 0.38085533,1.9817913 Z" /></g></svg>
