<svg width="16" height="16" version="1.1" viewBox="0 0 4.2333 4.2333" xml:space="preserve" xmlns="http://www.w3.org/2000/svg"><path d="m1.9923 4.214c-0.07307-0.022121-1.5602-0.8832-1.6231-0.93979-0.029762-0.026788-0.069793-0.082573-0.088957-0.12397-0.032437-0.07006-0.03486-0.14025-0.035073-1.016l-2.293e-4 -0.94074 0.044186-0.094074c0.024303-0.051741 0.060203-0.10812 0.079779-0.12528 0.081043-0.07105 1.5972-0.93958 1.6739-0.95889 0.061855-0.015575 0.10544-0.015375 0.1696 7.8106e-4 0.088833 0.022369 1.5795 0.8732 1.6612 0.9482 0.024648 0.022613 0.060446 0.074981 0.07955 0.11637 0.032265 0.06991 0.034764 0.14131 0.035148 1.0044 2.916e-4 0.65425-0.00608 0.95081-0.021522 1.0024-0.012064 0.040268-0.048048 0.10229-0.079963 0.13783-0.059183 0.065898-1.5392 0.94137-1.6648 0.98478-0.071636 0.024758-0.15631 0.026235-0.22973 0.00401zm0.21433-0.13902c0.082336-0.034556 1.5193-0.87333 1.563-0.91235 0.080622-0.07198 0.082137-0.088835 0.092225-1.026 0.00561-0.52146 0.00243-0.92707-0.00755-0.96323-0.00949-0.034353-0.04026-0.084019-0.068387-0.11037-0.074896-0.070164-1.5449-0.91163-1.6159-0.92493-0.033161-0.0062211-0.088362-0.001863-0.12267 0.0096846-0.11851 0.039892-1.5819 0.91224-1.6225 0.96714-0.038084 0.051601-0.039436 0.078318-0.048582 0.95956-0.00517 0.49856-0.00364 0.93536 0.00341 0.97067 0.00705 0.035308 0.036683 0.087651 0.065852 0.11632 0.042816 0.042079 0.97891 0.59481 1.483 0.87564 0.12292 0.068483 0.18509 0.07696 0.27812 0.037916zm-0.98368-1.2897c-0.22535-0.079826-0.35748-0.31351-0.35748-0.63226 0-0.29422 0.10644-0.51224 0.30331-0.62128 0.091346-0.050592 0.11771-0.056042 0.27054-0.05592 0.20199 1.618e-4 0.28167 0.034105 0.40263 0.17152 0.083735 0.095128 0.14089 0.25108 0.15948 0.43513l0.00997 0.098778h-0.99541v0.05303c0 0.20465 0.15556 0.41394 0.33651 0.45275 0.14861 0.031871 0.26991-0.00113 0.36924-0.10046 0.043796-0.043796 0.089843-0.11058 0.10233-0.1484 0.020991-0.063603 0.028239-0.068769 0.096496-0.068769 0.085507 0 0.088756 0.012244 0.034811 0.13117-0.096984 0.21381-0.23382 0.30381-0.47842 0.31469-0.11436 0.00508-0.17538-0.00211-0.254-0.029963zm0.62479-0.79219c-0.00905-0.10821-0.098627-0.26487-0.18692-0.32693-0.091226-0.064116-0.24205-0.086051-0.349-0.050756-0.13215 0.043613-0.25476 0.20707-0.2871 0.38275l-0.013057 0.070921 0.84158-0.01014zm0.25437 0.7667c0.010055-0.012935 0.12127-0.16099 0.24715-0.32901l0.22887-0.30549-0.21274-0.28718c-0.11701-0.15795-0.21922-0.29776-0.22714-0.3107-0.010744-0.017554 0.00862-0.023519 0.076345-0.023519h0.09074l0.36982 0.49339 0.36168-0.49339h0.09136c0.068121 0 0.087747 0.00598 0.077155 0.023519-0.00781 0.012935-0.11053 0.15207-0.22827 0.3092l-0.21406 0.28568 0.22999 0.30699c0.1265 0.16884 0.23822 0.31757 0.24828 0.3305 0.014094 0.01813-0.00368 0.023519-0.077594 0.023519h-0.095877l-0.19856-0.26341c-0.10921-0.14487-0.20155-0.26341-0.2052-0.26341-0.00365 0-0.093048 0.11853-0.19865 0.26341l-0.19201 0.26341h-0.09478c-0.073031 0-0.090584-0.0054-0.076497-0.023519z" fill="#fff" stroke-width=".018815"/></svg>
