<?xml version="1.0" encoding="UTF-8" standalone="no"?>
<!-- Created with Inkscape (http://www.inkscape.org/) -->

<svg
   width="16"
   height="16"
   viewBox="0 0 4.2333332 4.2333333"
   version="1.1"
   id="svg5"
   inkscape:version="1.2.1 (9c6d41e4, 2022-07-14)"
   sodipodi:docname="favicon.svg"
   xmlns:inkscape="http://www.inkscape.org/namespaces/inkscape"
   xmlns:sodipodi="http://sodipodi.sourceforge.net/DTD/sodipodi-0.dtd"
   xmlns="http://www.w3.org/2000/svg"
   xmlns:svg="http://www.w3.org/2000/svg">
  <sodipodi:namedview
     id="namedview7"
     pagecolor="#ffffff"
     bordercolor="#000000"
     borderopacity="0.25"
     inkscape:showpageshadow="2"
     inkscape:pageopacity="0.0"
     inkscape:pagecheckerboard="0"
     inkscape:deskcolor="#d1d1d1"
     inkscape:document-units="mm"
     showgrid="false"
     inkscape:zoom="25.9375"
     inkscape:cx="7.9614458"
     inkscape:cy="7.7879518"
     inkscape:window-width="1680"
     inkscape:window-height="1050"
     inkscape:window-x="0"
     inkscape:window-y="67"
     inkscape:window-maximized="0"
     inkscape:current-layer="layer1" />
  <defs
     id="defs2">
    <inkscape:path-effect
       effect="powerstroke"
       id="path-effect872"
       is_visible="true"
       lpeversion="1"
       offset_points="0.89810443,0.15301204"
       not_jump="true"
       sort_points="true"
       interpolator_type="CentripetalCatmullRom"
       interpolator_beta="0.75"
       start_linecap_type="round"
       linejoin_type="spiro"
       miter_limit="4"
       scale_width="1"
       end_linecap_type="round" />
    <inkscape:path-effect
       effect="simplify"
       id="path-effect870"
       is_visible="true"
       lpeversion="1"
       steps="1"
       threshold="0.0047745358"
       smooth_angles="0"
       helper_size="0"
       simplify_individual_paths="false"
       simplify_just_coalesce="false"
       step="1" />
  </defs>
  <g
     inkscape:label="Layer 1"
     inkscape:groupmode="layer"
     id="layer1">
    <path
       id="path234"
       style="fill:#ffffff;stroke-width:0.311283;fill-opacity:1"
       d="M 2.0970296 0 A 2.1166666 2.1166666 0 0 0 0 2.1301025 A 2.1166666 2.1166666 0 0 0 2.1233846 4.2333333 A 2.1166666 2.1166666 0 0 0 4.2333333 2.1166667 L 4.2333333 2.0903117 A 2.1166666 2.1166666 0 0 0 2.0970296 0 z M 1.4045654 1.017509 L 2.2293213 1.017509 C 2.3972471 1.017509 2.5319589 1.0402245 2.6329142 1.0852051 C 2.7348691 1.1291857 2.8141678 1.1974016 2.8711426 1.2903605 C 2.9291172 1.3823199 2.957959 1.4787932 2.957959 1.5797485 C 2.957959 1.6737071 2.9324551 1.7624021 2.8814779 1.8453654 C 2.8304992 1.9283292 2.7534376 1.9954098 2.6504842 2.0463867 C 2.7834255 2.08537 2.88544 2.1518998 2.9564087 2.2458577 C 3.0283769 2.3398162 3.0644124 2.4507106 3.0644124 2.578654 C 3.0644124 2.6816086 3.0422466 2.7775311 2.9982666 2.8664917 C 2.955286 2.9544527 2.9020422 3.0221181 2.8380697 3.0700968 C 2.7740977 3.1180768 2.6936976 3.1546631 2.5967407 3.1796509 C 2.5007834 3.2036402 2.3826954 3.2158244 2.2427572 3.2158244 L 1.4045654 3.2158244 L 1.4045654 1.017509 z " />
  </g>
</svg>
