<?xml version="1.0" encoding="UTF-8" standalone="no"?>
<!-- Created with Inkscape (http://www.inkscape.org/) -->

<svg
   width="16"
   height="16"
   viewBox="0 0 4.2333332 4.2333333"
   version="1.1"
   id="svg5"
   inkscape:version="1.2.1 (9c6d41e4, 2022-07-14)"
   sodipodi:docname="favicon.svg"
   xmlns:inkscape="http://www.inkscape.org/namespaces/inkscape"
   xmlns:sodipodi="http://sodipodi.sourceforge.net/DTD/sodipodi-0.dtd"
   xmlns="http://www.w3.org/2000/svg"
   xmlns:svg="http://www.w3.org/2000/svg">
  <sodipodi:namedview
     id="namedview7"
     pagecolor="#ffffff"
     bordercolor="#000000"
     borderopacity="0.25"
     inkscape:showpageshadow="2"
     inkscape:pageopacity="0.0"
     inkscape:pagecheckerboard="0"
     inkscape:deskcolor="#d1d1d1"
     inkscape:document-units="mm"
     showgrid="false"
     inkscape:zoom="14.75"
     inkscape:cx="-5.0508475"
     inkscape:cy="8.6440678"
     inkscape:window-width="1680"
     inkscape:window-height="997"
     inkscape:window-x="0"
     inkscape:window-y="92"
     inkscape:window-maximized="0"
     inkscape:current-layer="layer1" />
  <defs
     id="defs2" />
  <g
     inkscape:label="Layer 1"
     inkscape:groupmode="layer"
     id="layer1">
    <path
       style="fill:#1d2226;stroke-width:0.311283;fill-opacity:1"
       id="path234"
       sodipodi:type="arc"
       sodipodi:cx="2.1166666"
       sodipodi:cy="2.1166666"
       sodipodi:rx="2.1166666"
       sodipodi:ry="2.1166666"
       sodipodi:start="0"
       sodipodi:end="6.2706527"
       sodipodi:open="true"
       sodipodi:arc-type="arc"
       d="M 4.2333331,2.1166666 A 2.1166666,2.1166666 0 0 1 2.1232984,4.2333227 2.1166666,2.1166666 0 0 1 4.1556972e-5,2.1299301 2.1166666,2.1166666 0 0 1 2.0967713,9.3502804e-5 2.1166666,2.1166666 0 0 1 4.2331669,2.0901399" />
    <path
       style="font-size:4.23333px;font-family:Arial;-inkscape-font-specification:Arial;fill:#70b5fa;fill-opacity:1;stroke-width:0.434862"
       d="M 1.3175022,3.175 V 1.0583332 h 0.794111 q 0.2425648,0 0.3883924,0.064973 0.1472715,0.063529 0.2295703,0.1978059 0.083743,0.1328331 0.083743,0.2786608 0,0.1357207 -0.073636,0.2555593 -0.073636,0.1198385 -0.2223511,0.1934743 0.1920305,0.05631 0.294543,0.1920305 0.1039563,0.1357208 0.1039563,0.320532 0,0.1487153 -0.063529,0.277217 -0.062085,0.1270577 -0.1544909,0.1963619 -0.092406,0.069305 -0.232458,0.1054002 -0.1386084,0.034652 -0.3407458,0.034652 z"
       id="path1056" />
  </g>
</svg>
