<?xml version="1.0" encoding="UTF-8" standalone="no"?>
<!-- Created with Inkscape (http://www.inkscape.org/) -->

<svg
   width="16"
   height="16"
   viewBox="0 0 4.2333332 4.2333333"
   version="1.1"
   id="svg5"
   xml:space="preserve"
   inkscape:version="1.2.1 (9c6d41e4, 2022-07-14)"
   sodipodi:docname="filter_icon.svg"
   xmlns:inkscape="http://www.inkscape.org/namespaces/inkscape"
   xmlns:sodipodi="http://sodipodi.sourceforge.net/DTD/sodipodi-0.dtd"
   xmlns="http://www.w3.org/2000/svg"
   xmlns:svg="http://www.w3.org/2000/svg"><sodipodi:namedview
     id="namedview7"
     pagecolor="#ffffff"
     bordercolor="#000000"
     borderopacity="0.25"
     inkscape:showpageshadow="2"
     inkscape:pageopacity="0.0"
     inkscape:pagecheckerboard="0"
     inkscape:deskcolor="#d1d1d1"
     inkscape:document-units="mm"
     showgrid="false"
     inkscape:zoom="14.75"
     inkscape:cx="-7.220339"
     inkscape:cy="4.7118644"
     inkscape:window-width="1680"
     inkscape:window-height="997"
     inkscape:window-x="0"
     inkscape:window-y="92"
     inkscape:window-maximized="0"
     inkscape:current-layer="layer1" /><defs
     id="defs2" /><g
     inkscape:label="Layer 1"
     inkscape:groupmode="layer"
     id="layer1"><path
       style="fill:#ffffff;stroke-width:0.0170746"
       d="M 2.3055215,3.8609716 C 2.203314,3.8235319 2.0618633,3.6807926 2.0288671,3.5817968 l -0.025455,-0.076371 -0.9706384,-0.00441 c -0.87334964,-0.00396 -0.97375243,-0.00723 -1.00170599,-0.032526 -0.0408362,-0.036956 -0.0394757,-0.099788 0.003078,-0.1423444 0.0333424,-0.033342 0.0569157,-0.034148 0.99760649,-0.034148 H 1.99521 L 2.037004,3.2023564 C 2.1048147,3.056913 2.2072562,2.9694528 2.3621967,2.9247188 2.5965378,2.8570612 2.859864,2.9889439 2.9472374,3.2177279 l 0.028362,0.074264 h 0.5952879 c 0.5725217,0 0.5965938,0.00131 0.6294367,0.034148 0.042615,0.042615 0.043903,0.105401 0.00292,0.1424867 -0.027804,0.025163 -0.096756,0.028257 -0.6294369,0.028257 H 2.9755994 l -0.030346,0.079458 C 2.9079403,3.674048 2.8193622,3.7744931 2.7182648,3.8337395 2.6205202,3.8910211 2.4231115,3.9040456 2.3055183,3.8609704 Z M 2.6420213,3.6310054 C 2.7623693,3.5566264 2.8028006,3.3556602 2.7199286,3.2437674 2.6528954,3.1532596 2.5792599,3.1175592 2.474686,3.1248686 2.3012484,3.1369928 2.1859206,3.2748508 2.2107435,3.4403814 c 0.013649,0.090988 0.1046126,0.2017754 0.1859736,0.2264915 0.072279,0.021957 0.1763672,0.00674 0.2453042,-0.035868 z M 0.75423741,2.583675 C 0.60915021,2.5383971 0.50874511,2.4443261 0.44380521,2.2928283 L 0.41100151,2.2163003 H 0.23375877 C 0.03924762,2.2163003 -6.6841759e-8,2.1986023 -6.6841759e-8,2.1108862 -6.6841759e-8,2.0302312 0.04472313,2.0114062 0.23633405,2.0114062 h 0.17388456 l 0.0403352,-0.091204 C 0.62458631,1.5266831 1.1810227,1.5245087 1.3508141,1.9166879 l 0.040758,0.094141 1.393194,2.918e-4 c 1.3278128,2.784e-4 1.3945203,0.00176 1.4214522,0.031516 0.037319,0.041238 0.035912,0.1102261 -0.00296,0.145411 -0.028512,0.025802 -0.1520447,0.028284 -1.4214522,0.028549 l -1.3902273,2.92e-4 -0.040758,0.094141 C 1.2514639,2.5405014 0.99356501,2.6583683 0.75423741,2.5836804 Z M 1.0607525,2.345402 c 0.1569145,-0.1066265 0.1569145,-0.3564705 0,-0.4630967 -0.083694,-0.056872 -0.22841139,-0.058349 -0.31029489,-0.00317 -0.1675068,0.1128832 -0.1675068,0.3565499 0,0.4694327 0.081883,0.055182 0.2266006,0.053704 0.31029489,-0.00317 z M 3.2737703,1.3107861 C 3.1143353,1.2708991 2.9876301,1.1631508 2.9270902,1.0159745 L 2.8941283,0.9358413 1.4812134,0.9357731 C 0.09110815,0.9357142 0.06774714,0.9351619 0.03414949,0.9015638 -0.0084654,0.8589489 -0.00975333,0.7961628 0.03123096,0.7590771 0.05975559,0.7332619 0.184521,0.7308182 1.4742416,0.7308182 h 1.4117858 l 0.040335,-0.091205 C 2.9730635,0.5340149 3.0607747,0.43998493 3.163511,0.38538 3.221818,0.35439 3.263412,0.3470124 3.3807574,0.3468467 c 0.1289801,-1.8201e-4 0.1552502,0.0054 0.2360302,0.0501472 0.1023997,0.0567237 0.1740708,0.1382195 0.2240047,0.2547102 l 0.033912,0.079114 h 0.151631 c 0.1252136,0 0.156554,0.00544 0.1798888,0.031225 0.037996,0.041985 0.035631,0.097999 -0.0059,0.1395203 -0.028998,0.028998 -0.056914,0.034148 -0.1850865,0.034148 H 3.8643093 l -0.023162,0.070184 C 3.7718386,1.2158831 3.4931158,1.3656615 3.2737703,1.3107861 Z M 3.5243749,1.0677596 C 3.686353,0.9752683 3.7046541,0.7281069 3.5580629,0.6127979 3.4472168,0.5256065 3.304687,0.528419 3.1959159,0.6199418 c -0.069316,0.058326 -0.094001,0.1279579 -0.08478,0.2391515 0.00836,0.1007836 0.043785,0.1546986 0.141556,0.2154214 0.070726,0.043926 0.1880308,0.041009 0.2716824,-0.00675 z"
       id="path307" /></g></svg>
