<?xml version="1.0" encoding="UTF-8" standalone="no"?>
<!-- Created with Inkscape (http://www.inkscape.org/) -->

<svg
   width="16"
   height="16"
   viewBox="0 0 4.2333332 4.2333333"
   version="1.1"
   id="svg5"
   xml:space="preserve"
   sodipodi:docname="gitlab_logo.svg"
   inkscape:version="1.2.1 (9c6d41e4, 2022-07-14)"
   xmlns:inkscape="http://www.inkscape.org/namespaces/inkscape"
   xmlns:sodipodi="http://sodipodi.sourceforge.net/DTD/sodipodi-0.dtd"
   xmlns="http://www.w3.org/2000/svg"
   xmlns:svg="http://www.w3.org/2000/svg"><sodipodi:namedview
     id="namedview10918"
     pagecolor="#ffffff"
     bordercolor="#000000"
     borderopacity="0.25"
     inkscape:showpageshadow="2"
     inkscape:pageopacity="0.0"
     inkscape:pagecheckerboard="0"
     inkscape:deskcolor="#d1d1d1"
     showgrid="false"
     inkscape:zoom="14.75"
     inkscape:cx="-2.8813559"
     inkscape:cy="8.0338983"
     inkscape:window-width="1680"
     inkscape:window-height="997"
     inkscape:window-x="3421"
     inkscape:window-y="92"
     inkscape:window-maximized="0"
     inkscape:current-layer="g2691" /><defs
     id="defs2" /><g
     id="g815"
     transform="translate(7.6595131,0.16138922)"><g
       id="g2691"
       transform="translate(8.1259393,-1.9672735e-4)"><rect
         style="fill:#333333;fill-opacity:1;stroke:none;stroke-width:0.264583"
         id="rect9168"
         width="4.2333331"
         height="4.2333331"
         x="-15.785452"
         y="-0.16119249" /><path
         style="fill:#fd6d29;fill-opacity:1;stroke-width:0.00895367"
         d="m -21.815822,4.0317733 c 0,-0.00245 -0.002,-0.00447 -0.0044,-0.00447 -0.0024,0 -0.0044,0.00201 -0.0044,0.00447 0,0.00245 0.002,0.00447 0.0044,0.00447 0.0024,0 0.0044,-0.00201 0.0044,-0.00447 z"
         id="path5152" /><path
         style="fill:#fd6d29;fill-opacity:1;stroke-width:0.00895367"
         d="m -23.973655,4.1481711 c 0,-0.00245 -0.002,-0.00447 -0.0044,-0.00447 -0.0024,0 -0.0044,0.00201 -0.0044,0.00447 0,0.00245 0.002,0.00447 0.0044,0.00447 0.0024,0 0.0044,-0.00201 0.0044,-0.00447 z"
         id="path5150" /><path
         style="fill:#fd6d29;fill-opacity:1;stroke-width:0.00895367"
         d="m -22.105324,4.2451681 c -0.0033,-0.00328 -0.0086,-0.00328 -0.01191,0 -0.0033,0.00328 -5.97e-4,0.00597 0.006,0.00597 0.0066,0 0.0093,-0.00269 0.006,-0.00597 z"
         id="path5148" /><path
         style="fill:#fd6d29;fill-opacity:1;stroke-width:0.00895367"
         d="m -22.263505,4.3899191 c 0,-0.00245 0.002,-0.00447 0.0044,-0.00447 0.0024,0 0.0044,0.00201 0.0044,0.00447 0,0.00245 -0.002,0.00447 -0.0044,0.00447 -0.0024,0 -0.0044,-0.00201 -0.0044,-0.00447 z"
         id="path5144" /><path
         style="fill:#fd6d29;fill-opacity:1;stroke-width:0.00895367"
         d="m -22.397818,4.4615481 c 0,-0.00245 0.002,-0.00447 0.0044,-0.00447 0.0024,0 0.0044,0.00201 0.0044,0.00447 0,0.00245 -0.002,0.00447 -0.0044,0.00447 -0.0024,0 -0.0044,-0.00201 -0.0044,-0.00447 z"
         id="path443" /><g
         id="g5638"
         transform="translate(0,0.09316638)"><path
           style="fill:#fd6d29;fill-opacity:1;stroke-width:0.00895367"
           d="m -14.502773,3.3139144 c -0.01722,-0.011979 -0.03268,-0.025575 -0.03432,-0.030203 -0.0016,-0.00463 -0.0086,-0.00841 -0.01575,-0.00841 -0.007,0 -0.01264,-0.00403 -0.01264,-0.00896 0,-0.00493 -0.0059,-0.00896 -0.013,-0.00896 -0.0071,0 -0.01832,-0.00705 -0.02476,-0.01566 -0.0066,-0.00863 -0.01984,-0.020331 -0.0296,-0.026027 -0.0097,-0.0057 -0.01667,-0.015056 -0.01538,-0.020811 0.0014,-0.00575 -0.0018,-0.00782 -0.007,-0.00458 -0.01227,0.00753 -0.09931,-0.058482 -0.09226,-0.069897 0.0029,-0.00473 -3.7e-5,-0.00681 -0.0066,-0.00463 -0.0066,0.00218 -0.01866,-0.00234 -0.02696,-0.010037 -0.0082,-0.00769 -0.0477,-0.036151 -0.08757,-0.063235 -0.04321,-0.029345 -0.07085,-0.053956 -0.06841,-0.060901 0.0022,-0.00641 2.8e-5,-0.00914 -0.0049,-0.00608 -0.01026,0.0063 -0.09821,-0.055174 -0.09821,-0.068614 0,-0.0048 -0.0035,-0.00656 -0.0077,-0.00392 -0.01062,0.00659 -0.03868,-0.025773 -0.03031,-0.034999 0.0037,-0.00408 0.0017,-0.00452 -0.0044,-9.931e-4 -0.01355,0.00777 -0.04967,-0.015532 -0.04024,-0.025945 0.0037,-0.00405 0.002,-0.00471 -0.0037,-0.00147 -0.0057,0.00324 -0.02278,-0.00579 -0.03806,-0.020064 -0.0152,-0.014268 -0.02777,-0.024051 -0.02777,-0.021739 0,0.00515 -0.04268,-0.025232 -0.06715,-0.047798 -0.0099,-0.00908 -0.02912,-0.02371 -0.04282,-0.032504 -0.01374,-0.00879 -0.02255,-0.019796 -0.01969,-0.024449 0.0029,-0.00465 -2.98e-4,-0.00634 -0.0071,-0.00374 -0.0068,0.0026 -0.0274,-0.00954 -0.04586,-0.026963 -0.01848,-0.017419 -0.03757,-0.031676 -0.04244,-0.031676 -0.0049,0 -0.0064,-0.00403 -0.0033,-0.00896 0.0031,-0.00493 -9.25e-4,-0.00896 -0.0088,-0.00896 -0.0086,0 -0.01337,-0.00615 -0.01172,-0.015459 0.0015,-0.00888 -0.0031,-0.01555 -0.01081,-0.01566 -0.02843,-4.494e-4 -0.123287,-0.1160662 -0.195727,-0.2385412 -0.02147,-0.036305 -0.02412,-0.047836 -0.0088,-0.03838 0.0066,0.00408 0.0079,0.00244 0.0037,-0.00454 -0.0037,-0.00601 -0.009,-0.00872 -0.01172,-0.00599 -0.06603,0.066024 -0.144167,-0.5305873 -0.09171,-0.7002148 0.0049,-0.015825 0.01319,-0.041873 0.01839,-0.057877 0.0051,-0.016008 0.01117,-0.037158 0.01319,-0.047007 0.01117,-0.05356 0.05784,-0.071391 0.100007,-0.038277 0.0059,0.00467 0.01539,0.00564 0.02099,0.00218 0.0057,-0.00346 0.01889,-0.0019 0.02949,0.00348 0.01062,0.00538 0.05152,0.020283 0.09092,0.033114 0.0394,0.012821 0.09178,0.032564 0.1164,0.043853 0.02462,0.011283 0.077,0.035301 0.1164,0.053357 0.0394,0.01806 0.07768,0.036781 0.08506,0.041609 0.0073,0.00484 0.02551,0.014397 0.0403,0.021256 0.01484,0.00687 0.05304,0.032037 0.08506,0.055941 0.03202,0.023904 0.07632,0.054059 0.09849,0.067008 0.02216,0.012949 0.0544,0.036292 0.07164,0.051873 0.01722,0.015587 0.04716,0.038658 0.06651,0.051284 0.01934,0.01262 0.04954,0.036911 0.06711,0.053969 0.01758,0.017052 0.04504,0.036493 0.06108,0.04319 0.01612,0.0067 0.02914,0.016411 0.02914,0.021587 0,0.00518 0.0046,0.00941 0.0099,0.00941 0.0055,0 0.03268,0.019554 0.06044,0.043454 0.02775,0.023899 0.06658,0.05356 0.08627,0.065915 0.01971,0.012345 0.05242,0.036114 0.0727,0.052798 0.02029,0.016686 0.04579,0.036382 0.05667,0.043769 0.01081,0.00738 0.0366,0.028484 0.05713,0.04688 0.02053,0.018397 0.04011,0.033506 0.04352,0.033575 0.0035,7.16e-5 0.02436,0.015239 0.04658,0.033702 0.07325,0.060861 0.13402,0.1050417 0.159608,0.1160223 0.01392,0.00595 0.02762,0.017144 0.03059,0.024861 0.0029,0.00773 0.02405,0.024879 0.04687,0.038125 0.02282,0.013243 0.04619,0.028249 0.05194,0.033339 0.0057,0.00509 0.02119,0.017309 0.03427,0.027163 0.013,0.00985 0.04061,0.032491 0.06116,0.050317 0.02055,0.017822 0.04586,0.035043 0.05625,0.038261 0.01044,0.00322 0.03372,0.021875 0.05185,0.041459 0.03907,0.042232 0.105153,0.026899 0.148197,-0.034385 0.0027,-0.00383 0.01899,-0.016595 0.03623,-0.028359 0.01722,-0.011759 0.0439,-0.031711 0.05925,-0.044336 0.06369,-0.052361 0.09301,-0.075139 0.108908,-0.084592 0.02828,-0.016814 0.136401,-0.097448 0.181459,-0.1353441 0.07008,-0.058933 0.09306,-0.07586 0.103212,-0.075987 0.0053,-6.27e-5 0.0194,-0.010678 0.03134,-0.023575 0.0189,-0.020423 0.05652,-0.048679 0.105868,-0.079513 0.0079,-0.00493 0.0163,-0.010971 0.01881,-0.013426 0.0024,-0.00245 0.02663,-0.022531 0.05372,-0.044596 0.02709,-0.022066 0.05059,-0.043219 0.05224,-0.047007 0.0016,-0.00379 0.01026,-0.00689 0.0192,-0.00689 0.009,0 0.01813,-0.00518 0.02062,-0.011503 0.0024,-0.00634 0.022,-0.023388 0.04348,-0.037909 0.02149,-0.014525 0.0483,-0.035913 0.05957,-0.047536 0.01136,-0.011631 0.0259,-0.021926 0.03251,-0.022895 0.01117,-0.00165 0.03636,-0.020866 0.112645,-0.086101 0.01722,-0.014745 0.05015,-0.039059 0.07314,-0.05404 0.02299,-0.014983 0.05702,-0.04118 0.07561,-0.05822 0.01861,-0.017034 0.03749,-0.030984 0.04198,-0.030984 0.0044,0 0.02082,-0.010129 0.0363,-0.02252 0.01557,-0.012382 0.03224,-0.025764 0.03725,-0.029731 0.0049,-0.00397 0.02313,-0.012107 0.0403,-0.018078 0.01722,-0.00597 0.0453,-0.020095 0.06253,-0.031376 0.01722,-0.011283 0.05552,-0.031601 0.08506,-0.045153 0.02954,-0.013554 0.07387,-0.033865 0.09849,-0.045138 0.02462,-0.011265 0.05887,-0.023483 0.0761,-0.027137 0.01722,-0.00365 0.04343,-0.013627 0.05819,-0.022179 0.01484,-0.00855 0.0611,-0.022881 0.102973,-0.031857 0.04185,-0.00897 0.08235,-0.021589 0.08999,-0.028029 0.0174,-0.014745 0.07118,0.1464547 0.07118,0.2136575 0,0.022943 0.004,0.044204 0.009,0.047249 0.02733,0.016888 -0.0016,0.395066 -0.03427,0.4476828 -0.0031,0.00493 -0.0059,0.012986 -0.0062,0.017913 -0.0027,0.033011 -0.09523,0.2228557 -0.14164,0.2907994 -0.0355,0.051963 -0.202982,0.2240361 -0.21806,0.2240361 -0.0064,0 -0.01154,0.00348 -0.01154,0.00773 0,0.00425 -0.01703,0.019364 -0.03804,0.033575 -0.02094,0.014213 -0.0394,0.028863 -0.04105,0.032555 -0.0016,0.0037 -0.0064,0.00672 -0.01081,0.00672 -0.0042,0 -0.01861,0.010074 -0.03191,0.022384 -0.01337,0.012309 -0.03352,0.022384 -0.04495,0.022384 -0.0141,0 -0.01925,0.00401 -0.01593,0.01251 0.0031,0.00799 -0.0084,0.019937 -0.03161,0.032986 -0.02004,0.011265 -0.03643,0.023758 -0.03643,0.027775 0,0.00401 -0.006,0.00731 -0.01337,0.00731 -0.0073,0 -0.01337,0.00427 -0.01337,0.00949 0,0.00522 -0.0042,0.00692 -0.0092,0.00381 -0.0051,-0.00311 -0.0081,-0.00176 -0.0068,0.00302 0.0022,0.00771 -0.07475,0.073228 -0.086,0.073228 -0.0024,0 -0.01777,0.012089 -0.03387,0.026861 -0.01612,0.014781 -0.03255,0.026861 -0.03636,0.026861 -0.0038,0 -0.01465,0.00705 -0.02423,0.01566 -0.03183,0.028897 -0.0446,0.038054 -0.05303,0.038054 -0.0046,0 -0.01062,0.00604 -0.01355,0.013426 -0.0027,0.00738 -0.0095,0.013426 -0.01484,0.013426 -0.0053,0 -0.007,-0.00465 -0.0033,-0.01033 0.004,-0.00641 0.0024,-0.00791 -0.004,-0.00396 -0.0057,0.00352 -0.01026,0.012052 -0.01026,0.018976 0,0.00692 -0.0088,0.017309 -0.01958,0.023067 -0.01914,0.010239 -0.03094,0.018985 -0.05619,0.041633 -0.0068,0.00615 -0.01667,0.011191 -0.02163,0.011191 -0.0049,0 -0.01319,0.00705 -0.01832,0.01566 -0.0049,0.00863 -0.0093,0.012638 -0.0093,0.00896 -1.48e-4,-0.0037 -0.0086,0.00165 -0.01887,0.011887 -0.01026,0.010239 -0.02454,0.01632 -0.0318,0.013536 -0.0073,-0.00278 -0.01117,-0.0019 -0.0088,0.00198 0.0092,0.014745 -0.07786,0.087145 -0.09325,0.077631 -0.0049,-0.0031 -0.0081,-9.209e-4 -0.0066,0.00484 0.0057,0.024302 -0.02617,0.030268 -0.05246,0.00982 -0.101252,-0.07876 -0.208297,-0.1605894 -0.227117,-0.1736159 -0.06284,-0.043503 -0.11455,-0.082665 -0.286517,-0.2170322 -0.02216,-0.017309 -0.04836,-0.037601 -0.05819,-0.04508 -0.0099,-0.00747 -0.03357,-0.025548 -0.05271,-0.040151 -0.01914,-0.014598 -0.03727,-0.026558 -0.0403,-0.026564 -0.0029,-6e-6 -0.0163,-0.00907 -0.02936,-0.020146 -0.01319,-0.011081 -0.03205,-0.02696 -0.04204,-0.035299 -0.0327,-0.02728 -0.05297,-0.02465 -0.09208,0.011942 -0.01648,0.015459 -0.04616,0.038288 -0.06586,0.050716 -0.04248,0.0268 -0.153106,0.1140679 -0.161201,0.127164 -0.0031,0.00506 -0.0092,0.00698 -0.01355,0.0043 -0.0044,-0.00267 -0.01227,0.0033 -0.01758,0.013279 -0.0053,0.00998 -0.01374,0.018151 -0.01874,0.018151 -0.01062,0 -0.01703,0.00473 -0.07193,0.053161 -0.02271,0.020007 -0.04488,0.03638 -0.04925,0.036385 -0.0077,9e-6 -0.01978,0.00923 -0.09627,0.073192 -0.01903,0.015917 -0.04401,0.033812 -0.05553,0.039785 -0.02361,0.012254 -0.03321,0.019688 -0.09204,0.071345 -0.02291,0.020128 -0.04771,0.03921 -0.05511,0.042404 -0.0073,0.00319 -0.02149,0.011393 -0.03134,0.018225 -0.01575,0.01099 -0.02152,0.00991 -0.04925,-0.00936 z"
           id="path5146" /><g
           id="g5624"><path
             style="fill:#fba225;fill-opacity:1;stroke-width:0.00895367"
             d="m -13.744867,3.868897 c -0.01969,-0.00969 -0.07409,-0.048018 -0.120869,-0.085181 -0.04678,-0.037164 -0.115282,-0.089222 -0.152208,-0.1156872 -0.03694,-0.026465 -0.07722,-0.057011 -0.08953,-0.06788 -0.01227,-0.010861 -0.04555,-0.035583 -0.07387,-0.054921 -0.02832,-0.019337 -0.05149,-0.039037 -0.05149,-0.04378 0,-0.00474 -0.0059,-0.00863 -0.01319,-0.00863 -0.0071,0 -0.0174,-0.00806 -0.02269,-0.017913 -0.0053,-0.00985 -0.01355,-0.017913 -0.01861,-0.017913 -0.01374,0 -0.106747,-0.070913 -0.106747,-0.081394 0,-0.00506 -0.0037,-0.00692 -0.0082,-0.00414 -0.0046,0.00278 -0.0095,0.00201 -0.01117,-0.00171 -0.0017,-0.00372 -0.02617,-0.022371 -0.05449,-0.041437 -0.02832,-0.019067 -0.05149,-0.036427 -0.05149,-0.038581 0,-0.00509 0.01855,0.00555 0.03667,0.021025 0.01227,0.01044 0.01758,0.0096 0.03724,-0.00584 0.01264,-0.00993 0.02592,-0.018041 0.02954,-0.018041 0.0037,0 0.02579,-0.017126 0.04922,-0.038054 0.05812,-0.051912 0.06878,-0.060253 0.09295,-0.072802 0.01154,-0.00597 0.0365,-0.023875 0.05554,-0.039785 0.07651,-0.063953 0.08865,-0.073181 0.09627,-0.073192 0.0044,-6e-6 0.02654,-0.016375 0.04925,-0.036385 0.05499,-0.048437 0.06138,-0.053161 0.07193,-0.053161 0.0049,0 0.01337,-0.00817 0.01874,-0.018151 0.0053,-0.00998 0.01319,-0.015972 0.01758,-0.013279 0.0044,0.00267 0.01044,7.43e-4 0.01355,-0.0043 0.0081,-0.013096 0.118726,-0.1003637 0.161202,-0.127164 0.01969,-0.012418 0.04934,-0.035248 0.06586,-0.050716 0.03911,-0.036598 0.05938,-0.039228 0.09208,-0.011942 0.01007,0.00833 0.02892,0.024225 0.04204,0.035299 0.01319,0.011081 0.02634,0.020141 0.02936,0.020146 0.0029,6.1e-6 0.02116,0.011961 0.0403,0.026564 0.01914,0.014598 0.04286,0.032672 0.05271,0.040151 0.0099,0.00747 0.03605,0.027766 0.05819,0.04508 0.171972,0.1343678 0.223667,0.1735297 0.286518,0.2170322 0.02758,0.019089 0.192065,0.145473 0.226985,0.1744072 l 0.02553,0.021152 -0.07277,0.05343 c -0.04002,0.029387 -0.08154,0.060663 -0.09228,0.069503 -0.01081,0.00885 -0.03279,0.024278 -0.04901,0.034306 -0.0163,0.010019 -0.02951,0.021064 -0.02951,0.024525 0,0.00346 -0.01282,0.013847 -0.02844,0.023091 -0.03081,0.018206 -0.03022,0.017767 -0.11259,0.085169 -0.03077,0.025192 -0.05596,0.042873 -0.05596,0.03929 0,-0.00359 -0.0051,-2.238e-4 -0.01117,0.00747 -0.0062,0.00769 -0.04847,0.041014 -0.09402,0.074056 -0.04555,0.033043 -0.08283,0.063785 -0.08283,0.068316 0,0.00452 -0.0046,0.00824 -0.01007,0.00824 -0.0055,0 -0.03028,0.014891 -0.0551,0.033103 -0.05634,0.041354 -0.12347,0.049 -0.181148,0.020633 z"
             id="path445" /><path
             style="fill:#e14429;fill-opacity:1;stroke-width:0.00895367"
             d="m -13.664386,-0.15671249 c 0,-0.00246 -0.002,-0.00448 -0.0044,-0.00448 -0.0024,0 -0.0044,0.00201 -0.0044,0.00448 0,0.00246 0.002,0.00448 0.0044,0.00448 0.0024,0 0.0044,-0.00202 0.0044,-0.00448 z"
             id="path5610" /><path
             style="fill:#e14429;fill-opacity:1;stroke-width:0.00895367"
             d="m -13.664386,-0.15671249 c 0,-0.00246 -0.002,-0.00448 -0.0044,-0.00448 -0.0024,0 -0.0044,0.00202 -0.0044,0.00448 0,0.00246 0.002,0.00448 0.0044,0.00448 0.0024,0 0.0044,-0.00202 0.0044,-0.00448 z"
             id="path5608" /><path
             style="fill:#e14429;fill-opacity:1;stroke-width:0.00895367"
             d="m -13.666879,-0.15700736 c -0.0029,-0.00714 -0.0049,-0.00502 -0.0055,0.00541 -3.89e-4,0.00944 0.0017,0.014726 0.0048,0.011752 0.0029,-0.00297 0.0033,-0.010698 7.05e-4,-0.01716 z"
             id="path5606" /><path
             style="fill:#e14429;fill-opacity:1;stroke-width:0.00895367"
             d="m -13.664386,-0.15671249 c 0,-0.00246 -0.002,-0.00448 -0.0044,-0.00448 -0.0024,0 -0.0044,0.00202 -0.0044,0.00448 0,0.00246 0.002,0.00448 0.0044,0.00448 0.0024,0 0.0044,-0.00202 0.0044,-0.00448 z"
             id="path5604" /><path
             style="fill:#e14429;fill-opacity:1;stroke-width:0.00895367"
             d="m -13.66688,-0.15700736 c -0.0029,-0.00714 -0.0049,-0.00502 -0.0055,0.00541 -3.88e-4,0.00944 0.0017,0.014726 0.0048,0.011752 0.0029,-0.00297 0.0033,-0.010698 7.05e-4,-0.01716 z"
             id="path5602" /><path
             style="fill:#e14429;fill-opacity:1;stroke-width:0.00895367"
             d="m -13.664386,-0.15672249 c 0,-0.00245 -0.002,-0.00447 -0.0044,-0.00447 -0.0024,0 -0.0044,0.00201 -0.0044,0.00447 0,0.00245 0.002,0.00447 0.0044,0.00447 0.0024,0 0.0044,-0.00201 0.0044,-0.00447 z"
             id="path5600" /><path
             style="fill:#e14429;fill-opacity:1;stroke-width:0.00895367"
             d="m -13.667023,-0.15979265 c -0.0033,-0.00328 -0.006,-5.97e-4 -0.006,0.00597 0,0.00656 0.0027,0.00925 0.006,0.00597 0.0033,-0.00328 0.0033,-0.00866 0,-0.011942 z"
             id="path5598" /><path
             style="fill:#e14429;fill-opacity:1;stroke-width:0.00895367"
             d="m -13.664386,-0.15672249 c 0,-0.00245 -0.002,-0.00447 -0.0044,-0.00447 -0.0024,0 -0.0044,0.00201 -0.0044,0.00447 0,0.00245 0.002,0.00447 0.0044,0.00447 0.0024,0 0.0044,-0.00201 0.0044,-0.00447 z"
             id="path5596" /><path
             style="fill:#e14429;fill-opacity:1;stroke-width:0.00895367"
             d="m -13.714849,2.692378 c -0.01813,-0.019584 -0.04145,-0.038241 -0.05185,-0.041459 -0.01044,-0.00322 -0.03572,-0.020437 -0.05625,-0.038261 -0.02055,-0.017822 -0.04806,-0.040466 -0.06116,-0.050316 -0.013,-0.00985 -0.02852,-0.022073 -0.03427,-0.027163 -0.0057,-0.00509 -0.02914,-0.020093 -0.05194,-0.033339 -0.02282,-0.013243 -0.0439,-0.030401 -0.04687,-0.038125 -0.0029,-0.00773 -0.01667,-0.01891 -0.03059,-0.024861 -0.02559,-0.01099 -0.08636,-0.055161 -0.159608,-0.1160223 -0.02222,-0.018466 -0.04319,-0.033632 -0.04658,-0.033702 -0.0035,-7.16e-5 -0.02297,-0.015184 -0.04352,-0.033575 -0.02053,-0.018397 -0.04625,-0.039493 -0.05713,-0.04688 -0.01081,-0.00738 -0.03638,-0.027082 -0.05667,-0.043768 -0.0203,-0.016686 -0.05301,-0.040446 -0.0727,-0.052798 -0.01969,-0.012345 -0.05852,-0.042016 -0.08627,-0.065915 -0.02775,-0.023899 -0.05495,-0.043453 -0.06044,-0.043453 -0.0055,0 -0.0099,-0.00423 -0.0099,-0.00941 0,-0.00518 -0.01319,-0.014891 -0.02914,-0.021587 -0.01612,-0.0067 -0.04352,-0.026134 -0.06108,-0.04319 -0.01758,-0.017052 -0.04777,-0.041343 -0.06711,-0.053969 -0.01934,-0.01262 -0.04927,-0.035704 -0.06651,-0.051284 -0.01722,-0.015587 -0.04947,-0.038924 -0.07164,-0.051873 -0.02216,-0.012949 -0.06649,-0.043102 -0.09849,-0.067008 -0.03202,-0.023904 -0.07028,-0.049078 -0.08506,-0.055941 -0.01484,-0.00687 -0.03291,-0.01643 -0.0403,-0.021256 -0.0073,-0.00484 -0.04566,-0.023553 -0.08506,-0.041609 -0.0394,-0.01806 -0.09178,-0.042098 -0.116399,-0.053427 -0.02462,-0.011319 -0.07902,-0.031621 -0.120869,-0.045095 -0.04185,-0.013481 -0.08096,-0.028203 -0.08687,-0.032729 -0.0059,-0.00452 -0.01868,-0.00571 -0.02835,-0.00266 -0.0097,0.00308 -0.02017,0.00139 -0.02333,-0.00374 -0.0031,-0.00513 -0.01667,-0.00938 -0.02986,-0.00945 -0.03251,-1.854e-4 -0.05077,-0.012583 -0.04116,-0.027962 0.0042,-0.0067 0.0082,-0.016723 0.0092,-0.022251 8.42e-4,-0.00553 0.0075,-0.023663 0.01484,-0.040292 0.0073,-0.016631 0.02233,-0.056425 0.03334,-0.088434 0.01099,-0.032009 0.02621,-0.06525 0.03379,-0.073867 0.0075,-0.00863 0.01099,-0.01566 0.0073,-0.01566 -0.0035,0 -10e-5,-0.00896 0.0075,-0.019901 0.0077,-0.010953 0.01392,-0.02706 0.01392,-0.035816 0,-0.00876 0.0044,-0.015917 0.0099,-0.015917 0.0059,0 0.0079,-0.00843 0.0046,-0.020937 -0.0031,-0.012089 2.24e-4,-0.028174 0.0077,-0.038054 0.0071,-0.00941 0.01319,-0.025176 0.01337,-0.035024 3.57e-4,-0.015092 0.0018,-0.015788 0.0099,-0.00447 0.0075,0.010715 0.0082,0.0096 0.0042,-0.00548 -0.0029,-0.010733 0.0031,-0.037819 0.01429,-0.062676 0.01081,-0.024071 0.02044,-0.047794 0.02158,-0.052718 0.0037,-0.01577 0.102919,-0.2764949 0.116437,-0.3057776 0.0071,-0.015514 0.013,-0.032879 0.013,-0.038581 0,-0.0057 0.004,-0.00791 0.0088,-0.00489 0.0049,0.003 0.0068,-7.16e-5 0.0042,-0.00685 -0.0026,-0.00678 0.004,-0.032171 0.01484,-0.056425 0.01081,-0.024256 0.02106,-0.051465 0.02278,-0.060464 0.0017,-0.00899 0.01081,-0.035189 0.0203,-0.058198 0.0093,-0.023009 0.02689,-0.067003 0.03878,-0.097761 0.01191,-0.03076 0.02495,-0.052919 0.02901,-0.049245 0.004,0.00368 0.0046,0.00185 0.0012,-0.00405 -0.009,-0.015624 0.04079,-0.1394052 0.05048,-0.1255878 0.0048,0.00689 0.0057,0.00393 0.0024,-0.00794 -0.0029,-0.0104 0.0027,-0.037649 0.01264,-0.060552 0.0099,-0.022903 0.01841,-0.044612 0.01909,-0.048242 0.0294,-0.1579226 0.305055,-0.1425429 0.2829,0.015785 -0.0024,0.017236 -0.0024,0.026301 1.6e-5,0.020146 0.0086,-0.021722 0.01758,-0.010675 0.02923,0.035815 0.0064,0.025854 0.01465,0.051036 0.01795,0.05596 0.0035,0.00493 0.01154,0.027085 0.01813,0.049245 0.0066,0.022161 0.02751,0.087033 0.04662,0.1441634 0.01965,0.058793 0.03233,0.1112509 0.02918,0.1208742 -0.004,0.012162 -0.0031,0.013646 0.0029,0.0052 0.0081,-0.011301 0.03202,0.051883 0.03202,0.084604 0,0.00674 0.0033,0.012254 0.0075,0.012254 0.004,0 0.0075,0.01033 0.0075,0.022972 0,0.012638 0.0044,0.031028 0.0095,0.040873 0.0053,0.00984 0.01117,0.024688 0.013,0.032988 0.0018,0.0083 0.01136,0.035766 0.02132,0.061039 0.0099,0.025273 0.0152,0.048661 0.01191,0.05197 -0.0033,0.00332 -9.91e-4,0.00912 0.0051,0.012931 0.0062,0.00379 0.01209,0.0196859 0.01319,0.0353099 0.0011,0.015624 0.0046,0.028414 0.0079,0.028423 0.0049,1.79e-5 0.07552,0.2032678 0.08391,0.2417666 0.0016,0.00738 0.0038,0.01544 0.0049,0.017913 0.0011,0.00245 0.0027,0.0085 0.0038,0.013426 9.43e-4,0.00493 0.0064,0.020296 0.01209,0.03416 0.0057,0.013865 0.01026,0.028995 0.01026,0.033625 0,0.0052 0.302568,0.00755 0.793858,0.00614 l 0.793857,-0.00229 0.03454,-0.1029665 c 0.01899,-0.056632 0.03709,-0.1090107 0.0402,-0.1163977 0.0031,-0.00738 0.006,-0.017455 0.0066,-0.022384 5.37e-4,-0.00493 0.0088,-0.031114 0.01841,-0.058198 0.0095,-0.027084 0.01795,-0.05126 0.01857,-0.053722 6.28e-4,-0.00245 0.0033,-0.010513 0.0059,-0.017913 0.0026,-0.00738 0.01374,-0.043649 0.02478,-0.0805819 0.01099,-0.036933 0.02931,-0.091327 0.04063,-0.1208743 0.01136,-0.029548 0.0233,-0.06956 0.02663,-0.088918 0.0048,-0.027091 0.0082,-0.032246 0.0152,-0.022384 0.0071,0.010184 0.0081,0.00951 0.0038,-0.00333 -0.0059,-0.018391 0.013,-0.086832 0.02414,-0.086832 0.004,0 0.0051,-0.00355 0.0024,-0.00789 -0.0027,-0.00434 0.007,-0.041611 0.02149,-0.082822 0.01447,-0.041211 0.0266,-0.0709 0.02687,-0.065977 6.27e-4,0.011246 0.01795,-0.014671 0.01795,-0.026861 0,-0.00493 -0.0038,-0.00291 -0.0086,0.00447 -0.01502,0.023377 -0.0093,-0.00189 0.02112,-0.091809 0.0163,-0.048033 0.03174,-0.0851340037 0.03443,-0.082448 0.0027,0.00269 0.0049,-0.00532 0.0049,-0.017794 0,-0.027549 0.01932,-0.076559 0.03019,-0.076559 0.0044,0 0.0068,-0.00464 0.0057,-0.010312 -0.0029,-0.013759 0.0563,-0.054145 0.07114,-0.048454 0.0064,0.00246 0.01172,6.38e-4 0.01172,-0.00406 0,-0.013061 0.07706,-0.00294 0.105483,0.013849 0.03101,0.018316 0.06464,0.065939 0.06464,0.091533 0,0.010484 0.0038,0.02145 0.0086,0.024367 0.0095,0.00594 0.05059,0.1128661 0.04727,0.1233428 -0.0012,0.00369 0.0014,0.00672 0.0057,0.00672 0.0073,0 0.02289,0.049995 0.02022,0.064914 -6.59e-4,0.0037 0.0026,0.00672 0.007,0.00672 0.0079,0 0.02387,0.050987 0.02033,0.064914 -9.38e-4,0.0037 0.0017,0.00672 0.0059,0.00672 0.0042,0 0.01245,0.017126 0.01848,0.038054 0.006,0.02093 0.01874,0.055134 0.02828,0.076009 0.0095,0.020875 0.0174,0.043805 0.0174,0.050956 0,0.00714 0.004,0.015532 0.0092,0.018624 0.0049,0.0031 0.007,0.0091 0.0044,0.013334 -0.0026,0.00425 -9.82e-4,0.010056 0.0037,0.012913 0.0066,0.00408 0.03755,0.081925 0.04114,0.1034812 4.1e-4,0.00245 0.009,0.022608 0.01899,0.044768 0.01007,0.022161 0.02163,0.052379 0.02575,0.067153 0.0095,0.034238 0.0081,0.030229 0.02535,0.0688979 0.02872,0.064308 0.06689,0.17612524 0.06184,0.18116954 -0.0027,0.00282 -7.32e-4,0.00511 0.0046,0.00511 0.009,0 0.0257,0.04965 0.02181,0.064915 -9.38e-4,0.0037 0.0024,0.00672 0.0073,0.00672 0.0049,0 0.009,0.00542 0.009,0.012052 0,0.00663 0.0064,0.024936 0.01429,0.040679 0.0079,0.015752 0.01539,0.033486 0.01648,0.039429 0.0012,0.00593 0.0073,0.022892 0.01355,0.037666 0.03172,0.07562 0.05433,0.1415936 0.05002,0.1459108 -0.0027,0.00267 0.0018,0.012235 0.01007,0.021245 0.0082,0.00901 0.01117,0.016466 0.0068,0.016539 -0.0044,7.16e-5 -0.0031,0.00328 0.0029,0.00711 0.006,0.00383 0.01246,0.014854 0.0141,0.024485 0.0018,0.00963 0.0086,0.028747 0.0152,0.042472 0.01685,0.034977 0.0033,0.044756 -0.08964,0.064583 -0.04185,0.00894 -0.08819,0.02323 -0.102973,0.031777 -0.01484,0.00855 -0.04096,0.018527 -0.05819,0.022179 -0.01722,0.00364 -0.05149,0.015862 -0.0761,0.027137 -0.02462,0.011264 -0.06894,0.031585 -0.09849,0.045138 -0.02954,0.013554 -0.06782,0.033872 -0.08506,0.045153 -0.01722,0.011283 -0.04537,0.025401 -0.06253,0.031376 -0.01722,0.00597 -0.03529,0.014104 -0.0403,0.018078 -0.0049,0.00397 -0.02176,0.017345 -0.03725,0.029731 -0.01557,0.012382 -0.03182,0.02252 -0.0363,0.02252 -0.0044,0 -0.02337,0.013939 -0.04198,0.030984 -0.01861,0.017034 -0.05262,0.043239 -0.07561,0.05822 -0.02299,0.014983 -0.0559,0.039299 -0.07314,0.05404 -0.07627,0.065235 -0.101417,0.084454 -0.112645,0.086101 -0.0066,9.688e-4 -0.02123,0.011264 -0.03251,0.022895 -0.01136,0.011631 -0.03808,0.033015 -0.05956,0.047536 -0.02149,0.014525 -0.04107,0.031581 -0.04348,0.037909 -0.0024,0.00634 -0.01172,0.011503 -0.02062,0.011503 -0.009,0 -0.01758,0.0031 -0.0192,0.00689 -0.0016,0.00379 -0.02515,0.024941 -0.05224,0.047007 -0.02709,0.022066 -0.05127,0.042135 -0.05372,0.044596 -0.0024,0.00245 -0.01099,0.0085 -0.01881,0.013426 -0.04934,0.030833 -0.08696,0.05909 -0.105868,0.079513 -0.0119,0.012895 -0.02604,0.023509 -0.03134,0.023575 -0.01007,1.264e-4 -0.03313,0.017052 -0.103212,0.075987 -0.04506,0.037896 -0.153178,0.1185371 -0.181459,0.1353441 -0.01594,0.00945 -0.04522,0.032229 -0.108908,0.084592 -0.01539,0.01262 -0.04202,0.032577 -0.05925,0.044336 -0.01722,0.011759 -0.03354,0.024522 -0.03623,0.028359 -0.04304,0.061284 -0.109129,0.076617 -0.148197,0.034385 z"
             id="path5584" /></g></g></g></g></svg>
