<?xml version="1.0" encoding="UTF-8" standalone="no"?>
<!-- Created with Inkscape (http://www.inkscape.org/) -->

<svg
   width="16"
   height="16"
   viewBox="0 0 4.2333332 4.2333333"
   version="1.1"
   id="svg5"
   xml:space="preserve"
   inkscape:version="1.2.1 (9c6d41e4, 2022-07-14)"
   sodipodi:docname="html5_logo.svg"
   xmlns:inkscape="http://www.inkscape.org/namespaces/inkscape"
   xmlns:sodipodi="http://sodipodi.sourceforge.net/DTD/sodipodi-0.dtd"
   xmlns="http://www.w3.org/2000/svg"
   xmlns:svg="http://www.w3.org/2000/svg"><sodipodi:namedview
     id="namedview7"
     pagecolor="#ffffff"
     bordercolor="#000000"
     borderopacity="0.25"
     inkscape:showpageshadow="2"
     inkscape:pageopacity="0.0"
     inkscape:pagecheckerboard="0"
     inkscape:deskcolor="#d1d1d1"
     inkscape:document-units="mm"
     showgrid="false"
     inkscape:zoom="14.75"
     inkscape:cx="10.474576"
     inkscape:cy="5.3220339"
     inkscape:window-width="1680"
     inkscape:window-height="997"
     inkscape:window-x="0"
     inkscape:window-y="92"
     inkscape:window-maximized="0"
     inkscape:current-layer="layer1" /><defs
     id="defs2" /><g
     inkscape:label="Layer 1"
     inkscape:groupmode="layer"
     id="layer1"><path
       id="path1676"
       style="fill:#ffffff;fill-opacity:1;stroke-width:0.00587963"
       d="m 2.1166667,0.21446864 c -0.041421,0 -0.074057,0.0024 -0.072347,0.00517 0.00171,0.00277 -0.01944,0.00426 -0.047026,0.0031 -0.028207,-0.00119 -0.048319,1.706e-4 -0.046509,0.0031 0.0018,0.00291 -0.011619,0.0041 -0.029972,0.00258 -0.019874,-0.00165 -0.031536,-7.762e-4 -0.029456,0.00258 0.00203,0.00328 -0.00633,0.00447 -0.020671,0.0031 -0.013361,-0.00128 -0.024288,2.406e-4 -0.024288,0.0031 0,0.00287 -0.0094,0.00441 -0.020671,0.0031 -0.011268,-0.00132 -0.021361,-9.464e-4 -0.022221,0.00103 -0.00239,0.0055 -0.1042676,0.0240588 -0.1105876,0.0201538 -0.00305,-0.001887 -0.00517,-8.0194e-4 -0.00517,0.002067 0,0.006138 -0.058022,0.0204007 -0.065112,0.0160197 -0.00267,-0.001648 -0.00561,-7.3818e-4 -0.00672,0.002584 -0.00111,0.003322 -0.010706,0.007012 -0.021187,0.007751 -0.010477,7.4e-4 -0.019115,0.003 -0.01912,0.005168 -6e-6,0.002168 -0.00861,0.006018 -0.01912,0.008268 -0.040637,0.008701 -0.1814159,0.0643172 -0.2656168,0.10490315 -0.2072225,0.0998835 -0.37542518,0.22138694 -0.53846848,0.3896403 -0.1472574,0.15196304 -0.2527111,0.30340901 -0.344165,0.49299321 -0.0438664,0.090939 -0.0926693,0.2166705 -0.1111043,0.2862874 -0.005781,0.021829 -0.0130697,0.039791 -0.0160197,0.039791 -0.002947,0 -0.003887,0.00223 -0.002067,0.00517 0.003802,0.00615 -0.008833,0.065576 -0.0139526,0.065629 -0.00187,1.8e-5 -0.003605,0.011173 -0.004134,0.024805 -5.3e-4,0.013632 -0.004222,0.025692 -0.007752,0.026872 -0.003533,0.00118 -0.004861,0.00438 -0.003101,0.00723 0.004359,0.00704 -0.003358,0.064525 -0.008268,0.061495 -0.002146,-0.00133 -0.00285,0.007 -0.00155,0.018087 0.0013,0.011096 -2.406e-4,0.020154 -0.003101,0.020154 -0.002869,0 -0.004331,0.010319 -0.003101,0.023254 0.00124,0.012935 1.862e-4,0.023773 -0.002584,0.023771 -0.002764,-2e-6 -0.004251,0.013401 -0.003101,0.029972 0.00115,0.016571 1.762e-4,0.028582 -0.002584,0.026872 -0.002762,-0.00171 -0.004261,0.01944 -0.003101,0.047026 0.00116,0.027585 -3.306e-4,0.048736 -0.003101,0.047026 -0.00277,-0.00171 -0.005168,0.030925 -0.005168,0.072347 0,0.041421 0.002398,0.074057 0.005168,0.072347 0.002774,-0.00171 0.004261,0.01944 0.003101,0.047026 -0.00116,0.027587 3.406e-4,0.048735 0.003101,0.047025 0.002765,-0.00171 0.003734,0.010301 0.002584,0.026872 -0.00115,0.016571 3.306e-4,0.030491 0.003101,0.030489 0.002761,-2e-6 0.003814,0.010319 0.002584,0.023254 -0.00123,0.012936 2.406e-4,0.023771 0.003101,0.023771 0.002861,0 0.004391,0.00906 0.003101,0.020154 -0.0013,0.011091 -5.997e-4,0.0189 0.00155,0.01757 0.0049,-0.00303 0.0126182,0.054445 0.008268,0.061495 -0.00176,0.00286 -4.294e-4,0.00657 0.003101,0.00775 0.00354,0.00118 0.007223,0.01324 0.007752,0.026872 5.3e-4,0.013632 0.002264,0.024787 0.004134,0.024805 0.005121,5e-5 0.0177526,0.058962 0.0139526,0.065112 -0.00182,0.00294 -8.729e-4,0.00517 0.002067,0.00517 0.002945,0 0.0102397,0.017963 0.0160197,0.039791 0.0309094,0.1167243 0.1175988,0.3158097 0.190686,0.4366658 0.1940079,0.3208088 0.469396,0.5719462 0.80305178,0.7327718 0.084201,0.040586 0.2249758,0.096202 0.2656168,0.1049032 0.01051,0.00225 0.019114,0.00558 0.01912,0.00775 6e-6,0.00217 0.00864,0.00494 0.01912,0.00568 0.01048,7.399e-4 0.020077,0.00391 0.021187,0.00723 0.00111,0.00333 0.00405,0.00475 0.00672,0.0031 0.00709,-0.00438 0.065112,0.00988 0.065112,0.01602 0,0.00286 0.00212,0.00344 0.00517,0.00155 0.00632,-0.00391 0.1081976,0.014654 0.1105876,0.020154 8.6e-4,0.00197 0.010954,0.00287 0.022221,0.00155 0.011266,-0.00131 0.020671,-2.762e-4 0.020671,0.00258 0,0.00286 0.010927,0.00437 0.024288,0.0031 0.014345,-0.00136 0.022701,-1.794e-4 0.020671,0.0031 -0.00208,0.00336 0.00958,0.00475 0.029456,0.0031 0.018352,-0.00152 0.031772,-8.329e-4 0.029972,0.00207 -0.00181,0.00292 0.018302,0.00428 0.046509,0.0031 0.027585,-0.00116 0.048735,3.306e-4 0.047026,0.0031 -0.00171,0.00277 0.030925,0.00517 0.072347,0.00517 0.041421,0 0.074057,-0.0024 0.072347,-0.00517 -0.00171,-0.00277 0.01944,-0.00426 0.047026,-0.0031 0.028207,0.00119 0.048836,-1.705e-4 0.047026,-0.0031 -0.0018,-0.00291 0.011103,-0.00359 0.029456,-0.00207 0.019874,0.00165 0.031536,2.594e-4 0.029456,-0.0031 -0.00203,-0.00329 0.00633,-0.00447 0.020671,-0.0031 0.013361,0.00128 0.024805,-2.406e-4 0.024805,-0.0031 0,-0.00287 0.00889,-0.0039 0.020154,-0.00258 0.011268,0.00132 0.021361,4.297e-4 0.022221,-0.00155 0.00239,-0.0055 0.1042676,-0.024064 0.1105876,-0.020154 0.00305,0.00189 0.00568,0.00132 0.00568,-0.00155 0,-0.00614 0.057506,-0.0204 0.064595,-0.01602 0.00267,0.00164 0.00561,2.194e-4 0.00672,-0.0031 0.00111,-0.00333 0.010707,-0.00649 0.021187,-0.00723 0.010477,-7.4e-4 0.019114,-0.00351 0.01912,-0.00568 6e-6,-0.00216 0.00861,-0.0055 0.01912,-0.00775 0.040637,-0.0087 0.1819323,-0.064317 0.2661336,-0.1049032 0.2072226,-0.099884 0.3749083,-0.2213868 0.5379517,-0.3896403 0.1472573,-0.151963 0.2527112,-0.3034009 0.344165,-0.4929931 0.043866,-0.090939 0.093196,-0.2171953 0.1116211,-0.2868042 0.00578,-0.021828 0.012563,-0.039791 0.015503,-0.039791 0.00295,0 0.00389,-0.00223 0.00207,-0.00517 -0.0038,-0.00615 0.00883,-0.065059 0.013953,-0.065112 0.00187,-1.8e-5 0.00412,-0.011173 0.00465,-0.024805 5.3e-4,-0.013632 0.0037,-0.025692 0.00723,-0.026872 0.00353,-0.00118 0.00486,-0.0049 0.0031,-0.00775 -0.00436,-0.00705 0.00388,-0.064525 0.00879,-0.061495 0.00215,0.00133 0.00284,-0.00648 0.00155,-0.01757 -0.0013,-0.011096 -2.762e-4,-0.020154 0.00258,-0.020154 0.00287,0 0.00433,-0.010836 0.0031,-0.023771 -0.00124,-0.012935 -1.862e-4,-0.023256 0.00258,-0.023254 0.00276,2e-6 0.00425,-0.013918 0.0031,-0.030489 -0.00115,-0.016571 3.406e-4,-0.028582 0.0031,-0.026872 0.00276,0.00171 0.00374,-0.01944 0.00258,-0.047025 -0.00116,-0.027585 3.306e-4,-0.048736 0.0031,-0.047026 0.00277,0.00171 0.00517,-0.030925 0.00517,-0.072347 0,-0.041421 -0.0024,-0.074057 -0.00517,-0.072347 -0.00277,0.00172 -0.00426,-0.01944 -0.0031,-0.047026 0.00116,-0.027586 1.762e-4,-0.048736 -0.00258,-0.047026 -0.00276,0.00171 -0.00425,-0.010301 -0.0031,-0.026872 0.00115,-0.016571 -3.306e-4,-0.029974 -0.0031,-0.029972 -0.00276,2e-6 -0.00381,-0.010836 -0.00258,-0.023771 0.00123,-0.012935 -2.406e-4,-0.023254 -0.0031,-0.023254 -0.00286,0 -0.00387,-0.00906 -0.00258,-0.020154 0.0013,-0.011091 5.997e-4,-0.019417 -0.00155,-0.018087 -0.0049,0.00303 -0.013135,-0.054445 -0.00879,-0.061495 0.00176,-0.00286 4.294e-4,-0.00605 -0.0031,-0.00723 -0.00354,-0.00118 -0.00671,-0.01324 -0.00723,-0.026872 -5.3e-4,-0.013632 -0.00278,-0.024787 -0.00465,-0.024805 -0.00512,-5e-5 -0.017753,-0.059479 -0.013953,-0.065629 0.00182,-0.00294 8.729e-4,-0.00517 -0.00207,-0.00517 -0.00294,0 -0.00972,-0.017963 -0.015503,-0.039791 C 3.9058011,1.4604517 3.8185947,1.2613664 3.7455078,1.1405103 3.5514999,0.81970147 3.2766286,0.56908097 2.9429728,0.40825529 2.8587715,0.36766935 2.7174761,0.31205313 2.6768392,0.30335214 c -0.01051,-0.00225 -0.019114,-0.0061 -0.01912,-0.008268 -6e-6,-0.002169 -0.00864,-0.004428 -0.01912,-0.005168 -0.01048,-7.4e-4 -0.020077,-0.004429 -0.021187,-0.007751 -0.00111,-0.003322 -0.00405,-0.004231 -0.00672,-0.002584 -0.00709,0.004381 -0.064595,-0.009882 -0.064595,-0.0160197 0,-0.00287 -0.00263,-0.003955 -0.00568,-0.002067 -0.00632,0.003905 -0.1081976,-0.0146538 -0.1105876,-0.0201538 -8.6e-4,-0.00197 -0.010954,-0.00234 -0.022221,-0.00103 -0.011266,0.00131 -0.020671,-2.305e-4 -0.020671,-0.0031 0,-0.00286 -0.010927,-0.00437 -0.024288,-0.0031 -0.014345,0.00137 -0.022701,1.794e-4 -0.020671,-0.0031 0.00208,-0.00336 -0.00958,-0.00423 -0.029456,-0.00258 -0.018352,0.00152 -0.031255,3.261e-4 -0.029456,-0.00258 0.00181,-0.00292 -0.018819,-0.00428 -0.047026,-0.0031 -0.027585,0.00116 -0.048735,-3.306e-4 -0.047026,-0.0031 0.00172,-0.00277 -0.030925,-0.00517 -0.072347,-0.00517 z" /><path
       style="fill:#ffffff;fill-opacity:1;stroke-width:0.00206706"
       d="m -7.4736216,3.8372902 c -0.00257,-0.00328 -0.0025,-0.00335 7.804e-4,-7.805e-4 0.00344,0.0027 0.00454,0.0044 0.00284,0.0044 -4.292e-4,0 -0.00206,-0.00163 -0.00362,-0.00362 z M -4.510709,3.5976295 c 0.00201,-5.24e-4 0.0048,-4.897e-4 0.0062,7.65e-5 0.0014,5.662e-4 -2.46e-4,9.949e-4 -0.00366,9.529e-4 -0.00341,-4.13e-5 -0.00456,-5.054e-4 -0.00254,-0.00103 z m 0.1012858,0 c 0.00201,-5.24e-4 0.0048,-4.897e-4 0.0062,7.65e-5 0.0014,5.662e-4 -2.46e-4,9.949e-4 -0.00366,9.529e-4 -0.00341,-4.13e-5 -0.00456,-5.054e-4 -0.00254,-0.00103 z m -0.1477046,-0.00205 c 0.00149,-5.97e-4 0.00327,-5.237e-4 0.00396,1.634e-4 6.869e-4,6.869e-4 -5.341e-4,0.00118 -0.00271,0.00109 -0.00241,-9.93e-5 -0.0029,-5.891e-4 -0.00125,-0.00125 z m 0.1922363,0 c 0.00149,-5.97e-4 0.00327,-5.237e-4 0.00396,1.634e-4 6.869e-4,6.869e-4 -5.341e-4,0.00118 -0.00271,0.00109 -0.00241,-9.93e-5 -0.0029,-5.891e-4 -0.00125,-0.00125 z M -4.5199208,3.2689879 c 0.00149,-5.973e-4 0.00327,-5.238e-4 0.00396,1.633e-4 6.869e-4,6.868e-4 -5.341e-4,0.00118 -0.00271,0.00109 -0.00241,-9.92e-5 -0.0029,-5.891e-4 -0.00125,-0.00125 z m 0.088884,0 c 0.00149,-5.973e-4 0.00327,-5.238e-4 0.00396,1.633e-4 6.869e-4,6.868e-4 -5.341e-4,0.00118 -0.00271,0.00109 -0.00241,-9.92e-5 -0.0029,-5.891e-4 -0.00125,-0.00125 z m 0.709714,-0.1866902 c 0,-0.00284 4.693e-4,-0.004 0.00104,-0.00258 5.734e-4,0.00142 5.734e-4,0.00375 0,0.00517 -5.734e-4,0.00142 -0.00104,2.584e-4 -0.00104,-0.00258 z m -1.633e-4,-0.071486 c 9.93e-5,-0.00241 5.892e-4,-0.0029 0.00125,-0.00125 5.971e-4,0.00149 5.237e-4,0.00328 -1.633e-4,0.00396 -6.869e-4,6.869e-4 -0.00118,-5.342e-4 -0.00109,-0.00271 z m -0.4994547,-0.059256 -0.00817,-0.00878 0.00879,0.00817 c 0.00817,0.0076 0.00973,0.0094 0.00817,0.0094 -3.376e-4,0 -0.00429,-0.00395 -0.00879,-0.00879 z M -4.8339897,2.6032572 c -0.00257,-0.00328 -0.0025,-0.00335 7.806e-4,-7.806e-4 0.00199,0.00156 0.00362,0.00319 0.00362,0.00362 0,0.0017 -0.0017,6.062e-4 -0.0044,-0.00284 z M -4.9927262,2.2625373 c 9.92e-5,-0.00241 5.891e-4,-0.0029 0.00125,-0.00125 5.972e-4,0.00149 5.238e-4,0.00328 -1.633e-4,0.00396 -6.869e-4,6.867e-4 -0.00118,-5.343e-4 -0.00109,-0.00271 z m 1.633e-4,-0.06494 c 0,-0.00284 4.692e-4,-0.004 0.00104,-0.00258 5.734e-4,0.00142 5.734e-4,0.00375 0,0.00517 -5.734e-4,0.00142 -0.00104,2.582e-4 -0.00104,-0.00258 z m 1.1912901,-0.2521811 c 0,-0.1062984 2.511e-4,-0.1497842 5.583e-4,-0.096635 3.07e-4,0.053149 3.07e-4,0.1401207 0,0.1932699 -3.072e-4,0.053149 -5.583e-4,0.00966 -5.583e-4,-0.096635 z m -0.4830035,0.064734 c 0.00149,-5.971e-4 0.00328,-5.238e-4 0.00396,1.634e-4 6.868e-4,6.869e-4 -5.342e-4,0.00118 -0.00271,0.00109 -0.00241,-9.92e-5 -0.0029,-5.891e-4 -0.00125,-0.00125 z m 0.082682,0 c 0.00149,-5.971e-4 0.00328,-5.238e-4 0.00396,1.634e-4 6.869e-4,6.869e-4 -5.341e-4,0.00118 -0.00271,0.00109 -0.00241,-9.92e-5 -0.0029,-5.891e-4 -0.00125,-0.00125 z M -4.3524892,1.6835549 c 0.00149,-5.971e-4 0.00328,-5.237e-4 0.00396,1.631e-4 6.868e-4,6.869e-4 -5.342e-4,0.00118 -0.00271,0.00109 -0.00241,-9.92e-5 -0.0029,-5.89e-4 -0.00125,-0.00125 z m 0.039145,-0.00202 c 0.00142,-5.734e-4 0.00375,-5.734e-4 0.00517,0 0.00142,5.735e-4 2.584e-4,0.00104 -0.00258,0.00104 -0.00284,0 -0.004,-4.691e-4 -0.00258,-0.00104 z m 0.1075112,-9.3e-5 c 0.00257,-4.944e-4 0.00629,-4.756e-4 0.00827,4.18e-5 0.00198,5.173e-4 -1.281e-4,9.219e-4 -0.00468,8.988e-4 -0.00455,-2.29e-5 -0.00616,-4.462e-4 -0.00359,-9.406e-4 z"
       id="path261" /><path
       style="fill:#b9b9b9;fill-opacity:1;stroke-width:0.00206706"
       d="m -3.5046081,3.835993 c 0,-4.291e-4 0.00163,-0.00206 0.00362,-0.00362 0.00328,-0.00257 0.00335,-0.0025 7.805e-4,7.805e-4 -0.0027,0.00344 -0.0044,0.00454 -0.0044,0.00284 z m -3.9752147,-0.0049 c -0.00257,-0.00328 -0.0025,-0.00335 7.805e-4,-7.806e-4 0.00344,0.0027 0.00454,0.0044 0.00284,0.0044 -4.293e-4,0 -0.00206,-0.00163 -0.00362,-0.00362 z m -0.014469,-0.014469 c -0.00257,-0.00328 -0.0025,-0.00335 7.805e-4,-7.805e-4 0.00344,0.0027 0.00454,0.0044 0.00284,0.0044 -4.293e-4,0 -0.00206,-0.00163 -0.00362,-0.00362 z m 4.0062205,0.00284 c 0,-4.291e-4 0.00163,-0.00206 0.00362,-0.00362 0.00328,-0.00257 0.00335,-0.0025 7.805e-4,7.806e-4 -0.0027,0.00344 -0.0044,0.00454 -0.0044,0.00284 z M -4.5231506,3.5976371 c 0.00199,-5.201e-4 0.00525,-5.201e-4 0.00723,0 0.00199,5.199e-4 3.618e-4,9.453e-4 -0.00362,9.453e-4 -0.00398,0 -0.00561,-4.254e-4 -0.00362,-9.453e-4 z m 0.1240627,0 c 0.00201,-5.239e-4 0.0048,-4.897e-4 0.0062,7.66e-5 0.0014,5.66e-4 -2.46e-4,9.948e-4 -0.00366,9.529e-4 -0.00341,-4.14e-5 -0.00456,-5.054e-4 -0.00254,-0.00103 z m -0.1642411,-0.00205 c 0.00149,-5.973e-4 0.00327,-5.238e-4 0.00396,1.632e-4 6.869e-4,6.869e-4 -5.341e-4,0.00118 -0.00271,0.00109 -0.00241,-9.92e-5 -0.0029,-5.891e-4 -0.00125,-0.00125 z m 0.2046387,0 c 0.00149,-5.973e-4 0.00327,-5.238e-4 0.00396,1.632e-4 6.869e-4,6.869e-4 -5.341e-4,0.00118 -0.00271,0.00109 -0.00241,-9.92e-5 -0.0029,-5.891e-4 -0.00125,-0.00125 z M -6.1023851,2.8192724 -6.102899,2.0632541 -6.3669656,2.0627217 -6.6310321,2.062189 -6.3669007,2.0616803 c 0.2097795,-4.041e-4 0.2643333,2.28e-5 0.2651122,0.00207 5.395e-4,0.00142 7.415e-4,0.342098 4.491e-4,0.7570597 l -5.317e-4,0.7544758 z m 1.5885363,0.4497585 c 0.00142,-5.735e-4 0.00375,-5.735e-4 0.00517,0 0.00142,5.733e-4 2.584e-4,0.00104 -0.00258,0.00104 -0.00284,0 -0.004,-4.691e-4 -0.00258,-0.00104 z m 0.074414,0 c 0.00142,-5.735e-4 0.00375,-5.735e-4 0.00517,0 0.00142,5.733e-4 2.584e-4,0.00104 -0.00258,0.00104 -0.00284,0 -0.004,-4.691e-4 -0.00258,-0.00104 z m 0.7179487,-0.2644201 c 9.93e-5,-0.00241 5.892e-4,-0.0029 0.00125,-0.00125 5.971e-4,0.00149 5.237e-4,0.00327 -1.633e-4,0.00396 -6.869e-4,6.869e-4 -0.00118,-5.342e-4 -0.00109,-0.00271 z m -0.1387156,-0.3166042 -0.013376,-0.013953 0.013953,0.013376 c 0.01296,0.012424 0.014898,0.014529 0.013376,0.014529 -3.171e-4,0 -0.0066,-0.00628 -0.013953,-0.013952 z m -1.010995,-0.1219565 c -0.00257,-0.00328 -0.0025,-0.00335 7.805e-4,-7.804e-4 0.00344,0.0027 0.00454,0.0044 0.00284,0.0044 -4.292e-4,0 -0.00206,-0.00163 -0.00362,-0.00362 z m 0.3773053,-0.2449462 -0.00394,-0.00465 0.00465,0.00394 c 0.00437,0.0037 0.00559,0.00536 0.00394,0.00536 -3.923e-4,0 -0.00249,-0.00209 -0.00465,-0.00465 z m -0.011436,-0.011369 c -0.00257,-0.00328 -0.0025,-0.00335 7.805e-4,-7.806e-4 0.00344,0.0027 0.00454,0.0044 0.00284,0.0044 -4.291e-4,0 -0.00206,-0.00163 -0.00362,-0.00362 z m -0.4872355,-0.039791 c 0,-0.00284 4.692e-4,-0.004 0.00104,-0.00258 5.734e-4,0.00142 5.734e-4,0.00375 0,0.00517 -5.734e-4,0.00142 -0.00104,2.582e-4 -0.00104,-0.00258 z m -1.633e-4,-0.079754 c 9.92e-5,-0.00241 5.891e-4,-0.0029 0.00125,-0.00125 5.972e-4,0.00149 5.238e-4,0.00328 -1.633e-4,0.00396 -6.869e-4,6.868e-4 -0.00118,-5.343e-4 -0.00109,-0.00271 z M -5.5482503,2.0616883 c 0.073701,-3.009e-4 0.1936942,-3.009e-4 0.2666504,3e-7 0.072956,3.009e-4 0.012655,5.472e-4 -0.1340026,5.472e-4 -0.1466577,0 -0.2063492,-2.464e-4 -0.1326478,-5.475e-4 z m 1.2701752,-0.051538 c 0.00149,-5.972e-4 0.00327,-5.238e-4 0.00396,1.633e-4 6.869e-4,6.869e-4 -5.341e-4,0.00118 -0.00271,0.00109 -0.00241,-9.92e-5 -0.0029,-5.891e-4 -0.00125,-0.00125 z m 0.07028,0 c 0.00149,-5.972e-4 0.00328,-5.238e-4 0.00396,1.633e-4 6.868e-4,6.869e-4 -5.342e-4,0.00118 -0.00271,0.00109 -0.00241,-9.92e-5 -0.0029,-5.891e-4 -0.00125,-0.00125 z m 0.059945,-0.3265951 c 0.00149,-5.971e-4 0.00327,-5.237e-4 0.00396,1.631e-4 6.869e-4,6.869e-4 -5.341e-4,0.00118 -0.00271,0.00109 -0.00241,-9.92e-5 -0.0029,-5.89e-4 -0.00125,-0.00125 z m -0.173762,-0.00202 c 0.00142,-5.734e-4 0.00375,-5.734e-4 0.00517,0 0.00142,5.735e-4 2.584e-4,0.00104 -0.00258,0.00104 -0.00284,0 -0.004,-4.691e-4 -0.00258,-0.00104 z m 0.1292304,-6.34e-5 c 0.00201,-5.241e-4 0.0048,-4.897e-4 0.0062,7.67e-5 0.0014,5.662e-4 -2.46e-4,9.95e-4 -0.00366,9.529e-4 -0.00341,-4.22e-5 -0.00456,-5.054e-4 -0.00254,-0.00103 z m -3.3037139,-1.83696621 c 0,-4.2923e-4 0.00163,-0.002057 0.00362,-0.003617 0.00328,-0.002571 0.00335,-0.002498 7.805e-4,7.8043e-4 -0.0027,0.003443 -0.0044,0.004538 -0.0044,0.002837 z m 4.0098272,-0.002837 c -0.00257,-0.003278 -0.0025,-0.003352 7.805e-4,-7.8043e-4 0.00344,0.0027 0.00454,0.004398 0.00284,0.004398 -4.292e-4,0 -0.00206,-0.001628 -0.00362,-0.003618 z m -3.9932907,-0.0136995 c 0,-4.2924e-4 0.00163,-0.002057 0.00362,-0.003617 0.00328,-0.002571 0.00335,-0.002498 7.804e-4,7.8042e-4 -0.0027,0.003443 -0.0044,0.004538 -0.0044,0.002837 z m 3.9767543,-0.002837 c -0.00257,-0.003278 -0.0025,-0.003352 7.805e-4,-7.8042e-4 0.00199,0.00156 0.00362,0.003188 0.00362,0.003617 0,0.001701 -0.0017,6.0627e-4 -0.0044,-0.002837 z"
       id="path259" /><path
       style="fill:#a3a3a3;fill-opacity:1;stroke-width:0.00206706"
       d="m -3.4942729,3.8254047 c 0.00267,-0.00284 0.00532,-0.00517 0.00589,-0.00517 5.684e-4,0 -0.00115,0.00233 -0.00382,0.00517 -0.00267,0.00284 -0.00532,0.00517 -0.00589,0.00517 -5.685e-4,0 0.00115,-0.00233 0.00382,-0.00517 z m -3.9927173,-0.00155 -0.00394,-0.00465 0.00465,0.00394 c 0.00437,0.0037 0.00559,0.00536 0.00394,0.00536 -3.922e-4,0 -0.00249,-0.00209 -0.00465,-0.00465 z M -4.5324523,3.597693 c 0.00142,-5.734e-4 0.00375,-5.734e-4 0.00517,0 0.00142,5.734e-4 2.584e-4,0.00104 -0.00258,0.00104 -0.00284,0 -0.004,-4.692e-4 -0.00258,-0.00104 z m 0.1426269,0 c 0.00142,-5.734e-4 0.00375,-5.734e-4 0.00517,0 0.00142,5.734e-4 2.583e-4,0.00104 -0.00258,0.00104 -0.00284,0 -0.004,-4.692e-4 -0.00258,-0.00104 z m -0.1797048,-0.00211 c 0.00149,-5.97e-4 0.00328,-5.237e-4 0.00396,1.634e-4 6.868e-4,6.869e-4 -5.342e-4,0.00118 -0.00271,0.00109 -0.00241,-9.93e-5 -0.0029,-5.891e-4 -0.00125,-0.00125 z M -4.9857354,3.4951924 c -5.418e-4,-0.00142 -7.45e-4,-0.095136 -4.517e-4,-0.208256 l 5.329e-4,-0.2056722 0.00103,0.2082562 c 5.685e-4,0.1145408 7.717e-4,0.208256 4.517e-4,0.208256 -3.198e-4,-2e-7 -0.00102,-0.00116 -0.00157,-0.00258 z m 0.4801548,-0.2261615 c 0.00142,-5.735e-4 0.00375,-5.735e-4 0.00517,0 0.00142,5.733e-4 2.583e-4,0.00104 -0.00258,0.00104 -0.00284,0 -0.004,-4.691e-4 -0.00258,-0.00104 z m 0.057878,0 c 0.00142,-5.735e-4 0.00375,-5.735e-4 0.00517,0 0.00142,5.733e-4 2.583e-4,0.00104 -0.00258,0.00104 -0.00284,0 -0.004,-4.691e-4 -0.00258,-0.00104 z m -0.090821,-0.00211 c 0.00149,-5.973e-4 0.00327,-5.238e-4 0.00396,1.631e-4 6.869e-4,6.869e-4 -5.341e-4,0.00118 -0.00271,0.00109 -0.00241,-9.92e-5 -0.0029,-5.891e-4 -0.00125,-0.00125 z m 0.8170375,-0.1734266 c 9.93e-5,-0.00241 5.892e-4,-0.0029 0.00125,-0.00125 5.971e-4,0.00149 5.237e-4,0.00328 -1.633e-4,0.00396 -6.869e-4,6.869e-4 -0.00118,-5.342e-4 -0.00109,-0.00271 z M -3.8438693,2.7045429 c -0.00257,-0.00328 -0.0025,-0.00335 7.805e-4,-7.804e-4 0.00199,0.00156 0.00362,0.00319 0.00362,0.00362 0,0.0017 -0.0017,6.063e-4 -0.0044,-0.00284 z m -0.033073,-0.033073 c -0.00257,-0.00328 -0.0025,-0.00335 7.805e-4,-7.804e-4 0.00199,0.00156 0.00362,0.00319 0.00362,0.00362 0,0.0017 -0.0017,6.063e-4 -0.0044,-0.00284 z M -4.2720031,2.010193 c 0.00142,-5.733e-4 0.00375,-5.733e-4 0.00517,0 0.00142,5.735e-4 2.584e-4,0.00104 -0.00258,0.00104 -0.00284,0 -0.004,-4.692e-4 -0.00258,-0.00104 z m 0.055811,0 c 0.00142,-5.733e-4 0.00375,-5.733e-4 0.00517,0 0.00142,5.735e-4 2.583e-4,0.00104 -0.00258,0.00104 -0.00284,0 -0.004,-4.692e-4 -0.00258,-0.00104 z M -4.8543965,1.8741027 c 0.00386,-0.00398 0.00748,-0.00723 0.00805,-0.00723 5.685e-4,0 -0.00212,0.00326 -0.00598,0.00723 -0.00386,0.00398 -0.00748,0.00723 -0.00805,0.00723 -5.685e-4,0 0.00212,-0.00326 0.00598,-0.00723 z m 0.491572,-0.1905478 c 0.00149,-5.971e-4 0.00328,-5.237e-4 0.00396,1.631e-4 6.869e-4,6.869e-4 -5.341e-4,0.00118 -0.00271,0.00109 -0.00241,-9.92e-5 -0.0029,-5.89e-4 -0.00125,-0.00125 z m 0.2211752,0 c 0.00149,-5.971e-4 0.00327,-5.237e-4 0.00396,1.631e-4 6.869e-4,6.869e-4 -5.341e-4,0.00118 -0.00271,0.00109 -0.00241,-9.92e-5 -0.0029,-5.89e-4 -0.00125,-0.00125 z m -0.1882314,-0.00202 c 0.00142,-5.734e-4 0.00375,-5.734e-4 0.00517,0 0.00142,5.735e-4 2.584e-4,0.00104 -0.00258,0.00104 -0.00284,0 -0.004,-4.691e-4 -0.00258,-0.00104 z m 0.1468902,-4.3e-5 c 0.00149,-5.971e-4 0.00328,-5.237e-4 0.00396,1.631e-4 6.868e-4,6.869e-4 -5.342e-4,0.00118 -0.00271,0.00109 -0.00241,-9.92e-5 -0.0029,-5.89e-4 -0.00125,-0.00125 z m -3.3027698,-1.84757059 c 0.00267,-0.002842 0.00532,-0.005168 0.00589,-0.005168 5.685e-4,0 -0.00115,0.002325 -0.00382,0.005168 -0.00267,0.002842 -0.00532,0.005168 -0.00589,0.005168 -5.684e-4,0 0.00115,-0.002325 0.00382,-0.005168 z m 3.991331,-5.1677e-4 -0.00501,-0.005684 0.00568,0.005011 c 0.00313,0.002756 0.00568,0.005314 0.00568,0.005684 0,0.001621 -0.00167,3.0174e-4 -0.00636,-0.005011 z"
       id="path257" /><path
       style="fill:#e44d26;fill-opacity:1;stroke-width:0.00587963"
       d="m 2.0444766,4.0136773 c 0.00171,-0.00277 -0.019454,-0.0041 -0.047039,-0.00294 -0.028207,0.00118 -0.048747,-1.752e-4 -0.046936,-0.0031 0.0018,-0.0029 -0.011328,-0.004 -0.02968,-0.00248 -0.019877,0.00165 -0.031541,5.268e-4 -0.029464,-0.00283 0.00203,-0.00328 -0.00651,-0.00461 -0.020855,-0.00325 -0.013361,0.00127 -0.024293,-2.94e-5 -0.024293,-0.00289 0,-0.00286 -0.00922,-0.00413 -0.020486,-0.00282 -0.011267,0.00132 -0.021189,7.742e-4 -0.022049,-0.0012 -0.00239,-0.0055 -0.1043428,-0.024185 -0.110662,-0.02028 -0.00305,0.00189 -0.00555,0.00108 -0.00555,-0.00178 0,-0.00614 -0.057616,-0.020419 -0.064705,-0.016038 -0.00267,0.00165 -0.00575,2.769e-4 -0.00686,-0.00305 -0.00111,-0.00332 -0.010589,-0.00665 -0.021069,-0.00739 -0.010481,-7.399e-4 -0.019061,-0.00312 -0.019067,-0.00529 -5.9e-6,-0.00217 -0.00861,-0.00578 -0.01912,-0.00803 C 1.5160005,3.9216081 1.3747854,3.8658556 1.2905839,3.8252696 0.95692782,3.6644438 0.68196892,3.4134701 0.48796082,3.092661 0.41487352,2.9718048 0.32778082,2.7728412 0.29687132,2.6561167 c -0.00578,-0.021828 -0.012919,-0.039687 -0.015864,-0.039687 -0.00294,0 -0.00387,-0.00241 -0.00205,-0.00535 0.0038,-0.00615 -0.00879,-0.06519 -0.013911,-0.06524 -0.00187,-1.76e-5 -0.00383,-0.011187 -0.00436,-0.024819 -5.289e-4,-0.013632 -0.00385,-0.025749 -0.00739,-0.026927 -0.00353,-0.00118 -0.00498,-0.00447 -0.00322,-0.00733 0.00435,-0.00705 -0.00362,-0.06476 -0.00852,-0.061727 -0.00215,0.00133 -0.00285,-0.00666 -0.00155,-0.017751 0.00129,-0.011092 1.06e-5,-0.020166 -0.00285,-0.020166 -0.00286,0 -0.0042,-0.010583 -0.00297,-0.023519 0.00123,-0.012935 -1.94e-5,-0.023517 -0.00278,-0.023515 -0.00277,2e-6 -0.00409,-0.013555 -0.00294,-0.030126 0.00115,-0.016571 -1.753e-4,-0.028731 -0.00294,-0.027021 -0.00276,0.00171 -0.00408,-0.019461 -0.00292,-0.047048 0.00116,-0.027586 -1.659e-4,-0.048754 -0.00294,-0.047039 -0.00277,0.00171 -0.00504,-0.030774 -0.00504,-0.072195 0,-0.041422 0.00227,-0.07391 0.00504,-0.072195 0.00277,0.00171 0.0041,-0.019454 0.00294,-0.047039 -0.00116,-0.027586 1.583e-4,-0.048758 0.00292,-0.047048 0.00276,0.00171 0.00409,-0.01045 0.00294,-0.027021 -0.00115,-0.016571 1.759e-4,-0.030128 0.00294,-0.030126 0.00277,2e-6 0.00402,-0.01058 0.00278,-0.023515 -0.00123,-0.012935 1.009e-4,-0.023518 0.00297,-0.023518 0.00286,0 0.00415,-0.00907 0.00285,-0.020166 -0.0013,-0.011092 -5.956e-4,-0.019079 0.00155,-0.017751 0.00491,0.00303 0.012879,-0.054682 0.00852,-0.061727 -0.00176,-0.00285 -3.135e-4,-0.00615 0.00322,-0.00733 0.00353,-0.00118 0.00686,-0.013295 0.00739,-0.026927 5.29e-4,-0.013632 0.00249,-0.024801 0.00436,-0.024819 0.00512,-5.29e-5 0.017713,-0.059088 0.013911,-0.06524 -0.00182,-0.00294 -8.965e-4,-0.00535 0.00205,-0.00535 0.00295,0 0.010083,-0.017859 0.015864,-0.039688 0.018435,-0.069617 0.067357,-0.1956932 0.1112234,-0.286632 0.091454,-0.1895844 0.1972456,-0.34095435 0.3445032,-0.49291754 0.1630434,-0.16825353 0.33076328,-0.28971191 0.53798598,-0.38959551 0.084201,-0.040586 0.2254166,-0.0963385 0.2660533,-0.10503938 0.01051,-0.00225 0.019114,-0.005866 0.01912,-0.008034 5.8e-6,-0.002168 0.00859,-0.004548 0.019067,-0.005288 0.010481,-7.3991e-4 0.019962,-0.004064 0.021069,-0.007386 0.00111,-0.003322 0.00419,-0.004693 0.00686,-0.003045 0.00709,0.004381 0.064705,-0.0099 0.064705,-0.0160382 0,-0.002869 0.0025,-0.003672 0.00555,-0.001785 0.00632,0.003905 0.1082698,-0.0147778 0.110662,-0.0202797 8.595e-4,-0.00198 0.010781,-0.00252 0.022049,-0.0012 0.011267,0.00131 0.020486,4.76e-5 0.020486,-0.00282 0,-0.00286 0.010932,-0.00417 0.024293,-0.00289 0.014342,0.00137 0.022885,3.82e-5 0.020855,-0.00324 -0.00208,-0.00336 0.00959,-0.00448 0.029464,-0.00283 0.018353,0.00152 0.031477,4.257e-4 0.02968,-0.00248 -0.00181,-0.00293 0.018729,-0.00429 0.046936,-0.0031 0.027586,0.00116 0.048754,-1.659e-4 0.047039,-0.00294 -0.00171,-0.00277 0.030774,-0.00504 0.072195,-0.00504 0.041422,0 0.07391,0.00227 0.072195,0.00504 -0.00171,0.00277 0.019454,0.0041 0.047039,0.00294 0.028207,-0.00118 0.048747,1.753e-4 0.046936,0.0031 -0.0018,0.00291 0.011328,0.004 0.02968,0.00248 0.019877,-0.00165 0.031541,-5.268e-4 0.029464,0.00283 -0.00203,0.00328 0.00651,0.00461 0.020855,0.00324 0.013361,-0.00127 0.024293,2.7e-5 0.024293,0.00289 0,0.00287 0.00922,0.00413 0.020486,0.00282 0.011267,-0.00131 0.021189,-7.743e-4 0.022049,0.0012 0.00239,0.0055 0.1043428,0.0241851 0.110662,0.0202797 0.00305,-0.001888 0.00555,-0.001085 0.00555,0.001785 0,0.006138 0.057616,0.0204191 0.064704,0.0160382 0.00267,-0.001647 0.00575,-2.7705e-4 0.00686,0.003045 0.00111,0.003322 0.010589,0.006646 0.021069,0.007386 0.010481,7.399e-4 0.019061,0.003119 0.019067,0.005288 5.8e-6,0.002168 0.00861,0.005784 0.01912,0.008034 0.040637,0.008701 0.1818518,0.0644534 0.2660532,0.10503938 0.3336561,0.16082584 0.608615,0.41179952 0.8026231,0.73260875 0.073087,0.1208562 0.16018,0.3198197 0.1910895,0.4365443 0.00578,0.021828 0.012919,0.039688 0.015864,0.039688 0.00294,0 0.00387,0.00241 0.00205,0.00535 -0.0038,0.00615 0.00879,0.06519 0.013911,0.06524 0.00187,1.76e-5 0.00383,0.011187 0.00436,0.024819 5.292e-4,0.013632 0.00385,0.025749 0.00739,0.026927 0.00353,0.00118 0.00498,0.00447 0.00322,0.00733 -0.00435,0.00705 0.00362,0.06476 0.00852,0.061727 0.00215,-0.00133 0.00285,0.00666 0.00155,0.017751 -0.00129,0.011091 -1.18e-5,0.020166 0.00285,0.020166 0.00286,0 0.0042,0.010583 0.00297,0.023518 -0.00123,0.012935 1.77e-5,0.023517 0.00278,0.023515 0.00277,-2e-6 0.00409,0.013555 0.00294,0.030126 -0.00115,0.016571 1.753e-4,0.028731 0.00294,0.027021 0.00276,-0.00171 0.00408,0.019462 0.00292,0.047048 -0.00116,0.027586 1.658e-4,0.048754 0.00294,0.047039 0.00277,-0.00171 0.00504,0.030774 0.00504,0.072195 0,0.041422 -0.00227,0.07391 -0.00504,0.072195 -0.00277,-0.00171 -0.0041,0.019454 -0.00294,0.047039 0.00116,0.027586 -1.582e-4,0.048758 -0.00292,0.047048 -0.00276,-0.00171 -0.00409,0.01045 -0.00294,0.027021 0.00115,0.016571 -1.758e-4,0.030128 -0.00294,0.030126 -0.00277,-2e-6 -0.00402,0.01058 -0.00278,0.023515 0.00123,0.012935 -1.011e-4,0.023519 -0.00297,0.023519 -0.00286,0 -0.00415,0.00907 -0.00285,0.020166 0.00129,0.011091 5.956e-4,0.019079 -0.00155,0.017751 -0.00491,-0.00303 -0.012879,0.054681 -0.00852,0.061727 0.00176,0.00285 3.134e-4,0.00615 -0.00322,0.00733 -0.00353,0.00118 -0.00686,0.013295 -0.00739,0.026927 -5.291e-4,0.013632 -0.00249,0.024801 -0.00436,0.024819 -0.00512,5.29e-5 -0.017713,0.059088 -0.013911,0.06524 0.00182,0.00294 8.966e-4,0.00535 -0.00205,0.00535 -0.00294,0 -0.010083,0.017859 -0.015864,0.039687 C 3.918037,2.7257337 3.869115,2.8518098 3.825249,2.9427486 3.7337951,3.132341 3.6280034,3.2837109 3.4807459,3.4356741 3.3177024,3.6039277 3.1499826,3.725386 2.9427598,3.8252696 2.8585584,3.8658556 2.7173433,3.9216081 2.6767066,3.930309 c -0.01051,0.00225 -0.019114,0.00587 -0.01912,0.00803 -5.9e-6,0.00217 -0.00859,0.00455 -0.019067,0.00529 -0.01048,7.4e-4 -0.019962,0.00406 -0.021069,0.00739 -0.00111,0.00332 -0.00419,0.00469 -0.00686,0.00305 -0.00709,-0.00438 -0.064704,0.0099 -0.064704,0.016038 0,0.00287 -0.0025,0.00367 -0.00555,0.00178 -0.00632,-0.00391 -0.1082698,0.014778 -0.110662,0.02028 -8.595e-4,0.00198 -0.010781,0.00252 -0.022049,0.0012 -0.011267,-0.00132 -0.020486,-4.71e-5 -0.020486,0.00282 0,0.00286 -0.010932,0.00417 -0.024293,0.00289 -0.014342,-0.00137 -0.022885,-4.12e-5 -0.020855,0.00325 0.00208,0.00336 -0.00959,0.00448 -0.029464,0.00283 -0.018353,-0.00152 -0.031477,-4.257e-4 -0.02968,0.00248 0.00181,0.00293 -0.018729,0.00429 -0.046936,0.0031 -0.027586,-0.00116 -0.048754,1.658e-4 -0.047039,0.00294 0.00171,0.00277 -0.030774,0.00504 -0.072195,0.00504 -0.041422,0 -0.07391,-0.00227 -0.072195,-0.00504 z m 0.079545,-0.7308644 c -0.00404,-0.00163 -0.010657,-0.00163 -0.014699,0 -0.00404,0.00163 -7.349e-4,0.00297 0.00735,0.00297 0.00808,0 0.011392,-0.00133 0.00735,-0.00297 z m -0.026581,-0.00554 c -0.00195,-0.00195 -0.00703,-0.00216 -0.011269,-4.639e-4 -0.00469,0.00188 -0.0033,0.00327 0.00355,0.00355 0.0062,2.552e-4 0.00967,-0.00113 0.00772,-0.00309 z m 0.052917,0 c -0.00195,-0.00195 -0.00703,-0.00216 -0.011269,-4.639e-4 -0.00469,0.00188 -0.0033,0.00327 0.00355,0.00355 0.0062,2.552e-4 0.00967,-0.00113 0.00772,-0.00309 z m 0.3002008,-0.094613 c 0.2921378,-0.080594 0.3371497,-0.094483 0.3392651,-0.1046818 0.00134,-0.00647 0.034382,-0.3742385 0.073422,-0.8172685 0.039041,-0.4430302 0.072474,-0.8154312 0.074296,-0.8275579 l 0.00331,-0.022049 H 2.1172788 1.293704 l 0.00346,0.033808 c 0.0019,0.018594 0.035693,0.3961711 0.07509,0.8390595 l 0.07163,0.8052515 0.3319847,0.092481 c 0.1825916,0.050865 0.3333076,0.092796 0.3349245,0.09318 0.00162,3.845e-4 0.1545116,-0.041116 0.3397659,-0.092224 z M 1.907945,2.85919 C 1.7947622,2.8285036 1.7011129,2.8023965 1.6998355,2.8011744 1.6985581,2.7999523 1.6905388,2.7274576 1.6820149,2.640075 L 1.6665167,2.4811977 H 1.767362 1.8682073 l 0.00811,0.080222 0.00811,0.080222 0.1087731,0.031316 c 0.059825,0.017224 0.1148341,0.031395 0.1222418,0.031491 0.0115,1.494e-4 0.2233627,-0.057375 0.229893,-0.06242 0.00208,-0.00161 0.023666,-0.2320235 0.024014,-0.2563746 1.388e-4,-0.00969 -0.020656,-0.010289 -0.3555705,-0.010289 -0.1956446,0 -0.3557175,-0.00225 -0.3557175,-0.00501 0,-0.00988 -0.052718,-0.580439 -0.055358,-0.5991264 l -0.0027,-0.019109 h 0.5127105 0.5127106 l -0.007,0.083785 c -0.00385,0.046082 -0.00719,0.093707 -0.00743,0.1058333 L 2.6105575,1.963787 H 2.2158066 1.8210524 l 0.00366,0.030868 c 0.00201,0.016977 0.00687,0.06328 0.010806,0.1028935 l 0.00715,0.072025 H 2.2135841 2.5845049 L 2.5658209,2.397413 c -0.010276,0.1253096 -0.021958,0.267646 -0.025959,0.3163032 l -0.00728,0.088468 -0.2035476,0.055145 c -0.1119511,0.03033 -0.2061933,0.05571 -0.2094271,0.0564 -0.00323,6.902e-4 -0.098484,-0.023852 -0.2116667,-0.054539 z m 0.230653,0.041789 c -0.00195,-0.00195 -0.00703,-0.00216 -0.011269,-4.639e-4 -0.00469,0.00188 -0.0033,0.00327 0.00355,0.00355 0.0062,2.552e-4 0.00967,-0.00113 0.00772,-0.00309 z M 2.068042,2.88922 C 2.066092,2.88727 2.061022,2.88706 2.056773,2.8887561 c -0.00469,0.00188 -0.0033,0.00327 0.00355,0.00355 0.0062,2.551e-4 0.00967,-0.00113 0.00772,-0.00309 z M 2.044523,2.88334 C 2.042573,2.88139 2.037503,2.88118 2.033254,2.8828761 c -0.00469,0.00188 -0.0033,0.00327 0.00355,0.00355 0.0062,2.552e-4 0.00967,-0.00113 0.00772,-0.00309 z m 0.15875,0 C 2.201323,2.88139 2.196243,2.88118 2.192004,2.8828761 c -0.00469,0.00188 -0.0033,0.00327 0.00355,0.00355 0.0062,2.552e-4 0.00967,-0.00113 0.00772,-0.00309 z M 1.979848,2.865701 c -0.00195,-0.00195 -0.00702,-0.00216 -0.011269,-4.639e-4 -0.00469,0.00188 -0.0033,0.00327 0.00355,0.00355 0.0062,2.551e-4 0.00967,-0.00113 0.00772,-0.00309 z m 0.2881018,0 c -0.00195,-0.00195 -0.00702,-0.00216 -0.011269,-4.639e-4 -0.00469,0.00188 -0.0033,0.00327 0.00355,0.00355 0.0062,2.551e-4 0.00967,-0.00113 0.00772,-0.00309 z m 0.023519,-0.00588 c -0.00195,-0.00195 -0.00703,-0.00216 -0.011269,-4.639e-4 -0.00469,0.00188 -0.0033,0.00327 0.00355,0.00355 0.0062,2.552e-4 0.00967,-0.00113 0.00772,-0.00309 z M 1.9151721,2.848062 c -0.00195,-0.00195 -0.00703,-0.00216 -0.011269,-4.639e-4 -0.00469,0.00188 -0.0033,0.00327 0.00355,0.00355 0.0062,2.551e-4 0.00967,-0.00113 0.00772,-0.00309 z m 0.4174537,0 c -0.00195,-0.00195 -0.00702,-0.00216 -0.011269,-4.639e-4 -0.00469,0.00188 -0.0033,0.00327 0.00355,0.00355 0.0062,2.551e-4 0.00967,-0.00113 0.00772,-0.00309 z M 1.8916536,2.842182 c -0.00195,-0.00195 -0.00703,-0.00216 -0.011269,-4.639e-4 -0.00469,0.00188 -0.0033,0.00327 0.00355,0.00355 0.0062,2.552e-4 0.00967,-0.00113 0.00772,-0.00309 z m 0.4644907,0 c -0.00195,-0.00195 -0.00703,-0.00216 -0.011269,-4.639e-4 -0.00469,0.00188 -0.0033,0.00327 0.00355,0.00355 0.0062,2.552e-4 0.00967,-0.00113 0.00772,-0.00309 z m 0.041157,-0.011759 c -0.00195,-0.00195 -0.00703,-0.00216 -0.011269,-4.639e-4 -0.00469,0.00188 -0.0033,0.00327 0.00355,0.00355 0.0062,2.552e-4 0.00967,-0.00113 0.00772,-0.00309 z M 1.8269772,2.824543 c -0.00195,-0.00195 -0.00702,-0.00216 -0.011269,-4.639e-4 -0.00469,0.00188 -0.0033,0.00327 0.00355,0.00355 0.0062,2.552e-4 0.00967,-0.00113 0.00772,-0.00309 z m 0.5938426,0 c -0.00195,-0.00195 -0.00703,-0.00216 -0.011269,-4.639e-4 -0.00469,0.00188 -0.0033,0.00327 0.00355,0.00355 0.0062,2.552e-4 0.00967,-0.00113 0.00772,-0.00309 z m 0.041157,-0.011759 c -0.00195,-0.00195 -0.00703,-0.00216 -0.011269,-4.639e-4 -0.00469,0.00188 -0.0033,0.00327 0.00355,0.00355 0.0062,2.552e-4 0.00967,-0.00113 0.00772,-0.00309 z M 1.7623009,2.806904 c -0.00195,-0.00195 -0.00702,-0.00216 -0.011269,-4.639e-4 -0.00469,0.00188 -0.0033,0.00327 0.00355,0.00355 0.0062,2.551e-4 0.00967,-0.00113 0.00772,-0.00309 z m 0.7231944,0 c -0.00195,-0.00195 -0.00702,-0.00216 -0.011269,-4.639e-4 -0.00469,0.00188 -0.0033,0.00327 0.00355,0.00355 0.0062,2.551e-4 0.00967,-0.00113 0.00772,-0.00309 z M 1.7387832,2.801024 c -0.00195,-0.00195 -0.00702,-0.00216 -0.011269,-4.639e-4 -0.00469,0.00188 -0.0033,0.00327 0.00355,0.00355 0.0062,2.552e-4 0.00967,-0.00113 0.00772,-0.00309 z m -0.021926,-0.00492 c 0,-0.00143 -0.00265,-0.00423 -0.00588,-0.00623 -0.00323,-0.002 -0.00588,-8.318e-4 -0.00588,0.00259 0,0.00342 0.00265,0.00623 0.00588,0.00623 0.00323,0 0.00588,-0.00117 0.00588,-0.00259 z M 2.527305,2.773709 c -8.967e-4,-0.023815 -0.00106,-0.024025 -0.00342,-0.00446 -0.00136,0.01129 -0.00557,0.022494 -0.00935,0.024898 -0.00451,0.00287 -0.00333,0.0044 0.00342,0.00446 0.00835,7.3e-5 0.010112,-0.00463 0.00935,-0.024898 z M 1.7033766,2.7385 c -0.00141,-0.00731 -0.00261,-0.00271 -0.00268,0.010221 -6.53e-5,0.012935 0.00109,0.018919 0.00256,0.013298 0.00147,-0.00562 0.00152,-0.016205 1.187e-4,-0.023518 z M 2.5323953,2.691394 c -0.0014,-0.00728 -0.00255,-0.00132 -0.00255,0.013229 0,0.014552 0.00115,0.020505 0.00255,0.013229 0.0014,-0.00728 0.0014,-0.019182 0,-0.026458 z M 2.1091999,2.71283 c -0.00195,-0.00195 -0.00703,-0.00216 -0.011269,-4.639e-4 -0.00469,0.00188 -0.0033,0.00327 0.00355,0.00355 0.0062,2.552e-4 0.00967,-0.00113 0.00772,-0.00309 z M 1.697497,2.6797037 c -0.00141,-0.00731 -0.00261,-0.00271 -0.00268,0.010221 -6.53e-5,0.012935 0.00109,0.018919 0.00256,0.013298 0.00147,-0.00562 0.00152,-0.016205 1.188e-4,-0.023518 z m 0.3705454,0.021368 c -0.00195,-0.00195 -0.00702,-0.00216 -0.011269,-4.639e-4 -0.00469,0.00188 -0.0033,0.00327 0.00355,0.00355 0.0062,2.552e-4 0.00967,-0.00113 0.00772,-0.00309 z m -0.041157,-0.01176 c -0.00195,-0.00195 -0.00702,-0.00216 -0.011269,-4.639e-4 -0.00469,0.00188 -0.0033,0.00327 0.00355,0.00355 0.0062,2.551e-4 0.00967,-0.00113 0.00772,-0.00309 z M 1.985728,2.677553 c -0.00195,-0.00195 -0.00702,-0.00216 -0.011269,-4.639e-4 -0.00469,0.00188 -0.0033,0.00327 0.00355,0.00355 0.0062,2.552e-4 0.00967,-0.00113 0.00772,-0.00309 z M 1.94457,2.665793 C 1.94262,2.663843 1.93755,2.663633 1.933301,2.6653291 c -0.00469,0.00188 -0.0033,0.00327 0.00355,0.00355 0.0062,2.551e-4 0.00967,-0.00113 0.00772,-0.00309 z m 0.3586574,0 c -0.00195,-0.00195 -0.00703,-0.00216 -0.011269,-4.639e-4 -0.00469,0.00188 -0.0033,0.00327 0.00355,0.00355 0.0062,2.551e-4 0.00967,-0.00113 0.00772,-0.00309 z M 1.9034128,2.6540343 c -0.00195,-0.00195 -0.00703,-0.00216 -0.011269,-4.639e-4 -0.00469,0.00188 -0.0033,0.00327 0.00355,0.00355 0.0062,2.552e-4 0.00967,-0.00113 0.00772,-0.00309 z M 2.538275,2.6208393 c -0.0014,-0.00728 -0.00255,-0.00132 -0.00255,0.013229 0,0.014552 0.00115,0.020505 0.00255,0.013229 0.0014,-0.00728 0.0014,-0.019182 0,-0.026458 z m -0.8466577,6.88e-5 c -0.00141,-0.00731 -0.00261,-0.00271 -0.00268,0.010221 -6.52e-5,0.012935 0.00109,0.018919 0.00256,0.013298 0.00147,-0.00562 0.00152,-0.016205 1.188e-4,-0.023518 z m 0.1821631,-0.014768 c -0.00148,-0.00566 -0.00269,-0.00103 -0.00269,0.010289 0,0.011318 0.00121,0.015948 0.00269,0.010289 0.00148,-0.00566 0.00148,-0.01492 0,-0.020578 z m 0.4881057,-0.020579 c -0.0014,-0.00728 -0.00255,-0.00132 -0.00255,0.013229 0,0.014552 0.00115,0.020505 0.00255,0.013229 0.0014,-0.00728 0.0014,-0.019182 0,-0.026458 z m -0.6761484,-0.02933 c -0.00141,-0.00731 -0.00261,-0.00271 -0.00268,0.010221 -6.52e-5,0.012935 0.00109,0.018919 0.00256,0.013298 0.00147,-0.00562 0.00152,-0.016205 1.187e-4,-0.023519 z m 0.8584866,-0.00881 c -0.00135,-0.00894 -0.00249,-0.00302 -0.00254,0.013148 -4.12e-5,0.016169 0.00106,0.023481 0.00246,0.01625 0.0014,-0.00723 0.00143,-0.020461 8e-5,-0.029398 z m -0.6762181,0.00293 c -0.00141,-0.00731 -0.00261,-0.00271 -0.00268,0.010221 -6.52e-5,0.012935 0.00109,0.018919 0.00256,0.013298 0.00147,-0.00562 0.00152,-0.016205 1.187e-4,-0.023519 z m 0.4997595,-0.035346 c -0.0014,-0.00728 -0.00255,-0.00132 -0.00255,0.013229 0,0.014552 0.00115,0.020505 0.00255,0.013229 0.0014,-0.00728 0.0014,-0.019182 0,-0.026458 z m -0.59801,-0.022049 h 0.087431 l 0.00245,0.016169 c 0.00228,0.015049 0.00251,0.014846 0.00333,-0.00294 l 8.809e-4,-0.019109 h -0.094074 -0.094074 l 9.409e-4,0.022049 c 9.264e-4,0.021708 9.776e-4,0.021754 0.00331,0.00294 l 0.00237,-0.019109 z m 0.7803482,-0.016088 c -0.00135,-0.00894 -0.00249,-0.00302 -0.00254,0.013148 -4.11e-5,0.016169 0.00106,0.023481 0.00246,0.01625 0.0014,-0.00723 0.00143,-0.020461 8e-5,-0.029398 z M 2.3736454,2.4503296 c -0.0014,-0.00728 -0.00255,-0.00132 -0.00255,0.013229 0,0.014552 0.00115,0.020505 0.00255,0.013229 0.0014,-0.00728 0.0014,-0.019182 0,-0.026458 z m 0.1822685,-0.047037 c -0.0014,-0.00728 -0.00255,-0.00132 -0.00255,0.013229 0,0.014552 0.00115,0.020505 0.00255,0.013229 0.0014,-0.00728 0.0014,-0.019182 0,-0.026458 z M 2.379534,2.3857226 c -0.00141,-0.00731 -0.00261,-0.00271 -0.00268,0.010221 -6.53e-5,0.012935 0.00109,0.018919 0.00256,0.013298 0.00147,-0.00562 0.00152,-0.016205 1.188e-4,-0.023519 z m -0.3580032,-0.020646 -0.350905,-0.00156 -0.00254,-0.013183 c -0.00217,-0.011247 -0.00266,-0.010808 -0.00334,0.00299 l -8.007e-4,0.016169 0.3542477,-0.00142 0.3542476,-0.00142 z m 0.5402627,-0.03234 c -0.0014,-0.00728 -0.00255,-0.00132 -0.00255,0.013229 0,0.014552 0.00115,0.020505 0.00255,0.013229 0.0014,-0.00728 0.0014,-0.019182 0,-0.026458 z M 1.6622192,2.2857686 c -0.00141,-0.00731 -0.00261,-0.00271 -0.00268,0.010221 -6.53e-5,0.012935 0.00109,0.018919 0.00256,0.013298 0.00147,-0.00562 0.00153,-0.016205 1.187e-4,-0.023519 z m 0.9054539,-0.023587 c -0.0014,-0.00728 -0.00255,-0.00132 -0.00255,0.013229 0,0.014552 0.00115,0.020505 0.00255,0.013229 0.0014,-0.00728 0.0014,-0.019182 0,-0.026458 z M 1.6563306,2.221024 c -0.0014,-0.00728 -0.00255,-0.00132 -0.00255,0.013229 0,0.014552 0.00115,0.020505 0.00255,0.013229 0.0014,-0.00728 0.0014,-0.019182 0,-0.026458 z M 2.5735527,2.191626 c -0.0014,-0.00728 -0.00255,-0.00132 -0.00255,0.013229 0,0.014552 0.00115,0.020505 0.00255,0.013229 0.0014,-0.00728 0.0014,-0.019182 0,-0.026458 z M 1.6504509,2.1563481 c -0.0014,-0.00728 -0.00255,-0.00132 -0.00255,0.013229 0,0.014552 0.00115,0.020505 0.00255,0.013229 0.0014,-0.00728 0.0014,-0.019182 0,-0.026458 z M 1.832623,2.1357691 c -0.00148,-0.00566 -0.00269,-0.00103 -0.00269,0.010289 0,0.011318 0.00121,0.015948 0.00269,0.010289 0.00148,-0.00566 0.00148,-0.01492 0,-0.020578 z M 1.6445803,2.0976203 c -0.00141,-0.00731 -0.00261,-0.00271 -0.00268,0.010221 -6.53e-5,0.012935 0.00109,0.018919 0.00256,0.013298 0.00147,-0.00562 0.00152,-0.016205 1.187e-4,-0.023519 z m 0.1822685,-0.017639 c -0.00141,-0.00731 -0.00261,-0.00271 -0.00268,0.010221 -6.52e-5,0.012935 0.00109,0.018919 0.00256,0.013298 0.00147,-0.00562 0.00152,-0.016205 1.187e-4,-0.023519 z M 1.6387007,2.0329444 c -0.00141,-0.00731 -0.00261,-0.00271 -0.00268,0.010221 -6.53e-5,0.012935 0.00109,0.018919 0.00256,0.013298 0.00147,-0.00562 0.00152,-0.016205 1.188e-4,-0.023518 z m 0.1822685,-0.00588 c -0.00141,-0.00731 -0.00261,-0.00271 -0.00268,0.010221 -6.53e-5,0.012935 0.00109,0.018919 0.00256,0.013298 0.00147,-0.00562 0.00152,-0.016205 1.188e-4,-0.023518 z M 1.6328211,1.9682685 c -0.00141,-0.00731 -0.00261,-0.00271 -0.00268,0.010221 -6.53e-5,0.012935 0.00109,0.018919 0.00256,0.013298 0.00147,-0.00562 0.00152,-0.016205 1.188e-4,-0.023518 z m 0.182163,0.00287 c -0.00148,-0.00566 -0.00269,-0.00103 -0.00269,0.010289 0,0.011318 0.00121,0.015949 0.00269,0.010289 0.00148,-0.00566 0.00148,-0.014919 0,-0.020578 z m 0.7879758,-0.049908 c -0.00141,-0.00731 -0.00261,-0.00271 -0.00268,0.010221 -6.53e-5,0.012935 0.00109,0.018919 0.00256,0.013298 0.00147,-0.00562 0.00152,-0.016205 1.188e-4,-0.023519 z M 1.6269414,1.9035926 c -0.00141,-0.00731 -0.00261,-0.00271 -0.00268,0.010221 -6.52e-5,0.012935 0.00109,0.018919 0.00256,0.013298 0.00147,-0.00562 0.00152,-0.016205 1.187e-4,-0.023518 z m 0.9819588,-0.055844 c -0.00135,-0.00894 -0.00249,-0.00302 -0.00254,0.013148 -4.11e-5,0.016169 0.00106,0.023481 0.00246,0.01625 0.0014,-0.00723 0.00143,-0.020461 8e-5,-0.029398 z m -0.9878474,-0.0089 c -0.0014,-0.00728 -0.00255,-0.00132 -0.00255,0.013229 0,0.014552 0.00115,0.020505 0.00255,0.013229 0.0014,-0.00728 0.0014,-0.019182 0,-0.026458 z m -0.00588,-0.064676 c -0.0014,-0.00728 -0.00255,-0.00132 -0.00255,0.013229 0,0.014552 0.00115,0.020505 0.00255,0.013229 0.0014,-0.00728 0.0014,-0.019182 0,-0.026458 z m 0.999537,0 c -0.0014,-0.00728 -0.00255,-0.00132 -0.00255,0.013229 0,0.014552 0.00115,0.020505 0.00255,0.013229 0.0014,-0.00728 0.0014,-0.019182 0,-0.026458 z M 2.1915147,3.2655157 c -0.00195,-0.00195 -0.00703,-0.00216 -0.011269,-4.639e-4 -0.00469,0.00188 -0.0033,0.00327 0.00355,0.00355 0.0062,2.552e-4 0.00967,-0.00113 0.00772,-0.00309 z m -0.15875,-0.00588 c -0.00195,-0.00195 -0.00703,-0.00216 -0.011269,-4.639e-4 -0.00469,0.00188 -0.0033,0.00327 0.00355,0.00355 0.0062,2.552e-4 0.00967,-0.00113 0.00772,-0.00309 z m -0.041157,-0.011759 c -0.00195,-0.00195 -0.00702,-0.00216 -0.011269,-4.639e-4 -0.00469,0.00188 -0.0033,0.00327 0.00355,0.00355 0.0062,2.551e-4 0.00967,-0.00113 0.00772,-0.00309 z m 0.2645833,0 c -0.00195,-0.00195 -0.00703,-0.00216 -0.011269,-4.639e-4 -0.00469,0.00188 -0.0033,0.00327 0.00355,0.00355 0.0062,2.551e-4 0.00967,-0.00113 0.00772,-0.00309 z m 0.041157,-0.011759 c -0.00195,-0.00195 -0.00703,-0.00216 -0.011269,-4.639e-4 -0.00469,0.00188 -0.0033,0.00327 0.00355,0.00355 0.0062,2.552e-4 0.00967,-0.00113 0.00772,-0.00309 z m -0.3704167,-0.00588 c -0.00195,-0.00195 -0.00702,-0.00216 -0.011269,-4.639e-4 -0.00469,0.00188 -0.0033,0.00327 0.00355,0.00355 0.0062,2.551e-4 0.00967,-0.00113 0.00772,-0.00309 z m -0.041157,-0.011759 c -0.00195,-0.00195 -0.00702,-0.00216 -0.011269,-4.639e-4 -0.00469,0.00188 -0.0033,0.00327 0.00355,0.00355 0.0062,2.552e-4 0.00967,-0.00113 0.00772,-0.00309 z m 0.47625,0 c -0.00195,-0.00195 -0.00703,-0.00216 -0.011269,-4.639e-4 -0.00469,0.00188 -0.0033,0.00327 0.00355,0.00355 0.0062,2.552e-4 0.00967,-0.00113 0.00772,-0.00309 z m 0.041157,-0.011759 c -0.00195,-0.00195 -0.00703,-0.00216 -0.011269,-4.639e-4 -0.00469,0.00188 -0.0033,0.00327 0.00355,0.00355 0.0062,2.551e-4 0.00967,-0.00113 0.00772,-0.00309 z M 1.821098,3.2008397 c -0.00195,-0.00195 -0.00703,-0.00216 -0.011269,-4.639e-4 -0.00469,0.00188 -0.0033,0.00327 0.00355,0.00355 0.0062,2.552e-4 0.00967,-0.00113 0.00772,-0.00309 z m 0.6467592,-0.011759 c -0.00195,-0.00195 -0.00702,-0.00216 -0.011269,-4.639e-4 -0.00469,0.00188 -0.0033,0.00327 0.00355,0.00355 0.0062,2.551e-4 0.00967,-0.00113 0.00772,-0.00309 z m 0.041157,-0.011759 c -0.00195,-0.00195 -0.00702,-0.00216 -0.011269,-4.639e-4 -0.00469,0.00188 -0.0033,0.00327 0.00355,0.00355 0.0062,2.552e-4 0.00967,-0.00113 0.00772,-0.00309 z m -0.7937499,-0.00588 c -0.00195,-0.00195 -0.00702,-0.00216 -0.011269,-4.639e-4 -0.00469,0.00188 -0.0033,0.00327 0.00355,0.00355 0.0062,2.552e-4 0.00967,-0.00113 0.00772,-0.00309 z m 0.8584259,-0.011759 c -0.00195,-0.00195 -0.00703,-0.00216 -0.011269,-4.639e-4 -0.00469,0.00188 -0.0033,0.00327 0.00355,0.00355 0.0062,2.552e-4 0.00967,-0.00113 0.00772,-0.00309 z m -0.9231018,-0.00588 c -0.00195,-0.00195 -0.00703,-0.00216 -0.011269,-4.64e-4 -0.00469,0.00188 -0.0033,0.00327 0.00355,0.00355 0.0062,2.552e-4 0.00967,-0.00113 0.00772,-0.00309 z m 0.9642592,-0.00588 c -0.00195,-0.00195 -0.00703,-0.00216 -0.011269,-4.639e-4 -0.00469,0.00188 -0.0033,0.00327 0.00355,0.00355 0.0062,2.551e-4 0.00967,-0.00113 0.00772,-0.00309 z M 1.609431,3.1420425 c -0.00195,-0.00195 -0.00702,-0.00216 -0.011269,-4.639e-4 -0.00469,0.00188 -0.0033,0.00327 0.00355,0.00355 0.0062,2.552e-4 0.00967,-0.00113 0.00772,-0.00309 z m 1.0700925,-0.011759 c -0.00195,-0.00195 -0.00703,-0.00216 -0.011269,-4.639e-4 -0.00469,0.00188 -0.0033,0.00327 0.00355,0.00355 0.0062,2.551e-4 0.00967,-0.00113 0.00772,-0.00309 z M 1.544755,3.1244035 c -0.00195,-0.00195 -0.00702,-0.00216 -0.011269,-4.639e-4 -0.00469,0.00188 -0.0033,0.00327 0.00355,0.00355 0.0062,2.552e-4 0.00967,-0.00113 0.00772,-0.00309 z M 1.503598,3.1126445 c -0.00195,-0.00195 -0.00702,-0.00216 -0.011269,-4.639e-4 -0.00469,0.00188 -0.0033,0.00327 0.00355,0.00355 0.0062,2.552e-4 0.00967,-0.00113 0.00772,-0.00309 z m 1.2406018,0 c -0.00195,-0.00195 -0.00703,-0.00216 -0.011269,-4.639e-4 -0.00469,0.00188 -0.0033,0.00327 0.00355,0.00355 0.0062,2.552e-4 0.00967,-0.00113 0.00772,-0.00309 z m 0.041157,-0.011759 c -0.00195,-0.00195 -0.00703,-0.00216 -0.011269,-4.639e-4 -0.00469,0.00188 -0.0033,0.00327 0.00355,0.00355 0.0062,2.552e-4 0.00967,-0.00113 0.00772,-0.00309 z M 1.4329047,3.0441722 c -0.0014,-0.00728 -0.00255,-0.00132 -0.00255,0.013229 0,0.014552 0.00115,0.020505 0.00255,0.013229 0.0014,-0.00728 0.0014,-0.019182 0,-0.026458 z m 1.3699626,6.88e-5 c -0.00141,-0.00731 -0.00261,-0.00271 -0.00268,0.010221 -6.53e-5,0.012935 0.00109,0.018919 0.00256,0.013298 0.00147,-0.00562 0.00152,-0.016205 1.188e-4,-0.023519 z M 1.427025,2.9794963 c -0.0014,-0.00728 -0.00255,-0.00132 -0.00255,0.013229 0,0.014552 0.00115,0.020505 0.00255,0.013229 0.0014,-0.00728 0.0014,-0.019182 0,-0.026458 z m 1.3817219,6.88e-5 c -0.00141,-0.00731 -0.00261,-0.00271 -0.00268,0.010221 -6.52e-5,0.012935 0.00109,0.018919 0.00256,0.013298 0.00147,-0.00562 0.00152,-0.016205 1.187e-4,-0.023519 z M 1.4211544,2.9148891 c -0.00141,-0.00731 -0.00261,-0.00271 -0.00268,0.010221 -6.53e-5,0.012935 0.00109,0.018919 0.00256,0.013298 0.00147,-0.00562 0.00152,-0.016205 1.188e-4,-0.023519 z m 1.3934632,-0.00595 c -0.0014,-0.00728 -0.00255,-0.00132 -0.00255,0.013229 0,0.014552 0.00115,0.020505 0.00255,0.013229 0.0014,-0.00728 0.0014,-0.019182 0,-0.026458 z M 1.4152748,2.850213 c -0.00141,-0.00731 -0.00261,-0.00271 -0.00268,0.010221 -6.53e-5,0.012935 0.00109,0.018919 0.00256,0.013298 0.00147,-0.00562 0.00152,-0.016205 1.188e-4,-0.023518 z m 1.4052224,-0.00595 c -0.0014,-0.00728 -0.00255,-0.00132 -0.00255,0.013229 0,0.014552 0.00115,0.020505 0.00255,0.013229 0.0014,-0.00728 0.0014,-0.019182 0,-0.026458 z M 1.4093861,2.7795889 c -0.0014,-0.00728 -0.00255,-0.00132 -0.00255,0.013229 0,0.014552 0.00115,0.020505 0.00255,0.013229 0.0014,-0.00728 0.0014,-0.019182 0,-0.026458 z m 1.4169907,0 c -0.0014,-0.00728 -0.00255,-0.00132 -0.00255,0.013229 0,0.014552 0.00115,0.020505 0.00255,0.013229 0.0014,-0.00728 0.0014,-0.019182 0,-0.026458 z M 1.4035065,2.7149129 c -0.0014,-0.00728 -0.00255,-0.00132 -0.00255,0.013229 0,0.014552 0.00115,0.020505 0.00255,0.013229 0.0014,-0.00728 0.0014,-0.019182 0,-0.026458 z m 1.4287499,0 c -0.0014,-0.00728 -0.00255,-0.00132 -0.00255,0.013229 0,0.014552 0.00115,0.020505 0.00255,0.013229 0.0014,-0.00728 0.0014,-0.019182 0,-0.026458 z M 1.3976269,2.650237 c -0.0014,-0.00728 -0.00255,-0.00132 -0.00255,0.013229 0,0.014552 0.00115,0.020505 0.00255,0.013229 0.0014,-0.00728 0.0014,-0.019182 0,-0.026458 z m 1.4405182,6.88e-5 c -0.00141,-0.00731 -0.00261,-0.00271 -0.00268,0.010221 -6.53e-5,0.012935 0.00109,0.018919 0.00256,0.013298 0.00147,-0.00562 0.00152,-0.016205 1.188e-4,-0.023519 z M 1.3917563,2.5856299 c -0.00141,-0.00731 -0.00261,-0.00271 -0.00268,0.010221 -6.53e-5,0.012935 0.00109,0.018919 0.00256,0.013298 0.00147,-0.00562 0.00152,-0.016205 1.188e-4,-0.023518 z m 1.4522594,-0.00595 c -0.0014,-0.00728 -0.00255,-0.00132 -0.00255,0.013229 0,0.014552 0.00115,0.020505 0.00255,0.013229 0.0014,-0.00728 0.0014,-0.019182 0,-0.026458 z M 1.3858676,2.5150055 c -0.0014,-0.00728 -0.00255,-0.00132 -0.00255,0.013229 0,0.014552 0.00115,0.020505 0.00255,0.013229 0.0014,-0.00728 0.0014,-0.019182 0,-0.026458 z m 1.4640277,0 c -0.0014,-0.00728 -0.00255,-0.00132 -0.00255,0.013229 0,0.014552 0.00115,0.020505 0.00255,0.013229 0.0014,-0.00728 0.0014,-0.019182 0,-0.026458 z M 1.379988,2.4503296 c -0.0014,-0.00728 -0.00255,-0.00132 -0.00255,0.013229 0,0.014552 0.00115,0.020505 0.00255,0.013229 0.0014,-0.00728 0.0014,-0.019182 0,-0.026458 z m 1.475787,0 c -0.0014,-0.00728 -0.00255,-0.00132 -0.00255,0.013229 0,0.014552 0.00115,0.020505 0.00255,0.013229 0.0014,-0.00728 0.0014,-0.019182 0,-0.026458 z M 1.3741084,2.3856537 c -0.0014,-0.00728 -0.00255,-0.00132 -0.00255,0.013229 0,0.014552 0.00115,0.020505 0.00255,0.013229 0.0014,-0.00728 0.0014,-0.019182 0,-0.026458 z m 1.4875462,0 c -0.0014,-0.00728 -0.00255,-0.00132 -0.00255,0.013229 0,0.014552 0.00115,0.020505 0.00255,0.013229 0.0014,-0.00728 0.0014,-0.019182 0,-0.026458 z M 1.3682287,2.3209778 c -0.0014,-0.00728 -0.00255,-0.00132 -0.00255,0.013229 0,0.014552 0.00115,0.020505 0.00255,0.013229 0.0014,-0.00728 0.0014,-0.019182 0,-0.026458 z m 1.4993145,6.88e-5 c -0.00141,-0.00731 -0.00261,-0.00271 -0.00268,0.010221 -6.53e-5,0.012935 0.00109,0.018919 0.00256,0.013298 0.00147,-0.00562 0.00152,-0.016205 1.187e-4,-0.023519 z M 1.3623581,2.2563706 c -0.00141,-0.00731 -0.00261,-0.00271 -0.00268,0.010221 -6.53e-5,0.012935 0.00109,0.018919 0.00256,0.013298 0.00147,-0.00562 0.00152,-0.016205 1.187e-4,-0.023519 z m 1.5110557,-0.00595 c -0.0014,-0.00728 -0.00255,-0.00132 -0.00255,0.013229 0,0.014552 0.00115,0.020505 0.00255,0.013229 0.0014,-0.00728 0.0014,-0.019182 0,-0.026458 z M 1.3564695,2.1857462 c -0.0014,-0.00728 -0.00255,-0.00132 -0.00255,0.013229 0,0.014552 0.00115,0.020505 0.00255,0.013229 0.0014,-0.00728 0.0014,-0.019182 0,-0.026458 z m 1.522824,0 c -0.0014,-0.00728 -0.00255,-0.00132 -0.00255,0.013229 0,0.014552 0.00115,0.020505 0.00255,0.013229 0.0014,-0.00728 0.0014,-0.019182 0,-0.026458 z M 1.3505899,2.1210703 c -0.0014,-0.00728 -0.00255,-0.00132 -0.00255,0.013229 0,0.014552 0.00115,0.020505 0.00255,0.013229 0.0014,-0.00728 0.0014,-0.019182 0,-0.026458 z m 1.5345832,0 c -0.0014,-0.00728 -0.00255,-0.00132 -0.00255,0.013229 0,0.014552 0.00115,0.020505 0.00255,0.013229 0.0014,-0.00728 0.0014,-0.019182 0,-0.026458 z M 1.3447102,2.0563944 c -0.0014,-0.00728 -0.00255,-0.00132 -0.00255,0.013229 0,0.014552 0.00115,0.020505 0.00255,0.013229 0.0014,-0.00728 0.0014,-0.019182 0,-0.026458 z m 1.5463515,6.88e-5 c -0.00141,-0.00731 -0.00261,-0.00271 -0.00268,0.010221 -6.52e-5,0.012935 0.00109,0.018919 0.00256,0.013298 0.00147,-0.00562 0.00152,-0.016205 1.187e-4,-0.023519 z M 1.3388396,1.9917872 c -0.00141,-0.00731 -0.00261,-0.00271 -0.00268,0.010221 -6.53e-5,0.012935 0.00109,0.018919 0.00256,0.013298 0.00147,-0.00562 0.00152,-0.016205 1.188e-4,-0.023518 z m 1.5581018,0 c -0.00141,-0.00731 -0.00261,-0.00271 -0.00268,0.010221 -6.53e-5,0.012935 0.00109,0.018919 0.00256,0.013298 0.00147,-0.00562 0.00152,-0.016205 1.188e-4,-0.023518 z M 1.33296,1.9271113 c -0.00141,-0.00731 -0.00261,-0.00271 -0.00268,0.010221 -6.53e-5,0.012935 0.00109,0.018919 0.00256,0.013298 0.00147,-0.00562 0.00152,-0.016205 1.188e-4,-0.023518 z m 1.569852,-0.00595 c -0.0014,-0.00728 -0.00255,-0.00132 -0.00255,0.013229 0,0.014552 0.00115,0.020505 0.00255,0.013229 0.0014,-0.00728 0.0014,-0.019182 0,-0.026458 z M 1.3270713,1.856487 c -0.0014,-0.00728 -0.00255,-0.00132 -0.00255,0.013229 0,0.014552 0.00115,0.020505 0.00255,0.013229 0.0014,-0.00728 0.0014,-0.019182 0,-0.026458 z m 1.5816203,0 c -0.0014,-0.00728 -0.00255,-0.00132 -0.00255,0.013229 0,0.014552 0.00115,0.020505 0.00255,0.013229 0.0014,-0.00728 0.0014,-0.019182 0,-0.026458 z M 1.3211917,1.791811 c -0.0014,-0.00728 -0.00255,-0.00132 -0.00255,0.013229 0,0.014552 0.00115,0.020505 0.00255,0.013229 0.0014,-0.00728 0.0014,-0.019182 0,-0.026458 z m 1.5933795,0 c -0.0014,-0.00728 -0.00255,-0.00132 -0.00255,0.013229 0,0.014552 0.00115,0.020505 0.00255,0.013229 0.0014,-0.00728 0.0014,-0.019182 0,-0.026458 z M 1.3153121,1.7271351 c -0.0014,-0.00728 -0.00255,-0.00132 -0.00255,0.013229 0,0.014552 0.00115,0.020505 0.00255,0.013229 0.0014,-0.00728 0.0014,-0.019182 0,-0.026458 z m 1.6051478,6.88e-5 c -0.00141,-0.00731 -0.00261,-0.00271 -0.00268,0.010221 -6.53e-5,0.012935 0.00109,0.018919 0.00256,0.013298 0.00147,-0.00562 0.00152,-0.016205 1.188e-4,-0.023518 z M 1.3094414,1.662528 c -0.00141,-0.00731 -0.00261,-0.00271 -0.00268,0.010221 -6.52e-5,0.012935 0.00109,0.018919 0.00256,0.013298 0.00147,-0.00562 0.00152,-0.016205 1.188e-4,-0.023518 z m 1.6168981,0 c -0.00141,-0.00731 -0.00261,-0.00271 -0.00268,0.010221 -6.53e-5,0.012935 0.00109,0.018919 0.00256,0.013298 0.00147,-0.00562 0.00152,-0.016205 1.187e-4,-0.023518 z M 1.3035528,1.5919036 c -0.0014,-0.00728 -0.00255,-0.00132 -0.00255,0.013229 0,0.014552 0.00115,0.020505 0.00255,0.013229 0.0014,-0.00728 0.0014,-0.019182 0,-0.026458 z m 1.6286573,0 c -0.0014,-0.00728 -0.00255,-0.00132 -0.00255,0.013229 0,0.014552 0.00115,0.020505 0.00255,0.013229 0.0014,-0.00728 0.0014,-0.019182 0,-0.026458 z M 1.2976732,1.5272277 c -0.0014,-0.00728 -0.00255,-0.00132 -0.00255,0.013229 0,0.014552 0.00115,0.020505 0.00255,0.013229 0.0014,-0.00728 0.0014,-0.019182 0,-0.026458 z m 1.6404166,0 c -0.0014,-0.00728 -0.00255,-0.00132 -0.00255,0.013229 0,0.014552 0.00115,0.020505 0.00255,0.013229 0.0014,-0.00728 0.0014,-0.019182 0,-0.026458 z M 1.2917936,1.4625518 c -0.0014,-0.00728 -0.00255,-0.00132 -0.00255,0.013229 0,0.014552 0.00115,0.020505 0.00255,0.013229 0.0014,-0.00728 0.0014,-0.019182 0,-0.026458 z m 1.6521758,0 c -0.0014,-0.00728 -0.00255,-0.00132 -0.00255,0.013229 0,0.014552 0.00115,0.020505 0.00255,0.013229 0.0014,-0.00728 0.0014,-0.019182 0,-0.026458 z M 2.526776,1.4008163 c -0.2255573,-8.527e-4 -0.594651,-8.527e-4 -0.8202083,0 -0.2255573,8.528e-4 -0.04101,0.00155 0.4101042,0.00155 0.4511145,0 0.6356614,-6.978e-4 0.4101041,-0.00155 z M 1.5303562,1.2833364 c -0.013646,-0.00123 -0.037459,-0.00125 -0.052917,-3.53e-5 -0.015458,0.00122 -0.00429,0.00222 0.024811,0.00224 0.029104,1.76e-5 0.041752,-9.763e-4 0.028106,-0.00221 z m 0.1967902,-2.35e-5 c -0.01536,-0.00121 -0.040496,-0.00121 -0.055856,0 -0.01536,0.00121 -0.00279,0.0022 0.027928,0.0022 0.030721,0 0.043289,-9.909e-4 0.027928,-0.0022 z m 0.244182,2.35e-5 c -0.013646,-0.00123 -0.037459,-0.00125 -0.052917,-3.53e-5 -0.015458,0.00122 -0.00429,0.00222 0.024811,0.00224 0.029104,1.76e-5 0.041752,-9.763e-4 0.028106,-0.00221 z m 0.2410648,0 c -0.013646,-0.00123 -0.037458,-0.00125 -0.052917,-3.53e-5 -0.015458,0.00122 -0.00429,0.00222 0.024811,0.00224 0.029104,1.76e-5 0.041752,-9.763e-4 0.028106,-0.00221 z m 0.2469445,0 c -0.013646,-0.00123 -0.037459,-0.00125 -0.052917,-3.53e-5 -0.015458,0.00122 -0.00429,0.00222 0.024811,0.00224 0.029104,1.76e-5 0.041752,-9.763e-4 0.028106,-0.00221 z m 0.26408,-9.58e-5 c -0.036559,-0.00103 -0.094768,-0.00103 -0.1293518,5.8e-6 -0.034584,0.00104 -0.00467,0.00188 0.066472,0.00188 0.071143,-4.4e-6 0.09944,-8.534e-4 0.06288,-0.00189 z M 1.5581071,1.2229569 v -0.052917 h 0.044097 0.044097 v 0.052917 0.052917 h 0.055856 0.055857 v -0.15875 -0.15874998 h -0.055857 -0.055856 l 1.18e-5,0.0514467 1.17e-5,0.051447 -0.044111,-0.00193 -0.044111,-0.00193 v -0.049522 -0.0495123 h -0.055856 -0.055856 v 0.15874998 0.15875 h 0.055856 0.055856 v -0.052917 z m 0.082315,0.00294 v -0.049977 h -0.038218 -0.038218 l 0.00118,0.048507 0.00118,0.048507 0.002,-0.045567 0.002,-0.045567 h 0.032091 0.032091 v 0.047037 c 0,0.02587 0.00132,0.047037 0.00294,0.047037 0.00162,0 0.00294,-0.02249 0.00294,-0.049977 z M 1.9990793,1.1700402 V 1.0642069 h 0.044097 0.044097 V 1.0112903 0.95837363 H 1.941012 1.7947503 l -9.644e-4,0.0529167 -9.644e-4,0.052917 h 0.047272 0.047272 V 1.1700406 1.275874 h 0.055857 0.055856 z m 0.238125,0.030881 c 0,-0.06941 3.669e-4,-0.071535 0.010159,-0.058796 0.011967,0.015569 0.013444,0.02447 0.00307,0.0185 -0.00427,-0.00246 -0.0053,-0.00199 -0.00245,0.00112 0.00269,0.00294 0.00777,0.00535 0.011269,0.00535 0.0035,0 0.00759,0.00368 0.00909,0.00817 0.00186,0.00559 1.588e-4,0.00668 -0.00539,0.00347 -0.00479,-0.00278 -0.00611,-0.00251 -0.00321,6.514e-4 0.00269,0.00294 0.00777,0.00535 0.011269,0.00535 0.0035,0 0.00759,0.00368 0.00909,0.00817 0.00181,0.00544 2.052e-4,0.00661 -0.00483,0.0035 -0.00499,-0.00308 -0.00611,-0.00233 -0.0033,0.00222 0.00234,0.00379 0.00671,0.00537 0.0097,0.00352 0.003,-0.00185 0.00853,0.0034 0.012297,0.011663 0.00726,0.015927 0.013656,0.018866 0.019719,0.00906 0.00203,-0.00329 0.00597,-0.00457 0.00876,-0.00284 0.00279,0.00172 0.00698,3.53e-5 0.00932,-0.00375 0.00281,-0.00455 0.00169,-0.0053 -0.0033,-0.00222 -0.00503,0.00311 -0.00664,0.00194 -0.00483,-0.0035 0.0015,-0.00449 0.00559,-0.00817 0.00909,-0.00817 0.0035,0 0.00857,-0.00241 0.011269,-0.00535 0.00285,-0.00311 0.00182,-0.00358 -0.00245,-0.00112 -0.00404,0.00233 -0.00735,0.0024 -0.00735,1.67e-4 0,-0.00455 0.023495,-0.043668 0.02623,-0.043668 9.64e-4,0 0.00219,0.025692 0.00272,0.057094 5.309e-4,0.031402 0.00239,0.058518 0.00413,0.060258 0.00174,0.00174 0.00248,-0.026569 0.00164,-0.06291 -8.386e-4,-0.036341 2.675e-4,-0.067866 0.00246,-0.070057 0.00219,-0.00219 0.00398,0.028208 0.00398,0.067552 v 0.071535 h 0.055856 0.055856 v -0.15875 -0.15874998 h -0.057853 c -0.056344,0 -0.058031,3.9217e-4 -0.064701,0.0150306 -0.00377,0.008267 -0.0093,0.0135153 -0.012297,0.0116634 -0.003,-0.001852 -0.00736,-2.6929e-4 -0.0097,0.003517 -0.00281,0.004547 -0.00169,0.0053 0.0033,0.002217 0.00503,-0.003111 0.00664,-0.001943 0.00483,0.003501 -0.0015,0.004492 -0.00559,0.008168 -0.00909,0.008168 -0.0035,0 -0.00857,0.00241 -0.011269,0.00535 -0.00285,0.00311 -0.00182,0.00358 0.00245,0.00112 0.00897,-0.00516 0.00934,-5.97e-4 0.00118,0.014655 -0.0034,0.00635 -0.0085,0.010097 -0.011353,0.00834 -0.00285,-0.00176 -0.00709,-1.023e-4 -0.00943,0.00368 -0.00266,0.0043 -0.00171,0.00531 0.00253,0.00269 0.0098,-0.00606 0.00834,0.00411 -0.00251,0.017424 -0.00785,0.00964 -0.0088,0.00982 -0.00609,0.00119 0.0018,-0.00573 3.945e-4,-0.0096 -0.00319,-0.00882 -0.00352,7.696e-4 -0.00774,-0.00228 -0.00937,-0.00677 -0.00199,-0.00548 -4.815e-4,-0.00663 0.00458,-0.0035 0.00499,0.00308 0.00611,0.00233 0.0033,-0.00222 -0.00234,-0.00379 -0.00658,-0.00544 -0.00943,-0.00368 -0.00285,0.00176 -0.00796,-0.00199 -0.011353,-0.00834 -0.00803,-0.015 -0.00782,-0.019903 6.134e-4,-0.014689 0.00424,0.00262 0.00519,0.00161 0.00253,-0.00269 -0.00234,-0.00379 -0.00658,-0.00544 -0.00943,-0.00368 -0.00285,0.00176 -0.00796,-0.00199 -0.011353,-0.008337 -0.00803,-0.0149996 -0.00782,-0.0199027 6.135e-4,-0.0146888 0.00424,0.00262 0.00519,0.001611 0.00253,-0.002689 -0.00234,-0.003786 -0.00674,-0.00535 -0.00977,-0.003476 -0.00303,0.001875 -0.0071,-7.2808e-4 -0.00904,-0.005784 -0.00287,-0.007479 -0.014366,-0.009192 -0.061695,-0.009192 h -0.05817 V 1.1173442 1.2763148 l 0.054387,-0.00169 0.054387,-0.00169 z m 0.5497453,0.019096 V 1.1641606 H 2.7134546 2.6399596 V 1.0612671 0.95837362 h -0.052917 -0.052917 v 0.15874998 0.15875 h 0.1264121 0.126412 z M 1.4390268,1.0329873 c -10e-4,-0.0426544 -0.00182,-0.00612 -0.00182,0.081196 3.1e-6,0.087313 8.24e-4,0.1222116 0.00182,0.077554 0.001,-0.044658 9.976e-4,-0.1160955 -5.7e-6,-0.15875 z m 0.3292593,0 c -0.001,-0.0426544 -0.00182,-0.00612 -0.00182,0.081196 3.2e-6,0.087313 8.24e-4,0.1222116 0.00182,0.077554 10e-4,-0.044658 9.975e-4,-0.1160955 -5.7e-6,-0.15875 z m 0.1116906,0.088257 c -0.00109,-0.02652 -0.00197,-0.00324 -0.00196,0.051735 5.9e-6,0.054974 8.96e-4,0.076673 0.00198,0.048218 0.00108,-0.028455 0.00107,-0.073434 -1.17e-5,-0.099954 z m 0.1293519,0 c -0.00109,-0.02652 -0.00197,-0.00324 -0.00196,0.051735 5.9e-6,0.054974 8.961e-4,0.076673 0.00198,0.048218 0.00108,-0.028455 0.00107,-0.073434 -1.18e-5,-0.099954 z m 0.1117352,-0.088257 c -10e-4,-0.0426544 -0.00182,-0.00612 -0.00182,0.081196 3.1e-6,0.087313 8.24e-4,0.1222116 0.00182,0.077554 10e-4,-0.044658 9.976e-4,-0.1160955 -5.7e-6,-0.15875 z m 0.3762963,0 c -10e-4,-0.0426544 -0.00182,-0.00612 -0.00182,0.081196 3.1e-6,0.087313 8.239e-4,0.1222116 0.00182,0.077554 0.001,-0.044658 9.975e-4,-0.1160955 -5.7e-6,-0.15875 z M 2.756312,1.1539429 c -0.018468,-0.00116 -0.050218,-0.00117 -0.070556,-2.35e-5 -0.020338,0.00115 -0.00523,0.0021 0.033578,0.00211 0.038806,1.17e-5 0.055446,-9.305e-4 0.036978,-0.00209 z m -1.1170733,-0.1500022 -0.00118,-0.0485069 -0.002,0.0455671 -0.002,0.045567 h -0.031843 -0.031843 l -0.002,-0.045567 -0.002,-0.0455671 -0.00118,0.0485069 -0.00118,0.048507 h 0.038218 0.038218 z M 1.5303562,0.94819753 c -0.013646,-0.001233 -0.037459,-0.001248 -0.052917,-3.528e-5 -0.015458,0.001215 -0.00429,0.002224 0.024811,0.002242 0.029104,1.764e-5 0.041752,-9.7631e-4 0.028106,-0.002209 z m 0.1999074,0 c -0.013646,-0.001233 -0.037459,-0.001248 -0.052917,-3.528e-5 -0.015458,0.001215 -0.00429,0.002224 0.024811,0.002242 0.029104,1.764e-5 0.041752,-9.7631e-4 0.028106,-0.002209 z m 0.2882668,-9.29e-5 c -0.039426,-0.001016 -0.1055716,-0.001019 -0.1469908,-5.88e-6 -0.041419,0.001012 -0.00916,0.001843 0.071683,0.001847 0.080845,3.59e-6 0.1147333,-8.245e-4 0.075308,-0.00184 z m 0.202702,7.585e-5 c -0.015252,-0.001207 -0.04171,-0.001219 -0.058796,-2.94e-5 -0.017086,0.001191 -0.00461,0.002179 0.027731,0.002194 0.032338,1.764e-5 0.046317,-9.595e-4 0.031065,-0.002166 z m 0.2349881,-5.88e-6 c -0.015361,-0.001211 -0.040496,-0.001211 -0.055857,0 -0.015361,0.001211 -0.00279,0.002202 0.027928,0.002202 0.030721,0 0.043289,-9.9095e-4 0.027929,-0.002202 z m 0.1587499,0 c -0.01536,-0.001211 -0.040496,-0.001211 -0.055856,0 -0.015361,0.001211 -0.00279,0.002202 0.027928,0.002202 0.030721,0 0.043289,-9.9095e-4 0.027928,-0.002202 z"
       id="path303" /></g></svg>
