<?xml version="1.0" encoding="UTF-8" standalone="no"?>
<!-- Created with Inkscape (http://www.inkscape.org/) -->

<svg
   width="16"
   height="16"
   viewBox="0 0 4.2333332 4.2333333"
   version="1.1"
   id="svg5"
   xml:space="preserve"
   inkscape:version="1.2.1 (9c6d41e4, 2022-07-14)"
   sodipodi:docname="html5_logo.svg"
   xmlns:inkscape="http://www.inkscape.org/namespaces/inkscape"
   xmlns:sodipodi="http://sodipodi.sourceforge.net/DTD/sodipodi-0.dtd"
   xmlns="http://www.w3.org/2000/svg"
   xmlns:svg="http://www.w3.org/2000/svg"><sodipodi:namedview
     id="namedview7"
     pagecolor="#ffffff"
     bordercolor="#000000"
     borderopacity="0.25"
     inkscape:showpageshadow="2"
     inkscape:pageopacity="0.0"
     inkscape:pagecheckerboard="0"
     inkscape:deskcolor="#d1d1d1"
     inkscape:document-units="mm"
     showgrid="false"
     inkscape:zoom="14.75"
     inkscape:cx="4.0338983"
     inkscape:cy="5.3898305"
     inkscape:window-width="1680"
     inkscape:window-height="997"
     inkscape:window-x="3475"
     inkscape:window-y="92"
     inkscape:window-maximized="0"
     inkscape:current-layer="layer1" /><defs
     id="defs2" /><g
     inkscape:label="Layer 1"
     inkscape:groupmode="layer"
     id="layer1"><path
       id="path1676"
       style="fill:#ffffff;fill-opacity:1;stroke-width:0.00587963"
       d="m 2.1166667,0.21446864 c -0.041421,0 -0.074057,0.0024 -0.072347,0.00517 0.00171,0.00277 -0.01944,0.00426 -0.047026,0.0031 -0.028207,-0.00119 -0.048319,1.706e-4 -0.046509,0.0031 0.0018,0.00291 -0.011619,0.0041 -0.029972,0.00258 -0.019874,-0.00165 -0.031536,-7.762e-4 -0.029456,0.00258 0.00203,0.00328 -0.00633,0.00447 -0.020671,0.0031 -0.013361,-0.00128 -0.024288,2.406e-4 -0.024288,0.0031 0,0.00287 -0.0094,0.00441 -0.020671,0.0031 -0.011268,-0.00132 -0.021361,-9.464e-4 -0.022221,0.00103 -0.00239,0.0055 -0.1042676,0.0240588 -0.1105876,0.0201538 -0.00305,-0.001887 -0.00517,-8.0194e-4 -0.00517,0.002067 0,0.006138 -0.058022,0.0204007 -0.065112,0.0160197 -0.00267,-0.001648 -0.00561,-7.3818e-4 -0.00672,0.002584 -0.00111,0.003322 -0.010706,0.007012 -0.021187,0.007751 -0.010477,7.4e-4 -0.019115,0.003 -0.01912,0.005168 -6e-6,0.002168 -0.00861,0.006018 -0.01912,0.008268 -0.040637,0.008701 -0.1814159,0.0643172 -0.2656168,0.10490315 -0.2072225,0.0998835 -0.37542518,0.22138694 -0.53846848,0.3896403 -0.1472574,0.15196304 -0.2527111,0.30340901 -0.344165,0.49299321 -0.0438664,0.090939 -0.0926693,0.2166705 -0.1111043,0.2862874 -0.005781,0.021829 -0.0130697,0.039791 -0.0160197,0.039791 -0.002947,0 -0.003887,0.00223 -0.002067,0.00517 0.003802,0.00615 -0.008833,0.065576 -0.0139526,0.065629 -0.00187,1.8e-5 -0.003605,0.011173 -0.004134,0.024805 -5.3e-4,0.013632 -0.004222,0.025692 -0.007752,0.026872 -0.003533,0.00118 -0.004861,0.00438 -0.003101,0.00723 0.004359,0.00704 -0.003358,0.064525 -0.008268,0.061495 -0.002146,-0.00133 -0.00285,0.007 -0.00155,0.018087 0.0013,0.011096 -2.406e-4,0.020154 -0.003101,0.020154 -0.002869,0 -0.004331,0.010319 -0.003101,0.023254 0.00124,0.012935 1.862e-4,0.023773 -0.002584,0.023771 -0.002764,-2e-6 -0.004251,0.013401 -0.003101,0.029972 0.00115,0.016571 1.762e-4,0.028582 -0.002584,0.026872 -0.002762,-0.00171 -0.004261,0.01944 -0.003101,0.047026 0.00116,0.027585 -3.306e-4,0.048736 -0.003101,0.047026 -0.00277,-0.00171 -0.005168,0.030925 -0.005168,0.072347 0,0.041421 0.002398,0.074057 0.005168,0.072347 0.002774,-0.00171 0.004261,0.01944 0.003101,0.047026 -0.00116,0.027587 3.406e-4,0.048735 0.003101,0.047025 0.002765,-0.00171 0.003734,0.010301 0.002584,0.026872 -0.00115,0.016571 3.306e-4,0.030491 0.003101,0.030489 0.002761,-2e-6 0.003814,0.010319 0.002584,0.023254 -0.00123,0.012936 2.406e-4,0.023771 0.003101,0.023771 0.002861,0 0.004391,0.00906 0.003101,0.020154 -0.0013,0.011091 -5.997e-4,0.0189 0.00155,0.01757 0.0049,-0.00303 0.0126182,0.054445 0.008268,0.061495 -0.00176,0.00286 -4.294e-4,0.00657 0.003101,0.00775 0.00354,0.00118 0.007223,0.01324 0.007752,0.026872 5.3e-4,0.013632 0.002264,0.024787 0.004134,0.024805 0.005121,5e-5 0.0177526,0.058962 0.0139526,0.065112 -0.00182,0.00294 -8.729e-4,0.00517 0.002067,0.00517 0.002945,0 0.0102397,0.017963 0.0160197,0.039791 0.0309094,0.1167243 0.1175988,0.3158097 0.190686,0.4366658 0.1940079,0.3208088 0.469396,0.5719462 0.80305178,0.7327718 0.084201,0.040586 0.2249758,0.096202 0.2656168,0.1049032 0.01051,0.00225 0.019114,0.00558 0.01912,0.00775 6e-6,0.00217 0.00864,0.00494 0.01912,0.00568 0.01048,7.399e-4 0.020077,0.00391 0.021187,0.00723 0.00111,0.00333 0.00405,0.00475 0.00672,0.0031 0.00709,-0.00438 0.065112,0.00988 0.065112,0.01602 0,0.00286 0.00212,0.00344 0.00517,0.00155 0.00632,-0.00391 0.1081976,0.014654 0.1105876,0.020154 8.6e-4,0.00197 0.010954,0.00287 0.022221,0.00155 0.011266,-0.00131 0.020671,-2.762e-4 0.020671,0.00258 0,0.00286 0.010927,0.00437 0.024288,0.0031 0.014345,-0.00136 0.022701,-1.794e-4 0.020671,0.0031 -0.00208,0.00336 0.00958,0.00475 0.029456,0.0031 0.018352,-0.00152 0.031772,-8.329e-4 0.029972,0.00207 -0.00181,0.00292 0.018302,0.00428 0.046509,0.0031 0.027585,-0.00116 0.048735,3.306e-4 0.047026,0.0031 -0.00171,0.00277 0.030925,0.00517 0.072347,0.00517 0.041421,0 0.074057,-0.0024 0.072347,-0.00517 -0.00171,-0.00277 0.01944,-0.00426 0.047026,-0.0031 0.028207,0.00119 0.048836,-1.705e-4 0.047026,-0.0031 -0.0018,-0.00291 0.011103,-0.00359 0.029456,-0.00207 0.019874,0.00165 0.031536,2.594e-4 0.029456,-0.0031 -0.00203,-0.00329 0.00633,-0.00447 0.020671,-0.0031 0.013361,0.00128 0.024805,-2.406e-4 0.024805,-0.0031 0,-0.00287 0.00889,-0.0039 0.020154,-0.00258 0.011268,0.00132 0.021361,4.297e-4 0.022221,-0.00155 0.00239,-0.0055 0.1042676,-0.024064 0.1105876,-0.020154 0.00305,0.00189 0.00568,0.00132 0.00568,-0.00155 0,-0.00614 0.057506,-0.0204 0.064595,-0.01602 0.00267,0.00164 0.00561,2.194e-4 0.00672,-0.0031 0.00111,-0.00333 0.010707,-0.00649 0.021187,-0.00723 0.010477,-7.4e-4 0.019114,-0.00351 0.01912,-0.00568 6e-6,-0.00216 0.00861,-0.0055 0.01912,-0.00775 0.040637,-0.0087 0.1819323,-0.064317 0.2661336,-0.1049032 0.2072226,-0.099884 0.3749083,-0.2213868 0.5379517,-0.3896403 0.1472573,-0.151963 0.2527112,-0.3034009 0.344165,-0.4929931 0.043866,-0.090939 0.093196,-0.2171953 0.1116211,-0.2868042 0.00578,-0.021828 0.012563,-0.039791 0.015503,-0.039791 0.00295,0 0.00389,-0.00223 0.00207,-0.00517 -0.0038,-0.00615 0.00883,-0.065059 0.013953,-0.065112 0.00187,-1.8e-5 0.00412,-0.011173 0.00465,-0.024805 5.3e-4,-0.013632 0.0037,-0.025692 0.00723,-0.026872 0.00353,-0.00118 0.00486,-0.0049 0.0031,-0.00775 -0.00436,-0.00705 0.00388,-0.064525 0.00879,-0.061495 0.00215,0.00133 0.00284,-0.00648 0.00155,-0.01757 -0.0013,-0.011096 -2.762e-4,-0.020154 0.00258,-0.020154 0.00287,0 0.00433,-0.010836 0.0031,-0.023771 -0.00124,-0.012935 -1.862e-4,-0.023256 0.00258,-0.023254 0.00276,2e-6 0.00425,-0.013918 0.0031,-0.030489 -0.00115,-0.016571 3.406e-4,-0.028582 0.0031,-0.026872 0.00276,0.00171 0.00374,-0.01944 0.00258,-0.047025 -0.00116,-0.027585 3.306e-4,-0.048736 0.0031,-0.047026 0.00277,0.00171 0.00517,-0.030925 0.00517,-0.072347 0,-0.041421 -0.0024,-0.074057 -0.00517,-0.072347 -0.00277,0.00172 -0.00426,-0.01944 -0.0031,-0.047026 0.00116,-0.027586 1.762e-4,-0.048736 -0.00258,-0.047026 -0.00276,0.00171 -0.00425,-0.010301 -0.0031,-0.026872 0.00115,-0.016571 -3.306e-4,-0.029974 -0.0031,-0.029972 -0.00276,2e-6 -0.00381,-0.010836 -0.00258,-0.023771 0.00123,-0.012935 -2.406e-4,-0.023254 -0.0031,-0.023254 -0.00286,0 -0.00387,-0.00906 -0.00258,-0.020154 0.0013,-0.011091 5.997e-4,-0.019417 -0.00155,-0.018087 -0.0049,0.00303 -0.013135,-0.054445 -0.00879,-0.061495 0.00176,-0.00286 4.294e-4,-0.00605 -0.0031,-0.00723 -0.00354,-0.00118 -0.00671,-0.01324 -0.00723,-0.026872 -5.3e-4,-0.013632 -0.00278,-0.024787 -0.00465,-0.024805 -0.00512,-5e-5 -0.017753,-0.059479 -0.013953,-0.065629 0.00182,-0.00294 8.729e-4,-0.00517 -0.00207,-0.00517 -0.00294,0 -0.00972,-0.017963 -0.015503,-0.039791 C 3.9058011,1.4604517 3.8185947,1.2613664 3.7455078,1.1405103 3.5514999,0.81970147 3.2766286,0.56908097 2.9429728,0.40825529 2.8587715,0.36766935 2.7174761,0.31205313 2.6768392,0.30335214 c -0.01051,-0.00225 -0.019114,-0.0061 -0.01912,-0.008268 -6e-6,-0.002169 -0.00864,-0.004428 -0.01912,-0.005168 -0.01048,-7.4e-4 -0.020077,-0.004429 -0.021187,-0.007751 -0.00111,-0.003322 -0.00405,-0.004231 -0.00672,-0.002584 -0.00709,0.004381 -0.064595,-0.009882 -0.064595,-0.0160197 0,-0.00287 -0.00263,-0.003955 -0.00568,-0.002067 -0.00632,0.003905 -0.1081976,-0.0146538 -0.1105876,-0.0201538 -8.6e-4,-0.00197 -0.010954,-0.00234 -0.022221,-0.00103 -0.011266,0.00131 -0.020671,-2.305e-4 -0.020671,-0.0031 0,-0.00286 -0.010927,-0.00437 -0.024288,-0.0031 -0.014345,0.00137 -0.022701,1.794e-4 -0.020671,-0.0031 0.00208,-0.00336 -0.00958,-0.00423 -0.029456,-0.00258 -0.018352,0.00152 -0.031255,3.261e-4 -0.029456,-0.00258 0.00181,-0.00292 -0.018819,-0.00428 -0.047026,-0.0031 -0.027585,0.00116 -0.048735,-3.306e-4 -0.047026,-0.0031 0.00172,-0.00277 -0.030925,-0.00517 -0.072347,-0.00517 z" /><path
       id="path303"
       style="fill:#e44d26;fill-opacity:1;stroke-width:0.00587963"
       d="m 2.1166667,0.21446501 c -0.041421,0 -0.074057,0.002398 -0.072347,0.005168 0.00171,0.002774 -0.01944,0.004261 -0.047025,0.003101 -0.028207,-0.00119 -0.048836,1.7059e-4 -0.047026,0.003101 0.0018,0.002906 -0.011103,0.004104 -0.029456,0.002584 -0.019874,-0.00165 -0.031536,-7.7617e-4 -0.029456,0.002584 0.00203,0.003278 -0.00633,0.004471 -0.020671,0.003101 -0.013361,-0.00128 -0.024288,2.4059e-4 -0.024288,0.003101 0,0.002868 -0.0094,0.003894 -0.020671,0.002584 -0.011268,-0.00132 -0.021361,-4.2971e-4 -0.022221,0.00155 -0.00239,0.005502 -0.1042675,0.0240588 -0.1105875,0.0201538 -0.00305,-0.001887 -0.00568,-0.001319 -0.00568,0.00155 0,0.006138 -0.057506,0.0204007 -0.064596,0.0160197 -0.00267,-0.001648 -0.00561,-2.2141e-4 -0.00672,0.003101 -0.00111,0.003322 -0.010706,0.007012 -0.021187,0.007751 -0.010477,7.3999e-4 -0.019114,0.003 -0.01912,0.005168 -6e-6,0.002168 -0.00861,0.005501 -0.01912,0.007751 -0.040637,0.008701 -0.1819327,0.064834 -0.2661336,0.10541993 -0.2072225,0.0998835 -0.37490853,0.22138693 -0.53795173,0.38964029 -0.1472574,0.15196304 -0.2527111,0.30289217 -0.344165,0.49247637 -0.0438664,0.090939 -0.0931861,0.2171873 -0.1116211,0.2868042 -0.005781,0.021829 -0.012553,0.039791 -0.015503,0.039791 -0.002947,0 -0.003887,0.00223 -0.002067,0.00517 0.003802,0.00615 -0.008833,0.065059 -0.0139526,0.065112 -0.00187,1.8e-5 -0.004122,0.011173 -0.004651,0.024805 -5.3e-4,0.013632 -0.003705,0.026209 -0.007235,0.027389 -0.003534,0.00118 -0.004861,0.00438 -0.003101,0.00723 0.004359,0.00704 -0.003875,0.064525 -0.008785,0.061495 -0.002146,-0.00133 -0.00285,0.00699 -0.00155,0.018087 0.0013,0.011096 2.762e-4,0.020154 -0.002584,0.020154 -0.002869,0 -0.004331,0.010319 -0.003101,0.023254 0.00124,0.012935 1.862e-4,0.023773 -0.002584,0.023771 -0.002764,-2e-6 -0.004251,0.013401 -0.003101,0.029972 0.00115,0.016571 -3.406e-4,0.028582 -0.003101,0.026872 -0.002762,-0.00171 -0.003744,0.01944 -0.002584,0.047025 0.00116,0.027585 -3.306e-4,0.048736 -0.003101,0.047026 -0.00277,-0.00171 -0.005168,0.030925 -0.005168,0.072347 0,0.041421 0.002398,0.074057 0.005168,0.072347 0.002774,-0.00171 0.004261,0.01944 0.003101,0.047026 -0.00116,0.027587 -1.762e-4,0.048736 0.002584,0.047026 0.002765,-0.00171 0.004251,0.010301 0.003101,0.026872 -0.00115,0.016571 3.306e-4,0.029974 0.003101,0.029972 0.002761,-2e-6 0.003814,0.010836 0.002584,0.023771 -0.00123,0.012936 2.406e-4,0.023254 0.003101,0.023254 0.002861,0 0.003874,0.00906 0.002584,0.020154 -0.0013,0.011091 -5.997e-4,0.019417 0.00155,0.018087 0.0049,-0.00303 0.013135,0.054445 0.008785,0.061495 -0.00176,0.00286 -4.294e-4,0.00605 0.003101,0.00723 0.00354,0.00118 0.006706,0.01324 0.007235,0.026872 5.3e-4,0.013632 0.002781,0.024787 0.004651,0.024805 0.005121,5e-5 0.0177526,0.059479 0.0139526,0.065629 -0.00182,0.00294 -8.73e-4,0.00517 0.002067,0.00517 0.002945,0 0.009723,0.017963 0.015503,0.039791 0.0309094,0.1167244 0.1181155,0.3158098 0.1912028,0.4366659 0.1940079,0.3208088 0.4688792,0.5714294 0.80253503,0.732255 0.084201,0.040586 0.2254926,0.09672 0.2661336,0.1054199 0.01051,0.00225 0.019114,0.00558 0.01912,0.00775 6e-6,0.00217 0.00864,0.00443 0.01912,0.00517 0.01048,7.4e-4 0.020077,0.00443 0.021187,0.00775 0.00111,0.00333 0.00405,0.00475 0.00672,0.0031 0.00709,-0.00438 0.064596,0.00988 0.064596,0.01602 0,0.00286 0.00263,0.00344 0.00568,0.00155 0.00632,-0.0039 0.1081975,0.014654 0.1105875,0.020154 8.6e-4,0.00197 0.010954,0.00287 0.022221,0.00155 0.011266,-0.00131 0.020671,-2.762e-4 0.020671,0.00258 0,0.00286 0.010927,0.00437 0.024288,0.0031 0.014345,-0.00136 0.022701,-1.794e-4 0.020671,0.0031 -0.00208,0.00336 0.00958,0.00423 0.029456,0.00258 0.018352,-0.00152 0.031256,-3.162e-4 0.029456,0.00258 -0.00181,0.00292 0.018819,0.00428 0.047026,0.0031 0.027585,-0.00116 0.048736,3.306e-4 0.047025,0.0031 -0.00171,0.00277 0.030925,0.00517 0.072347,0.00517 0.041421,0 0.074057,-0.0024 0.072347,-0.00517 -0.00171,-0.00277 0.01944,-0.00426 0.047026,-0.0031 0.028207,0.00119 0.048836,-1.706e-4 0.047026,-0.0031 -0.0018,-0.00291 0.011103,-0.0041 0.029456,-0.00258 0.019874,0.00165 0.031536,7.762e-4 0.029456,-0.00258 -0.00203,-0.00329 0.00633,-0.00447 0.020671,-0.0031 0.013361,0.00128 0.024288,-2.406e-4 0.024288,-0.0031 0,-0.00287 0.0094,-0.0039 0.020671,-0.00258 0.011268,0.00132 0.021361,4.297e-4 0.022221,-0.00155 0.00239,-0.0055 0.1042676,-0.024064 0.1105876,-0.020154 0.00305,0.00189 0.00568,0.00132 0.00568,-0.00155 0,-0.00614 0.057505,-0.0204 0.064596,-0.01602 0.00267,0.00164 0.00561,2.194e-4 0.00672,-0.0031 0.00111,-0.00333 0.010707,-0.00701 0.021187,-0.00775 0.010477,-7.4e-4 0.019114,-0.003 0.01912,-0.00517 6e-6,-0.00216 0.00861,-0.0055 0.01912,-0.00775 0.040637,-0.0087 0.1819327,-0.064833 0.2661336,-0.1054188 C 3.1501955,3.7252138 3.3178812,3.6037105 3.4809245,3.435457 3.6281819,3.283494 3.7336357,3.1325728 3.8250896,2.9429806 c 0.043866,-0.090939 0.092679,-0.2171952 0.1111043,-0.2868042 0.00578,-0.021828 0.01308,-0.039791 0.01602,-0.039791 0.00295,0 0.00389,-0.00223 0.00207,-0.00517 -0.0038,-0.00615 0.00883,-0.065059 0.013953,-0.065112 0.00187,-1.8e-5 0.0036,-0.011689 0.00413,-0.025321 5.3e-4,-0.013632 0.00422,-0.025692 0.00775,-0.026872 0.00353,-0.00118 0.00486,-0.00438 0.0031,-0.00723 -0.00436,-0.00705 0.00336,-0.064525 0.00827,-0.061495 0.00215,0.00133 0.00284,-0.007 0.00155,-0.018087 -0.0013,-0.011096 2.406e-4,-0.020154 0.0031,-0.020154 0.00287,0 0.00433,-0.010319 0.0031,-0.023254 -0.00124,-0.012935 -1.862e-4,-0.023773 0.00258,-0.023771 0.00276,2e-6 0.00425,-0.013401 0.0031,-0.029972 -0.00115,-0.016571 3.405e-4,-0.028582 0.0031,-0.026872 0.00209,-0.00328 0.0036,-0.022888 0.00258,-0.047026 -0.00116,-0.027585 3.306e-4,-0.048735 0.0031,-0.047026 0.00277,0.00172 0.00517,-0.030925 0.00517,-0.072347 0,-0.041421 -0.0024,-0.074057 -0.00517,-0.072347 -0.00277,0.00171 -0.00426,-0.01944 -0.0031,-0.047026 0.00101,-0.024138 1.87e-5,-0.043225 -0.00207,-0.046509 l -5.168e-4,-5.167e-4 c -0.00276,0.00171 -0.00425,-0.010301 -0.0031,-0.026872 0.00115,-0.016571 -3.306e-4,-0.029974 -0.0031,-0.029972 -0.00276,2e-6 -0.00381,-0.010836 -0.00258,-0.023771 0.00123,-0.012935 -2.406e-4,-0.023254 -0.0031,-0.023254 -0.00286,0 -0.00439,-0.00906 -0.0031,-0.020154 0.0013,-0.011091 5.997e-4,-0.019417 -0.00155,-0.018087 -0.0049,0.00303 -0.012618,-0.054445 -0.00827,-0.061495 0.00176,-0.00286 4.294e-4,-0.00605 -0.0031,-0.00723 -0.00354,-0.00118 -0.00722,-0.01324 -0.00775,-0.026872 -5.3e-4,-0.013632 -0.00226,-0.025304 -0.00413,-0.025322 -0.00512,-5e-5 -0.017753,-0.058962 -0.013953,-0.065112 0.00182,-0.00294 8.729e-4,-0.00517 -0.00207,-0.00517 -0.00294,0 -0.01024,-0.017963 -0.01602,-0.039791 C 3.9052844,1.460448 3.8185948,1.2613627 3.7455079,1.1405067 3.5515,0.8196978 3.2761119,0.56907731 2.9424561,0.40825164 2.8582548,0.3676657 2.7174762,0.3115327 2.6768392,0.30283171 c -0.01051,-0.00225 -0.019114,-0.005583 -0.01912,-0.007751 -6e-6,-0.002169 -0.00864,-0.004428 -0.01912,-0.005168 -0.01048,-7.4e-4 -0.020077,-0.004429 -0.021187,-0.007751 -0.00111,-0.003322 -0.00405,-0.004748 -0.00672,-0.003101 -0.00709,0.004381 -0.064596,-0.009882 -0.064596,-0.0160197 0,-0.00287 -0.00263,-0.003438 -0.00568,-0.00155 -0.00632,0.003905 -0.1081976,-0.0146538 -0.1105876,-0.0201538 -8.6e-4,-0.001974 -0.010954,-0.00286 -0.022221,-0.00155 -0.011266,0.00131 -0.020671,2.8617e-4 -0.020671,-0.002584 0,-0.002863 -0.010927,-0.004371 -0.024288,-0.003101 -0.014345,0.00137 -0.022701,1.7941e-4 -0.020671,-0.003101 0.00208,-0.003357 -0.00958,-0.004234 -0.029456,-0.002584 -0.018352,0.00152 -0.031772,3.2618e-4 -0.029972,-0.002584 0.00181,-0.002925 -0.018302,-0.004281 -0.046509,-0.003101 -0.027585,0.00116 -0.048736,-3.3059e-4 -0.047026,-0.003101 0.00172,-0.00277 -0.030925,-0.005168 -0.072347,-0.005168 z m -0.550354,0.74104004 0.00207,0.0454754 0.00207,0.045475 h 0.031523 0.032039 l 0.00207,-0.045475 0.00207,-0.0454754 0.00103,0.048576 0.00103,0.048576 h -0.03824 -0.038241 l 0.00155,-0.048576 z m -0.1198893,0.003101 h 0.05581 0.055811 v 0.0490926 0.049609 l 0.043925,0.00207 0.044442,0.00207 v -0.051676 -0.0511597 h 0.05581 0.055811 V 1.1172523 1.2758989 h -0.055811 -0.05581 v -0.05271 -0.053227 h -0.044442 -0.043925 v 0.053227 0.05271 h -0.055811 -0.05581 V 1.1172523 Z m 0.3482991,0 h 0.1462444 0.1462443 v 0.05271 0.05271 h -0.043925 -0.044442 v 0.1059367 0.1059367 h -0.055811 -0.05581 V 1.1699622 1.0640255 h -0.047026 -0.047542 l 0.00103,-0.05271 z m 0.3338298,0 h 0.057878 c 0.047329,0 0.059142,0.001306 0.062012,0.008785 0.00194,0.005056 0.00576,0.008076 0.00879,0.006201 0.00303,-0.001874 0.00748,-6.8541e-4 0.00982,0.003101 0.00266,0.0043 0.00166,0.005204 -0.00258,0.002584 -0.00843,-0.005214 -0.00855,-1.34e-5 -5.167e-4,0.0149862 0.00339,0.006347 0.00852,0.0100282 0.011369,0.008268 0.00285,-0.00176 0.00696,-1.727e-4 0.0093,0.00362 0.00266,0.0043 0.00166,0.0052 -0.00258,0.00258 -0.00843,-0.00521 -0.00855,-1.39e-5 -5.168e-4,0.014986 0.00339,0.00635 0.00852,0.010028 0.011369,0.00827 0.00285,-0.00176 0.00696,-1.727e-4 0.0093,0.00362 0.00281,0.00455 0.00189,0.00515 -0.0031,0.00207 -0.00506,-0.00313 -0.00664,-0.00186 -0.00465,0.00362 0.00163,0.00449 0.00578,0.00749 0.0093,0.00672 0.00358,-7.8e-4 0.0049,0.00306 0.0031,0.00879 -0.00136,0.00432 -0.0014,0.00637 -5.168e-4,0.0062 0.00117,-9.886e-4 0.00377,-0.00362 0.00672,-0.00723 0.01085,-0.013314 0.012384,-0.02363 0.00258,-0.01757 -0.00424,0.00262 -0.00524,0.00172 -0.00258,-0.00258 0.00234,-0.00378 0.00645,-0.00538 0.0093,-0.00362 0.00285,0.00176 0.00797,-0.00192 0.011369,-0.00827 0.00816,-0.015252 0.00794,-0.020146 -0.00103,-0.014986 -0.00213,0.00123 -0.00318,0.00175 -0.00362,0.00155 2.375e-4,-4.43e-4 3.21e-4,-0.00181 0.00103,-0.00258 0.0027,-0.00294 0.00787,-0.00517 0.011369,-0.00517 0.0035,0 0.0078,-0.003776 0.0093,-0.008268 0.00181,-0.005444 -1.377e-4,-0.006728 -0.00517,-0.003617 -0.00499,0.003083 -0.00591,0.00248 -0.0031,-0.002067 0.00234,-0.003786 0.00682,-0.005469 0.00982,-0.003617 0.003,0.001852 0.00863,-0.003102 0.012402,-0.0113688 0.00667,-0.0146384 0.00825,-0.0149862 0.064596,-0.0149862 H 2.487194 V 1.1172523 1.2758989 H 2.431383 2.375572 v -0.071314 c 0,-0.034426 -0.00181,-0.06229 -0.00362,-0.067179 l -5.168e-4,-5.168e-4 c -0.00219,0.00219 -0.00342,0.033422 -0.00258,0.069763 7.35e-4,0.031798 2.623e-4,0.057779 -0.00103,0.062528 l -5.168e-4,5.167e-4 c -0.00174,-0.00174 -0.0036,-0.028543 -0.00413,-0.059945 -5.3e-4,-0.031402 -0.00162,-0.057361 -0.00258,-0.057361 -0.00273,0 -0.026355,0.039375 -0.026355,0.043925 0,0.00223 0.00319,0.00181 0.00723,-5.168e-4 0.00213,-0.00123 0.00367,-0.00173 0.00413,-0.00155 -2.249e-4,4.347e-4 -8.378e-4,0.00181 -0.00155,0.00258 -0.0027,0.00294 -0.00787,0.00568 -0.011369,0.00568 -0.0035,0 -0.0078,0.00378 -0.0093,0.00827 -0.00181,0.00544 1.376e-4,0.00621 0.00517,0.0031 0.00499,-0.00308 0.00591,-0.00197 0.0031,0.00258 -0.00234,0.00379 -0.00651,0.00534 -0.0093,0.00362 -0.00279,-0.00173 -0.00676,-7.062e-4 -0.00879,0.00258 -0.00606,0.00981 -0.012377,0.00714 -0.019637,-0.00879 -0.00377,-0.00826 -0.0094,-0.013736 -0.012402,-0.011886 -0.00299,0.00185 -0.00748,1.727e-4 -0.00982,-0.00362 -0.00281,-0.00455 -0.00137,-0.00515 0.00362,-0.00207 0.00504,0.00311 0.00646,0.00182 0.00465,-0.00362 -0.0015,-0.00449 -0.00528,-0.00775 -0.00878,-0.00775 -0.0035,0 -0.00868,-0.00274 -0.011369,-0.00568 -0.0029,-0.00316 -0.00169,-0.0033 0.0031,-5.168e-4 0.00555,0.00321 0.00703,0.00197 0.00517,-0.00362 -0.0015,-0.00449 -0.00528,-0.00827 -0.00878,-0.00827 -0.0035,0 -0.00868,-0.00223 -0.011369,-0.00517 -7.125e-4,-7.775e-4 -0.00133,-0.00163 -0.00155,-0.00207 4.684e-4,-1.771e-4 0.002,-1.964e-4 0.00413,0.00103 0.010374,0.00597 0.00887,-0.00303 -0.0031,-0.018603 -0.00979,-0.012739 -0.010335,-0.010499 -0.010335,0.058911 v 0.07183 l -0.05426,0.00207 -0.05426,0.00155 V 1.1172523 Z m 0.40566,0 h 0.05271 0.053227 V 1.0614417 1.1642778 h 0.07338 0.073381 v 0.055811 0.05581 H 2.6603028 2.5342123 V 1.1172523 Z M 1.4381552,1.0154497 c 2.175e-4,0.00121 7.835e-4,0.00691 0.00103,0.01757 10e-4,0.042654 10e-4,0.1139889 0,0.1586466 -2.197e-4,0.00985 -8.378e-4,0.015687 -0.00103,0.018087 -4.84e-4,-0.007 -0.00103,-0.041031 -0.00103,-0.095601 0,-0.06003 4.664e-4,-0.095908 0.00103,-0.098703 z m 0.3291788,0 c 2.175e-4,0.00121 7.836e-4,0.00691 0.00103,0.01757 10e-4,0.042654 10e-4,0.1139889 0,0.1586466 -2.197e-4,0.00985 -8.378e-4,0.015687 -0.00103,0.018087 -4.839e-4,-0.007 -0.00103,-0.041031 -0.00103,-0.095601 0,-0.06003 4.664e-4,-0.095908 0.00103,-0.098703 z m 0.3529501,0 c 2.175e-4,0.00121 2.667e-4,0.00691 5.167e-4,0.01757 10e-4,0.042654 10e-4,0.1139889 0,0.1586466 -2.49e-4,0.011164 -2.997e-4,0.017476 -5.167e-4,0.01912 -5.414e-4,-0.00339 -0.00103,-0.038245 -0.00103,-0.096635 0,-0.06003 4.664e-4,-0.095908 0.00103,-0.098702 z m 0.3762044,0 c 2.175e-4,0.00121 7.835e-4,0.00691 0.00103,0.01757 10e-4,0.042654 10e-4,0.1139889 0,0.1586466 -2.197e-4,0.00985 -8.377e-4,0.015687 -0.00103,0.018087 -4.839e-4,-0.007 -0.00103,-0.041031 -0.00103,-0.095601 0,-0.06003 4.663e-4,-0.095908 0.00103,-0.098703 z M 1.2934612,1.4112912 h 0.8237223 0.8237223 l -0.00362,0.021704 c -0.00182,0.012127 -0.034857,0.3848277 -0.073897,0.8278564 -0.03904,0.4430288 -0.072041,0.8105344 -0.073381,0.8170044 -0.00212,0.010199 -0.047377,0.024309 -0.3395141,0.1049032 -0.1852537,0.051108 -0.3378942,0.092368 -0.3395142,0.091984 -0.00162,-3.84e-4 -0.152789,-0.042153 -0.33538,-0.093018 l -0.3317599,-0.0925 -0.07183,-0.8051188 C 1.3326126,1.8412192 1.2989785,1.4634748 1.2970785,1.4448808 Z m 0.3064412,0.3410644 0.00258,0.01912 c 0.00264,0.018687 0.055294,0.5890502 0.055294,0.5989298 0,0.00276 0.1604068,0.00517 0.3560506,0.00517 0.3349133,0 0.3556727,6.453e-4 0.3555339,0.010335 -3.48e-4,0.024351 -0.022208,0.2547051 -0.024288,0.2563151 -0.00653,0.00504 -0.2179434,0.062161 -0.2294434,0.062012 -0.00741,-9.6e-5 -0.062648,-0.014299 -0.1224732,-0.031523 l -0.1085205,-0.031006 -0.00827,-0.080099 -0.00827,-0.080615 H 1.767334 1.666565 l 0.015503,0.1591634 c 0.00852,0.087382 0.01629,0.1600105 0.01757,0.1612305 0.00128,0.00122 0.095074,0.027192 0.208256,0.057878 0.1131823,0.030687 0.2086434,0.05495 0.2118734,0.05426 0.00323,-6.9e-4 0.097339,-0.025997 0.2092896,-0.056327 l 0.2036051,-0.054777 0.00723,-0.088883 c 0.004,-0.048657 0.015562,-0.1909506 0.025838,-0.3162598 L 2.5843384,2.1693844 H 2.2133017 1.8427816 l -0.00723,-0.07183 c -0.00394,-0.039614 -0.00884,-0.085859 -0.010852,-0.1028361 l -0.00362,-0.031006 h 0.394808 0.3948079 l 5.168e-4,-0.022221 c 2.4e-4,-0.012126 0.00338,-0.059338 0.00723,-0.10542 l 0.00672,-0.083716 H 2.1125326 Z" /><path
       style="fill:#ffffff;fill-opacity:1;stroke-width:0.00587963"
       d="m -5.3494364,0.94817377 c -0.01536,-0.001211 -0.040496,-0.001211 -0.055856,0 -0.015361,0.001211 -0.00279,0.002202 0.027928,0.002202 0.030721,0 0.043289,-9.9095e-4 0.027928,-0.002202 z"
       id="path754" /><path
       style="fill:#ffffff;fill-opacity:1;stroke-width:0.00587963"
       d="m -5.5081863,0.94817377 c -0.015361,-0.001211 -0.040496,-0.001211 -0.055857,0 -0.015361,0.001211 -0.00279,0.002202 0.027928,0.002202 0.030721,0 0.043289,-9.9095e-4 0.027929,-0.002202 z"
       id="path752" /><path
       style="fill:#ffffff;fill-opacity:1;stroke-width:0.00587963"
       d="m -5.7431744,0.94817965 c -0.015252,-0.001207 -0.04171,-0.001219 -0.058796,-2.94e-5 -0.017086,0.001191 -0.00461,0.002179 0.027731,0.002194 0.032338,1.764e-5 0.046317,-9.595e-4 0.031065,-0.002166 z"
       id="path750" /><path
       style="fill:#ffffff;fill-opacity:1;stroke-width:0.00587963"
       d="m -5.9458764,0.9481038 c -0.039426,-0.001016 -0.1055716,-0.001019 -0.1469908,-5.88e-6 -0.041419,0.001012 -0.00916,0.001843 0.071683,0.001847 0.080845,3.59e-6 0.1147333,-8.245e-4 0.075308,-0.00184 z"
       id="path748" /><path
       style="fill:#ffffff;fill-opacity:1;stroke-width:0.00587963"
       d="m -6.2341432,0.9481967 c -0.013646,-0.001233 -0.037459,-0.001248 -0.052917,-3.528e-5 -0.015458,0.001215 -0.00429,0.002224 0.024811,0.002242 0.029104,1.764e-5 0.041752,-9.7631e-4 0.028106,-0.002209 z"
       id="path746" /><path
       style="fill:#ffffff;fill-opacity:1;stroke-width:0.00587963"
       d="m -6.4340506,0.9481967 c -0.013646,-0.001233 -0.037459,-0.001248 -0.052917,-3.528e-5 -0.015458,0.001215 -0.00429,0.002224 0.024811,0.002242 0.029104,1.764e-5 0.041752,-9.7631e-4 0.028106,-0.002209 z"
       id="path744" /></g></svg>
