<?xml version="1.0" encoding="UTF-8" standalone="no"?>
<!-- Created with Inkscape (http://www.inkscape.org/) -->

<svg
   width="16"
   height="16"
   viewBox="0 0 4.2333332 4.2333333"
   version="1.1"
   id="svg5"
   xml:space="preserve"
   xmlns="http://www.w3.org/2000/svg"
   xmlns:svg="http://www.w3.org/2000/svg"><defs
     id="defs2" /><g
     id="g815"
     transform="translate(7.6595131,0.16138922)"><g
       id="g2691"
       transform="translate(8.1259393,-1.9672735e-4)"><path
         style="fill:#b9b9b9;fill-opacity:1;stroke-width:0.00206706"
         d="m -15.117055,4.07068 c 0.0015,-5.971e-4 0.0033,-5.238e-4 0.004,1.633e-4 6.87e-4,6.869e-4 -5.34e-4,0.00118 -0.0027,0.00109 -0.0024,-9.93e-5 -0.0029,-5.892e-4 -0.0013,-0.00125 z m 2.89388,0 c 0.0015,-5.971e-4 0.0033,-5.238e-4 0.004,1.633e-4 6.87e-4,6.869e-4 -5.34e-4,0.00118 -0.0027,0.00109 -0.0024,-9.93e-5 -0.0029,-5.892e-4 -0.0012,-0.00125 z m -3.37428,-0.2058104 -0.0039,-0.00465 0.0046,0.00394 c 0.0044,0.0037 0.0056,0.00536 0.0039,0.00536 -3.92e-4,0 -0.0025,-0.00209 -0.0046,-0.00465 z m 3.852158,0.00387 c 0,-4.291e-4 0.0016,-0.00206 0.0036,-0.00362 0.0033,-0.00257 0.0033,-0.0025 7.81e-4,7.805e-4 -0.0027,0.00344 -0.0044,0.00454 -0.0044,0.00284 z m -3.890465,-0.042111 c -0.0026,-0.00328 -0.0025,-0.00335 7.8e-4,-7.805e-4 0.0034,0.0027 0.0045,0.0044 0.0028,0.0044 -4.29e-4,0 -0.0021,-0.00163 -0.0036,-0.00362 z m 3.929739,0.00284 c 0,-4.291e-4 0.0016,-0.00206 0.0036,-0.00362 0.0033,-0.00257 0.0034,-0.0025 7.81e-4,7.805e-4 -0.0027,0.00344 -0.0044,0.00454 -0.0044,0.00284 z m -4.133951,-0.4820523 c 9.9e-5,-0.00241 5.89e-4,-0.0029 0.0013,-0.00125 5.97e-4,0.00149 5.23e-4,0.00327 -1.63e-4,0.00396 -6.87e-4,6.869e-4 -0.0012,-5.341e-4 -0.0011,-0.00271 z m 4.34082,0 c 9.9e-5,-0.00241 5.89e-4,-0.0029 0.0013,-0.00125 5.97e-4,0.00149 5.24e-4,0.00327 -1.63e-4,0.00396 -6.87e-4,6.869e-4 -0.0012,-5.341e-4 -0.0011,-0.00271 z m -4.34082,-2.78432602 c 9.9e-5,-0.002408 5.89e-4,-0.002898 0.0013,-0.001249 5.97e-4,0.001492 5.23e-4,0.003275 -1.63e-4,0.003962 -6.87e-4,6.8686e-4 -0.0012,-5.3401e-4 -0.0011,-0.002713 z m 4.34082,0 c 9.9e-5,-0.002408 5.89e-4,-0.002898 0.0013,-0.001249 5.97e-4,0.001492 5.24e-4,0.003275 -1.63e-4,0.003962 -6.87e-4,6.8686e-4 -0.0012,-5.3401e-4 -0.0011,-0.002713 z m -0.203965,-0.47886825 -0.0039,-0.0046509 0.0046,0.0039377 c 0.0044,0.0037005 0.0056,0.005364 0.0039,0.005364 -3.92e-4,0 -0.0025,-0.0020929 -0.0046,-0.0046508 z m -3.934447,0.0018034 c 0,-4.2922e-4 0.0016,-0.002057 0.0036,-0.0036173 0.0033,-0.0025712 0.0033,-0.002498 7.81e-4,7.8044e-4 -0.0027,0.0034432 -0.0044,0.0045382 -0.0044,0.0028369 z m 0.03927,-0.03927408 c 0,-4.2923e-4 0.0016,-0.002057 0.0036,-0.0036173 0.0033,-0.0025712 0.0033,-0.002498 7.81e-4,7.8042e-4 -0.0027,0.0034432 -0.0044,0.0045382 -0.0044,0.0028369 z m 3.854798,-0.0028369 c -0.0026,-0.0032785 -0.0025,-0.0033516 7.81e-4,-7.8042e-4 0.0034,0.0027003 0.0045,0.0043978 0.0028,0.0043978 -4.29e-4,0 -0.0021,-0.0016278 -0.0036,-0.0036174 z m -3.373561,-0.2045004 c 0.0015,-5.9711e-4 0.0033,-5.2368e-4 0.004,1.6319e-4 6.87e-4,6.8687e-4 -5.34e-4,0.001175 -0.0027,0.001086 -0.0024,-9.919e-5 -0.0029,-5.8899e-4 -0.0013,-0.001249 z m 2.89388,0 c 0.0015,-5.9711e-4 0.0033,-5.2368e-4 0.004,1.6319e-4 6.87e-4,6.8687e-4 -5.34e-4,0.001175 -0.0027,0.001086 -0.0024,-9.919e-5 -0.0029,-5.8899e-4 -0.0012,-0.001249 z"
         id="path2194" /><path
         style="fill:#ff3366;fill-opacity:1;stroke-width:0.00206706"
         d="m -12.229376,4.07068 c 0.0015,-5.971e-4 0.0033,-5.238e-4 0.004,1.633e-4 6.87e-4,6.869e-4 -5.34e-4,0.00118 -0.0027,0.00109 -0.0024,-9.93e-5 -0.0029,-5.892e-4 -0.0013,-0.00125 z m 0.730222,-0.7294649 c 9.9e-5,-0.00241 5.89e-4,-0.0029 0.0013,-0.00125 5.97e-4,0.00149 5.24e-4,0.00328 -1.63e-4,0.00396 -6.87e-4,6.868e-4 -0.0012,-5.342e-4 -0.0011,-0.00271 z m -1.792302,-0.4837482 c -0.08515,-0.00734 -0.152903,-0.020742 -0.223279,-0.044153 -0.143453,-0.047722 -0.245365,-0.1192684 -0.328975,-0.2309561 -0.06606,-0.088251 -0.106593,-0.1913305 -0.123616,-0.3144008 -0.0074,-0.053354 -0.0092,-0.083246 -0.0091,-0.1502676 8.6e-5,-0.056144 7.84e-4,-0.071146 0.0046,-0.099219 0.01948,-0.1426941 0.07079,-0.263683 0.158204,-0.3730394 0.02322,-0.029044 0.07568,-0.082631 0.102892,-0.1051024 0.148239,-0.1223974 0.333114,-0.184227 0.5536,-0.1851465 0.03126,-1.304e-4 0.07055,5.945e-4 0.0873,0.00161 l 0.03045,0.00185 5.52e-4,-0.290662 5.52e-4,-0.29066187 0.0047,-0.004708 0.0047,-0.004708 0.190878,-5.4824e-4 c 0.185815,-5.3372e-4 0.191009,-4.4262e-4 0.195797,0.003435 l 0.0049,0.003983 0.0012,0.90917111 c 0.0011,0.8246227 0.0015,0.9127273 0.0046,0.9474117 0.0019,0.021032 0.004,0.051728 0.0047,0.068213 0.0018,0.041177 0.0027,0.039935 -0.0426,0.058094 -0.124928,0.050064 -0.262101,0.081709 -0.416473,0.096079 -0.03302,0.00307 -0.181955,0.00577 -0.205672,0.00373 z m 0.200505,-0.3499741 c 0.01649,-0.00103 0.03486,-0.00339 0.04082,-0.00523 l 0.01085,-0.00336 V 2.1002638 1.701626 l -0.01461,-0.0033 c -0.02704,-0.00611 -0.05233,-0.00835 -0.09494,-0.00842 -0.04488,-7.13e-5 -0.06456,0.00193 -0.102965,0.010468 -0.07892,0.017547 -0.145492,0.053369 -0.202344,0.1088871 -0.06194,0.060487 -0.09316,0.1215976 -0.106063,0.2076397 -0.0056,0.037163 -0.0076,0.1041859 -0.0042,0.1390253 0.01288,0.1323636 0.06614,0.2344785 0.152712,0.2928419 0.04762,0.0321 0.118101,0.054821 0.190529,0.06142 0.01327,0.00121 0.09482,-4.808e-4 0.130224,-0.0027 z m -1.562195,0.3274777 c -0.0037,-0.00161 -0.0079,-0.00553 -0.0093,-0.0087 -0.002,-0.00458 -0.0026,-0.2012223 -0.0026,-0.9452552 0,-0.5167126 7.11e-4,-0.94201848 0.0016,-0.94512421 0.0035,-0.0123136 -0.0039,-0.0118766 0.199873,-0.0119451 0.119233,-4.01e-5 0.187612,6.7456e-4 0.190063,0.001986 0.0021,0.001127 0.0053,0.005816 0.0072,0.0104194 0.0031,0.007673 0.0034,0.086349 0.0034,0.94477181 0,0.8174498 -3.84e-4,0.9373214 -0.003,0.9436441 -0.0058,0.013862 0.0026,0.013304 -0.198962,0.013214 -0.151813,-6.82e-5 -0.182551,-5.589e-4 -0.188185,-0.00301 z m 3.153992,-2.26567905 c 9.9e-5,-0.002408 5.89e-4,-0.002898 0.0013,-0.001249 5.97e-4,0.001492 5.24e-4,0.003275 -1.63e-4,0.003962 -6.87e-4,6.8686e-4 -0.0012,-5.3401e-4 -0.0011,-0.002713 z"
         id="path2192" /><path
         style="fill:#767676;fill-opacity:1;stroke-width:0.00206706"
         d="m -15.106849,4.070723 c 0.0014,-5.734e-4 0.0038,-5.734e-4 0.0052,0 0.0014,5.734e-4 2.59e-4,0.00104 -0.0026,0.00104 -0.0028,0 -0.004,-4.693e-4 -0.0026,-0.00104 z m 2.871272,-4.34e-5 c 0.0015,-5.972e-4 0.0033,-5.238e-4 0.004,1.633e-4 6.87e-4,6.869e-4 -5.34e-4,0.00118 -0.0027,0.00109 -0.0024,-9.92e-5 -0.0029,-5.891e-4 -0.0012,-0.00125 z m -3.372146,-0.2161453 -0.0061,-0.00672 0.0067,0.00607 c 0.0063,0.00566 0.0077,0.00736 0.0061,0.00736 -3.56e-4,0 -0.0034,-0.00302 -0.0067,-0.00672 z m 3.873795,0.00258 c 0.0021,-0.00227 0.0042,-0.00413 0.0048,-0.00413 5.68e-4,0 -6.5e-4,0.00186 -0.0027,0.00413 -0.0021,0.00227 -0.0042,0.00413 -0.0048,0.00413 -5.68e-4,0 6.5e-4,-0.00186 0.0027,-0.00413 z m -3.891392,-0.020154 -0.005,-0.00568 0.0057,0.00501 c 0.0053,0.00468 0.0066,0.00636 0.005,0.00636 -3.7e-4,0 -0.0029,-0.00256 -0.0057,-0.00568 z m 3.911029,5.168e-4 c 0.0027,-0.00284 0.0053,-0.00517 0.0059,-0.00517 5.68e-4,0 -0.0011,0.00233 -0.0038,0.00517 -0.0027,0.00284 -0.0053,0.00517 -0.0059,0.00517 -5.68e-4,0 0.0012,-0.00233 0.0038,-0.00517 z M -15.839974,3.337081 c 9.9e-5,-0.00241 5.89e-4,-0.0029 0.0013,-0.00125 5.97e-4,0.00149 5.23e-4,0.00328 -1.63e-4,0.00396 -6.87e-4,6.869e-4 -0.0012,-5.341e-4 -0.0011,-0.00271 z m 4.34082,-0.00207 c 9.9e-5,-0.00241 5.89e-4,-0.0029 0.0013,-0.00125 5.97e-4,0.00149 5.24e-4,0.00328 -1.63e-4,0.00396 -6.87e-4,6.869e-4 -0.0012,-5.341e-4 -0.0011,-0.00271 z m -1.790751,-0.4776505 c 0.0014,-5.734e-4 0.0037,-5.734e-4 0.0052,0 0.0014,5.734e-4 2.58e-4,0.00104 -0.0026,0.00104 -0.0028,0 -0.004,-4.692e-4 -0.0026,-0.00104 z m 0.143699,-6.41e-5 c 0.002,-5.24e-4 0.0048,-4.897e-4 0.0062,7.65e-5 0.0014,5.661e-4 -2.46e-4,9.948e-4 -0.0037,9.529e-4 -0.0034,-4.14e-5 -0.0046,-5.054e-4 -0.0025,-0.00103 z m 0.03626,-0.00205 c 0.0015,-5.972e-4 0.0033,-5.238e-4 0.004,1.633e-4 6.87e-4,6.869e-4 -5.34e-4,0.00118 -0.0027,0.00109 -0.0024,-9.92e-5 -0.0029,-5.891e-4 -0.0012,-0.00125 z m -0.225309,-0.00207 c 0.0015,-5.971e-4 0.0033,-5.238e-4 0.004,1.633e-4 6.87e-4,6.869e-4 -5.34e-4,0.00118 -0.0027,0.00109 -0.0024,-9.93e-5 -0.0029,-5.892e-4 -0.0013,-0.00125 z m 0.250114,0 c 0.0015,-5.971e-4 0.0033,-5.238e-4 0.004,1.633e-4 6.87e-4,6.869e-4 -5.34e-4,0.00118 -0.0027,0.00109 -0.0024,-9.93e-5 -0.0029,-5.892e-4 -0.0013,-0.00125 z m -1.580748,-0.039068 c 9.9e-5,-0.00241 5.89e-4,-0.0029 0.0013,-0.00125 5.97e-4,0.00149 5.24e-4,0.00328 -1.63e-4,0.00396 -6.87e-4,6.868e-4 -0.0012,-5.342e-4 -0.0011,-0.00271 z m 2.038282,-0.1269512 c 0,-0.00284 4.69e-4,-0.004 10e-4,-0.00258 5.73e-4,0.00142 5.73e-4,0.00375 0,0.00517 -5.74e-4,0.00142 -10e-4,2.583e-4 -10e-4,-0.00258 z m -1.133338,-0.011885 c -0.0026,-0.00328 -0.0025,-0.00335 7.81e-4,-7.806e-4 0.0034,0.0027 0.0045,0.0044 0.0028,0.0044 -4.3e-4,0 -0.0021,-0.00163 -0.0036,-0.00362 z m 1.131107,-0.020326 c 9.9e-5,-0.00241 5.89e-4,-0.0029 0.0013,-0.00125 5.97e-4,0.00149 5.24e-4,0.00328 -1.63e-4,0.00396 -6.87e-4,6.869e-4 -0.0012,-5.342e-4 -0.0011,-0.00271 z m -1.176582,-0.025149 c -0.0026,-0.00328 -0.0025,-0.00335 7.8e-4,-7.805e-4 0.002,0.00156 0.0036,0.00319 0.0036,0.00362 0,0.0017 -0.0017,6.063e-4 -0.0044,-0.00284 z m 1.174515,-0.00172 c 9.9e-5,-0.00241 5.89e-4,-0.0029 0.0013,-0.00125 5.97e-4,0.00149 5.24e-4,0.00327 -1.63e-4,0.00396 -6.87e-4,6.869e-4 -0.0012,-5.341e-4 -0.0011,-0.00271 z m -0.0018,-0.032901 c 4.1e-5,-0.00341 5.05e-4,-0.00456 0.001,-0.00254 5.24e-4,0.00201 4.9e-4,0.0048 -7.6e-5,0.0062 -5.67e-4,0.0014 -9.95e-4,-2.46e-4 -9.54e-4,-0.00366 z m -0.0019,-0.050643 c 0,-0.00512 4.03e-4,-0.00721 8.96e-4,-0.00465 4.93e-4,0.00256 4.93e-4,0.00674 0,0.0093 -4.93e-4,0.00256 -8.96e-4,4.651e-4 -8.96e-4,-0.00465 z m -0.575715,-0.034438 c 0.0014,-5.734e-4 0.0038,-5.734e-4 0.0052,0 0.0014,5.734e-4 2.58e-4,0.00104 -0.0026,0.00104 -0.0028,0 -0.004,-4.692e-4 -0.0026,-0.00104 z m 0.06102,-6.41e-5 c 0.002,-5.24e-4 0.0048,-4.897e-4 0.0062,7.65e-5 0.0014,5.661e-4 -2.46e-4,9.948e-4 -0.0037,9.529e-4 -0.0034,-4.14e-5 -0.0046,-5.054e-4 -0.0025,-0.00103 z m -0.08569,-0.00205 c 0.0015,-5.972e-4 0.0033,-5.238e-4 0.004,1.633e-4 6.86e-4,6.869e-4 -5.34e-4,0.00118 -0.0027,0.00109 -0.0024,-9.92e-5 -0.0029,-5.891e-4 -0.0013,-0.00125 z m 0.119889,0 c 0.0015,-5.972e-4 0.0033,-5.238e-4 0.004,1.633e-4 6.87e-4,6.869e-4 -5.34e-4,0.00118 -0.0027,0.00109 -0.0024,-9.92e-5 -0.0029,-5.891e-4 -0.0012,-0.00125 z M -13.97338,2.2270716 c 10e-5,-0.00241 5.89e-4,-0.0029 0.0012,-0.00125 5.98e-4,0.00149 5.24e-4,0.00328 -1.63e-4,0.00396 -6.87e-4,6.869e-4 -0.0012,-5.341e-4 -0.0011,-0.00271 z m -0.0019,-0.023599 c 0,-0.00284 4.7e-4,-0.004 10e-4,-0.00258 5.74e-4,0.00142 5.74e-4,0.00375 0,0.00517 -5.73e-4,0.00142 -10e-4,2.584e-4 -10e-4,-0.00258 z m -0.0019,-0.037207 c 0,-0.00398 4.26e-4,-0.00561 9.46e-4,-0.00362 5.2e-4,0.00199 5.2e-4,0.00525 0,0.00723 -5.2e-4,0.00199 -9.46e-4,3.617e-4 -9.46e-4,-0.00362 z m 0.411268,-0.025838 c 4.2e-5,-0.00341 5.06e-4,-0.00456 0.001,-0.00254 5.24e-4,0.00201 4.9e-4,0.0048 -7.6e-5,0.0062 -5.66e-4,0.0014 -9.95e-4,-2.459e-4 -9.54e-4,-0.00366 z m -0.411344,-0.068213 c 4.2e-5,-0.00341 5.05e-4,-0.00456 0.001,-0.00254 5.24e-4,0.00201 4.89e-4,0.0048 -7.7e-5,0.0062 -5.66e-4,0.0014 -9.95e-4,-2.459e-4 -9.53e-4,-0.00366 z m 0.411344,0 c 4.2e-5,-0.00341 5.06e-4,-0.00456 0.001,-0.00254 5.24e-4,0.00201 4.9e-4,0.0048 -7.6e-5,0.0062 -5.66e-4,0.0014 -9.95e-4,-2.459e-4 -9.54e-4,-0.00366 z m -0.40745,-0.049781 c 9.9e-5,-0.00241 5.89e-4,-0.0029 0.0013,-0.00125 5.97e-4,0.00149 5.24e-4,0.00328 -1.63e-4,0.00396 -6.87e-4,6.869e-4 -0.0012,-5.342e-4 -0.0011,-0.00271 z m 0.795137,-0.3329595 c 0.0014,-5.734e-4 0.0038,-5.734e-4 0.0052,0 0.0014,5.734e-4 2.59e-4,0.00104 -0.0026,0.00104 -0.0028,0 -0.004,-4.692e-4 -0.0026,-0.00104 z m 0.05168,0 c 0.0014,-5.734e-4 0.0038,-5.734e-4 0.0052,0 0.0014,5.734e-4 2.59e-4,0.00104 -0.0026,0.00104 -0.0028,0 -0.004,-4.692e-4 -0.0026,-0.00104 z m -0.607206,-0.1296367 c 0,-4.292e-4 0.0016,-0.00206 0.0036,-0.00362 0.0033,-0.00257 0.0033,-0.0025 7.81e-4,7.804e-4 -0.0027,0.00344 -0.0044,0.00454 -0.0044,0.00284 z m 0.47917,-0.2011361 c 0.0015,-5.971e-4 0.0033,-5.237e-4 0.004,1.631e-4 6.87e-4,6.868e-4 -5.34e-4,0.00118 -0.0027,0.00109 -0.0024,-9.92e-5 -0.0029,-5.889e-4 -0.0012,-0.00125 z m 0.02274,-0.00207 c 0.0015,-5.971e-4 0.0033,-5.237e-4 0.004,1.631e-4 6.87e-4,6.869e-4 -5.34e-4,0.00118 -0.0027,0.00109 -0.0024,-9.92e-5 -0.0029,-5.89e-4 -0.0012,-0.00125 z m 0.159034,4.3e-5 c 0.0014,-5.734e-4 0.0037,-5.734e-4 0.0052,0 0.0014,5.735e-4 2.58e-4,0.00104 -0.0026,0.00104 -0.0028,0 -0.004,-4.691e-4 -0.0026,-0.00104 z m -0.125018,-0.00213 c 0.002,-5.241e-4 0.0048,-4.896e-4 0.0062,7.67e-5 0.0014,5.662e-4 -2.46e-4,9.95e-4 -0.0037,9.529e-4 -0.0034,-4.22e-5 -0.0046,-5.054e-4 -0.0025,-0.00103 z m 0.09827,2.07e-5 c 0.0015,-5.971e-4 0.0033,-5.237e-4 0.004,1.631e-4 6.87e-4,6.868e-4 -5.34e-4,0.00118 -0.0027,0.00109 -0.0024,-9.92e-5 -0.0029,-5.89e-4 -0.0013,-0.00125 z m -1.456371,-0.43215283 c 0.04974,-3.0842e-4 0.131129,-3.0842e-4 0.180868,0 0.04974,3.0845e-4 0.009,5.608e-4 -0.09043,5.608e-4 -0.09948,0 -0.140173,-2.5235e-4 -0.09043,-5.608e-4 z m 3.056824,-0.34692164 c 10e-5,-0.002408 5.89e-4,-0.002898 0.0013,-0.001249 5.98e-4,0.001492 5.24e-4,0.003275 -1.63e-4,0.003962 -6.87e-4,6.8686e-4 -0.0012,-5.3401e-4 -0.0011,-0.002713 z m -4.34082,-0.002067 c 9.9e-5,-0.002408 5.89e-4,-0.002898 0.0013,-0.001249 5.97e-4,0.001492 5.24e-4,0.003275 -1.63e-4,0.003962 -6.87e-4,6.8686e-4 -0.0012,-5.34e-4 -0.0011,-0.002713 z m 0.213777,-0.49902206 c 0.0021,-0.0022738 0.0042,-0.0041341 0.0048,-0.0041341 5.69e-4,0 -6.5e-4,0.0018604 -0.0027,0.0041341 -0.0021,0.0022738 -0.0042,0.0041341 -0.0048,0.0041341 -5.68e-4,0 6.5e-4,-0.0018603 0.0027,-0.0041341 z m 3.91175,-0.0015503 -0.005,-0.0056844 0.0057,0.0050112 c 0.0031,0.0027562 0.0057,0.0053142 0.0057,0.0056844 0,0.0016212 -0.0017,3.0175e-4 -0.0064,-0.0050112 z m -3.892113,-0.0180844 c 0.0027,-0.0028422 0.0053,-0.0051676 0.0059,-0.0051676 5.69e-4,0 -0.0012,0.0023254 -0.0038,0.0051676 -0.0027,0.0028422 -0.0053,0.0051676 -0.0059,0.0051676 -5.68e-4,0 0.0011,-0.0023254 0.0038,-0.0051676 z m 3.872436,-0.0015503 -0.0039,-0.0046509 0.0046,0.0039377 c 0.0044,0.0037005 0.0056,0.005364 0.0039,0.005364 -3.93e-4,0 -0.0025,-0.0020929 -0.0046,-0.0046508 z m -3.372596,-0.21380216 c 0.0015,-5.9711e-4 0.0033,-5.2368e-4 0.004,1.6319e-4 6.87e-4,6.8687e-4 -5.34e-4,0.001175 -0.0027,0.001086 -0.0024,-9.919e-5 -0.0029,-5.8899e-4 -0.0012,-0.001249 z m 2.87321,0 c 0.0015,-5.9711e-4 0.0033,-5.2368e-4 0.004,1.6319e-4 6.87e-4,6.8687e-4 -5.34e-4,0.001175 -0.0027,0.001086 -0.0024,-9.919e-5 -0.0029,-5.8899e-4 -0.0013,-0.001249 z"
         id="path2190" /><path
         style="fill:#606060;fill-opacity:1;stroke-width:0.00206706"
         d="m -15.098451,4.07068 c 0.0015,-5.971e-4 0.0033,-5.238e-4 0.004,1.633e-4 6.86e-4,6.869e-4 -5.34e-4,0.00118 -0.0027,0.00109 -0.0024,-9.93e-5 -0.0029,-5.892e-4 -0.0013,-0.00125 z m 2.856673,0 c 0.0015,-5.971e-4 0.0033,-5.238e-4 0.004,1.633e-4 6.87e-4,6.869e-4 -5.34e-4,0.00118 -0.0027,0.00109 -0.0024,-9.93e-5 -0.0029,-5.892e-4 -0.0013,-0.00125 z m 0.517152,-0.2228637 c 0.0027,-0.00284 0.0053,-0.00517 0.0059,-0.00517 5.68e-4,0 -0.0012,0.00233 -0.0038,0.00517 -0.0027,0.00284 -0.0053,0.00517 -0.0059,0.00517 -5.69e-4,0 0.0011,-0.00233 0.0038,-0.00517 z m -3.892533,-0.00258 c -0.0026,-0.00328 -0.0025,-0.00335 7.81e-4,-7.805e-4 0.0034,0.0027 0.0045,0.0044 0.0028,0.0044 -4.3e-4,0 -0.0021,-0.00163 -0.0036,-0.00362 z m -0.222815,-0.5143564 c 9.9e-5,-0.00241 5.89e-4,-0.0029 0.0013,-0.00125 5.97e-4,0.00149 5.23e-4,0.00328 -1.63e-4,0.00396 -6.87e-4,6.869e-4 -0.0012,-5.342e-4 -0.0011,-0.00271 z m 2.600711,-0.4716244 c 0.01108,-3.716e-4 0.02922,-3.716e-4 0.04031,0 0.01108,3.717e-4 0.002,6.758e-4 -0.02015,6.758e-4 -0.02217,0 -0.03124,-3.041e-4 -0.02015,-6.758e-4 z m -0.05671,-0.00194 c 0.0015,-5.972e-4 0.0033,-5.238e-4 0.004,1.633e-4 6.87e-4,6.869e-4 -5.34e-4,0.00118 -0.0027,0.00109 -0.0024,-9.92e-5 -0.0029,-5.891e-4 -0.0012,-0.00125 z m 0.159034,4.34e-5 c 0.0014,-5.734e-4 0.0038,-5.734e-4 0.0052,0 0.0014,5.734e-4 2.58e-4,0.00104 -0.0026,0.00104 -0.0028,0 -0.004,-4.692e-4 -0.0026,-0.00104 z m 0.0332,-0.00211 c 0.0015,-5.971e-4 0.0033,-5.238e-4 0.004,1.633e-4 6.87e-4,6.869e-4 -5.34e-4,0.00118 -0.0027,0.00109 -0.0024,-9.92e-5 -0.0029,-5.891e-4 -0.0012,-0.00125 z m 0.0248,-0.00207 c 0.0015,-5.972e-4 0.0033,-5.238e-4 0.004,1.633e-4 6.87e-4,6.868e-4 -5.34e-4,0.00118 -0.0027,0.00109 -0.0024,-9.92e-5 -0.0029,-5.891e-4 -0.0013,-0.00125 z m 0.453594,-0.1360428 c 2.3e-5,-0.00455 4.46e-4,-0.00616 9.41e-4,-0.00359 4.94e-4,0.00257 4.75e-4,0.00629 -4.2e-5,0.00827 -5.17e-4,0.00198 -9.22e-4,-1.281e-4 -8.99e-4,-0.00467 z m -0.0023,-0.038241 c 0,-0.00284 4.69e-4,-0.004 10e-4,-0.00258 5.73e-4,0.00142 5.73e-4,0.00375 0,0.00517 -5.73e-4,0.00142 -10e-4,2.584e-4 -10e-4,-0.00258 z m -0.0022,-0.030144 c 9.9e-5,-0.00241 5.89e-4,-0.0029 0.0013,-0.00125 5.97e-4,0.00149 5.24e-4,0.00327 -1.63e-4,0.00396 -6.87e-4,6.869e-4 -0.0012,-5.341e-4 -0.0011,-0.00271 z m -0.0039,-0.063907 c 4.1e-5,-0.00341 5.05e-4,-0.00456 10e-4,-0.00254 5.24e-4,0.00201 4.9e-4,0.0048 -7.6e-5,0.0062 -5.67e-4,0.0014 -9.95e-4,-2.46e-4 -9.54e-4,-0.00366 z m -0.0018,-0.062012 c 0,-0.00796 3.83e-4,-0.010961 8.3e-4,-0.00667 4.48e-4,0.00429 4.4e-4,0.0108 -2e-5,0.014469 -4.57e-4,0.00367 -8.23e-4,1.613e-4 -8.14e-4,-0.0078 z m -0.56551,-0.012827 c 0.0026,-4.927e-4 0.0067,-4.927e-4 0.0093,0 0.0026,4.926e-4 4.65e-4,8.957e-4 -0.0046,8.957e-4 -0.0051,0 -0.0072,-4.031e-4 -0.0046,-8.957e-4 z m 0.03414,-2.48e-5 c 0.0031,-4.75e-4 0.0078,-4.624e-4 0.01033,2.9e-5 0.0025,4.905e-4 -2.9e-5,8.793e-4 -0.0057,8.638e-4 -0.0057,-2.07e-5 -0.0078,-4.169e-4 -0.0046,-8.921e-4 z m 0.04454,-0.002 c 0.0015,-5.972e-4 0.0033,-5.238e-4 0.004,1.633e-4 6.87e-4,6.869e-4 -5.34e-4,0.00118 -0.0027,0.00109 -0.0024,-9.92e-5 -0.0029,-5.891e-4 -0.0013,-0.00125 z M -13.97552,2.2105349 c 10e-5,-0.00241 5.9e-4,-0.0029 0.0012,-0.00125 5.98e-4,0.00149 5.24e-4,0.00328 -1.63e-4,0.00396 -6.86e-4,6.869e-4 -0.0012,-5.341e-4 -0.0011,-0.00271 z m -0.0018,-0.032901 c 4.2e-5,-0.00341 5.05e-4,-0.00456 0.001,-0.00254 5.24e-4,0.00201 4.89e-4,0.0048 -7.7e-5,0.0062 -5.66e-4,0.0014 -9.95e-4,-2.46e-4 -9.53e-4,-0.00366 z m 0.413171,-0.016709 c 9.9e-5,-0.00241 5.89e-4,-0.0029 0.0013,-0.00125 5.97e-4,0.00149 5.24e-4,0.00327 -1.63e-4,0.00396 -6.87e-4,6.869e-4 -0.0012,-5.341e-4 -0.0011,-0.00271 z m -0.0018,-0.030834 c 4.1e-5,-0.00341 5.05e-4,-0.00456 10e-4,-0.00254 5.24e-4,0.00201 4.9e-4,0.0048 -7.6e-5,0.0062 -5.67e-4,0.0014 -9.95e-4,-2.459e-4 -9.54e-4,-0.00366 z m 2.92e-4,-0.038241 c 0,-0.00853 3.65e-4,-0.012015 8.11e-4,-0.00775 4.46e-4,0.00426 4.46e-4,0.01124 0,0.015503 -4.46e-4,0.00426 -8.11e-4,7.752e-4 -8.11e-4,-0.00775 z m -0.411876,-0.028078 c 9.9e-5,-0.00241 5.89e-4,-0.0029 0.0012,-0.00125 5.97e-4,0.00149 5.24e-4,0.00327 -1.63e-4,0.00396 -6.87e-4,6.869e-4 -0.0012,-5.341e-4 -0.0011,-0.00271 z m 0.413411,-0.016536 c 10e-5,-0.00241 5.9e-4,-0.0029 0.0012,-0.00125 5.98e-4,0.00149 5.24e-4,0.00328 -1.63e-4,0.00396 -6.87e-4,6.868e-4 -0.0012,-5.342e-4 -0.0011,-0.00271 z m 0.121794,-0.2496886 c 0,-4.292e-4 0.0016,-0.00206 0.0036,-0.00362 0.0033,-0.00257 0.0034,-0.0025 7.8e-4,7.804e-4 -0.0027,0.00344 -0.0044,0.00454 -0.0044,0.00284 z m 0.338609,-0.1060515 c 0.0015,-5.971e-4 0.0033,-5.237e-4 0.004,1.631e-4 6.87e-4,6.869e-4 -5.34e-4,0.00118 -0.0027,0.00109 -0.0024,-9.93e-5 -0.0029,-5.89e-4 -0.0013,-0.00125 z m -0.06317,-0.00214 c 0.0031,-4.736e-4 0.0082,-4.736e-4 0.01137,0 0.0031,4.736e-4 5.69e-4,8.612e-4 -0.0057,8.612e-4 -0.0062,0 -0.0088,-3.876e-4 -0.0057,-8.612e-4 z m 0.02584,2.17e-5 c 0.0026,-4.927e-4 0.0067,-4.927e-4 0.0093,0 0.0026,4.927e-4 4.66e-4,8.958e-4 -0.0046,8.958e-4 -0.0051,0 -0.0072,-4.031e-4 -0.0046,-8.958e-4 z m -0.620633,-0.103961 c 0.0068,-0.00682 0.01274,-0.012402 0.01331,-0.012402 5.68e-4,0 -0.0045,0.00558 -0.01124,0.012402 -0.0068,0.00682 -0.01274,0.012402 -0.01331,0.012402 -5.69e-4,0 0.0045,-0.00558 0.01124,-0.012402 z m 0.484342,-0.2246484 c 0.0015,-5.972e-4 0.0033,-5.237e-4 0.004,1.63e-4 6.87e-4,6.869e-4 -5.34e-4,0.00118 -0.0027,0.00109 -0.0024,-9.92e-5 -0.0029,-5.89e-4 -0.0013,-0.00125 z m 0.213851,-0.00415 c 0.002,-5.241e-4 0.0048,-4.896e-4 0.0062,7.67e-5 0.0014,5.662e-4 -2.46e-4,9.95e-4 -0.0037,9.529e-4 -0.0034,-4.22e-5 -0.0046,-5.054e-4 -0.0025,-0.00103 z m -0.1437,-0.002 c 0.0014,-5.734e-4 0.0038,-5.734e-4 0.0052,0 0.0014,5.735e-4 2.58e-4,0.00104 -0.0026,0.00104 -0.0028,0 -0.004,-4.691e-4 -0.0026,-0.00104 z m 0.06615,-0.00219 c 0.0037,-4.585e-4 0.0097,-4.585e-4 0.01344,0 0.0037,4.586e-4 6.72e-4,8.337e-4 -0.0067,8.337e-4 -0.0074,0 -0.01041,-3.751e-4 -0.0067,-8.337e-4 z m -2.698897,-0.77280136 c 9.9e-5,-0.002408 5.89e-4,-0.002898 0.0013,-0.001249 5.97e-4,0.001492 5.23e-4,0.003275 -1.63e-4,0.003962 -6.87e-4,6.8687e-4 -0.0012,-5.34e-4 -0.0011,-0.002713 z m 0.223079,-0.51452499 c 0.0027,-0.0028422 0.0053,-0.0051676 0.0059,-0.0051676 5.68e-4,0 -0.0011,0.0023254 -0.0038,0.0051676 -0.0027,0.0028422 -0.0053,0.0051676 -0.0059,0.0051676 -5.69e-4,0 0.0012,-0.0023254 0.0038,-0.0051676 z m 3.892112,-0.0025838 -0.005,-0.0056844 0.0057,0.0050112 c 0.0031,0.0027562 0.0057,0.0053142 0.0057,0.0056844 0,0.0016212 -0.0017,3.0175e-4 -0.0064,-0.0050112 z M -15.10061,-0.1605429 c 0.0014,-5.7343e-4 0.0038,-5.7343e-4 0.0052,0 0.0014,5.7342e-4 2.59e-4,0.001043 -0.0026,0.001043 -0.0028,0 -0.004,-4.6917e-4 -0.0026,-0.001043 z m 2.858741,0 c 0.0014,-5.7343e-4 0.0038,-5.7343e-4 0.0052,0 0.0014,5.7342e-4 2.58e-4,0.001043 -0.0026,0.001043 -0.0028,0 -0.004,-4.6917e-4 -0.0026,-0.001043 z"
         id="path2188" /><path
         style="fill:#494949;fill-opacity:1;stroke-width:0.00206706"
         d="m -15.092379,4.070723 c 0.0014,-5.734e-4 0.0038,-5.734e-4 0.0052,0 0.0014,5.734e-4 2.58e-4,0.00104 -0.0026,0.00104 -0.0028,0 -0.004,-4.693e-4 -0.0026,-0.00104 z m 2.842203,0 c 0.0014,-5.734e-4 0.0038,-5.734e-4 0.0052,0 0.0014,5.734e-4 2.59e-4,0.00104 -0.0026,0.00104 -0.0028,0 -0.004,-4.693e-4 -0.0026,-0.00104 z m -3.589558,-0.7479392 c 4.2e-5,-0.00341 5.05e-4,-0.00456 10e-4,-0.00254 5.24e-4,0.00201 4.89e-4,0.0048 -7.7e-5,0.0062 -5.66e-4,0.0014 -9.95e-4,-2.459e-4 -9.53e-4,-0.00366 z m 4.340896,-0.00103 c 0,-0.00398 4.26e-4,-0.00561 9.46e-4,-0.00362 5.2e-4,0.00199 5.2e-4,0.00525 0,0.00723 -5.2e-4,0.00199 -9.46e-4,3.618e-4 -9.46e-4,-0.00362 z m -1.769363,-0.4623821 c 0.002,-5.201e-4 0.0053,-5.201e-4 0.0072,0 0.002,5.199e-4 3.61e-4,9.453e-4 -0.0036,9.453e-4 -0.004,0 -0.0056,-4.254e-4 -0.0036,-9.453e-4 z m 0.09095,0 c 0.002,-5.201e-4 0.0053,-5.201e-4 0.0072,0 0.002,5.199e-4 3.61e-4,9.453e-4 -0.0036,9.453e-4 -0.004,0 -0.0056,-4.254e-4 -0.0036,-9.453e-4 z m -0.124928,-0.00205 c 0.0015,-5.972e-4 0.0033,-5.238e-4 0.004,1.633e-4 6.87e-4,6.869e-4 -5.34e-4,0.00118 -0.0027,0.00109 -0.0024,-9.92e-5 -0.0029,-5.891e-4 -0.0013,-0.00125 z m 0.173633,0 c 0.0015,-5.972e-4 0.0033,-5.238e-4 0.004,1.633e-4 6.87e-4,6.869e-4 -5.34e-4,0.00118 -0.0027,0.00109 -0.0024,-9.92e-5 -0.0029,-5.891e-4 -0.0013,-0.00125 z m -1.531566,-0.024943 c -0.0026,-0.00328 -0.0025,-0.00335 7.81e-4,-7.805e-4 0.002,0.00156 0.0036,0.00319 0.0036,0.00362 0,0.0017 -0.0017,6.063e-4 -0.0044,-0.00284 z m 0.386803,0.00284 c 0,-4.291e-4 0.0016,-0.00206 0.0036,-0.00362 0.0033,-0.00257 0.0033,-0.0025 7.81e-4,7.805e-4 -0.0027,0.00344 -0.0044,0.00454 -0.0044,0.00284 z m 0.01136,-0.9562669 c 0,-0.5155758 2.37e-4,-0.7264931 5.26e-4,-0.4687052 2.89e-4,0.2577878 2.89e-4,0.6796225 0,0.9374104 -2.89e-4,0.2577879 -5.26e-4,0.046871 -5.26e-4,-0.4687052 z m 1.62575,0.8653164 c 0,-4.291e-4 0.0016,-0.00206 0.0036,-0.00362 0.0033,-0.00257 0.0033,-0.0025 7.81e-4,7.805e-4 -0.0027,0.00344 -0.0044,0.00454 -0.0044,0.00284 z m 0.0105,-0.037632 c 9.9e-5,-0.00241 5.89e-4,-0.0029 0.0012,-0.00125 5.97e-4,0.00149 5.24e-4,0.00328 -1.63e-4,0.00396 -6.87e-4,6.869e-4 -0.0012,-5.341e-4 -0.0011,-0.00271 z m -0.0021,-0.03514 c 9.9e-5,-0.00241 5.89e-4,-0.0029 0.0012,-0.00125 5.97e-4,0.00149 5.24e-4,0.00327 -1.63e-4,0.00396 -6.87e-4,6.869e-4 -0.0012,-5.341e-4 -0.0011,-0.00271 z m -1.155648,-0.016364 c -0.0085,-0.00853 -0.01493,-0.015503 -0.01437,-0.015503 5.68e-4,0 0.008,0.00698 0.01643,0.015503 0.0085,0.00853 0.01493,0.015503 0.01437,0.015503 -5.68e-4,0 -0.008,-0.00698 -0.01643,-0.015503 z m 1.153581,-0.012574 c 9.9e-5,-0.00241 5.89e-4,-0.0029 0.0012,-0.00125 5.97e-4,0.00149 5.24e-4,0.00327 -1.63e-4,0.00396 -6.87e-4,6.869e-4 -0.0012,-5.341e-4 -0.0011,-0.00271 z m -0.0021,-0.024805 c 9.9e-5,-0.00241 5.89e-4,-0.0029 0.0012,-0.00125 5.97e-4,0.00149 5.24e-4,0.00328 -1.63e-4,0.00396 -6.87e-4,6.869e-4 -0.0012,-5.341e-4 -0.0011,-0.00271 z m -0.0018,-0.043236 c 4.1e-5,-0.00341 5.05e-4,-0.00456 10e-4,-0.00254 5.24e-4,0.00201 4.9e-4,0.0048 -7.6e-5,0.0062 -5.67e-4,0.0014 -9.95e-4,-2.459e-4 -9.54e-4,-0.00366 z m -0.550748,-0.064512 c 0.0026,-4.927e-4 0.0067,-4.927e-4 0.0093,0 0.0026,4.926e-4 4.66e-4,8.957e-4 -0.0046,8.957e-4 -0.0051,0 -0.0072,-4.031e-4 -0.0047,-8.957e-4 z m -0.04121,-0.00202 c 0.0015,-5.972e-4 0.0033,-5.238e-4 0.004,1.633e-4 6.87e-4,6.869e-4 -5.34e-4,0.00118 -0.0027,0.00109 -0.0024,-9.92e-5 -0.0029,-5.891e-4 -0.0012,-0.00125 z m 0.09495,4.34e-5 c 0.0014,-5.734e-4 0.0038,-5.734e-4 0.0052,0 0.0014,5.734e-4 2.59e-4,0.00104 -0.0026,0.00104 -0.0028,0 -0.004,-4.692e-4 -0.0026,-0.00104 z m 0.495568,-0.8636948 c 0,-0.4763533 2.37e-4,-0.6709167 5.26e-4,-0.4323631 2.9e-4,0.2385536 2.9e-4,0.6282972 0,0.866097 -2.89e-4,0.2377996 -5.26e-4,0.042619 -5.26e-4,-0.4337339 z m -0.829077,0.7591267 -0.0039,-0.00465 0.0046,0.00394 c 0.0044,0.0037 0.0056,0.00536 0.0039,0.00536 -3.92e-4,0 -0.0025,-0.00209 -0.0046,-0.00465 z m -0.513304,-0.2177302 c 10e-5,-0.00241 5.89e-4,-0.0029 0.0013,-0.00125 5.97e-4,0.00149 5.24e-4,0.00327 -1.63e-4,0.00396 -6.87e-4,6.869e-4 -0.0012,-5.341e-4 -0.0011,-0.00271 z m -0.0015,-0.074242 c 9e-6,-0.00796 3.83e-4,-0.010961 8.31e-4,-0.00667 4.47e-4,0.00429 4.4e-4,0.0108 -1.7e-5,0.014469 -4.57e-4,0.00367 -8.23e-4,1.612e-4 -8.13e-4,-0.0078 z m 0.413325,0.00413 c 2e-5,-0.00568 4.17e-4,-0.00776 8.92e-4,-0.00462 4.75e-4,0.00314 4.62e-4,0.00779 -2.9e-5,0.010335 -4.91e-4,0.00254 -8.79e-4,-2.89e-5 -8.64e-4,-0.00571 z m -0.411773,-0.05805 c 9.9e-5,-0.00241 5.89e-4,-0.0029 0.0012,-0.00125 5.97e-4,0.00149 5.24e-4,0.00328 -1.63e-4,0.00396 -6.87e-4,6.869e-4 -0.0012,-5.341e-4 -0.0011,-0.00271 z m 0.413412,-0.00413 c 9.9e-5,-0.00241 5.89e-4,-0.0029 0.0013,-0.00125 5.97e-4,0.00149 5.23e-4,0.00327 -1.64e-4,0.00396 -6.87e-4,6.869e-4 -0.0012,-5.341e-4 -0.0011,-0.00271 z m 0.09079,-0.2248839 c 0,-4.293e-4 0.0016,-0.00206 0.0036,-0.00362 0.0033,-0.00257 0.0033,-0.0025 7.8e-4,7.805e-4 -0.0027,0.00344 -0.0044,0.00454 -0.0044,0.00284 z m 0.02481,-0.024805 c 0,-4.292e-4 0.0016,-0.00206 0.0036,-0.00362 0.0033,-0.00257 0.0033,-0.0025 7.8e-4,7.805e-4 -0.0027,0.00344 -0.0044,0.00454 -0.0044,0.00284 z m 0.255927,-0.1122527 c 0.0015,-5.971e-4 0.0033,-5.237e-4 0.004,1.631e-4 6.87e-4,6.869e-4 -5.34e-4,0.00118 -0.0027,0.00109 -0.0024,-9.93e-5 -0.0029,-5.89e-4 -0.0012,-0.00125 z m 0.08268,0 c 0.0015,-5.971e-4 0.0033,-5.237e-4 0.004,1.631e-4 6.87e-4,6.869e-4 -5.34e-4,0.00118 -0.0027,0.00109 -0.0024,-9.93e-5 -0.0029,-5.89e-4 -0.0012,-0.00125 z m -0.03927,-0.00207 c 0.0015,-5.971e-4 0.0033,-5.236e-4 0.004,1.631e-4 6.87e-4,6.869e-4 -5.34e-4,0.00118 -0.0027,0.00109 -0.0024,-9.92e-5 -0.0029,-5.89e-4 -0.0013,-0.00125 z m -0.629031,-0.087471 c 0.0021,-0.00227 0.0042,-0.00413 0.0048,-0.00413 5.68e-4,0 -6.5e-4,0.00186 -0.0027,0.00413 -0.0021,0.00227 -0.0042,0.00413 -0.0048,0.00413 -5.69e-4,0 6.5e-4,-0.00186 0.0027,-0.00413 z m 0.03411,-0.034106 c 0.0027,-0.00284 0.0053,-0.00517 0.0059,-0.00517 5.68e-4,0 -0.0011,0.00233 -0.0038,0.00517 -0.0027,0.00284 -0.0053,0.00517 -0.0059,0.00517 -5.68e-4,0 0.0012,-0.00233 0.0038,-0.00517 z M -13.2422,1.3566313 c 0.0015,-5.971e-4 0.0033,-5.237e-4 0.004,1.631e-4 6.87e-4,6.869e-4 -5.34e-4,0.00118 -0.0027,0.00109 -0.0024,-9.92e-5 -0.0029,-5.89e-4 -0.0013,-0.00125 z m 0.188103,0 c 0.0015,-5.971e-4 0.0033,-5.237e-4 0.004,1.631e-4 6.87e-4,6.869e-4 -5.34e-4,0.00118 -0.0027,0.00109 -0.0024,-9.92e-5 -0.0029,-5.89e-4 -0.0012,-0.00125 z m -0.159164,-0.00207 c 0.0015,-5.971e-4 0.0033,-5.237e-4 0.004,1.631e-4 6.87e-4,6.868e-4 -5.34e-4,0.00118 -0.0027,0.00109 -0.0024,-9.92e-5 -0.0029,-5.89e-4 -0.0012,-0.00125 z m 0.124023,0 c 0.0015,-5.971e-4 0.0033,-5.237e-4 0.004,1.631e-4 6.86e-4,6.868e-4 -5.35e-4,0.00118 -0.0027,0.00109 -0.0024,-9.92e-5 -0.0029,-5.89e-4 -0.0013,-0.00125 z m -0.07661,-0.00215 c 0.0037,-4.585e-4 0.0097,-4.585e-4 0.01344,0 0.0037,4.586e-4 6.72e-4,8.337e-4 -0.0067,8.337e-4 -0.0074,0 -0.01041,-3.751e-4 -0.0067,-8.337e-4 z m 0.04651,7.05e-5 c 0.002,-5.199e-4 0.0053,-5.199e-4 0.0072,0 0.002,5.2e-4 3.62e-4,9.454e-4 -0.0036,9.454e-4 -0.004,0 -0.0056,-4.254e-4 -0.0036,-9.454e-4 z m 1.620536,-0.76338625 c 0,-0.003979 4.26e-4,-0.005607 9.46e-4,-0.003617 5.2e-4,0.00199 5.2e-4,0.005245 0,0.007235 -5.2e-4,0.00199 -9.46e-4,3.6173e-4 -9.46e-4,-0.003617 z m -4.340897,-0.001034 c 4.2e-5,-0.003411 5.06e-4,-0.004556 10e-4,-0.002544 5.24e-4,0.002011 4.9e-4,0.004802 -7.6e-5,0.006201 -5.67e-4,0.001399 -9.95e-4,-2.4604e-4 -9.54e-4,-0.003657 z m 0.747484,-0.74865321 c 0.0015,-5.9711e-4 0.0033,-5.2368e-4 0.004,1.6319e-4 6.86e-4,6.8687e-4 -5.34e-4,0.001175 -0.0027,0.001086 -0.0024,-9.919e-5 -0.0029,-5.8899e-4 -0.0013,-0.001249 z m 2.844271,0 c 0.0015,-5.9711e-4 0.0033,-5.2368e-4 0.004,1.6319e-4 6.87e-4,6.8687e-4 -5.34e-4,0.001175 -0.0027,0.001086 -0.0024,-9.919e-5 -0.0029,-5.8899e-4 -0.0013,-0.001249 z"
         id="path2186" /><path
         style="fill:#49021f;fill-opacity:1;stroke-width:0.00206706"
         d="m -15.098064,4.0707445 c -0.170629,-0.00736 -0.323203,-0.064231 -0.455786,-0.1698786 -0.03184,-0.025368 -0.08969,-0.083225 -0.115061,-0.1150613 -0.104057,-0.1305867 -0.160419,-0.2789066 -0.169163,-0.4451629 -0.0028,-0.052558 -0.0028,-2.71787419 0,-2.77043245 0.004,-0.075135 0.01545,-0.13691492 0.03822,-0.20538421 0.03829,-0.11513025 0.0988,-0.21269332 0.185947,-0.29982898 0.06494,-0.06492508645 0.128899,-0.11041037 0.210679,-0.14981548 0.0786,-0.03787375 0.151302,-0.05867757 0.250386,-0.07164955 0.02503,-0.003277 0.124523,-0.003567 1.453141,-0.004237 0.960343,-4.8443e-4 1.439851,-2.369e-5 1.467844,0.00141 0.07804,0.003998 0.138963,0.015199 0.20854,0.0383399 0.11513,0.03829179 0.212693,0.09879811 0.299829,0.18594688 0.08613,0.08614279 0.14684,0.18349899 0.184922,0.29654507 0.02395,0.071106 0.03563,0.13485838 0.03941,0.21516256 0.0014,0.029333 0.0019,0.50965116 0.0014,1.41283346 -6.75e-4,1.2734249 -9.69e-4,1.3702568 -0.0042,1.3952636 -0.0047,0.035754 -0.0091,0.061529 -0.01502,0.088048 -0.02544,0.1133659 -0.07655,0.2189968 -0.151425,0.3129613 -0.02479,0.031105 -0.08306,0.089588 -0.112994,0.1133961 -0.122703,0.097595 -0.249542,0.1497362 -0.411344,0.1690939 -0.01584,0.00189 -0.356463,0.00254 -1.456242,0.00275 -0.789565,1.53e-4 -1.441618,2.07e-5 -1.449007,-3.016e-4 z m 2.002979,-1.2150951 c 0.128349,-0.010801 0.238692,-0.032653 0.349332,-0.069181 0.04521,-0.014927 0.09299,-0.032899 0.107742,-0.040525 0.004,-0.00207 0.0078,-0.00667 0.01042,-0.012566 0.0039,-0.00889 0.004,-0.011015 0.0017,-0.047912 -0.0013,-0.021235 -0.0034,-0.04698 -0.0046,-0.057212 -0.0016,-0.01305 -0.0026,-0.292495 -0.0035,-0.9360429 l -0.0012,-0.91743935 -0.0049,-0.003951 c -0.0047,-0.003827 -0.01092,-0.003951 -0.196981,-0.003951 h -0.192101 l -0.0051,0.005074 -0.0051,0.005074 v 0.29057095 0.290573 l -0.01292,-0.00106 c -0.05825,-0.0048 -0.08084,-0.00567 -0.114172,-0.00443 -0.135419,0.00505 -0.236126,0.023882 -0.334897,0.062628 -0.255881,0.1003764 -0.436319,0.3295948 -0.471222,0.5986129 -0.0098,0.075304 -0.0072,0.1876596 0.0062,0.2713651 0.01465,0.091504 0.04447,0.176468 0.08618,0.2455484 0.06194,0.1025773 0.152498,0.1870786 0.25591,0.2387989 0.101907,0.050967 0.216632,0.081038 0.343077,0.089922 0.02493,0.00175 0.150075,-8.665e-4 0.186036,-0.00389 z M -13.236679,2.507151 c -0.02806,-0.00344 -0.06665,-0.011993 -0.09344,-0.020709 -0.124383,-0.040466 -0.200835,-0.1383887 -0.228189,-0.2922718 -0.0056,-0.031413 -0.0077,-0.1080449 -0.0041,-0.1472929 0.0063,-0.067886 0.02463,-0.1260645 0.05402,-0.1710339 0.06137,-0.093926 0.162023,-0.1582548 0.27997,-0.1789349 0.04778,-0.00838 0.124516,-0.00753 0.170532,0.00188 l 0.01757,0.00359 5.23e-4,0.3973533 5.22e-4,0.3973533 -0.0057,0.00222 c -0.01505,0.00588 -0.04001,0.00796 -0.106489,0.0089 -0.03899,5.482e-4 -0.07585,8.89e-5 -0.08524,-0.00106 z m -1.033605,0.3260042 c 0.0027,-0.0027 0.0059,-0.00851 0.0071,-0.012919 0.0016,-0.00567 0.0022,-0.2812386 0.0022,-0.9415561 1.1e-5,-0.818071 -3.65e-4,-0.934443 -0.003,-0.94083672 -0.0017,-0.004013 -0.0055,-0.009242 -0.0085,-0.0116212 -0.0055,-0.004315 -0.0059,-0.004325 -0.189912,-0.004325 -0.129638,0 -0.186367,6.8056e-4 -0.190987,0.002291 -0.0037,0.001282 -0.0079,0.00488 -0.0096,0.008166 -0.0027,0.005142 -0.003,0.12308112 -0.003,0.94655442 0,1.0075576 -5.7e-4,0.9508836 0.0096,0.9568099 0.0026,0.00153 0.06215,0.00223 0.192524,0.00228 l 0.188713,6.2e-5 0.0049,-0.0049 z"
         id="path2184" /></g></g></svg>
