<?xml version="1.0" encoding="UTF-8" standalone="no"?>
<!-- Created with Inkscape (http://www.inkscape.org/) -->

<svg
   width="16"
   height="16"
   viewBox="0 0 4.2333332 4.2333333"
   version="1.1"
   id="svg5"
   xml:space="preserve"
   inkscape:version="1.2.1 (9c6d41e4, 2022-07-14)"
   sodipodi:docname="ionic_logo.svg"
   xmlns:inkscape="http://www.inkscape.org/namespaces/inkscape"
   xmlns:sodipodi="http://sodipodi.sourceforge.net/DTD/sodipodi-0.dtd"
   xmlns="http://www.w3.org/2000/svg"
   xmlns:svg="http://www.w3.org/2000/svg"><sodipodi:namedview
     id="namedview7"
     pagecolor="#ffffff"
     bordercolor="#000000"
     borderopacity="0.25"
     inkscape:showpageshadow="2"
     inkscape:pageopacity="0.0"
     inkscape:pagecheckerboard="0"
     inkscape:deskcolor="#d1d1d1"
     inkscape:document-units="mm"
     showgrid="false"
     inkscape:zoom="14.75"
     inkscape:cx="1.4576271"
     inkscape:cy="5.3220339"
     inkscape:window-width="1680"
     inkscape:window-height="997"
     inkscape:window-x="0"
     inkscape:window-y="92"
     inkscape:window-maximized="0"
     inkscape:current-layer="layer1" /><defs
     id="defs2" /><g
     inkscape:label="Layer 1"
     inkscape:groupmode="layer"
     id="layer1"><path
       style="fill:#ffffff;fill-opacity:1;stroke-width:0.00206706"
       d="m -7.4736216,3.8372902 c -0.00257,-0.00328 -0.0025,-0.00335 7.804e-4,-7.805e-4 0.00344,0.0027 0.00454,0.0044 0.00284,0.0044 -4.292e-4,0 -0.00206,-0.00163 -0.00362,-0.00362 z M -4.510709,3.5976295 c 0.00201,-5.24e-4 0.0048,-4.897e-4 0.0062,7.65e-5 0.0014,5.662e-4 -2.46e-4,9.949e-4 -0.00366,9.529e-4 -0.00341,-4.13e-5 -0.00456,-5.054e-4 -0.00254,-0.00103 z m 0.1012858,0 c 0.00201,-5.24e-4 0.0048,-4.897e-4 0.0062,7.65e-5 0.0014,5.662e-4 -2.46e-4,9.949e-4 -0.00366,9.529e-4 -0.00341,-4.13e-5 -0.00456,-5.054e-4 -0.00254,-0.00103 z m -0.1477046,-0.00205 c 0.00149,-5.97e-4 0.00327,-5.237e-4 0.00396,1.634e-4 6.869e-4,6.869e-4 -5.341e-4,0.00118 -0.00271,0.00109 -0.00241,-9.93e-5 -0.0029,-5.891e-4 -0.00125,-0.00125 z m 0.1922363,0 c 0.00149,-5.97e-4 0.00327,-5.237e-4 0.00396,1.634e-4 6.869e-4,6.869e-4 -5.341e-4,0.00118 -0.00271,0.00109 -0.00241,-9.93e-5 -0.0029,-5.891e-4 -0.00125,-0.00125 z M -4.5199208,3.2689879 c 0.00149,-5.973e-4 0.00327,-5.238e-4 0.00396,1.633e-4 6.869e-4,6.868e-4 -5.341e-4,0.00118 -0.00271,0.00109 -0.00241,-9.92e-5 -0.0029,-5.891e-4 -0.00125,-0.00125 z m 0.088884,0 c 0.00149,-5.973e-4 0.00327,-5.238e-4 0.00396,1.633e-4 6.869e-4,6.868e-4 -5.341e-4,0.00118 -0.00271,0.00109 -0.00241,-9.92e-5 -0.0029,-5.891e-4 -0.00125,-0.00125 z m 0.709714,-0.1866902 c 0,-0.00284 4.693e-4,-0.004 0.00104,-0.00258 5.734e-4,0.00142 5.734e-4,0.00375 0,0.00517 -5.734e-4,0.00142 -0.00104,2.584e-4 -0.00104,-0.00258 z m -1.633e-4,-0.071486 c 9.93e-5,-0.00241 5.892e-4,-0.0029 0.00125,-0.00125 5.971e-4,0.00149 5.237e-4,0.00328 -1.633e-4,0.00396 -6.869e-4,6.869e-4 -0.00118,-5.342e-4 -0.00109,-0.00271 z m -0.4994547,-0.059256 -0.00817,-0.00878 0.00879,0.00817 c 0.00817,0.0076 0.00973,0.0094 0.00817,0.0094 -3.376e-4,0 -0.00429,-0.00395 -0.00879,-0.00879 z M -4.8339897,2.6032572 c -0.00257,-0.00328 -0.0025,-0.00335 7.806e-4,-7.806e-4 0.00199,0.00156 0.00362,0.00319 0.00362,0.00362 0,0.0017 -0.0017,6.062e-4 -0.0044,-0.00284 z M -4.9927262,2.2625373 c 9.92e-5,-0.00241 5.891e-4,-0.0029 0.00125,-0.00125 5.972e-4,0.00149 5.238e-4,0.00328 -1.633e-4,0.00396 -6.869e-4,6.867e-4 -0.00118,-5.343e-4 -0.00109,-0.00271 z m 1.633e-4,-0.06494 c 0,-0.00284 4.692e-4,-0.004 0.00104,-0.00258 5.734e-4,0.00142 5.734e-4,0.00375 0,0.00517 -5.734e-4,0.00142 -0.00104,2.582e-4 -0.00104,-0.00258 z m 1.1912901,-0.2521811 c 0,-0.1062984 2.511e-4,-0.1497842 5.583e-4,-0.096635 3.07e-4,0.053149 3.07e-4,0.1401207 0,0.1932699 -3.072e-4,0.053149 -5.583e-4,0.00966 -5.583e-4,-0.096635 z m -0.4830035,0.064734 c 0.00149,-5.971e-4 0.00328,-5.238e-4 0.00396,1.634e-4 6.868e-4,6.869e-4 -5.342e-4,0.00118 -0.00271,0.00109 -0.00241,-9.92e-5 -0.0029,-5.891e-4 -0.00125,-0.00125 z m 0.082682,0 c 0.00149,-5.971e-4 0.00328,-5.238e-4 0.00396,1.634e-4 6.869e-4,6.869e-4 -5.341e-4,0.00118 -0.00271,0.00109 -0.00241,-9.92e-5 -0.0029,-5.891e-4 -0.00125,-0.00125 z M -4.3524892,1.6835549 c 0.00149,-5.971e-4 0.00328,-5.237e-4 0.00396,1.631e-4 6.868e-4,6.869e-4 -5.342e-4,0.00118 -0.00271,0.00109 -0.00241,-9.92e-5 -0.0029,-5.89e-4 -0.00125,-0.00125 z m 0.039145,-0.00202 c 0.00142,-5.734e-4 0.00375,-5.734e-4 0.00517,0 0.00142,5.735e-4 2.584e-4,0.00104 -0.00258,0.00104 -0.00284,0 -0.004,-4.691e-4 -0.00258,-0.00104 z m 0.1075112,-9.3e-5 c 0.00257,-4.944e-4 0.00629,-4.756e-4 0.00827,4.18e-5 0.00198,5.173e-4 -1.281e-4,9.219e-4 -0.00468,8.988e-4 -0.00455,-2.29e-5 -0.00616,-4.462e-4 -0.00359,-9.406e-4 z"
       id="path261" /><path
       style="fill:#b9b9b9;fill-opacity:1;stroke-width:0.00206706"
       d="m -3.5046081,3.835993 c 0,-4.291e-4 0.00163,-0.00206 0.00362,-0.00362 0.00328,-0.00257 0.00335,-0.0025 7.805e-4,7.805e-4 -0.0027,0.00344 -0.0044,0.00454 -0.0044,0.00284 z m -3.9752147,-0.0049 c -0.00257,-0.00328 -0.0025,-0.00335 7.805e-4,-7.806e-4 0.00344,0.0027 0.00454,0.0044 0.00284,0.0044 -4.293e-4,0 -0.00206,-0.00163 -0.00362,-0.00362 z m -0.014469,-0.014469 c -0.00257,-0.00328 -0.0025,-0.00335 7.805e-4,-7.805e-4 0.00344,0.0027 0.00454,0.0044 0.00284,0.0044 -4.293e-4,0 -0.00206,-0.00163 -0.00362,-0.00362 z m 4.0062205,0.00284 c 0,-4.291e-4 0.00163,-0.00206 0.00362,-0.00362 0.00328,-0.00257 0.00335,-0.0025 7.805e-4,7.806e-4 -0.0027,0.00344 -0.0044,0.00454 -0.0044,0.00284 z M -4.5231506,3.5976371 c 0.00199,-5.201e-4 0.00525,-5.201e-4 0.00723,0 0.00199,5.199e-4 3.618e-4,9.453e-4 -0.00362,9.453e-4 -0.00398,0 -0.00561,-4.254e-4 -0.00362,-9.453e-4 z m 0.1240627,0 c 0.00201,-5.239e-4 0.0048,-4.897e-4 0.0062,7.66e-5 0.0014,5.66e-4 -2.46e-4,9.948e-4 -0.00366,9.529e-4 -0.00341,-4.14e-5 -0.00456,-5.054e-4 -0.00254,-0.00103 z m -0.1642411,-0.00205 c 0.00149,-5.973e-4 0.00327,-5.238e-4 0.00396,1.632e-4 6.869e-4,6.869e-4 -5.341e-4,0.00118 -0.00271,0.00109 -0.00241,-9.92e-5 -0.0029,-5.891e-4 -0.00125,-0.00125 z m 0.2046387,0 c 0.00149,-5.973e-4 0.00327,-5.238e-4 0.00396,1.632e-4 6.869e-4,6.869e-4 -5.341e-4,0.00118 -0.00271,0.00109 -0.00241,-9.92e-5 -0.0029,-5.891e-4 -0.00125,-0.00125 z M -6.1023851,2.8192724 -6.102899,2.0632541 -6.3669656,2.0627217 -6.6310321,2.062189 -6.3669007,2.0616803 c 0.2097795,-4.041e-4 0.2643333,2.28e-5 0.2651122,0.00207 5.395e-4,0.00142 7.415e-4,0.342098 4.491e-4,0.7570597 l -5.317e-4,0.7544758 z m 1.5885363,0.4497585 c 0.00142,-5.735e-4 0.00375,-5.735e-4 0.00517,0 0.00142,5.733e-4 2.584e-4,0.00104 -0.00258,0.00104 -0.00284,0 -0.004,-4.691e-4 -0.00258,-0.00104 z m 0.074414,0 c 0.00142,-5.735e-4 0.00375,-5.735e-4 0.00517,0 0.00142,5.733e-4 2.584e-4,0.00104 -0.00258,0.00104 -0.00284,0 -0.004,-4.691e-4 -0.00258,-0.00104 z m 0.7179487,-0.2644201 c 9.93e-5,-0.00241 5.892e-4,-0.0029 0.00125,-0.00125 5.971e-4,0.00149 5.237e-4,0.00327 -1.633e-4,0.00396 -6.869e-4,6.869e-4 -0.00118,-5.342e-4 -0.00109,-0.00271 z m -0.1387156,-0.3166042 -0.013376,-0.013953 0.013953,0.013376 c 0.01296,0.012424 0.014898,0.014529 0.013376,0.014529 -3.171e-4,0 -0.0066,-0.00628 -0.013953,-0.013952 z m -1.010995,-0.1219565 c -0.00257,-0.00328 -0.0025,-0.00335 7.805e-4,-7.804e-4 0.00344,0.0027 0.00454,0.0044 0.00284,0.0044 -4.292e-4,0 -0.00206,-0.00163 -0.00362,-0.00362 z m 0.3773053,-0.2449462 -0.00394,-0.00465 0.00465,0.00394 c 0.00437,0.0037 0.00559,0.00536 0.00394,0.00536 -3.923e-4,0 -0.00249,-0.00209 -0.00465,-0.00465 z m -0.011436,-0.011369 c -0.00257,-0.00328 -0.0025,-0.00335 7.805e-4,-7.806e-4 0.00344,0.0027 0.00454,0.0044 0.00284,0.0044 -4.291e-4,0 -0.00206,-0.00163 -0.00362,-0.00362 z m -0.4872355,-0.039791 c 0,-0.00284 4.692e-4,-0.004 0.00104,-0.00258 5.734e-4,0.00142 5.734e-4,0.00375 0,0.00517 -5.734e-4,0.00142 -0.00104,2.582e-4 -0.00104,-0.00258 z m -1.633e-4,-0.079754 c 9.92e-5,-0.00241 5.891e-4,-0.0029 0.00125,-0.00125 5.972e-4,0.00149 5.238e-4,0.00328 -1.633e-4,0.00396 -6.869e-4,6.868e-4 -0.00118,-5.343e-4 -0.00109,-0.00271 z M -5.5482503,2.0616883 c 0.073701,-3.009e-4 0.1936942,-3.009e-4 0.2666504,3e-7 0.072956,3.009e-4 0.012655,5.472e-4 -0.1340026,5.472e-4 -0.1466577,0 -0.2063492,-2.464e-4 -0.1326478,-5.475e-4 z m 1.2701752,-0.051538 c 0.00149,-5.972e-4 0.00327,-5.238e-4 0.00396,1.633e-4 6.869e-4,6.869e-4 -5.341e-4,0.00118 -0.00271,0.00109 -0.00241,-9.92e-5 -0.0029,-5.891e-4 -0.00125,-0.00125 z m 0.07028,0 c 0.00149,-5.972e-4 0.00328,-5.238e-4 0.00396,1.633e-4 6.868e-4,6.869e-4 -5.342e-4,0.00118 -0.00271,0.00109 -0.00241,-9.92e-5 -0.0029,-5.891e-4 -0.00125,-0.00125 z m 0.059945,-0.3265951 c 0.00149,-5.971e-4 0.00327,-5.237e-4 0.00396,1.631e-4 6.869e-4,6.869e-4 -5.341e-4,0.00118 -0.00271,0.00109 -0.00241,-9.92e-5 -0.0029,-5.89e-4 -0.00125,-0.00125 z m -0.173762,-0.00202 c 0.00142,-5.734e-4 0.00375,-5.734e-4 0.00517,0 0.00142,5.735e-4 2.584e-4,0.00104 -0.00258,0.00104 -0.00284,0 -0.004,-4.691e-4 -0.00258,-0.00104 z m 0.1292304,-6.34e-5 c 0.00201,-5.241e-4 0.0048,-4.897e-4 0.0062,7.67e-5 0.0014,5.662e-4 -2.46e-4,9.95e-4 -0.00366,9.529e-4 -0.00341,-4.22e-5 -0.00456,-5.054e-4 -0.00254,-0.00103 z m -3.3037139,-1.83696621 c 0,-4.2923e-4 0.00163,-0.002057 0.00362,-0.003617 0.00328,-0.002571 0.00335,-0.002498 7.805e-4,7.8043e-4 -0.0027,0.003443 -0.0044,0.004538 -0.0044,0.002837 z m 4.0098272,-0.002837 c -0.00257,-0.003278 -0.0025,-0.003352 7.805e-4,-7.8043e-4 0.00344,0.0027 0.00454,0.004398 0.00284,0.004398 -4.292e-4,0 -0.00206,-0.001628 -0.00362,-0.003618 z m -3.9932907,-0.0136995 c 0,-4.2924e-4 0.00163,-0.002057 0.00362,-0.003617 0.00328,-0.002571 0.00335,-0.002498 7.804e-4,7.8042e-4 -0.0027,0.003443 -0.0044,0.004538 -0.0044,0.002837 z m 3.9767543,-0.002837 c -0.00257,-0.003278 -0.0025,-0.003352 7.805e-4,-7.8042e-4 0.00199,0.00156 0.00362,0.003188 0.00362,0.003617 0,0.001701 -0.0017,6.0627e-4 -0.0044,-0.002837 z"
       id="path259" /><path
       style="fill:#a3a3a3;fill-opacity:1;stroke-width:0.00206706"
       d="m -3.4942729,3.8254047 c 0.00267,-0.00284 0.00532,-0.00517 0.00589,-0.00517 5.684e-4,0 -0.00115,0.00233 -0.00382,0.00517 -0.00267,0.00284 -0.00532,0.00517 -0.00589,0.00517 -5.685e-4,0 0.00115,-0.00233 0.00382,-0.00517 z m -3.9927173,-0.00155 -0.00394,-0.00465 0.00465,0.00394 c 0.00437,0.0037 0.00559,0.00536 0.00394,0.00536 -3.922e-4,0 -0.00249,-0.00209 -0.00465,-0.00465 z M -4.5324523,3.597693 c 0.00142,-5.734e-4 0.00375,-5.734e-4 0.00517,0 0.00142,5.734e-4 2.584e-4,0.00104 -0.00258,0.00104 -0.00284,0 -0.004,-4.692e-4 -0.00258,-0.00104 z m 0.1426269,0 c 0.00142,-5.734e-4 0.00375,-5.734e-4 0.00517,0 0.00142,5.734e-4 2.583e-4,0.00104 -0.00258,0.00104 -0.00284,0 -0.004,-4.692e-4 -0.00258,-0.00104 z m -0.1797048,-0.00211 c 0.00149,-5.97e-4 0.00328,-5.237e-4 0.00396,1.634e-4 6.868e-4,6.869e-4 -5.342e-4,0.00118 -0.00271,0.00109 -0.00241,-9.93e-5 -0.0029,-5.891e-4 -0.00125,-0.00125 z M -4.9857354,3.4951924 c -5.418e-4,-0.00142 -7.45e-4,-0.095136 -4.517e-4,-0.208256 l 5.329e-4,-0.2056722 0.00103,0.2082562 c 5.685e-4,0.1145408 7.717e-4,0.208256 4.517e-4,0.208256 -3.198e-4,-2e-7 -0.00102,-0.00116 -0.00157,-0.00258 z m 0.4801548,-0.2261615 c 0.00142,-5.735e-4 0.00375,-5.735e-4 0.00517,0 0.00142,5.733e-4 2.583e-4,0.00104 -0.00258,0.00104 -0.00284,0 -0.004,-4.691e-4 -0.00258,-0.00104 z m 0.057878,0 c 0.00142,-5.735e-4 0.00375,-5.735e-4 0.00517,0 0.00142,5.733e-4 2.583e-4,0.00104 -0.00258,0.00104 -0.00284,0 -0.004,-4.691e-4 -0.00258,-0.00104 z m -0.090821,-0.00211 c 0.00149,-5.973e-4 0.00327,-5.238e-4 0.00396,1.631e-4 6.869e-4,6.869e-4 -5.341e-4,0.00118 -0.00271,0.00109 -0.00241,-9.92e-5 -0.0029,-5.891e-4 -0.00125,-0.00125 z m 0.8170375,-0.1734266 c 9.93e-5,-0.00241 5.892e-4,-0.0029 0.00125,-0.00125 5.971e-4,0.00149 5.237e-4,0.00328 -1.633e-4,0.00396 -6.869e-4,6.869e-4 -0.00118,-5.342e-4 -0.00109,-0.00271 z M -3.8438693,2.7045429 c -0.00257,-0.00328 -0.0025,-0.00335 7.805e-4,-7.804e-4 0.00199,0.00156 0.00362,0.00319 0.00362,0.00362 0,0.0017 -0.0017,6.063e-4 -0.0044,-0.00284 z m -0.033073,-0.033073 c -0.00257,-0.00328 -0.0025,-0.00335 7.805e-4,-7.804e-4 0.00199,0.00156 0.00362,0.00319 0.00362,0.00362 0,0.0017 -0.0017,6.063e-4 -0.0044,-0.00284 z M -4.2720031,2.010193 c 0.00142,-5.733e-4 0.00375,-5.733e-4 0.00517,0 0.00142,5.735e-4 2.584e-4,0.00104 -0.00258,0.00104 -0.00284,0 -0.004,-4.692e-4 -0.00258,-0.00104 z m 0.055811,0 c 0.00142,-5.733e-4 0.00375,-5.733e-4 0.00517,0 0.00142,5.735e-4 2.583e-4,0.00104 -0.00258,0.00104 -0.00284,0 -0.004,-4.692e-4 -0.00258,-0.00104 z M -4.8543965,1.8741027 c 0.00386,-0.00398 0.00748,-0.00723 0.00805,-0.00723 5.685e-4,0 -0.00212,0.00326 -0.00598,0.00723 -0.00386,0.00398 -0.00748,0.00723 -0.00805,0.00723 -5.685e-4,0 0.00212,-0.00326 0.00598,-0.00723 z m 0.491572,-0.1905478 c 0.00149,-5.971e-4 0.00328,-5.237e-4 0.00396,1.631e-4 6.869e-4,6.869e-4 -5.341e-4,0.00118 -0.00271,0.00109 -0.00241,-9.92e-5 -0.0029,-5.89e-4 -0.00125,-0.00125 z m 0.2211752,0 c 0.00149,-5.971e-4 0.00327,-5.237e-4 0.00396,1.631e-4 6.869e-4,6.869e-4 -5.341e-4,0.00118 -0.00271,0.00109 -0.00241,-9.92e-5 -0.0029,-5.89e-4 -0.00125,-0.00125 z m -0.1882314,-0.00202 c 0.00142,-5.734e-4 0.00375,-5.734e-4 0.00517,0 0.00142,5.735e-4 2.584e-4,0.00104 -0.00258,0.00104 -0.00284,0 -0.004,-4.691e-4 -0.00258,-0.00104 z m 0.1468902,-4.3e-5 c 0.00149,-5.971e-4 0.00328,-5.237e-4 0.00396,1.631e-4 6.868e-4,6.869e-4 -5.342e-4,0.00118 -0.00271,0.00109 -0.00241,-9.92e-5 -0.0029,-5.89e-4 -0.00125,-0.00125 z m -3.3027698,-1.84757059 c 0.00267,-0.002842 0.00532,-0.005168 0.00589,-0.005168 5.685e-4,0 -0.00115,0.002325 -0.00382,0.005168 -0.00267,0.002842 -0.00532,0.005168 -0.00589,0.005168 -5.684e-4,0 0.00115,-0.002325 0.00382,-0.005168 z m 3.991331,-5.1677e-4 -0.00501,-0.005684 0.00568,0.005011 c 0.00313,0.002756 0.00568,0.005314 0.00568,0.005684 0,0.001621 -0.00167,3.0174e-4 -0.00636,-0.005011 z"
       id="path257" /><g
       id="g308"
       transform="translate(-0.00196257,-3.2453038e-4)"
       style="fill:#3880ff;fill-opacity:1"><path
         style="fill:#3880ff;fill-opacity:1;stroke-width:0.0135684"
         d="m 0.59598169,3.5990117 -0.032894,-0.037313 0.037313,0.032894 c 0.0348747,0.030744 0.0435353,0.041732 0.032894,0.041732 -0.00243,0 -0.0192213,-0.016791 -0.037313,-0.037313 z m 0.001027,-2.96808214 c 0.0175269,-0.0186565 0.0349199,-0.0339209 0.0386512,-0.0339209 0.003731,0 -0.007556,0.0152644 -0.0250829,0.0339209 -0.0175269,0.0186565 -0.03492,0.0339209 -0.0386513,0.0339209 -0.003731,0 0.007556,-0.0152644 0.025083,-0.0339209 z"
         id="path314" /><path
         style="fill:#3880ff;fill-opacity:1;stroke-width:0.0135684"
         d="m 1.9241653,4.2240645 c 0.00979,-0.00392 0.021497,-0.00344 0.026006,0.00107 0.00451,0.00451 -0.00351,0.00772 -0.017809,0.00713 -0.015806,-6.512e-4 -0.019022,-0.00387 -0.0082,-0.0082 z M 2.0725694,3.721488 c 0.024253,-0.00301 0.063941,-0.00301 0.088195,0 0.024253,0.00301 0.00441,0.00547 -0.044097,0.00547 -0.048507,0 -0.068351,-0.00246 -0.044097,-0.00547 z M 0.50623442,2.0827457 c 7.598e-5,-0.044776 0.002609,-0.061457 0.005629,-0.03707 0.00302,0.024387 0.002957,0.061022 -1.384e-4,0.08141 -0.003096,0.020389 -0.005567,4.355e-4 -0.005491,-0.04434 z m 3.21257178,0.039575 c 6.513e-4,-0.015807 0.00387,-0.019022 0.0082,-0.0082 0.00392,0.00979 0.00344,0.021497 -0.00107,0.026006 -0.00451,0.00451 -0.00772,-0.00351 -0.00713,-0.017809 z M 4.2208361,1.9459313 c 6.512e-4,-0.015807 0.00387,-0.019022 0.0082,-0.0082 0.00392,0.00979 0.00344,0.021497 -0.00107,0.026006 -0.00451,0.00451 -0.00772,-0.00351 -0.00713,-0.017808 z M 3.4770829,1.3199645 c 0.020625,-0.00312 0.051153,-0.00304 0.067842,1.852e-4 0.016688,0.00322 -1.872e-4,0.00577 -0.0375,0.00567 -0.037313,-1.017e-4 -0.050967,-0.00274 -0.030342,-0.00586 z M 3.9653874,0.86159194 c 1.506e-4,-0.0298504 0.00293,-0.0404643 0.00617,-0.0235865 0.00325,0.0168779 0.00312,0.041301 -2.741e-4,0.0542735 -0.0034,0.0129726 -0.00605,-8.3661e-4 -0.0059,-0.030687 z M 1.9241653,0.00429974 c 0.00979,-0.003919506 0.021497,-0.003437472 0.026006,0.00107119 0.00451,0.00450865 -0.00351,0.00771552 -0.017809,0.00712637 -0.015806,-6.5106e-4 -0.019022,-0.00386618 -0.0082,-0.00819756 z"
         id="path312" /><path
         style="fill:#3880ff;fill-opacity:1;stroke-width:0.0135684"
         d="M 1.8600941,4.2191403 C 1.1570887,4.130754 0.53571802,3.6902556 0.22453353,3.0596687 0.13027485,2.8686621 0.08511196,2.737703 0.03864412,2.5206439 -0.00501546,2.3167025 -0.0055433,1.8990143 0.03760885,1.7014193 0.08185036,1.4988363 0.12723058,1.3704509 0.22415373,1.1736646 0.51073914,0.59180072 1.051687,0.17870141 1.7096154,0.03927934 1.9209165,-0.00549763 2.3065953,-0.00604577 2.5169337,0.03813196 2.7943405,0.09639614 3.0458552,0.19766846 3.2580492,0.33654189 l 0.1034019,0.0676728 0.1204763,-0.001015 c 0.1561054,-0.001314 0.2504286,0.0333328 0.34314,0.1260442 0.096921,0.0969206 0.1289691,0.17188063 0.1347808,0.3152463 0.00441,0.10875832 0.00143,0.12579813 -0.03595,0.20567801 -0.046852,0.1001215 -0.1255794,0.1827283 -0.2171157,0.227816 -0.053671,0.026437 -0.084988,0.031364 -0.1993576,0.031364 -0.1588951,0 -0.2316598,-0.02742 -0.3277443,-0.1235046 -0.07835,-0.07835 -0.1146186,-0.1557207 -0.132916,-0.28354665 l -0.015538,-0.108547 -0.080758,-0.049885 C 2.8361794,0.67326707 2.6595315,0.59831297 2.5169337,0.55991015 2.3479194,0.51439312 1.9983111,0.50162801 1.830554,0.53484864 1.4823986,0.60379323 1.1892568,0.76186534 0.95705593,1.0058687 0.79526907,1.175879 0.69515858,1.3322097 0.61044486,1.5471302 0.46075781,1.9268892 0.47899371,2.4139142 0.65696802,2.7896216 0.87009636,3.2395399 1.2495004,3.5551494 1.7231838,3.6765597 2.1888198,3.7959074 2.6893554,3.6939584 3.08071,3.4000591 3.4043528,3.1570103 3.6286206,2.7950378 3.6983064,2.4032468 3.7347574,2.1983093 3.7231282,1.9021193 3.6704854,1.6946595 c -0.00864,-0.034046 -0.00638,-0.035614 0.063122,-0.043845 0.096551,-0.011435 0.2234095,-0.075962 0.3109889,-0.158186 0.039457,-0.037044 0.073858,-0.065234 0.076448,-0.062645 0.00259,0.00259 0.022166,0.074198 0.043504,0.1591305 0.1148376,0.4570905 0.080485,0.9264782 -0.098668,1.348192 C 3.7932788,3.5789926 3.2361046,4.036754 2.5440705,4.18759 2.3734098,4.2247873 2.0307338,4.2405941 1.8600941,4.2191403 Z M 1.8881893,3.0117386 C 1.7656552,2.9796422 1.5975846,2.8916598 1.5063552,2.8118546 1.3716832,2.6940468 1.2517852,2.4888901 1.2143578,2.3122201 1.0925612,1.7372986 1.53095,1.1940171 2.1166667,1.1940171 c 0.50869,0 0.9221783,0.4136997 0.9221783,0.9226496 0,0.421918 -0.2876462,0.7904851 -0.6990472,0.8957038 C 2.2032087,3.047304 2.023004,3.0470519 1.8881893,3.0117382 Z"
         id="path310" /></g></g></svg>
