<?xml version="1.0" encoding="UTF-8" standalone="no"?>
<!-- Created with Inkscape (http://www.inkscape.org/) -->

<svg
   width="16"
   height="16"
   viewBox="0 0 4.2333332 4.2333333"
   version="1.1"
   id="svg5"
   xml:space="preserve"
   inkscape:version="1.2.1 (9c6d41e4, 2022-07-14)"
   sodipodi:docname="nestjs_logo.svg"
   xmlns:inkscape="http://www.inkscape.org/namespaces/inkscape"
   xmlns:sodipodi="http://sodipodi.sourceforge.net/DTD/sodipodi-0.dtd"
   xmlns="http://www.w3.org/2000/svg"
   xmlns:svg="http://www.w3.org/2000/svg"><sodipodi:namedview
     id="namedview7"
     pagecolor="#ffffff"
     bordercolor="#000000"
     borderopacity="0.25"
     inkscape:showpageshadow="2"
     inkscape:pageopacity="0.0"
     inkscape:pagecheckerboard="0"
     inkscape:deskcolor="#d1d1d1"
     inkscape:document-units="mm"
     showgrid="false"
     inkscape:zoom="14.75"
     inkscape:cx="-4.9830508"
     inkscape:cy="5.3898305"
     inkscape:window-width="1680"
     inkscape:window-height="997"
     inkscape:window-x="0"
     inkscape:window-y="92"
     inkscape:window-maximized="0"
     inkscape:current-layer="layer1" /><defs
     id="defs2" /><g
     inkscape:label="Layer 1"
     inkscape:groupmode="layer"
     id="layer1"><path
       style="fill:#e0234e;fill-opacity:1;stroke-width:0.00826823"
       d="m 2.0353944,4.1951721 c 0.020464,-0.012145 0.075738,-0.044938 0.1228317,-0.072873 0.1008013,-0.059793 0.2281217,-0.1591133 0.3166245,-0.246992 0.063904,-0.063453 0.1820185,-0.1979383 0.1776663,-0.2022904 -0.0013,-0.0013 -0.074638,0.021501 -0.1629793,0.050661 -0.1679779,0.055448 -0.2644806,0.079113 -0.322618,0.079113 h -0.034537 l 0.023853,-0.018037 c 0.1786666,-0.135108 0.2826712,-0.2642152 0.3633315,-0.4510268 0.066281,-0.1535084 0.095874,-0.3434964 0.078841,-0.5061662 -0.00526,-0.050265 -0.011908,-0.097486 -0.014768,-0.1049371 -0.0031,-0.00807 -0.012802,0.017833 -0.02401,0.064088 C 2.4906591,3.0713589 2.2815831,3.3434023 2.0359555,3.468102 1.9568435,3.508266 1.9020334,3.528387 1.8041207,3.55321 1.7234897,3.573652 1.7045597,3.575257 1.5475675,3.574967 1.3906402,3.5746769 1.3720905,3.573027 1.2974584,3.552774 1.2173564,3.531032 1.0789376,3.474576 1.0473802,3.4507767 1.0252892,3.4341157 1.0372982,3.4269297 1.1170762,3.4090697 l 0.061468,-0.013761 -0.029448,-0.023624 C 1.1092652,3.3397317 1.0579172,3.2718007 1.0279925,3.2114705 0.9879075,3.1306565 0.9750315,3.0669459 0.9784325,2.9662478 c 0.00295,-0.087432 0.00329,-0.088721 0.035944,-0.1361276 0.062677,-0.091003 0.1595079,-0.1415681 0.2558083,-0.1335822 0.085302,0.00707 0.1209456,0.059483 0.093588,0.1376072 -0.032457,0.092687 -0.026127,0.1418589 0.025865,0.2009252 0.038827,0.04411 0.1019633,0.076578 0.1744812,0.089728 l 0.053638,0.00973 0.022964,-0.027507 c 0.0284,-0.034018 0.091698,-0.1558725 0.1059169,-0.203897 0.015557,-0.052547 0.024463,-0.026789 0.026551,0.076799 9.647e-4,0.047841 0.00423,0.086987 0.00726,0.086991 0.016291,2.49e-5 0.1024274,-0.1113239 0.135187,-0.1747526 0.035706,-0.069132 0.039352,-0.073282 0.064333,-0.073206 0.05599,1.704e-4 0.1423949,0.057464 0.180685,0.1198086 l 0.015234,0.024805 -9.84e-5,-0.024805 C 2.1756535,2.9034874 2.1474995,2.7746266 2.1261015,2.7113215 2.0664645,2.5348885 1.9546138,2.3578392 1.8129675,2.2156606 1.6353553,2.0373813 1.4362539,1.9286797 1.183767,1.8721421 1.086712,1.8504091 0.83487234,1.8458381 0.71692204,1.8636721 l -0.093862,0.014189 -0.04595,0.063819 c -0.025272,0.0351 -0.05375,0.070878 -0.063283,0.079505 -0.027286,0.024694 -0.034276,0.0037 -0.030347,-0.091143 l 0.00343,-0.082682 -0.017439,0.024084 c -0.048172,0.06653 -0.067873,0.090644 -0.076331,0.093427 -0.01263,0.00416 -0.019404,-0.025085 -0.019563,-0.084438 l -1.322e-4,-0.049611 -0.045641,-0.023848 c -0.0611442,-0.031949 -0.1226326,-0.100423 -0.1448194,-0.1612727 -0.013942,-0.038238 -0.023134,-0.050764 -0.044847,-0.061119 -0.064033,-0.030535 -0.1209519,-0.1018535 -0.1321235,-0.1655482 -0.011403,-0.065014 0.031876,-0.1597286 0.1018902,-0.222982 0.054472,-0.049212 0.1064229,-0.070741 0.2036305,-0.084386 0.1644029,-0.023078 0.2405253,-0.068926 0.4474798,-0.26951081 0.086209,-0.0835563 0.1558534,-0.14327156 0.1970083,-0.16892225 0.12300886,-0.0766681 0.27823436,-0.12830567 0.47579446,-0.1582786 0.1157472,-0.0175607 0.4011831,-0.0197901 0.5250325,-0.004101 0.200552,0.0254059 0.420172,0.0837752 0.5443989,0.14468726 l 0.056574,0.0277396 -0.00467,-0.0256757 C 2.5233236,0.49345532 2.5489726,0.42436128 2.6739671,0.33209723 2.7894375,0.24686663 2.8364311,0.18775382 2.8379972,0.12576549 c 0.0013,-0.0515821 0.00619,-0.0533729 0.069699,-0.0255171 0.2464274,0.10809386 0.4073104,0.32409339 0.442382,0.59393646 0.04255,0.32738345 -0.1386191,0.63932675 -0.4418149,0.76073225 -0.057084,0.022857 -0.1594499,0.051687 -0.2114069,0.059539 -0.017589,0.00266 -0.015124,0.00487 0.016536,0.014852 0.026023,0.0082 0.078217,0.011651 0.1736328,0.011472 0.1249819,-2.348e-4 0.1426421,-0.00216 0.210532,-0.023012 0.1278543,-0.03926 0.2239952,-0.097107 0.3213631,-0.1933598 0.099474,-0.098335 0.1726823,-0.2290159 0.200338,-0.35761567 0.027256,-0.12673881 0.015709,-0.12323705 0.091753,-0.027825 0.088252,0.11072887 0.1317753,0.17231037 0.196509,0.27804257 0.2167092,0.3539598 0.3216155,0.7079039 0.3216155,1.0851019 0,0.2946128 -0.063575,0.5651767 -0.1940445,0.8258132 -0.048325,0.096539 -0.1220277,0.2188533 -0.1417228,0.2351988 -0.00779,0.00646 -0.010112,-0.026994 -0.010428,-0.1501432 -2.943e-4,-0.114593 -0.00451,-0.1813496 -0.015235,-0.2411426 -0.014553,-0.081148 -0.029834,-0.1204961 -0.029834,-0.076822 0,0.035492 -0.053575,0.2362195 -0.086709,0.3248687 -0.1151706,0.3081355 -0.3231795,0.5730759 -0.6137789,0.7817687 -0.042818,0.03075 -0.043403,0.032587 0.025789,-0.08102 0.052274,-0.085828 0.1014575,-0.1828461 0.1328443,-0.2620427 0.021038,-0.053085 0.088939,-0.3031997 0.083727,-0.3084118 -0.00127,-0.00127 -0.023009,0.028816 -0.048319,0.066847 C 3.2251408,3.576735 3.0635764,3.7531212 2.9217659,3.8642668 2.678041,4.055289 2.3782121,4.1740533 2.0436659,4.2120884 l -0.045475,0.00517 z m 0.438584,-3.63352748 c -0.030954,-0.0693328 -0.02842,-0.1355492 0.00823,-0.21497396 0.025186,-0.0545851 0.028589,-0.0699334 0.028415,-0.12815756 C 2.5104001,0.143422 2.5002964,0.11823152 2.4473704,0.06081377 l -0.033109,-0.0359189 0.022119,-0.005552 c 0.035424,-0.008891 0.1218916,0.00131 0.1621825,0.019132 0.05025,0.0222281 0.097727,0.0654489 0.1159454,0.10555282 0.024015,0.0528618 0.020437,0.0651688 -0.031732,0.10914846 -0.1521779,0.12828717 -0.176544,0.16530991 -0.1837603,0.2792079 l -0.00473,0.0747354 z"
       id="path10686" /></g></svg>
