<?xml version="1.0" encoding="UTF-8" standalone="no"?>
<!-- Created with Inkscape (http://www.inkscape.org/) -->

<svg
   width="16"
   height="16"
   viewBox="0 0 4.2333332 4.2333333"
   version="1.1"
   id="svg5"
   xml:space="preserve"
   inkscape:version="1.2.1 (9c6d41e4, 2022-07-14)"
   sodipodi:docname="ngrx_logo.svg"
   xmlns:inkscape="http://www.inkscape.org/namespaces/inkscape"
   xmlns:sodipodi="http://sodipodi.sourceforge.net/DTD/sodipodi-0.dtd"
   xmlns="http://www.w3.org/2000/svg"
   xmlns:svg="http://www.w3.org/2000/svg"><sodipodi:namedview
     id="namedview7"
     pagecolor="#ffffff"
     bordercolor="#000000"
     borderopacity="0.25"
     inkscape:showpageshadow="2"
     inkscape:pageopacity="0.0"
     inkscape:pagecheckerboard="0"
     inkscape:deskcolor="#d1d1d1"
     inkscape:document-units="mm"
     showgrid="false"
     inkscape:zoom="14.75"
     inkscape:cx="7.6949153"
     inkscape:cy="10.305085"
     inkscape:window-width="1680"
     inkscape:window-height="1050"
     inkscape:window-x="0"
     inkscape:window-y="67"
     inkscape:window-maximized="0"
     inkscape:current-layer="layer1" /><defs
     id="defs2" /><g
     inkscape:label="Layer 1"
     inkscape:groupmode="layer"
     id="layer1"><path
       style="fill:#ffffff;fill-opacity:1;stroke-width:0.00206706"
       d="m -7.4736216,3.8372902 c -0.00257,-0.00328 -0.0025,-0.00335 7.804e-4,-7.805e-4 0.00344,0.0027 0.00454,0.0044 0.00284,0.0044 -4.292e-4,0 -0.00206,-0.00163 -0.00362,-0.00362 z M -4.510709,3.5976295 c 0.00201,-5.24e-4 0.0048,-4.897e-4 0.0062,7.65e-5 0.0014,5.662e-4 -2.46e-4,9.949e-4 -0.00366,9.529e-4 -0.00341,-4.13e-5 -0.00456,-5.054e-4 -0.00254,-0.00103 z m 0.1012858,0 c 0.00201,-5.24e-4 0.0048,-4.897e-4 0.0062,7.65e-5 0.0014,5.662e-4 -2.46e-4,9.949e-4 -0.00366,9.529e-4 -0.00341,-4.13e-5 -0.00456,-5.054e-4 -0.00254,-0.00103 z m -0.1477046,-0.00205 c 0.00149,-5.97e-4 0.00327,-5.237e-4 0.00396,1.634e-4 6.869e-4,6.869e-4 -5.341e-4,0.00118 -0.00271,0.00109 -0.00241,-9.93e-5 -0.0029,-5.891e-4 -0.00125,-0.00125 z m 0.1922363,0 c 0.00149,-5.97e-4 0.00327,-5.237e-4 0.00396,1.634e-4 6.869e-4,6.869e-4 -5.341e-4,0.00118 -0.00271,0.00109 -0.00241,-9.93e-5 -0.0029,-5.891e-4 -0.00125,-0.00125 z M -4.5199208,3.2689879 c 0.00149,-5.973e-4 0.00327,-5.238e-4 0.00396,1.633e-4 6.869e-4,6.868e-4 -5.341e-4,0.00118 -0.00271,0.00109 -0.00241,-9.92e-5 -0.0029,-5.891e-4 -0.00125,-0.00125 z m 0.088884,0 c 0.00149,-5.973e-4 0.00327,-5.238e-4 0.00396,1.633e-4 6.869e-4,6.868e-4 -5.341e-4,0.00118 -0.00271,0.00109 -0.00241,-9.92e-5 -0.0029,-5.891e-4 -0.00125,-0.00125 z m 0.709714,-0.1866902 c 0,-0.00284 4.693e-4,-0.004 0.00104,-0.00258 5.734e-4,0.00142 5.734e-4,0.00375 0,0.00517 -5.734e-4,0.00142 -0.00104,2.584e-4 -0.00104,-0.00258 z m -1.633e-4,-0.071486 c 9.93e-5,-0.00241 5.892e-4,-0.0029 0.00125,-0.00125 5.971e-4,0.00149 5.237e-4,0.00328 -1.633e-4,0.00396 -6.869e-4,6.869e-4 -0.00118,-5.342e-4 -0.00109,-0.00271 z m -0.4994547,-0.059256 -0.00817,-0.00878 0.00879,0.00817 c 0.00817,0.0076 0.00973,0.0094 0.00817,0.0094 -3.376e-4,0 -0.00429,-0.00395 -0.00879,-0.00879 z M -4.8339897,2.6032572 c -0.00257,-0.00328 -0.0025,-0.00335 7.806e-4,-7.806e-4 0.00199,0.00156 0.00362,0.00319 0.00362,0.00362 0,0.0017 -0.0017,6.062e-4 -0.0044,-0.00284 z M -4.9927262,2.2625373 c 9.92e-5,-0.00241 5.891e-4,-0.0029 0.00125,-0.00125 5.972e-4,0.00149 5.238e-4,0.00328 -1.633e-4,0.00396 -6.869e-4,6.867e-4 -0.00118,-5.343e-4 -0.00109,-0.00271 z m 1.633e-4,-0.06494 c 0,-0.00284 4.692e-4,-0.004 0.00104,-0.00258 5.734e-4,0.00142 5.734e-4,0.00375 0,0.00517 -5.734e-4,0.00142 -0.00104,2.582e-4 -0.00104,-0.00258 z m 1.1912901,-0.2521811 c 0,-0.1062984 2.511e-4,-0.1497842 5.583e-4,-0.096635 3.07e-4,0.053149 3.07e-4,0.1401207 0,0.1932699 -3.072e-4,0.053149 -5.583e-4,0.00966 -5.583e-4,-0.096635 z m -0.4830035,0.064734 c 0.00149,-5.971e-4 0.00328,-5.238e-4 0.00396,1.634e-4 6.868e-4,6.869e-4 -5.342e-4,0.00118 -0.00271,0.00109 -0.00241,-9.92e-5 -0.0029,-5.891e-4 -0.00125,-0.00125 z m 0.082682,0 c 0.00149,-5.971e-4 0.00328,-5.238e-4 0.00396,1.634e-4 6.869e-4,6.869e-4 -5.341e-4,0.00118 -0.00271,0.00109 -0.00241,-9.92e-5 -0.0029,-5.891e-4 -0.00125,-0.00125 z M -4.3524892,1.6835549 c 0.00149,-5.971e-4 0.00328,-5.237e-4 0.00396,1.631e-4 6.868e-4,6.869e-4 -5.342e-4,0.00118 -0.00271,0.00109 -0.00241,-9.92e-5 -0.0029,-5.89e-4 -0.00125,-0.00125 z m 0.039145,-0.00202 c 0.00142,-5.734e-4 0.00375,-5.734e-4 0.00517,0 0.00142,5.735e-4 2.584e-4,0.00104 -0.00258,0.00104 -0.00284,0 -0.004,-4.691e-4 -0.00258,-0.00104 z m 0.1075112,-9.3e-5 c 0.00257,-4.944e-4 0.00629,-4.756e-4 0.00827,4.18e-5 0.00198,5.173e-4 -1.281e-4,9.219e-4 -0.00468,8.988e-4 -0.00455,-2.29e-5 -0.00616,-4.462e-4 -0.00359,-9.406e-4 z"
       id="path261" /><path
       style="fill:#b9b9b9;fill-opacity:1;stroke-width:0.00206706"
       d="m -3.5046081,3.835993 c 0,-4.291e-4 0.00163,-0.00206 0.00362,-0.00362 0.00328,-0.00257 0.00335,-0.0025 7.805e-4,7.805e-4 -0.0027,0.00344 -0.0044,0.00454 -0.0044,0.00284 z m -3.9752147,-0.0049 c -0.00257,-0.00328 -0.0025,-0.00335 7.805e-4,-7.806e-4 0.00344,0.0027 0.00454,0.0044 0.00284,0.0044 -4.293e-4,0 -0.00206,-0.00163 -0.00362,-0.00362 z m -0.014469,-0.014469 c -0.00257,-0.00328 -0.0025,-0.00335 7.805e-4,-7.805e-4 0.00344,0.0027 0.00454,0.0044 0.00284,0.0044 -4.293e-4,0 -0.00206,-0.00163 -0.00362,-0.00362 z m 4.0062205,0.00284 c 0,-4.291e-4 0.00163,-0.00206 0.00362,-0.00362 0.00328,-0.00257 0.00335,-0.0025 7.805e-4,7.806e-4 -0.0027,0.00344 -0.0044,0.00454 -0.0044,0.00284 z M -4.5231506,3.5976371 c 0.00199,-5.201e-4 0.00525,-5.201e-4 0.00723,0 0.00199,5.199e-4 3.618e-4,9.453e-4 -0.00362,9.453e-4 -0.00398,0 -0.00561,-4.254e-4 -0.00362,-9.453e-4 z m 0.1240627,0 c 0.00201,-5.239e-4 0.0048,-4.897e-4 0.0062,7.66e-5 0.0014,5.66e-4 -2.46e-4,9.948e-4 -0.00366,9.529e-4 -0.00341,-4.14e-5 -0.00456,-5.054e-4 -0.00254,-0.00103 z m -0.1642411,-0.00205 c 0.00149,-5.973e-4 0.00327,-5.238e-4 0.00396,1.632e-4 6.869e-4,6.869e-4 -5.341e-4,0.00118 -0.00271,0.00109 -0.00241,-9.92e-5 -0.0029,-5.891e-4 -0.00125,-0.00125 z m 0.2046387,0 c 0.00149,-5.973e-4 0.00327,-5.238e-4 0.00396,1.632e-4 6.869e-4,6.869e-4 -5.341e-4,0.00118 -0.00271,0.00109 -0.00241,-9.92e-5 -0.0029,-5.891e-4 -0.00125,-0.00125 z M -6.1023851,2.8192724 -6.102899,2.0632541 -6.3669656,2.0627217 -6.6310321,2.062189 -6.3669007,2.0616803 c 0.2097795,-4.041e-4 0.2643333,2.28e-5 0.2651122,0.00207 5.395e-4,0.00142 7.415e-4,0.342098 4.491e-4,0.7570597 l -5.317e-4,0.7544758 z m 1.5885363,0.4497585 c 0.00142,-5.735e-4 0.00375,-5.735e-4 0.00517,0 0.00142,5.733e-4 2.584e-4,0.00104 -0.00258,0.00104 -0.00284,0 -0.004,-4.691e-4 -0.00258,-0.00104 z m 0.074414,0 c 0.00142,-5.735e-4 0.00375,-5.735e-4 0.00517,0 0.00142,5.733e-4 2.584e-4,0.00104 -0.00258,0.00104 -0.00284,0 -0.004,-4.691e-4 -0.00258,-0.00104 z m 0.7179487,-0.2644201 c 9.93e-5,-0.00241 5.892e-4,-0.0029 0.00125,-0.00125 5.971e-4,0.00149 5.237e-4,0.00327 -1.633e-4,0.00396 -6.869e-4,6.869e-4 -0.00118,-5.342e-4 -0.00109,-0.00271 z m -0.1387156,-0.3166042 -0.013376,-0.013953 0.013953,0.013376 c 0.01296,0.012424 0.014898,0.014529 0.013376,0.014529 -3.171e-4,0 -0.0066,-0.00628 -0.013953,-0.013952 z m -1.010995,-0.1219565 c -0.00257,-0.00328 -0.0025,-0.00335 7.805e-4,-7.804e-4 0.00344,0.0027 0.00454,0.0044 0.00284,0.0044 -4.292e-4,0 -0.00206,-0.00163 -0.00362,-0.00362 z m 0.3773053,-0.2449462 -0.00394,-0.00465 0.00465,0.00394 c 0.00437,0.0037 0.00559,0.00536 0.00394,0.00536 -3.923e-4,0 -0.00249,-0.00209 -0.00465,-0.00465 z m -0.011436,-0.011369 c -0.00257,-0.00328 -0.0025,-0.00335 7.805e-4,-7.806e-4 0.00344,0.0027 0.00454,0.0044 0.00284,0.0044 -4.291e-4,0 -0.00206,-0.00163 -0.00362,-0.00362 z m -0.4872355,-0.039791 c 0,-0.00284 4.692e-4,-0.004 0.00104,-0.00258 5.734e-4,0.00142 5.734e-4,0.00375 0,0.00517 -5.734e-4,0.00142 -0.00104,2.582e-4 -0.00104,-0.00258 z m -1.633e-4,-0.079754 c 9.92e-5,-0.00241 5.891e-4,-0.0029 0.00125,-0.00125 5.972e-4,0.00149 5.238e-4,0.00328 -1.633e-4,0.00396 -6.869e-4,6.868e-4 -0.00118,-5.343e-4 -0.00109,-0.00271 z M -5.5482503,2.0616883 c 0.073701,-3.009e-4 0.1936942,-3.009e-4 0.2666504,3e-7 0.072956,3.009e-4 0.012655,5.472e-4 -0.1340026,5.472e-4 -0.1466577,0 -0.2063492,-2.464e-4 -0.1326478,-5.475e-4 z m 1.2701752,-0.051538 c 0.00149,-5.972e-4 0.00327,-5.238e-4 0.00396,1.633e-4 6.869e-4,6.869e-4 -5.341e-4,0.00118 -0.00271,0.00109 -0.00241,-9.92e-5 -0.0029,-5.891e-4 -0.00125,-0.00125 z m 0.07028,0 c 0.00149,-5.972e-4 0.00328,-5.238e-4 0.00396,1.633e-4 6.868e-4,6.869e-4 -5.342e-4,0.00118 -0.00271,0.00109 -0.00241,-9.92e-5 -0.0029,-5.891e-4 -0.00125,-0.00125 z m 0.059945,-0.3265951 c 0.00149,-5.971e-4 0.00327,-5.237e-4 0.00396,1.631e-4 6.869e-4,6.869e-4 -5.341e-4,0.00118 -0.00271,0.00109 -0.00241,-9.92e-5 -0.0029,-5.89e-4 -0.00125,-0.00125 z m -0.173762,-0.00202 c 0.00142,-5.734e-4 0.00375,-5.734e-4 0.00517,0 0.00142,5.735e-4 2.584e-4,0.00104 -0.00258,0.00104 -0.00284,0 -0.004,-4.691e-4 -0.00258,-0.00104 z m 0.1292304,-6.34e-5 c 0.00201,-5.241e-4 0.0048,-4.897e-4 0.0062,7.67e-5 0.0014,5.662e-4 -2.46e-4,9.95e-4 -0.00366,9.529e-4 -0.00341,-4.22e-5 -0.00456,-5.054e-4 -0.00254,-0.00103 z m -3.3037139,-1.83696621 c 0,-4.2923e-4 0.00163,-0.002057 0.00362,-0.003617 0.00328,-0.002571 0.00335,-0.002498 7.805e-4,7.8043e-4 -0.0027,0.003443 -0.0044,0.004538 -0.0044,0.002837 z m 4.0098272,-0.002837 c -0.00257,-0.003278 -0.0025,-0.003352 7.805e-4,-7.8043e-4 0.00344,0.0027 0.00454,0.004398 0.00284,0.004398 -4.292e-4,0 -0.00206,-0.001628 -0.00362,-0.003618 z m -3.9932907,-0.0136995 c 0,-4.2924e-4 0.00163,-0.002057 0.00362,-0.003617 0.00328,-0.002571 0.00335,-0.002498 7.804e-4,7.8042e-4 -0.0027,0.003443 -0.0044,0.004538 -0.0044,0.002837 z m 3.9767543,-0.002837 c -0.00257,-0.003278 -0.0025,-0.003352 7.805e-4,-7.8042e-4 0.00199,0.00156 0.00362,0.003188 0.00362,0.003617 0,0.001701 -0.0017,6.0627e-4 -0.0044,-0.002837 z"
       id="path259" /><path
       style="fill:#a3a3a3;fill-opacity:1;stroke-width:0.00206706"
       d="m -3.4942729,3.8254047 c 0.00267,-0.00284 0.00532,-0.00517 0.00589,-0.00517 5.684e-4,0 -0.00115,0.00233 -0.00382,0.00517 -0.00267,0.00284 -0.00532,0.00517 -0.00589,0.00517 -5.685e-4,0 0.00115,-0.00233 0.00382,-0.00517 z m -3.9927173,-0.00155 -0.00394,-0.00465 0.00465,0.00394 c 0.00437,0.0037 0.00559,0.00536 0.00394,0.00536 -3.922e-4,0 -0.00249,-0.00209 -0.00465,-0.00465 z M -4.5324523,3.597693 c 0.00142,-5.734e-4 0.00375,-5.734e-4 0.00517,0 0.00142,5.734e-4 2.584e-4,0.00104 -0.00258,0.00104 -0.00284,0 -0.004,-4.692e-4 -0.00258,-0.00104 z m 0.1426269,0 c 0.00142,-5.734e-4 0.00375,-5.734e-4 0.00517,0 0.00142,5.734e-4 2.583e-4,0.00104 -0.00258,0.00104 -0.00284,0 -0.004,-4.692e-4 -0.00258,-0.00104 z m -0.1797048,-0.00211 c 0.00149,-5.97e-4 0.00328,-5.237e-4 0.00396,1.634e-4 6.868e-4,6.869e-4 -5.342e-4,0.00118 -0.00271,0.00109 -0.00241,-9.93e-5 -0.0029,-5.891e-4 -0.00125,-0.00125 z M -4.9857354,3.4951924 c -5.418e-4,-0.00142 -7.45e-4,-0.095136 -4.517e-4,-0.208256 l 5.329e-4,-0.2056722 0.00103,0.2082562 c 5.685e-4,0.1145408 7.717e-4,0.208256 4.517e-4,0.208256 -3.198e-4,-2e-7 -0.00102,-0.00116 -0.00157,-0.00258 z m 0.4801548,-0.2261615 c 0.00142,-5.735e-4 0.00375,-5.735e-4 0.00517,0 0.00142,5.733e-4 2.583e-4,0.00104 -0.00258,0.00104 -0.00284,0 -0.004,-4.691e-4 -0.00258,-0.00104 z m 0.057878,0 c 0.00142,-5.735e-4 0.00375,-5.735e-4 0.00517,0 0.00142,5.733e-4 2.583e-4,0.00104 -0.00258,0.00104 -0.00284,0 -0.004,-4.691e-4 -0.00258,-0.00104 z m -0.090821,-0.00211 c 0.00149,-5.973e-4 0.00327,-5.238e-4 0.00396,1.631e-4 6.869e-4,6.869e-4 -5.341e-4,0.00118 -0.00271,0.00109 -0.00241,-9.92e-5 -0.0029,-5.891e-4 -0.00125,-0.00125 z m 0.8170375,-0.1734266 c 9.93e-5,-0.00241 5.892e-4,-0.0029 0.00125,-0.00125 5.971e-4,0.00149 5.237e-4,0.00328 -1.633e-4,0.00396 -6.869e-4,6.869e-4 -0.00118,-5.342e-4 -0.00109,-0.00271 z M -3.8438693,2.7045429 c -0.00257,-0.00328 -0.0025,-0.00335 7.805e-4,-7.804e-4 0.00199,0.00156 0.00362,0.00319 0.00362,0.00362 0,0.0017 -0.0017,6.063e-4 -0.0044,-0.00284 z m -0.033073,-0.033073 c -0.00257,-0.00328 -0.0025,-0.00335 7.805e-4,-7.804e-4 0.00199,0.00156 0.00362,0.00319 0.00362,0.00362 0,0.0017 -0.0017,6.063e-4 -0.0044,-0.00284 z M -4.2720031,2.010193 c 0.00142,-5.733e-4 0.00375,-5.733e-4 0.00517,0 0.00142,5.735e-4 2.584e-4,0.00104 -0.00258,0.00104 -0.00284,0 -0.004,-4.692e-4 -0.00258,-0.00104 z m 0.055811,0 c 0.00142,-5.733e-4 0.00375,-5.733e-4 0.00517,0 0.00142,5.735e-4 2.583e-4,0.00104 -0.00258,0.00104 -0.00284,0 -0.004,-4.692e-4 -0.00258,-0.00104 z M -4.8543965,1.8741027 c 0.00386,-0.00398 0.00748,-0.00723 0.00805,-0.00723 5.685e-4,0 -0.00212,0.00326 -0.00598,0.00723 -0.00386,0.00398 -0.00748,0.00723 -0.00805,0.00723 -5.685e-4,0 0.00212,-0.00326 0.00598,-0.00723 z m 0.491572,-0.1905478 c 0.00149,-5.971e-4 0.00328,-5.237e-4 0.00396,1.631e-4 6.869e-4,6.869e-4 -5.341e-4,0.00118 -0.00271,0.00109 -0.00241,-9.92e-5 -0.0029,-5.89e-4 -0.00125,-0.00125 z m 0.2211752,0 c 0.00149,-5.971e-4 0.00327,-5.237e-4 0.00396,1.631e-4 6.869e-4,6.869e-4 -5.341e-4,0.00118 -0.00271,0.00109 -0.00241,-9.92e-5 -0.0029,-5.89e-4 -0.00125,-0.00125 z m -0.1882314,-0.00202 c 0.00142,-5.734e-4 0.00375,-5.734e-4 0.00517,0 0.00142,5.735e-4 2.584e-4,0.00104 -0.00258,0.00104 -0.00284,0 -0.004,-4.691e-4 -0.00258,-0.00104 z m 0.1468902,-4.3e-5 c 0.00149,-5.971e-4 0.00328,-5.237e-4 0.00396,1.631e-4 6.868e-4,6.869e-4 -5.342e-4,0.00118 -0.00271,0.00109 -0.00241,-9.92e-5 -0.0029,-5.89e-4 -0.00125,-0.00125 z m -3.3027698,-1.84757059 c 0.00267,-0.002842 0.00532,-0.005168 0.00589,-0.005168 5.685e-4,0 -0.00115,0.002325 -0.00382,0.005168 -0.00267,0.002842 -0.00532,0.005168 -0.00589,0.005168 -5.684e-4,0 0.00115,-0.002325 0.00382,-0.005168 z m 3.991331,-5.1677e-4 -0.00501,-0.005684 0.00568,0.005011 c 0.00313,0.002756 0.00568,0.005314 0.00568,0.005684 0,0.001621 -0.00167,3.0174e-4 -0.00636,-0.005011 z"
       id="path257" /><path
       style="fill:#ba2bd2;fill-opacity:1;stroke-width:0.00423333"
       d="M 2.1971409,3.1781208 C 1.6968906,3.1500349 1.2282123,2.8049169 1.0651546,2.3445664 1.0519378,2.3072523 1.0457254,2.2961046 1.0253586,2.2731561 0.9061515,2.138838 0.8889208,2.0861059 0.9400519,2.0120878 0.9885461,1.9418871 0.9953502,1.8786212 0.9616854,1.8109331 0.8913185,1.6694496 0.9105022,1.5958589 1.0501733,1.4714837 1.1197135,1.4095591 1.1258751,1.3923783 1.1260238,1.2599874 1.1261884,1.1131589 1.1642414,1.0680071 1.300129,1.0534018 1.4075374,1.0418577 1.4838384,0.99793989 1.5880647,0.8876707 1.7071602,0.76167011 1.8722353,0.75720996 2.0043229,0.87642384 c 0.025391,0.0229161 0.02952,0.025158 0.042466,0.0230571 C 2.2549337,0.86570372 2.6412077,1.0297525 2.8610132,1.245278 2.9833631,1.3652456 3.0605506,1.5170229 3.0412615,1.5997081 2.992924,1.8069122 2.6933228,1.8039115 2.1457186,1.5907384 2.0288872,1.5452579 1.9385584,1.5657844 1.7887436,1.6718582 1.4684312,1.8986497 1.4752598,2.4337797 1.8017666,2.6924198 c 0.042884,0.03397 0.1600507,0.1048799 0.1732968,0.1048799 0.00139,0 -0.01685,-0.021431 -0.040537,-0.047625 C 1.8411502,2.6464184 1.7867783,2.5344435 1.8020115,2.4767709 c 0.00355,-0.013425 0.00355,-0.013425 0.028946,0.016475 0.1958351,0.2305302 0.4673365,0.3675843 0.7281073,0.3675492 0.059015,-8.5e-6 0.1948787,-0.017753 0.2037355,-0.02661 9.709e-4,-9.708e-4 -0.020654,-0.00286 -0.048056,-0.0042 -0.123129,-0.00602 -0.2257637,-0.049715 -0.3030277,-0.1290199 -0.020374,-0.020912 -0.020374,-0.020912 0.01905,-0.023684 0.1722172,-0.012107 0.351787,-0.087921 0.5148753,-0.2173776 0.040149,-0.031869 0.1402178,-0.1275867 0.1193317,-0.1141423 -0.00582,0.00375 -0.02391,0.015784 -0.040197,0.02675 -0.087143,0.058668 -0.2039863,0.091072 -0.2996415,0.083101 -0.038036,-0.00317 -0.037989,-0.00393 0.00234,-0.037682 0.3198581,-0.2677542 0.4468126,-0.590726 0.3691126,-0.9390217 -0.01258,-0.056389 -0.013465,-0.055519 0.016168,-0.015896 0.1364922,0.1825088 0.1338164,0.4409119 -0.00709,0.6844691 -0.033791,0.058408 -0.032017,0.060053 0.013684,0.01269 0.055555,-0.057575 0.1134613,-0.1431097 0.1752763,-0.2589051 0.030567,-0.057261 0.03171,-0.055438 0.032267,0.051482 0.00153,0.2929769 -0.1413826,0.5368397 -0.4079659,0.6961633 -0.020955,0.012524 -0.038894,0.023412 -0.039864,0.024195 -0.012161,0.00982 0.064511,-0.00553 0.1097139,-0.021975 0.069244,-0.025185 0.1681132,-0.07979 0.2576969,-0.1423249 0.059936,-0.041839 0.059304,-0.043225 0.018086,0.03961 -0.1904176,0.3826825 -0.5087644,0.5946552 -0.9425333,0.6275903 -0.018627,0.00141 -0.041487,0.00319 -0.0508,0.00395 -0.00931,7.56e-4 -0.042651,-6.94e-5 -0.074083,-0.00183 z M 2.4298056,1.3679759 c 0.047848,-0.028265 0.026458,-0.1031429 -0.029465,-0.1031429 -0.055527,0 -0.077153,0.073782 -0.030172,0.1029391 0.014382,0.00893 0.044696,0.00903 0.059637,2.038e-4 z"
       id="path316" /><path
       style="fill:#412846;fill-opacity:1;stroke-width:0.00423333"
       d="m 2.2193659,3.1795009 c 0.0064,-9.7e-4 0.01688,-9.7e-4 0.023283,0 0.0064,9.699e-4 0.00116,0.00176 -0.011642,0.00176 -0.012806,0 -0.018045,-7.937e-4 -0.011642,-0.00176 z m 0.052917,2.286e-4 c 0.00291,-0.00117 0.00767,-0.00117 0.010583,0 0.00291,0.00117 5.292e-4,0.00214 -0.00529,0.00214 -0.00582,0 -0.0082,-9.608e-4 -0.00529,-0.00214 z m -0.1182688,-0.00432 c 0.00306,-0.00122 0.00671,-0.00107 0.00811,3.34e-4 0.00141,0.00141 -0.00109,0.00241 -0.00556,0.00222 -0.00493,-2.032e-4 -0.00593,-0.00121 -0.00256,-0.00256 z m 0.1735667,0 c 0.00306,-0.00122 0.00671,-0.00107 0.00811,3.34e-4 0.00141,0.00141 -0.00109,0.00241 -0.00556,0.00222 -0.00493,-2.032e-4 -0.00593,-0.00121 -0.00256,-0.00256 z m 0.042333,-0.00423 c 0.00306,-0.00122 0.00671,-0.00107 0.00811,3.34e-4 0.00141,0.00141 -0.00109,0.00241 -0.00556,0.00222 -0.00493,-2.033e-4 -0.00593,-0.00121 -0.00256,-0.00256 z m 0.6061604,-0.24424 c 0,-8.79e-4 0.00333,-0.00421 0.00741,-0.00741 0.00671,-0.00527 0.00686,-0.00512 0.0016,0.0016 -0.00553,0.00705 -0.00901,0.00929 -0.00901,0.00581 z M 1.4664887,2.893608 c -0.00806,-0.00953 -0.00806,-0.00953 0.00146,-0.00146 0.00895,0.00758 0.011452,0.010985 0.00806,0.010985 -8.033e-4,0 -0.00509,-0.00429 -0.00953,-0.00953 z M 3.0416908,2.865033 C 3.0578648,2.848735 3.0720498,2.8354 3.0732138,2.8354 c 0.00116,0 -0.011116,0.013335 -0.02729,0.029633 -0.016173,0.016298 -0.030359,0.029633 -0.031523,0.029633 -0.00116,0 0.011116,-0.013335 0.02729,-0.029633 z M 1.4219009,2.857623 c -0.00527,-0.00671 -0.00512,-0.00686 0.0016,-0.0016 0.00705,0.00553 0.00929,0.00901 0.00581,0.00901 -8.791e-4,0 -0.00421,-0.00333 -0.00741,-0.00741 z m 1.091731,1.808e-4 c 0.00527,-0.00101 0.012886,-9.742e-4 0.016933,8.55e-5 0.00405,0.00106 -2.612e-4,0.00189 -0.00957,0.00184 -0.00931,-4.7e-5 -0.012625,-9.14e-4 -0.00736,-0.00193 z m 0.078267,7.57e-5 c 0.00407,-0.00106 0.010742,-0.00106 0.014817,0 0.00407,0.00106 7.408e-4,0.00194 -0.00741,0.00194 -0.00815,0 -0.011483,-8.712e-4 -0.00741,-0.00194 z m -0.1246187,-0.00421 c 0.00306,-0.00122 0.00671,-0.00107 0.00811,3.34e-4 0.00141,0.00141 -0.00109,0.00241 -0.00556,0.00222 -0.00493,-2.032e-4 -0.00593,-0.00121 -0.00256,-0.00256 z m -1.0812251,-0.0278 c -0.00806,-0.00953 -0.00806,-0.00953 0.00146,-0.00146 0.00895,0.00758 0.011452,0.010985 0.00806,0.010985 -8.033e-4,0 -0.00509,-0.00429 -0.00953,-0.00953 z m 1.2928917,0.0024 c 0.00306,-0.00122 0.00671,-0.00107 0.00811,3.341e-4 0.00141,0.00141 -0.00109,0.00241 -0.00556,0.00222 -0.00493,-2.032e-4 -0.00593,-0.00121 -0.00256,-0.00256 z m 0.4177771,-0.022508 c 0.00421,-0.00466 0.00861,-0.00847 0.00978,-0.00847 0.00116,0 -0.00133,0.00381 -0.00555,0.00847 -0.00421,0.00466 -0.00861,0.00847 -0.00978,0.00847 -0.00116,0 0.00133,-0.00381 0.00555,-0.00847 z M 1.9301205,2.747558 c -0.010263,-0.011642 -0.010263,-0.011642 0.00138,-0.00138 0.010881,0.00959 0.013583,0.01302 0.010263,0.01302 -7.582e-4,0 -0.006,-0.00524 -0.011642,-0.011642 z M 1.2908872,2.7306247 c -0.010263,-0.011642 -0.010263,-0.011642 0.00138,-0.00138 0.010881,0.00959 0.013583,0.01302 0.010263,0.01302 -7.583e-4,0 -0.006,-0.00524 -0.011642,-0.011642 z m 1.1156445,-0.03175 c -0.021007,-0.022225 -0.021007,-0.022225 0.00122,-0.00122 0.020652,0.019521 0.024166,0.023442 0.021008,0.023442 -6.696e-4,0 -0.010671,-0.010001 -0.022225,-0.022225 z m -1.1412641,0.00212 c -0.00527,-0.00671 -0.00512,-0.00686 0.0016,-0.0016 0.00407,0.0032 0.00741,0.00653 0.00741,0.00741 0,0.00348 -0.00348,0.00124 -0.00901,-0.00581 z m 0.5187211,-0.023287 c -0.00806,-0.00953 -0.00806,-0.00953 0.00146,-0.00146 0.00524,0.00444 0.00953,0.00872 0.00953,0.00953 0,0.00339 -0.00341,8.867e-4 -0.010986,-0.00806 z m 0.6449272,-0.00175 c 0.00291,-0.00117 0.00767,-0.00117 0.010583,0 0.00291,0.00117 5.292e-4,0.00214 -0.00529,0.00214 -0.00582,0 -0.0082,-9.609e-4 -0.00529,-0.00214 z m 0.4497916,-0.00168 c 0,-0.00247 0.00191,-0.00331 0.00423,-0.00187 0.00233,0.00144 0.00423,0.00346 0.00423,0.00448 0,0.00103 -0.0019,0.00187 -0.00423,0.00187 -0.00233,0 -0.00423,-0.00202 -0.00423,-0.00448 z M 1.735563,2.633258 c -0.023139,-0.024342 -0.023139,-0.024342 0.0012,-0.0012 0.022614,0.021497 0.026281,0.025545 0.023139,0.025545 -6.616e-4,0 -0.011615,-0.010954 -0.024342,-0.024342 z m 0.2324379,-0.00423 c -0.00527,-0.00671 -0.00512,-0.00686 0.0016,-0.0016 0.00407,0.0032 0.00741,0.00653 0.00741,0.00741 0,0.00348 -0.00348,0.00124 -0.00901,-0.00581 z M 1.9280579,2.593045 c -0.012434,-0.013758 -0.012434,-0.013758 0.00132,-0.00132 0.012825,0.01159 0.015704,0.015083 0.012434,0.015083 -7.286e-4,0 -0.00692,-0.00619 -0.013758,-0.013758 z M 1.6970676,2.590925 c -0.00527,-0.00671 -0.00512,-0.00686 0.0016,-0.0016 0.00705,0.00553 0.00929,0.00901 0.00581,0.00901 -8.79e-4,0 -0.00421,-0.00333 -0.00741,-0.00741 z m 1.3340399,-0.01959 c 0,-8.79e-4 0.00333,-0.00421 0.00741,-0.00741 0.00671,-0.00527 0.00686,-0.00512 0.0016,0.0016 -0.00553,0.00705 -0.00901,0.00929 -0.00901,0.00581 z M 3.0628575,2.5433 c 0.00421,-0.00466 0.00861,-0.00847 0.00978,-0.00847 0.00116,0 -0.00133,0.00381 -0.00555,0.00847 -0.00421,0.00466 -0.00861,0.00847 -0.00978,0.00847 -0.00116,0 0.00133,-0.00381 0.00555,-0.00847 z M 1.854013,2.5189581 c -0.014589,-0.015875 -0.014589,-0.015875 0.00129,-0.00129 0.00873,0.00802 0.015875,0.015168 0.015875,0.015875 0,0.00323 -0.00358,1.871e-4 -0.017161,-0.014589 z M 1.815601,2.4766251 c -0.00527,-0.00671 -0.00512,-0.00686 0.0016,-0.0016 0.00705,0.00553 0.00929,0.00901 0.00581,0.00901 -8.79e-4,0 -0.00421,-0.00333 -0.00741,-0.00741 z m 1.3234566,-0.00953 c 0.00421,-0.00466 0.00861,-0.00847 0.00978,-0.00847 0.00116,0 -0.00133,0.00381 -0.00555,0.00847 -0.00421,0.00466 -0.00861,0.00847 -0.00978,0.00847 -0.00116,0 0.00133,-0.00381 0.00555,-0.00847 z m 0.1566333,0.00424 c 0.00144,-0.00233 0.00346,-0.00423 0.00448,-0.00423 0.00103,0 0.00187,0.00191 0.00187,0.00423 0,0.00233 -0.00202,0.00423 -0.00448,0.00423 -0.00247,0 -0.00331,-0.0019 -0.00187,-0.00423 z M 2.7232131,2.4556994 c 0.00412,-0.00107 0.00983,-10e-4 0.0127,1.571e-4 0.00287,0.00116 -5.039e-4,0.00204 -0.00749,0.00195 -0.00698,-8.64e-5 -0.00933,-0.00104 -0.00521,-0.00211 z m 0.0508,0 c 0.00412,-0.00107 0.00983,-10e-4 0.0127,1.571e-4 0.00287,0.00116 -5.039e-4,0.00204 -0.00749,0.00195 -0.00699,-8.64e-5 -0.00933,-0.00104 -0.00521,-0.00211 z m -0.085806,-0.00528 c 0,-0.00219 0.00159,-0.00496 0.00353,-0.00616 0.00194,-0.0012 0.00353,5.934e-4 0.00353,0.00398 0,0.00339 -0.00159,0.00616 -0.00353,0.00616 -0.00194,0 -0.00353,-0.00179 -0.00353,-0.00398 z m 0.2751667,-0.00608 c 0,-8.79e-4 0.00333,-0.00421 0.00741,-0.00741 0.00671,-0.00527 0.00686,-0.00512 0.0016,0.0016 -0.00553,0.00705 -0.00901,0.00929 -0.00901,0.00581 z m 0.1947333,0 c 0,-8.79e-4 0.00333,-0.00421 0.00741,-0.00741 0.00671,-0.00527 0.00686,-0.00512 0.0016,0.0016 -0.00553,0.00705 -0.00901,0.00929 -0.00901,0.00581 z m -0.4487333,-0.0127 c 0,-8.79e-4 0.00333,-0.00421 0.00741,-0.00741 0.00671,-0.00527 0.00686,-0.00512 0.0016,0.0016 -0.00553,0.00705 -0.00901,0.00929 -0.00901,0.00581 z m 0.2921,-0.021685 c 0.00547,-0.00582 0.010895,-0.010583 0.012059,-0.010583 0.00116,0 -0.00236,0.00476 -0.00783,0.010583 -0.00547,0.00582 -0.010895,0.010583 -0.012059,0.010583 -0.00116,0 0.00236,-0.00476 0.00783,-0.010583 z M 2.7453575,2.3993663 c 0.00421,-0.00466 0.00861,-0.00847 0.00978,-0.00847 0.00116,0 -0.00133,0.00381 -0.00555,0.00847 -0.00421,0.00466 -0.00861,0.00847 -0.00978,0.00847 -0.00116,0 0.00133,-0.00381 0.00555,-0.00847 z m 0.0762,-0.071967 c 0.023196,-0.023283 0.043127,-0.042333 0.044291,-0.042333 0.00116,0 -0.016862,0.01905 -0.040058,0.042333 -0.023196,0.023284 -0.043127,0.042334 -0.044291,0.042334 -0.00116,0 0.016862,-0.01905 0.040058,-0.042334 z M 1.0177554,2.2670748 c -0.00806,-0.00953 -0.00806,-0.00953 0.00146,-0.00146 0.00895,0.00758 0.011452,0.010986 0.00806,0.010986 -8.033e-4,0 -0.00509,-0.00429 -0.00953,-0.00953 z m 1.8673021,-0.00741 c 0.00421,-0.00466 0.00861,-0.00847 0.00978,-0.00847 0.00116,0 -0.00133,0.00381 -0.00555,0.00847 -0.00421,0.00466 -0.00861,0.00847 -0.00978,0.00847 -0.00116,0 0.00133,-0.00381 0.00555,-0.00847 z M 0.9858676,2.2310913 c -0.00527,-0.00671 -0.00512,-0.00686 0.0016,-0.0016 0.00407,0.0032 0.00741,0.00653 0.00741,0.00741 0,0.00348 -0.00348,0.00124 -0.00901,-0.00581 z m 0.5723742,7.056e-4 c 2.032e-4,-0.00493 0.00121,-0.00593 0.00256,-0.00256 0.00122,0.00306 0.00107,0.00671 -3.34e-4,0.00811 -0.00141,0.00141 -0.00241,-0.00109 -0.00222,-0.00556 z m 1.3458657,0.0051 c 0,-8.789e-4 0.00333,-0.00421 0.00741,-0.00741 0.00671,-0.00527 0.00686,-0.00512 0.0016,0.0016 -0.00553,0.00705 -0.00901,0.00929 -0.00901,0.00581 z m 0.176768,-0.043547 c 0.00292,-0.00118 0.00406,-0.00418 0.00252,-0.00667 -0.00167,-0.0027 -7.949e-4,-0.00329 0.00216,-0.00146 0.00583,0.0036 0.00233,0.011094 -0.00496,0.010611 -0.00361,-2.392e-4 -0.00353,-9.437e-4 2.76e-4,-0.00248 z m -1.526867,-0.05469 c 2.032e-4,-0.00493 0.00121,-0.00593 0.00256,-0.00256 0.00122,0.00306 0.00107,0.00671 -3.34e-4,0.00811 -0.00141,0.00141 -0.00241,-0.00109 -0.00222,-0.00556 z m 1.7652999,-0.071967 c 2.032e-4,-0.00493 0.00121,-0.00593 0.00256,-0.00256 0.00122,0.00306 0.00107,0.00671 -3.34e-4,0.00811 -0.00141,0.00141 -0.00241,-0.00109 -0.00222,-0.00556 z m 0.00423,-0.042333 c 2.032e-4,-0.00493 0.00121,-0.00593 0.00256,-0.00256 0.00122,0.00306 0.00107,0.00671 -3.34e-4,0.00811 -0.00141,0.00141 -0.00241,-0.00109 -0.00222,-0.00556 z M 0.9786094,1.9167664 c 0,-0.00582 9.608e-4,-0.0082 0.00213,-0.00529 0.00117,0.00291 0.00117,0.00767 0,0.010583 -0.00117,0.00291 -0.00213,5.292e-4 -0.00213,-0.00529 z m 2.3452665,-0.033867 c 0,-0.00582 9.609e-4,-0.0082 0.00214,-0.00529 0.00117,0.00291 0.00117,0.00767 0,0.010583 -0.00117,0.00291 -0.00214,5.292e-4 -0.00214,-0.00529 z M 3.2144526,1.7834163 c 2.54e-5,-0.01397 8.141e-4,-0.019175 0.00176,-0.011566 9.421e-4,0.00761 9.227e-4,0.019039 -4.32e-5,0.0254 -9.66e-4,0.00636 -0.00174,1.359e-4 -0.00171,-0.013834 z M 2.7591652,1.7529056 c 0.00527,-0.00101 0.012886,-9.741e-4 0.016933,8.55e-5 0.00405,0.00106 -2.612e-4,0.00189 -0.00957,0.00184 -0.00931,-4.7e-5 -0.012625,-9.14e-4 -0.00736,-0.00193 z m 0.042333,0 c 0.00527,-0.00101 0.012886,-9.741e-4 0.016933,8.55e-5 0.00405,0.00106 -2.612e-4,0.00189 -0.00957,0.00184 -0.00931,-4.7e-5 -0.012625,-9.14e-4 -0.00736,-0.00193 z M 1.714364,1.7336747 c 0.017543,-0.018691 0.021344,-0.022052 0.021344,-0.018873 0,6.794e-4 -0.00905,0.00973 -0.020108,0.020108 -0.020109,0.018873 -0.020109,0.018873 -0.00124,-0.00124 z m 1.4022355,-0.013758 c 8.63e-5,-0.00698 0.00104,-0.00933 0.00211,-0.00521 0.00107,0.00412 10e-4,0.00983 -1.57e-4,0.0127 -0.00116,0.00287 -0.00204,-5.039e-4 -0.00195,-0.00749 z M 0.9232419,1.6645303 c 2.031e-4,-0.00493 0.00121,-0.00593 0.00256,-0.00256 0.00122,0.00306 0.00107,0.00671 -3.34e-4,0.00811 -0.00141,0.00141 -0.00241,-0.00109 -0.00222,-0.00556 z m 2.1935144,-0.027164 c 0,-0.00815 8.712e-4,-0.011483 0.00194,-0.00741 0.00106,0.00407 0.00106,0.010742 0,0.014817 -0.00106,0.00407 -0.00194,7.408e-4 -0.00194,-0.00741 z m -0.00488,-0.05327 c 2.032e-4,-0.00493 0.00121,-0.00593 0.00256,-0.00256 0.00122,0.00306 0.00107,0.00671 -3.34e-4,0.00811 -0.00141,0.00141 -0.00241,-0.00109 -0.00222,-0.00556 z M 0.9737076,1.537883 c 0.00547,-0.00582 0.010895,-0.010583 0.012059,-0.010583 0.00116,0 -0.00236,0.00476 -0.00783,0.010583 -0.00547,0.00582 -0.010895,0.010583 -0.012059,0.010583 -0.00116,0 0.00236,-0.00476 0.00783,-0.010583 z m 0.093133,-0.084667 c 0.012647,-0.012806 0.023947,-0.023283 0.025111,-0.023283 0.00116,0 -0.00823,0.010477 -0.020877,0.023283 -0.012647,0.012806 -0.023947,0.023283 -0.025111,0.023283 -0.00116,0 0.00823,-0.010477 0.020877,-0.023283 z m 0.055859,-0.1185334 c 8.63e-5,-0.00699 0.00104,-0.00933 0.00211,-0.00521 0.00107,0.00412 10e-4,0.00983 -1.57e-4,0.0127 -0.00116,0.00287 -0.00204,-5.039e-4 -0.00195,-0.00749 z m 1.7431856,-0.085725 c -0.027394,-0.028575 -0.027394,-0.028575 0.00118,-0.00118 0.015716,0.015067 0.028575,0.027926 0.028575,0.028575 0,0.00312 -0.00431,-8.527e-4 -0.029756,-0.027394 z m -0.080851,-0.071967 c -0.00527,-0.00671 -0.00512,-0.00686 0.0016,-0.0016 0.00705,0.00553 0.00929,0.00901 0.00581,0.00901 -8.79e-4,0 -0.00421,-0.00333 -0.00741,-0.00741 z m -1.6250599,-0.07039 c 0,-8.791e-4 0.00333,-0.00421 0.00741,-0.00741 0.00671,-0.00527 0.00686,-0.00512 0.0016,0.0016 -0.00553,0.00705 -0.00901,0.00929 -0.00901,0.00581 z m 0.1558396,-0.056326 c 0.00306,-0.00122 0.00671,-0.00107 0.00811,3.341e-4 0.00141,0.00141 -0.00109,0.00241 -0.00556,0.00222 -0.00493,-2.032e-4 -0.00593,-0.00121 -0.00256,-0.00256 z M 1.5261576,0.94733309 c 0.00421,-0.00466 0.00861,-0.00847 0.00978,-0.00847 0.00116,0 -0.00133,0.00381 -0.00555,0.00847 -0.00421,0.00466 -0.00861,0.00847 -0.00978,0.00847 -0.00116,0 0.00133,-0.00381 0.00555,-0.00847 z m 0.0254,-0.0254 c 0.00421,-0.00466 0.00861,-0.00847 0.00978,-0.00847 0.00116,0 -0.00133,0.00381 -0.00555,0.00847 -0.00421,0.00466 -0.00861,0.00847 -0.00978,0.00847 -0.00116,0 0.00133,-0.00381 0.00555,-0.00847 z m 0.027517,-0.0275167 c 0.00547,-0.005821 0.010895,-0.0105833 0.012059,-0.0105833 0.00116,0 -0.00236,0.004763 -0.00783,0.0105833 -0.00547,0.005821 -0.010895,0.0105833 -0.012059,0.0105833 -0.00116,0 0.00236,-0.004762 0.00783,-0.0105833 z m 0.4378836,-0.007408 c -0.012434,-0.0137583 -0.012434,-0.0137583 0.00132,-0.001325 0.012825,0.0115899 0.015704,0.015083 0.012434,0.015083 -7.285e-4,0 -0.00692,-0.006191 -0.013758,-0.0137583 z m 0.026989,0.0108665 c 0.00306,-0.001223 0.00671,-0.001073 0.00811,3.3401e-4 0.00141,0.001407 -0.00109,0.002407 -0.00556,0.002223 -0.00493,-2.032e-4 -0.00593,-0.001206 -0.00256,-0.002558 z m 0.048477,-1.4605e-4 c 0.00643,-9.7307e-4 0.01596,-9.4704e-4 0.021167,5.757e-5 0.00521,0.001005 -5.85e-5,0.001801 -0.0117,0.001769 -0.011642,-3.387e-5 -0.015902,-8.5395e-4 -0.00947,-0.001827 z M 1.6214076,0.84784977 c 0.0079,-0.008149 0.015313,-0.0148167 0.016477,-0.0148167 0.00116,0 -0.00435,0.006667 -0.012244,0.0148167 -0.0079,0.008149 -0.015313,0.0148167 -0.016477,0.0148167 -0.00116,0 0.00435,-0.006667 0.012244,-0.0148167 z m 0.1323722,-0.0558503 c 0.00412,-0.001073 0.00983,-0.001003 0.0127,1.5705e-4 0.00287,0.00116 -5.039e-4,0.002038 -0.00749,0.001952 -0.00699,-8.636e-5 -0.00933,-0.001035 -0.00521,-0.002108 z m 0.044369,1.2996e-4 c 0.00291,-0.001174 0.00767,-0.001174 0.010583,0 0.00291,0.001174 5.291e-4,0.002135 -0.00529,0.002135 -0.00582,0 -0.0082,-9.6088e-4 -0.00529,-0.002135 z"
       id="path314" /><path
       style="fill:#412846;fill-opacity:1;stroke-width:0.00423333"
       d="m 2.1897326,3.1796149 c 0.00407,-0.00106 0.010742,-0.00106 0.014817,0 0.00407,0.00106 7.409e-4,0.00194 -0.00741,0.00194 -0.00815,0 -0.011483,-8.713e-4 -0.00741,-0.00194 z m 0.099483,1.147e-4 c 0.00291,-0.00117 0.00767,-0.00117 0.010583,0 0.00291,0.00117 5.292e-4,0.00214 -0.00529,0.00214 -0.00582,0 -0.0082,-9.608e-4 -0.00529,-0.00214 z m -0.1479018,-0.00432 c 0.00306,-0.00122 0.00671,-0.00107 0.00811,3.34e-4 0.00141,0.00141 -0.00109,0.00241 -0.00556,0.00222 -0.00493,-2.032e-4 -0.00593,-0.00121 -0.00256,-0.00256 z m 0.1987021,8.8e-5 c 0.00291,-0.00117 0.00767,-0.00117 0.010583,0 0.00291,0.00117 5.292e-4,0.00214 -0.00529,0.00214 -0.00582,0 -0.0082,-9.609e-4 -0.00529,-0.00214 z M 3.0035908,2.903133 c 0.00421,-0.00466 0.00861,-0.00847 0.00978,-0.00847 0.00116,0 -0.00133,0.00381 -0.00555,0.00847 -0.00421,0.00466 -0.00861,0.00847 -0.00978,0.00847 -0.00116,0 0.00133,-0.00381 0.00555,-0.00847 z M 2.5474492,2.8577373 c 0.00757,-9.39e-4 0.01995,-9.39e-4 0.027517,0 0.00757,9.391e-4 0.00138,0.00171 -0.013758,0.00171 -0.015134,0 -0.021325,-7.684e-4 -0.013759,-0.00171 z m 0.089165,-0.00406 c 0.00306,-0.00122 0.00671,-0.00107 0.00811,3.34e-4 0.00141,0.00141 -0.00109,0.00241 -0.00556,0.00222 -0.00493,-2.032e-4 -0.00593,-0.00121 -0.00256,-0.00256 z m 0.1002767,-0.018278 c -0.00665,-0.00286 -0.00484,-0.00369 0.00847,-0.00387 0.012421,-1.706e-4 0.015241,8.608e-4 0.010583,0.00387 -0.00741,0.00479 -0.00791,0.00479 -0.01905,0 z m 0.3365499,-0.0016 c 0,-8.791e-4 0.00333,-0.00421 0.00741,-0.00741 0.00671,-0.00527 0.00686,-0.00512 0.0016,0.0016 -0.00553,0.00705 -0.00901,0.00929 -0.00901,0.00581 z m -1.733709,-0.05026 c -0.021007,-0.022225 -0.021007,-0.022225 0.00122,-0.00122 0.020652,0.019521 0.024166,0.023442 0.021008,0.023442 -6.696e-4,0 -0.010671,-0.010001 -0.022225,-0.022225 z m 1.0939357,-0.05715 c -0.00527,-0.00671 -0.00512,-0.00686 0.0016,-0.0016 0.00407,0.0032 0.00741,0.00653 0.00741,0.00741 0,0.00348 -0.00348,0.00124 -0.00901,-0.00581 z m -0.021685,-0.050429 c 0.00291,-0.00117 0.00767,-0.00117 0.010583,0 0.00291,0.00117 5.291e-4,0.00214 -0.00529,0.00214 -0.00582,0 -0.0082,-9.608e-4 -0.00529,-0.00214 z m 0.051065,-0.00432 c 0.00306,-0.00122 0.00671,-0.00107 0.00811,3.34e-4 0.00141,0.00141 -0.00109,0.00241 -0.00556,0.00222 -0.00493,-2.032e-4 -0.00593,-0.00121 -0.00256,-0.00256 z M 1.8921963,2.5570581 c -0.023139,-0.024342 -0.023139,-0.024342 0.0012,-0.0012 0.013388,0.012726 0.024342,0.02368 0.024342,0.024342 0,0.00314 -0.00405,-5.246e-4 -0.025545,-0.023139 z m 1.2151112,-0.053975 c 0.0079,-0.00815 0.015313,-0.014817 0.016478,-0.014817 0.00116,0 -0.00435,0.00667 -0.012244,0.014817 -0.0079,0.00815 -0.015313,0.014817 -0.016478,0.014817 -0.00116,0 0.00435,-0.00667 0.012244,-0.014817 z m -0.314325,-0.047254 c 0.00291,-0.00117 0.00767,-0.00117 0.010583,0 0.00291,0.00117 5.291e-4,0.00214 -0.00529,0.00214 -0.00582,0 -0.0082,-9.609e-4 -0.00529,-0.00214 z m 0.038365,-0.00432 c 0.00306,-0.00122 0.00671,-0.00107 0.00811,3.34e-4 0.00141,0.00141 -0.00109,0.00241 -0.00556,0.00222 -0.00493,-2.032e-4 -0.00593,-0.00121 -0.00256,-0.00256 z m 0.1891771,-0.060608 c 0.00421,-0.00466 0.00861,-0.00847 0.00978,-0.00847 0.00116,0 -0.00133,0.00381 -0.00555,0.00847 -0.00421,0.00466 -0.00861,0.00847 -0.00978,0.00847 -0.00116,0 0.00133,-0.00381 0.00555,-0.00847 z m -0.2645837,-0.0016 c 0,-8.789e-4 0.00333,-0.00421 0.00741,-0.00741 0.00671,-0.00527 0.00686,-0.00512 0.0016,0.0016 -0.00553,0.00705 -0.00901,0.00929 -0.00901,0.00581 z M 1.5624751,2.2656637 c 2.032e-4,-0.00493 0.00121,-0.00593 0.00256,-0.00256 0.00122,0.00306 0.00107,0.00671 -3.341e-4,0.00811 -0.00141,0.00141 -0.00241,-0.00109 -0.00222,-0.00556 z m -0.00374,-0.050447 c 8.63e-5,-0.00698 0.00104,-0.00933 0.00211,-0.00521 0.00107,0.00412 10e-4,0.00983 -1.57e-4,0.0127 -0.00116,0.00287 -0.00204,-5.039e-4 -0.00195,-0.00749 z m 1.5299607,-0.031044 c -0.0012,-0.00194 5.096e-4,-0.00353 0.0038,-0.00353 0.00329,0 0.005,0.00159 0.0038,0.00353 -0.0012,0.00194 -0.00291,0.00353 -0.0038,0.00353 -8.893e-4,0 -0.0026,-0.00159 -0.0038,-0.00353 z m 0.041897,-0.038806 c 0.00421,-0.00466 0.00861,-0.00847 0.00978,-0.00847 0.00116,0 -0.00133,0.00381 -0.00555,0.00847 -0.00421,0.00466 -0.00861,0.00847 -0.00978,0.00847 -0.00116,0 0.00133,-0.00381 0.00555,-0.00847 z m -1.572349,-0.061736 c 2.032e-4,-0.00493 0.00121,-0.00593 0.00256,-0.00256 0.00122,0.00306 0.00107,0.00671 -3.34e-4,0.00811 -0.00141,0.00141 -0.00241,-0.00109 -0.00222,-0.00556 z m 1.7652999,-0.046567 c 2.032e-4,-0.00493 0.00121,-0.00593 0.00256,-0.00256 0.00122,0.00306 0.00107,0.00671 -3.34e-4,0.00811 -0.00141,0.00141 -0.00241,-0.00109 -0.00222,-0.00556 z m 0.00511,-0.080081 c 3.39e-5,-0.011642 8.54e-4,-0.015902 0.00183,-0.00947 9.731e-4,0.00643 9.47e-4,0.01596 -5.76e-5,0.021167 -10e-4,0.00521 -0.0018,-5.84e-5 -0.00177,-0.0117 z m -2.3496452,-0.0635 c 4.7e-5,-0.00931 9.14e-4,-0.012625 0.00193,-0.00736 0.00101,0.00527 9.742e-4,0.012886 -8.55e-5,0.016933 -0.00106,0.00405 -0.00189,-2.612e-4 -0.00184,-0.00957 z m 2.3445332,-0.025753 c 2.032e-4,-0.00493 0.00121,-0.00593 0.00256,-0.00256 0.00122,0.00306 0.00107,0.00671 -3.34e-4,0.00811 -0.00141,0.00141 -0.00241,-0.00109 -0.00222,-0.00556 z M 3.2139661,1.817283 c 8.64e-5,-0.00699 0.00104,-0.00933 0.00211,-0.00521 0.00107,0.00412 10e-4,0.00983 -1.571e-4,0.0127 -0.00116,0.00287 -0.00204,-5.039e-4 -0.00195,-0.00749 z M 3.1118751,1.761897 c 2.032e-4,-0.00493 0.00121,-0.00593 0.00256,-0.00256 0.00122,0.00306 0.00107,0.00671 -3.34e-4,0.00811 -0.00141,0.00141 -0.00241,-0.00109 -0.00222,-0.00556 z M 3.2139661,1.74955 c 8.64e-5,-0.00699 0.00104,-0.00933 0.00211,-0.00521 0.00107,0.00412 10e-4,0.00983 -1.571e-4,0.0127 -0.00116,0.00287 -0.00204,-5.039e-4 -0.00195,-0.00749 z m -0.478053,0.00342 c 0.00412,-0.00107 0.00983,-10e-4 0.0127,1.571e-4 0.00287,0.00116 -5.039e-4,0.00204 -0.00749,0.00195 -0.00699,-8.64e-5 -0.00933,-0.00104 -0.00521,-0.00211 z m 0.091201,4.24e-5 c 0.00306,-0.00122 0.00671,-0.00107 0.00811,3.34e-4 0.00141,0.00141 -0.00109,0.00241 -0.00556,0.00222 -0.00493,-2.033e-4 -0.00593,-0.00121 -0.00256,-0.00256 z m 0.2900837,-0.073309 c 0,-0.017462 7.472e-4,-0.024606 0.00166,-0.015875 9.133e-4,0.00873 9.133e-4,0.023019 0,0.03175 -9.133e-4,0.00873 -0.00166,0.00159 -0.00166,-0.015875 z m 0.092044,0.022931 c 2.032e-4,-0.00493 0.00121,-0.00593 0.00256,-0.00256 0.00122,0.00306 0.00107,0.00671 -3.34e-4,0.00811 -0.00141,0.00141 -0.00241,-0.00109 -0.00222,-0.00556 z M 2.9930075,1.690283 c 0.00547,-0.00582 0.010895,-0.010583 0.012059,-0.010583 0.00116,0 -0.00236,0.00476 -0.00783,0.010583 -0.00547,0.00582 -0.010895,0.010583 -0.012059,0.010583 -0.00116,0 0.00236,-0.00476 0.00783,-0.010583 z M 0.9232419,1.6772303 c 2.031e-4,-0.00493 0.00121,-0.00593 0.00256,-0.00256 0.00122,0.00306 0.00107,0.00671 -3.34e-4,0.00811 -0.00141,0.00141 -0.00241,-0.00109 -0.00222,-0.00556 z m 0.063166,-0.1515289 c 0,-8.79e-4 0.00333,-0.00421 0.00741,-0.00741 0.00671,-0.00527 0.00686,-0.00512 0.0016,0.0016 -0.00553,0.00705 -0.00901,0.00929 -0.00901,0.00581 z m 0.13718,-0.2672184 c 4.2e-6,-0.037253 6.53e-4,-0.051927 0.00144,-0.032607 7.862e-4,0.019319 7.818e-4,0.049799 -8.5e-6,0.067733 -7.916e-4,0.017934 -0.00143,0.00213 -0.00143,-0.035126 z m 1.7757463,0.024342 c -0.00527,-0.00671 -0.00512,-0.00686 0.0016,-0.0016 0.00705,0.00553 0.00929,0.00901 0.00581,0.00901 -8.79e-4,0 -0.00421,-0.00333 -0.00741,-0.00741 z M 2.8316012,1.215092 c -0.00527,-0.00671 -0.00512,-0.00686 0.0016,-0.0016 0.00407,0.0032 0.00741,0.00653 0.00741,0.00741 0,0.00348 -0.00348,0.00124 -0.00901,-0.00581 z M 2.1262326,0.89784827 c 0.00407,-0.001065 0.010742,-0.001065 0.014817,0 0.00407,0.001065 7.409e-4,0.001936 -0.00741,0.001936 -0.00815,0 -0.011483,-8.7122e-4 -0.00741,-0.001936 z m -0.31115,-0.10571882 c 0.00291,-0.001174 0.00767,-0.001174 0.010583,0 0.00291,0.001174 5.292e-4,0.002135 -0.00529,0.002135 -0.00582,0 -0.0082,-9.6088e-4 -0.00529,-0.002135 z"
       id="path312" /><path
       style="fill:#412846;fill-opacity:1;stroke-width:0.00423333"
       d="m 2.1706826,3.1797294 c 0.00291,-0.00117 0.00767,-0.00117 0.010583,0 0.00291,0.00117 5.292e-4,0.00214 -0.00529,0.00214 -0.00582,0 -0.0082,-9.608e-4 -0.00529,-0.00214 z m 0.1354666,0 c 0.00291,-0.00117 0.00767,-0.00117 0.010583,0 0.00291,0.00117 5.291e-4,0.00214 -0.00529,0.00214 -0.00582,0 -0.0082,-9.608e-4 -0.00529,-0.00214 z m -0.1775354,-0.00432 c 0.00306,-0.00122 0.00671,-0.00107 0.00811,3.34e-4 0.00141,0.00141 -0.00109,0.00241 -0.00556,0.00222 -0.00493,-2.032e-4 -0.00593,-0.00121 -0.00256,-0.00256 z m 0.2624667,-0.00423 c 0.00306,-0.00122 0.00671,-0.00107 0.00811,3.34e-4 0.00141,0.00141 -0.00109,0.00241 -0.00556,0.00222 -0.00493,-2.032e-4 -0.00593,-0.00121 -0.00256,-0.00256 z m 0.5934603,-0.248478 c 0,-8.791e-4 0.00333,-0.00421 0.00741,-0.00741 0.00671,-0.00527 0.00686,-0.00512 0.0016,0.0016 -0.00553,0.00705 -0.00901,0.00929 -0.00901,0.00581 z m 0.055033,-0.050526 c 0,-7.286e-4 0.00619,-0.00692 0.013758,-0.013758 0.013758,-0.012434 0.013758,-0.012434 0.00132,0.00132 -0.01159,0.012825 -0.015083,0.015704 -0.015083,0.012434 z M 1.4092009,2.849158 c -0.00527,-0.00671 -0.00512,-0.00686 0.0016,-0.0016 0.00407,0.0032 0.00741,0.00653 0.00741,0.00741 0,0.00348 -0.00348,0.00124 -0.00901,-0.00581 z m 1.0792462,0.00452 c 0.00306,-0.00122 0.00671,-0.00107 0.00811,3.34e-4 0.00141,0.00141 -0.00109,0.00241 -0.00556,0.00222 -0.00493,-2.032e-4 -0.00593,-0.00121 -0.00256,-0.00256 z m 0.1354667,0 c 0.00306,-0.00122 0.00671,-0.00107 0.00811,3.34e-4 0.00141,0.00141 -0.00109,0.00241 -0.00556,0.00222 -0.00493,-2.032e-4 -0.00593,-0.00121 -0.00256,-0.00256 z M 2.4503471,2.849448 c 0.00306,-0.00122 0.00671,-0.00107 0.00811,3.34e-4 0.00141,0.00141 -0.00109,0.00241 -0.00556,0.00222 -0.00493,-2.033e-4 -0.00593,-0.00121 -0.00256,-0.00256 z M 2.7040825,2.832412 c 0.00524,-0.00101 0.013811,-0.00101 0.01905,0 0.00524,0.00101 9.525e-4,0.00183 -0.00953,0.00183 -0.010477,0 -0.014764,-8.256e-4 -0.00953,-0.00183 z M 1.3713205,2.815291 c -0.010263,-0.011642 -0.010263,-0.011642 0.00138,-0.00138 0.010881,0.00959 0.013583,0.013021 0.010263,0.013021 -7.583e-4,0 -0.006,-0.00524 -0.011642,-0.011642 z m 1.7148203,0.00581 c 0,-8.792e-4 0.00333,-0.00421 0.00741,-0.00741 0.00671,-0.00527 0.00686,-0.00512 0.0016,0.0016 -0.00553,0.00705 -0.00901,0.00929 -0.00901,0.00581 z M 1.9643076,2.7885832 c 0,-0.00247 -0.00238,-0.00311 -0.00529,-0.00144 -0.00291,0.00167 -0.00384,0.00144 -0.00206,-5.151e-4 0.00178,-0.00196 -0.00202,-0.00941 -0.00844,-0.016554 -0.00688,-0.00766 -0.0043,-0.00613 0.00629,0.00374 0.019299,0.017977 0.020206,0.019249 0.013731,0.019249 -0.00233,0 -0.00423,-0.00202 -0.00423,-0.00448 z M 1.305758,2.7496747 c -0.012434,-0.013758 -0.012434,-0.013758 0.00132,-0.00132 0.012825,0.01159 0.015704,0.015083 0.012434,0.015083 -7.286e-4,0 -0.00692,-0.00619 -0.013758,-0.013758 z m 1.0962973,-0.0508 c -0.00806,-0.00953 -0.00806,-0.00953 0.00146,-0.00146 0.00895,0.00758 0.011452,0.010985 0.00806,0.010985 -8.033e-4,0 -0.00509,-0.00429 -0.00953,-0.00953 z m -0.00701,-0.022912 c 0.00291,-0.00117 0.00767,-0.00117 0.010583,0 0.00291,0.00117 5.292e-4,0.00214 -0.00529,0.00214 -0.00582,0 -0.0082,-9.609e-4 -0.00529,-0.00214 z m 0.055298,-0.00432 c 0.00306,-0.00122 0.00671,-0.00107 0.00811,3.34e-4 0.00141,0.00141 -0.00109,0.00241 -0.00556,0.00222 -0.00493,-2.033e-4 -0.00593,-0.00121 -0.00256,-0.00256 z m 0.4410604,-0.00159 c 0,-0.00247 0.0019,-0.00331 0.00423,-0.00187 0.00233,0.00144 0.00423,0.00346 0.00423,0.00448 0,0.00103 -0.00191,0.00187 -0.00423,0.00187 -0.00233,0 -0.00423,-0.00202 -0.00423,-0.00448 z M 1.9468342,2.6078581 c -0.00527,-0.00671 -0.00512,-0.00686 0.0016,-0.0016 0.00705,0.00553 0.00929,0.00901 0.00581,0.00901 -8.791e-4,0 -0.00421,-0.00333 -0.00741,-0.00741 z m 1.13084,-0.075142 c 0.0079,-0.00815 0.015313,-0.014817 0.016478,-0.014817 0.00116,0 -0.00435,0.00667 -0.012244,0.014817 -0.0079,0.00815 -0.015313,0.014817 -0.016478,0.014817 -0.00116,0 0.00435,-0.00667 0.012244,-0.014817 z m 0.055033,-0.055033 c 0.00547,-0.00582 0.010895,-0.010583 0.012059,-0.010583 0.00116,0 -0.00236,0.00476 -0.00783,0.010583 -0.00547,0.00582 -0.010895,0.010583 -0.012059,0.010583 -0.00116,0 0.00236,-0.00476 0.00783,-0.010583 z M 1.8058068,2.4648485 c -0.00452,-0.00342 -0.00618,-0.00622 -0.00369,-0.00622 0.00249,0 0.0069,0.00286 0.00979,0.00635 0.00659,0.00794 0.00452,0.0079 -0.0061,-1.346e-4 z m 0.894307,-0.00911 c 0.00306,-0.00122 0.00671,-0.00107 0.00811,3.341e-4 0.00141,0.00141 -0.00109,0.00241 -0.00556,0.00222 -0.00493,-2.032e-4 -0.00593,-0.00121 -0.00256,-0.00256 z m 0.284427,-0.032573 c 0,-8.791e-4 0.00333,-0.00421 0.00741,-0.00741 0.00671,-0.00527 0.00686,-0.00512 0.0016,0.0016 -0.00553,0.00705 -0.00901,0.00929 -0.00901,0.00581 z M 2.7305409,2.4104681 c 0,-8.791e-4 0.00333,-0.00421 0.00741,-0.00741 0.00671,-0.00527 0.00686,-0.00512 0.0016,0.0016 -0.00553,0.00705 -0.00901,0.00929 -0.00901,0.00581 z m 0.3019777,-0.034199 c 0,-0.00339 0.0016,-0.00517 0.00356,-0.00396 0.00196,0.00121 0.00466,-6.651e-4 0.006,-0.00417 0.00134,-0.0035 0.00752,-0.00958 0.013728,-0.013518 0.00857,-0.00543 0.00726,-0.00295 -0.00545,0.010329 -0.0193,0.020164 -0.017838,0.019236 -0.017838,0.011319 z M 2.7686409,2.376875 c 0,-7.286e-4 0.00619,-0.00692 0.013758,-0.013758 0.013758,-0.012434 0.013758,-0.012434 0.00132,0.00132 -0.011585,0.012829 -0.015078,0.015709 -0.015078,0.012438 z M 1.0304554,2.2840081 c -0.00806,-0.00953 -0.00806,-0.00953 0.00146,-0.00146 0.00895,0.00758 0.011452,0.010986 0.00806,0.010986 -8.033e-4,0 -0.00509,-0.00429 -0.00953,-0.00953 z m 1.8313188,-0.00106 c 0.00547,-0.00582 0.010895,-0.010583 0.012059,-0.010583 0.00116,0 -0.00236,0.00476 -0.00783,0.010583 -0.00547,0.00582 -0.010895,0.010583 -0.012059,0.010583 -0.00116,0 0.00236,-0.00476 0.00783,-0.010583 z m 0.0254,-0.029115 c 0,-8.79e-4 0.00333,-0.00421 0.00741,-0.00741 0.00671,-0.00527 0.00686,-0.00512 0.0016,0.0016 -0.00553,0.00705 -0.00901,0.00929 -0.00901,0.00581 z M 0.9943343,2.2437914 c -0.00527,-0.00671 -0.00512,-0.00686 0.0016,-0.0016 0.00408,0.0032 0.00741,0.00653 0.00741,0.00741 0,0.00348 -0.00348,0.00124 -0.00901,-0.00581 z m 1.9140066,-0.015357 c 0,-8.79e-4 0.00333,-0.00421 0.00741,-0.00741 0.00671,-0.00527 0.00686,-0.00512 0.0016,0.0016 -0.00553,0.00705 -0.00901,0.00929 -0.00901,0.00581 z M 1.5590606,2.1876998 c 0,-0.010478 8.256e-4,-0.014764 0.00183,-0.00953 0.00101,0.00524 0.00101,0.013811 0,0.01905 -0.00101,0.00524 -0.00183,9.525e-4 -0.00183,-0.00953 z m 1.5397802,-0.00979 c 0,-7.285e-4 0.00619,-0.00692 0.013758,-0.013758 0.013758,-0.012434 0.013758,-0.012434 0.00132,0.00132 -0.01159,0.012825 -0.015083,0.015704 -0.015083,0.012434 z M 1.558576,2.0987998 c 0,-0.00582 9.609e-4,-0.0082 0.00214,-0.00529 0.00117,0.00291 0.00117,0.00767 0,0.010583 -0.00117,0.00291 -0.00214,5.292e-4 -0.00214,-0.00529 z m 1.7649657,-0.049036 c 2.032e-4,-0.00493 0.00121,-0.00593 0.00256,-0.00256 0.00122,0.00306 0.00107,0.00671 -3.34e-4,0.00811 -0.00141,0.00141 -0.00241,-0.00109 -0.00222,-0.00556 z m 0.00505,-0.056797 c 0,-0.010477 8.256e-4,-0.014764 0.00183,-0.00953 0.00101,0.00524 0.00101,0.013811 0,0.01905 -0.00101,0.00524 -0.00183,9.525e-4 -0.00183,-0.00953 z m 0,-0.071967 c 0,-0.010478 8.256e-4,-0.014764 0.00183,-0.00953 0.00101,0.00524 0.00101,0.013811 0,0.01905 -0.00101,0.00524 -0.00183,9.525e-4 -0.00183,-0.00953 z m -0.1193521,-0.05327 c 2.032e-4,-0.00493 0.00121,-0.00593 0.00256,-0.00256 0.00122,0.00306 0.00107,0.00671 -3.34e-4,0.00811 -0.00141,0.00141 -0.00241,-0.00109 -0.00222,-0.00556 z m 0.1143,-0.0127 c 2.032e-4,-0.00493 0.00121,-0.00593 0.00256,-0.00256 0.00122,0.00306 0.00107,0.00671 -3.34e-4,0.00811 -0.00141,0.00141 -0.00241,-0.00109 -0.00222,-0.00556 z M 3.2134751,1.8338636 c 2.032e-4,-0.00493 0.00121,-0.00593 0.00256,-0.00256 0.00122,0.00306 0.00107,0.00671 -3.34e-4,0.00811 -0.00141,0.00141 -0.00241,-0.00109 -0.00222,-0.00556 z M 1.6954909,1.7558998 c 0.00421,-0.00466 0.00861,-0.00847 0.00978,-0.00847 0.00116,0 -0.00133,0.00381 -0.00555,0.00847 -0.00421,0.00466 -0.00861,0.00847 -0.00978,0.00847 -0.00116,0 0.00133,-0.00381 0.00555,-0.00847 z m 1.0257895,-0.00289 c 0.00306,-0.00122 0.00671,-0.00107 0.00811,3.341e-4 0.00141,0.00141 -0.00109,0.00241 -0.00556,0.00222 -0.00493,-2.032e-4 -0.00593,-0.00121 -0.00256,-0.00256 z m 0.1185334,0 c 0.00306,-0.00122 0.00671,-0.00107 0.00811,3.341e-4 0.00141,0.00141 -0.00109,0.00241 -0.00556,0.00222 -0.00493,-2.032e-4 -0.00593,-0.00121 -0.00256,-0.00256 z m 0.2723954,-0.00558 c 0,-0.00582 9.609e-4,-0.0082 0.00214,-0.00529 0.00117,0.00291 0.00117,0.00767 0,0.010583 -0.00117,0.00291 -0.00214,5.292e-4 -0.00214,-0.00529 z m -0.4290288,0.00134 c 0.00306,-0.00122 0.00671,-0.00107 0.00811,3.341e-4 0.00141,0.00141 -0.00109,0.00241 -0.00556,0.00222 -0.00493,-2.032e-4 -0.00593,-0.00121 -0.00256,-0.00256 z m 0.5306288,-0.018275 c 0,-0.00582 9.609e-4,-0.0082 0.00214,-0.00529 0.00117,0.00291 0.00117,0.00767 0,0.010583 -0.00117,0.00291 -0.00214,5.292e-4 -0.00214,-0.00529 z m -1.482335,-0.010065 c 0,-8.79e-4 0.00333,-0.00421 0.00741,-0.00741 0.00671,-0.00527 0.00686,-0.00512 0.0016,0.0016 -0.00553,0.00705 -0.00901,0.00929 -0.00901,0.00581 z m 1.2403666,-0.00847 c 0,-8.79e-4 0.00333,-0.00421 0.00741,-0.00741 0.00671,-0.00527 0.00686,-0.00512 0.0016,0.0016 -0.00553,0.00705 -0.00901,0.00929 -0.00901,0.00581 z m 0.1403684,-0.10423 c 0,-0.00582 9.609e-4,-0.0082 0.00214,-0.00529 0.00117,0.00291 0.00117,0.00767 0,0.010583 -0.00117,0.00291 -0.00214,5.292e-4 -0.00214,-0.00529 z m -0.00457,-0.040569 c 2.032e-4,-0.00493 0.00121,-0.00593 0.00256,-0.00256 0.00122,0.00306 0.00107,0.00671 -3.34e-4,0.00811 -0.00141,0.00141 -0.00241,-0.00109 -0.00222,-0.00556 z M 0.9991076,1.5130014 c 0,-8.79e-4 0.00333,-0.00421 0.00741,-0.00741 0.00671,-0.00527 0.00686,-0.00512 0.0016,0.0016 -0.00553,0.00705 -0.00901,0.00929 -0.00901,0.00581 z m 0.0381,-0.034385 c 0.00547,-0.00582 0.010895,-0.010583 0.012059,-0.010583 0.00116,0 -0.00236,0.00476 -0.00783,0.010583 -0.00547,0.00582 -0.010895,0.010583 -0.012059,0.010583 -0.00116,0 0.00236,-0.00476 0.00783,-0.010583 z m 2.0526266,-0.047625 c -0.00527,-0.00671 -0.00512,-0.00686 0.0016,-0.0016 0.00705,0.00553 0.00929,0.00901 0.00581,0.00901 -8.79e-4,0 -0.00421,-0.00333 -0.00741,-0.00741 z M 2.9332008,1.3209247 c -0.00527,-0.00671 -0.00512,-0.00686 0.0016,-0.0016 0.00705,0.00553 0.00929,0.00901 0.00581,0.00901 -8.791e-4,0 -0.00421,-0.00333 -0.00741,-0.00741 z m -0.021167,-0.0254 c -0.00527,-0.00671 -0.00512,-0.00686 0.0016,-0.0016 0.00407,0.0032 0.00741,0.00653 0.00741,0.00741 0,0.00348 -0.00348,0.00124 -0.00901,-0.00581 z m -0.041793,-0.045508 c -0.010283,-0.010477 -0.017744,-0.01905 -0.01658,-0.01905 0.00116,0 0.01053,0.00857 0.020813,0.01905 0.010283,0.010477 0.017744,0.01905 0.016579,0.01905 -0.00116,0 -0.01053,-0.00857 -0.020812,-0.01905 z m -0.05134,-0.047625 c -0.00527,-0.00671 -0.00512,-0.00686 0.0016,-0.0016 0.00705,0.00553 0.00929,0.00901 0.00581,0.00901 -8.791e-4,0 -0.00421,-0.00333 -0.00741,-0.00741 z M 1.2946472,1.0502746 c 0.00306,-0.00122 0.00671,-0.00107 0.00811,3.341e-4 0.00141,0.00141 -0.00109,0.00241 -0.00556,0.00222 -0.00493,-2.032e-4 -0.00593,-0.00121 -0.00256,-0.00256 z M 2.1878805,0.90210793 c 0.00306,-0.001223 0.00671,-0.001073 0.00811,3.3401e-4 0.00141,0.001407 -0.00109,0.002407 -0.00556,0.002223 -0.00493,-2.032e-4 -0.00593,-0.001206 -0.00256,-0.002558 z m -0.0381,-0.004233 c 0.00306,-0.001223 0.00671,-0.001073 0.00811,3.3401e-4 0.00141,0.001407 -0.00109,0.002407 -0.00556,0.002223 -0.00493,-2.032e-4 -0.00593,-0.001206 -0.00256,-0.002558 z M 1.5896576,0.87959977 c 0.00421,-0.004657 0.00861,-0.008467 0.00978,-0.008467 0.00116,0 -0.00133,0.00381 -0.00555,0.008467 -0.00421,0.004657 -0.00861,0.008467 -0.00978,0.008467 -0.00116,0 0.00133,-0.00381 0.00555,-0.008467 z"
       id="path310" /><path
       style="fill:#4b314f;fill-opacity:1;stroke-width:0.00423333"
       d="M 2.1080897,4.1377897 C 2.1046804,4.1346493 1.733774,3.9314364 1.2838534,3.6862056 0.4979619,3.2578526 0.4657306,3.2398195 0.463648,3.2273071 0.4598068,3.2042287 0.1905398,0.69855196 0.1905739,0.68620287 c 3.29e-5,-0.0119198 3.29e-5,-0.0119198 0.9628381,-0.34577647 0.9628053,-0.33385671 0.9628053,-0.33385671 1.9260547,0 0.9351088,0.32410332 0.9632507,0.33416591 0.9632928,0.34444004 5.71e-5,0.0139754 -0.2740591,2.55311966 -0.2758136,2.55486696 -7.453e-4,7.421e-4 -0.3709251,0.2027738 -0.8226217,0.4489592 -0.4516967,0.2461852 -0.8219016,0.449229 -0.8226777,0.4512083 -0.00202,0.00514 -0.00643,0.00446 -0.013557,-0.00211 z M 2.4003409,3.1720788 C 2.8140333,3.1139465 3.1135525,2.8918541 3.2837134,2.5170615 3.3120164,2.4547224 3.3142144,2.4559955 3.2532364,2.4994144 3.1369744,2.5821994 3.0183231,2.64345 2.934978,2.6637073 2.890886,2.6744243 2.890161,2.6707273 2.931418,2.6455143 3.2033874,2.4793187 3.3431072,2.2237633 3.329847,1.9167655 3.326267,1.8338145 3.326987,1.8340595 3.289675,1.9031755 3.228389,2.0166949 3.1600967,2.1169065 3.1116459,2.1644151 c -0.025904,0.0254 -0.025904,0.0254 -0.00195,-0.016383 0.1468898,-0.2562416 0.1431457,-0.5197125 -0.010071,-0.7086824 -0.019717,-0.024318 -0.020203,-0.022054 -0.00746,0.034745 0.079134,0.3527592 -0.049695,0.680167 -0.3715732,0.9443209 -0.041472,0.034035 -0.0418,0.034626 -0.02132,0.038468 0.084085,0.015774 0.2168947,-0.014314 0.3118294,-0.070645 0.03483,-0.020667 0.03483,-0.020667 0.00623,0.0068 -0.1662034,0.1596203 -0.3903869,0.2673576 -0.5825287,0.2799494 -0.053754,0.00352 -0.054001,0.00402 -0.018841,0.037616 0.07417,0.070876 0.1618544,0.1098317 0.2743737,0.1218951 0.0508,0.00545 0.0508,0.00545 0.00423,0.012982 -0.3096782,0.050117 -0.6373803,-0.085287 -0.8635605,-0.356815 -0.067693,-0.081265 -0.036864,0.077775 0.035207,0.1816276 0.01764,0.025419 0.033344,0.044486 0.081411,0.098846 0.052575,0.059472 -0.1352578,-0.064208 -0.207784,-0.136806 C 1.5318879,2.4241763 1.4955807,2.0220657 1.6644019,1.7968537 1.7744218,1.6500844 1.997916,1.5354642 2.0966292,1.5751838 2.5776697,1.7687416 2.8872045,1.8076291 2.9986317,1.6885043 3.2226481,1.4490127 2.6183263,0.91229329 2.1082409,0.89771699 2.0299242,0.895479 2.0299242,0.895479 2.0108742,0.87783866 1.9480155,0.81963126 1.8746377,0.79092215 1.7883434,0.79077326 1.6909964,0.7906052 1.6634567,0.80335744 1.587409,0.88381426 1.4837377,0.99349639 1.408613,1.0375865 1.3056292,1.0491887 1.1571088,1.0659211 1.1257667,1.1041249 1.1217705,1.2732998 c -0.00305,0.1292721 -0.00249,0.127641 -0.064341,0.185839 -0.1330836,0.1252214 -0.137046,0.1313991 -0.1332618,0.2077635 0.00289,0.058336 0.01415,0.1051838 0.035472,0.1475987 0.029878,0.059433 0.024062,0.1296665 -0.015393,0.1858827 -0.058519,0.08338 -0.045063,0.1348419 0.068904,0.2635161 0.029915,0.033776 0.033091,0.039317 0.051766,0.090328 0.1561596,0.4265465 0.5870582,0.7643224 1.0454407,0.8195074 0.020955,0.00252 0.042863,0.0054 0.048683,0.00638 0.024109,0.00409 0.1956348,-0.00162 0.2413,-0.00804 z M 2.3860292,1.3705174 c -0.065357,-0.019551 -0.037365,-0.1192704 0.028384,-0.1011162 0.047703,0.013171 0.048369,0.1012652 7.654e-4,0.1012652 -0.00312,0 -0.00822,7.872e-4 -0.011317,0.00175 -0.0031,9.622e-4 -0.011126,1.079e-4 -0.017833,-0.0019 z"
       id="path308" /><path
       id="path950"
       style="fill:#412846;fill-opacity:1;stroke-width:0.00423333"
       d="M 2.1161499 0.089916992 C 1.8753933 0.089916992 1.6348201 0.1736195 1.153418 0.34054769 C 0.19061373 0.67440402 0.19071894 0.67434323 0.19068604 0.68626302 C 0.19065194 0.6986121 0.4596964 3.2041148 0.4635376 3.2271932 C 0.4656202 3.2397056 0.49775186 3.2577273 1.2836426 3.6860799 C 1.7335627 3.9313105 2.1044724 4.1345915 2.1078817 4.1377319 C 2.1132269 4.1426594 2.1173407 4.1445688 2.1197673 4.1428996 L 2.1197673 3.175 C 2.1158122 3.1745079 2.1144698 3.174448 2.1104655 3.1739665 C 1.6520835 3.1187815 1.2212107 2.7809243 1.0650513 2.3543783 C 1.0463763 2.3033673 1.0432898 2.2977205 1.0133748 2.2639445 C 0.89940795 2.1352704 0.88560948 2.0837746 0.94412842 2.0003947 C 0.98358338 1.9441786 0.98950932 1.8737925 0.95963135 1.8143595 C 0.93830937 1.7719447 0.92686461 1.7254176 0.92397461 1.6670817 C 0.92019041 1.5907174 0.92421634 1.5845637 1.0572998 1.4593424 C 1.1191507 1.4011445 1.1188453 1.4025793 1.1218953 1.2733073 C 1.1258915 1.1041326 1.1573432 1.065764 1.3058634 1.0490316 C 1.4088471 1.0374294 1.4838288 0.99334901 1.5875 0.88366699 C 1.6635476 0.80321025 1.6911744 0.79048135 1.7885213 0.79064941 C 1.8748155 0.7907983 1.9478713 0.81977524 2.01073 0.87798258 C 2.02978 0.89562291 2.0300818 0.89538164 2.1083984 0.89761963 C 2.1121646 0.89772725 2.1159912 0.89797217 2.1197673 0.89813639 L 2.1197673 0.089916992 C 2.1185709 0.089912871 2.1173462 0.089916992 2.1161499 0.089916992 z M 2.0422526 1.5673462 C 1.9309701 1.5720108 1.7573271 1.6729531 1.6644979 1.7967896 C 1.4956769 2.0220013 1.531995 2.4242403 1.7399455 2.6323975 C 1.8124716 2.7049954 2.0002597 2.8288119 1.9476847 2.76934 C 1.8996178 2.7149801 1.883676 2.6955402 1.866036 2.6701213 C 1.793965 2.5662688 1.7632031 2.4074721 1.830896 2.488737 C 1.9151857 2.5899262 2.0134661 2.6723437 2.1197673 2.7331665 L 2.1197673 1.5843994 C 2.1119268 1.5812912 2.1044467 1.57829 2.0965129 1.5750977 C 2.0810889 1.5688915 2.0628605 1.5664824 2.0422526 1.5673462 z " /></g></svg>
