<?xml version="1.0" encoding="UTF-8" standalone="no"?>
<!-- Created with Inkscape (http://www.inkscape.org/) -->

<svg
   width="16"
   height="16"
   viewBox="0 0 4.2333332 4.2333333"
   version="1.1"
   id="svg5"
   xml:space="preserve"
   inkscape:version="1.2.1 (9c6d41e4, 2022-07-14)"
   sodipodi:docname="pact_logo.svg"
   xmlns:inkscape="http://www.inkscape.org/namespaces/inkscape"
   xmlns:sodipodi="http://sodipodi.sourceforge.net/DTD/sodipodi-0.dtd"
   xmlns="http://www.w3.org/2000/svg"
   xmlns:svg="http://www.w3.org/2000/svg"><sodipodi:namedview
     id="namedview7"
     pagecolor="#ffffff"
     bordercolor="#000000"
     borderopacity="0.25"
     inkscape:showpageshadow="2"
     inkscape:pageopacity="0.0"
     inkscape:pagecheckerboard="0"
     inkscape:deskcolor="#d1d1d1"
     inkscape:document-units="mm"
     showgrid="false"
     inkscape:zoom="14.75"
     inkscape:cx="16.847458"
     inkscape:cy="5.2881356"
     inkscape:window-width="1680"
     inkscape:window-height="1050"
     inkscape:window-x="0"
     inkscape:window-y="67"
     inkscape:window-maximized="0"
     inkscape:current-layer="layer1" /><defs
     id="defs2" /><g
     inkscape:label="Layer 1"
     inkscape:groupmode="layer"
     id="layer1"><path
       style="fill:#ffffff;fill-opacity:1;stroke-width:0.00206706"
       d="m -7.4736216,3.8372902 c -0.00257,-0.00328 -0.0025,-0.00335 7.804e-4,-7.805e-4 0.00344,0.0027 0.00454,0.0044 0.00284,0.0044 -4.292e-4,0 -0.00206,-0.00163 -0.00362,-0.00362 z M -4.510709,3.5976295 c 0.00201,-5.24e-4 0.0048,-4.897e-4 0.0062,7.65e-5 0.0014,5.662e-4 -2.46e-4,9.949e-4 -0.00366,9.529e-4 -0.00341,-4.13e-5 -0.00456,-5.054e-4 -0.00254,-0.00103 z m 0.1012858,0 c 0.00201,-5.24e-4 0.0048,-4.897e-4 0.0062,7.65e-5 0.0014,5.662e-4 -2.46e-4,9.949e-4 -0.00366,9.529e-4 -0.00341,-4.13e-5 -0.00456,-5.054e-4 -0.00254,-0.00103 z m -0.1477046,-0.00205 c 0.00149,-5.97e-4 0.00327,-5.237e-4 0.00396,1.634e-4 6.869e-4,6.869e-4 -5.341e-4,0.00118 -0.00271,0.00109 -0.00241,-9.93e-5 -0.0029,-5.891e-4 -0.00125,-0.00125 z m 0.1922363,0 c 0.00149,-5.97e-4 0.00327,-5.237e-4 0.00396,1.634e-4 6.869e-4,6.869e-4 -5.341e-4,0.00118 -0.00271,0.00109 -0.00241,-9.93e-5 -0.0029,-5.891e-4 -0.00125,-0.00125 z M -4.5199208,3.2689879 c 0.00149,-5.973e-4 0.00327,-5.238e-4 0.00396,1.633e-4 6.869e-4,6.868e-4 -5.341e-4,0.00118 -0.00271,0.00109 -0.00241,-9.92e-5 -0.0029,-5.891e-4 -0.00125,-0.00125 z m 0.088884,0 c 0.00149,-5.973e-4 0.00327,-5.238e-4 0.00396,1.633e-4 6.869e-4,6.868e-4 -5.341e-4,0.00118 -0.00271,0.00109 -0.00241,-9.92e-5 -0.0029,-5.891e-4 -0.00125,-0.00125 z m 0.709714,-0.1866902 c 0,-0.00284 4.693e-4,-0.004 0.00104,-0.00258 5.734e-4,0.00142 5.734e-4,0.00375 0,0.00517 -5.734e-4,0.00142 -0.00104,2.584e-4 -0.00104,-0.00258 z m -1.633e-4,-0.071486 c 9.93e-5,-0.00241 5.892e-4,-0.0029 0.00125,-0.00125 5.971e-4,0.00149 5.237e-4,0.00328 -1.633e-4,0.00396 -6.869e-4,6.869e-4 -0.00118,-5.342e-4 -0.00109,-0.00271 z m -0.4994547,-0.059256 -0.00817,-0.00878 0.00879,0.00817 c 0.00817,0.0076 0.00973,0.0094 0.00817,0.0094 -3.376e-4,0 -0.00429,-0.00395 -0.00879,-0.00879 z M -4.8339897,2.6032572 c -0.00257,-0.00328 -0.0025,-0.00335 7.806e-4,-7.806e-4 0.00199,0.00156 0.00362,0.00319 0.00362,0.00362 0,0.0017 -0.0017,6.062e-4 -0.0044,-0.00284 z M -4.9927262,2.2625373 c 9.92e-5,-0.00241 5.891e-4,-0.0029 0.00125,-0.00125 5.972e-4,0.00149 5.238e-4,0.00328 -1.633e-4,0.00396 -6.869e-4,6.867e-4 -0.00118,-5.343e-4 -0.00109,-0.00271 z m 1.633e-4,-0.06494 c 0,-0.00284 4.692e-4,-0.004 0.00104,-0.00258 5.734e-4,0.00142 5.734e-4,0.00375 0,0.00517 -5.734e-4,0.00142 -0.00104,2.582e-4 -0.00104,-0.00258 z m 1.1912901,-0.2521811 c 0,-0.1062984 2.511e-4,-0.1497842 5.583e-4,-0.096635 3.07e-4,0.053149 3.07e-4,0.1401207 0,0.1932699 -3.072e-4,0.053149 -5.583e-4,0.00966 -5.583e-4,-0.096635 z m -0.4830035,0.064734 c 0.00149,-5.971e-4 0.00328,-5.238e-4 0.00396,1.634e-4 6.868e-4,6.869e-4 -5.342e-4,0.00118 -0.00271,0.00109 -0.00241,-9.92e-5 -0.0029,-5.891e-4 -0.00125,-0.00125 z m 0.082682,0 c 0.00149,-5.971e-4 0.00328,-5.238e-4 0.00396,1.634e-4 6.869e-4,6.869e-4 -5.341e-4,0.00118 -0.00271,0.00109 -0.00241,-9.92e-5 -0.0029,-5.891e-4 -0.00125,-0.00125 z M -4.3524892,1.6835549 c 0.00149,-5.971e-4 0.00328,-5.237e-4 0.00396,1.631e-4 6.868e-4,6.869e-4 -5.342e-4,0.00118 -0.00271,0.00109 -0.00241,-9.92e-5 -0.0029,-5.89e-4 -0.00125,-0.00125 z m 0.039145,-0.00202 c 0.00142,-5.734e-4 0.00375,-5.734e-4 0.00517,0 0.00142,5.735e-4 2.584e-4,0.00104 -0.00258,0.00104 -0.00284,0 -0.004,-4.691e-4 -0.00258,-0.00104 z m 0.1075112,-9.3e-5 c 0.00257,-4.944e-4 0.00629,-4.756e-4 0.00827,4.18e-5 0.00198,5.173e-4 -1.281e-4,9.219e-4 -0.00468,8.988e-4 -0.00455,-2.29e-5 -0.00616,-4.462e-4 -0.00359,-9.406e-4 z"
       id="path261" /><path
       style="fill:#b9b9b9;fill-opacity:1;stroke-width:0.00206706"
       d="m -3.5046081,3.835993 c 0,-4.291e-4 0.00163,-0.00206 0.00362,-0.00362 0.00328,-0.00257 0.00335,-0.0025 7.805e-4,7.805e-4 -0.0027,0.00344 -0.0044,0.00454 -0.0044,0.00284 z m -3.9752147,-0.0049 c -0.00257,-0.00328 -0.0025,-0.00335 7.805e-4,-7.806e-4 0.00344,0.0027 0.00454,0.0044 0.00284,0.0044 -4.293e-4,0 -0.00206,-0.00163 -0.00362,-0.00362 z m -0.014469,-0.014469 c -0.00257,-0.00328 -0.0025,-0.00335 7.805e-4,-7.805e-4 0.00344,0.0027 0.00454,0.0044 0.00284,0.0044 -4.293e-4,0 -0.00206,-0.00163 -0.00362,-0.00362 z m 4.0062205,0.00284 c 0,-4.291e-4 0.00163,-0.00206 0.00362,-0.00362 0.00328,-0.00257 0.00335,-0.0025 7.805e-4,7.806e-4 -0.0027,0.00344 -0.0044,0.00454 -0.0044,0.00284 z M -4.5231506,3.5976371 c 0.00199,-5.201e-4 0.00525,-5.201e-4 0.00723,0 0.00199,5.199e-4 3.618e-4,9.453e-4 -0.00362,9.453e-4 -0.00398,0 -0.00561,-4.254e-4 -0.00362,-9.453e-4 z m 0.1240627,0 c 0.00201,-5.239e-4 0.0048,-4.897e-4 0.0062,7.66e-5 0.0014,5.66e-4 -2.46e-4,9.948e-4 -0.00366,9.529e-4 -0.00341,-4.14e-5 -0.00456,-5.054e-4 -0.00254,-0.00103 z m -0.1642411,-0.00205 c 0.00149,-5.973e-4 0.00327,-5.238e-4 0.00396,1.632e-4 6.869e-4,6.869e-4 -5.341e-4,0.00118 -0.00271,0.00109 -0.00241,-9.92e-5 -0.0029,-5.891e-4 -0.00125,-0.00125 z m 0.2046387,0 c 0.00149,-5.973e-4 0.00327,-5.238e-4 0.00396,1.632e-4 6.869e-4,6.869e-4 -5.341e-4,0.00118 -0.00271,0.00109 -0.00241,-9.92e-5 -0.0029,-5.891e-4 -0.00125,-0.00125 z M -6.1023851,2.8192724 -6.102899,2.0632541 -6.3669656,2.0627217 -6.6310321,2.062189 -6.3669007,2.0616803 c 0.2097795,-4.041e-4 0.2643333,2.28e-5 0.2651122,0.00207 5.395e-4,0.00142 7.415e-4,0.342098 4.491e-4,0.7570597 l -5.317e-4,0.7544758 z m 1.5885363,0.4497585 c 0.00142,-5.735e-4 0.00375,-5.735e-4 0.00517,0 0.00142,5.733e-4 2.584e-4,0.00104 -0.00258,0.00104 -0.00284,0 -0.004,-4.691e-4 -0.00258,-0.00104 z m 0.074414,0 c 0.00142,-5.735e-4 0.00375,-5.735e-4 0.00517,0 0.00142,5.733e-4 2.584e-4,0.00104 -0.00258,0.00104 -0.00284,0 -0.004,-4.691e-4 -0.00258,-0.00104 z m 0.7179487,-0.2644201 c 9.93e-5,-0.00241 5.892e-4,-0.0029 0.00125,-0.00125 5.971e-4,0.00149 5.237e-4,0.00327 -1.633e-4,0.00396 -6.869e-4,6.869e-4 -0.00118,-5.342e-4 -0.00109,-0.00271 z m -0.1387156,-0.3166042 -0.013376,-0.013953 0.013953,0.013376 c 0.01296,0.012424 0.014898,0.014529 0.013376,0.014529 -3.171e-4,0 -0.0066,-0.00628 -0.013953,-0.013952 z m -1.010995,-0.1219565 c -0.00257,-0.00328 -0.0025,-0.00335 7.805e-4,-7.804e-4 0.00344,0.0027 0.00454,0.0044 0.00284,0.0044 -4.292e-4,0 -0.00206,-0.00163 -0.00362,-0.00362 z m 0.3773053,-0.2449462 -0.00394,-0.00465 0.00465,0.00394 c 0.00437,0.0037 0.00559,0.00536 0.00394,0.00536 -3.923e-4,0 -0.00249,-0.00209 -0.00465,-0.00465 z m -0.011436,-0.011369 c -0.00257,-0.00328 -0.0025,-0.00335 7.805e-4,-7.806e-4 0.00344,0.0027 0.00454,0.0044 0.00284,0.0044 -4.291e-4,0 -0.00206,-0.00163 -0.00362,-0.00362 z m -0.4872355,-0.039791 c 0,-0.00284 4.692e-4,-0.004 0.00104,-0.00258 5.734e-4,0.00142 5.734e-4,0.00375 0,0.00517 -5.734e-4,0.00142 -0.00104,2.582e-4 -0.00104,-0.00258 z m -1.633e-4,-0.079754 c 9.92e-5,-0.00241 5.891e-4,-0.0029 0.00125,-0.00125 5.972e-4,0.00149 5.238e-4,0.00328 -1.633e-4,0.00396 -6.869e-4,6.868e-4 -0.00118,-5.343e-4 -0.00109,-0.00271 z M -5.5482503,2.0616883 c 0.073701,-3.009e-4 0.1936942,-3.009e-4 0.2666504,3e-7 0.072956,3.009e-4 0.012655,5.472e-4 -0.1340026,5.472e-4 -0.1466577,0 -0.2063492,-2.464e-4 -0.1326478,-5.475e-4 z m 1.2701752,-0.051538 c 0.00149,-5.972e-4 0.00327,-5.238e-4 0.00396,1.633e-4 6.869e-4,6.869e-4 -5.341e-4,0.00118 -0.00271,0.00109 -0.00241,-9.92e-5 -0.0029,-5.891e-4 -0.00125,-0.00125 z m 0.07028,0 c 0.00149,-5.972e-4 0.00328,-5.238e-4 0.00396,1.633e-4 6.868e-4,6.869e-4 -5.342e-4,0.00118 -0.00271,0.00109 -0.00241,-9.92e-5 -0.0029,-5.891e-4 -0.00125,-0.00125 z m 0.059945,-0.3265951 c 0.00149,-5.971e-4 0.00327,-5.237e-4 0.00396,1.631e-4 6.869e-4,6.869e-4 -5.341e-4,0.00118 -0.00271,0.00109 -0.00241,-9.92e-5 -0.0029,-5.89e-4 -0.00125,-0.00125 z m -0.173762,-0.00202 c 0.00142,-5.734e-4 0.00375,-5.734e-4 0.00517,0 0.00142,5.735e-4 2.584e-4,0.00104 -0.00258,0.00104 -0.00284,0 -0.004,-4.691e-4 -0.00258,-0.00104 z m 0.1292304,-6.34e-5 c 0.00201,-5.241e-4 0.0048,-4.897e-4 0.0062,7.67e-5 0.0014,5.662e-4 -2.46e-4,9.95e-4 -0.00366,9.529e-4 -0.00341,-4.22e-5 -0.00456,-5.054e-4 -0.00254,-0.00103 z m -3.3037139,-1.83696621 c 0,-4.2923e-4 0.00163,-0.002057 0.00362,-0.003617 0.00328,-0.002571 0.00335,-0.002498 7.805e-4,7.8043e-4 -0.0027,0.003443 -0.0044,0.004538 -0.0044,0.002837 z m 4.0098272,-0.002837 c -0.00257,-0.003278 -0.0025,-0.003352 7.805e-4,-7.8043e-4 0.00344,0.0027 0.00454,0.004398 0.00284,0.004398 -4.292e-4,0 -0.00206,-0.001628 -0.00362,-0.003618 z m -3.9932907,-0.0136995 c 0,-4.2924e-4 0.00163,-0.002057 0.00362,-0.003617 0.00328,-0.002571 0.00335,-0.002498 7.804e-4,7.8042e-4 -0.0027,0.003443 -0.0044,0.004538 -0.0044,0.002837 z m 3.9767543,-0.002837 c -0.00257,-0.003278 -0.0025,-0.003352 7.805e-4,-7.8042e-4 0.00199,0.00156 0.00362,0.003188 0.00362,0.003617 0,0.001701 -0.0017,6.0627e-4 -0.0044,-0.002837 z"
       id="path259" /><path
       style="fill:#a3a3a3;fill-opacity:1;stroke-width:0.00206706"
       d="m -3.4942729,3.8254047 c 0.00267,-0.00284 0.00532,-0.00517 0.00589,-0.00517 5.684e-4,0 -0.00115,0.00233 -0.00382,0.00517 -0.00267,0.00284 -0.00532,0.00517 -0.00589,0.00517 -5.685e-4,0 0.00115,-0.00233 0.00382,-0.00517 z m -3.9927173,-0.00155 -0.00394,-0.00465 0.00465,0.00394 c 0.00437,0.0037 0.00559,0.00536 0.00394,0.00536 -3.922e-4,0 -0.00249,-0.00209 -0.00465,-0.00465 z M -4.5324523,3.597693 c 0.00142,-5.734e-4 0.00375,-5.734e-4 0.00517,0 0.00142,5.734e-4 2.584e-4,0.00104 -0.00258,0.00104 -0.00284,0 -0.004,-4.692e-4 -0.00258,-0.00104 z m 0.1426269,0 c 0.00142,-5.734e-4 0.00375,-5.734e-4 0.00517,0 0.00142,5.734e-4 2.583e-4,0.00104 -0.00258,0.00104 -0.00284,0 -0.004,-4.692e-4 -0.00258,-0.00104 z m -0.1797048,-0.00211 c 0.00149,-5.97e-4 0.00328,-5.237e-4 0.00396,1.634e-4 6.868e-4,6.869e-4 -5.342e-4,0.00118 -0.00271,0.00109 -0.00241,-9.93e-5 -0.0029,-5.891e-4 -0.00125,-0.00125 z M -4.9857354,3.4951924 c -5.418e-4,-0.00142 -7.45e-4,-0.095136 -4.517e-4,-0.208256 l 5.329e-4,-0.2056722 0.00103,0.2082562 c 5.685e-4,0.1145408 7.717e-4,0.208256 4.517e-4,0.208256 -3.198e-4,-2e-7 -0.00102,-0.00116 -0.00157,-0.00258 z m 0.4801548,-0.2261615 c 0.00142,-5.735e-4 0.00375,-5.735e-4 0.00517,0 0.00142,5.733e-4 2.583e-4,0.00104 -0.00258,0.00104 -0.00284,0 -0.004,-4.691e-4 -0.00258,-0.00104 z m 0.057878,0 c 0.00142,-5.735e-4 0.00375,-5.735e-4 0.00517,0 0.00142,5.733e-4 2.583e-4,0.00104 -0.00258,0.00104 -0.00284,0 -0.004,-4.691e-4 -0.00258,-0.00104 z m -0.090821,-0.00211 c 0.00149,-5.973e-4 0.00327,-5.238e-4 0.00396,1.631e-4 6.869e-4,6.869e-4 -5.341e-4,0.00118 -0.00271,0.00109 -0.00241,-9.92e-5 -0.0029,-5.891e-4 -0.00125,-0.00125 z m 0.8170375,-0.1734266 c 9.93e-5,-0.00241 5.892e-4,-0.0029 0.00125,-0.00125 5.971e-4,0.00149 5.237e-4,0.00328 -1.633e-4,0.00396 -6.869e-4,6.869e-4 -0.00118,-5.342e-4 -0.00109,-0.00271 z M -3.8438693,2.7045429 c -0.00257,-0.00328 -0.0025,-0.00335 7.805e-4,-7.804e-4 0.00199,0.00156 0.00362,0.00319 0.00362,0.00362 0,0.0017 -0.0017,6.063e-4 -0.0044,-0.00284 z m -0.033073,-0.033073 c -0.00257,-0.00328 -0.0025,-0.00335 7.805e-4,-7.804e-4 0.00199,0.00156 0.00362,0.00319 0.00362,0.00362 0,0.0017 -0.0017,6.063e-4 -0.0044,-0.00284 z M -4.2720031,2.010193 c 0.00142,-5.733e-4 0.00375,-5.733e-4 0.00517,0 0.00142,5.735e-4 2.584e-4,0.00104 -0.00258,0.00104 -0.00284,0 -0.004,-4.692e-4 -0.00258,-0.00104 z m 0.055811,0 c 0.00142,-5.733e-4 0.00375,-5.733e-4 0.00517,0 0.00142,5.735e-4 2.583e-4,0.00104 -0.00258,0.00104 -0.00284,0 -0.004,-4.692e-4 -0.00258,-0.00104 z M -4.8543965,1.8741027 c 0.00386,-0.00398 0.00748,-0.00723 0.00805,-0.00723 5.685e-4,0 -0.00212,0.00326 -0.00598,0.00723 -0.00386,0.00398 -0.00748,0.00723 -0.00805,0.00723 -5.685e-4,0 0.00212,-0.00326 0.00598,-0.00723 z m 0.491572,-0.1905478 c 0.00149,-5.971e-4 0.00328,-5.237e-4 0.00396,1.631e-4 6.869e-4,6.869e-4 -5.341e-4,0.00118 -0.00271,0.00109 -0.00241,-9.92e-5 -0.0029,-5.89e-4 -0.00125,-0.00125 z m 0.2211752,0 c 0.00149,-5.971e-4 0.00327,-5.237e-4 0.00396,1.631e-4 6.869e-4,6.869e-4 -5.341e-4,0.00118 -0.00271,0.00109 -0.00241,-9.92e-5 -0.0029,-5.89e-4 -0.00125,-0.00125 z m -0.1882314,-0.00202 c 0.00142,-5.734e-4 0.00375,-5.734e-4 0.00517,0 0.00142,5.735e-4 2.584e-4,0.00104 -0.00258,0.00104 -0.00284,0 -0.004,-4.691e-4 -0.00258,-0.00104 z m 0.1468902,-4.3e-5 c 0.00149,-5.971e-4 0.00328,-5.237e-4 0.00396,1.631e-4 6.868e-4,6.869e-4 -5.342e-4,0.00118 -0.00271,0.00109 -0.00241,-9.92e-5 -0.0029,-5.89e-4 -0.00125,-0.00125 z m -3.3027698,-1.84757059 c 0.00267,-0.002842 0.00532,-0.005168 0.00589,-0.005168 5.685e-4,0 -0.00115,0.002325 -0.00382,0.005168 -0.00267,0.002842 -0.00532,0.005168 -0.00589,0.005168 -5.684e-4,0 0.00115,-0.002325 0.00382,-0.005168 z m 3.991331,-5.1677e-4 -0.00501,-0.005684 0.00568,0.005011 c 0.00313,0.002756 0.00568,0.005314 0.00568,0.005684 0,0.001621 -0.00167,3.0174e-4 -0.00636,-0.005011 z"
       id="path257" /><path
       style="fill:#ffffff;fill-opacity:1;stroke-width:0.0131729"
       d="M 3.0614104,3.7670157 C 2.9360137,3.7443175 2.7729974,3.6726532 2.587183,3.5585389 2.5255994,3.5207189 2.4663209,3.4856584 2.4554532,3.4806299 2.444587,3.4756013 2.4104264,3.4552793 2.3795444,3.4354725 2.3486624,3.4156657 2.2498247,3.3551837 2.1599044,3.3010681 1.9756488,3.1901798 1.9765704,3.1919037 2.0895171,3.1693575 2.2272364,3.141866 2.468626,3.0557408 2.468626,3.0340956 c 0,-0.00554 0.00773,-0.01007 0.017187,-0.01007 0.00945,0 0.054461,-0.026248 0.1000209,-0.058329 0.082833,-0.058329 0.082833,-0.058329 0.3136724,0.081805 0.2182609,0.1324971 0.2353552,0.1404202 0.313726,0.1454106 0.3836086,0.024426 0.589797,-0.4459936 0.3030658,-0.6914464 -0.053628,-0.045903 -0.6982094,-0.439064 -0.7198459,-0.439064 -0.00642,0 -0.011675,-0.00458 -0.011675,-0.010182 0,-0.0056 -0.022229,-0.02165 -0.049398,-0.035673 -0.027169,-0.014023 -0.067059,-0.0376 -0.088644,-0.052394 C 2.4735268,1.8454415 2.3666787,1.8148257 2.2393878,1.8474355 2.1021871,1.8825845 2.091019,1.8983505 2.1524328,1.970187 2.1864398,2.009967 1.6034281,2.057834 1.564086,2.018492 1.523325,1.977731 1.572976,1.3782859 1.614121,1.4144211 c 0.046271,0.040638 0.083591,0.053301 0.092667,0.031445 0.012988,-0.031274 0.207506,-0.1319676 0.3139564,-0.162517 0.1471038,-0.042216 0.4620065,-0.048007 0.5664382,-0.010418 0.057594,0.020732 0.1282227,0.048984 0.1712488,0.0685 0.1103232,0.050042 1.0616152,0.6361302 1.1247815,0.6929743 C 4.6470156,2.7217587 4.0650654,3.9486842 3.06141,3.7670121 Z M 1.757285,2.9436714 C 1.5540666,2.9036583 1.5004322,2.882577 1.2830577,2.757275 1.2069834,2.7134233 1.1239939,2.6659321 1.0986359,2.6517376 1.0732778,2.6375444 0.9719132,2.5761986 0.8733811,2.5154149 0.7748488,2.4546304 0.6874134,2.4048988 0.6790797,2.4048988 c -0.00834,0 -0.015152,-0.00524 -0.015152,-0.011638 0,-0.0064 -0.010368,-0.015119 -0.023053,-0.019377 C 0.6163336,2.3656437 0.6154872,2.3651209 0.4732949,2.2714504 0.08544632,2.0159419 -0.10284178,1.4894659 0.05697064,1.1073601 c 0.00606,-0.014491 0.0218192,-0.053021 0.0350195,-0.085625 0.058903,-0.14548338 0.18629023,-0.30141228 0.31948701,-0.39106967 0.0410387,-0.0276234 0.0775791,-0.0532703 0.0812024,-0.0569907 C 0.6713097,0.39018404 1.2519193,0.41165783 1.572864,0.6136258 c 0.010866,0.006833 0.1543327,0.094655 0.3188111,0.19514732 0.2990515,0.1827133 0.2990515,0.1827133 0.2239407,0.19854298 -0.2014807,0.042463 -0.3663882,0.1104166 -0.5209253,0.2146624 -0.089721,0.060523 -0.070899,0.064775 -0.272323,-0.061521 -0.4813753,-0.30183198 -0.96931191,0.093412 -0.6361526,0.5153025 0.035286,0.044683 0.4264432,0.3076047 0.4576345,0.3076047 0.00341,0 0.1294905,0.075901 0.2801791,0.1686682 C 1.779992,2.3711724 1.8522289,2.3910779 2.0115807,2.313937 2.0794947,2.28106 2.0868557,2.263051 2.0470917,2.227065 1.9856237,2.171437 2.0026577,2.167787 2.3237244,2.167787 c 0.3029785,0 0.3029785,0 0.3024839,0.3260312 C 2.625714,2.819849 2.625714,2.819849 2.5803513,2.7671572 2.5349883,2.7144652 2.5349883,2.7144652 2.4919283,2.7393242 2.1905246,2.9133339 1.9470993,2.9810448 1.7572864,2.9436712 Z"
       id="path4964" /></g></svg>
