<?xml version="1.0" encoding="UTF-8" standalone="no"?>
<!-- Created with Inkscape (http://www.inkscape.org/) -->

<svg
   width="16"
   height="16"
   viewBox="0 0 4.2333332 4.2333333"
   version="1.1"
   id="svg5"
   xml:space="preserve"
   xmlns="http://www.w3.org/2000/svg"
   xmlns:svg="http://www.w3.org/2000/svg"><defs
     id="defs2" /><g
     id="g815"
     transform="translate(7.6595131,0.16138922)"><g
       id="g2691"
       transform="translate(8.1259393,-1.9672735e-4)"><g
         id="g4040"
         transform="translate(6.9957492)"><path
           style="fill:#d0d0d0;fill-opacity:1;stroke-width:0.00206706"
           d="m -22.114977,4.0706792 c 0.0015,-5.972e-4 0.0033,-5.238e-4 0.004,1.633e-4 6.87e-4,6.869e-4 -5.34e-4,0.00118 -0.0027,0.00109 -0.0024,-9.92e-5 -0.0029,-5.891e-4 -0.0012,-0.00125 z m 2.898015,0 c 0.0015,-5.972e-4 0.0033,-5.238e-4 0.004,1.633e-4 6.87e-4,6.869e-4 -5.34e-4,0.00118 -0.0027,0.00109 -0.0024,-9.92e-5 -0.0029,-5.891e-4 -0.0012,-0.00125 z m -3.372213,-0.2016764 -0.0039,-0.00465 0.0047,0.00394 c 0.0044,0.0037 0.0056,0.00536 0.0039,0.00536 -3.92e-4,0 -0.0025,-0.00209 -0.0047,-0.00465 z m 3.843889,0.00387 c 0,-4.292e-4 0.0016,-0.00206 0.0036,-0.00362 0.0033,-0.00257 0.0034,-0.0025 7.8e-4,7.805e-4 -0.0027,0.00344 -0.0044,0.00454 -0.0044,0.00284 z m -3.889364,-0.049346 -0.0039,-0.00465 0.0047,0.00394 c 0.0044,0.0037 0.0056,0.00536 0.0039,0.00536 -3.93e-4,0 -0.0025,-0.00209 -0.0047,-0.00465 z m 3.936907,0.0018 c 0,-4.292e-4 0.0016,-0.00206 0.0036,-0.00362 0.0033,-0.00257 0.0034,-0.0025 7.81e-4,7.805e-4 -0.0027,0.00344 -0.0044,0.00454 -0.0044,0.00284 z m 0.202734,-0.4758484 c 10e-5,-0.00241 5.9e-4,-0.0029 0.0012,-0.00125 5.98e-4,0.00149 5.24e-4,0.00327 -1.63e-4,0.00396 -6.87e-4,6.869e-4 -0.0012,-5.341e-4 -0.0011,-0.00271 z m 0,-2.78846015 c 10e-5,-0.002408 5.9e-4,-0.002898 0.0012,-0.001249 5.98e-4,0.001492 5.24e-4,0.003275 -1.63e-4,0.003962 -6.87e-4,6.8686e-4 -0.0012,-5.3401e-4 -0.0011,-0.002713 z m -4.34082,-0.002067 c 9.9e-5,-0.002408 5.89e-4,-0.002898 0.0012,-0.001249 5.97e-4,0.001492 5.24e-4,0.003275 -1.63e-4,0.003962 -6.87e-4,6.8685e-4 -0.0012,-5.34e-4 -0.0011,-0.002713 z m 0.198275,-0.46879663 c 0,-4.2923e-4 0.0016,-0.002057 0.0036,-0.0036174 0.0033,-0.0025711 0.0034,-0.002498 7.8e-4,7.8044e-4 -0.0027,0.0034432 -0.0044,0.0045382 -0.0044,0.0028369 z m 3.941614,-0.0028369 c -0.0026,-0.0032785 -0.0025,-0.0033516 7.81e-4,-7.8044e-4 0.0034,0.0027003 0.0045,0.0043978 0.0028,0.0043978 -4.29e-4,0 -0.0021,-0.0016278 -0.0036,-0.0036173 z m -3.894072,-0.0447054 c 0,-4.2923e-4 0.0016,-0.002057 0.0036,-0.0036173 0.0033,-0.0025712 0.0034,-0.002498 7.81e-4,7.8043e-4 -0.0027,0.0034432 -0.0044,0.0045382 -0.0044,0.0028369 z m 3.84653,-0.0028369 c -0.0026,-0.0032785 -0.0025,-0.0033516 7.8e-4,-7.8043e-4 0.0034,0.0027003 0.0045,0.0043978 0.0028,0.0043978 -4.29e-4,0 -0.0021,-0.0016278 -0.0036,-0.0036173 z m -3.371495,-0.20036629 c 0.0015,-5.9712e-4 0.0033,-5.2368e-4 0.004,1.6319e-4 6.87e-4,6.8687e-4 -5.34e-4,0.001175 -0.0027,0.001086 -0.0024,-9.919e-5 -0.0029,-5.8899e-4 -0.0012,-0.001249 z m 2.898015,0 c 0.0015,-5.9712e-4 0.0033,-5.2368e-4 0.004,1.6319e-4 6.87e-4,6.8687e-4 -5.34e-4,0.001175 -0.0027,0.001086 -0.0024,-9.919e-5 -0.0029,-5.8899e-4 -0.0012,-0.001249 z"
           id="path3472" /><path
           style="fill:#31a8ff;fill-opacity:1;stroke-width:0.00206706"
           d="m -19.901804,2.8669588 c -0.102336,-0.00425 -0.211448,-0.021786 -0.288355,-0.046355 -0.04009,-0.012806 -0.08186,-0.029844 -0.0925,-0.037726 -0.01363,-0.010096 -0.01292,1.509e-4 -0.01292,-0.1855289 0,-0.1681454 2.1e-5,-0.1685786 0.0043,-0.1728812 0.0052,-0.00523 0.0099,-0.00438 0.0251,0.0046 0.02184,0.012895 0.07154,0.036735 0.09978,0.04786 0.03775,0.01487 0.06802,0.024337 0.113688,0.035554 0.08392,0.020612 0.132058,0.026664 0.212907,0.026763 0.06318,7.85e-5 0.08766,-0.00242 0.122503,-0.012481 0.04027,-0.011631 0.06042,-0.026474 0.07346,-0.054116 0.0058,-0.012376 0.0066,-0.015934 0.0066,-0.032501 3.1e-5,-0.021901 -0.0045,-0.033765 -0.0203,-0.053049 -0.02442,-0.029826 -0.08465,-0.0624 -0.190516,-0.1030329 -0.08019,-0.030781 -0.117091,-0.047035 -0.163462,-0.072009 -0.114935,-0.0619 -0.172939,-0.111161 -0.225082,-0.1911555 -0.05456,-0.083701 -0.07091,-0.2038215 -0.04256,-0.3126055 0.02438,-0.093537 0.07741,-0.1724017 0.155219,-0.2308453 0.06317,-0.047444 0.14648,-0.082773 0.232478,-0.098581 0.101249,-0.018612 0.241214,-0.01865 0.378272,-1.048e-4 0.05678,0.00768 0.09208,0.015813 0.140145,0.032277 0.03178,0.010887 0.04107,0.015389 0.04541,0.022006 0.007,0.010662 0.0077,0.027248 0.0077,0.1755555 0,0.1568524 -3.1e-5,0.1573365 -0.01024,0.1628031 -0.0024,0.00129 -0.0097,0.0024 -0.01619,0.00247 -0.01018,9.82e-5 -0.01464,-0.00132 -0.03247,-0.010296 -0.05601,-0.028209 -0.122286,-0.048213 -0.209806,-0.063328 -0.0697,-0.012037 -0.160312,-0.016751 -0.205819,-0.010708 -0.07548,0.010024 -0.106301,0.028196 -0.119057,0.070193 -0.01205,0.039653 0.0064,0.076844 0.05392,0.1084933 0.03174,0.021161 0.115916,0.060636 0.174842,0.081999 0.107635,0.039021 0.233281,0.103987 0.292488,0.1512342 0.03505,0.027969 0.06286,0.058289 0.088,0.095936 0.03189,0.047765 0.05297,0.1135569 0.0564,0.1760841 0.0023,0.041481 -5.95e-4,0.09382 -0.0068,0.1245468 -0.01375,0.067634 -0.04384,0.1317524 -0.08488,0.1808675 -0.01764,0.021112 -0.05431,0.056406 -0.07438,0.071596 -0.112043,0.08478 -0.280754,0.1250596 -0.487825,0.1164683 z m -1.949637,-0.042158 -0.0058,-0.00499 -5.38e-4,-0.9391397 c -3.92e-4,-0.6861746 8.3e-5,-0.94064663 0.0018,-0.94473428 0.0014,-0.003497 0.0047,-0.006334 0.0088,-0.007566 0.0036,-0.001084 0.04046,-0.002508 0.08195,-0.003164 0.0415,-6.5613e-4 0.109864,-0.002127 0.151928,-0.003268 0.356916,-0.009682 0.431318,-0.008421 0.545146,0.009241 0.187768,0.0291339 0.347548,0.11358438 0.443915,0.23462678 0.06923,0.086955 0.110308,0.1867432 0.127216,0.309025 0.0044,0.031723 0.0061,0.1089871 0.0033,0.1469861 -0.0106,0.1433803 -0.04709,0.2465486 -0.122014,0.3449735 -0.01857,0.024392 -0.07245,0.079192 -0.09738,0.09904 -0.05009,0.039874 -0.122687,0.080627 -0.180868,0.1015293 -0.09883,0.035506 -0.200095,0.053189 -0.337964,0.059016 -0.05287,0.00223 -0.07922,0.00203 -0.192753,-0.00147 l -0.04289,-0.00132 v 0.2970616 0.2970613 l -0.006,0.00604 -0.006,0.00604 h -0.182979 -0.182978 z m 0.639123,-0.942598 c 0.05484,-0.00751 0.12162,-0.024507 0.158077,-0.040225 0.06572,-0.028336 0.121994,-0.081095 0.145794,-0.1367008 0.01692,-0.039531 0.02259,-0.073224 0.0226,-0.1343254 6e-6,-0.040431 -5.94e-4,-0.049261 -0.0046,-0.067569 -0.01619,-0.074023 -0.05355,-0.1309214 -0.111135,-0.1692373 -0.04008,-0.026666 -0.100716,-0.047619 -0.168362,-0.058174 -0.02103,-0.00328 -0.03903,-0.00371 -0.156063,-0.00371 -0.07276,0 -0.133919,6.685e-4 -0.135909,0.00149 -0.0034,0.00141 -0.0036,0.017897 -0.0036,0.305314 v 0.3038286 l 0.0067,0.00113 c 0.01377,0.00231 0.03177,0.00262 0.125574,0.00211 0.07545,-4.1e-4 0.101452,-0.00125 0.120923,-0.00392 z"
           id="path3470" /><path
           style="fill:#8c8c8c;fill-opacity:1;stroke-width:0.00206706"
           d="m -19.879583,2.8675833 c 0.0031,-4.736e-4 0.0082,-4.736e-4 0.01137,0 0.0031,4.737e-4 5.68e-4,8.611e-4 -0.0057,8.611e-4 -0.0063,0 -0.0088,-3.874e-4 -0.0057,-8.611e-4 z m 0.05584,0 c 0.0031,-4.75e-4 0.0078,-4.624e-4 0.01033,2.89e-5 0.0025,4.905e-4 -2.9e-5,8.793e-4 -0.0057,8.638e-4 -0.0057,-2.06e-5 -0.0078,-4.169e-4 -0.0046,-8.921e-4 z m -0.104286,-0.002 c 0.0015,-5.971e-4 0.0033,-5.238e-4 0.004,1.633e-4 6.87e-4,6.869e-4 -5.34e-4,0.00118 -0.0027,0.00109 -0.0024,-9.92e-5 -0.0029,-5.891e-4 -0.0012,-0.00125 z M -20.29666,2.5993087 c 0,-0.089814 2.54e-4,-0.1262537 5.65e-4,-0.080978 3.11e-4,0.045276 3.11e-4,0.1187595 0,0.1632976 -3.11e-4,0.044538 -5.65e-4,0.00749 -5.65e-4,-0.08232 z m 0.927124,0.1116211 c 0.0073,-0.00739 0.01378,-0.013436 0.01435,-0.013436 5.68e-4,0 -0.005,0.00605 -0.01228,0.013436 -0.0073,0.00739 -0.01378,0.013436 -0.01435,0.013436 -5.68e-4,0 0.005,-0.00605 0.01228,-0.013436 z m -0.509013,-0.1719012 c 0.0014,-5.734e-4 0.0037,-5.734e-4 0.0052,0 0.0014,5.734e-4 2.58e-4,0.00104 -0.0026,0.00104 -0.0028,0 -0.004,-4.692e-4 -0.0026,-0.00104 z m 0.07661,-4.34e-5 c 0.0015,-5.972e-4 0.0033,-5.238e-4 0.004,1.633e-4 6.87e-4,6.869e-4 -5.34e-4,0.00118 -0.0027,0.00109 -0.0024,-9.92e-5 -0.0029,-5.891e-4 -0.0012,-0.00125 z m 0.555067,-0.1215775 c 0,-0.0091 3.71e-4,-0.012559 8.08e-4,-0.0077 4.36e-4,0.00486 4.3e-4,0.012303 -2.1e-5,0.016536 -4.44e-4,0.00423 -8.01e-4,2.555e-4 -7.94e-4,-0.00884 z m -1.88e-4,-0.028939 c 2.3e-5,-0.00455 4.46e-4,-0.00616 9.41e-4,-0.00359 4.94e-4,0.00257 4.75e-4,0.00629 -4.2e-5,0.00827 -5.17e-4,0.00198 -9.22e-4,-1.282e-4 -8.99e-4,-0.00468 z m -0.420245,-0.010852 -0.0071,-0.00775 0.0078,0.00712 c 0.0072,0.00663 0.0087,0.00838 0.0071,0.00838 -3.45e-4,0 -0.0038,-0.00349 -0.0078,-0.00775 z M -21.37196,2.2268393 c 0.002,-5.24e-4 0.0048,-4.897e-4 0.0062,7.65e-5 0.0014,5.662e-4 -2.46e-4,9.949e-4 -0.0037,9.529e-4 -0.0034,-4.13e-5 -0.0046,-5.054e-4 -0.0025,-0.00103 z m 0.120883,-2.69e-5 c 0.0026,-4.928e-4 0.0067,-4.928e-4 0.0093,0 0.0026,4.926e-4 4.65e-4,8.957e-4 -0.0047,8.957e-4 -0.0051,0 -0.0072,-4.031e-4 -0.0047,-8.957e-4 z m -0.155029,-0.00198 c 0.0014,-5.734e-4 0.0037,-5.734e-4 0.0052,0 0.0014,5.734e-4 2.58e-4,0.00104 -0.0026,0.00104 -0.0028,0 -0.004,-4.692e-4 -0.0026,-0.00104 z m 0.206706,0 c 0.0014,-5.734e-4 0.0037,-5.734e-4 0.0052,0 0.0014,5.734e-4 2.59e-4,0.00104 -0.0026,0.00104 -0.0028,0 -0.004,-4.692e-4 -0.0026,-0.00104 z m 1.024613,-0.1252383 -0.0061,-0.00672 0.0067,0.00607 c 0.0037,0.00334 0.0067,0.00636 0.0067,0.00672 0,0.0016 -0.0017,1.902e-4 -0.0074,-0.00607 z m -0.521801,-0.047805 c 0,-4.291e-4 0.0016,-0.00206 0.0036,-0.00362 0.0033,-0.00257 0.0034,-0.0025 7.8e-4,7.806e-4 -0.0027,0.00344 -0.0044,0.00454 -0.0044,0.00284 z m 0.03101,-0.028939 c 0,-4.291e-4 0.0016,-0.00206 0.0036,-0.00362 0.0033,-0.00257 0.0034,-0.0025 7.8e-4,7.806e-4 -0.0027,0.00344 -0.0044,0.00454 -0.0044,0.00284 z M -21.42871,1.8857928 c 0.0015,-5.971e-4 0.0033,-5.237e-4 0.004,1.631e-4 6.87e-4,6.869e-4 -5.34e-4,0.00118 -0.0027,0.00109 -0.0024,-9.93e-5 -0.0029,-5.89e-4 -0.0012,-0.00125 z m 0.165365,0 c 0.0015,-5.971e-4 0.0033,-5.237e-4 0.004,1.631e-4 6.87e-4,6.869e-4 -5.34e-4,0.00118 -0.0027,0.00109 -0.0024,-9.93e-5 -0.0029,-5.89e-4 -0.0012,-0.00125 z m 0.970001,-0.041135 c 9.9e-5,-0.00241 5.89e-4,-0.0029 0.0012,-0.00125 5.98e-4,0.00149 5.24e-4,0.00327 -1.63e-4,0.00396 -6.87e-4,6.869e-4 -0.0012,-5.34e-4 -0.0011,-0.00271 z m 0,-0.051676 c 9.9e-5,-0.00241 5.89e-4,-0.0029 0.0012,-0.00125 5.98e-4,0.00149 5.24e-4,0.00327 -1.63e-4,0.00396 -6.87e-4,6.869e-4 -0.0012,-5.34e-4 -0.0011,-0.00271 z m -0.664722,-0.017398 c 0.0044,-0.00455 0.0085,-0.00827 0.0091,-0.00827 5.68e-4,0 -0.0026,0.00372 -0.007,0.00827 -0.0044,0.00455 -0.0085,0.00827 -0.0091,0.00827 -5.68e-4,0 0.0026,-0.00372 0.007,-0.00827 z m 1.062467,-0.049609 c 0.0021,-0.00227 0.0042,-0.00413 0.0048,-0.00413 5.68e-4,0 -6.5e-4,0.00186 -0.0027,0.00413 -0.0021,0.00227 -0.0042,0.00413 -0.0048,0.00413 -5.68e-4,0 6.5e-4,-0.00186 0.0027,-0.00413 z m 0.186552,-0.038576 c 0.0014,-5.734e-4 0.0037,-5.734e-4 0.0052,0 0.0014,5.734e-4 2.58e-4,0.00104 -0.0026,0.00104 -0.0028,0 -0.004,-4.692e-4 -0.0026,-0.00104 z m -0.784639,-0.073045 c 0,-0.00284 4.7e-4,-0.004 0.001,-0.00258 5.73e-4,0.00142 5.73e-4,0.00375 0,0.00517 -5.73e-4,0.00142 -0.001,2.584e-4 -0.001,-0.00258 z m -1.63e-4,-0.098357 c 9.9e-5,-0.00241 5.89e-4,-0.0029 0.0012,-0.00125 5.97e-4,0.00149 5.24e-4,0.00328 -1.63e-4,0.00396 -6.87e-4,6.869e-4 -0.0012,-5.34e-4 -0.0011,-0.00271 z m 0.689846,-0.1490343 c 0.0015,-5.971e-4 0.0033,-5.237e-4 0.004,1.631e-4 6.87e-4,6.868e-4 -5.34e-4,0.00118 -0.0027,0.00109 -0.0024,-9.92e-5 -0.0029,-5.89e-4 -0.0012,-0.00125 z m 0.03604,-0.00208 c 0.002,-5.199e-4 0.0052,-5.199e-4 0.0072,0 0.002,5.2e-4 3.61e-4,9.454e-4 -0.0036,9.454e-4 -0.004,0 -0.0056,-4.254e-4 -0.0036,-9.454e-4 z m 0.09201,-3.7e-5 c 0.0026,-4.944e-4 0.0063,-4.756e-4 0.0083,4.18e-5 0.002,5.174e-4 -1.28e-4,9.219e-4 -0.0047,8.99e-4 -0.0045,-2.3e-5 -0.0062,-4.463e-4 -0.0036,-9.408e-4 z m -1.758056,-0.093036 c 0.0031,-4.736e-4 0.0082,-4.736e-4 0.01137,0 0.0031,4.736e-4 5.69e-4,8.611e-4 -0.0057,8.611e-4 -0.0063,0 -0.0088,-3.875e-4 -0.0057,-8.611e-4 z m 0.02274,5.56e-5 c 0.002,-5.199e-4 0.0052,-5.199e-4 0.0072,0 0.002,5.2e-4 3.62e-4,9.454e-4 -0.0036,9.454e-4 -0.004,0 -0.0056,-4.254e-4 -0.0036,-9.454e-4 z m 0.03204,5.61e-5 c 0.0014,-5.735e-4 0.0037,-5.735e-4 0.0052,0 0.0014,5.734e-4 2.59e-4,0.00104 -0.0026,0.00104 -0.0028,0 -0.004,-4.692e-4 -0.0026,-0.00104 z m 0.731991,-0.1324731 c -0.0026,-0.00328 -0.0025,-0.00335 7.8e-4,-7.804e-4 0.002,0.00156 0.0036,0.00319 0.0036,0.00362 0,0.0017 -0.0017,6.063e-4 -0.0044,-0.00284 z m -0.03514,-0.03514 c -0.0026,-0.00328 -0.0025,-0.00335 7.8e-4,-7.804e-4 0.002,0.00156 0.0036,0.00319 0.0036,0.00362 0,0.0017 -0.0017,6.063e-4 -0.0044,-0.00284 z m -1.063715,-0.17971606 c 0.002,-5.2409e-4 0.0048,-4.8963e-4 0.0062,7.668e-5 0.0014,5.6623e-4 -2.46e-4,9.9502e-4 -0.0037,9.529e-4 -0.0034,-4.217e-5 -0.0046,-5.054e-4 -0.0025,-0.00103 z m 0.0744,-0.002118 c 0.0031,-4.7513e-4 0.0078,-4.6242e-4 0.01034,2.811e-5 0.0025,4.9064e-4 -2.9e-5,8.7937e-4 -0.0057,8.6387e-4 -0.0057,-1.654e-5 -0.0078,-4.1697e-4 -0.0046,-8.9208e-4 z m 0.07852,-0.002009 c 0.002,-5.1991e-4 0.0052,-5.1991e-4 0.0072,0 0.002,5.1992e-4 3.62e-4,9.4532e-4 -0.0036,9.4532e-4 -0.004,0 -0.0056,-4.254e-4 -0.0036,-9.4532e-4 z m 0.09508,-0.002123 c 0.0031,-4.7362e-4 0.0082,-4.7362e-4 0.01137,0 0.0031,4.7361e-4 5.68e-4,8.6112e-4 -0.0057,8.6112e-4 -0.0063,0 -0.0088,-3.8751e-4 -0.0057,-8.6112e-4 z m 0.317422,6.842e-5 c 0.0015,-5.9711e-4 0.0033,-5.2369e-4 0.004,1.6308e-4 6.87e-4,6.8688e-4 -5.34e-4,0.001175 -0.0027,0.001086 -0.0024,-9.921e-5 -0.0029,-5.8898e-4 -0.0012,-0.001249 z m -0.232644,-0.002138 c 0.0031,-4.7514e-4 0.0078,-4.6243e-4 0.01033,2.811e-5 0.0025,4.9063e-4 -2.8e-5,8.7935e-4 -0.0057,8.6386e-4 -0.0057,-1.653e-5 -0.0078,-4.1697e-4 -0.0046,-8.9208e-4 z m 0.186006,5.829e-5 c 0.002,-5.1991e-4 0.0052,-5.1991e-4 0.0072,0 0.002,5.1992e-4 3.62e-4,9.4532e-4 -0.0036,9.4532e-4 -0.004,0 -0.0056,-4.254e-4 -0.0036,-9.4532e-4 z"
           id="path3468" /><path
           style="fill:#767676;fill-opacity:1;stroke-width:0.00206706"
           d="m -22.102574,4.0706792 c 0.0015,-5.972e-4 0.0033,-5.238e-4 0.004,1.633e-4 6.86e-4,6.869e-4 -5.34e-4,0.00118 -0.0027,0.00109 -0.0024,-9.92e-5 -0.0029,-5.891e-4 -0.0012,-0.00125 z m 2.873209,0 c 0.0015,-5.972e-4 0.0033,-5.238e-4 0.004,1.633e-4 6.87e-4,6.869e-4 -5.34e-4,0.00118 -0.0027,0.00109 -0.0024,-9.92e-5 -0.0029,-5.891e-4 -0.0012,-0.00125 z m -3.372212,-0.2140787 -0.0039,-0.00465 0.0047,0.00394 c 0.0044,0.0037 0.0056,0.00536 0.0039,0.00536 -3.92e-4,0 -0.0025,-0.00209 -0.0046,-0.00465 z m 3.871794,5.167e-4 c 0.0021,-0.00227 0.0042,-0.00413 0.0048,-0.00413 5.69e-4,0 -6.5e-4,0.00186 -0.0027,0.00413 -0.0021,0.00227 -0.0042,0.00413 -0.0048,0.00413 -5.68e-4,0 6.51e-4,-0.00186 0.0027,-0.00413 z m -3.891391,-0.020154 -0.005,-0.00568 0.0057,0.00501 c 0.0053,0.00468 0.0066,0.00636 0.005,0.00636 -3.7e-4,0 -0.0029,-0.00256 -0.0057,-0.00568 z m 3.912062,-5.167e-4 c 0.0021,-0.00227 0.0042,-0.00413 0.0048,-0.00413 5.68e-4,0 -6.5e-4,0.00186 -0.0027,0.00413 -0.0021,0.00227 -0.0042,0.00413 -0.0048,0.00413 -5.68e-4,0 6.5e-4,-0.00186 0.0027,-0.00413 z M -22.835829,3.33708 c 9.9e-5,-0.00241 5.89e-4,-0.0029 0.0012,-0.00125 5.97e-4,0.00149 5.24e-4,0.00327 -1.63e-4,0.00396 -6.87e-4,6.869e-4 -0.0012,-5.341e-4 -0.0011,-0.00271 z m 4.34082,0 c 10e-5,-0.00241 5.9e-4,-0.0029 0.0012,-0.00125 5.98e-4,0.00149 5.24e-4,0.00327 -1.63e-4,0.00396 -6.87e-4,6.869e-4 -0.0012,-5.341e-4 -0.0011,-0.00271 z m -1.399044,-0.4694409 c 0.002,-5.201e-4 0.0052,-5.201e-4 0.0072,0 0.002,5.198e-4 3.62e-4,9.452e-4 -0.0036,9.452e-4 -0.004,0 -0.0056,-4.254e-4 -0.0036,-9.452e-4 z m 0.08686,0 c 0.002,-5.24e-4 0.0048,-4.897e-4 0.0062,7.65e-5 0.0014,5.661e-4 -2.46e-4,9.948e-4 -0.0037,9.529e-4 -0.0034,-4.14e-5 -0.0046,-5.054e-4 -0.0025,-0.00103 z m -0.12923,-0.002 c 0.0014,-5.734e-4 0.0037,-5.734e-4 0.0052,0 0.0014,5.734e-4 2.59e-4,0.00104 -0.0026,0.00104 -0.0028,0 -0.004,-4.692e-4 -0.0026,-0.00104 z m 0.169628,-4.34e-5 c 0.0015,-5.972e-4 0.0033,-5.238e-4 0.004,1.633e-4 6.87e-4,6.869e-4 -5.34e-4,0.00118 -0.0027,0.00109 -0.0024,-9.92e-5 -0.0029,-5.891e-4 -0.0012,-0.00125 z m -1.98435,-0.035278 c 0.04926,-3.086e-4 0.129251,-3.086e-4 0.177767,2e-7 0.04852,3.091e-4 0.0082,5.617e-4 -0.08955,5.614e-4 -0.09777,0 -0.137467,-2.528e-4 -0.08821,-5.616e-4 z m 0.284554,-0.3136835 c 0,-0.1603003 2.45e-4,-0.226183 5.45e-4,-0.146406 3e-4,0.079777 3e-4,0.2109318 0,0.2914551 -3e-4,0.080523 -5.45e-4,0.015251 -5.45e-4,-0.1450491 z m 1.597386,0.022339 c 0.002,-5.24e-4 0.0048,-4.896e-4 0.0062,7.65e-5 0.0014,5.662e-4 -2.46e-4,9.949e-4 -0.0037,9.529e-4 -0.0034,-4.13e-5 -0.0046,-5.054e-4 -0.0025,-0.00103 z m 0.05887,6.41e-5 c 0.0014,-5.734e-4 0.0037,-5.734e-4 0.0052,0 0.0014,5.734e-4 2.58e-4,0.00104 -0.0026,0.00104 -0.0028,0 -0.004,-4.692e-4 -0.0026,-0.00104 z m 0.563083,-0.1019844 c 0,-0.00284 4.69e-4,-0.004 0.001,-0.00258 5.74e-4,0.00142 5.74e-4,0.00375 0,0.00517 -5.73e-4,0.00142 -0.001,2.584e-4 -0.001,-0.00258 z m -1.63e-4,-0.059083 c 9.9e-5,-0.00241 5.89e-4,-0.0029 0.0012,-0.00125 5.98e-4,0.00149 5.24e-4,0.00328 -1.63e-4,0.00396 -6.87e-4,6.869e-4 -0.0012,-5.341e-4 -0.0011,-0.00271 z m -2.131687,-0.1511014 c 0.0015,-5.972e-4 0.0033,-5.238e-4 0.004,1.633e-4 6.87e-4,6.869e-4 -5.34e-4,0.00118 -0.0027,0.00109 -0.0024,-9.92e-5 -0.0029,-5.891e-4 -0.0012,-0.00125 z m 0.14357,-2.07e-5 c 0.002,-5.24e-4 0.0048,-4.897e-4 0.0062,7.65e-5 0.0014,5.661e-4 -2.46e-4,9.949e-4 -0.0037,9.529e-4 -0.0034,-4.13e-5 -0.0046,-5.054e-4 -0.0025,-0.00103 z m -0.186046,-0.00212 c 0.0031,-4.75e-4 0.0078,-4.624e-4 0.01034,2.89e-5 0.0025,4.905e-4 -2.9e-5,8.794e-4 -0.0057,8.639e-4 -0.0057,-2.07e-5 -0.0078,-4.17e-4 -0.0046,-8.922e-4 z m 1.257063,-0.1147887 -0.0039,-0.00465 0.0047,0.00394 c 0.0026,0.00217 0.0047,0.00426 0.0047,0.00465 0,0.00165 -0.0017,4.328e-4 -0.0054,-0.00394 z m -0.0197,-0.019637 c -0.0026,-0.00328 -0.0025,-0.00335 7.8e-4,-7.805e-4 0.002,0.00156 0.0036,0.00319 0.0036,0.00362 0,0.0017 -0.0017,6.063e-4 -0.0044,-0.00284 z m -0.489629,-0.059428 c 0.0039,-0.00398 0.0075,-0.00723 0.008,-0.00723 5.68e-4,0 -0.0021,0.00326 -0.006,0.00723 -0.0039,0.00398 -0.0075,0.00723 -0.008,0.00723 -5.68e-4,0 0.0021,-0.00326 0.006,-0.00723 z m 0.01447,-0.014216 c 0,-4.291e-4 0.0016,-0.00206 0.0036,-0.00362 0.0033,-0.00257 0.0034,-0.0025 7.8e-4,7.805e-4 -0.0027,0.00344 -0.0044,0.00454 -0.0044,0.00284 z m -0.763261,-0.130813 c 0.0014,-5.734e-4 0.0037,-5.734e-4 0.0052,0 0.0014,5.734e-4 2.58e-4,0.00104 -0.0026,0.00104 -0.0028,0 -0.004,-4.692e-4 -0.0026,-0.00104 z m 0.153092,-4.3e-5 c 0.0015,-5.971e-4 0.0033,-5.237e-4 0.004,1.631e-4 6.87e-4,6.868e-4 -5.34e-4,0.00118 -0.0027,0.00109 -0.0024,-9.92e-5 -0.0029,-5.89e-4 -0.0012,-0.00125 z m -0.183968,-0.00207 c 0.0015,-5.971e-4 0.0033,-5.237e-4 0.004,1.631e-4 6.86e-4,6.869e-4 -5.34e-4,0.00118 -0.0027,0.00109 -0.0024,-9.92e-5 -0.0029,-5.89e-4 -0.0012,-0.00125 z m -0.01101,-0.3045125 c 0,-0.16769 2.45e-4,-0.2362904 5.44e-4,-0.1524454 2.99e-4,0.083845 2.99e-4,0.2210459 0,0.3048909 -2.99e-4,0.083845 -5.44e-4,0.015244 -5.44e-4,-0.1524455 z m 1.171179,0.207567 c 9.9e-5,-0.00241 5.89e-4,-0.0029 0.0012,-0.00125 5.98e-4,0.00149 5.24e-4,0.00328 -1.63e-4,0.00396 -6.87e-4,6.869e-4 -0.0012,-5.34e-4 -0.0011,-0.00271 z m 0.520347,-0.099425 c 0.0015,-5.971e-4 0.0033,-5.237e-4 0.004,1.631e-4 6.87e-4,6.869e-4 -5.34e-4,0.00118 -0.0027,0.00109 -0.0024,-9.92e-5 -0.0029,-5.89e-4 -0.0012,-0.00125 z m 0.04538,-8.6e-5 c 0.0037,-4.6e-4 0.0093,-4.505e-4 0.0124,2.11e-5 0.0031,4.717e-4 6.6e-5,8.481e-4 -0.0068,8.365e-4 -0.0068,-1.24e-5 -0.0094,-3.975e-4 -0.0056,-8.576e-4 z m -1.158813,-0.091519 c 0,-0.00284 4.7e-4,-0.004 10e-4,-0.00258 5.73e-4,0.00142 5.73e-4,0.00375 0,0.00517 -5.73e-4,0.00142 -10e-4,2.584e-4 -10e-4,-0.00258 z m 1.262258,-0.2287883 c 0.0015,-5.971e-4 0.0033,-5.237e-4 0.004,1.631e-4 6.87e-4,6.868e-4 -5.34e-4,0.00118 -0.0027,0.00109 -0.0024,-9.92e-5 -0.0029,-5.89e-4 -0.0012,-0.00125 z m -0.150895,-0.00207 c 0.0015,-5.971e-4 0.0033,-5.237e-4 0.004,1.631e-4 6.87e-4,6.869e-4 -5.34e-4,0.00118 -0.0027,0.00109 -0.0024,-9.93e-5 -0.0029,-5.89e-4 -0.0012,-0.00125 z m 0.111492,4.3e-5 c 0.0014,-5.734e-4 0.0037,-5.734e-4 0.0052,0 0.0014,5.734e-4 2.58e-4,0.00104 -0.0026,0.00104 -0.0028,0 -0.004,-4.692e-4 -0.0026,-0.00104 z m -1.308194,-0.00638 c -0.0026,-0.00328 -0.0025,-0.00335 7.8e-4,-7.805e-4 0.002,0.00156 0.0036,0.00319 0.0036,0.00362 0,0.0017 -0.0017,6.063e-4 -0.0044,-0.00284 z m -0.398162,-0.086691 c 0.002,-5.199e-4 0.0052,-5.199e-4 0.0072,0 0.002,5.199e-4 3.62e-4,9.453e-4 -0.0036,9.453e-4 -0.004,0 -0.0056,-4.254e-4 -0.0036,-9.453e-4 z m 0.154125,1.24e-5 c 0.0015,-5.971e-4 0.0033,-5.237e-4 0.004,1.631e-4 6.87e-4,6.868e-4 -5.34e-4,0.00118 -0.0027,0.00109 -0.0024,-9.92e-5 -0.0029,-5.89e-4 -0.0012,-0.00125 z m -0.540625,-0.34728557 c 0.002,-5.2409e-4 0.0048,-4.8963e-4 0.0062,7.668e-5 0.0014,5.6624e-4 -2.46e-4,9.9502e-4 -0.0037,9.529e-4 -0.0034,-4.216e-5 -0.0046,-5.0539e-4 -0.0025,-0.00103 z m 0.06613,-0.002118 c 0.0031,-4.7512e-4 0.0078,-4.6241e-4 0.01034,2.811e-5 0.0025,4.9064e-4 -2.8e-5,8.7938e-4 -0.0057,8.6388e-4 -0.0057,-1.655e-5 -0.0078,-4.1698e-4 -0.0046,-8.9209e-4 z m 0.08371,-0.002046 c 0.0026,-4.9441e-4 0.0063,-4.7565e-4 0.0083,4.176e-5 0.002,5.1737e-4 -1.28e-4,9.2191e-4 -0.0047,8.9896e-4 -0.0045,-2.294e-5 -0.0062,-4.4624e-4 -0.0036,-9.4072e-4 z m 0.08683,-0.002103 c 0.0037,-4.6005e-4 0.0093,-4.5056e-4 0.0124,2.109e-5 0.0031,4.7166e-4 6.6e-5,8.4805e-4 -0.0068,8.3644e-4 -0.0068,-1.239e-5 -0.0094,-3.9748e-4 -0.0056,-8.5753e-4 z m 0.09094,-0.002031 c 0.0026,-4.9441e-4 0.0063,-4.7564e-4 0.0083,4.176e-5 0.002,5.1736e-4 -1.28e-4,9.219e-4 -0.0047,8.9897e-4 -0.0045,-2.295e-5 -0.0062,-4.4627e-4 -0.0036,-9.4073e-4 z m 0.212883,9.303e-5 c 0.0014,-5.7343e-4 0.0037,-5.7343e-4 0.0052,0 0.0014,5.7342e-4 2.58e-4,0.001043 -0.0026,0.001043 -0.0028,0 -0.004,-4.6917e-4 -0.0026,-0.001043 z m -1.619893,-0.34296834 c 9.9e-5,-0.002408 5.89e-4,-0.002898 0.0012,-0.001249 5.97e-4,0.001492 5.24e-4,0.003275 -1.63e-4,0.003962 -6.87e-4,6.8686e-4 -0.0012,-5.34e-4 -0.0011,-0.002713 z m 4.34082,0 c 10e-5,-0.002408 5.9e-4,-0.002898 0.0012,-0.001249 5.98e-4,0.001492 5.24e-4,0.003275 -1.63e-4,0.003962 -6.87e-4,6.8686e-4 -0.0012,-5.34e-4 -0.0011,-0.002713 z m -4.127043,-0.4990212 c 0.0021,-0.0022738 0.0042,-0.0041341 0.0048,-0.0041341 5.69e-4,0 -6.5e-4,0.0018604 -0.0027,0.0041341 -0.0021,0.0022738 -0.0042,0.0041341 -0.0048,0.0041341 -5.69e-4,0 6.5e-4,-0.0018603 0.0027,-0.0041341 z m 3.91371,5.1677e-4 c -0.0026,-0.0032785 -0.0025,-0.0033516 7.8e-4,-7.8044e-4 0.0034,0.0027003 0.0045,0.0043978 0.0028,0.0043978 -4.29e-4,0 -0.0021,-0.0016278 -0.0036,-0.0036174 z m -0.02164,-0.02170411 -0.0039,-0.0046509 0.0047,0.0039377 c 0.0044,0.0037005 0.0056,0.005364 0.0039,0.005364 -3.92e-4,0 -0.0025,-0.0020929 -0.0047,-0.0046508 z m -3.872436,0.0018034 c 0,-4.2923e-4 0.0016,-0.002057 0.0036,-0.0036174 0.0033,-0.0025712 0.0034,-0.002498 7.8e-4,7.8043e-4 -0.0027,0.0034432 -0.0044,0.0045382 -0.0044,0.0028369 z m 0.499841,-0.21560554 c 0.0015,-5.9712e-4 0.0033,-5.2368e-4 0.004,1.6319e-4 6.86e-4,6.8687e-4 -5.34e-4,0.001175 -0.0027,0.001086 -0.0024,-9.919e-5 -0.0029,-5.8899e-4 -0.0012,-0.001249 z m 2.873209,0 c 0.0015,-5.9712e-4 0.0033,-5.2368e-4 0.004,1.6319e-4 6.87e-4,6.8687e-4 -5.34e-4,0.001175 -0.0027,0.001086 -0.0024,-9.919e-5 -0.0029,-5.8899e-4 -0.0012,-0.001249 z"
           id="path3466" /><path
           style="fill:#606060;fill-opacity:1;stroke-width:0.00206706"
           d="m -22.096373,4.0706792 c 0.0015,-5.972e-4 0.0033,-5.238e-4 0.004,1.633e-4 6.87e-4,6.869e-4 -5.34e-4,0.00118 -0.0027,0.00109 -0.0024,-9.92e-5 -0.0029,-5.891e-4 -0.0012,-0.00125 z m 2.860807,0 c 0.0015,-5.972e-4 0.0033,-5.238e-4 0.004,1.633e-4 6.87e-4,6.869e-4 -5.34e-4,0.00118 -0.0027,0.00109 -0.0024,-9.92e-5 -0.0029,-5.891e-4 -0.0012,-0.00125 z m -3.375273,-0.2233805 -0.005,-0.00568 0.0057,0.00501 c 0.0053,0.00468 0.0066,0.00636 0.005,0.00636 -3.7e-4,0 -0.0029,-0.00256 -0.0057,-0.00568 z m 3.886224,0.00504 c 0,-3.557e-4 0.003,-0.00338 0.0067,-0.00672 l 0.0067,-0.00607 -0.0061,0.00672 c -0.0057,0.00626 -0.0074,0.00767 -0.0074,0.00607 z m -4.111214,-0.5214573 c 9.9e-5,-0.00241 5.89e-4,-0.0029 0.0012,-0.00125 5.97e-4,0.00149 5.24e-4,0.00327 -1.63e-4,0.00396 -6.87e-4,6.869e-4 -0.0012,-5.341e-4 -0.0011,-0.00271 z m 4.34082,0 c 10e-5,-0.00241 5.9e-4,-0.0029 0.0012,-0.00125 5.98e-4,0.00149 5.24e-4,0.00327 -1.63e-4,0.00396 -6.87e-4,6.869e-4 -0.0012,-5.341e-4 -0.0011,-0.00271 z m -1.408345,-0.4631841 c 0.0014,-5.734e-4 0.0037,-5.734e-4 0.0052,0 0.0014,5.734e-4 2.59e-4,0.00104 -0.0026,0.00104 -0.0028,0 -0.004,-4.692e-4 -0.0026,-0.00104 z m 0.105419,0 c 0.0014,-5.734e-4 0.0037,-5.734e-4 0.0052,0 0.0014,5.734e-4 2.59e-4,0.00104 -0.0026,0.00104 -0.0028,0 -0.004,-4.692e-4 -0.0026,-0.00104 z m -0.05888,-0.3287764 c 0.0031,-4.75e-4 0.0078,-4.624e-4 0.01033,2.89e-5 0.0025,4.905e-4 -2.9e-5,8.794e-4 -0.0057,8.639e-4 -0.0057,-2.07e-5 -0.0078,-4.17e-4 -0.0046,-8.922e-4 z m 0.03201,2.48e-5 c 0.0026,-4.928e-4 0.0067,-4.928e-4 0.0093,0 0.0026,4.926e-4 4.66e-4,8.957e-4 -0.0046,8.957e-4 -0.0051,0 -0.0072,-4.031e-4 -0.0047,-8.957e-4 z m 0.161747,-0.040916 c 0.0027,-0.00284 0.0053,-0.00517 0.0059,-0.00517 5.69e-4,0 -0.0012,0.00233 -0.0038,0.00517 -0.0027,0.00284 -0.0053,0.00517 -0.0059,0.00517 -5.69e-4,0 0.0012,-0.00233 0.0038,-0.00517 z m 0.415642,-0.1262626 c 9.9e-5,-0.00241 5.89e-4,-0.0029 0.0012,-0.00125 5.98e-4,0.00149 5.24e-4,0.00328 -1.63e-4,0.00396 -6.87e-4,6.869e-4 -0.0012,-5.341e-4 -0.0011,-0.00271 z m -2.137888,-0.1449003 c 0.0015,-5.972e-4 0.0033,-5.238e-4 0.004,1.633e-4 6.86e-4,6.869e-4 -5.34e-4,0.00118 -0.0027,0.00109 -0.0024,-9.92e-5 -0.0029,-5.891e-4 -0.0012,-0.00125 z m 0.159034,4.34e-5 c 0.0014,-5.734e-4 0.0037,-5.734e-4 0.0052,0 0.0014,5.734e-4 2.58e-4,0.00104 -0.0026,0.00104 -0.0028,0 -0.004,-4.692e-4 -0.0026,-0.00104 z m -0.229374,-0.00222 c 0.006,-4.188e-4 0.01531,-4.144e-4 0.02067,0 0.0054,4.244e-4 4.48e-4,7.671e-4 -0.01092,7.617e-4 -0.01137,0 -0.01576,-3.526e-4 -0.0097,-7.714e-4 z m 0.268777,1.137e-4 c 0.0015,-5.972e-4 0.0033,-5.238e-4 0.004,1.633e-4 6.87e-4,6.869e-4 -5.34e-4,0.00118 -0.0027,0.00109 -0.0024,-9.92e-5 -0.0029,-5.891e-4 -0.0012,-0.00125 z m 0.996446,-0.1406982 c -0.0026,-0.00328 -0.0025,-0.00335 7.8e-4,-7.805e-4 0.0034,0.0027 0.0045,0.0044 0.0028,0.0044 -4.29e-4,0 -0.0021,-0.00163 -0.0036,-0.00362 z m -0.462757,-0.073644 c 0,-4.292e-4 0.0016,-0.00206 0.0036,-0.00362 0.0033,-0.00257 0.0034,-0.0025 7.8e-4,7.805e-4 -0.0027,0.00344 -0.0044,0.00454 -0.0044,0.00284 z m -0.760121,-0.1246754 c 0.002,-5.241e-4 0.0048,-4.896e-4 0.0062,7.67e-5 0.0014,5.662e-4 -2.46e-4,9.95e-4 -0.0037,9.529e-4 -0.0034,-4.22e-5 -0.0046,-5.054e-4 -0.0025,-0.00103 z m 0.129151,-2.63e-5 c 0.0026,-4.927e-4 0.0067,-4.927e-4 0.0093,0 0.0026,4.927e-4 4.65e-4,8.958e-4 -0.0047,8.958e-4 -0.0051,0 -0.0072,-4.031e-4 -0.0047,-8.958e-4 z m 1.391383,-0.045567 c -0.0026,-0.00328 -0.0025,-0.00335 7.8e-4,-7.804e-4 0.002,0.00156 0.0036,0.00319 0.0036,0.00362 0,0.0017 -0.0017,6.063e-4 -0.0044,-0.00284 z m 0.12691,-0.1528444 c 0.002,-5.241e-4 0.0048,-4.896e-4 0.0062,7.67e-5 0.0014,5.662e-4 -2.46e-4,9.95e-4 -0.0037,9.529e-4 -0.0034,-4.22e-5 -0.0046,-5.054e-4 -0.0025,-0.00103 z m 0.0227,8.3e-6 c 0.002,-5.199e-4 0.0052,-5.199e-4 0.0072,0 0.002,5.199e-4 3.62e-4,9.453e-4 -0.0036,9.453e-4 -0.004,0 -0.0056,-4.254e-4 -0.0036,-9.453e-4 z m -1.143119,-0.1019287 c 0,-0.00398 4.25e-4,-0.00561 9.45e-4,-0.00362 5.2e-4,0.00199 5.2e-4,0.00525 0,0.00723 -5.2e-4,0.00199 -9.45e-4,3.618e-4 -9.45e-4,-0.00362 z m 0.394969,-0.011369 c 2e-5,-0.00682 3.97e-4,-0.00936 8.57e-4,-0.00565 4.6e-4,0.00372 4.51e-4,0.0093 -2.1e-5,0.012402 -4.71e-4,0.00311 -8.48e-4,6.64e-5 -8.36e-4,-0.00675 z m -2.1e-5,-0.023771 c 0,-0.00625 3.87e-4,-0.00881 8.61e-4,-0.00568 4.74e-4,0.00313 4.74e-4,0.00824 0,0.011369 -4.74e-4,0.00313 -8.61e-4,5.685e-4 -8.61e-4,-0.00568 z m -0.395264,-0.00327 c 9.9e-5,-0.00241 5.89e-4,-0.0029 0.0012,-0.00125 5.98e-4,0.00149 5.24e-4,0.00327 -1.63e-4,0.00396 -6.86e-4,6.869e-4 -0.0012,-5.34e-4 -0.0011,-0.00271 z m -0.0768,-0.1801785 -0.005,-0.00568 0.0057,0.00501 c 0.0053,0.00468 0.0066,0.00636 0.005,0.00636 -3.7e-4,0 -0.0029,-0.00256 -0.0057,-0.00568 z m 1.372295,0.00221 c 0.0015,-5.971e-4 0.0033,-5.237e-4 0.004,1.631e-4 6.87e-4,6.869e-4 -5.34e-4,0.00118 -0.0027,0.00109 -0.0024,-9.92e-5 -0.0029,-5.89e-4 -0.0012,-0.00125 z m -0.02687,-0.00207 c 0.0015,-5.971e-4 0.0033,-5.237e-4 0.004,1.631e-4 6.86e-4,6.868e-4 -5.35e-4,0.00118 -0.0027,0.00109 -0.0024,-9.92e-5 -0.0029,-5.89e-4 -0.0012,-0.00125 z m -0.165494,-0.00202 c 0.0014,-5.735e-4 0.0037,-5.735e-4 0.0052,0 0.0014,5.734e-4 2.58e-4,0.00104 -0.0026,0.00104 -0.0028,0 -0.004,-4.692e-4 -0.0026,-0.00104 z m 0.128287,-4.3e-5 c 0.0015,-5.971e-4 0.0033,-5.237e-4 0.004,1.631e-4 6.86e-4,6.868e-4 -5.35e-4,0.00118 -0.0027,0.00109 -0.0024,-9.92e-5 -0.0029,-5.89e-4 -0.0012,-0.00125 z m -1.701318,-0.093064 c 0.0026,-4.927e-4 0.0067,-4.927e-4 0.0093,0 0.0026,4.927e-4 4.65e-4,8.958e-4 -0.0047,8.958e-4 -0.0051,0 -0.0072,-4.031e-4 -0.0047,-8.958e-4 z m 0.134488,4.67e-5 c 0.0015,-5.971e-4 0.0033,-5.237e-4 0.004,1.631e-4 6.87e-4,6.868e-4 -5.34e-4,0.00118 -0.0027,0.00109 -0.0024,-9.92e-5 -0.0029,-5.889e-4 -0.0012,-0.00125 z m -0.544759,-0.34728597 c 0.002,-5.2409e-4 0.0048,-4.8963e-4 0.0062,7.668e-5 0.0014,5.6623e-4 -2.46e-4,9.9502e-4 -0.0037,9.529e-4 -0.0034,-4.217e-5 -0.0046,-5.054e-4 -0.0025,-0.00103 z m 0.06197,-0.00206 c 0.002,-5.199e-4 0.0052,-5.199e-4 0.0072,0 0.002,5.1993e-4 3.62e-4,9.4533e-4 -0.0036,9.4533e-4 -0.004,0 -0.0056,-4.254e-4 -0.0036,-9.4533e-4 z m 0.08686,-0.002075 c 0.002,-5.2408e-4 0.0048,-4.8962e-4 0.0062,7.669e-5 0.0014,5.6623e-4 -2.46e-4,9.9502e-4 -0.0037,9.5289e-4 -0.0034,-4.217e-5 -0.0046,-5.0539e-4 -0.0025,-0.00103 z m 0.08163,-0.002097 c 0.0026,-4.9442e-4 0.0063,-4.7565e-4 0.0083,4.175e-5 0.002,5.1737e-4 -1.28e-4,9.2191e-4 -0.0047,8.9896e-4 -0.0045,-2.294e-5 -0.0062,-4.4625e-4 -0.0036,-9.4071e-4 z m 0.365975,4.981e-5 c 0.0015,-5.9711e-4 0.0033,-5.2369e-4 0.004,1.6309e-4 6.87e-4,6.8687e-4 -5.34e-4,0.001175 -0.0027,0.001086 -0.0024,-9.921e-5 -0.0029,-5.8898e-4 -0.0012,-0.001249 z m -0.271948,-0.00208 c 0.002,-5.199e-4 0.0052,-5.199e-4 0.0072,0 0.002,5.1993e-4 3.62e-4,9.4533e-4 -0.0036,9.4533e-4 -0.004,0 -0.0056,-4.254e-4 -0.0036,-9.4533e-4 z m 0.234611,5.602e-5 c 0.0014,-5.7342e-4 0.0037,-5.7342e-4 0.0052,0 0.0014,5.7342e-4 2.58e-4,0.001043 -0.0026,0.001043 -0.0028,0 -0.004,-4.6918e-4 -0.0026,-0.001043 z m -1.628161,-0.33676723 c 9.9e-5,-0.002408 5.89e-4,-0.002898 0.0012,-0.001249 5.97e-4,0.001492 5.24e-4,0.003275 -1.63e-4,0.003962 -6.87e-4,6.8687e-4 -0.0012,-5.34e-4 -0.0011,-0.002713 z m 4.34082,0 c 1e-4,-0.002408 5.9e-4,-0.002898 0.0012,-0.001249 5.98e-4,0.001492 5.24e-4,0.003275 -1.63e-4,0.003962 -6.87e-4,6.8687e-4 -0.0012,-5.34e-4 -0.0011,-0.002713 z m -0.223516,-0.51504175 -0.0071,-0.0077515 0.0078,0.0071234 c 0.0072,0.0066303 0.0087,0.0083795 0.0071,0.0083795 -3.45e-4,0 -0.0038,-0.0034882 -0.0078,-0.0077514 z m -3.892158,-0.0015503 c 0.0039,-0.0039791 0.0075,-0.0072347 0.008,-0.0072347 5.68e-4,0 -0.0021,0.0032556 -0.006,0.0072347 -0.0039,0.0039791 -0.0075,0.0072347 -0.008,0.0072347 -5.69e-4,0 0.0021,-0.0032556 0.006,-0.0072347 z m 0.51431,-0.22362068 c 0.0015,-5.9711e-4 0.0033,-5.2368e-4 0.004,1.6319e-4 6.87e-4,6.8687e-4 -5.34e-4,0.001175 -0.0027,0.001086 -0.0024,-9.919e-5 -0.0029,-5.8899e-4 -0.0012,-0.001249 z m 2.860807,0 c 0.0015,-5.9711e-4 0.0033,-5.2368e-4 0.004,1.6319e-4 6.87e-4,6.8687e-4 -5.34e-4,0.001175 -0.0027,0.001086 -0.0024,-9.919e-5 -0.0029,-5.8899e-4 -0.0012,-0.001249 z"
           id="path3464" /><path
           style="fill:#494949;fill-opacity:1;stroke-width:0.00206706"
           d="m -22.090301,4.0707222 c 0.0014,-5.734e-4 0.0037,-5.734e-4 0.0052,0 0.0014,5.734e-4 2.58e-4,0.00104 -0.0026,0.00104 -0.0028,0 -0.004,-4.692e-4 -0.0026,-0.00104 z m 2.846338,0 c 0.0014,-5.734e-4 0.0037,-5.734e-4 0.0052,0 0.0014,5.734e-4 2.59e-4,0.00104 -0.0026,0.00104 -0.0028,0 -0.004,-4.692e-4 -0.0026,-0.00104 z m -3.591866,-0.7460444 c 9.9e-5,-0.00241 5.89e-4,-0.0029 0.0012,-0.00125 5.97e-4,0.00149 5.24e-4,0.00328 -1.63e-4,0.00396 -6.87e-4,6.869e-4 -0.0012,-5.341e-4 -0.0011,-0.00271 z m 4.34082,0 c 10e-5,-0.00241 5.9e-4,-0.0029 0.0012,-0.00125 5.98e-4,0.00149 5.24e-4,0.00328 -1.63e-4,0.00396 -6.87e-4,6.869e-4 -0.0012,-5.341e-4 -0.0011,-0.00271 z m -1.416614,-0.4569829 c 0.0014,-5.734e-4 0.0037,-5.734e-4 0.0052,0 0.0014,5.734e-4 2.58e-4,0.00104 -0.0026,0.00104 -0.0028,0 -0.004,-4.692e-4 -0.0026,-0.00104 z m 0.122086,-4.34e-5 c 0.0015,-5.972e-4 0.0033,-5.238e-4 0.004,1.633e-4 6.87e-4,6.869e-4 -5.34e-4,0.00118 -0.0027,0.00109 -0.0024,-9.92e-5 -0.0029,-5.891e-4 -0.0012,-0.00125 z m -2.069779,-0.990775 c 0,-0.5144389 2.36e-4,-0.7248912 5.25e-4,-0.4676717 2.9e-4,0.2572194 2.9e-4,0.6781239 0,0.9353433 -2.89e-4,0.2572195 -5.25e-4,0.046767 -5.25e-4,-0.4676716 z m 2.020065,0.6620633 c 0.0026,-4.945e-4 0.0063,-4.756e-4 0.0083,4.13e-5 0.002,5.174e-4 -1.28e-4,9.219e-4 -0.0047,8.99e-4 -0.0045,-2.28e-5 -0.0062,-4.463e-4 -0.0036,-9.403e-4 z m 0.591834,-0.090694 c 9.9e-5,-0.00241 5.89e-4,-0.0029 0.0012,-0.00125 5.98e-4,0.00149 5.24e-4,0.00327 -1.63e-4,0.00396 -6.87e-4,6.869e-4 -0.0012,-5.341e-4 -0.0011,-0.00271 z m -0.390434,-0.010163 c 4.1e-5,-0.00341 5.05e-4,-0.00456 0.001,-0.00254 5.24e-4,0.00201 4.9e-4,0.0048 -7.6e-5,0.0062 -5.67e-4,0.0014 -9.95e-4,-2.46e-4 -9.53e-4,-0.00366 z m -1.580152,-0.2111756 c 0.0014,-5.734e-4 0.0037,-5.734e-4 0.0052,0 0.0014,5.734e-4 2.58e-4,0.00104 -0.0026,0.00104 -0.0028,0 -0.004,-4.692e-4 -0.0026,-0.00104 z m 1.860798,-0.095266 -0.0113,-0.011886 0.01188,0.011298 c 0.01104,0.010496 0.01283,0.012473 0.0113,0.012473 -3.23e-4,0 -0.0057,-0.00535 -0.01188,-0.011885 z m -1.331114,-0.086047 c 0,-4.291e-4 0.0016,-0.00206 0.0036,-0.00362 0.0033,-0.00257 0.0034,-0.0025 7.8e-4,7.805e-4 -0.0027,0.00344 -0.0044,0.00454 -0.0044,0.00284 z m 0.04134,-0.041341 c 0,-4.291e-4 0.0016,-0.00206 0.0036,-0.00362 0.0033,-0.00257 0.0034,-0.0025 7.81e-4,7.806e-4 -0.0027,0.00344 -0.0044,0.00454 -0.0044,0.00284 z m -0.729028,-0.1185883 c 0.01684,-3.479e-4 0.04381,-3.471e-4 0.05994,1.7e-6 0.01613,3.489e-4 0.0024,6.335e-4 -0.03061,6.325e-4 -0.03297,-10e-7 -0.04617,-2.864e-4 -0.02933,-6.342e-4 z m -0.06718,-0.00193 c 0.0015,-5.972e-4 0.0033,-5.237e-4 0.004,1.63e-4 6.87e-4,6.869e-4 -5.34e-4,0.00118 -0.0027,0.00109 -0.0024,-9.92e-5 -0.0029,-5.89e-4 -0.0012,-0.00125 z m 0.46961,-0.094453 c 0,-4.292e-4 0.0016,-0.00206 0.0036,-0.00362 0.0033,-0.00257 0.0034,-0.0025 7.8e-4,7.804e-4 -0.0027,0.00344 -0.0044,0.00454 -0.0044,0.00284 z m 1.285322,-0.09985 c 0.0015,-5.971e-4 0.0033,-5.237e-4 0.004,1.631e-4 6.87e-4,6.868e-4 -5.34e-4,0.00118 -0.0027,0.00109 -0.0024,-9.92e-5 -0.0029,-5.89e-4 -0.0012,-0.00125 z m -0.06731,-0.00208 c 0.002,-5.199e-4 0.0052,-5.199e-4 0.0072,0 0.002,5.199e-4 3.62e-4,9.453e-4 -0.0036,9.453e-4 -0.004,0 -0.0056,-4.254e-4 -0.0036,-9.453e-4 z m -0.738293,-0.057659 c 9.9e-5,-0.00241 5.89e-4,-0.0029 0.0012,-0.00125 5.97e-4,0.00149 5.24e-4,0.00327 -1.63e-4,0.00396 -6.87e-4,6.869e-4 -0.0012,-5.34e-4 -0.0011,-0.00271 z m 0.0023,-0.039102 c 4.1e-5,-0.00341 5.05e-4,-0.00456 0.001,-0.00254 5.24e-4,0.00201 4.9e-4,0.0048 -7.6e-5,0.0062 -5.66e-4,0.0014 -9.95e-4,-2.46e-4 -9.53e-4,-0.00366 z m -0.394516,-0.025838 c 0,-0.00853 3.65e-4,-0.012015 8.11e-4,-0.00775 4.46e-4,0.00426 4.46e-4,0.01124 0,0.015503 -4.46e-4,0.00426 -8.11e-4,7.751e-4 -8.11e-4,-0.00775 z m 0.394516,-0.029972 c 4.1e-5,-0.00341 5.05e-4,-0.00456 0.001,-0.00254 5.24e-4,0.00201 4.9e-4,0.0048 -7.6e-5,0.0062 -5.66e-4,0.0014 -9.95e-4,-2.461e-4 -9.53e-4,-0.00366 z m 0.318957,-0.01757 c 0.0056,-0.00568 0.01065,-0.010335 0.01121,-0.010335 5.68e-4,0 -0.0035,0.00465 -0.0091,0.010335 -0.0056,0.00568 -0.01065,0.010335 -0.01121,0.010335 -5.68e-4,0 0.0035,-0.00465 0.0091,-0.010335 z m -0.321264,-0.015675 c 9.9e-5,-0.00241 5.89e-4,-0.0029 0.0012,-0.00125 5.97e-4,0.00149 5.24e-4,0.00327 -1.63e-4,0.00396 -6.87e-4,6.869e-4 -0.0012,-5.34e-4 -0.0011,-0.00271 z m 0.704316,-0.136632 c 0.0015,-5.971e-4 0.0033,-5.237e-4 0.004,1.631e-4 6.87e-4,6.869e-4 -5.34e-4,0.00118 -0.0027,0.00109 -0.0024,-9.93e-5 -0.0029,-5.89e-4 -0.0012,-0.00125 z m 0.140431,4.3e-5 c 0.0014,-5.734e-4 0.0037,-5.734e-4 0.0052,0 0.0014,5.734e-4 2.59e-4,0.00104 -0.0026,0.00104 -0.0028,0 -0.004,-4.692e-4 -0.0026,-0.00104 z m -0.07545,-0.00212 c 0.002,-5.199e-4 0.0052,-5.199e-4 0.0072,0 0.002,5.2e-4 3.61e-4,9.454e-4 -0.0036,9.454e-4 -0.004,0 -0.0056,-4.254e-4 -0.0036,-9.454e-4 z m -1.599795,-0.091068 c 0.01114,-3.724e-4 0.02882,-3.707e-4 0.03927,4.1e-6 0.01046,3.744e-4 0.0013,6.791e-4 -0.02026,6.771e-4 -0.0216,-2e-6 -0.03016,-3.083e-4 -0.01901,-6.812e-4 z m 0.09084,1.174e-4 c 0.002,-5.199e-4 0.0052,-5.199e-4 0.0072,0 0.002,5.199e-4 3.62e-4,9.453e-4 -0.0036,9.453e-4 -0.004,0 -0.0056,-4.254e-4 -0.0036,-9.453e-4 z m 0.569921,-0.1510205 -0.0113,-0.011886 0.01189,0.011298 c 0.0065,0.00621 0.01189,0.011562 0.01189,0.011886 0,0.00153 -0.002,-2.561e-4 -0.01247,-0.011298 z m -1.11973,-0.19630339 c 0.0031,-4.7515e-4 0.0078,-4.6242e-4 0.01034,2.81e-5 0.0025,4.9065e-4 -2.9e-5,8.7938e-4 -0.0057,8.6387e-4 -0.0057,-1.654e-5 -0.0078,-4.1697e-4 -0.0046,-8.9208e-4 z m 0.06612,-0.002009 c 0.002,-5.1989e-4 0.0052,-5.1989e-4 0.0072,0 0.002,5.1993e-4 3.62e-4,9.4533e-4 -0.0036,9.4533e-4 -0.004,0 -0.0056,-4.254e-4 -0.0036,-9.4533e-4 z m 0.08682,-0.002067 c 0.002,-5.1991e-4 0.0052,-5.1991e-4 0.0072,0 0.002,5.1992e-4 3.62e-4,9.4532e-4 -0.0036,9.4532e-4 -0.004,0 -0.0056,-4.254e-4 -0.0036,-9.4532e-4 z m 0.07441,-0.002123 c 0.0031,-4.7362e-4 0.0082,-4.7362e-4 0.01137,0 0.0031,4.7361e-4 5.68e-4,8.6112e-4 -0.0057,8.6112e-4 -0.0063,0 -0.0088,-3.8751e-4 -0.0057,-8.6112e-4 z m 0.100277,-0.002048 c 0.0026,-4.9442e-4 0.0063,-4.7565e-4 0.0083,4.175e-5 0.002,5.1737e-4 -1.28e-4,9.2191e-4 -0.0047,8.9897e-4 -0.0045,-2.295e-5 -0.0062,-4.4626e-4 -0.0036,-9.4072e-4 z m 0.25642,4.982e-5 c 0.0015,-5.9711e-4 0.0033,-5.2369e-4 0.004,1.6309e-4 6.87e-4,6.8686e-4 -5.34e-4,0.001175 -0.0027,0.001086 -0.0024,-9.922e-5 -0.0029,-5.8899e-4 -0.0012,-0.001249 z m -0.119909,-0.002198 c 0.01171,-3.6911e-4 0.03032,-3.6761e-4 0.04134,4.13e-6 0.01103,3.7094e-4 0.0014,6.7296e-4 -0.0213,6.7112e-4 -0.02274,-1.82e-6 -0.03176,-3.0533e-4 -0.02004,-6.7525e-4 z m -1.51665,-0.32832477 c 9.9e-5,-0.002408 5.89e-4,-0.002898 0.0012,-0.001249 5.97e-4,0.001492 5.24e-4,0.003275 -1.63e-4,0.003962 -6.87e-4,6.8687e-4 -0.0012,-5.34e-4 -0.0011,-0.002713 z m 4.34082,0 c 10e-5,-0.002408 5.9e-4,-0.002898 0.0012,-0.001249 5.98e-4,0.001492 5.24e-4,0.003275 -1.63e-4,0.003962 -6.87e-4,6.8687e-4 -0.0012,-5.34e-4 -0.0011,-0.002713 z m -3.595292,-0.74637083 c 0.0014,-5.7343e-4 0.0037,-5.7343e-4 0.0052,0 0.0014,5.7342e-4 2.58e-4,0.001043 -0.0026,0.001043 -0.0028,0 -0.004,-4.6917e-4 -0.0026,-0.001043 z m 2.846338,0 c 0.0014,-5.7343e-4 0.0037,-5.7343e-4 0.0052,0 0.0014,5.7342e-4 2.59e-4,0.001043 -0.0026,0.001043 -0.0028,0 -0.004,-4.6917e-4 -0.0026,-0.001043 z"
           id="path3462" /><path
           style="fill:#001e36;fill-opacity:1;stroke-width:0.00206706"
           d="m -22.110455,4.0699121 c -0.160094,-0.00889 -0.310869,-0.066769 -0.438216,-0.1682182 -0.03314,-0.026402 -0.09052,-0.083782 -0.116924,-0.1169237 -0.07717,-0.096875 -0.129859,-0.2086826 -0.153739,-0.3262614 -0.0079,-0.0391 -0.01203,-0.071393 -0.01456,-0.1150553 -0.0028,-0.048085 -0.0028,-2.72797332 0,-2.77605773 0.0096,-0.16529825 0.06577,-0.31261016 0.1683,-0.44131671 0.0264,-0.03314192 0.08378,-0.09052178 0.116924,-0.11692372 0.117935,-0.09395057 0.247409,-0.14730617 0.402043,-0.16567962 0.02947,-0.003501 0.102983,-0.003684 1.480013,-0.003684 1.556392,0 1.46401,-6.3104e-4 1.531834,0.0104635 0.287517,0.0470313 0.526497,0.25873154 0.609629,0.54003991 0.01636,0.0553538 0.02629,0.11389214 0.0299,0.17621495 0.0029,0.0497143 0.0029,2.72816242 0,2.77787972 -0.0061,0.1050348 -0.03033,0.1999566 -0.07433,0.2909592 -0.0398,0.082312 -0.08477,0.1455301 -0.149749,0.2105105 -0.06503,0.065027 -0.128725,0.1103211 -0.210679,0.1498102 -0.09218,0.044416 -0.186695,0.068455 -0.292135,0.074302 -0.04348,0.00241 -2.844864,0.00235 -2.888305,-5.99e-5 z m 2.378874,-1.2058811 c 0.0887,-0.010051 0.16123,-0.028948 0.229752,-0.059862 0.06225,-0.028084 0.118108,-0.070674 0.162945,-0.1242404 0.04828,-0.057676 0.08031,-0.132746 0.09033,-0.2117086 0.0043,-0.033704 0.0033,-0.1068626 -0.0017,-0.13349 -0.0112,-0.058923 -0.03117,-0.1083632 -0.05984,-0.1481348 -0.03812,-0.052873 -0.07632,-0.087504 -0.137187,-0.124344 -0.07846,-0.04749 -0.162853,-0.087541 -0.243958,-0.1157718 -0.04472,-0.015567 -0.137922,-0.059575 -0.167135,-0.078921 -0.02254,-0.014924 -0.0428,-0.036328 -0.05102,-0.053875 -0.01811,-0.038693 0.0012,-0.0865 0.04249,-0.1054218 0.01336,-0.00612 0.04739,-0.014093 0.07493,-0.017558 0.02571,-0.00324 0.111862,-0.00139 0.149604,0.00321 0.107761,0.013122 0.197012,0.037406 0.267394,0.072754 0.01788,0.00898 0.01939,0.00937 0.0322,0.00834 0.01124,-9.025e-4 0.01421,-0.00197 0.01815,-0.00656 l 0.0047,-0.00548 -2e-5,-0.1564643 c 0,-0.1009734 -7.67e-4,-0.1591832 -0.0021,-0.1641304 -0.0042,-0.015149 -0.0099,-0.018585 -0.05779,-0.035052 -0.08132,-0.027944 -0.201424,-0.043268 -0.338998,-0.043252 -0.115914,1.45e-5 -0.192927,0.011521 -0.273394,0.040852 -0.02383,0.00868 -0.07531,0.03356 -0.09567,0.046226 -0.114018,0.070931 -0.185817,0.180281 -0.202702,0.308713 -0.005,0.038141 -0.003,0.1053922 0.0041,0.1387978 0.01622,0.076163 0.04975,0.1373416 0.108569,0.1980842 0.06369,0.065776 0.174533,0.1298242 0.320626,0.1852666 0.072,0.027324 0.134166,0.055814 0.163298,0.074837 0.01881,0.01228 0.04167,0.035958 0.04886,0.050586 0.0053,0.010834 0.0059,0.014158 0.0059,0.032776 0,0.019188 -4.95e-4,0.021725 -0.0067,0.034324 -0.01525,0.030954 -0.04811,0.049067 -0.106988,0.058959 -0.03247,0.00546 -0.139872,0.00547 -0.181901,3.1e-5 -0.117215,-0.015181 -0.227153,-0.049124 -0.315779,-0.097493 -0.03331,-0.018181 -0.0387,-0.019133 -0.04461,-0.00789 -0.0017,0.00329 -0.0024,0.049332 -0.0024,0.1700977 0,0.1608716 1.16e-4,0.1658109 0.0041,0.1735946 0.0022,0.00441 0.0068,0.00994 0.01011,0.012304 0.011,0.00783 0.05757,0.026564 0.09845,0.0396 0.05909,0.018841 0.161568,0.036664 0.248047,0.043141 0.03914,0.00293 0.170474,0.00112 0.205363,-0.00284 z m -1.746287,-0.03531 c 0.01315,-0.0068 0.01234,0.013655 0.01234,-0.3086297 V 2.2267246 l 0.134875,2.59e-4 c 0.139677,2.684e-4 0.157491,-4.528e-4 0.22686,-0.00918 0.161822,-0.020364 0.28838,-0.068992 0.389887,-0.1498071 0.02606,-0.020749 0.07405,-0.068597 0.09424,-0.093966 0.04712,-0.059214 0.08241,-0.1285838 0.102635,-0.20177 0.02938,-0.1063178 0.03479,-0.2311639 0.01466,-0.3383142 -0.04677,-0.2489448 -0.219116,-0.422079 -0.485862,-0.48809032 -0.128945,-0.0319098 -0.231531,-0.0363138 -0.607515,-0.0260807 -0.04036,0.001098 -0.113378,0.003026 -0.162264,0.004283 -0.05561,0.00143 -0.09063,0.003136 -0.09355,0.004555 -0.0028,0.001348 -0.0055,0.005374 -0.0067,0.009917 -0.0014,0.00504 -0.0019,0.32655792 -0.0015,0.94282752 5.05e-4,0.8981587 6.74e-4,0.9354059 0.0043,0.9408846 0.0021,0.00314 0.0058,0.00653 0.0083,0.00753 0.0025,10e-4 0.08527,0.00188 0.18395,0.00196 0.156506,1.137e-4 0.180194,-2.693e-4 0.185483,-0.003 z m 0.02732,-0.9451072 -0.01292,-7.338e-4 V 1.5793886 1.2758968 l 0.01189,-0.00126 c 0.0065,-6.95e-4 0.06397,-0.0014 0.12764,-0.00156 0.09699,-2.499e-4 0.120113,2.583e-4 0.142627,0.00313 0.07648,0.00977 0.146917,0.0344 0.189263,0.066181 0.01914,0.014361 0.04176,0.03712 0.05581,0.056136 0.01884,0.025501 0.03626,0.066937 0.04469,0.1062834 0.0053,0.024935 0.0053,0.1098394 -6.3e-5,0.1383552 -0.01157,0.061524 -0.03604,0.1058367 -0.07944,0.1439104 -0.04436,0.038908 -0.08576,0.059232 -0.157543,0.077344 -0.07048,0.017782 -0.102532,0.020782 -0.217041,0.020311 -0.05059,-2.081e-4 -0.0978,-7.086e-4 -0.104903,-0.00111 z"
           id="path3460" /></g></g></g></svg>
