<?xml version="1.0" encoding="UTF-8" standalone="no"?>
<!-- Created with Inkscape (http://www.inkscape.org/) -->

<svg
   width="16"
   height="16"
   viewBox="0 0 4.2333332 4.2333333"
   version="1.1"
   id="svg5"
   xml:space="preserve"
   sodipodi:docname="postman_logo.svg"
   inkscape:version="1.2.1 (9c6d41e4, 2022-07-14)"
   xmlns:inkscape="http://www.inkscape.org/namespaces/inkscape"
   xmlns:sodipodi="http://sodipodi.sourceforge.net/DTD/sodipodi-0.dtd"
   xmlns="http://www.w3.org/2000/svg"
   xmlns:svg="http://www.w3.org/2000/svg"><sodipodi:namedview
     id="namedview10918"
     pagecolor="#ffffff"
     bordercolor="#000000"
     borderopacity="0.25"
     inkscape:showpageshadow="2"
     inkscape:pageopacity="0.0"
     inkscape:pagecheckerboard="0"
     inkscape:deskcolor="#d1d1d1"
     showgrid="false"
     inkscape:zoom="14.75"
     inkscape:cx="1.4576271"
     inkscape:cy="8.0338983"
     inkscape:window-width="1680"
     inkscape:window-height="997"
     inkscape:window-x="0"
     inkscape:window-y="92"
     inkscape:window-maximized="0"
     inkscape:current-layer="g2691" /><defs
     id="defs2" /><g
     id="g815"
     transform="translate(7.6595131,0.16138922)"><g
       id="g2691"
       transform="translate(8.1259393,-1.9672735e-4)"><path
         style="fill:#ffffff;fill-opacity:1;stroke-width:0.0021614"
         d="m -13.744653,4.0695148 c -0.43973,-0.017238 -0.85902,-0.1673931 -1.206119,-0.431932 -0.07976,-0.060787 -0.140223,-0.1139139 -0.216248,-0.1900101 -0.105463,-0.1055563 -0.191444,-0.2113522 -0.27224,-0.3349683 -0.304983,-0.4666198 -0.413712,-1.0372651 -0.301479,-1.582262 0.09678,-0.4699429 0.348273,-0.89107134 0.715395,-1.19791741 0.200817,-0.1678464 0.430852,-0.2966561 0.680874,-0.3812589 0.291226,-0.098546 0.604256,-0.1321862 0.911074,-0.09791 0.451286,0.050416 0.876164,0.2455324 1.206654,0.5541319 0.364896,0.34072597 0.596799,0.79511981 0.657488,1.28829391 0.01772,0.1439744 0.0204,0.3007547 0.0077,0.4473899 -0.03247,0.3734901 -0.167523,0.7377194 -0.387471,1.0449902 -0.117155,0.1636719 -0.262422,0.3143459 -0.422659,0.4383975 -0.293684,0.2273665 -0.641309,0.37392 -1.005463,0.4238882 -0.117308,0.016096 -0.258244,0.023448 -0.367455,0.019167 z"
         id="path6585" /><g
         id="g8086"><g
           id="g7353"
           transform="matrix(1.2764789,0,0,1.2763604,3.4664751,-0.50682701)"
           style="fill:#ff6600"><path
             style="fill:#ff6600;fill-opacity:1;stroke-width:0.00169333"
             d="m -13.426183,3.5866739 c 0.0016,-4.293e-4 0.0039,-4.012e-4 0.0051,6.26e-5 0.0011,4.639e-4 -2.02e-4,8.15e-4 -0.003,7.807e-4 -0.0028,-3.39e-5 -0.0037,-4.14e-4 -0.0021,-8.433e-4 z m -0.06681,-0.00168 c 0.0012,-4.892e-4 0.0027,-4.291e-4 0.0032,1.338e-4 5.63e-4,5.627e-4 -4.37e-4,9.63e-4 -0.0022,8.895e-4 -0.002,-8.13e-5 -0.0024,-4.826e-4 -10e-4,-0.00102 z m -1.054845,-0.4369932 c -0.0021,-0.00269 -0.002,-0.00275 6.39e-4,-6.394e-4 0.0016,0.00128 0.003,0.00261 0.003,0.00296 0,0.00139 -0.0014,4.966e-4 -0.0036,-0.00232 z m 2.261662,-0.01397 c 0.0017,-0.00186 0.0034,-0.00339 0.0039,-0.00339 4.65e-4,0 -5.33e-4,0.00152 -0.0022,0.00339 -0.0017,0.00186 -0.0034,0.00339 -0.0039,0.00339 -4.66e-4,0 5.32e-4,-0.00152 0.0022,-0.00339 z m -2.292853,-0.015663 -0.0067,-0.0072 0.0072,0.00669 c 0.0067,0.00623 0.008,0.0077 0.0067,0.0077 -2.77e-4,0 -0.0035,-0.00324 -0.0072,-0.0072 z m -0.03476,-0.034713 -0.0041,-0.00466 0.0047,0.00411 c 0.0026,0.00226 0.0047,0.00435 0.0047,0.00466 0,0.00133 -0.0014,2.473e-4 -0.0052,-0.00411 z m 0.448544,-0.2284867 c 0.0012,-4.892e-4 0.0027,-4.291e-4 0.0032,1.338e-4 5.63e-4,5.627e-4 -4.37e-4,9.63e-4 -0.0022,8.895e-4 -0.002,-8.13e-5 -0.0024,-4.826e-4 -0.001,-0.00102 z m -0.0254,-0.00169 c 0.0012,-4.892e-4 0.0027,-4.291e-4 0.0032,1.337e-4 5.63e-4,5.627e-4 -4.37e-4,9.63e-4 -0.0022,8.895e-4 -0.002,-8.12e-5 -0.0024,-4.826e-4 -10e-4,-0.00102 z m -0.02709,-0.00169 c 0.0012,-4.892e-4 0.0027,-4.291e-4 0.0032,1.338e-4 5.62e-4,5.627e-4 -4.38e-4,9.63e-4 -0.0022,8.895e-4 -0.002,-8.13e-5 -0.0024,-4.826e-4 -10e-4,-0.00102 z m -0.0254,-0.00169 c 0.0012,-4.892e-4 0.0027,-4.291e-4 0.0032,1.338e-4 5.62e-4,5.627e-4 -4.38e-4,9.63e-4 -0.0022,8.895e-4 -0.002,-8.13e-5 -0.0024,-4.826e-4 -0.001,-0.00102 z m -0.02709,-0.00169 c 0.0012,-4.892e-4 0.0027,-4.291e-4 0.0032,1.337e-4 5.63e-4,5.627e-4 -4.37e-4,9.63e-4 -0.0022,8.895e-4 -0.002,-8.12e-5 -0.0024,-4.826e-4 -10e-4,-0.00102 z m -0.0272,-0.00166 c 0.0012,-4.698e-4 0.0031,-4.698e-4 0.0042,0 0.0012,4.697e-4 2.12e-4,8.541e-4 -0.0021,8.541e-4 -0.0023,0 -0.0033,-3.844e-4 -0.0021,-8.541e-4 z m -0.02529,-0.00173 c 0.0012,-4.892e-4 0.0027,-4.291e-4 0.0032,1.338e-4 5.63e-4,5.627e-4 -4.37e-4,9.63e-4 -0.0022,8.895e-4 -0.002,-8.13e-5 -0.0024,-4.826e-4 -0.001,-0.00102 z m -0.0272,-0.00166 c 0.0012,-4.697e-4 0.0031,-4.697e-4 0.0042,0 0.0012,4.697e-4 2.11e-4,8.541e-4 -0.0021,8.541e-4 -0.0023,0 -0.0033,-3.844e-4 -0.0021,-8.541e-4 z m -0.02529,-0.00173 c 0.0012,-4.892e-4 0.0027,-4.291e-4 0.0032,1.338e-4 5.62e-4,5.627e-4 -4.38e-4,9.63e-4 -0.0022,8.895e-4 -0.002,-8.13e-5 -0.0024,-4.826e-4 -10e-4,-0.00102 z m -0.02709,-0.00169 c 0.0012,-4.892e-4 0.0027,-4.291e-4 0.0032,1.338e-4 5.63e-4,5.627e-4 -4.37e-4,9.63e-4 -0.0022,8.895e-4 -0.002,-8.13e-5 -0.0024,-4.826e-4 -0.001,-0.00102 z m 0.281741,-0.1368499 c 3.4e-5,-0.00279 4.14e-4,-0.00373 8.43e-4,-0.00208 4.29e-4,0.00165 4.01e-4,0.00393 -6.3e-5,0.00508 -4.64e-4,0.00115 -8.15e-4,-2.015e-4 -7.8e-4,-0.003 z m -0.0977,-0.07366 c 0.0055,-0.00559 0.01044,-0.01016 0.0109,-0.01016 4.65e-4,0 -0.0037,0.00457 -0.0092,0.01016 -0.0055,0.00559 -0.01044,0.01016 -0.0109,0.01016 -4.66e-4,0 0.0037,-0.00457 0.0092,-0.01016 z m 0.115147,-0.11684 c 0.0055,-0.00559 0.01044,-0.01016 0.0109,-0.01016 4.66e-4,0 -0.0037,0.00457 -0.0092,0.01016 -0.0055,0.00559 -0.01043,0.01016 -0.0109,0.01016 -4.65e-4,0 0.0037,-0.00457 0.0092,-0.01016 z m 0.11684,-0.1185334 c 0.0055,-0.00559 0.01044,-0.01016 0.0109,-0.01016 4.66e-4,0 -0.0037,0.00457 -0.0092,0.01016 -0.0055,0.00559 -0.01044,0.01016 -0.0109,0.01016 -4.65e-4,0 0.0037,-0.00457 0.0092,-0.01016 z m 0.115146,-0.11684 c 0.0055,-0.00559 0.01043,-0.01016 0.0109,-0.01016 4.66e-4,0 -0.0037,0.00457 -0.0092,0.01016 -0.0055,0.00559 -0.01043,0.01016 -0.0109,0.01016 -4.66e-4,0 0.0037,-0.00457 0.0092,-0.01016 z m 0.422473,-0.094403 -0.03978,-0.040217 0.04022,0.03978 c 0.03737,0.036964 0.04098,0.040654 0.03978,0.040654 -2.4e-4,0 -0.01834,-0.018098 -0.04022,-0.040217 z m 0.109234,-0.017357 c 0.0017,-0.00186 0.0034,-0.00339 0.0039,-0.00339 4.66e-4,0 -5.32e-4,0.00152 -0.0022,0.00339 -0.0017,0.00186 -0.0034,0.00339 -0.0039,0.00339 -4.66e-4,0 5.32e-4,-0.00152 0.0022,-0.00339 z m 0.03895,-0.037253 c 0.0017,-0.00186 0.0034,-0.00339 0.0039,-0.00339 4.66e-4,0 -5.32e-4,0.00152 -0.0022,0.00339 -0.0017,0.00186 -0.0034,0.00339 -0.0039,0.00339 -4.65e-4,0 5.33e-4,-0.00152 0.0022,-0.00339 z m 0.04826,-0.04625 c 0,-2.914e-4 0.0025,-0.00277 0.0055,-0.0055 l 0.0055,-0.00497 -0.005,0.0055 c -0.0046,0.00513 -0.006,0.00628 -0.006,0.00497 z m -1.826973,-0.047871 c 8.1e-5,-0.00197 4.82e-4,-0.00237 10e-4,-0.00102 4.89e-4,0.00122 4.29e-4,0.00268 -1.34e-4,0.00325 -5.63e-4,5.627e-4 -9.63e-4,-4.376e-4 -8.89e-4,-0.00222 z m 3.310466,-0.01524 c 8.1e-5,-0.00197 4.83e-4,-0.00237 10e-4,-0.00102 4.89e-4,0.00122 4.29e-4,0.00268 -1.34e-4,0.00325 -5.62e-4,5.627e-4 -9.63e-4,-4.376e-4 -8.89e-4,-0.00222 z m -2.14728,0 c 0,-8.575e-4 0.03486,-0.036227 0.07747,-0.078599 l 0.07747,-0.07704 -0.07705,0.077826 c -0.04237,0.042804 -0.07724,0.078174 -0.07747,0.078599 -2.33e-4,4.249e-4 -4.23e-4,7.11e-5 -4.23e-4,-7.867e-4 z m 2.148973,-0.040633 c 8.2e-5,-0.00197 4.83e-4,-0.00237 10e-4,-0.00102 4.9e-4,0.00122 4.3e-4,0.00268 -1.33e-4,0.00325 -5.63e-4,5.627e-4 -9.63e-4,-4.376e-4 -8.9e-4,-0.00222 z m -1.375966,-0.00579 c 0.0036,-0.00373 0.007,-0.00677 0.0075,-0.00677 4.66e-4,0 -0.0021,0.00305 -0.0058,0.00677 -0.0036,0.00373 -0.007,0.00677 -0.0075,0.00677 -4.65e-4,0 0.0021,-0.00305 0.0058,-0.00677 z m -1.939073,-0.0508 c 0,-0.01071 2.75e-4,-0.015092 6.11e-4,-0.00974 3.36e-4,0.00536 3.36e-4,0.014118 0,0.019473 -3.36e-4,0.00536 -6.11e-4,9.737e-4 -6.11e-4,-0.00974 z m 3.315236,-0.029633 c 3.4e-5,-0.00279 4.14e-4,-0.00373 8.43e-4,-0.00208 4.3e-4,0.00165 4.01e-4,0.00393 -6.2e-5,0.00508 -4.64e-4,0.00115 -8.15e-4,-2.015e-4 -7.81e-4,-0.003 z m -1.988395,-0.022437 -0.0058,-0.00635 0.0064,0.00584 c 0.0059,0.00543 0.0071,0.00686 0.0058,0.00686 -2.83e-4,0 -0.0031,-0.00286 -0.0063,-0.00635 z m 0.293038,-8.89e-4 c 0,-2.562e-4 0.0059,-0.00616 0.01312,-0.013123 l 0.01312,-0.012658 -0.01266,0.013123 c -0.01176,0.012189 -0.01359,0.013896 -0.01359,0.012658 z m -1.618693,-0.014069 c 8.2e-5,-0.00197 4.83e-4,-0.00237 10e-4,-0.00102 4.9e-4,0.00122 4.29e-4,0.00268 -1.33e-4,0.00325 -5.63e-4,5.627e-4 -9.63e-4,-4.375e-4 -8.9e-4,-0.00222 z m 1.425653,-0.098072 c 0.0022,-0.00233 0.0044,-0.00423 0.0048,-0.00423 4.66e-4,0 -9.43e-4,0.00191 -0.0031,0.00423 -0.0022,0.00233 -0.0044,0.00423 -0.0048,0.00423 -4.66e-4,0 9.43e-4,-0.00191 0.0031,-0.00423 z m 0.05842,-0.056727 c 0.0017,-0.00186 0.0034,-0.00339 0.0039,-0.00339 4.65e-4,0 -5.33e-4,0.00152 -0.0022,0.00339 -0.0017,0.00186 -0.0034,0.00339 -0.0039,0.00339 -4.66e-4,0 5.32e-4,-0.00152 0.0022,-0.00339 z m 0.32766,-0.022479 c 0,-2.562e-4 0.0059,-0.00616 0.01312,-0.013123 l 0.01312,-0.012658 -0.01266,0.013123 c -0.01176,0.012189 -0.01359,0.013896 -0.01359,0.012658 z m -0.28194,-0.021548 c 0.0017,-0.00186 0.0034,-0.00339 0.0039,-0.00339 4.65e-4,0 -5.33e-4,0.00152 -0.0022,0.00339 -0.0017,0.00186 -0.0034,0.00339 -0.0039,0.00339 -4.66e-4,0 5.32e-4,-0.00152 0.0022,-0.00339 z m 0.311574,-0.074507 c 0.01395,-0.01397 0.02574,-0.0254 0.0262,-0.0254 4.66e-4,0 -0.01056,0.01143 -0.02451,0.0254 -0.01395,0.01397 -0.02574,0.0254 -0.0262,0.0254 -4.66e-4,0 0.01056,-0.01143 0.02451,-0.0254 z m 0.163406,-0.095292 c 0,-2.561e-4 0.0059,-0.00616 0.01312,-0.013123 l 0.01312,-0.012658 -0.01266,0.013123 c -0.01176,0.012189 -0.01359,0.013896 -0.01359,0.012658 z m 0.373803,-0.1124157 c 0.0012,-4.698e-4 0.0031,-4.698e-4 0.0042,0 0.0012,4.697e-4 2.11e-4,8.541e-4 -0.0021,8.541e-4 -0.0023,0 -0.0033,-3.844e-4 -0.0021,-8.541e-4 z M -12.915549,1.3515 c 0.0012,-4.892e-4 0.0027,-4.29e-4 0.0032,1.336e-4 5.63e-4,5.626e-4 -4.38e-4,9.629e-4 -0.0022,8.893e-4 -0.002,-8.12e-5 -0.0024,-4.825e-4 -0.001,-0.00102 z m -0.103399,-0.079551 c 0.0012,-4.698e-4 0.0031,-4.698e-4 0.0042,0 0.0012,4.697e-4 2.11e-4,8.541e-4 -0.0021,8.541e-4 -0.0023,0 -0.0033,-3.844e-4 -0.0021,-8.541e-4 z m 0.50198,-0.1233386 c 3.4e-5,-0.00279 4.14e-4,-0.00373 8.44e-4,-0.00208 4.29e-4,0.00165 4.01e-4,0.00393 -6.3e-5,0.00508 -4.64e-4,0.00115 -8.15e-4,-2.016e-4 -7.81e-4,-0.003 z m 0.08122,-0.011007 c 0,-0.00233 3.84e-4,-0.00328 8.54e-4,-0.00212 4.69e-4,0.00116 4.69e-4,0.00307 0,0.00423 -4.7e-4,0.00116 -8.54e-4,2.117e-4 -8.54e-4,-0.00212 z m 0,-0.011853 c 0,-0.00233 3.84e-4,-0.00328 8.54e-4,-0.00212 4.69e-4,0.00116 4.69e-4,0.00307 0,0.00423 -4.7e-4,0.00116 -8.54e-4,2.117e-4 -8.54e-4,-0.00212 z m -0.126421,-0.15409328 c 0.01488,-0.0149013 0.02743,-0.0270933 0.0279,-0.0270933 4.66e-4,0 -0.01133,0.012192 -0.02621,0.0270933 -0.01488,0.0149013 -0.02744,0.0270933 -0.0279,0.0270933 -4.66e-4,0 0.01133,-0.012192 0.02621,-0.0270933 z m -0.12827,-0.0824015 c 0.0012,-4.6975e-4 0.0031,-4.6975e-4 0.0042,0 0.0012,4.6975e-4 2.12e-4,8.541e-4 -0.0021,8.541e-4 -0.0023,0 -0.0033,-3.8435e-4 -0.0021,-8.541e-4 z m 0.01863,0 c 0.0012,-4.6975e-4 0.0031,-4.6975e-4 0.0042,0 0.0012,4.6975e-4 2.11e-4,8.541e-4 -0.0021,8.541e-4 -0.0023,0 -0.0033,-3.8435e-4 -0.0021,-8.541e-4 z m 0.467568,-0.0831219 c -0.0021,-0.002686 -0.002,-0.002746 6.39e-4,-6.3933e-4 0.0028,0.002212 0.0037,0.003603 0.0023,0.003603 -3.51e-4,0 -0.0017,-0.001333 -0.003,-0.002963 z m -2.434797,-0.006143 c 0,-3.5163e-4 0.0013,-0.001685 0.003,-0.002963 0.0027,-0.002106 0.0027,-0.002046 6.39e-4,6.3934e-4 -0.0022,0.002821 -0.0036,0.003718 -0.0036,0.002324 z m 2.410299,-0.020104 -0.0032,-0.00381 0.0038,0.003226 c 0.0036,0.003031 0.0046,0.004394 0.0032,0.004394 -3.22e-4,0 -0.002,-0.001715 -0.0038,-0.00381 z m -0.0517,-0.0516467 c -0.0021,-0.002686 -0.002,-0.002746 6.39e-4,-6.3933e-4 0.0028,0.002212 0.0037,0.003603 0.0023,0.003603 -3.51e-4,0 -0.0017,-0.001333 -0.003,-0.002963 z m -2.275624,-0.0112227 c 0,-3.5162e-4 0.0013,-0.001685 0.003,-0.002963 0.0027,-0.002106 0.0027,-0.002046 6.4e-4,6.3934e-4 -0.0022,0.002821 -0.0036,0.003718 -0.0036,0.002324 z m 1.190096,-0.44586404 c 0.0012,-4.8916e-4 0.0027,-4.2901e-4 0.0032,1.336e-4 5.63e-4,5.6268e-4 -4.37e-4,9.629e-4 -0.0022,8.8937e-4 -0.002,-8.128e-5 -0.0024,-4.825e-4 -10e-4,-0.001023 z"
             id="path7345" /><path
             style="fill:#ff6600;fill-opacity:1;stroke-width:0.00169333"
             d="m -13.488022,3.5850325 c 0.0012,-4.697e-4 0.0031,-4.697e-4 0.0042,0 0.0012,4.698e-4 2.12e-4,8.542e-4 -0.0021,8.542e-4 -0.0023,0 -0.0033,-3.844e-4 -0.0021,-8.542e-4 z m 0.123719,-3.55e-5 c 0.0012,-4.892e-4 0.0027,-4.291e-4 0.0032,1.338e-4 5.62e-4,5.627e-4 -4.38e-4,9.63e-4 -0.0022,8.895e-4 -0.002,-8.13e-5 -0.0024,-4.826e-4 -10e-4,-0.00102 z m 0.03217,-0.00169 c 0.0012,-4.893e-4 0.0027,-4.291e-4 0.0032,1.337e-4 5.63e-4,5.627e-4 -4.38e-4,9.63e-4 -0.0022,8.895e-4 -0.002,-8.12e-5 -0.0024,-4.826e-4 -0.001,-0.00102 z m 1.050184,-0.4532957 c 0,-3.515e-4 0.0013,-0.00169 0.003,-0.00296 0.0027,-0.00211 0.0027,-0.00205 6.39e-4,6.394e-4 -0.0022,0.00282 -0.0036,0.00372 -0.0036,0.00232 z m -2.315678,-0.030264 -0.01181,-0.012277 0.01228,0.011808 c 0.0114,0.010967 0.01305,0.012745 0.01181,0.012745 -2.58e-4,0 -0.0058,-0.00552 -0.01228,-0.012277 z m 0.427294,-0.2445734 c 0.0012,-4.892e-4 0.0027,-4.291e-4 0.0032,1.338e-4 5.63e-4,5.627e-4 -4.37e-4,9.63e-4 -0.0022,8.895e-4 -0.002,-8.13e-5 -0.0024,-4.826e-4 -10e-4,-0.00102 z m -0.0254,-0.00169 c 0.0012,-4.892e-4 0.0027,-4.291e-4 0.0032,1.337e-4 5.63e-4,5.627e-4 -4.37e-4,9.63e-4 -0.0022,8.895e-4 -0.002,-8.12e-5 -0.0024,-4.826e-4 -0.001,-0.00102 z m -0.02709,-0.00169 c 0.0012,-4.892e-4 0.0027,-4.291e-4 0.0032,1.338e-4 5.62e-4,5.627e-4 -4.38e-4,9.63e-4 -0.0022,8.895e-4 -0.002,-8.13e-5 -0.0024,-4.826e-4 -10e-4,-0.00102 z m -0.0254,-0.00169 c 0.0012,-4.892e-4 0.0027,-4.291e-4 0.0032,1.338e-4 5.62e-4,5.627e-4 -4.38e-4,9.63e-4 -0.0022,8.895e-4 -0.002,-8.13e-5 -0.0024,-4.826e-4 -10e-4,-0.00102 z m -0.02709,-0.00169 c 0.0012,-4.892e-4 0.0027,-4.291e-4 0.0032,1.337e-4 5.63e-4,5.627e-4 -4.37e-4,9.63e-4 -0.0022,8.895e-4 -0.002,-8.12e-5 -0.0024,-4.826e-4 -0.001,-0.00102 z m -0.02709,-0.00169 c 0.0012,-4.892e-4 0.0027,-4.291e-4 0.0032,1.338e-4 5.63e-4,5.627e-4 -4.37e-4,9.63e-4 -0.0022,8.895e-4 -0.002,-8.13e-5 -0.0024,-4.826e-4 -10e-4,-0.00102 z m -0.0254,-0.00169 c 0.0012,-4.892e-4 0.0027,-4.291e-4 0.0032,1.338e-4 5.63e-4,5.627e-4 -4.37e-4,9.63e-4 -0.0022,8.895e-4 -0.002,-8.13e-5 -0.0024,-4.826e-4 -10e-4,-0.00102 z m 0.16187,-0.00265 -0.0032,-0.00381 0.0038,0.00323 c 0.0036,0.00303 0.0046,0.00439 0.0032,0.00439 -3.21e-4,0 -0.002,-0.00171 -0.0038,-0.00381 z m -0.188963,9.6e-4 c 0.0012,-4.892e-4 0.0027,-4.291e-4 0.0032,1.337e-4 5.62e-4,5.627e-4 -4.38e-4,9.63e-4 -0.0022,8.895e-4 -0.002,-8.12e-5 -0.0024,-4.826e-4 -10e-4,-0.00102 z m -0.0254,-0.00169 c 0.0012,-4.892e-4 0.0027,-4.291e-4 0.0032,1.338e-4 5.62e-4,5.627e-4 -4.38e-4,9.63e-4 -0.0022,8.895e-4 -0.002,-8.13e-5 -0.0024,-4.826e-4 -10e-4,-0.00102 z m 0.262747,-0.01366 -0.01436,-0.014817 0.01482,0.014356 c 0.0081,0.0079 0.01482,0.014563 0.01482,0.014817 0,0.00123 -0.0019,-5.947e-4 -0.01528,-0.014356 z m -0.28984,0.011967 c 0.0012,-4.892e-4 0.0027,-4.291e-4 0.0032,1.338e-4 5.63e-4,5.627e-4 -4.37e-4,9.63e-4 -0.0022,8.895e-4 -0.002,-8.13e-5 -0.0024,-4.826e-4 -10e-4,-0.00102 z m 0.215155,-0.022127 c -0.0021,-0.00269 -0.002,-0.00275 6.39e-4,-6.394e-4 0.0028,0.00221 0.0037,0.0036 0.0023,0.0036 -3.52e-4,0 -0.0017,-0.00133 -0.003,-0.00296 z m -0.02619,-0.024553 -0.0032,-0.00381 0.0038,0.00323 c 0.0036,0.00303 0.0046,0.00439 0.0032,0.00439 -3.21e-4,0 -0.002,-0.00171 -0.0038,-0.00381 z m -0.02709,-0.0254 -0.0032,-0.00381 0.0038,0.00323 c 0.0036,0.00303 0.0046,0.00439 0.0032,0.00439 -3.22e-4,0 -0.002,-0.00171 -0.0038,-0.00381 z m -0.0263,-0.024553 c -0.0021,-0.00269 -0.002,-0.00275 6.39e-4,-6.394e-4 0.0028,0.00221 0.0037,0.0036 0.0023,0.0036 -3.51e-4,0 -0.0017,-0.00133 -0.003,-0.00296 z m -0.02619,-0.024553 -0.0032,-0.00381 0.0038,0.00323 c 0.0036,0.00303 0.0046,0.00439 0.0032,0.00439 -3.21e-4,0 -0.002,-0.00171 -0.0038,-0.00381 z m 0.04503,-0.054229 c 0,-2.562e-4 0.0059,-0.00616 0.01312,-0.013123 l 0.01312,-0.012658 -0.01266,0.013123 c -0.01176,0.012189 -0.01359,0.013896 -0.01359,0.012658 z m 0.115146,-0.11684 c 0,-2.562e-4 0.0059,-0.00616 0.01312,-0.013123 l 0.01312,-0.012658 -0.01266,0.013123 c -0.01176,0.012189 -0.01359,0.013896 -0.01359,0.012658 z m 0.127847,-0.129921 c 0.0074,-0.00745 0.01385,-0.013547 0.01431,-0.013547 4.65e-4,0 -0.0052,0.0061 -0.01262,0.013547 -0.0074,0.00745 -0.01385,0.013547 -0.01431,0.013547 -4.65e-4,0 0.0052,-0.0061 0.01262,-0.013547 z m 0.10414,-0.1054523 c 0,-2.562e-4 0.0059,-0.00616 0.01312,-0.013123 l 0.01312,-0.012658 -0.01266,0.013123 c -0.01176,0.012189 -0.01359,0.013896 -0.01359,0.012658 z m 0.115147,-0.11684 c 0,-2.562e-4 0.0059,-0.00616 0.01312,-0.013123 l 0.01312,-0.012658 -0.01266,0.013123 c -0.01176,0.012189 -0.01359,0.013896 -0.01359,0.012658 z m 0.392006,-0.043561 c -0.01954,-0.019558 -0.03515,-0.03556 -0.03468,-0.03556 4.66e-4,0 0.01684,0.016002 0.03638,0.03556 0.01954,0.019558 0.03515,0.03556 0.03468,0.03556 -4.66e-4,0 -0.01683,-0.016002 -0.03638,-0.03556 z m 0.04657,0.026563 c 0,-2.914e-4 0.0025,-0.00277 0.0055,-0.0055 l 0.0055,-0.00497 -0.005,0.0055 c -0.0046,0.00513 -0.006,0.00628 -0.006,0.00497 z m -0.143933,-0.04265 c -0.0041,-0.00419 -0.0071,-0.00762 -0.0066,-0.00762 4.65e-4,0 0.0042,0.00343 0.0083,0.00762 0.0041,0.00419 0.0071,0.00762 0.0066,0.00762 -4.66e-4,0 -0.0042,-0.00343 -0.0083,-0.00762 z m 0.18288,0.0054 c 0,-2.914e-4 0.0025,-0.00277 0.0055,-0.0055 l 0.0055,-0.00497 -0.005,0.0055 c -0.0046,0.00513 -0.006,0.00628 -0.006,0.00497 z m 0.05242,-0.050693 c 0.007,-0.00748 0.0085,-0.00882 0.0085,-0.00755 0,2.718e-4 -0.0036,0.00389 -0.008,0.00804 l -0.008,0.00755 z m -1.818435,-0.061524 c 8.1e-5,-0.00197 4.82e-4,-0.00237 10e-4,-0.00102 4.89e-4,0.00122 4.29e-4,0.00268 -1.34e-4,0.00325 -5.63e-4,5.627e-4 -9.63e-4,-4.376e-4 -8.89e-4,-0.00222 z m 3.3106,-0.015946 c 0,-0.00233 3.84e-4,-0.00328 8.54e-4,-0.00212 4.7e-4,0.00116 4.7e-4,0.00307 0,0.00423 -4.7e-4,0.00116 -8.54e-4,2.117e-4 -8.54e-4,-0.00212 z m -3.312294,-0.016228 c 8.2e-5,-0.00197 4.83e-4,-0.00237 0.001,-0.00102 4.9e-4,0.00122 4.29e-4,0.00268 -1.33e-4,0.00325 -5.63e-4,5.627e-4 -9.63e-4,-4.375e-4 -8.9e-4,-0.00222 z m 3.314181,-0.027799 c 0,-0.00419 3.3e-4,-0.00591 7.34e-4,-0.00381 4.03e-4,0.0021 4.03e-4,0.00552 0,0.00762 -4.04e-4,0.0021 -7.34e-4,3.81e-4 -7.34e-4,-0.00381 z m -1.894693,-0.00456 c 6.45e-4,-6.45e-4 -0.0028,-0.00541 -0.0078,-0.010583 l -0.0089,-0.00941 0.0097,0.00918 c 0.0084,0.00794 0.01068,0.011988 0.0069,0.011988 -5.66e-4,0 -5.01e-4,-5.276e-4 1.44e-4,-0.00117 z m 0.526019,6.426e-4 c 0,-2.914e-4 0.0025,-0.00277 0.0055,-0.0055 l 0.0055,-0.00497 -0.005,0.0055 c -0.0046,0.00513 -0.006,0.00628 -0.006,0.00497 z m 0.03471,-0.036723 c 0.0017,-0.00186 0.0034,-0.00339 0.0039,-0.00339 4.66e-4,0 -5.32e-4,0.00152 -0.0022,0.00339 -0.0017,0.00186 -0.0034,0.00339 -0.0039,0.00339 -4.66e-4,0 5.32e-4,-0.00152 0.0022,-0.00339 z m 1.333927,-0.026247 c 1.8e-5,-0.00373 3.65e-4,-0.00505 7.7e-4,-0.00294 4.06e-4,0.00211 3.9e-4,0.00515 -3.3e-5,0.00677 -4.24e-4,0.00162 -7.56e-4,-1.049e-4 -7.37e-4,-0.00383 z m -1.31022,8.467e-4 c 0.0017,-0.00186 0.0034,-0.00339 0.0039,-0.00339 4.66e-4,0 -5.32e-4,0.00152 -0.0022,0.00339 -0.0017,0.00186 -0.0034,0.00339 -0.0039,0.00339 -4.65e-4,0 5.33e-4,-0.00152 0.0022,-0.00339 z m 0.01609,-0.017573 c 0,-3.516e-4 0.0013,-0.00169 0.003,-0.00296 0.0027,-0.00211 0.0027,-0.00205 6.39e-4,6.394e-4 -0.0022,0.00282 -0.0036,0.00372 -0.0036,0.00232 z m -2.020013,-0.025748 c 8.2e-5,-0.00197 4.83e-4,-0.00237 10e-4,-0.00102 4.9e-4,0.00122 4.29e-4,0.00268 -1.33e-4,0.00325 -5.63e-4,5.627e-4 -9.63e-4,-4.375e-4 -8.9e-4,-0.00222 z m 3.31216,-0.01016 c 8.1e-5,-0.00197 4.83e-4,-0.00237 0.001,-0.00102 4.89e-4,0.00122 4.29e-4,0.00268 -1.34e-4,0.00325 -5.62e-4,5.627e-4 -9.63e-4,-4.375e-4 -8.89e-4,-0.00222 z m -1.64436,-0.030339 c 0.01348,-0.013504 0.02489,-0.024553 0.02536,-0.024553 4.66e-4,0 -0.01018,0.011049 -0.02366,0.024553 -0.01348,0.013504 -0.02489,0.024553 -0.02536,0.024553 -4.66e-4,0 0.01018,-0.011049 0.02366,-0.024553 z m -0.229447,-0.075353 c 0.0046,-0.00466 0.0087,-0.00847 0.0092,-0.00847 4.66e-4,0 -0.0029,0.00381 -0.0075,0.00847 -0.0046,0.00466 -0.0087,0.00847 -0.0092,0.00847 -4.66e-4,0 0.0029,-0.00381 0.0075,-0.00847 z m 0.328507,-0.088053 c 0.027,-0.027009 0.04947,-0.049107 0.04993,-0.049107 4.66e-4,0 -0.02124,0.022098 -0.04824,0.049107 -0.027,0.027009 -0.04947,0.049107 -0.04993,0.049107 -4.66e-4,0 0.02124,-0.022098 0.04824,-0.049107 z m -0.278553,0.04011 c 0,-2.914e-4 0.0025,-0.00277 0.0055,-0.0055 l 0.0055,-0.00497 -0.005,0.0055 c -0.0046,0.00513 -0.006,0.00628 -0.006,0.00497 z m 0.04572,-0.044027 c 0,-2.914e-4 0.0025,-0.00277 0.0055,-0.0055 l 0.0055,-0.00497 -0.005,0.0055 c -0.0046,0.00513 -0.006,0.00628 -0.006,0.00497 z m 0.326813,-0.024023 c 0.01348,-0.013504 0.02489,-0.024553 0.02536,-0.024553 4.66e-4,0 -0.01018,0.011049 -0.02366,0.024553 -0.01348,0.013504 -0.02489,0.024553 -0.02536,0.024553 -4.66e-4,0 0.01018,-0.011049 0.02366,-0.024553 z m -0.298027,-0.00318 c 0,-3.515e-4 0.0013,-0.00169 0.003,-0.00296 0.0027,-0.00211 0.0027,-0.00205 6.39e-4,6.394e-4 -0.0022,0.00282 -0.0036,0.00372 -0.0036,0.00232 z m 0.02709,-0.0254 c 0,-3.515e-4 0.0013,-0.00168 0.003,-0.00296 0.0027,-0.00211 0.0027,-0.00205 6.39e-4,6.394e-4 -0.0022,0.00282 -0.0036,0.00372 -0.0036,0.00232 z m 0.02371,-0.022013 c 0,-3.515e-4 0.0013,-0.00168 0.003,-0.00296 0.0027,-0.00211 0.0027,-0.00205 6.39e-4,6.394e-4 -0.0022,0.00282 -0.0036,0.00372 -0.0036,0.00232 z m 0.440267,-0.1407539 c 0.01348,-0.013504 0.02489,-0.024553 0.02536,-0.024553 4.66e-4,0 -0.01018,0.011049 -0.02366,0.024553 -0.01348,0.013504 -0.02489,0.024553 -0.02536,0.024553 -4.66e-4,0 0.01018,-0.011049 0.02366,-0.024553 z m 0.196819,-0.00762 c 0,-0.00326 3.49e-4,-0.00459 7.75e-4,-0.00296 4.26e-4,0.00163 4.26e-4,0.0043 0,0.00593 -4.26e-4,0.00163 -7.75e-4,2.964e-4 -7.75e-4,-0.00296 z m -0.02093,-0.05207 c -0.0021,-0.00269 -0.002,-0.00275 6.4e-4,-6.393e-4 0.0016,0.00128 0.003,0.00261 0.003,0.00296 0,0.00139 -0.0014,4.967e-4 -0.0036,-0.00232 z m 0.183937,-0.1058333 -0.08297,-0.083397 0.0834,0.082967 c 0.07752,0.077118 0.08416,0.083826 0.08297,0.083826 -2.36e-4,0 -0.03776,-0.037528 -0.0834,-0.083396 z m -0.183849,0.03302 -0.0041,-0.00466 0.0047,0.00411 c 0.0044,0.00384 0.0054,0.00521 0.0041,0.00521 -3.03e-4,0 -0.0024,-0.0021 -0.0047,-0.00466 z m -0.172909,-0.03206 c 0.0012,-4.892e-4 0.0027,-4.29e-4 0.0032,1.336e-4 5.62e-4,5.627e-4 -4.38e-4,9.629e-4 -0.0022,8.894e-4 -0.002,-8.13e-5 -0.0024,-4.825e-4 -10e-4,-0.00102 z m 0.01263,-1.69e-5 c 0.0016,-4.294e-4 0.0039,-4.011e-4 0.0051,6.28e-5 0.0011,4.638e-4 -2.01e-4,8.151e-4 -0.003,7.806e-4 -0.0028,-3.45e-5 -0.0037,-4.14e-4 -0.0021,-8.434e-4 z m 0.531519,-0.1207464 c 0,-0.00233 3.84e-4,-0.00328 8.54e-4,-0.00212 4.7e-4,0.00116 4.7e-4,0.00307 0,0.00423 -4.7e-4,0.00116 -8.54e-4,2.117e-4 -8.54e-4,-0.00212 z m 0.04403,-0.00677 c 0,-0.00233 3.84e-4,-0.00328 8.54e-4,-0.00212 4.69e-4,0.00116 4.69e-4,0.00307 0,0.00423 -4.7e-4,0.00116 -8.54e-4,2.116e-4 -8.54e-4,-0.00212 z m -0.485747,-0.00677 c 0,-0.00512 3.17e-4,-0.00722 7.05e-4,-0.00466 3.88e-4,0.00256 3.88e-4,0.00675 0,0.00931 -3.88e-4,0.00256 -7.05e-4,4.657e-4 -7.05e-4,-0.00466 z m -3.74e-4,-0.014535 c 8.1e-5,-0.00197 4.83e-4,-0.00237 10e-4,-0.00102 4.89e-4,0.00122 4.29e-4,0.00268 -1.34e-4,0.00325 -5.62e-4,5.627e-4 -9.63e-4,-4.374e-4 -8.89e-4,-0.00222 z m 0.486183,-0.00494 c 3.4e-5,-0.00279 4.14e-4,-0.00373 8.44e-4,-0.00208 4.29e-4,0.00165 4.01e-4,0.00393 -6.3e-5,0.00508 -4.64e-4,0.00115 -8.15e-4,-2.016e-4 -7.81e-4,-0.003 z m -0.261527,-0.22887474 c 0.0012,-4.6975e-4 0.0031,-4.6975e-4 0.0042,0 0.0012,4.6975e-4 2.11e-4,8.541e-4 -0.0021,8.541e-4 -0.0023,0 -0.0033,-3.8435e-4 -0.0021,-8.541e-4 z m 0.03305,-5.198e-5 c 0.0016,-4.2933e-4 0.0039,-4.011e-4 0.0051,6.282e-5 0.0011,4.6385e-4 -2.02e-4,8.1512e-4 -0.003,7.8061e-4 -0.0028,-3.455e-5 -0.0037,-4.1402e-4 -0.0021,-8.4343e-4 z m 0.428643,-0.11608987 -0.0032,-0.00381 0.0038,0.003226 c 0.0036,0.003031 0.0046,0.004394 0.0032,0.004394 -3.21e-4,0 -0.002,-0.001715 -0.0038,-0.00381 z m -0.03807,-0.0381 -0.0041,-0.004657 0.0047,0.004105 c 0.0044,0.003837 0.0054,0.005208 0.0041,0.005208 -3.04e-4,0 -0.0024,-0.002095 -0.0047,-0.004657 z m -1.239709,-0.46216672 c 0.0012,-4.8915e-4 0.0027,-4.2901e-4 0.0032,1.336e-4 5.63e-4,5.6268e-4 -4.37e-4,9.629e-4 -0.0022,8.8938e-4 -0.002,-8.128e-5 -0.0024,-4.825e-4 -0.001,-0.001023 z m 0.02879,-0.001693 c 0.0012,-4.8916e-4 0.0027,-4.2901e-4 0.0032,1.336e-4 5.63e-4,5.6268e-4 -4.38e-4,9.629e-4 -0.0022,8.8937e-4 -0.002,-8.128e-5 -0.0024,-4.825e-4 -10e-4,-0.001023 z m 0.111655,3.522e-5 c 0.0012,-4.6975e-4 0.0031,-4.6975e-4 0.0042,0 0.0012,4.6975e-4 2.12e-4,8.541e-4 -0.0021,8.541e-4 -0.0023,0 -0.0033,-3.8435e-4 -0.0021,-8.541e-4 z"
             id="path7347" /><path
             style="fill:#ff6600;fill-opacity:1;stroke-width:0.00169333"
             d="m -13.480402,3.5849868 c 0.0016,-4.26e-4 0.0043,-4.26e-4 0.0059,0 0.0016,4.259e-4 2.96e-4,7.744e-4 -0.003,7.744e-4 -0.0033,0 -0.0046,-3.485e-4 -0.003,-7.744e-4 z m 0.09906,-5.75e-5 c 0.003,-3.756e-4 0.008,-3.756e-4 0.01101,0 0.003,3.755e-4 5.5e-4,6.829e-4 -0.0055,6.829e-4 -0.0061,0 -0.0085,-3.074e-4 -0.0055,-6.829e-4 z m -0.13716,-0.00159 c 0.0012,-4.697e-4 0.0031,-4.697e-4 0.0042,0 0.0012,4.697e-4 2.12e-4,8.541e-4 -0.0021,8.541e-4 -0.0023,0 -0.0033,-3.844e-4 -0.0021,-8.541e-4 z m 0.176953,-4.57e-5 c 0.0016,-4.261e-4 0.0043,-4.261e-4 0.0059,0 0.0016,4.258e-4 2.96e-4,7.743e-4 -0.003,7.743e-4 -0.0033,0 -0.0046,-3.485e-4 -0.003,-7.743e-4 z m -0.202353,-0.00165 c 0.0012,-4.697e-4 0.0031,-4.697e-4 0.0042,0 0.0012,4.698e-4 2.12e-4,8.542e-4 -0.0021,8.542e-4 -0.0023,0 -0.0033,-3.844e-4 -0.0021,-8.542e-4 z m 0.235479,-3.55e-5 c 0.0012,-4.892e-4 0.0027,-4.291e-4 0.0032,1.338e-4 5.62e-4,5.627e-4 -4.38e-4,9.63e-4 -0.0022,8.895e-4 -0.002,-8.13e-5 -0.0024,-4.826e-4 -10e-4,-0.00102 z m -0.257387,-0.00169 c 0.0012,-4.892e-4 0.0027,-4.291e-4 0.0032,1.337e-4 5.63e-4,5.627e-4 -4.38e-4,9.63e-4 -0.0022,8.895e-4 -0.002,-8.12e-5 -0.0024,-4.826e-4 -0.001,-0.00102 z m 0.2794,0 c 0.0012,-4.892e-4 0.0027,-4.291e-4 0.0032,1.337e-4 5.63e-4,5.627e-4 -4.38e-4,9.63e-4 -0.0022,8.895e-4 -0.002,-8.12e-5 -0.0024,-4.826e-4 -10e-4,-0.00102 z m -0.298026,-0.00169 c 0.0012,-4.892e-4 0.0027,-4.291e-4 0.0032,1.338e-4 5.63e-4,5.627e-4 -4.37e-4,9.63e-4 -0.0022,8.895e-4 -0.002,-8.13e-5 -0.0024,-4.826e-4 -10e-4,-0.00102 z m 0.348826,-0.00339 c 0.0012,-4.892e-4 0.0027,-4.291e-4 0.0032,1.337e-4 5.63e-4,5.627e-4 -4.38e-4,9.63e-4 -0.0022,8.895e-4 -0.002,-8.12e-5 -0.0024,-4.826e-4 -10e-4,-0.00102 z m -0.394546,-0.00169 c 0.0012,-4.892e-4 0.0027,-4.291e-4 0.0032,1.338e-4 5.63e-4,5.627e-4 -4.37e-4,9.63e-4 -0.0022,8.895e-4 -0.002,-8.13e-5 -0.0024,-4.826e-4 -10e-4,-0.00102 z m 1.30757,-0.4058825 c 0,-3.515e-4 0.0013,-0.00168 0.003,-0.00296 0.0027,-0.00211 0.0027,-0.00205 6.39e-4,6.394e-4 -0.0022,0.00282 -0.0036,0.00372 -0.0036,0.00232 z m 0.01693,-0.01524 c 0,-3.515e-4 0.0013,-0.00168 0.003,-0.00296 0.0027,-0.00211 0.0027,-0.00205 6.4e-4,6.394e-4 -0.0022,0.00282 -0.0036,0.00372 -0.0036,0.00232 z m -2.252262,-0.014177 -0.0041,-0.00466 0.0047,0.00411 c 0.0026,0.00226 0.0047,0.00435 0.0047,0.00466 0,0.00133 -0.0014,2.472e-4 -0.0052,-0.00411 z m 2.286128,-0.018203 c 0.0032,-0.00326 0.0061,-0.00593 0.0066,-0.00593 4.66e-4,0 -0.0017,0.00267 -0.0049,0.00593 -0.0032,0.00326 -0.0061,0.00593 -0.0066,0.00593 -4.66e-4,0 0.0017,-0.00267 0.0049,-0.00593 z m 0.0381,-0.0381 c 0.0055,-0.00559 0.01044,-0.01016 0.0109,-0.01016 4.66e-4,0 -0.0037,0.00457 -0.0092,0.01016 -0.0055,0.00559 -0.01043,0.01016 -0.0109,0.01016 -4.66e-4,0 0.0037,-0.00457 0.0092,-0.01016 z m -2.402209,-0.02159 c -0.0021,-0.00269 -0.002,-0.00275 6.4e-4,-6.394e-4 0.0028,0.00221 0.0037,0.0036 0.0023,0.0036 -3.52e-4,0 -0.0017,-0.00133 -0.003,-0.00296 z m 2.430996,-0.00889 c 0.0017,-0.00186 0.0034,-0.00339 0.0039,-0.00339 4.65e-4,0 -5.33e-4,0.00152 -0.0022,0.00339 -0.0017,0.00186 -0.0034,0.00339 -0.0039,0.00339 -4.66e-4,0 5.32e-4,-0.00152 0.0022,-0.00339 z m -2.451316,-0.013123 c -0.0021,-0.00269 -0.002,-0.00275 6.4e-4,-6.394e-4 0.0028,0.00221 0.0037,0.0036 0.0023,0.0036 -3.52e-4,0 -0.0017,-0.00133 -0.003,-0.00296 z m 2.467403,-0.00445 c 0,-3.515e-4 0.0013,-0.00169 0.003,-0.00296 0.0027,-0.00211 0.0027,-0.00205 6.4e-4,6.394e-4 -0.0022,0.00282 -0.0036,0.00372 -0.0036,0.00232 z M -14.17541,2.8551707 c 0.0012,-4.892e-4 0.0027,-4.291e-4 0.0032,1.338e-4 5.63e-4,5.627e-4 -4.37e-4,9.63e-4 -0.0022,8.895e-4 -0.002,-8.13e-5 -0.0024,-4.826e-4 -10e-4,-0.00102 z m -0.0254,-0.00169 c 0.0012,-4.892e-4 0.0027,-4.291e-4 0.0032,1.337e-4 5.63e-4,5.627e-4 -4.37e-4,9.63e-4 -0.0022,8.895e-4 -0.002,-8.12e-5 -0.0024,-4.826e-4 -0.001,-0.00102 z m -0.02709,-0.00169 c 0.0012,-4.892e-4 0.0027,-4.291e-4 0.0032,1.338e-4 5.62e-4,5.627e-4 -4.38e-4,9.63e-4 -0.0022,8.895e-4 -0.002,-8.13e-5 -0.0024,-4.826e-4 -10e-4,-0.00102 z m -0.0254,-0.00169 c 0.0012,-4.892e-4 0.0027,-4.291e-4 0.0032,1.338e-4 5.62e-4,5.627e-4 -4.38e-4,9.63e-4 -0.0022,8.895e-4 -0.002,-8.13e-5 -0.0024,-4.826e-4 -10e-4,-0.00102 z m -0.02709,-0.00169 c 0.0012,-4.892e-4 0.0027,-4.291e-4 0.0032,1.337e-4 5.63e-4,5.627e-4 -4.37e-4,9.63e-4 -0.0022,8.895e-4 -0.002,-8.12e-5 -0.0024,-4.826e-4 -0.001,-0.00102 z m -0.02709,-0.00169 c 0.0012,-4.892e-4 0.0027,-4.291e-4 0.0032,1.338e-4 5.63e-4,5.627e-4 -4.37e-4,9.63e-4 -0.0022,8.895e-4 -0.002,-8.13e-5 -0.0024,-4.826e-4 -10e-4,-0.00102 z m -0.0254,-0.00169 c 0.0012,-4.892e-4 0.0027,-4.291e-4 0.0032,1.338e-4 5.63e-4,5.627e-4 -4.37e-4,9.63e-4 -0.0022,8.895e-4 -0.002,-8.13e-5 -0.0024,-4.826e-4 -10e-4,-0.00102 z m -0.05249,-0.00339 c 0.0012,-4.892e-4 0.0027,-4.291e-4 0.0032,1.338e-4 5.62e-4,5.627e-4 -4.38e-4,9.63e-4 -0.0022,8.895e-4 -0.002,-8.13e-5 -0.0024,-4.826e-4 -10e-4,-0.00102 z m -0.02709,-0.00169 c 0.0012,-4.892e-4 0.0027,-4.291e-4 0.0032,1.338e-4 5.63e-4,5.627e-4 -4.37e-4,9.63e-4 -0.0022,8.895e-4 -0.002,-8.13e-5 -0.0024,-4.826e-4 -10e-4,-0.00102 z m 0.237293,-0.00689 -0.0058,-0.00635 0.0063,0.00584 c 0.0035,0.00321 0.0063,0.00607 0.0063,0.00635 0,0.00129 -0.0014,7.46e-5 -0.0069,-0.00584 z m -0.191256,-0.05715 c 0.03398,-0.033994 0.06217,-0.061807 0.06264,-0.061807 4.66e-4,0 -0.02696,0.027813 -0.06094,0.061807 -0.03399,0.033994 -0.06217,0.061807 -0.06264,0.061807 -4.66e-4,0 0.02696,-0.027813 0.06094,-0.061807 z m 0.165856,0.033443 -0.0058,-0.00635 0.0064,0.00584 c 0.0035,0.00321 0.0063,0.00607 0.0063,0.00635 0,0.00129 -0.0014,7.45e-5 -0.0069,-0.00584 z m 0.01702,-0.04699 c -0.02653,-0.026543 -0.04786,-0.04826 -0.04739,-0.04826 4.66e-4,0 0.02255,0.021717 0.04908,0.04826 0.02653,0.026543 0.04786,0.04826 0.04739,0.04826 -4.66e-4,0 -0.02255,-0.021717 -0.04908,-0.04826 z m -0.04412,0.02159 -0.0058,-0.00635 0.0063,0.00584 c 0.0035,0.00321 0.0063,0.00607 0.0063,0.00635 0,0.00129 -0.0014,7.45e-5 -0.0069,-0.00584 z m -0.02709,-0.0254 -0.0058,-0.00635 0.0063,0.00584 c 0.0035,0.00321 0.0064,0.00607 0.0064,0.00635 0,0.00129 -0.0014,7.45e-5 -0.0069,-0.00584 z m -0.0254,-0.023707 -0.0058,-0.00635 0.0063,0.00584 c 0.0035,0.00321 0.0063,0.00607 0.0063,0.00635 0,0.00129 -0.0014,7.45e-5 -0.0069,-0.00584 z m 0.01957,-0.063077 c 0.0036,-0.00373 0.007,-0.00677 0.0075,-0.00677 4.66e-4,0 -0.0021,0.00305 -0.0058,0.00677 -0.0036,0.00373 -0.007,0.00677 -0.0075,0.00677 -4.65e-4,0 0.0021,-0.00305 0.0058,-0.00677 z m 0.09483,-0.09652 c 0.01488,-0.014901 0.02744,-0.027093 0.0279,-0.027093 4.65e-4,0 -0.01133,0.012192 -0.02621,0.027093 -0.01488,0.014901 -0.02744,0.027093 -0.0279,0.027093 -4.65e-4,0 0.01133,-0.012192 0.02621,-0.027093 z m 0.115147,-0.11684 c 0.01488,-0.014901 0.02744,-0.027093 0.0279,-0.027093 4.66e-4,0 -0.01133,0.012192 -0.02621,0.027093 -0.01488,0.014901 -0.02743,0.027093 -0.0279,0.027093 -4.66e-4,0 0.01133,-0.012192 0.02621,-0.027093 z m 0.115993,-0.1176867 c 0.01535,-0.015367 0.02828,-0.02794 0.02875,-0.02794 4.66e-4,0 -0.01171,0.012573 -0.02705,0.02794 -0.01535,0.015367 -0.02828,0.02794 -0.02875,0.02794 -4.65e-4,0 0.01171,-0.012573 0.02705,-0.02794 z m 0.115147,-0.11684 c 0.01535,-0.015367 0.02828,-0.02794 0.02875,-0.02794 4.66e-4,0 -0.01171,0.012573 -0.02706,0.02794 -0.01535,0.015367 -0.02828,0.02794 -0.02875,0.02794 -4.66e-4,0 0.01171,-0.012573 0.02705,-0.02794 z m 0.381,0.025607 c 0,-3.515e-4 0.0013,-0.00169 0.003,-0.00296 0.0027,-0.00211 0.0027,-0.00205 6.4e-4,6.394e-4 -0.0022,0.00282 -0.0036,0.00372 -0.0036,0.00232 z m 0.01863,-0.01524 c 0,-3.515e-4 0.0013,-0.00169 0.003,-0.00296 0.0027,-0.00211 0.0027,-0.00205 6.39e-4,6.394e-4 -0.0022,0.00282 -0.0036,0.00372 -0.0036,0.00232 z m 0.05757,-0.04561 c 0,-2.914e-4 0.0025,-0.00277 0.0055,-0.0055 l 0.0055,-0.00497 -0.005,0.0055 c -0.0046,0.00513 -0.006,0.00628 -0.006,0.00497 z M -13.3217,2.1498 c 0.007,-0.00748 0.0085,-0.00882 0.0085,-0.00755 0,2.718e-4 -0.0036,0.00389 -0.008,0.00804 l -0.008,0.00755 z m 0.0424,-0.041063 c 0.006,-0.00605 0.01129,-0.011007 0.01176,-0.011007 4.65e-4,0 -0.0041,0.00495 -0.01006,0.011007 -0.006,0.00605 -0.01129,0.011007 -0.01176,0.011007 -4.66e-4,0 0.0041,-0.00495 0.01006,-0.011007 z m -0.16984,-0.00728 -0.01483,-0.014899 0.0047,-0.00411 0.0047,-0.00411 -0.0038,0.00415 -0.0038,0.00415 0.01479,0.014857 c 0.0081,0.00817 0.01441,0.014857 0.01394,0.014857 -4.65e-4,0 -0.0075,-0.0067 -0.01568,-0.014899 z m -1.624959,-0.011489 c 8.1e-5,-0.00197 4.82e-4,-0.00237 0.001,-0.00102 4.89e-4,0.00122 4.29e-4,0.00268 -1.34e-4,0.00325 -5.63e-4,5.627e-4 -9.63e-4,-4.376e-4 -8.89e-4,-0.00222 z m 3.300306,-0.011853 c 8.1e-5,-0.00197 4.83e-4,-0.00237 10e-4,-0.00102 4.89e-4,0.00122 4.29e-4,0.00268 -1.34e-4,0.00325 -5.62e-4,5.627e-4 -9.63e-4,-4.375e-4 -8.89e-4,-0.00222 z m -3.302,-0.00677 c 8.2e-5,-0.00197 4.83e-4,-0.00237 0.001,-0.00102 4.9e-4,0.00122 4.29e-4,0.00268 -1.33e-4,0.00325 -5.63e-4,5.627e-4 -9.63e-4,-4.376e-4 -8.9e-4,-0.00222 z m 1.628853,3.483e-4 c 0,-3.515e-4 0.0013,-0.00169 0.003,-0.00296 0.0027,-0.00211 0.0027,-0.00205 6.39e-4,6.394e-4 -0.0022,0.00282 -0.0036,0.00372 -0.0036,0.00232 z m 1.674974,-0.012907 c 0,-0.00233 3.85e-4,-0.00328 8.54e-4,-0.00212 4.7e-4,0.00116 4.7e-4,0.00307 0,0.00423 -4.69e-4,0.00116 -8.54e-4,2.117e-4 -8.54e-4,-0.00212 z m -1.661427,0.00105 c 0,-3.515e-4 0.0013,-0.00169 0.003,-0.00296 0.0027,-0.00211 0.0027,-0.00205 6.4e-4,6.394e-4 -0.0022,0.00282 -0.0036,0.00372 -0.0036,0.00232 z m -1.643959,-0.00952 c 0,-0.00233 3.84e-4,-0.00328 8.54e-4,-0.00212 4.7e-4,0.00116 4.7e-4,0.00307 0,0.00423 -4.7e-4,0.00116 -8.54e-4,2.116e-4 -8.54e-4,-0.00212 z m 1.885259,-0.027093 c 0.01674,-0.016764 0.03083,-0.03048 0.03129,-0.03048 4.66e-4,0 -0.01285,0.013716 -0.0296,0.03048 -0.01674,0.016764 -0.03083,0.03048 -0.03129,0.03048 -4.66e-4,0 0.01285,-0.013716 0.0296,-0.03048 z m -0.347996,-0.00804 -0.0347,-0.035137 0.03514,0.034698 c 0.01933,0.019084 0.03514,0.034895 0.03514,0.035137 0,0.0012 -0.0033,-0.00205 -0.03558,-0.034698 z m 0.0415,0.030057 c 0.0017,-0.00186 0.0034,-0.00339 0.0039,-0.00339 4.66e-4,0 -5.32e-4,0.00152 -0.0022,0.00339 -0.0017,0.00186 -0.0034,0.00339 -0.0039,0.00339 -4.65e-4,0 5.33e-4,-0.00152 0.0022,-0.00339 z m 0.07874,0.00275 c 0,-3.516e-4 0.0013,-0.00169 0.003,-0.00296 0.0027,-0.00211 0.0027,-0.00205 6.39e-4,6.394e-4 -0.0022,0.00282 -0.0036,0.00372 -0.0036,0.00232 z m 1.649573,-0.012907 c 0,-0.00233 3.85e-4,-0.00328 8.55e-4,-0.00212 4.69e-4,0.00116 4.69e-4,0.00307 0,0.00423 -4.7e-4,0.00116 -8.55e-4,2.116e-4 -8.55e-4,-0.00212 z m -1.850233,-0.00677 c 0.0046,-0.00466 0.0087,-0.00847 0.0092,-0.00847 4.65e-4,0 -0.0029,0.00381 -0.0075,0.00847 -0.0046,0.00466 -0.0087,0.00847 -0.0092,0.00847 -4.66e-4,0 0.0029,-0.00381 0.0075,-0.00847 z m 0.02196,-0.00212 -0.01011,-0.010583 0.01058,0.010107 c 0.0058,0.00556 0.01058,0.010321 0.01058,0.010583 0,0.00125 -0.0017,-2.76e-4 -0.01106,-0.010107 z m 0.113506,0.0072 c 0.0017,-0.00186 0.0034,-0.00339 0.0039,-0.00339 4.65e-4,0 -5.33e-4,0.00152 -0.0022,0.00339 -0.0017,0.00186 -0.0034,0.00339 -0.0039,0.00339 -4.66e-4,0 5.32e-4,-0.00152 0.0022,-0.00339 z m 0.07874,0.00275 c 0,-3.515e-4 0.0013,-0.00169 0.003,-0.00296 0.0027,-0.00211 0.0027,-0.00205 6.39e-4,6.394e-4 -0.0022,0.00282 -0.0036,0.00372 -0.0036,0.00232 z m -1.672683,-0.013754 c 3.5e-5,-0.00279 4.14e-4,-0.00373 8.43e-4,-0.00208 4.3e-4,0.00165 4.02e-4,0.00393 -6.2e-5,0.00508 -4.64e-4,0.00115 -8.16e-4,-2.015e-4 -7.81e-4,-0.003 z m 1.60495,0.0019 c 0,-3.515e-4 0.0013,-0.00168 0.003,-0.00296 0.0027,-0.00211 0.0027,-0.00205 6.4e-4,6.394e-4 -0.0022,0.00282 -0.0036,0.00372 -0.0036,0.00232 z m 0.08128,0 c 0,-3.515e-4 0.0013,-0.00168 0.003,-0.00296 0.0027,-0.00211 0.0027,-0.00205 6.4e-4,6.394e-4 -0.0022,0.00282 -0.0036,0.00372 -0.0036,0.00232 z m -0.06773,-0.011853 c 0,-3.516e-4 0.0013,-0.00169 0.003,-0.00296 0.0027,-0.00211 0.0027,-0.00205 6.39e-4,6.394e-4 -0.0022,0.00282 -0.0036,0.00372 -0.0036,0.00232 z m 0.08382,-0.00275 c 0.0017,-0.00186 0.0034,-0.00339 0.0039,-0.00339 4.66e-4,0 -5.32e-4,0.00152 -0.0022,0.00339 -0.0017,0.00186 -0.0034,0.00339 -0.0039,0.00339 -4.65e-4,0 5.33e-4,-0.00152 0.0022,-0.00339 z m 1.608212,-0.00508 c 0,-0.00326 3.49e-4,-0.00459 7.75e-4,-0.00296 4.26e-4,0.00163 4.26e-4,0.0043 0,0.00593 -4.26e-4,0.00163 -7.75e-4,2.964e-4 -7.75e-4,-0.00296 z m -1.677639,-0.00508 c 0.0017,-0.00186 0.0034,-0.00339 0.0039,-0.00339 4.66e-4,0 -5.32e-4,0.00152 -0.0022,0.00339 -0.0017,0.00186 -0.0034,0.00339 -0.0039,0.00339 -4.66e-4,0 5.32e-4,-0.00152 0.0022,-0.00339 z m 0.08297,-0.00169 c 0.0017,-0.00186 0.0034,-0.00339 0.0039,-0.00339 4.65e-4,0 -5.33e-4,0.00152 -0.0022,0.00339 -0.0017,0.00186 -0.0034,0.00339 -0.0039,0.00339 -4.66e-4,0 5.32e-4,-0.00152 0.0022,-0.00339 z m -1.717494,-0.00847 c 0,-0.00326 3.49e-4,-0.00459 7.75e-4,-0.00296 4.26e-4,0.00163 4.26e-4,0.0043 0,0.00593 -4.26e-4,0.00163 -7.75e-4,2.964e-4 -7.75e-4,-0.00296 z m 1.645528,0.00105 c 0,-3.515e-4 0.0013,-0.00168 0.003,-0.00296 0.0027,-0.00211 0.0027,-0.00205 6.39e-4,6.394e-4 -0.0022,0.00282 -0.0036,0.00372 -0.0036,0.00232 z m 0.08551,-0.00444 c 0.0017,-0.00186 0.0034,-0.00339 0.0039,-0.00339 4.66e-4,0 -5.32e-4,0.00152 -0.0022,0.00339 -0.0017,0.00186 -0.0034,0.00339 -0.0039,0.00339 -4.66e-4,0 5.32e-4,-0.00152 0.0022,-0.00339 z m -0.187113,-0.044873 c 0.02094,-0.020955 0.03845,-0.0381 0.03892,-0.0381 4.66e-4,0 -0.01629,0.017145 -0.03722,0.0381 -0.02094,0.020955 -0.03845,0.0381 -0.03892,0.0381 -4.65e-4,0 0.01629,-0.017145 0.03723,-0.0381 z m 0.115146,0.037461 c 0,-3.515e-4 0.0013,-0.00168 0.003,-0.00296 0.0027,-0.00211 0.0027,-0.00205 6.39e-4,6.394e-4 -0.0022,0.00282 -0.0036,0.00372 -0.0036,0.00232 z m 0.08467,-0.00339 c 0,-3.515e-4 0.0013,-0.00168 0.003,-0.00296 0.0027,-0.00211 0.0027,-0.00205 6.4e-4,6.394e-4 -0.0022,0.00282 -0.0036,0.00372 -0.0036,0.00232 z m -0.07027,-0.00952 c 0.0017,-0.00186 0.0034,-0.00339 0.0039,-0.00339 4.66e-4,0 -5.32e-4,0.00152 -0.0022,0.00339 -0.0017,0.00186 -0.0034,0.00339 -0.0039,0.00339 -4.65e-4,0 5.33e-4,-0.00152 0.0022,-0.00339 z m 0.08382,-0.00233 c 0,-3.515e-4 0.0013,-0.00168 0.003,-0.00296 0.0027,-0.00211 0.0027,-0.00205 6.39e-4,6.394e-4 -0.0022,0.00282 -0.0036,0.00372 -0.0036,0.00232 z m 1.556799,-0.017987 c 0,-0.00978 2.8e-4,-0.01378 6.22e-4,-0.00889 3.42e-4,0.00489 3.42e-4,0.01289 0,0.01778 -3.42e-4,0.00489 -6.22e-4,8.89e-4 -6.22e-4,-0.00889 z m -1.627073,0.00847 c 0.0017,-0.00186 0.0034,-0.00339 0.0039,-0.00339 4.65e-4,0 -5.33e-4,0.00152 -0.0022,0.00339 -0.0017,0.00186 -0.0034,0.00339 -0.0039,0.00339 -4.66e-4,0 5.32e-4,-0.00152 0.0022,-0.00339 z m 0.275096,-0.0055 c 0.007,-0.00748 0.0085,-0.00882 0.0085,-0.00755 0,2.718e-4 -0.0036,0.00389 -0.008,0.00804 l -0.008,0.00755 z m -0.191276,0.00317 c 0,-3.516e-4 0.0013,-0.00169 0.003,-0.00296 0.0027,-0.00211 0.0027,-0.00205 6.39e-4,6.394e-4 -0.0022,0.00282 -0.0036,0.00372 -0.0036,0.00232 z m -0.357302,-0.063284 -0.0601,-0.060537 0.06054,0.060104 c 0.05626,0.055861 0.0613,0.060969 0.06011,0.060969 -2.38e-4,0 -0.02748,-0.027241 -0.06054,-0.060537 z m -0.03557,0.032173 -0.02453,-0.024977 0.02498,0.024532 c 0.0232,0.022789 0.02574,0.025422 0.02453,0.025422 -2.45e-4,0 -0.01149,-0.01124 -0.02498,-0.024977 z m 0.320062,0.024337 c 0,-3.515e-4 0.0013,-0.00168 0.003,-0.00296 0.0027,-0.00211 0.0027,-0.00205 6.4e-4,6.394e-4 -0.0022,0.00282 -0.0036,0.00372 -0.0036,0.00232 z m 0.08636,-0.00508 c 0,-3.515e-4 0.0013,-0.00168 0.003,-0.00296 0.0027,-0.00211 0.0027,-0.00205 6.4e-4,6.394e-4 -0.0022,0.00282 -0.0036,0.00372 -0.0036,0.00232 z m -0.07281,-0.00677 c 0,-3.515e-4 0.0013,-0.00168 0.003,-0.00296 0.0027,-0.00211 0.0027,-0.00205 6.39e-4,6.394e-4 -0.0022,0.00282 -0.0036,0.00372 -0.0036,0.00232 z m 0.08636,-0.00508 c 0,-3.515e-4 0.0013,-0.00168 0.003,-0.00296 0.0027,-0.00211 0.0027,-0.00205 6.39e-4,6.394e-4 -0.0022,0.00282 -0.0036,0.00372 -0.0036,0.00232 z m 1.516058,-0.010367 c 1.6e-5,-0.00559 3.25e-4,-0.00767 7.02e-4,-0.00463 3.77e-4,0.00304 3.69e-4,0.00762 -1.7e-5,0.01016 -3.86e-4,0.00254 -6.95e-4,5.42e-5 -6.85e-4,-0.00553 z m -1.324712,0.00169 c 0.0032,-0.00326 0.0061,-0.00593 0.0066,-0.00593 4.66e-4,0 -0.0017,0.00267 -0.0049,0.00593 -0.0032,0.00326 -0.0061,0.00593 -0.0066,0.00593 -4.66e-4,0 0.0017,-0.00267 0.0049,-0.00593 z m -0.263313,8.466e-4 c 0.0017,-0.00186 0.0034,-0.00339 0.0039,-0.00339 4.66e-4,0 -5.32e-4,0.00152 -0.0022,0.00339 -0.0017,0.00186 -0.0034,0.00339 -0.0039,0.00339 -4.66e-4,0 5.32e-4,-0.00152 0.0022,-0.00339 z m 0.08805,-0.00677 c 0.0017,-0.00186 0.0034,-0.00339 0.0039,-0.00339 4.65e-4,0 -5.33e-4,0.00152 -0.0022,0.00339 -0.0017,0.00186 -0.0034,0.00339 -0.0039,0.00339 -4.66e-4,0 5.32e-4,-0.00152 0.0022,-0.00339 z m -0.07705,-0.00233 c 0,-3.516e-4 0.0013,-0.00169 0.003,-0.00296 0.0027,-0.00211 0.0027,-0.00205 6.39e-4,6.394e-4 -0.0022,0.00282 -0.0036,0.00372 -0.0036,0.00232 z m 0.09059,-0.00952 c 0.0017,-0.00186 0.0034,-0.00339 0.0039,-0.00339 4.66e-4,0 -5.32e-4,0.00152 -0.0022,0.00339 -0.0017,0.00186 -0.0034,0.00339 -0.0039,0.00339 -4.66e-4,0 5.32e-4,-0.00152 0.0022,-0.00339 z m -0.07705,-0.00233 c 0,-3.515e-4 0.0013,-0.00168 0.003,-0.00296 0.0027,-0.00211 0.0027,-0.00205 6.39e-4,6.394e-4 -0.0022,0.00282 -0.0036,0.00372 -0.0036,0.00232 z m 0.260774,-0.00359 c 0.0022,-0.00233 0.0044,-0.00423 0.0048,-0.00423 4.66e-4,0 -9.43e-4,0.0019 -0.0031,0.00423 -0.0022,0.00233 -0.0044,0.00423 -0.0048,0.00423 -4.65e-4,0 9.43e-4,-0.00191 0.0031,-0.00423 z m -0.171027,-0.00487 c 0,-3.516e-4 0.0013,-0.00169 0.003,-0.00296 0.0027,-0.00211 0.0027,-0.00205 6.4e-4,6.394e-4 -0.0022,0.00282 -0.0036,0.00372 -0.0036,0.00232 z m -0.07535,-0.00444 c 0.0017,-0.00186 0.0034,-0.00339 0.0039,-0.00339 4.66e-4,0 -5.32e-4,0.00152 -0.0022,0.00339 -0.0017,0.00186 -0.0034,0.00339 -0.0039,0.00339 -4.65e-4,0 5.33e-4,-0.00152 0.0022,-0.00339 z m 0.262466,-0.00847 c 0.0017,-0.00186 0.0034,-0.00339 0.0039,-0.00339 4.65e-4,0 -5.33e-4,0.00152 -0.0022,0.00339 -0.0017,0.00186 -0.0034,0.00339 -0.0039,0.00339 -4.66e-4,0 5.32e-4,-0.00152 0.0022,-0.00339 z m -0.173566,0.00105 c 0,-3.515e-4 0.0013,-0.00169 0.003,-0.00296 0.0027,-0.00211 0.0027,-0.00205 6.39e-4,6.394e-4 -0.0022,0.00282 -0.0036,0.00372 -0.0036,0.00232 z m -0.07535,-0.00444 c 0.0017,-0.00186 0.0034,-0.00339 0.0039,-0.00339 4.65e-4,0 -5.33e-4,0.00152 -0.0022,0.00339 -0.0017,0.00186 -0.0034,0.00339 -0.0039,0.00339 -4.66e-4,0 5.32e-4,-0.00152 0.0022,-0.00339 z m -0.146473,-0.08382 c 0.04702,-0.047032 0.08588,-0.085513 0.08635,-0.085513 4.66e-4,0 -0.03763,0.038481 -0.08465,0.085513 -0.04702,0.047032 -0.08588,0.085513 -0.08635,0.085513 -4.66e-4,0 0.03763,-0.038481 0.08465,-0.085513 z m -1.631946,0.077893 c 1.8e-5,-0.00373 3.65e-4,-0.00505 7.7e-4,-0.00294 4.05e-4,0.00211 3.9e-4,0.00515 -3.4e-5,0.00677 -4.24e-4,0.00162 -7.55e-4,-1.05e-4 -7.36e-4,-0.00383 z m 1.867319,-0.00149 c 0,-3.515e-4 0.0013,-0.00168 0.003,-0.00296 0.0027,-0.00211 0.0027,-0.00205 6.39e-4,6.394e-4 -0.0022,0.00282 -0.0036,0.00372 -0.0036,0.00232 z m -0.07789,-0.00169 c 0,-3.516e-4 0.0013,-0.00169 0.003,-0.00296 0.0027,-0.00211 0.0027,-0.00205 6.4e-4,6.394e-4 -0.0022,0.00282 -0.0036,0.00372 -0.0036,0.00232 z m 0.24892,0 c 0,-3.516e-4 0.0013,-0.00169 0.003,-0.00296 0.0027,-0.00211 0.0027,-0.00205 6.4e-4,6.394e-4 -0.0022,0.00282 -0.0036,0.00372 -0.0036,0.00232 z m 1.273779,-0.00783 c 0,-0.00326 3.49e-4,-0.00459 7.75e-4,-0.00296 4.26e-4,0.00163 4.26e-4,0.0043 0,0.00593 -4.26e-4,0.00163 -7.75e-4,2.964e-4 -7.75e-4,-0.00296 z m -1.431259,-0.00233 c 0,-3.516e-4 0.0013,-0.00169 0.003,-0.00296 0.0027,-0.00211 0.0027,-0.00205 6.4e-4,6.394e-4 -0.0022,0.00282 -0.0036,0.00372 -0.0036,0.00232 z m -0.07789,-0.00169 c 0,-3.515e-4 0.0013,-0.00168 0.003,-0.00296 0.0027,-0.00211 0.0027,-0.00205 6.39e-4,6.394e-4 -0.0022,0.00282 -0.0036,0.00372 -0.0036,0.00232 z m 0.247226,-0.00169 c 0,-3.515e-4 0.0013,-0.00168 0.003,-0.00296 0.0027,-0.00211 0.0027,-0.00205 6.39e-4,6.394e-4 -0.0022,0.00282 -0.0036,0.00372 -0.0036,0.00232 z m -0.232833,-0.011214 c 0.0017,-0.00186 0.0034,-0.00339 0.0039,-0.00339 4.66e-4,0 -5.32e-4,0.00152 -0.0022,0.00339 -0.0017,0.00186 -0.0034,0.00339 -0.0039,0.00339 -4.66e-4,0 5.32e-4,-0.00152 0.0022,-0.00339 z m 0.07705,0.00275 c 0,-3.515e-4 0.0013,-0.00169 0.003,-0.00296 0.0027,-0.00211 0.0027,-0.00205 6.39e-4,6.394e-4 -0.0022,0.00282 -0.0036,0.00372 -0.0036,0.00232 z m 0.16764,-0.00508 c 0,-3.515e-4 0.0013,-0.00169 0.003,-0.00296 0.0027,-0.00211 0.0027,-0.00205 6.39e-4,6.394e-4 -0.0022,0.00282 -0.0036,0.00372 -0.0036,0.00232 z m -2.06052,-0.00613 c 0,-0.00233 3.85e-4,-0.00328 8.54e-4,-0.00212 4.7e-4,0.00116 4.7e-4,0.00307 0,0.00423 -4.69e-4,0.00116 -8.54e-4,2.116e-4 -8.54e-4,-0.00212 z m 1.82684,-6.394e-4 c 0,-3.515e-4 0.0013,-0.00168 0.003,-0.00296 0.0027,-0.00211 0.0027,-0.00205 6.39e-4,6.394e-4 -0.0022,0.00282 -0.0036,0.00372 -0.0036,0.00232 z m 0.08213,-0.00275 c 0.0017,-0.00186 0.0034,-0.00339 0.0039,-0.00339 4.65e-4,0 -5.33e-4,0.00152 -0.0022,0.00339 -0.0017,0.00186 -0.0034,0.00339 -0.0039,0.00339 -4.66e-4,0 5.32e-4,-0.00152 0.0022,-0.00339 z m 1.399807,-0.00339 c 0,-0.00233 3.85e-4,-0.00328 8.55e-4,-0.00212 4.69e-4,0.00116 4.69e-4,0.00307 0,0.00423 -4.7e-4,0.00116 -8.55e-4,2.117e-4 -8.55e-4,-0.00212 z m -1.926433,-0.028787 c 0.01395,-0.01397 0.02574,-0.0254 0.0262,-0.0254 4.66e-4,0 -0.01056,0.01143 -0.02451,0.0254 -0.01395,0.01397 -0.02574,0.0254 -0.0262,0.0254 -4.66e-4,0 0.01056,-0.01143 0.02451,-0.0254 z m 0.458046,0.023067 c 0,-3.516e-4 0.0013,-0.00169 0.003,-0.00296 0.0027,-0.00211 0.0027,-0.00205 6.39e-4,6.394e-4 -0.0022,0.00282 -0.0036,0.00372 -0.0036,0.00232 z m 0.08213,-0.00275 c 0.0017,-0.00186 0.0034,-0.00339 0.0039,-0.00339 4.66e-4,0 -5.32e-4,0.00152 -0.0022,0.00339 -0.0017,0.00186 -0.0034,0.00339 -0.0039,0.00339 -4.66e-4,0 5.32e-4,-0.00152 0.0022,-0.00339 z m -1.920819,-0.01016 c 0,-0.00233 3.84e-4,-0.00328 8.54e-4,-0.00212 4.7e-4,0.00116 4.7e-4,0.00307 0,0.00423 -4.7e-4,0.00116 -8.54e-4,2.116e-4 -8.54e-4,-0.00212 z m 1.853086,0 c 0.0017,-0.00186 0.0034,-0.00339 0.0039,-0.00339 4.66e-4,0 -5.32e-4,0.00152 -0.0022,0.00339 -0.0017,0.00186 -0.0034,0.00339 -0.0039,0.00339 -4.65e-4,0 5.33e-4,-0.00152 0.0022,-0.00339 z m 0.08128,-0.00169 c 0.0017,-0.00186 0.0034,-0.00339 0.0039,-0.00339 4.66e-4,0 -5.32e-4,0.00152 -0.0022,0.00339 -0.0017,0.00186 -0.0034,0.00339 -0.0039,0.00339 -4.65e-4,0 5.33e-4,-0.00152 0.0022,-0.00339 z m 1.37102,-0.00508 c 0,-0.00233 3.85e-4,-0.00328 8.54e-4,-0.00212 4.7e-4,0.00116 4.7e-4,0.00307 0,0.00423 -4.69e-4,0.00116 -8.54e-4,2.117e-4 -8.54e-4,-0.00212 z m -1.438754,-0.00508 c 0.0017,-0.00186 0.0034,-0.00339 0.0039,-0.00339 4.65e-4,0 -5.33e-4,0.00152 -0.0022,0.00339 -0.0017,0.00186 -0.0034,0.00339 -0.0039,0.00339 -4.66e-4,0 5.32e-4,-0.00152 0.0022,-0.00339 z m -0.136313,-0.041487 c 0.0228,-0.022818 0.04184,-0.041487 0.04231,-0.041487 4.66e-4,0 -0.01781,0.018669 -0.04061,0.041487 -0.0228,0.022818 -0.04184,0.041487 -0.04231,0.041487 -4.66e-4,0 0.01781,-0.018669 0.04061,-0.041487 z m 0.216747,0.040847 c 0,-3.516e-4 0.0013,-0.00169 0.003,-0.00296 0.0027,-0.00211 0.0027,-0.00205 6.39e-4,6.394e-4 -0.0022,0.00282 -0.0036,0.00372 -0.0036,0.00232 z m -1.945507,-0.00882 c 8.2e-5,-0.00197 4.83e-4,-0.00237 0.001,-0.00102 4.9e-4,0.00122 4.29e-4,0.00268 -1.33e-4,0.00325 -5.63e-4,5.627e-4 -9.63e-4,-4.376e-4 -8.9e-4,-0.00222 z m 1.87608,3.483e-4 c 0,-3.515e-4 0.0013,-0.00168 0.003,-0.00296 0.0027,-0.00211 0.0027,-0.00205 6.4e-4,6.394e-4 -0.0022,0.00282 -0.0036,0.00372 -0.0036,0.00232 z m 0.08297,-0.00339 c 0,-3.515e-4 0.0013,-0.00168 0.003,-0.00296 0.0027,-0.00211 0.0027,-0.00205 6.39e-4,6.394e-4 -0.0022,0.00282 -0.0036,0.00372 -0.0036,0.00232 z m 1.342947,-0.00204 c 8.1e-5,-0.00197 4.83e-4,-0.00237 0.001,-0.00102 4.89e-4,0.00122 4.29e-4,0.00268 -1.34e-4,0.00325 -5.62e-4,5.627e-4 -9.63e-4,-4.376e-4 -8.89e-4,-0.00222 z m -1.412373,-0.00643 c 0,-3.516e-4 0.0013,-0.00169 0.003,-0.00296 0.0027,-0.00211 0.0027,-0.00205 6.39e-4,6.394e-4 -0.0022,0.00282 -0.0036,0.00372 -0.0036,0.00232 z m 0.08297,-0.00339 c 0,-3.515e-4 0.0013,-0.00169 0.003,-0.00296 0.0027,-0.00211 0.0027,-0.00205 6.4e-4,6.394e-4 -0.0022,0.00282 -0.0036,0.00372 -0.0036,0.00232 z m -1.970906,-0.00374 c 8.1e-5,-0.00197 4.82e-4,-0.00237 0.001,-0.00102 4.89e-4,0.00122 4.29e-4,0.00268 -1.34e-4,0.00325 -5.63e-4,5.627e-4 -9.63e-4,-4.375e-4 -8.89e-4,-0.00222 z m 1.902326,-0.00579 c 0.0017,-0.00186 0.0034,-0.00339 0.0039,-0.00339 4.66e-4,0 -5.32e-4,0.00152 -0.0022,0.00339 -0.0017,0.00186 -0.0034,0.00339 -0.0039,0.00339 -4.66e-4,0 5.32e-4,-0.00152 0.0022,-0.00339 z m 1.396287,7.056e-4 c 8.1e-5,-0.00197 4.82e-4,-0.00237 10e-4,-0.00102 4.89e-4,0.00122 4.29e-4,0.00268 -1.34e-4,0.00325 -5.63e-4,5.627e-4 -9.63e-4,-4.375e-4 -8.89e-4,-0.00222 z m -1.31416,-0.00304 c 0,-3.516e-4 0.0013,-0.00169 0.003,-0.00296 0.0027,-0.00211 0.0027,-0.00205 6.39e-4,6.394e-4 -0.0022,0.00282 -0.0036,0.00372 -0.0036,0.00232 z m -0.07112,-0.00677 c 0,-3.515e-4 0.0013,-0.00169 0.003,-0.00296 0.0027,-0.00211 0.0027,-0.00205 6.39e-4,6.394e-4 -0.0022,0.00282 -0.0036,0.00372 -0.0036,0.00232 z m 0.08467,-0.00508 c 0,-3.515e-4 0.0013,-0.00168 0.003,-0.00296 0.0027,-0.00211 0.0027,-0.00205 6.39e-4,6.394e-4 -0.0022,0.00282 -0.0036,0.00372 -0.0036,0.00232 z m -0.07112,-0.00677 c 0,-3.515e-4 0.0013,-0.00168 0.003,-0.00296 0.0027,-0.00211 0.0027,-0.00205 6.39e-4,6.394e-4 -0.0022,0.00282 -0.0036,0.00372 -0.0036,0.00232 z m -1.923493,-0.00374 c 8.2e-5,-0.00197 4.83e-4,-0.00237 10e-4,-0.00102 4.9e-4,0.00122 4.29e-4,0.00268 -1.33e-4,0.00325 -5.63e-4,5.627e-4 -9.63e-4,-4.375e-4 -8.9e-4,-0.00222 z m 1.450207,-0.014252 c 0.0074,-0.00745 0.01385,-0.013547 0.01431,-0.013547 4.66e-4,0 -0.0052,0.0061 -0.01262,0.013547 -0.0074,0.00745 -0.01385,0.013547 -0.01431,0.013547 -4.66e-4,0 0.0052,-0.0061 0.01262,-0.013547 z m 0.560493,0.01016 c 0.0017,-0.00186 0.0034,-0.00339 0.0039,-0.00339 4.66e-4,0 -5.32e-4,0.00152 -0.0022,0.00339 -0.0017,0.00186 -0.0034,0.00339 -0.0039,0.00339 -4.66e-4,0 5.32e-4,-0.00152 0.0022,-0.00339 z m -0.07281,-0.00508 c 0.0017,-0.00186 0.0034,-0.00339 0.0039,-0.00339 4.66e-4,0 -5.32e-4,0.00152 -0.0022,0.00339 -0.0017,0.00186 -0.0034,0.00339 -0.0039,0.00339 -4.65e-4,0 5.33e-4,-0.00152 0.0022,-0.00339 z m 0.08636,-0.00677 c 0.0017,-0.00186 0.0034,-0.00339 0.0039,-0.00339 4.66e-4,0 -5.32e-4,0.00152 -0.0022,0.00339 -0.0017,0.00186 -0.0034,0.00339 -0.0039,0.00339 -4.65e-4,0 5.33e-4,-0.00152 0.0022,-0.00339 z m -0.07281,-0.00508 c 0.0017,-0.00186 0.0034,-0.00339 0.0039,-0.00339 4.65e-4,0 -5.33e-4,0.00152 -0.0022,0.00339 -0.0017,0.00186 -0.0034,0.00339 -0.0039,0.00339 -4.66e-4,0 5.32e-4,-0.00152 0.0022,-0.00339 z m 0.08551,-0.00572 c 0,-3.515e-4 0.0013,-0.00168 0.003,-0.00296 0.0027,-0.00211 0.0027,-0.00205 6.39e-4,6.394e-4 -0.0022,0.00282 -0.0036,0.00372 -0.0036,0.00232 z m -0.07451,-0.00339 c 0,-3.515e-4 0.0013,-0.00168 0.003,-0.00296 0.0027,-0.00211 0.0027,-0.00205 6.4e-4,6.394e-4 -0.0022,0.00282 -0.0036,0.00372 -0.0036,0.00232 z m 0.08805,-0.00847 c 0,-3.516e-4 0.0013,-0.00169 0.003,-0.00296 0.0027,-0.00211 0.0027,-0.00205 6.39e-4,6.394e-4 -0.0022,0.00282 -0.0036,0.00372 -0.0036,0.00232 z m -0.07451,-0.00339 c 0,-3.515e-4 0.0013,-0.00169 0.003,-0.00296 0.0027,-0.00211 0.0027,-0.00205 6.39e-4,6.394e-4 -0.0022,0.00282 -0.0036,0.00372 -0.0036,0.00232 z m -0.47752,-0.018834 c 0.006,-0.00605 0.01129,-0.011007 0.01175,-0.011007 4.66e-4,0 -0.0041,0.00495 -0.01006,0.011007 -0.006,0.00605 -0.01129,0.011007 -0.01176,0.011007 -4.65e-4,0 0.0041,-0.00495 0.01006,-0.011007 z m 0.565573,0.010367 c 0,-3.515e-4 0.0013,-0.00168 0.003,-0.00296 0.0027,-0.00211 0.0027,-0.00205 6.4e-4,6.394e-4 -0.0022,0.00282 -0.0036,0.00372 -0.0036,0.00232 z m -0.07366,-0.00444 c 0.0017,-0.00186 0.0034,-0.00339 0.0039,-0.00339 4.66e-4,0 -5.32e-4,0.00152 -0.0022,0.00339 -0.0017,0.00186 -0.0034,0.00339 -0.0039,0.00339 -4.66e-4,0 5.32e-4,-0.00152 0.0022,-0.00339 z m 0.08721,-0.00741 c 0,-3.515e-4 0.0013,-0.00168 0.003,-0.00296 0.0027,-0.00211 0.0027,-0.00205 6.39e-4,6.394e-4 -0.0022,0.00282 -0.0036,0.00372 -0.0036,0.00232 z m -0.0762,-0.00169 c 0,-3.516e-4 0.0013,-0.00169 0.003,-0.00296 0.0027,-0.00211 0.0027,-0.00205 6.39e-4,6.394e-4 -0.0022,0.00282 -0.0036,0.00372 -0.0036,0.00232 z m 0.08975,-0.01016 c 0,-3.516e-4 0.0013,-0.00169 0.003,-0.00296 0.0027,-0.00211 0.0027,-0.00205 6.39e-4,6.394e-4 -0.0022,0.00282 -0.0036,0.00372 -0.0036,0.00232 z m -0.0762,-0.00169 c 0,-3.515e-4 0.0013,-0.00168 0.003,-0.00296 0.0027,-0.00211 0.0027,-0.00205 6.39e-4,6.394e-4 -0.0022,0.00282 -0.0036,0.00372 -0.0036,0.00232 z m 0.09229,-0.012907 c 0.0017,-0.00186 0.0034,-0.00339 0.0039,-0.00339 4.66e-4,0 -5.32e-4,0.00152 -0.0022,0.00339 -0.0017,0.00186 -0.0034,0.00339 -0.0039,0.00339 -4.66e-4,0 5.32e-4,-0.00152 0.0022,-0.00339 z m -0.07874,0.00105 c 0,-3.515e-4 0.0013,-0.00169 0.003,-0.00296 0.0027,-0.00211 0.0027,-0.00205 6.4e-4,6.394e-4 -0.0022,0.00282 -0.0036,0.00372 -0.0036,0.00232 z m -0.494453,-0.00666 c 0,-2.914e-4 0.0025,-0.00277 0.0055,-0.0055 l 0.0055,-0.00497 -0.005,0.0055 c -0.0046,0.00513 -0.006,0.00628 -0.006,0.00497 z m 0.508846,-0.00624 c 0.0017,-0.00186 0.0034,-0.00339 0.0039,-0.00339 4.65e-4,0 -5.33e-4,0.00152 -0.0022,0.00339 -0.0017,0.00186 -0.0034,0.00339 -0.0039,0.00339 -4.66e-4,0 5.32e-4,-0.00152 0.0022,-0.00339 z m 0.07789,0 c 0.0017,-0.00186 0.0034,-0.00339 0.0039,-0.00339 4.66e-4,0 -5.32e-4,0.00152 -0.0022,0.00339 -0.0017,0.00186 -0.0034,0.00339 -0.0039,0.00339 -4.65e-4,0 5.33e-4,-0.00152 0.0022,-0.00339 z m -0.06689,-0.00911 c 0,-3.516e-4 0.0013,-0.00169 0.003,-0.00296 0.0027,-0.00211 0.0027,-0.00205 6.4e-4,6.394e-4 -0.0022,0.00282 -0.0036,0.00372 -0.0036,0.00232 z m 0.08043,-0.00275 c 0.0017,-0.00186 0.0034,-0.00339 0.0039,-0.00339 4.65e-4,0 -5.33e-4,0.00152 -0.0022,0.00339 -0.0017,0.00186 -0.0034,0.00339 -0.0039,0.00339 -4.66e-4,0 5.32e-4,-0.00152 0.0022,-0.00339 z m -0.5715,-0.00931 c 0.0032,-0.00326 0.0061,-0.00593 0.0066,-0.00593 4.66e-4,0 -0.0017,0.00267 -0.0049,0.00593 -0.0032,0.00326 -0.0061,0.00593 -0.0066,0.00593 -4.66e-4,0 0.0017,-0.00267 0.0049,-0.00593 z m 0.504614,2.072e-4 c 0,-3.515e-4 0.0013,-0.00168 0.003,-0.00296 0.0027,-0.00211 0.0027,-0.00205 6.39e-4,6.394e-4 -0.0022,0.00282 -0.0036,0.00372 -0.0036,0.00232 z m 0.07959,-0.00169 c 0,-3.515e-4 0.0013,-0.00168 0.003,-0.00296 0.0027,-0.00211 0.0027,-0.00205 6.39e-4,6.394e-4 -0.0022,0.00282 -0.0036,0.00372 -0.0036,0.00232 z m -0.06519,-0.011214 c 0.0017,-0.00186 0.0034,-0.00339 0.0039,-0.00339 4.66e-4,0 -5.32e-4,0.00152 -0.0022,0.00339 -0.0017,0.00186 -0.0034,0.00339 -0.0039,0.00339 -4.66e-4,0 5.32e-4,-0.00152 0.0022,-0.00339 z m -0.1651,-0.039793 c 0.0228,-0.022818 0.04184,-0.041487 0.04231,-0.041487 4.66e-4,0 -0.01781,0.018669 -0.04061,0.041487 -0.0228,0.022818 -0.04184,0.041487 -0.04231,0.041487 -4.66e-4,0 0.01781,-0.018669 0.04061,-0.041487 z m 0.24384,0.039154 c 0,-3.516e-4 0.0013,-0.00169 0.003,-0.00296 0.0027,-0.00211 0.0027,-0.00205 6.4e-4,6.394e-4 -0.0022,0.00282 -0.0036,0.00372 -0.0036,0.00232 z m -0.575733,-0.00666 c 0,-2.914e-4 0.0025,-0.00277 0.0055,-0.0055 l 0.0055,-0.00497 -0.005,0.0055 c -0.0046,0.00513 -0.006,0.00628 -0.006,0.00497 z m 0.508,-0.0018 c 0,-3.515e-4 0.0013,-0.00168 0.003,-0.00296 0.0027,-0.00211 0.0027,-0.00205 6.39e-4,6.394e-4 -0.0022,0.00282 -0.0036,0.00372 -0.0036,0.00232 z m 0.08128,-0.00339 c 0,-3.515e-4 0.0013,-0.00169 0.003,-0.00296 0.0027,-0.00211 0.0027,-0.00205 6.39e-4,6.394e-4 -0.0022,0.00282 -0.0036,0.00372 -0.0036,0.00232 z m -0.06773,-0.00847 c 0,-3.516e-4 0.0013,-0.00169 0.003,-0.00296 0.0027,-0.00211 0.0027,-0.00205 6.39e-4,6.395e-4 -0.0022,0.00282 -0.0036,0.00372 -0.0036,0.00232 z m 0.08128,-0.00339 c 0,-3.515e-4 0.0013,-0.00168 0.003,-0.00296 0.0027,-0.00211 0.0027,-0.00205 6.39e-4,6.394e-4 -0.0022,0.00282 -0.0036,0.00372 -0.0036,0.00232 z m -0.57658,-0.00783 c 0.0017,-0.00186 0.0034,-0.00339 0.0039,-0.00339 4.65e-4,0 -5.33e-4,0.00152 -0.0022,0.00339 -0.0017,0.00186 -0.0034,0.00339 -0.0039,0.00339 -4.66e-4,0 5.32e-4,-0.00152 0.0022,-0.00339 z m 0.508847,-6.395e-4 c 0,-3.515e-4 0.0013,-0.00168 0.003,-0.00296 0.0027,-0.00211 0.0027,-0.00205 6.4e-4,6.394e-4 -0.0022,0.00282 -0.0036,0.00372 -0.0036,0.00232 z m 0.08128,-0.00339 c 0,-3.516e-4 0.0013,-0.00169 0.003,-0.00296 0.0027,-0.00211 0.0027,-0.00205 6.4e-4,6.395e-4 -0.0022,0.00282 -0.0036,0.00372 -0.0036,0.00232 z m -0.06689,-0.00952 c 0.0017,-0.00186 0.0034,-0.00339 0.0039,-0.00339 4.65e-4,0 -5.33e-4,0.00152 -0.0022,0.00339 -0.0017,0.00186 -0.0034,0.00339 -0.0039,0.00339 -4.66e-4,0 5.32e-4,-0.00152 0.0022,-0.00339 z m -0.506306,-0.00169 c 0.0017,-0.00186 0.0034,-0.00339 0.0039,-0.00339 4.66e-4,0 -5.32e-4,0.00152 -0.0022,0.00339 -0.0017,0.00186 -0.0034,0.00339 -0.0039,0.00339 -4.65e-4,0 5.33e-4,-0.00152 0.0022,-0.00339 z m 0.58928,-0.00339 c 0.0017,-0.00186 0.0034,-0.00339 0.0039,-0.00339 4.66e-4,0 -5.32e-4,0.00152 -0.0022,0.00339 -0.0017,0.00186 -0.0034,0.00339 -0.0039,0.00339 -4.65e-4,0 5.33e-4,-0.00152 0.0022,-0.00339 z m -0.07197,-0.00403 c 0,-3.515e-4 0.0013,-0.00168 0.003,-0.00296 0.0027,-0.00211 0.0027,-0.00205 6.4e-4,6.394e-4 -0.0022,0.00282 -0.0036,0.00372 -0.0036,0.00232 z m -0.499533,-0.00867 c 0.0022,-0.00233 0.0044,-0.00423 0.0048,-0.00423 4.66e-4,0 -9.43e-4,0.00191 -0.0031,0.00423 -0.0022,0.00233 -0.0044,0.00423 -0.0048,0.00423 -4.65e-4,0 9.43e-4,-0.00191 0.0031,-0.00423 z m 0.585046,8.467e-4 c 0.0017,-0.00186 0.0034,-0.00339 0.0039,-0.00339 4.65e-4,0 -5.33e-4,0.00152 -0.0022,0.00339 -0.0017,0.00186 -0.0034,0.00339 -0.0039,0.00339 -4.66e-4,0 5.32e-4,-0.00152 0.0022,-0.00339 z m -0.07197,-0.00403 c 0,-3.516e-4 0.0013,-0.00169 0.003,-0.00296 0.0027,-0.00211 0.0027,-0.00205 6.39e-4,6.394e-4 -0.0022,0.00282 -0.0036,0.00372 -0.0036,0.00232 z m -0.496994,-0.011214 c 0.0017,-0.00186 0.0034,-0.00339 0.0039,-0.00339 4.65e-4,0 -5.33e-4,0.00152 -0.0022,0.00339 -0.0017,0.00186 -0.0034,0.00339 -0.0039,0.00339 -4.66e-4,0 5.32e-4,-0.00152 0.0022,-0.00339 z m 0.511387,-0.00169 c 0.0017,-0.00186 0.0034,-0.00339 0.0039,-0.00339 4.66e-4,0 -5.32e-4,0.00152 -0.0022,0.00339 -0.0017,0.00186 -0.0034,0.00339 -0.0039,0.00339 -4.66e-4,0 5.32e-4,-0.00152 0.0022,-0.00339 z m -0.496147,-0.011853 c 0.0017,-0.00186 0.0034,-0.00339 0.0039,-0.00339 4.65e-4,0 -5.33e-4,0.00152 -0.0022,0.00339 -0.0017,0.00186 -0.0034,0.00339 -0.0039,0.00339 -4.66e-4,0 5.32e-4,-0.00152 0.0022,-0.00339 z m 0.507154,0.00275 c 0,-3.516e-4 0.0013,-0.00169 0.003,-0.00296 0.0027,-0.00211 0.0027,-0.00205 6.39e-4,6.393e-4 -0.0022,0.00282 -0.0036,0.00372 -0.0036,0.00232 z m 0.01355,-0.011853 c 0,-3.516e-4 0.0013,-0.00169 0.003,-0.00296 0.0027,-0.00211 0.0027,-0.00205 6.39e-4,6.393e-4 -0.0022,0.00282 -0.0036,0.00372 -0.0036,0.00232 z m -0.506306,-0.00339 c 0,-3.516e-4 0.0013,-0.00169 0.003,-0.00296 0.0027,-0.00211 0.0027,-0.00205 6.39e-4,6.393e-4 -0.0022,0.00282 -0.0036,0.00372 -0.0036,0.00232 z m 0.524933,-0.013754 c 0.0032,-0.00326 0.0061,-0.00593 0.0066,-0.00593 4.65e-4,0 -0.0017,0.00267 -0.0049,0.00593 -0.0032,0.00326 -0.0061,0.00593 -0.0066,0.00593 -4.65e-4,0 0.0017,-0.00267 0.0049,-0.00593 z m -0.51308,0.00359 c 0,-3.516e-4 0.0013,-0.00169 0.003,-0.00296 0.0027,-0.00211 0.0027,-0.00205 6.4e-4,6.393e-4 -0.0022,0.00282 -0.0036,0.00372 -0.0036,0.00232 z m 0.300567,-0.077254 c 0.03818,-0.038185 0.06979,-0.069427 0.07026,-0.069427 4.66e-4,0 -0.03039,0.031242 -0.06856,0.069427 -0.03818,0.038185 -0.06979,0.069427 -0.07026,0.069427 -4.66e-4,0 0.03039,-0.031242 0.06856,-0.069427 z m -0.288714,0.067094 c 0,-3.516e-4 0.0013,-0.00169 0.003,-0.00296 0.0027,-0.00211 0.0027,-0.00205 6.39e-4,6.393e-4 -0.0022,0.00282 -0.0036,0.00372 -0.0036,0.00232 z m 0.01016,-0.00847 c 0,-3.517e-4 0.0013,-0.00169 0.003,-0.00296 0.0027,-0.00211 0.0027,-0.00205 6.39e-4,6.394e-4 -0.0022,0.00282 -0.0036,0.00372 -0.0036,0.00232 z m 0.02201,-0.018627 c 0,-3.516e-4 0.0013,-0.00169 0.003,-0.00296 0.0027,-0.00211 0.0027,-0.00205 6.39e-4,6.393e-4 -0.0022,0.00282 -0.0036,0.00372 -0.0036,0.00232 z m 0.01016,-0.00847 c 0,-3.516e-4 0.0013,-0.00169 0.003,-0.00296 0.0027,-0.00211 0.0027,-0.00205 6.39e-4,6.393e-4 -0.0022,0.00282 -0.0036,0.00372 -0.0036,0.00232 z m 0.331893,-0.051007 c 0.01161,-0.011642 0.0215,-0.021167 0.02196,-0.021167 4.66e-4,0 -0.0087,0.00953 -0.02027,0.021167 -0.01161,0.011642 -0.0215,0.021167 -0.02196,0.021167 -4.66e-4,0 0.0087,-0.00953 0.02027,-0.021167 z m -0.0068,-0.057366 c 0,-3.516e-4 0.0013,-0.00169 0.003,-0.00296 0.0027,-0.00211 0.0027,-0.00205 6.39e-4,6.393e-4 -0.0022,0.00282 -0.0036,0.00372 -0.0036,0.00232 z m 0.145498,-0.020951 -0.0041,-0.00466 0.0047,0.00411 c 0.0044,0.00384 0.0054,0.00521 0.0041,0.00521 -3.04e-4,0 -0.0024,-0.0021 -0.0047,-0.00466 z m 0.327788,-4.233e-4 c 0.0017,-0.00186 0.0034,-0.00339 0.0039,-0.00339 4.65e-4,0 -5.33e-4,0.00152 -0.0022,0.00339 -0.0017,0.00186 -0.0034,0.00339 -0.0039,0.00339 -4.66e-4,0 5.32e-4,-0.00152 0.0022,-0.00339 z m -0.345546,-0.017357 -0.005,-0.0055 0.0055,0.00497 c 0.0051,0.00464 0.0063,0.00603 0.005,0.00603 -2.91e-4,0 -0.0028,-0.00248 -0.0055,-0.0055 z m 0.361633,0.00127 c 0.0022,-0.00233 0.0044,-0.00423 0.0048,-0.00423 4.66e-4,0 -9.43e-4,0.0019 -0.0031,0.00423 -0.0022,0.00233 -0.0044,0.00423 -0.0048,0.00423 -4.66e-4,0 9.43e-4,-0.0019 0.0031,-0.00423 z m -0.530331,-0.024017 c 0.0012,-4.892e-4 0.0027,-4.29e-4 0.0032,1.336e-4 5.62e-4,5.627e-4 -4.38e-4,9.629e-4 -0.0022,8.894e-4 -0.002,-8.13e-5 -0.0024,-4.825e-4 -0.001,-0.00102 z m 0.274968,-0.097903 c 3.3e-5,-0.00279 4.14e-4,-0.00373 8.43e-4,-0.00208 4.29e-4,0.00165 4.01e-4,0.00393 -6.3e-5,0.00508 -4.63e-4,0.00115 -8.15e-4,-2.016e-4 -7.8e-4,-0.003 z m 0.159689,-0.1007533 c 0.05494,-0.054949 0.100277,-0.0999066 0.100743,-0.0999066 4.66e-4,0 -0.04411,0.0449579 -0.09905,0.0999066 -0.05494,0.054949 -0.100277,0.099907 -0.100743,0.099907 -4.65e-4,0 0.04411,-0.044958 0.09905,-0.099907 z m -0.09991,0.032173 c 0.03166,-0.031665 0.05794,-0.057573 0.0584,-0.057573 4.66e-4,0 -0.02505,0.025908 -0.05671,0.057573 -0.03165,0.031665 -0.05794,0.057573 -0.0584,0.057573 -4.66e-4,0 0.02505,-0.025908 0.05671,-0.057573 z m 0.258501,0.04572 c 0,-0.00233 3.84e-4,-0.00328 8.54e-4,-0.00212 4.69e-4,0.00116 4.69e-4,0.00307 0,0.00423 -4.7e-4,0.00116 -8.54e-4,2.117e-4 -8.54e-4,-0.00212 z m -0.04416,-0.00607 c 8.1e-5,-0.00197 4.83e-4,-0.00237 10e-4,-0.00102 4.89e-4,0.00122 4.29e-4,0.00268 -1.34e-4,0.00325 -5.62e-4,5.626e-4 -9.63e-4,-4.375e-4 -8.89e-4,-0.00222 z m -0.44196,-0.027093 c 8.1e-5,-0.00197 4.83e-4,-0.00237 10e-4,-0.00102 4.89e-4,0.00122 4.29e-4,0.00268 -1.34e-4,0.00325 -5.62e-4,5.627e-4 -9.63e-4,-4.374e-4 -8.89e-4,-0.00222 z m 0.485987,-0.00677 c 8.1e-5,-0.00197 4.82e-4,-0.00237 10e-4,-0.00102 4.89e-4,0.00122 4.29e-4,0.00268 -1.34e-4,0.00325 -5.63e-4,5.627e-4 -9.63e-4,-4.375e-4 -8.89e-4,-0.00222 z m -0.0848,-0.011505 c 0,-3.516e-4 0.0013,-0.00169 0.003,-0.00296 0.0027,-0.00211 0.0027,-0.00205 6.39e-4,6.393e-4 -0.0022,0.00282 -0.0036,0.00372 -0.0036,0.00232 z m 0.01312,-0.00726 c 0.0012,-4.698e-4 0.0031,-4.698e-4 0.0042,0 0.0012,4.697e-4 2.12e-4,8.541e-4 -0.0021,8.541e-4 -0.0023,0 -0.0033,-3.844e-4 -0.0021,-8.541e-4 z m -0.34417,-0.13265192 c 0.0036,-0.003725 0.007,-0.006773 0.0075,-0.006773 4.66e-4,0 -0.0021,0.003048 -0.0058,0.006773 -0.0036,0.003725 -0.007,0.006773 -0.0075,0.006773 -4.66e-4,0 0.0021,-0.003048 0.0058,-0.006773 z m 0.01609,-0.014186 c 0,-3.5162e-4 0.0013,-0.001685 0.003,-0.002963 0.0027,-0.002106 0.0027,-0.002046 6.39e-4,6.3934e-4 -0.0022,0.002821 -0.0036,0.003718 -0.0036,0.002324 z m 0.30289,-0.007404 c -0.0021,-0.002686 -0.002,-0.002746 6.39e-4,-6.3934e-4 0.0016,0.001278 0.003,0.002612 0.003,0.002963 0,0.001394 -0.0014,4.9668e-4 -0.0036,-0.002324 z m 0.364067,-0.09144 c -0.0021,-0.002686 -0.002,-0.002746 6.39e-4,-6.3933e-4 0.0028,0.002212 0.0037,0.003603 0.0023,0.003603 -3.51e-4,0 -0.0017,-0.001333 -0.003,-0.002963 z m -0.01185,-0.0135467 c -0.0021,-0.002686 -0.002,-0.002746 6.4e-4,-6.3934e-4 0.0016,0.001278 0.003,0.002612 0.003,0.002963 0,0.001394 -0.0014,4.9668e-4 -0.0036,-0.002324 z m -2.485597,-0.002756 c 0,-3.5162e-4 0.0013,-0.001685 0.003,-0.002963 0.0027,-0.002106 0.0027,-0.002046 6.39e-4,6.3934e-4 -0.0022,0.002821 -0.0036,0.003718 -0.0036,0.002324 z m 2.473744,-0.0107907 c -0.0021,-0.002686 -0.002,-0.002746 6.39e-4,-6.3934e-4 0.0028,0.002212 0.0037,0.003603 0.0023,0.003603 -3.51e-4,0 -0.0017,-0.001333 -0.003,-0.002963 z m -0.01942,-0.0211667 -0.0032,-0.00381 0.0038,0.003226 c 0.0021,0.001774 0.0038,0.003489 0.0038,0.00381 0,0.001355 -0.0014,3.5467e-4 -0.0044,-0.003226 z m -2.415379,-0.0105833 c 0.0022,-0.002328 0.0044,-0.004233 0.0048,-0.004233 4.65e-4,0 -9.43e-4,0.001905 -0.0031,0.004233 -0.0022,0.002328 -0.0044,0.004233 -0.0048,0.004233 -4.66e-4,0 9.43e-4,-0.001905 0.0031,-0.004233 z m 2.373171,-0.0334433 -0.0152,-0.0156633 0.01566,0.0152047 c 0.0086,0.008363 0.01566,0.0154111 0.01566,0.0156633 0,0.001229 -0.002,-6.5694e-4 -0.01612,-0.0152047 z m -2.312211,-0.0275167 c 0.0032,-0.00326 0.0061,-0.005927 0.0066,-0.005927 4.66e-4,0 -0.0017,0.002667 -0.0049,0.005927 -0.0032,0.00326 -0.0061,0.005927 -0.0066,0.005927 -4.65e-4,0 0.0017,-0.002667 0.0049,-0.005927 z m 2.268938,-0.01397 -0.0041,-0.004657 0.0047,0.004105 c 0.0026,0.002258 0.0047,0.004353 0.0047,0.004657 0,0.001328 -0.0014,2.4719e-4 -0.0052,-0.004105 z m -2.242691,-0.0105833 c 0.0017,-0.001863 0.0034,-0.003387 0.0039,-0.003387 4.66e-4,0 -5.32e-4,0.001524 -0.0022,0.003387 -0.0017,0.001863 -0.0034,0.003387 -0.0039,0.003387 -4.65e-4,0 5.33e-4,-0.001524 0.0022,-0.003387 z m 2.207043,-0.02159 c -0.0021,-0.002686 -0.002,-0.002746 6.4e-4,-6.3933e-4 0.0016,0.001278 0.003,0.002612 0.003,0.002963 0,0.001394 -0.0014,4.9667e-4 -0.0036,-0.002324 z m -1.276874,-0.39951337 c 0.0012,-4.8916e-4 0.0027,-4.2901e-4 0.0032,1.336e-4 5.63e-4,5.6268e-4 -4.37e-4,9.629e-4 -0.0022,8.8937e-4 -0.002,-8.128e-5 -0.0024,-4.825e-4 -0.001,-0.001023 z m 0.03387,-0.003387 c 0.0012,-4.8915e-4 0.0027,-4.2901e-4 0.0032,1.336e-4 5.63e-4,5.6268e-4 -4.38e-4,9.629e-4 -0.0022,8.8938e-4 -0.002,-8.128e-5 -0.0024,-4.825e-4 -0.001,-0.001023 z m 0.306494,0 c 0.0012,-4.8915e-4 0.0027,-4.2901e-4 0.0032,1.336e-4 5.63e-4,5.6268e-4 -4.37e-4,9.629e-4 -0.0022,8.8938e-4 -0.002,-8.128e-5 -0.0024,-4.825e-4 -10e-4,-0.001023 z m -0.287973,-0.001658 c 0.0012,-4.6975e-4 0.0031,-4.6975e-4 0.0042,0 0.0012,4.6975e-4 2.11e-4,8.541e-4 -0.0021,8.541e-4 -0.0023,0 -0.0033,-3.8435e-4 -0.0021,-8.541e-4 z m 0.269346,-3.522e-5 c 0.0012,-4.8916e-4 0.0027,-4.2901e-4 0.0032,1.336e-4 5.62e-4,5.6268e-4 -4.38e-4,9.629e-4 -0.0022,8.8937e-4 -0.002,-8.128e-5 -0.0024,-4.8249e-4 -10e-4,-0.001023 z m -0.247332,-0.001658 c 0.0012,-4.6975e-4 0.0031,-4.6975e-4 0.0042,0 0.0012,4.6974e-4 2.12e-4,8.541e-4 -0.0021,8.541e-4 -0.0023,0 -0.0033,-3.8436e-4 -0.0021,-8.541e-4 z m 0.22352,0 c 0.0012,-4.6975e-4 0.0031,-4.6975e-4 0.0042,0 0.0012,4.6974e-4 2.12e-4,8.541e-4 -0.0021,8.541e-4 -0.0023,0 -0.0033,-3.8436e-4 -0.0021,-8.541e-4 z m -0.195548,-0.001745 c 0.0016,-4.2933e-4 0.0039,-4.011e-4 0.0051,6.282e-5 0.0011,4.6386e-4 -2.02e-4,8.1512e-4 -0.003,7.8061e-4 -0.0028,-3.454e-5 -0.0037,-4.1402e-4 -0.0021,-8.4343e-4 z m 0.165914,6.77e-6 c 0.0016,-4.259e-4 0.0043,-4.259e-4 0.0059,0 0.0016,4.2593e-4 2.96e-4,7.7442e-4 -0.003,7.7442e-4 -0.0033,0 -0.0046,-3.4849e-4 -0.003,-7.7442e-4 z m -0.132029,-0.001773 c 0.0045,-3.4997e-4 0.01131,-3.4574e-4 0.01524,1.016e-5 0.0039,3.5513e-4 2.88e-4,6.4147e-4 -0.0081,6.3631e-4 -0.0084,-5.08e-6 -0.0116,-2.9573e-4 -0.0071,-6.4569e-4 z m 0.08043,5.08e-6 c 0.004,-3.577e-4 0.01008,-3.5267e-4 0.01355,1.186e-5 0.0035,3.6384e-4 2.09e-4,6.5652e-4 -0.0072,6.5037e-4 -0.0075,-6.77e-6 -0.01029,-3.0385e-4 -0.0063,-6.6156e-4 z"
             id="path7349" /><path
             style="fill:#ff6600;fill-opacity:1;stroke-width:0.00169333"
             d="m -13.483365,3.5850259 c -0.344487,-0.013506 -0.672961,-0.1311488 -0.94488,-0.3384091 -0.06248,-0.047625 -0.109851,-0.089249 -0.16941,-0.1488687 -0.08262,-0.082701 -0.149978,-0.1655897 -0.213274,-0.2624402 -0.238925,-0.3655862 -0.324104,-0.8126741 -0.23618,-1.2396671 0.07582,-0.3681898 0.272839,-0.69813459 0.560444,-0.93854165 0.157321,-0.13150395 0.337532,-0.23242347 0.5334,-0.29870788 0.228148,-0.0772086 0.473377,-0.10356495 0.71374,-0.0767102 0.35354,0.0394997 0.686391,0.1923692 0.945299,0.43415003 0.285861,0.26695124 0.467535,0.6229587 0.515079,1.0093497 0.01388,0.1128007 0.01598,0.2356346 0.006,0.35052 -0.02544,0.2926212 -0.131239,0.5779868 -0.303547,0.8187266 -0.09178,0.1282333 -0.205583,0.246283 -0.331113,0.3434747 -0.230074,0.1781366 -0.502405,0.292958 -0.787685,0.332107 -0.0919,0.012611 -0.20231,0.018371 -0.287866,0.015017 z m -0.670976,-0.7333552 c -0.003,-0.00256 -0.03705,-0.034375 -0.07578,-0.070697 -0.03872,-0.036322 -0.07133,-0.066245 -0.07246,-0.066494 -0.0023,-5.148e-4 -0.126016,0.1225878 -0.124599,0.1240053 0.0011,0.00108 0.244922,0.017315 0.264723,0.017629 l 0.01348,2.135e-4 z m 0.06237,-0.00867 c 0.0036,-0.00292 0.0038,-0.00368 0.0019,-0.00978 -0.0042,-0.013962 -0.02917,-0.1252444 -0.02917,-0.1299143 0,-0.0027 8.7e-4,-0.00782 0.0019,-0.011367 0.0041,-0.013638 0.0081,-0.016442 0.06793,-0.046923 0.223231,-0.113817 0.410309,-0.2341345 0.595381,-0.3829131 0.02269,-0.018237 0.04274,-0.034241 0.04457,-0.035564 0.0031,-0.00227 6.01e-4,-0.00513 -0.04462,-0.050377 -0.0329,-0.032916 -0.04909,-0.047971 -0.05157,-0.047971 -0.002,0 -0.06025,0.00876 -0.129477,0.019473 -0.06922,0.01071 -0.126353,0.019473 -0.12696,0.019473 -6.07e-4,0 -0.09551,0.095811 -0.210895,0.2129134 -0.115385,0.1171025 -0.228677,0.2320768 -0.251759,0.2554985 l -0.04197,0.042585 0.08345,0.08408 c 0.0459,0.046244 0.08432,0.08405 0.08538,0.084015 0.0011,-3.55e-5 0.0037,-0.00149 0.0058,-0.00323 z m 0.833828,-0.7540865 c 0.222683,-0.2156245 0.342932,-0.3603 0.40366,-0.4856551 0.01079,-0.022278 0.02819,-0.069356 0.02694,-0.072923 -2.78e-4,-7.989e-4 -0.143587,0.1240372 -0.318464,0.2774136 l -0.317958,0.2788662 0.05121,0.051226 0.0512,0.051226 0.01699,-0.016467 c 0.0093,-0.00906 0.04823,-0.046715 0.08641,-0.083686 z m -0.358148,0.00372 c 0.03827,-0.00466 0.07075,-0.00847 0.07218,-0.00847 0.0014,0 -0.01209,-0.015178 -0.03005,-0.033728 -0.02792,-0.028853 -0.03305,-0.033442 -0.03543,-0.03175 -0.0072,0.00512 -0.08125,0.082411 -0.07893,0.082411 0.0015,0 0.03396,-0.00381 0.07223,-0.00847 z M -13.18001,1.769226 c 0.176817,-0.1537924 0.325149,-0.2835772 0.329626,-0.2884106 0.03597,-0.038828 0.02448,-0.097873 -0.02369,-0.1217402 -0.01284,-0.00636 -0.01584,-0.00716 -0.02932,-0.00781 -0.01842,-8.805e-4 -0.03394,0.00327 -0.04792,0.012803 -0.0096,0.00657 -0.622607,0.6129537 -0.622637,0.6159406 -2.9e-5,0.00282 0.06843,0.070376 0.0705,0.06958 0.0011,-4.089e-4 0.14661,-0.1265739 0.323427,-0.2803664 z m -0.607427,0.2232333 c 0.07038,-0.015049 0.128308,-0.027647 0.128726,-0.027995 9.85e-4,-8.205e-4 -0.02413,-0.026133 -0.06776,-0.068276 l -0.03482,-0.033642 -0.07862,0.078637 c -0.04324,0.043251 -0.07792,0.078637 -0.07706,0.078637 8.62e-4,0 0.05915,-0.012313 0.129533,-0.027362 z M -13.333504,1.67695 c 0.317108,-0.3158147 0.347085,-0.3453073 0.357902,-0.3521178 0.01173,-0.00739 0.02305,-0.012124 0.03891,-0.016294 0.0064,-0.00167 0.01198,-0.00344 0.01247,-0.00393 0.0013,-0.00127 -0.02096,-0.01536 -0.0318,-0.020139 -0.02034,-0.00897 -0.03633,-0.012155 -0.06083,-0.012108 -0.0323,6.25e-5 -0.04578,0.004 -0.08845,0.02583 -0.03571,0.01827 -0.05822,0.031645 -0.09104,0.054105 -0.07496,0.051294 -0.181217,0.1405478 -0.305647,0.2567361 -0.05705,0.053267 -0.212512,0.2041164 -0.219644,0.2131209 l -0.0052,0.00663 0.05992,0.059942 0.05992,0.059942 0.03813,-0.037621 c 0.02097,-0.020692 0.126901,-0.1260323 0.235402,-0.23409 z m 0.710353,-0.3078944 c 0.0093,-0.00237 0.02252,-0.00638 0.02935,-0.00891 l 0.01242,-0.00461 -0.08565,-0.08576 -0.08565,-0.08576 v -0.00919 -0.00919 l 0.05883,-0.059323 c 0.03236,-0.032628 0.08277,-0.083451 0.112028,-0.11294103 l 0.0532,-0.0536183 -0.01592,-0.0104526 c -0.02716,-0.0178316 -0.05405,-0.0291825 -0.08498,-0.0358603 -0.01412,-0.003049 -0.02297,-0.00376 -0.04781,-0.003836 -0.03096,-9.567e-5 -0.0416,0.001161 -0.06659,0.007862 -0.07694,0.0206344 -0.140417,0.0811793 -0.165276,0.15765063 -0.0092,0.028331 -0.0118,0.045602 -0.01174,0.078233 6e-5,0.031031 0.0028,0.048845 0.01167,0.07631 0.02558,0.07908 0.09685,0.1433008 0.177418,0.1598786 0.02352,0.00484 0.02338,0.00483 0.05875,0.0043 0.02878,-4.285e-4 0.0352,-0.00104 0.04995,-0.0048 z m 0.118579,-0.066361 c 0.03031,-0.030225 0.05119,-0.066738 0.06197,-0.1083734 0.01449,-0.055954 0.0096,-0.1113374 -0.01441,-0.1639813 -0.0061,-0.013318 -0.02375,-0.0411769 -0.03267,-0.051522 l -0.0048,-0.00553 -0.0999,0.0999326 -0.0999,0.099933 0.07861,0.078628 0.07861,0.078628 0.0077,-0.00539 c 0.0043,-0.00296 0.01538,-0.013011 0.02472,-0.022324 z m -0.02542,-0.09784 c -0.0043,-0.00607 -0.0031,-0.014199 0.0035,-0.024858 0.01176,-0.019046 0.01372,-0.035391 0.0068,-0.056594 -0.0046,-0.01402 -0.0042,-0.018354 0.0021,-0.025179 0.0035,-0.0038 0.0058,-0.00466 0.01224,-0.00466 0.01046,0 0.01544,0.00409 0.02001,0.016454 0.0103,0.027876 0.0063,0.060963 -0.01018,0.085059 -0.0071,0.010401 -0.01184,0.013123 -0.02301,0.0133 -0.0073,1.152e-4 -0.0093,-5.216e-4 -0.01143,-0.00353 z"
             id="path7351" /></g></g><path
         style="fill:#ff6600;fill-opacity:1;stroke-width:0.0021614"
         d="m -23.604838,0.342077 c 1.05e-4,-0.002514 6.17e-4,-0.003025 0.0013,-0.001302 6.25e-4,0.001557 5.47e-4,0.003421 -1.7e-4,0.004148 -7.19e-4,7.1821e-4 -0.0012,-5.5841e-4 -0.0011,-0.002834 z"
         id="path8678" /><path
         style="fill:#ff6600;fill-opacity:1;stroke-width:0.0021614"
         d="m -23.604845,0.51714291 c 1.05e-4,-0.002514 6.17e-4,-0.003025 0.0013,-0.001302 6.25e-4,0.001557 5.47e-4,0.003421 -1.7e-4,0.004148 -7.19e-4,7.1821e-4 -0.0012,-5.584e-4 -0.0011,-0.002834 z"
         id="path8662" /><path
         style="fill:#ff6600;fill-opacity:1;stroke-width:0.0021614"
         d="m -23.602683,0.55820851 c 1.04e-4,-0.002514 6.16e-4,-0.003025 0.0013,-0.001302 6.24e-4,0.001557 5.48e-4,0.003421 -1.71e-4,0.004148 -7.19e-4,7.1821e-4 -0.0012,-5.5853e-4 -0.0011,-0.002834 z"
         id="path8658" /><path
         style="fill:#ff6600;fill-opacity:1;stroke-width:0.0021614"
         d="m -22.987997,1.924847 -0.01508,-0.01567 0.01568,0.015071 c 0.01455,0.013998 0.01666,0.016267 0.01508,0.016267 -3.3e-4,0 -0.0074,-0.00705 -0.01568,-0.01567 z"
         id="path8602" /><path
         style="fill:#ff6600;fill-opacity:1;stroke-width:0.0021614"
         d="m -22.914449,-1.1350294 c 0.0022,-0.00238 0.0043,-0.00432 0.005,-0.00432 5.94e-4,0 -6.79e-4,0.00195 -0.0028,0.00432 -0.0022,0.00238 -0.0043,0.00432 -0.005,0.00432 -5.93e-4,0 6.8e-4,-0.00195 0.0028,-0.00432 z"
         id="path8568" /><path
         style="fill:#ff6600;fill-opacity:1;stroke-width:0.0021614"
         d="m -22.947952,-1.1036904 c 0.0041,-0.00416 0.0078,-0.00757 0.0084,-0.00757 5.95e-4,0 -0.0022,0.0034 -0.0063,0.00757 -0.0041,0.00416 -0.0078,0.00757 -0.0084,0.00757 -5.94e-4,0 0.0022,-0.0034 0.0063,-0.00757 z"
         id="path8564" /><path
         style="fill:#ff6600;fill-opacity:1;stroke-width:0.0021614"
         d="m -23.025767,-1.0258834 c 0.0028,-0.00297 0.0056,-0.0054 0.0061,-0.0054 5.93e-4,0 -0.0012,0.00243 -0.004,0.0054 -0.0028,0.00297 -0.0056,0.0054 -0.0061,0.0054 -5.94e-4,0 0.0012,-0.00243 0.004,-0.0054 z"
         id="path8560" /><path
         style="fill:#ff6600;fill-opacity:1;stroke-width:0.0021614"
         d="m -23.075478,-0.97158642 c 0,-4.488e-4 0.0017,-0.00215 0.0038,-0.00378 0.0034,-0.00269 0.0034,-0.00261 8.16e-4,8.16e-4 -0.0028,0.0036 -0.0046,0.00475 -0.0046,0.00297 z"
         id="path8554" /><path
         style="fill:#ff6600;fill-opacity:1;stroke-width:0.0021614"
         d="m -23.591858,0.18429916 c 1.05e-4,-0.002514 6.16e-4,-0.003025 0.0013,-0.001302 6.26e-4,0.001557 5.48e-4,0.003421 -1.69e-4,0.004148 -7.19e-4,7.1821e-4 -0.0012,-5.5841e-4 -0.0011,-0.002834 z"
         id="path8396" /><path
         style="fill:#ff6600;fill-opacity:1;stroke-width:0.0021614"
         d="m -23.596191,0.22320856 c 1.03e-4,-0.002514 6.15e-4,-0.003025 0.0013,-0.001302 6.24e-4,0.001557 5.48e-4,0.003421 -1.71e-4,0.004148 -7.19e-4,7.1821e-4 -0.0012,-5.5841e-4 -0.0011,-0.002834 z"
         id="path8382" /><path
         style="fill:#ff6600;fill-opacity:1;stroke-width:0.0021614"
         d="m -23.598346,0.247003 c 1.05e-4,-0.002514 6.16e-4,-0.003025 0.0013,-0.001302 6.26e-4,0.001557 5.48e-4,0.003421 -1.69e-4,0.004148 -7.19e-4,7.1821e-4 -0.0012,-5.5854e-4 -0.0011,-0.002834 z"
         id="path8370" /><path
         style="fill:#ff6600;fill-opacity:1;stroke-width:0.0021614"
         d="m -23.600336,0.2741821 c 0,-0.002974 4.9e-4,-0.004186 0.0011,-0.002706 6e-4,0.001481 6e-4,0.003918 0,0.005399 -6e-4,0.001481 -0.0011,2.7008e-4 -0.0011,-0.002706 z"
         id="path8356" /><path
         style="fill:#ff6600;fill-opacity:1;stroke-width:0.0021614"
         d="m -23.602507,0.30661381 c 0,-0.002974 4.91e-4,-0.004186 0.0011,-0.002706 6e-4,0.001481 6e-4,0.003918 0,0.005399 -5.99e-4,0.001481 -0.0011,2.7007e-4 -0.0011,-0.002706 z"
         id="path8342" /><path
         style="fill:#ff6600;fill-opacity:1;stroke-width:0.0021614"
         d="m -23.604463,0.35306591 c 2.3e-5,-0.004761 4.66e-4,-0.006446 9.83e-4,-0.003752 5.17e-4,0.002693 4.98e-4,0.006573 -4.3e-5,0.008641 -5.41e-4,0.002068 -9.64e-4,-1.3402e-4 -9.4e-4,-0.004888 z"
         id="path8320" /><path
         style="fill:#ff6600;fill-opacity:1;stroke-width:0.0021614"
         d="m -23.604524,0.50758313 c 0,-0.004161 4.45e-4,-0.005858 9.89e-4,-0.003778 5.44e-4,0.00208 5.44e-4,0.005488 0,0.007569 -5.44e-4,0.00208 -9.89e-4,3.7831e-4 -9.89e-4,-0.003778 z"
         id="path8256" /><path
         style="fill:#ff6600;fill-opacity:1;stroke-width:0.0021614"
         d="m -23.602438,0.54973263 c 4.4e-5,-0.003561 5.28e-4,-0.004761 0.0011,-0.002655 5.49e-4,0.002106 5.13e-4,0.005016 -7.9e-5,0.006484 -5.93e-4,0.001468 -10e-4,-2.5719e-4 -9.97e-4,-0.003829 z"
         id="path8240" /><path
         style="fill:#ff6600;fill-opacity:1;stroke-width:0.0021614"
         d="m -23.600347,0.58537743 c 0,-0.002974 4.9e-4,-0.004186 0.0011,-0.002706 6e-4,0.001481 6e-4,0.003918 0,0.005399 -6e-4,0.001481 -0.0011,2.7008e-4 -0.0011,-0.002706 z"
         id="path8220" /><path
         style="fill:#ff6600;fill-opacity:1;stroke-width:0.0021614"
         d="m -23.598357,0.61221777 c 1.04e-4,-0.002514 6.16e-4,-0.003025 0.0013,-0.001302 6.25e-4,0.001557 5.48e-4,0.003421 -1.7e-4,0.004148 -7.18e-4,7.182e-4 -0.0012,-5.5854e-4 -0.0011,-0.002834 z"
         id="path8212" /><path
         style="fill:#ff6600;fill-opacity:1;stroke-width:0.0021614"
         d="m -23.596195,0.63598747 c 1.03e-4,-0.002514 6.15e-4,-0.003025 0.0013,-0.001302 6.25e-4,0.001557 5.48e-4,0.003421 -1.71e-4,0.004148 -7.18e-4,7.182e-4 -0.0012,-5.5854e-4 -0.0011,-0.002834 z"
         id="path8208" /><path
         style="fill:#ff6600;fill-opacity:1;stroke-width:0.0021614"
         d="m -23.062788,1.8459473 c -0.0027,-0.00343 -0.0026,-0.00351 8.17e-4,-8.161e-4 0.0036,0.00282 0.0047,0.00459 0.0029,0.00459 -4.5e-4,0 -0.0022,-0.0017 -0.0038,-0.00378 z"
         id="path8150" /><path
         style="fill:#ff6600;fill-opacity:1;stroke-width:0.0021614"
         d="m -23.03685,1.8740443 c -0.0027,-0.00343 -0.0026,-0.00351 8.17e-4,-8.162e-4 0.0036,0.00282 0.0047,0.00459 0.0029,0.00459 -4.5e-4,0 -0.0022,-0.0017 -0.0038,-0.00378 z"
         id="path8146" /><path
         style="fill:#ff6600;fill-opacity:1;stroke-width:0.0021614"
         d="m -22.937305,1.9734643 -0.0052,-0.00595 0.006,0.00525 c 0.0033,0.00288 0.006,0.00555 0.006,0.00595 0,0.0017 -0.0018,3.156e-4 -0.0066,-0.00525 z"
         id="path8140" /></g></g></svg>
