<?xml version="1.0" encoding="UTF-8" standalone="no"?>
<!-- Created with Inkscape (http://www.inkscape.org/) -->

<svg
   width="16"
   height="16"
   viewBox="0 0 4.2333332 4.2333333"
   version="1.1"
   id="svg5"
   xml:space="preserve"
   sodipodi:docname="postman_logo.svg"
   inkscape:version="1.2.1 (9c6d41e4, 2022-07-14)"
   xmlns:inkscape="http://www.inkscape.org/namespaces/inkscape"
   xmlns:sodipodi="http://sodipodi.sourceforge.net/DTD/sodipodi-0.dtd"
   xmlns="http://www.w3.org/2000/svg"
   xmlns:svg="http://www.w3.org/2000/svg"><sodipodi:namedview
     id="namedview10918"
     pagecolor="#ffffff"
     bordercolor="#000000"
     borderopacity="0.25"
     inkscape:showpageshadow="2"
     inkscape:pageopacity="0.0"
     inkscape:pagecheckerboard="0"
     inkscape:deskcolor="#d1d1d1"
     showgrid="false"
     inkscape:zoom="2.6074563"
     inkscape:cx="-5.5609754"
     inkscape:cy="10.546677"
     inkscape:window-width="1680"
     inkscape:window-height="997"
     inkscape:window-x="3439"
     inkscape:window-y="93"
     inkscape:window-maximized="0"
     inkscape:current-layer="g2691" /><defs
     id="defs2" /><g
     id="g815"
     transform="translate(7.6595131,0.16138922)"><g
       id="g2691"
       transform="translate(8.1259393,-1.9672735e-4)"><path
         style="fill:#ff6600;fill-opacity:1;stroke-width:0.0021614"
         d="m -13.744652,4.0695148 c -0.439731,-0.017238 -0.859021,-0.1673931 -1.20612,-0.431932 -0.07975,-0.060787 -0.140222,-0.1139139 -0.216248,-0.1900101 -0.105462,-0.1055563 -0.191444,-0.2113521 -0.27224,-0.3349683 -0.304982,-0.4666197 -0.413711,-1.037265 -0.301478,-1.582262 0.09678,-0.4699428 0.348273,-0.89107131 0.715395,-1.19791741 0.200817,-0.1678464 0.430852,-0.2966561 0.680873,-0.3812589 0.291227,-0.098546 0.604256,-0.1321862 0.911074,-0.09791 0.451287,0.050416 0.876164,0.2455324 1.206655,0.5541319 0.364895,0.340726 0.596798,0.79511981 0.657487,1.28829401 0.01772,0.1439743 0.0204,0.3007546 0.0077,0.4473898 -0.03247,0.3734901 -0.167524,0.7377195 -0.387471,1.0449902 -0.117156,0.1636719 -0.262423,0.3143459 -0.422659,0.4383975 -0.293685,0.2273665 -0.641309,0.37392 -1.005463,0.4238882 -0.117309,0.016096 -0.258245,0.023448 -0.367455,0.019167 z"
         id="path7351" /><g
         id="g6088"
         transform="translate(8.5176804,0.64517781)"><path
           style="fill:#ffffff;fill-opacity:1;stroke-width:0.0021614"
           d="m -21.036574,0.45754871 c -0.0055,-0.00775 -0.004,-0.018123 0.0045,-0.031728 0.01501,-0.02431 0.01751,-0.045172 0.0087,-0.072234 -0.0059,-0.017895 -0.0054,-0.023426 0.0027,-0.032138 0.0045,-0.00485 0.0074,-0.00595 0.01562,-0.00595 0.01335,0 0.01971,0.00522 0.02554,0.021001 0.01315,0.03558 0.008,0.077811 -0.01299,0.10856591 -0.0091,0.013275 -0.01511,0.01675 -0.02937,0.016976 -0.0093,1.471e-4 -0.01187,-6.657e-4 -0.01459,-0.00451 z"
           id="path6032" /><path
           style="fill:#ffffff;fill-opacity:1;stroke-width:0.0021614"
           d="m -21.004124,0.58242781 c 0.03869,-0.038578 0.06534,-0.085182 0.0791,-0.1383235 0.0185,-0.071417 0.01225,-0.14210672 -0.01839,-0.20929922 -0.0078,-0.016999 -0.03032,-0.052557 -0.0417,-0.065761 l -0.0061,-0.00706 -0.12752,0.12755 -0.12752,0.12755051 0.100344,0.10035771 0.100344,0.1003576 0.0098,-0.00688 c 0.0055,-0.00378 0.01963,-0.016607 0.03155,-0.028494 z"
           id="path6030" /><path
           style="fill:#ffffff;fill-opacity:1;stroke-width:0.0021614"
           d="m -21.155487,0.66712881 c 0.01187,-0.00303 0.02875,-0.00814 0.03746,-0.011372 l 0.01585,-0.00588 -0.10933,-0.1094607 -0.10933,-0.1094606 v -0.01173 -0.01173 l 0.0751,-0.075717 c 0.04131,-0.041645 0.105654,-0.1065136 0.143001,-0.1441535 l 0.06791,-0.068436 -0.02032,-0.013341 c -0.03467,-0.02276 -0.06899,-0.037247 -0.108475,-0.045771 -0.01802,-0.00389 -0.02932,-0.0048 -0.06103,-0.0049 -0.03952,-1.221e-4 -0.0531,0.00148 -0.085,0.010035 -0.09821,0.026337 -0.179239,0.1036141 -0.210971,0.2012191 -0.01174,0.036161 -0.01506,0.058205 -0.01499,0.099854 7.6e-5,0.039607 0.0036,0.062344 0.0149,0.097399 0.03265,0.1009345 0.123627,0.1829034 0.226471,0.2040627 0.03002,0.00618 0.02984,0.00616 0.07499,0.00549 0.03674,-5.47e-4 0.04493,-0.00133 0.06376,-0.00613 z"
           id="path6028" /><path
           style="fill:#ffffff;fill-opacity:1;stroke-width:0.0021614"
           d="m -22.062238,1.060113 c 0.404782,-0.40309329 0.443047,-0.44073649 0.456855,-0.44942919 0.01497,-0.00943 0.02942,-0.015475 0.04967,-0.020797 0.0082,-0.00213 0.01529,-0.00439 0.01592,-0.00502 0.0017,-0.00162 -0.02676,-0.019605 -0.04059,-0.025705 -0.02596,-0.011449 -0.04637,-0.015514 -0.07765,-0.015454 -0.04123,7.98e-5 -0.05844,0.00511 -0.112905,0.032968 -0.04558,0.023319 -0.07432,0.04039 -0.11621,0.069057 -0.09568,0.06547 -0.23132,0.1793897 -0.390152,0.3276878 -0.07282,0.067988 -0.271267,0.26052609 -0.280371,0.27201909 l -0.0066,0.00846 0.07649,0.076508 0.07649,0.076508 0.04867,-0.048018 c 0.02677,-0.026411 0.161987,-0.1608626 0.300486,-0.2987832 z"
           id="path6026" /><path
           style="fill:#ffffff;fill-opacity:1;stroke-width:0.0021614"
           d="m -22.641674,1.4628166 c 0.08984,-0.019208 0.163783,-0.035287 0.164316,-0.035732 0.0013,-0.00105 -0.0308,-0.033355 -0.08649,-0.087145 l -0.04445,-0.042939 -0.100357,0.1003692 c -0.0552,0.055204 -0.09946,0.1003691 -0.09837,0.1003691 0.0011,0 0.0755,-0.015716 0.165346,-0.034924 z"
           id="path6024" /><path
           style="fill:#ffffff;fill-opacity:1;stroke-width:0.0021614"
           d="m -21.866306,1.1778905 c 0.225703,-0.19629459 0.415046,-0.36194669 0.420761,-0.36811589 0.04592,-0.049559 0.03125,-0.1249212 -0.03024,-0.1553844 -0.01639,-0.00812 -0.02022,-0.00914 -0.03743,-0.00997 -0.02351,-0.00112 -0.04332,0.00417 -0.06117,0.016341 -0.01225,0.00839 -0.794745,0.78234989 -0.794783,0.78616219 -3.7e-5,0.0036 0.08735,0.089825 0.08999,0.088809 0.0014,-5.219e-4 0.187144,-0.1615539 0.412847,-0.3578486 z"
           id="path6022" /><path
           style="fill:#ffffff;fill-opacity:1;stroke-width:0.0021614"
           d="m -22.423209,1.5906759 c 0.04885,-0.00595 0.09031,-0.010811 0.09214,-0.010811 0.0018,0 -0.01543,-0.019373 -0.03836,-0.043049 -0.03564,-0.036827 -0.04219,-0.042684 -0.04523,-0.040524 -0.0092,0.00654 -0.103714,0.1051861 -0.100752,0.1051861 0.0019,0 0.04335,-0.00486 0.0922,-0.010811 z"
           id="path6020" /><path
           style="fill:#ffffff;fill-opacity:1;stroke-width:0.0021614"
           d="m -21.966041,1.5859259 c 0.28425,-0.2752146 0.437745,-0.4598727 0.515263,-0.61987099 0.01377,-0.028435 0.03598,-0.088523 0.03439,-0.093076 -3.55e-4,-0.00102 -0.183286,0.15831619 -0.406513,0.35407979 l -0.405866,0.3559337 0.06537,0.065383 0.06536,0.065383 0.02169,-0.021018 c 0.01187,-0.011564 0.06156,-0.059625 0.110301,-0.1068134 z"
           id="path6018" /><path
           style="fill:#ffffff;fill-opacity:1;stroke-width:0.0021614"
           d="m -23.030405,2.548412 c 0.0046,-0.00373 0.0049,-0.0047 0.0024,-0.012483 -0.0054,-0.017821 -0.03723,-0.159857 -0.03723,-0.1658175 0,-0.00345 0.0011,-0.00998 0.0024,-0.014508 0.0052,-0.017407 0.01034,-0.020986 0.08671,-0.059891 0.28495,-0.1452715 0.523751,-0.29884 0.759991,-0.4887351 0.02896,-0.023277 0.05456,-0.043704 0.05689,-0.045393 0.004,-0.0029 7.67e-4,-0.00655 -0.05696,-0.064299 -0.042,-0.042013 -0.06266,-0.061228 -0.06583,-0.061228 -0.0026,0 -0.07691,0.011181 -0.165275,0.024855 -0.08836,0.01367 -0.161287,0.024855 -0.162062,0.024855 -7.75e-4,0 -0.121916,0.1222894 -0.269203,0.2717542 -0.147286,0.149465 -0.291901,0.2962136 -0.321365,0.3261081 l -0.05357,0.054354 0.106522,0.1073164 c 0.05859,0.059024 0.107633,0.1072781 0.108986,0.1072334 0.0014,-4.53e-5 0.0047,-0.0019 0.0074,-0.00412 z"
           id="path6016" /><path
           style="fill:#ffffff;fill-opacity:1;stroke-width:0.0021614"
           d="m -23.110015,2.559478 c -0.0038,-0.00327 -0.04729,-0.043875 -0.09673,-0.090235 -0.04943,-0.04636 -0.09105,-0.084553 -0.09249,-0.08487 -0.0029,-6.571e-4 -0.160857,0.1564662 -0.159048,0.1582754 0.0014,0.00138 0.312638,0.0221 0.337913,0.022501 l 0.01721,2.725e-4 z"
           id="path6014" /></g></g></g></svg>
