<?xml version="1.0" encoding="UTF-8" standalone="no"?>
<!-- Created with Inkscape (http://www.inkscape.org/) -->

<svg
   width="16"
   height="16"
   viewBox="0 0 4.2333332 4.2333333"
   version="1.1"
   id="svg5"
   xml:space="preserve"
   sodipodi:docname="vscode_logo.svg"
   inkscape:version="1.2.1 (9c6d41e4, 2022-07-14)"
   xmlns:inkscape="http://www.inkscape.org/namespaces/inkscape"
   xmlns:sodipodi="http://sodipodi.sourceforge.net/DTD/sodipodi-0.dtd"
   xmlns="http://www.w3.org/2000/svg"
   xmlns:svg="http://www.w3.org/2000/svg"><sodipodi:namedview
     id="namedview10918"
     pagecolor="#ffffff"
     bordercolor="#000000"
     borderopacity="0.25"
     inkscape:showpageshadow="2"
     inkscape:pageopacity="0.0"
     inkscape:pagecheckerboard="0"
     inkscape:deskcolor="#d1d1d1"
     showgrid="false"
     inkscape:zoom="14.75"
     inkscape:cx="1.4576271"
     inkscape:cy="8.0338983"
     inkscape:window-width="1680"
     inkscape:window-height="997"
     inkscape:window-x="0"
     inkscape:window-y="92"
     inkscape:window-maximized="0"
     inkscape:current-layer="g2691" /><defs
     id="defs2" /><g
     id="g815"
     transform="translate(7.6595131,0.16138922)"><g
       id="g2691"
       transform="translate(8.1259393,-1.9672735e-4)"><rect
         style="fill:#333333;fill-opacity:1;stroke:none;stroke-width:0.264583"
         id="rect9168"
         width="4.2333331"
         height="4.2333331"
         x="-15.785452"
         y="-0.16119249" /><path
         style="fill:#ff6600;fill-opacity:1;stroke-width:0.0021614"
         d="m -23.604838,0.342077 c 1.05e-4,-0.002514 6.17e-4,-0.003025 0.0013,-0.001302 6.25e-4,0.001557 5.47e-4,0.003421 -1.7e-4,0.004148 -7.19e-4,7.1821e-4 -0.0012,-5.5841e-4 -0.0011,-0.002834 z"
         id="path8678" /><path
         style="fill:#ff6600;fill-opacity:1;stroke-width:0.0021614"
         d="m -23.604845,0.51714291 c 1.05e-4,-0.002514 6.17e-4,-0.003025 0.0013,-0.001302 6.25e-4,0.001557 5.47e-4,0.003421 -1.7e-4,0.004148 -7.19e-4,7.1821e-4 -0.0012,-5.584e-4 -0.0011,-0.002834 z"
         id="path8662" /><path
         style="fill:#ff6600;fill-opacity:1;stroke-width:0.0021614"
         d="m -23.602683,0.55820851 c 1.04e-4,-0.002514 6.16e-4,-0.003025 0.0013,-0.001302 6.24e-4,0.001557 5.48e-4,0.003421 -1.71e-4,0.004148 -7.19e-4,7.1821e-4 -0.0012,-5.5853e-4 -0.0011,-0.002834 z"
         id="path8658" /><path
         style="fill:#ff6600;fill-opacity:1;stroke-width:0.0021614"
         d="m -22.987997,1.924847 -0.01508,-0.01567 0.01568,0.015071 c 0.01455,0.013998 0.01666,0.016267 0.01508,0.016267 -3.3e-4,0 -0.0074,-0.00705 -0.01568,-0.01567 z"
         id="path8602" /><path
         style="fill:#ff6600;fill-opacity:1;stroke-width:0.0021614"
         d="m -22.914449,-1.1350294 c 0.0022,-0.00238 0.0043,-0.00432 0.005,-0.00432 5.94e-4,0 -6.79e-4,0.00195 -0.0028,0.00432 -0.0022,0.00238 -0.0043,0.00432 -0.005,0.00432 -5.93e-4,0 6.8e-4,-0.00195 0.0028,-0.00432 z"
         id="path8568" /><path
         style="fill:#ff6600;fill-opacity:1;stroke-width:0.0021614"
         d="m -22.947952,-1.1036904 c 0.0041,-0.00416 0.0078,-0.00757 0.0084,-0.00757 5.95e-4,0 -0.0022,0.0034 -0.0063,0.00757 -0.0041,0.00416 -0.0078,0.00757 -0.0084,0.00757 -5.94e-4,0 0.0022,-0.0034 0.0063,-0.00757 z"
         id="path8564" /><path
         style="fill:#ff6600;fill-opacity:1;stroke-width:0.0021614"
         d="m -23.025767,-1.0258834 c 0.0028,-0.00297 0.0056,-0.0054 0.0061,-0.0054 5.93e-4,0 -0.0012,0.00243 -0.004,0.0054 -0.0028,0.00297 -0.0056,0.0054 -0.0061,0.0054 -5.94e-4,0 0.0012,-0.00243 0.004,-0.0054 z"
         id="path8560" /><path
         style="fill:#ff6600;fill-opacity:1;stroke-width:0.0021614"
         d="m -23.075478,-0.97158642 c 0,-4.488e-4 0.0017,-0.00215 0.0038,-0.00378 0.0034,-0.00269 0.0034,-0.00261 8.16e-4,8.16e-4 -0.0028,0.0036 -0.0046,0.00475 -0.0046,0.00297 z"
         id="path8554" /><path
         style="fill:#ff6600;fill-opacity:1;stroke-width:0.0021614"
         d="m -23.591858,0.18429916 c 1.05e-4,-0.002514 6.16e-4,-0.003025 0.0013,-0.001302 6.26e-4,0.001557 5.48e-4,0.003421 -1.69e-4,0.004148 -7.19e-4,7.1821e-4 -0.0012,-5.5841e-4 -0.0011,-0.002834 z"
         id="path8396" /><path
         style="fill:#ff6600;fill-opacity:1;stroke-width:0.0021614"
         d="m -23.596191,0.22320856 c 1.03e-4,-0.002514 6.15e-4,-0.003025 0.0013,-0.001302 6.24e-4,0.001557 5.48e-4,0.003421 -1.71e-4,0.004148 -7.19e-4,7.1821e-4 -0.0012,-5.5841e-4 -0.0011,-0.002834 z"
         id="path8382" /><path
         style="fill:#ff6600;fill-opacity:1;stroke-width:0.0021614"
         d="m -23.598346,0.247003 c 1.05e-4,-0.002514 6.16e-4,-0.003025 0.0013,-0.001302 6.26e-4,0.001557 5.48e-4,0.003421 -1.69e-4,0.004148 -7.19e-4,7.1821e-4 -0.0012,-5.5854e-4 -0.0011,-0.002834 z"
         id="path8370" /><path
         style="fill:#ff6600;fill-opacity:1;stroke-width:0.0021614"
         d="m -23.600336,0.2741821 c 0,-0.002974 4.9e-4,-0.004186 0.0011,-0.002706 6e-4,0.001481 6e-4,0.003918 0,0.005399 -6e-4,0.001481 -0.0011,2.7008e-4 -0.0011,-0.002706 z"
         id="path8356" /><path
         style="fill:#ff6600;fill-opacity:1;stroke-width:0.0021614"
         d="m -23.602507,0.30661381 c 0,-0.002974 4.91e-4,-0.004186 0.0011,-0.002706 6e-4,0.001481 6e-4,0.003918 0,0.005399 -5.99e-4,0.001481 -0.0011,2.7007e-4 -0.0011,-0.002706 z"
         id="path8342" /><path
         style="fill:#ff6600;fill-opacity:1;stroke-width:0.0021614"
         d="m -23.604463,0.35306591 c 2.3e-5,-0.004761 4.66e-4,-0.006446 9.83e-4,-0.003752 5.17e-4,0.002693 4.98e-4,0.006573 -4.3e-5,0.008641 -5.41e-4,0.002068 -9.64e-4,-1.3402e-4 -9.4e-4,-0.004888 z"
         id="path8320" /><path
         style="fill:#ff6600;fill-opacity:1;stroke-width:0.0021614"
         d="m -23.604524,0.50758313 c 0,-0.004161 4.45e-4,-0.005858 9.89e-4,-0.003778 5.44e-4,0.00208 5.44e-4,0.005488 0,0.007569 -5.44e-4,0.00208 -9.89e-4,3.7831e-4 -9.89e-4,-0.003778 z"
         id="path8256" /><path
         style="fill:#ff6600;fill-opacity:1;stroke-width:0.0021614"
         d="m -23.602438,0.54973263 c 4.4e-5,-0.003561 5.28e-4,-0.004761 0.0011,-0.002655 5.49e-4,0.002106 5.13e-4,0.005016 -7.9e-5,0.006484 -5.93e-4,0.001468 -10e-4,-2.5719e-4 -9.97e-4,-0.003829 z"
         id="path8240" /><path
         style="fill:#ff6600;fill-opacity:1;stroke-width:0.0021614"
         d="m -23.600347,0.58537743 c 0,-0.002974 4.9e-4,-0.004186 0.0011,-0.002706 6e-4,0.001481 6e-4,0.003918 0,0.005399 -6e-4,0.001481 -0.0011,2.7008e-4 -0.0011,-0.002706 z"
         id="path8220" /><path
         style="fill:#ff6600;fill-opacity:1;stroke-width:0.0021614"
         d="m -23.598357,0.61221777 c 1.04e-4,-0.002514 6.16e-4,-0.003025 0.0013,-0.001302 6.25e-4,0.001557 5.48e-4,0.003421 -1.7e-4,0.004148 -7.18e-4,7.182e-4 -0.0012,-5.5854e-4 -0.0011,-0.002834 z"
         id="path8212" /><path
         style="fill:#ff6600;fill-opacity:1;stroke-width:0.0021614"
         d="m -23.596195,0.63598747 c 1.03e-4,-0.002514 6.15e-4,-0.003025 0.0013,-0.001302 6.25e-4,0.001557 5.48e-4,0.003421 -1.71e-4,0.004148 -7.18e-4,7.182e-4 -0.0012,-5.5854e-4 -0.0011,-0.002834 z"
         id="path8208" /><path
         style="fill:#ff6600;fill-opacity:1;stroke-width:0.0021614"
         d="m -23.062788,1.8459473 c -0.0027,-0.00343 -0.0026,-0.00351 8.17e-4,-8.161e-4 0.0036,0.00282 0.0047,0.00459 0.0029,0.00459 -4.5e-4,0 -0.0022,-0.0017 -0.0038,-0.00378 z"
         id="path8150" /><path
         style="fill:#ff6600;fill-opacity:1;stroke-width:0.0021614"
         d="m -23.03685,1.8740443 c -0.0027,-0.00343 -0.0026,-0.00351 8.17e-4,-8.162e-4 0.0036,0.00282 0.0047,0.00459 0.0029,0.00459 -4.5e-4,0 -0.0022,-0.0017 -0.0038,-0.00378 z"
         id="path8146" /><path
         style="fill:#ff6600;fill-opacity:1;stroke-width:0.0021614"
         d="m -22.937305,1.9734643 -0.0052,-0.00595 0.006,0.00525 c 0.0033,0.00288 0.006,0.00555 0.006,0.00595 0,0.0017 -0.0018,3.156e-4 -0.0066,-0.00525 z"
         id="path8140" /><g
         id="g8897"
         transform="matrix(0.87940671,0,0,0.87940671,-1.6483434,0.23608074)"
         style="fill:#0179cb;fill-opacity:1"><path
           style="fill:#0179cb;fill-opacity:1;stroke-width:0.00529167"
           d="m -13.43066,3.2810366 c -0.117845,-0.1178719 -0.213073,-0.2143125 -0.211618,-0.2143125 0.0015,0 0.09906,0.096441 0.216909,0.2143125 0.117845,0.1178718 0.213073,0.2143124 0.211618,0.2143124 -0.0015,0 -0.09906,-0.096441 -0.216909,-0.2143124 z m -0.455084,-2.2013333 c 0.173152,-0.17316974 0.316012,-0.3148541 0.317467,-0.3148541 0.0015,0 -0.139024,0.14168436 -0.312175,0.3148541 -0.173152,0.1731698 -0.316012,0.3148542 -0.317467,0.3148542 -0.0015,0 0.139024,-0.1416844 0.312175,-0.3148542 z"
           id="path8907" /><path
           style="fill:#0179cb;fill-opacity:1;stroke-width:0.00529167"
           d="m -12.999414,3.7109844 -0.216934,-0.2182812 0.218281,0.2169342 c 0.202882,0.2016292 0.22066,0.2196283 0.216934,0.2196283 -7.41e-4,0 -0.09897,-0.098227 -0.218281,-0.2182813 z m -1.860057,-1.8282707 -0.08725,-0.088635 0.08864,0.087252 c 0.04875,0.047989 0.08864,0.087875 0.08864,0.088635 0,0.00378 -0.009,-0.00491 -0.09002,-0.087252 z m 1.603436,-1.43271865 c 0.173151,-0.17316979 0.316011,-0.31485415 0.317466,-0.31485415 0.0015,0 -0.139023,0.14168436 -0.312175,0.31485415 -0.173151,0.17316978 -0.316011,0.31485415 -0.317466,0.31485415 -0.0015,0 0.139023,-0.14168437 0.312175,-0.31485415 z"
           id="path8905" /><path
           style="fill:#0179cb;fill-opacity:1;stroke-width:0.00529167"
           d="m -12.711067,3.9993803 -0.07136,-0.07276 0.07276,0.071364 c 0.04002,0.03925 0.07276,0.071992 0.07276,0.072761 0,0.00379 -0.0079,-0.00377 -0.07416,-0.071365 z m -2.296596,-2.2648332 -0.06077,-0.062177 0.06218,0.060768 c 0.0342,0.033422 0.06218,0.061402 0.06218,0.062177 0,0.00381 -0.0071,-0.00301 -0.06359,-0.060768 z m 2.214648,-1.74757286 c 0.08145,-0.08149166 0.149287,-0.14816666 0.150742,-0.14816666 0.0015,0 -0.064,0.066675 -0.14545,0.14816666 -0.08145,0.08149166 -0.149286,0.14816666 -0.150742,0.14816666 -0.0015,0 0.064,-0.066675 0.14545,-0.14816666 z"
           id="path8903" /><path
           style="fill:#0179cb;fill-opacity:1;stroke-width:0.00529167"
           d="m -15.288035,1.9501825 c 0,-0.2706688 0.0018,-0.492125 0.004,-0.492125 0.0022,0 0.05281,0.049411 0.112448,0.1098021 l 0.10843,0.109802 -0.109802,-0.1084307 -0.109802,-0.1084307 v 0.48842 c 0,0.367843 0.0015,0.487488 0.0061,0.4846444 0.0038,-0.00234 0.0047,-0.00145 0.0023,0.00233 -0.0021,0.00336 -0.006,0.00611 -0.0088,0.00611 -0.0031,0 -0.005,-0.1881463 -0.005,-0.4921249 z m 0.06085,0.4392083 c 0.0053,-0.00582 0.01077,-0.010583 0.01222,-0.010583 0.0015,0 -0.0017,0.00476 -0.0069,0.010583 -0.0053,0.00582 -0.01077,0.010583 -0.01222,0.010583 -0.0015,0 0.0017,-0.00476 0.0069,-0.010583 z m 0.05821,-0.052917 c 0.0053,-0.00582 0.01077,-0.010583 0.01222,-0.010583 0.0015,0 -0.0017,0.00476 -0.0069,0.010583 -0.0053,0.00582 -0.01077,0.010583 -0.01222,0.010583 -0.0015,0 0.0017,-0.00476 0.0069,-0.010583 z m 0.05027,-0.044331 c 0,-0.0011 0.0042,-0.00527 0.0093,-0.00926 0.0084,-0.00658 0.0086,-0.00639 0.002,0.002 -0.0069,0.00881 -0.01126,0.011618 -0.01126,0.00726 z m 0.05821,-0.052917 c 0,-0.0011 0.0042,-0.00527 0.0093,-0.00926 0.0084,-0.00658 0.0086,-0.00639 0.002,0.002 -0.0069,0.00881 -0.01126,0.011618 -0.01126,0.00726 z m 0.05821,-0.052917 c 0,-0.0011 0.0042,-0.00527 0.0093,-0.00926 0.0084,-0.00658 0.0086,-0.00639 0.002,0.002 -0.0069,0.00881 -0.01126,0.011618 -0.01126,0.00726 z m 0.05821,-0.052917 c 0,-0.0011 0.0042,-0.00527 0.0093,-0.00926 0.0084,-0.00658 0.0086,-0.00639 0.002,0.002 -0.0069,0.00881 -0.01126,0.011618 -0.01126,0.00726 z m 0.05821,-0.052917 c 0,-0.0011 0.0042,-0.00527 0.0093,-0.00926 0.0084,-0.00658 0.0086,-0.00639 0.002,0.002 -0.0069,0.00881 -0.01126,0.011618 -0.01126,0.00726 z m 0.05821,-0.052917 c 0,-0.0011 0.0042,-0.00527 0.0093,-0.00926 0.0084,-0.00658 0.0086,-0.00639 0.002,0.002 -0.0069,0.00881 -0.01126,0.011618 -0.01126,0.00726 z"
           id="path8901" /><path
           style="fill:#0179cb;fill-opacity:1;stroke-width:0.00529167"
           d="m -13.457119,3.2492866 c -0.449652,-0.4496594 -0.818743,-0.8175222 -0.820202,-0.8174729 -0.0015,4.93e-5 -0.11338,0.086374 -0.248714,0.1918336 -0.135335,0.1054592 -0.369176,0.2876209 -0.519648,0.4048038 l -0.273585,0.2130598 -0.227397,-0.1125288 -0.227396,-0.1125289 -4.04e-4,-1.0592083 -4.04e-4,-1.05920827 0.225433,-0.11447541 c 0.210217,-0.10674853 0.2262,-0.11395958 0.236802,-0.10683287 0.0063,0.004203 0.239969,0.18766408 0.519369,0.40769035 l 0.508,0.4000479 0.820215,-0.82018367 c 0.451118,-0.45110103 0.822593,-0.82023491 0.8255,-0.82029752 0.0029,-6.26e-5 0.246376,0.0957827 0.541043,0.21298958 l 0.535758,0.2131034 -0.0013,1.68190691 -0.0013,1.6819069 -0.531311,0.2164784 c -0.292221,0.1190631 -0.533921,0.2164784 -0.537111,0.2164784 -0.0032,0 -0.373696,-0.3679031 -0.823349,-0.8175624 z m 0.781879,-1.6743169 -0.0014,-0.3805044 -0.489211,0.3791815 c -0.269066,0.2085498 -0.488465,0.3815627 -0.487553,0.3844732 9.12e-4,0.00291 0.221057,0.1747599 0.489211,0.3818879 l 0.487553,0.3765963 0.0014,-0.3805651 c 7.46e-4,-0.2093107 7.46e-4,-0.551792 0,-0.7610694 z m -2.355121,0.6389587 c 0.136523,-0.1241533 0.251503,-0.2296845 0.255511,-0.234514 0.0065,-0.00784 -0.02014,-0.036217 -0.24896,-0.2650688 -0.140936,-0.1409585 -0.258042,-0.2562881 -0.260236,-0.2562881 -0.0022,0 -0.004,0.2216547 -0.004,0.4925659 0,0.2867939 0.002,0.4918291 0.0047,0.4908021 0.0026,-9.701e-4 0.116426,-0.1033438 0.252949,-0.2274971 z"
           id="path8899" /></g></g></g></svg>
