<svg width="16" height="16" version="1.1" viewBox="0 0 4.2333 4.2333" xmlns="http://www.w3.org/2000/svg">
  <g transform="translate(7.6595 .16139)">
    <g transform="translate(8.1259 -.00019673)">
      <g stroke-width=".0021614">
        <path
          d="m-23.605 0.34208c1.05e-4 -0.002514 6.17e-4 -0.003025 0.0013-0.001302 6.25e-4 0.001557 5.47e-4 0.003421-1.7e-4 0.004148-7.19e-4 7.1821e-4 -0.0012-5.5841e-4 -0.0011-0.002834z" />
        <path
          d="m-23.605 0.51714c1.05e-4 -0.002514 6.17e-4 -0.003025 0.0013-0.001302 6.25e-4 0.001557 5.47e-4 0.003421-1.7e-4 0.004148-7.19e-4 7.1821e-4 -0.0012-5.584e-4 -0.0011-0.002834z" />
        <path
          d="m-23.603 0.55821c1.04e-4 -0.002514 6.16e-4 -0.003025 0.0013-0.001302 6.24e-4 0.001557 5.48e-4 0.003421-1.71e-4 0.004148-7.19e-4 7.1821e-4 -0.0012-5.5853e-4 -0.0011-0.002834z" />
        <path
          d="m-22.988 1.9248-0.01508-0.01567 0.01568 0.015071c0.01455 0.013998 0.01666 0.016267 0.01508 0.016267-3.3e-4 0-0.0074-0.00705-0.01568-0.01567z" />
        <path
          d="m-22.914-1.135c0.0022-0.00238 0.0043-0.00432 5e-3 -0.00432 5.94e-4 0-6.79e-4 0.00195-0.0028 0.00432-0.0022 0.00238-0.0043 0.00432-5e-3 0.00432-5.93e-4 0 6.8e-4 -0.00195 0.0028-0.00432z" />
        <path
          d="m-22.948-1.1037c0.0041-0.00416 0.0078-0.00757 0.0084-0.00757 5.95e-4 0-0.0022 0.0034-0.0063 0.00757-0.0041 0.00416-0.0078 0.00757-0.0084 0.00757-5.94e-4 0 0.0022-0.0034 0.0063-0.00757z" />
        <path
          d="m-23.026-1.0259c0.0028-0.00297 0.0056-0.0054 0.0061-0.0054 5.93e-4 0-0.0012 0.00243-4e-3 0.0054s-0.0056 0.0054-0.0061 0.0054c-5.94e-4 0 0.0012-0.00243 4e-3 -0.0054z" />
        <path
          d="m-23.075-0.97159c0-4.488e-4 0.0017-0.00215 0.0038-0.00378 0.0034-0.00269 0.0034-0.00261 8.16e-4 8.16e-4 -0.0028 0.0036-0.0046 0.00475-0.0046 0.00297z" />
        <path
          d="m-23.592 0.1843c1.05e-4 -0.002514 6.16e-4 -0.003025 0.0013-0.001302 6.26e-4 0.001557 5.48e-4 0.003421-1.69e-4 0.004148-7.19e-4 7.1821e-4 -0.0012-5.5841e-4 -0.0011-0.002834z" />
        <path
          d="m-23.596 0.22321c1.03e-4 -0.002514 6.15e-4 -0.003025 0.0013-0.001302 6.24e-4 0.001557 5.48e-4 0.003421-1.71e-4 0.004148-7.19e-4 7.1821e-4 -0.0012-5.5841e-4 -0.0011-0.002834z" />
        <path
          d="m-23.598 0.247c1.05e-4 -0.002514 6.16e-4 -0.003025 0.0013-0.001302 6.26e-4 0.001557 5.48e-4 0.003421-1.69e-4 0.004148-7.19e-4 7.1821e-4 -0.0012-5.5854e-4 -0.0011-0.002834z" />
        <path
          d="m-23.6 0.27418c0-0.002974 4.9e-4 -0.004186 0.0011-0.002706 6e-4 0.001481 6e-4 0.003918 0 0.005399s-0.0011 2.7008e-4 -0.0011-0.002706z" />
        <path
          d="m-23.603 0.30661c0-0.002974 4.91e-4 -0.004186 0.0011-0.002706 6e-4 0.001481 6e-4 0.003918 0 0.005399-5.99e-4 0.001481-0.0011 2.7007e-4 -0.0011-0.002706z" />
        <path
          d="m-23.604 0.35307c2.3e-5 -0.004761 4.66e-4 -0.006446 9.83e-4 -0.003752 5.17e-4 0.002693 4.98e-4 0.006573-4.3e-5 0.008641s-9.64e-4 -1.3402e-4 -9.4e-4 -0.004888z" />
        <path
          d="m-23.605 0.50758c0-0.004161 4.45e-4 -0.005858 9.89e-4 -0.003778s5.44e-4 0.005488 0 0.007569c-5.44e-4 0.00208-9.89e-4 3.7831e-4 -9.89e-4 -0.003778z" />
        <path
          d="m-23.602 0.54973c4.4e-5 -0.003561 5.28e-4 -0.004761 0.0011-0.002655 5.49e-4 0.002106 5.13e-4 0.005016-7.9e-5 0.006484-5.93e-4 0.001468-1e-3 -2.5719e-4 -9.97e-4 -0.003829z" />
        <path
          d="m-23.6 0.58538c0-0.002974 4.9e-4 -0.004186 0.0011-0.002706 6e-4 0.001481 6e-4 0.003918 0 0.005399s-0.0011 2.7008e-4 -0.0011-0.002706z" />
        <path
          d="m-23.598 0.61222c1.04e-4 -0.002514 6.16e-4 -0.003025 0.0013-0.001302 6.25e-4 0.001557 5.48e-4 0.003421-1.7e-4 0.004148-7.18e-4 7.182e-4 -0.0012-5.5854e-4 -0.0011-0.002834z" />
        <path
          d="m-23.596 0.63599c1.03e-4 -0.002514 6.15e-4 -0.003025 0.0013-0.001302 6.25e-4 0.001557 5.48e-4 0.003421-1.71e-4 0.004148-7.18e-4 7.182e-4 -0.0012-5.5854e-4 -0.0011-0.002834z" />
        <path
          d="m-23.063 1.8459c-0.0027-0.00343-0.0026-0.00351 8.17e-4 -8.161e-4 0.0036 0.00282 0.0047 0.00459 0.0029 0.00459-4.5e-4 0-0.0022-0.0017-0.0038-0.00378z" />
        <path
          d="m-23.037 1.874c-0.0027-0.00343-0.0026-0.00351 8.17e-4 -8.162e-4 0.0036 0.00282 0.0047 0.00459 0.0029 0.00459-4.5e-4 0-0.0022-0.0017-0.0038-0.00378z" />
        <path
          d="m-22.937 1.9735-0.0052-0.00595 6e-3 0.00525c0.0033 0.00288 6e-3 0.00555 6e-3 0.00595 0 0.0017-0.0018 3.156e-4 -0.0066-0.00525z" />
      </g>
      <path
        d="m-15.65 3.8138c0.03338-0.041491 0.37231-0.43037 0.75318-0.86418 0.38087-0.43381 0.69249-0.79962 0.69249-0.81293 0-0.013303-0.11759-0.17808-0.26132-0.36616-0.14372-0.18809-0.49944-0.65303-0.79048-1.0332-0.29104-0.38018-0.52917-0.69671-0.52917-0.70341 0-0.006696 0.29822-0.012173 0.6627-0.012173h0.6627l0.46434 0.61409c0.25539 0.33775 0.47164 0.61339 0.48056 0.61253 9e-3 -8.624e-4 0.25607-0.27721 0.54922-0.61409l0.533-0.61253h0.64547l-1.4305 1.6332 0.06858 0.096787c0.06302 0.088929 0.38601 0.51695 1.2641 1.6751 0.18325 0.2417 0.33318 0.4446 0.33318 0.4509 0 0.00629-0.29104 0.011366-0.64676 0.011265l-0.64676-1.813e-4 -1.0351-1.3557-0.24026 0.2697c-0.13214 0.14834-0.39901 0.45304-0.59304 0.67712l-0.35278 0.40742-0.64402 0.0017981zm3.2642-0.4276c-0.04321-0.061083-0.42157-0.56379-0.84078-1.1171-0.41922-0.55334-0.91065-1.2029-1.0921-1.4434l-0.32987-0.4373-0.18945-4.0828e-4c-0.1042-2.2455e-4 -0.18946 0.005951-0.18946 0.013723 0 0.018952 0.37003 0.50564 2.2095 2.9061l0.14518 0.18945h0.3655z"
        stroke-width=".026132" />
    </g>
  </g>
</svg>