<svg width="24" height="24" version="1.1" viewBox="0 0 6.35 6.35" xmlns="http://www.w3.org/2000/svg">
  <g stroke-width=".0020671">
    <path
      d="m-7.4736 3.8373c-0.00257-0.00328-0.0025-0.00335 7.804e-4 -7.805e-4 0.00344 0.0027 0.00454 0.0044 0.00284 0.0044-4.292e-4 0-0.00206-0.00163-0.00362-0.00362zm2.9629-0.23966c0.00201-5.24e-4 0.0048-4.897e-4 0.0062 7.65e-5s-2.46e-4 9.949e-4 -0.00366 9.529e-4c-0.00341-4.13e-5 -0.00456-5.054e-4 -0.00254-0.00103zm0.10129 0c0.00201-5.24e-4 0.0048-4.897e-4 0.0062 7.65e-5s-2.46e-4 9.949e-4 -0.00366 9.529e-4c-0.00341-4.13e-5 -0.00456-5.054e-4 -0.00254-0.00103zm-0.1477-0.00205c0.00149-5.97e-4 0.00327-5.237e-4 0.00396 1.634e-4 6.869e-4 6.869e-4 -5.341e-4 0.00118-0.00271 0.00109-0.00241-9.93e-5 -0.0029-5.891e-4 -0.00125-0.00125zm0.19224 0c0.00149-5.97e-4 0.00327-5.237e-4 0.00396 1.634e-4 6.869e-4 6.869e-4 -5.341e-4 0.00118-0.00271 0.00109-0.00241-9.93e-5 -0.0029-5.891e-4 -0.00125-0.00125zm-0.15503-0.32659c0.00149-5.973e-4 0.00327-5.238e-4 0.00396 1.633e-4 6.869e-4 6.868e-4 -5.341e-4 0.00118-0.00271 0.00109-0.00241-9.92e-5 -0.0029-5.891e-4 -0.00125-0.00125zm0.088884 0c0.00149-5.973e-4 0.00327-5.238e-4 0.00396 1.633e-4 6.869e-4 6.868e-4 -5.341e-4 0.00118-0.00271 0.00109-0.00241-9.92e-5 -0.0029-5.891e-4 -0.00125-0.00125zm0.70971-0.18669c0-0.00284 4.693e-4 -4e-3 0.00104-0.00258 5.734e-4 0.00142 5.734e-4 0.00375 0 0.00517s-0.00104 2.584e-4 -0.00104-0.00258zm-1.633e-4 -0.071486c9.93e-5 -0.00241 5.892e-4 -0.0029 0.00125-0.00125 5.971e-4 0.00149 5.237e-4 0.00328-1.633e-4 0.00396-6.869e-4 6.869e-4 -0.00118-5.342e-4 -0.00109-0.00271zm-0.49945-0.059256-0.00817-0.00878 0.00879 0.00817c0.00817 0.0076 0.00973 0.0094 0.00817 0.0094-3.376e-4 0-0.00429-0.00395-0.00879-0.00879zm-0.61305-0.3483c-0.00257-0.00328-0.0025-0.00335 7.806e-4 -7.806e-4 0.00199 0.00156 0.00362 0.00319 0.00362 0.00362 0 0.0017-0.0017 6.062e-4 -0.0044-0.00284zm-0.15874-0.34072c9.92e-5 -0.00241 5.891e-4 -0.0029 0.00125-0.00125 5.972e-4 0.00149 5.238e-4 0.00328-1.633e-4 0.00396-6.869e-4 6.867e-4 -0.00118-5.343e-4 -0.00109-0.00271zm1.633e-4 -0.06494c0-0.00284 4.692e-4 -4e-3 0.00104-0.00258 5.734e-4 0.00142 5.734e-4 0.00375 0 0.00517s-0.00104 2.582e-4 -0.00104-0.00258zm1.1913-0.25218c0-0.1063 2.511e-4 -0.14978 5.583e-4 -0.096635 3.07e-4 0.053149 3.07e-4 0.14012 0 0.19327-3.072e-4 0.053149-5.583e-4 0.00966-5.583e-4 -0.096635zm-0.483 0.064734c0.00149-5.971e-4 0.00328-5.238e-4 0.00396 1.634e-4 6.868e-4 6.869e-4 -5.342e-4 0.00118-0.00271 0.00109-0.00241-9.92e-5 -0.0029-5.891e-4 -0.00125-0.00125zm0.082682 0c0.00149-5.971e-4 0.00328-5.238e-4 0.00396 1.634e-4 6.869e-4 6.869e-4 -5.341e-4 0.00118-0.00271 0.00109-0.00241-9.92e-5 -0.0029-5.891e-4 -0.00125-0.00125zm-0.15089-0.3266c0.00149-5.971e-4 0.00328-5.237e-4 0.00396 1.631e-4 6.868e-4 6.869e-4 -5.342e-4 0.00118-0.00271 0.00109-0.00241-9.92e-5 -0.0029-5.89e-4 -0.00125-0.00125zm0.039145-0.00202c0.00142-5.734e-4 0.00375-5.734e-4 0.00517 0 0.00142 5.735e-4 2.584e-4 0.00104-0.00258 0.00104-0.00284 0-4e-3 -4.691e-4 -0.00258-0.00104zm0.10751-9.3e-5c0.00257-4.944e-4 0.00629-4.756e-4 0.00827 4.18e-5 0.00198 5.173e-4 -1.281e-4 9.219e-4 -0.00468 8.988e-4 -0.00455-2.29e-5 -0.00616-4.462e-4 -0.00359-9.406e-4z"
      fill="#fff" />
    <path
      d="m-3.5046 3.836c0-4.291e-4 0.00163-0.00206 0.00362-0.00362 0.00328-0.00257 0.00335-0.0025 7.805e-4 7.805e-4 -0.0027 0.00344-0.0044 0.00454-0.0044 0.00284zm-3.9752-0.0049c-0.00257-0.00328-0.0025-0.00335 7.805e-4 -7.806e-4 0.00344 0.0027 0.00454 0.0044 0.00284 0.0044-4.293e-4 0-0.00206-0.00163-0.00362-0.00362zm-0.014469-0.014469c-0.00257-0.00328-0.0025-0.00335 7.805e-4 -7.805e-4 0.00344 0.0027 0.00454 0.0044 0.00284 0.0044-4.293e-4 0-0.00206-0.00163-0.00362-0.00362zm4.0062 0.00284c0-4.291e-4 0.00163-0.00206 0.00362-0.00362 0.00328-0.00257 0.00335-0.0025 7.805e-4 7.806e-4 -0.0027 0.00344-0.0044 0.00454-0.0044 0.00284zm-1.0351-0.22183c0.00199-5.201e-4 0.00525-5.201e-4 0.00723 0 0.00199 5.199e-4 3.618e-4 9.453e-4 -0.00362 9.453e-4 -0.00398 0-0.00561-4.254e-4 -0.00362-9.453e-4zm0.12406 0c0.00201-5.239e-4 0.0048-4.897e-4 0.0062 7.66e-5 0.0014 5.66e-4 -2.46e-4 9.948e-4 -0.00366 9.529e-4 -0.00341-4.14e-5 -0.00456-5.054e-4 -0.00254-0.00103zm-0.16424-0.00205c0.00149-5.973e-4 0.00327-5.238e-4 0.00396 1.632e-4 6.869e-4 6.869e-4 -5.341e-4 0.00118-0.00271 0.00109-0.00241-9.92e-5 -0.0029-5.891e-4 -0.00125-0.00125zm0.20464 0c0.00149-5.973e-4 0.00327-5.238e-4 0.00396 1.632e-4 6.869e-4 6.869e-4 -5.341e-4 0.00118-0.00271 0.00109-0.00241-9.92e-5 -0.0029-5.891e-4 -0.00125-0.00125zm-1.7437-0.77631-5.139e-4 -0.75602-0.52813-0.0010651 0.26413-5.087e-4c0.20978-4.041e-4 0.26433 2.28e-5 0.26511 0.00207 5.395e-4 0.00142 7.415e-4 0.3421 4.491e-4 0.75706l-5.317e-4 0.75448zm1.5885 0.44976c0.00142-5.735e-4 0.00375-5.735e-4 0.00517 0 0.00142 5.733e-4 2.584e-4 0.00104-0.00258 0.00104-0.00284 0-4e-3 -4.691e-4 -0.00258-0.00104zm0.074414 0c0.00142-5.735e-4 0.00375-5.735e-4 0.00517 0 0.00142 5.733e-4 2.584e-4 0.00104-0.00258 0.00104-0.00284 0-4e-3 -4.691e-4 -0.00258-0.00104zm0.71795-0.26442c9.93e-5 -0.00241 5.892e-4 -0.0029 0.00125-0.00125 5.971e-4 0.00149 5.237e-4 0.00327-1.633e-4 0.00396-6.869e-4 6.869e-4 -0.00118-5.342e-4 -0.00109-0.00271zm-0.13872-0.3166-0.013376-0.013953 0.013953 0.013376c0.01296 0.012424 0.014898 0.014529 0.013376 0.014529-3.171e-4 0-0.0066-0.00628-0.013953-0.013952zm-1.011-0.12196c-0.00257-0.00328-0.0025-0.00335 7.805e-4 -7.804e-4 0.00344 0.0027 0.00454 0.0044 0.00284 0.0044-4.292e-4 0-0.00206-0.00163-0.00362-0.00362zm0.37731-0.24495-0.00394-0.00465 0.00465 0.00394c0.00437 0.0037 0.00559 0.00536 0.00394 0.00536-3.923e-4 0-0.00249-0.00209-0.00465-0.00465zm-0.011436-0.011369c-0.00257-0.00328-0.0025-0.00335 7.805e-4 -7.806e-4 0.00344 0.0027 0.00454 0.0044 0.00284 0.0044-4.291e-4 0-0.00206-0.00163-0.00362-0.00362zm-0.48724-0.039791c0-0.00284 4.692e-4 -4e-3 0.00104-0.00258 5.734e-4 0.00142 5.734e-4 0.00375 0 0.00517s-0.00104 2.582e-4 -0.00104-0.00258zm-1.633e-4 -0.079754c9.92e-5 -0.00241 5.891e-4 -0.0029 0.00125-0.00125 5.972e-4 0.00149 5.238e-4 0.00328-1.633e-4 0.00396-6.869e-4 6.868e-4 -0.00118-5.343e-4 -0.00109-0.00271zm-0.55552-0.1285c0.073701-3.009e-4 0.19369-3.009e-4 0.26665 3e-7 0.072956 3.009e-4 0.012655 5.472e-4 -0.134 5.472e-4 -0.14666 0-0.20635-2.464e-4 -0.13265-5.475e-4zm1.2702-0.051538c0.00149-5.972e-4 0.00327-5.238e-4 0.00396 1.633e-4 6.869e-4 6.869e-4 -5.341e-4 0.00118-0.00271 0.00109-0.00241-9.92e-5 -0.0029-5.891e-4 -0.00125-0.00125zm0.07028 0c0.00149-5.972e-4 0.00328-5.238e-4 0.00396 1.633e-4 6.868e-4 6.869e-4 -5.342e-4 0.00118-0.00271 0.00109-0.00241-9.92e-5 -0.0029-5.891e-4 -0.00125-0.00125zm0.059945-0.3266c0.00149-5.971e-4 0.00327-5.237e-4 0.00396 1.631e-4 6.869e-4 6.869e-4 -5.341e-4 0.00118-0.00271 0.00109-0.00241-9.92e-5 -0.0029-5.89e-4 -0.00125-0.00125zm-0.17376-0.00202c0.00142-5.734e-4 0.00375-5.734e-4 0.00517 0 0.00142 5.735e-4 2.584e-4 0.00104-0.00258 0.00104-0.00284 0-4e-3 -4.691e-4 -0.00258-0.00104zm0.12923-6.34e-5c0.00201-5.241e-4 0.0048-4.897e-4 0.0062 7.67e-5 0.0014 5.662e-4 -2.46e-4 9.95e-4 -0.00366 9.529e-4 -0.00341-4.22e-5 -0.00456-5.054e-4 -0.00254-0.00103zm-3.3037-1.837c0-4.2923e-4 0.00163-0.002057 0.00362-0.003617 0.00328-0.002571 0.00335-0.002498 7.805e-4 7.8043e-4 -0.0027 0.003443-0.0044 0.004538-0.0044 0.002837zm4.0098-0.002837c-0.00257-0.003278-0.0025-0.003352 7.805e-4 -7.8043e-4 0.00344 0.0027 0.00454 0.004398 0.00284 0.004398-4.292e-4 0-0.00206-0.001628-0.00362-0.003618zm-3.9933-0.0137c0-4.2924e-4 0.00163-0.002057 0.00362-0.003617 0.00328-0.002571 0.00335-0.002498 7.804e-4 7.8042e-4 -0.0027 0.003443-0.0044 0.004538-0.0044 0.002837zm3.9768-0.002837c-0.00257-0.003278-0.0025-0.003352 7.805e-4 -7.8042e-4 0.00199 0.00156 0.00362 0.003188 0.00362 0.003617 0 0.001701-0.0017 6.0627e-4 -0.0044-0.002837z"
      fill="#b9b9b9" />
    <path
      d="m-3.4943 3.8254c0.00267-0.00284 0.00532-0.00517 0.00589-0.00517 5.684e-4 0-0.00115 0.00233-0.00382 0.00517s-0.00532 0.00517-0.00589 0.00517c-5.685e-4 0 0.00115-0.00233 0.00382-0.00517zm-3.9927-0.00155-0.00394-0.00465 0.00465 0.00394c0.00437 0.0037 0.00559 0.00536 0.00394 0.00536-3.922e-4 0-0.00249-0.00209-0.00465-0.00465zm2.9545-0.22616c0.00142-5.734e-4 0.00375-5.734e-4 0.00517 0s2.584e-4 0.00104-0.00258 0.00104c-0.00284 0-4e-3 -4.692e-4 -0.00258-0.00104zm0.14263 0c0.00142-5.734e-4 0.00375-5.734e-4 0.00517 0s2.583e-4 0.00104-0.00258 0.00104c-0.00284 0-4e-3 -4.692e-4 -0.00258-0.00104zm-0.1797-0.00211c0.00149-5.97e-4 0.00328-5.237e-4 0.00396 1.634e-4 6.868e-4 6.869e-4 -5.342e-4 0.00118-0.00271 0.00109-0.00241-9.93e-5 -0.0029-5.891e-4 -0.00125-0.00125zm-0.41621-0.10039c-5.418e-4 -0.00142-7.45e-4 -0.095136-4.517e-4 -0.20826l5.329e-4 -0.20567 0.00103 0.20826c5.685e-4 0.11454 7.717e-4 0.20826 4.517e-4 0.20826-3.198e-4 -2e-7 -0.00102-0.00116-0.00157-0.00258zm0.48015-0.22616c0.00142-5.735e-4 0.00375-5.735e-4 0.00517 0 0.00142 5.733e-4 2.583e-4 0.00104-0.00258 0.00104-0.00284 0-4e-3 -4.691e-4 -0.00258-0.00104zm0.057878 0c0.00142-5.735e-4 0.00375-5.735e-4 0.00517 0 0.00142 5.733e-4 2.583e-4 0.00104-0.00258 0.00104-0.00284 0-4e-3 -4.691e-4 -0.00258-0.00104zm-0.090821-0.00211c0.00149-5.973e-4 0.00327-5.238e-4 0.00396 1.631e-4 6.869e-4 6.869e-4 -5.341e-4 0.00118-0.00271 0.00109-0.00241-9.92e-5 -0.0029-5.891e-4 -0.00125-0.00125zm0.81704-0.17343c9.93e-5 -0.00241 5.892e-4 -0.0029 0.00125-0.00125 5.971e-4 0.00149 5.237e-4 0.00328-1.633e-4 0.00396-6.869e-4 6.869e-4 -0.00118-5.342e-4 -0.00109-0.00271zm-0.12238-0.38895c-0.00257-0.00328-0.0025-0.00335 7.805e-4 -7.804e-4 0.00199 0.00156 0.00362 0.00319 0.00362 0.00362 0 0.0017-0.0017 6.063e-4 -0.0044-0.00284zm-0.033073-0.033073c-0.00257-0.00328-0.0025-0.00335 7.805e-4 -7.804e-4 0.00199 0.00156 0.00362 0.00319 0.00362 0.00362 0 0.0017-0.0017 6.063e-4 -0.0044-0.00284zm-0.39506-0.66128c0.00142-5.733e-4 0.00375-5.733e-4 0.00517 0 0.00142 5.735e-4 2.584e-4 0.00104-0.00258 0.00104-0.00284 0-4e-3 -4.692e-4 -0.00258-0.00104zm0.055811 0c0.00142-5.733e-4 0.00375-5.733e-4 0.00517 0 0.00142 5.735e-4 2.583e-4 0.00104-0.00258 0.00104-0.00284 0-4e-3 -4.692e-4 -0.00258-0.00104zm-0.6382-0.13609c0.00386-0.00398 0.00748-0.00723 0.00805-0.00723 5.685e-4 0-0.00212 0.00326-0.00598 0.00723-0.00386 0.00398-0.00748 0.00723-0.00805 0.00723-5.685e-4 0 0.00212-0.00326 0.00598-0.00723zm0.49157-0.19055c0.00149-5.971e-4 0.00328-5.237e-4 0.00396 1.631e-4 6.869e-4 6.869e-4 -5.341e-4 0.00118-0.00271 0.00109-0.00241-9.92e-5 -0.0029-5.89e-4 -0.00125-0.00125zm0.22118 0c0.00149-5.971e-4 0.00327-5.237e-4 0.00396 1.631e-4 6.869e-4 6.869e-4 -5.341e-4 0.00118-0.00271 0.00109-0.00241-9.92e-5 -0.0029-5.89e-4 -0.00125-0.00125zm-0.18823-0.00202c0.00142-5.734e-4 0.00375-5.734e-4 0.00517 0 0.00142 5.735e-4 2.584e-4 0.00104-0.00258 0.00104-0.00284 0-4e-3 -4.691e-4 -0.00258-0.00104zm0.14689-4.3e-5c0.00149-5.971e-4 0.00328-5.237e-4 0.00396 1.631e-4 6.868e-4 6.869e-4 -5.342e-4 0.00118-0.00271 0.00109-0.00241-9.92e-5 -0.0029-5.89e-4 -0.00125-0.00125zm-3.3028-1.8476c0.00267-0.002842 0.00532-0.005168 0.00589-0.005168 5.685e-4 0-0.00115 0.002325-0.00382 0.005168-0.00267 0.002842-0.00532 0.005168-0.00589 0.005168-5.684e-4 0 0.00115-0.002325 0.00382-0.005168zm3.9913-5.1677e-4 -0.00501-0.005684 0.00568 0.005011c0.00313 0.002756 0.00568 0.005314 0.00568 0.005684 0 0.001621-0.00167 3.0174e-4 -0.00636-0.005011z"
      fill="#a3a3a3" />
  </g>
  <path
    d="m1.75e-7 3.175v-3.175h6.35v6.35h-6.35zm3.1781 0.39687v-1.5875l1.186 0.0015484 7.742e-4 1.5867 7.742e-4 1.5867h0.79374v-3.9687h-3.9687v3.9687h1.9875z"
    stroke-width=".0031006" />
</svg>