<svg width="16" height="16" version="1.1" viewBox="0 0 4.2333 4.2333" xmlns="http://www.w3.org/2000/svg">
  <path
    d="m1.9692 4.2264c-0.43695-0.033495-0.83675-0.18971-1.1696-0.45703-0.07432-0.05968-0.20203-0.1781-0.24935-0.23122-0.3751-0.42102-0.56346-0.9314-0.5485-1.4862 0.01223-0.45359 0.17295-0.89376 0.45501-1.2462 0.36309-0.45366 0.85492-0.72679 1.4308-0.79457 0.10917-0.01285 0.3494-0.01285 0.45858 0 0.54231 0.063832 1.0188 0.31565 1.3737 0.72599 0.52086 0.60222 0.65728 1.4509 0.35157 2.187-0.21231 0.51125-0.62531 0.92672-1.1342 1.141-0.3038 0.1279-0.65014 0.18559-0.96798 0.16122zm0.062957-0.35728c0-0.16284 0.00116-0.19083 0.00859-0.20648 0.012206-0.025723 0.0356-0.04055 0.068247-0.043258 0.036865-0.00306 0.062366 0.00928 0.079448 0.038424l0.013049 0.022266v0.37742h0.01338c0.00736 0 0.048435-0.00361 0.091281-0.00802 0.63175-0.065001 1.1812-0.42192 1.4989-0.97358 0.14392-0.24997 0.24111-0.57506 0.24994-0.83608l0.00125-0.037042-0.1905-0.00265c-0.17542-0.00243-0.19182-0.00344-0.2072-0.012748-0.053645-0.032468-0.050344-0.1215 0.00549-0.14799 0.015631-0.00742 0.043407-0.00859 0.20352-0.00859 0.10198 0 0.1865-0.00179 0.18781-0.00397 0.00289-0.0048-0.00974-0.14277-0.017806-0.19447-0.037201-0.23845-0.11196-0.45981-0.22162-0.65617-0.28918-0.51783-0.78563-0.87277-1.3653-0.97611-0.057388-0.010231-0.20161-0.026662-0.23402-0.026662h-0.015134v0.18972c0 0.18857-7.3e-5 0.18983-0.012032 0.20757-0.00662 0.00982-0.020067 0.023269-0.029887 0.029887-0.036682 0.02472-0.093622 0.009863-0.11621-0.030322-0.010832-0.019273-0.011207-0.026248-0.011207-0.2084v-0.18846h-0.015134c-0.00832 0-0.051356 0.003633-0.095627 0.008072-0.51578 0.051725-0.99598 0.31257-1.3197 0.71689-0.17977 0.2245-0.29984 0.46391-0.37072 0.73914-0.030873 0.11989-0.059894 0.31384-0.055281 0.36946l0.00176 0.021167 0.19315 0.00265c0.21596 0.00296 0.20941 0.00178 0.23183 0.041684 0.022491 0.040017 0.011747 0.08509-0.02716 0.11393-0.014334 0.010627-0.022589 0.011176-0.20638 0.013716l-0.19144 0.00265 0.00155 0.044979c0.00209 0.060672 0.015047 0.16304 0.030803 0.24342 0.059445 0.30324 0.1938 0.59372 0.38549 0.83344 0.32916 0.41164 0.79632 0.66841 1.3178 0.72434 0.037835 0.00406 0.080103 0.00764 0.093927 0.00797l0.025136 5.753e-4zm0.47596-1.3743c-0.35907-0.251-0.45855-0.32297-0.46622-0.33726-0.00929-0.017315-0.00974-0.044127-0.00974-0.57043 0-0.49858 8.349e-4 -0.55402 0.00859-0.57036 0.012206-0.025723 0.0356-0.04055 0.068247-0.043258 0.035051-0.00291 0.061645 0.00911 0.077861 0.035188l0.01199 0.01928 0.00265 0.52086 0.00265 0.52086 0.42598 0.29779c0.2716 0.18987 0.43029 0.30406 0.43789 0.31508 0.00848 0.012313 0.011904 0.02494 0.011898 0.043894-1.69e-5 0.054579-0.031932 0.087462-0.084888 0.087462h-0.030414z"
    fill="#fff" stroke-width=".0052917" />
</svg>