<?xml version="1.0" encoding="UTF-8" standalone="no"?>
<!-- Created with Inkscape (http://www.inkscape.org/) -->

<svg
   width="16"
   height="16"
   viewBox="0 0 4.2333332 4.2333333"
   version="1.1"
   id="svg5"
   xml:space="preserve"
   inkscape:version="1.2.1 (9c6d41e4, 2022-07-14)"
   sodipodi:docname="angular_logo.svg"
   xmlns:inkscape="http://www.inkscape.org/namespaces/inkscape"
   xmlns:sodipodi="http://sodipodi.sourceforge.net/DTD/sodipodi-0.dtd"
   xmlns="http://www.w3.org/2000/svg"
   xmlns:svg="http://www.w3.org/2000/svg"><sodipodi:namedview
     id="namedview7"
     pagecolor="#ffffff"
     bordercolor="#000000"
     borderopacity="0.25"
     inkscape:showpageshadow="2"
     inkscape:pageopacity="0.0"
     inkscape:pagecheckerboard="0"
     inkscape:deskcolor="#d1d1d1"
     inkscape:document-units="mm"
     showgrid="false"
     inkscape:zoom="14.75"
     inkscape:cx="8.0338983"
     inkscape:cy="8"
     inkscape:window-width="1680"
     inkscape:window-height="1050"
     inkscape:window-x="0"
     inkscape:window-y="67"
     inkscape:window-maximized="0"
     inkscape:current-layer="layer1" /><defs
     id="defs2" /><g
     inkscape:label="Layer 1"
     inkscape:groupmode="layer"
     id="layer1"><path
       style="fill:#aa0000;stroke-width:0.00206706"
       d="M 1.4483341,3.4405983 C 0.83266173,3.0994034 0.78164513,3.0707288 0.78021683,3.0650731 0.77666243,3.0509993 0.54031973,0.98849207 0.54207043,0.98682577 0.54309953,0.98584627 0.89785463,0.85885965 1.3304151,0.70463331 L 2.1168886,0.42422179 2.9034456,0.70464592 C 3.3360519,0.85887919 3.6905717,0.98567497 3.6912672,0.98641417 3.6925772,0.98780417 3.4527826,3.0695565 3.4511453,3.0710242 3.4492853,3.0726942 2.1204129,3.8082508 2.1177061,3.8091105 2.1161661,3.8096 1.8149481,3.6437693 1.4483341,3.4405983 Z m 0.1491103,-0.6793049 0.098522,-0.2459798 0.4182418,-4.924e-4 0.418242,-4.923e-4 0.062906,0.1575887 c 0.034598,0.086674 0.079128,0.1978188 0.098956,0.2469889 l 0.036051,0.0894 h 0.1839349 c 0.1743021,0 0.1838657,-1.901e-4 0.1826123,-0.00362 C 3.0929104,2.9937435 2.1168009,0.79865638 2.1159386,0.79866107 2.115201,0.7986652 1.1357779,2.992632 1.1302931,3.0065663 c -3.81e-4,9.678e-4 0.082405,0.00152 0.1839681,0.00123 L 1.498922,3.0072732 Z M 1.8333985,2.1975036 c 0.0026,-0.00597 0.067004,-0.160833 0.1431177,-0.344143 0.076114,-0.18331 0.1388539,-0.3332993 0.1394224,-0.3333095 5.684e-4,-1.03e-5 0.06239,0.1476453 0.1373803,0.3281233 0.074991,0.1804781 0.1393742,0.3353507 0.1430747,0.3441615 l 0.00673,0.01602 H 2.1158956 1.8286697 Z"
       id="path302" /></g></svg>
