<?xml version="1.0" encoding="UTF-8" standalone="no"?>
<!-- Created with Inkscape (http://www.inkscape.org/) -->

<svg
   width="16"
   height="16"
   viewBox="0 0 4.2333332 4.2333333"
   version="1.1"
   id="svg5"
   xml:space="preserve"
   inkscape:version="1.2.1 (9c6d41e4, 2022-07-14)"
   sodipodi:docname="cypress_logo.svg"
   xmlns:inkscape="http://www.inkscape.org/namespaces/inkscape"
   xmlns:sodipodi="http://sodipodi.sourceforge.net/DTD/sodipodi-0.dtd"
   xmlns="http://www.w3.org/2000/svg"
   xmlns:svg="http://www.w3.org/2000/svg"><sodipodi:namedview
     id="namedview7"
     pagecolor="#ffffff"
     bordercolor="#000000"
     borderopacity="0.25"
     inkscape:showpageshadow="2"
     inkscape:pageopacity="0.0"
     inkscape:pagecheckerboard="0"
     inkscape:deskcolor="#d1d1d1"
     inkscape:document-units="mm"
     showgrid="false"
     inkscape:zoom="14.75"
     inkscape:cx="8.0338983"
     inkscape:cy="8"
     inkscape:window-width="1680"
     inkscape:window-height="1050"
     inkscape:window-x="0"
     inkscape:window-y="67"
     inkscape:window-maximized="0"
     inkscape:current-layer="layer1" /><defs
     id="defs2" /><g
     inkscape:label="Layer 1"
     inkscape:groupmode="layer"
     id="layer1"><path
       style="fill:#80ff80;stroke-width:0.00826823"
       d="M 1.9210989,4.2259235 C 1.6431551,4.1950167 1.4243951,4.1323975 1.1852265,4.0152831 0.95625726,3.9031631 0.78995066,3.783882 0.61284376,3.6047499 0.44225296,3.4322082 0.33061546,3.2762136 0.22272856,3.0596292 0.11786596,2.8491161 0.05177986,2.6368411 0.01827996,2.4029203 -0.00231774,2.2590913 -0.00241624,1.9833878 0.01807776,1.8365466 0.08253206,1.374726 0.28265286,0.96597697 0.60462336,0.63852044 0.95873446,0.27837568 1.3995752,0.0661051 1.9022602,0.01369138 2.4462301,-0.04302701 2.9957111,0.11772606 3.4258933,0.45943694 4.0763938,0.97615537 4.3658077,1.8151255 4.1704818,2.6178942 4.131844,2.7766917 4.0838229,2.9074854 4.008298,3.0596292 3.8021561,3.4748997 3.4734802,3.8035377 3.0573651,4.0104527 2.8485804,4.1142718 2.6255728,4.1837851 2.4047903,4.2138658 2.2913513,4.2293214 2.0138635,4.2362387 1.9210989,4.2259235 Z M 2.3882538,3.7991946 C 2.5626184,3.7726417 2.7458425,3.7010614 2.8599652,3.6149106 2.9730292,3.529559 3.0872453,3.3901533 3.1553606,3.2543676 3.2010672,3.1632526 3.2228818,3.1008886 3.3895641,2.5848213 3.5973783,1.9414048 3.7234893,1.5522826 3.7862797,1.3607337 c 0.026903,-0.08207 0.048914,-0.1536934 0.048914,-0.1591634 0,-0.00753 -0.061933,-0.00995 -0.2554093,-0.00995 H 3.3243752 l -0.016969,0.064079 C 3.2980733,1.2909468 3.2120089,1.6267403 3.1161519,2.0019112 3.0202949,2.377082 2.9390359,2.6909084 2.9355763,2.6993032 2.9293349,2.7144483 2.9190308,2.6738863 2.7269102,1.8778877 2.6857509,1.7073555 2.6336629,1.4915547 2.6111591,1.3983305 2.5886553,1.3051062 2.5682919,1.2204602 2.5659073,1.2102283 l -0.00434,-0.018604 H 2.2971458 c -0.1454342,0 -0.2644258,0.00265 -0.2644258,0.00588 0,0.00587 0.6233813,2.0054399 0.6331452,2.030884 0.00735,0.019141 -0.08117,0.1053238 -0.1374952,0.133872 -0.06676,0.033837 -0.1425255,0.057663 -0.250565,0.078796 -0.078865,0.015426 -0.095789,0.021256 -0.0927,0.031935 0.00208,0.00718 0.013419,0.080036 0.025201,0.1618916 0.011782,0.081856 0.023233,0.1572311 0.025446,0.1675014 0.00448,0.020788 -0.00649,0.021018 0.1525018,-0.00319 z M 1.6381382,3.0657953 c 0.097336,-0.025585 0.219384,-0.081955 0.2936943,-0.1356486 0.029992,-0.021671 0.058049,-0.041808 0.06235,-0.044751 0.0043,-0.00294 -0.01441,-0.036429 -0.041581,-0.074414 -0.02717,-0.037985 -0.076108,-0.1070193 -0.1087507,-0.1534089 l -0.05935,-0.084345 -0.092931,0.048519 C 1.5501245,2.6955954 1.4615487,2.7148385 1.3456346,2.696902 1.1886879,2.6726161 1.1043975,2.5891701 1.0557102,2.4098817 1.0414679,2.3574352 1.0373841,2.3140797 1.0343431,2.183042 1.0276631,1.8952042 1.0670531,1.7299628 1.1678954,1.622784 1.2102354,1.577784 1.2479654,1.553393 1.3009817,1.53675 1.4366126,1.494173 1.5836164,1.520941 1.733387,1.615485 1.762024,1.633562 1.786441,1.646978 1.787648,1.645298 1.788858,1.643618 1.837358,1.577767 1.8954323,1.4989636 1.9946444,1.3643386 2.0001069,1.3549584 1.9858653,1.3436721 1.8997706,1.2754429 1.7784874,1.2072653 1.6895885,1.1771242 1.5909799,1.143691 1.5454926,1.1379043 1.383664,1.138206 1.2495554,1.1384557 1.2158525,1.1411838 1.1533417,1.1568473 1.0060572,1.1937527 0.87456046,1.267565 0.77022626,1.3718992 c -0.1900606,0.1900606 -0.2908811,0.5094891 -0.2670312,0.846032 0.032731,0.4618653 0.2629812,0.7646135 0.64619544,0.8496612 0.1136066,0.025213 0.1069459,0.024657 0.2632123,0.021955 0.1237055,-0.00214 0.1564204,-0.00558 0.2255354,-0.023752 z"
       id="path337" /></g></svg>
