<?xml version="1.0" encoding="UTF-8" standalone="no"?>
<!-- Created with Inkscape (http://www.inkscape.org/) -->

<svg
   width="16"
   height="16"
   viewBox="0 0 4.2333332 4.2333333"
   version="1.1"
   id="svg5"
   xml:space="preserve"
   inkscape:version="1.2.1 (9c6d41e4, 2022-07-14)"
   sodipodi:docname="directus_logo.svg"
   xmlns:inkscape="http://www.inkscape.org/namespaces/inkscape"
   xmlns:sodipodi="http://sodipodi.sourceforge.net/DTD/sodipodi-0.dtd"
   xmlns="http://www.w3.org/2000/svg"
   xmlns:svg="http://www.w3.org/2000/svg"><sodipodi:namedview
     id="namedview7"
     pagecolor="#ffffff"
     bordercolor="#000000"
     borderopacity="0.25"
     inkscape:showpageshadow="2"
     inkscape:pageopacity="0.0"
     inkscape:pagecheckerboard="0"
     inkscape:deskcolor="#d1d1d1"
     inkscape:document-units="mm"
     showgrid="false"
     inkscape:zoom="14.75"
     inkscape:cx="1.4576271"
     inkscape:cy="5.3220339"
     inkscape:window-width="1680"
     inkscape:window-height="997"
     inkscape:window-x="0"
     inkscape:window-y="92"
     inkscape:window-maximized="0"
     inkscape:current-layer="layer1" /><defs
     id="defs2" /><g
     inkscape:label="Layer 1"
     inkscape:groupmode="layer"
     id="layer1"><path
       style="fill:#ffffff;fill-opacity:1;stroke-width:0.00206706"
       d="m -7.4736216,3.8372902 c -0.00257,-0.00328 -0.0025,-0.00335 7.804e-4,-7.805e-4 0.00344,0.0027 0.00454,0.0044 0.00284,0.0044 -4.292e-4,0 -0.00206,-0.00163 -0.00362,-0.00362 z M -4.510709,3.5976295 c 0.00201,-5.24e-4 0.0048,-4.897e-4 0.0062,7.65e-5 0.0014,5.662e-4 -2.46e-4,9.949e-4 -0.00366,9.529e-4 -0.00341,-4.13e-5 -0.00456,-5.054e-4 -0.00254,-0.00103 z m 0.1012858,0 c 0.00201,-5.24e-4 0.0048,-4.897e-4 0.0062,7.65e-5 0.0014,5.662e-4 -2.46e-4,9.949e-4 -0.00366,9.529e-4 -0.00341,-4.13e-5 -0.00456,-5.054e-4 -0.00254,-0.00103 z m -0.1477046,-0.00205 c 0.00149,-5.97e-4 0.00327,-5.237e-4 0.00396,1.634e-4 6.869e-4,6.869e-4 -5.341e-4,0.00118 -0.00271,0.00109 -0.00241,-9.93e-5 -0.0029,-5.891e-4 -0.00125,-0.00125 z m 0.1922363,0 c 0.00149,-5.97e-4 0.00327,-5.237e-4 0.00396,1.634e-4 6.869e-4,6.869e-4 -5.341e-4,0.00118 -0.00271,0.00109 -0.00241,-9.93e-5 -0.0029,-5.891e-4 -0.00125,-0.00125 z M -4.5199208,3.2689879 c 0.00149,-5.973e-4 0.00327,-5.238e-4 0.00396,1.633e-4 6.869e-4,6.868e-4 -5.341e-4,0.00118 -0.00271,0.00109 -0.00241,-9.92e-5 -0.0029,-5.891e-4 -0.00125,-0.00125 z m 0.088884,0 c 0.00149,-5.973e-4 0.00327,-5.238e-4 0.00396,1.633e-4 6.869e-4,6.868e-4 -5.341e-4,0.00118 -0.00271,0.00109 -0.00241,-9.92e-5 -0.0029,-5.891e-4 -0.00125,-0.00125 z m 0.709714,-0.1866902 c 0,-0.00284 4.693e-4,-0.004 0.00104,-0.00258 5.734e-4,0.00142 5.734e-4,0.00375 0,0.00517 -5.734e-4,0.00142 -0.00104,2.584e-4 -0.00104,-0.00258 z m -1.633e-4,-0.071486 c 9.93e-5,-0.00241 5.892e-4,-0.0029 0.00125,-0.00125 5.971e-4,0.00149 5.237e-4,0.00328 -1.633e-4,0.00396 -6.869e-4,6.869e-4 -0.00118,-5.342e-4 -0.00109,-0.00271 z m -0.4994547,-0.059256 -0.00817,-0.00878 0.00879,0.00817 c 0.00817,0.0076 0.00973,0.0094 0.00817,0.0094 -3.376e-4,0 -0.00429,-0.00395 -0.00879,-0.00879 z M -4.8339897,2.6032572 c -0.00257,-0.00328 -0.0025,-0.00335 7.806e-4,-7.806e-4 0.00199,0.00156 0.00362,0.00319 0.00362,0.00362 0,0.0017 -0.0017,6.062e-4 -0.0044,-0.00284 z M -4.9927262,2.2625373 c 9.92e-5,-0.00241 5.891e-4,-0.0029 0.00125,-0.00125 5.972e-4,0.00149 5.238e-4,0.00328 -1.633e-4,0.00396 -6.869e-4,6.867e-4 -0.00118,-5.343e-4 -0.00109,-0.00271 z m 1.633e-4,-0.06494 c 0,-0.00284 4.692e-4,-0.004 0.00104,-0.00258 5.734e-4,0.00142 5.734e-4,0.00375 0,0.00517 -5.734e-4,0.00142 -0.00104,2.582e-4 -0.00104,-0.00258 z m 1.1912901,-0.2521811 c 0,-0.1062984 2.511e-4,-0.1497842 5.583e-4,-0.096635 3.07e-4,0.053149 3.07e-4,0.1401207 0,0.1932699 -3.072e-4,0.053149 -5.583e-4,0.00966 -5.583e-4,-0.096635 z m -0.4830035,0.064734 c 0.00149,-5.971e-4 0.00328,-5.238e-4 0.00396,1.634e-4 6.868e-4,6.869e-4 -5.342e-4,0.00118 -0.00271,0.00109 -0.00241,-9.92e-5 -0.0029,-5.891e-4 -0.00125,-0.00125 z m 0.082682,0 c 0.00149,-5.971e-4 0.00328,-5.238e-4 0.00396,1.634e-4 6.869e-4,6.869e-4 -5.341e-4,0.00118 -0.00271,0.00109 -0.00241,-9.92e-5 -0.0029,-5.891e-4 -0.00125,-0.00125 z M -4.3524892,1.6835549 c 0.00149,-5.971e-4 0.00328,-5.237e-4 0.00396,1.631e-4 6.868e-4,6.869e-4 -5.342e-4,0.00118 -0.00271,0.00109 -0.00241,-9.92e-5 -0.0029,-5.89e-4 -0.00125,-0.00125 z m 0.039145,-0.00202 c 0.00142,-5.734e-4 0.00375,-5.734e-4 0.00517,0 0.00142,5.735e-4 2.584e-4,0.00104 -0.00258,0.00104 -0.00284,0 -0.004,-4.691e-4 -0.00258,-0.00104 z m 0.1075112,-9.3e-5 c 0.00257,-4.944e-4 0.00629,-4.756e-4 0.00827,4.18e-5 0.00198,5.173e-4 -1.281e-4,9.219e-4 -0.00468,8.988e-4 -0.00455,-2.29e-5 -0.00616,-4.462e-4 -0.00359,-9.406e-4 z"
       id="path261" /><path
       style="fill:#b9b9b9;fill-opacity:1;stroke-width:0.00206706"
       d="m -3.5046081,3.835993 c 0,-4.291e-4 0.00163,-0.00206 0.00362,-0.00362 0.00328,-0.00257 0.00335,-0.0025 7.805e-4,7.805e-4 -0.0027,0.00344 -0.0044,0.00454 -0.0044,0.00284 z m -3.9752147,-0.0049 c -0.00257,-0.00328 -0.0025,-0.00335 7.805e-4,-7.806e-4 0.00344,0.0027 0.00454,0.0044 0.00284,0.0044 -4.293e-4,0 -0.00206,-0.00163 -0.00362,-0.00362 z m -0.014469,-0.014469 c -0.00257,-0.00328 -0.0025,-0.00335 7.805e-4,-7.805e-4 0.00344,0.0027 0.00454,0.0044 0.00284,0.0044 -4.293e-4,0 -0.00206,-0.00163 -0.00362,-0.00362 z m 4.0062205,0.00284 c 0,-4.291e-4 0.00163,-0.00206 0.00362,-0.00362 0.00328,-0.00257 0.00335,-0.0025 7.805e-4,7.806e-4 -0.0027,0.00344 -0.0044,0.00454 -0.0044,0.00284 z M -4.5231506,3.5976371 c 0.00199,-5.201e-4 0.00525,-5.201e-4 0.00723,0 0.00199,5.199e-4 3.618e-4,9.453e-4 -0.00362,9.453e-4 -0.00398,0 -0.00561,-4.254e-4 -0.00362,-9.453e-4 z m 0.1240627,0 c 0.00201,-5.239e-4 0.0048,-4.897e-4 0.0062,7.66e-5 0.0014,5.66e-4 -2.46e-4,9.948e-4 -0.00366,9.529e-4 -0.00341,-4.14e-5 -0.00456,-5.054e-4 -0.00254,-0.00103 z m -0.1642411,-0.00205 c 0.00149,-5.973e-4 0.00327,-5.238e-4 0.00396,1.632e-4 6.869e-4,6.869e-4 -5.341e-4,0.00118 -0.00271,0.00109 -0.00241,-9.92e-5 -0.0029,-5.891e-4 -0.00125,-0.00125 z m 0.2046387,0 c 0.00149,-5.973e-4 0.00327,-5.238e-4 0.00396,1.632e-4 6.869e-4,6.869e-4 -5.341e-4,0.00118 -0.00271,0.00109 -0.00241,-9.92e-5 -0.0029,-5.891e-4 -0.00125,-0.00125 z M -6.1023851,2.8192724 -6.102899,2.0632541 -6.3669656,2.0627217 -6.6310321,2.062189 -6.3669007,2.0616803 c 0.2097795,-4.041e-4 0.2643333,2.28e-5 0.2651122,0.00207 5.395e-4,0.00142 7.415e-4,0.342098 4.491e-4,0.7570597 l -5.317e-4,0.7544758 z m 1.5885363,0.4497585 c 0.00142,-5.735e-4 0.00375,-5.735e-4 0.00517,0 0.00142,5.733e-4 2.584e-4,0.00104 -0.00258,0.00104 -0.00284,0 -0.004,-4.691e-4 -0.00258,-0.00104 z m 0.074414,0 c 0.00142,-5.735e-4 0.00375,-5.735e-4 0.00517,0 0.00142,5.733e-4 2.584e-4,0.00104 -0.00258,0.00104 -0.00284,0 -0.004,-4.691e-4 -0.00258,-0.00104 z m 0.7179487,-0.2644201 c 9.93e-5,-0.00241 5.892e-4,-0.0029 0.00125,-0.00125 5.971e-4,0.00149 5.237e-4,0.00327 -1.633e-4,0.00396 -6.869e-4,6.869e-4 -0.00118,-5.342e-4 -0.00109,-0.00271 z m -0.1387156,-0.3166042 -0.013376,-0.013953 0.013953,0.013376 c 0.01296,0.012424 0.014898,0.014529 0.013376,0.014529 -3.171e-4,0 -0.0066,-0.00628 -0.013953,-0.013952 z m -1.010995,-0.1219565 c -0.00257,-0.00328 -0.0025,-0.00335 7.805e-4,-7.804e-4 0.00344,0.0027 0.00454,0.0044 0.00284,0.0044 -4.292e-4,0 -0.00206,-0.00163 -0.00362,-0.00362 z m 0.3773053,-0.2449462 -0.00394,-0.00465 0.00465,0.00394 c 0.00437,0.0037 0.00559,0.00536 0.00394,0.00536 -3.923e-4,0 -0.00249,-0.00209 -0.00465,-0.00465 z m -0.011436,-0.011369 c -0.00257,-0.00328 -0.0025,-0.00335 7.805e-4,-7.806e-4 0.00344,0.0027 0.00454,0.0044 0.00284,0.0044 -4.291e-4,0 -0.00206,-0.00163 -0.00362,-0.00362 z m -0.4872355,-0.039791 c 0,-0.00284 4.692e-4,-0.004 0.00104,-0.00258 5.734e-4,0.00142 5.734e-4,0.00375 0,0.00517 -5.734e-4,0.00142 -0.00104,2.582e-4 -0.00104,-0.00258 z m -1.633e-4,-0.079754 c 9.92e-5,-0.00241 5.891e-4,-0.0029 0.00125,-0.00125 5.972e-4,0.00149 5.238e-4,0.00328 -1.633e-4,0.00396 -6.869e-4,6.868e-4 -0.00118,-5.343e-4 -0.00109,-0.00271 z M -5.5482503,2.0616883 c 0.073701,-3.009e-4 0.1936942,-3.009e-4 0.2666504,3e-7 0.072956,3.009e-4 0.012655,5.472e-4 -0.1340026,5.472e-4 -0.1466577,0 -0.2063492,-2.464e-4 -0.1326478,-5.475e-4 z m 1.2701752,-0.051538 c 0.00149,-5.972e-4 0.00327,-5.238e-4 0.00396,1.633e-4 6.869e-4,6.869e-4 -5.341e-4,0.00118 -0.00271,0.00109 -0.00241,-9.92e-5 -0.0029,-5.891e-4 -0.00125,-0.00125 z m 0.07028,0 c 0.00149,-5.972e-4 0.00328,-5.238e-4 0.00396,1.633e-4 6.868e-4,6.869e-4 -5.342e-4,0.00118 -0.00271,0.00109 -0.00241,-9.92e-5 -0.0029,-5.891e-4 -0.00125,-0.00125 z m 0.059945,-0.3265951 c 0.00149,-5.971e-4 0.00327,-5.237e-4 0.00396,1.631e-4 6.869e-4,6.869e-4 -5.341e-4,0.00118 -0.00271,0.00109 -0.00241,-9.92e-5 -0.0029,-5.89e-4 -0.00125,-0.00125 z m -0.173762,-0.00202 c 0.00142,-5.734e-4 0.00375,-5.734e-4 0.00517,0 0.00142,5.735e-4 2.584e-4,0.00104 -0.00258,0.00104 -0.00284,0 -0.004,-4.691e-4 -0.00258,-0.00104 z m 0.1292304,-6.34e-5 c 0.00201,-5.241e-4 0.0048,-4.897e-4 0.0062,7.67e-5 0.0014,5.662e-4 -2.46e-4,9.95e-4 -0.00366,9.529e-4 -0.00341,-4.22e-5 -0.00456,-5.054e-4 -0.00254,-0.00103 z m -3.3037139,-1.83696621 c 0,-4.2923e-4 0.00163,-0.002057 0.00362,-0.003617 0.00328,-0.002571 0.00335,-0.002498 7.805e-4,7.8043e-4 -0.0027,0.003443 -0.0044,0.004538 -0.0044,0.002837 z m 4.0098272,-0.002837 c -0.00257,-0.003278 -0.0025,-0.003352 7.805e-4,-7.8043e-4 0.00344,0.0027 0.00454,0.004398 0.00284,0.004398 -4.292e-4,0 -0.00206,-0.001628 -0.00362,-0.003618 z m -3.9932907,-0.0136995 c 0,-4.2924e-4 0.00163,-0.002057 0.00362,-0.003617 0.00328,-0.002571 0.00335,-0.002498 7.804e-4,7.8042e-4 -0.0027,0.003443 -0.0044,0.004538 -0.0044,0.002837 z m 3.9767543,-0.002837 c -0.00257,-0.003278 -0.0025,-0.003352 7.805e-4,-7.8042e-4 0.00199,0.00156 0.00362,0.003188 0.00362,0.003617 0,0.001701 -0.0017,6.0627e-4 -0.0044,-0.002837 z"
       id="path259" /><path
       style="fill:#a3a3a3;fill-opacity:1;stroke-width:0.00206706"
       d="m -3.4942729,3.8254047 c 0.00267,-0.00284 0.00532,-0.00517 0.00589,-0.00517 5.684e-4,0 -0.00115,0.00233 -0.00382,0.00517 -0.00267,0.00284 -0.00532,0.00517 -0.00589,0.00517 -5.685e-4,0 0.00115,-0.00233 0.00382,-0.00517 z m -3.9927173,-0.00155 -0.00394,-0.00465 0.00465,0.00394 c 0.00437,0.0037 0.00559,0.00536 0.00394,0.00536 -3.922e-4,0 -0.00249,-0.00209 -0.00465,-0.00465 z M -4.5324523,3.597693 c 0.00142,-5.734e-4 0.00375,-5.734e-4 0.00517,0 0.00142,5.734e-4 2.584e-4,0.00104 -0.00258,0.00104 -0.00284,0 -0.004,-4.692e-4 -0.00258,-0.00104 z m 0.1426269,0 c 0.00142,-5.734e-4 0.00375,-5.734e-4 0.00517,0 0.00142,5.734e-4 2.583e-4,0.00104 -0.00258,0.00104 -0.00284,0 -0.004,-4.692e-4 -0.00258,-0.00104 z m -0.1797048,-0.00211 c 0.00149,-5.97e-4 0.00328,-5.237e-4 0.00396,1.634e-4 6.868e-4,6.869e-4 -5.342e-4,0.00118 -0.00271,0.00109 -0.00241,-9.93e-5 -0.0029,-5.891e-4 -0.00125,-0.00125 z M -4.9857354,3.4951924 c -5.418e-4,-0.00142 -7.45e-4,-0.095136 -4.517e-4,-0.208256 l 5.329e-4,-0.2056722 0.00103,0.2082562 c 5.685e-4,0.1145408 7.717e-4,0.208256 4.517e-4,0.208256 -3.198e-4,-2e-7 -0.00102,-0.00116 -0.00157,-0.00258 z m 0.4801548,-0.2261615 c 0.00142,-5.735e-4 0.00375,-5.735e-4 0.00517,0 0.00142,5.733e-4 2.583e-4,0.00104 -0.00258,0.00104 -0.00284,0 -0.004,-4.691e-4 -0.00258,-0.00104 z m 0.057878,0 c 0.00142,-5.735e-4 0.00375,-5.735e-4 0.00517,0 0.00142,5.733e-4 2.583e-4,0.00104 -0.00258,0.00104 -0.00284,0 -0.004,-4.691e-4 -0.00258,-0.00104 z m -0.090821,-0.00211 c 0.00149,-5.973e-4 0.00327,-5.238e-4 0.00396,1.631e-4 6.869e-4,6.869e-4 -5.341e-4,0.00118 -0.00271,0.00109 -0.00241,-9.92e-5 -0.0029,-5.891e-4 -0.00125,-0.00125 z m 0.8170375,-0.1734266 c 9.93e-5,-0.00241 5.892e-4,-0.0029 0.00125,-0.00125 5.971e-4,0.00149 5.237e-4,0.00328 -1.633e-4,0.00396 -6.869e-4,6.869e-4 -0.00118,-5.342e-4 -0.00109,-0.00271 z M -3.8438693,2.7045429 c -0.00257,-0.00328 -0.0025,-0.00335 7.805e-4,-7.804e-4 0.00199,0.00156 0.00362,0.00319 0.00362,0.00362 0,0.0017 -0.0017,6.063e-4 -0.0044,-0.00284 z m -0.033073,-0.033073 c -0.00257,-0.00328 -0.0025,-0.00335 7.805e-4,-7.804e-4 0.00199,0.00156 0.00362,0.00319 0.00362,0.00362 0,0.0017 -0.0017,6.063e-4 -0.0044,-0.00284 z M -4.2720031,2.010193 c 0.00142,-5.733e-4 0.00375,-5.733e-4 0.00517,0 0.00142,5.735e-4 2.584e-4,0.00104 -0.00258,0.00104 -0.00284,0 -0.004,-4.692e-4 -0.00258,-0.00104 z m 0.055811,0 c 0.00142,-5.733e-4 0.00375,-5.733e-4 0.00517,0 0.00142,5.735e-4 2.583e-4,0.00104 -0.00258,0.00104 -0.00284,0 -0.004,-4.692e-4 -0.00258,-0.00104 z M -4.8543965,1.8741027 c 0.00386,-0.00398 0.00748,-0.00723 0.00805,-0.00723 5.685e-4,0 -0.00212,0.00326 -0.00598,0.00723 -0.00386,0.00398 -0.00748,0.00723 -0.00805,0.00723 -5.685e-4,0 0.00212,-0.00326 0.00598,-0.00723 z m 0.491572,-0.1905478 c 0.00149,-5.971e-4 0.00328,-5.237e-4 0.00396,1.631e-4 6.869e-4,6.869e-4 -5.341e-4,0.00118 -0.00271,0.00109 -0.00241,-9.92e-5 -0.0029,-5.89e-4 -0.00125,-0.00125 z m 0.2211752,0 c 0.00149,-5.971e-4 0.00327,-5.237e-4 0.00396,1.631e-4 6.869e-4,6.869e-4 -5.341e-4,0.00118 -0.00271,0.00109 -0.00241,-9.92e-5 -0.0029,-5.89e-4 -0.00125,-0.00125 z m -0.1882314,-0.00202 c 0.00142,-5.734e-4 0.00375,-5.734e-4 0.00517,0 0.00142,5.735e-4 2.584e-4,0.00104 -0.00258,0.00104 -0.00284,0 -0.004,-4.691e-4 -0.00258,-0.00104 z m 0.1468902,-4.3e-5 c 0.00149,-5.971e-4 0.00328,-5.237e-4 0.00396,1.631e-4 6.868e-4,6.869e-4 -5.342e-4,0.00118 -0.00271,0.00109 -0.00241,-9.92e-5 -0.0029,-5.89e-4 -0.00125,-0.00125 z m -3.3027698,-1.84757059 c 0.00267,-0.002842 0.00532,-0.005168 0.00589,-0.005168 5.685e-4,0 -0.00115,0.002325 -0.00382,0.005168 -0.00267,0.002842 -0.00532,0.005168 -0.00589,0.005168 -5.684e-4,0 0.00115,-0.002325 0.00382,-0.005168 z m 3.991331,-5.1677e-4 -0.00501,-0.005684 0.00568,0.005011 c 0.00313,0.002756 0.00568,0.005314 0.00568,0.005684 0,0.001621 -0.00167,3.0174e-4 -0.00636,-0.005011 z"
       id="path257" /><g
       id="g631"
       transform="translate(0.00317111,0.00762679)"
       style="fill:#ffffff"><path
         style="fill:#ffffff;fill-opacity:1;stroke-width:0.0047037"
         d="m 0.02071987,3.3313981 -0.0089605,-0.010583 0.01058333,0.00896 c 0.0058208,0.00493 0.01058334,0.00969 0.01058334,0.010583 0,0.00376 -0.0037855,9.852e-4 -0.01220617,-0.00896 z m 0.38379874,-0.071731 c 0.008776,-0.00905 0.0170149,-0.016463 0.0183084,-0.016463 0.001294,0 -0.004829,0.00741 -0.0136047,0.016463 -0.008776,0.00905 -0.0170149,0.016463 -0.0183084,0.016463 -0.001294,0 0.004829,-0.00741 0.0136047,-0.016463 z M 0.09407418,3.2037981 c 0,-9.767e-4 0.0037042,-0.00468 0.0082315,-0.00823 0.00746,-0.00585 0.007627,-0.00568 0.001776,0.00178 -0.0061448,0.00784 -0.01000739,0.010327 -0.01000739,0.00646 z M 3.3034575,2.2342593 c 2.82e-5,-0.015522 9.045e-4,-0.021305 0.00195,-0.012851 0.00105,0.00845 0.00103,0.021154 -4.79e-5,0.028222 -0.00107,0.00707 -0.00193,1.51e-4 -0.0019,-0.015371 z m -1.3563774,-1.1959167 -0.01621,-0.017639 0.017639,0.01621 c 0.0097,0.00892 0.017639,0.016853 0.017639,0.017639 0,0.00359 -0.00398,2.082e-4 -0.019068,-0.01621 z"
         id="path645" /><path
         style="fill:#ffffff;fill-opacity:1;stroke-width:0.0047037"
         d="m 1.1126201e-7,3.3025759 c 0,-9.767e-4 0.003704168738,-0.00468 0.008231478738,-0.00823 C 0.01569193,3.2884936 0.0158583,3.28866 0.0100075,3.2961203 0.00386272,3.3039555 1.1126201e-7,3.3064472 1.1126201e-7,3.3025759 Z M 3.8752517,2.9433426 c -0.00585,-0.00746 -0.00568,-0.00763 0.00178,-0.00178 0.00453,0.00355 0.00823,0.00725 0.00823,0.00823 0,0.00387 -0.00386,0.00138 -0.010007,-0.00646 z M 3.6042129,2.8354428 c 0.00453,-0.00118 0.011936,-0.00118 0.016463,0 0.00453,0.00118 8.232e-4,0.00215 -0.00823,0.00215 -0.00905,0 -0.012759,-9.68e-4 -0.00823,-0.00215 z M 2.55015,2.5000185 c 0,-0.00647 0.00107,-0.00911 0.00237,-0.00588 0.0013,0.00323 0.0013,0.00853 0,0.011759 -0.0013,0.00323 -0.00237,5.88e-4 -0.00237,-0.00588 z M 3.3023713,2.2009414 c 2.258e-4,-0.00548 0.00134,-0.00659 0.00284,-0.00284 0.00136,0.0034 0.00119,0.00745 -3.711e-4,0.00902 -0.00156,0.00156 -0.00267,-0.00122 -0.00247,-0.00617 z M 1.0903774,1.7536202 c 0.0034,-0.00136 0.00745,-0.00119 0.00902,3.711e-4 0.00156,0.00156 -0.00122,0.00267 -0.00617,0.00247 -0.00548,-2.258e-4 -0.00659,-0.00134 -0.00284,-0.00284 z M 0.81953577,1.5875 c 0,-0.00905 9.6802e-4,-0.012759 0.002151,-0.00823 0.001183,0.00453 0.001183,0.011936 0,0.016463 -0.001183,0.00453 -0.002151,8.231e-4 -0.002151,-0.00823 z M 3.8188073,1.4663796 c -0.00585,-0.00746 -0.00568,-0.00763 0.00178,-0.00178 0.00784,0.00614 0.010327,0.010007 0.00646,0.010007 -9.767e-4,0 -0.00468,-0.0037 -0.00823,-0.00823 z M 2.3039329,0.82699055 c 0.0034,-0.001359 0.00745,-0.001192 0.00902,3.7134e-4 0.00156,0.001563 -0.00122,0.002675 -0.00617,0.00247 -0.00548,-2.257e-4 -0.00659,-0.00134 -0.00284,-0.002842 z"
         id="path643" /><path
         style="fill:#ffffff;fill-opacity:1;stroke-width:0.0047037"
         d="m 3.1788217,2.9248424 c 0.0034,-0.00136 0.00745,-0.00119 0.00902,3.711e-4 0.00156,0.00156 -0.00122,0.00267 -0.00617,0.00247 -0.00548,-2.258e-4 -0.00659,-0.00134 -0.00284,-0.00284 z m 0.4515555,-0.08937 c 0.0034,-0.00136 0.00745,-0.00119 0.00902,3.711e-4 0.00156,0.00156 -0.00122,0.00267 -0.00617,0.00247 -0.00548,-2.258e-4 -0.00659,-0.00134 -0.00284,-0.00284 z M 2.55015,2.5188333 c 0,-0.00647 0.00107,-0.00911 0.00237,-0.00588 0.0013,0.00323 0.0013,0.00853 0,0.011759 -0.0013,0.00323 -0.00237,5.879e-4 -0.00237,-0.00588 z M 1.7018588,2.4921017 c 0.0034,-0.00136 0.00745,-0.00119 0.00902,3.711e-4 0.00156,0.00156 -0.00122,0.00267 -0.00617,0.00247 -0.00548,-2.258e-4 -0.00659,-0.00134 -0.00284,-0.00284 z M 0.77140748,2.4417981 c 0,-9.767e-4 0.003704,-0.00468 0.008231,-0.00823 0.00746,-0.00585 0.007627,-0.00568 0.001776,0.00178 -0.006145,0.00784 -0.0100074,0.010327 -0.0100074,0.00646 z m 3.11120392,-0.9119185 -0.013815,-0.015287 0.015287,0.013815 c 0.00841,0.0076 0.015287,0.014477 0.015287,0.015287 0,0.00363 -0.00388,4.347e-4 -0.016759,-0.013815 z M 2.0781551,0.82699055 c 0.0034,-0.001359 0.00745,-0.001192 0.00902,3.7134e-4 0.00156,0.001563 -0.00122,0.002675 -0.00617,0.00247 -0.00548,-2.257e-4 -0.00659,-0.00134 -0.00284,-0.002842 z"
         id="path641" /><path
         style="fill:#ffffff;fill-opacity:1;stroke-width:0.0047037"
         d="m 0.03057418,3.2714259 c 0.0046825,-0.00517 0.0095719,-0.00941 0.01086544,-0.00941 0.0012935,0 -0.0014793,0.00423 -0.0061617,0.00941 -0.0046825,0.00517 -0.0095719,0.00941 -0.01086544,0.00941 -0.0012935,0 0.0014793,-0.00423 0.0061617,-0.00941 z M 3.1129698,2.9248424 c 0.0034,-0.00136 0.00745,-0.00119 0.00902,3.711e-4 0.00156,0.00156 -0.00122,0.00267 -0.00617,0.00247 -0.00548,-2.258e-4 -0.00659,-0.00134 -0.00284,-0.00284 z m 0.051741,0 c 0.0034,-0.00136 0.00745,-0.00119 0.00902,3.711e-4 0.00156,0.00156 -0.00122,0.00267 -0.00617,0.00247 -0.00548,-2.258e-4 -0.00659,-0.00134 -0.00284,-0.00284 z M 1.68275,2.4921996 c 0.00323,-0.0013 0.00853,-0.0013 0.011759,0 0.00323,0.0013 5.879e-4,0.00237 -0.00588,0.00237 -0.00647,0 -0.00911,-0.00107 -0.00588,-0.00237 z M 1.5808158,2.4173117 c 2.258e-4,-0.00548 0.00134,-0.00659 0.00284,-0.00284 0.00136,0.0034 0.00119,0.00745 -3.711e-4,0.00902 -0.00156,0.00156 -0.00267,-0.00122 -0.00247,-0.00617 z m 0,-0.028222 c 2.258e-4,-0.00548 0.00134,-0.00659 0.00284,-0.00284 0.00136,0.0034 0.00119,0.00745 -3.711e-4,0.00902 -0.00156,0.00156 -0.00267,-0.00122 -0.00247,-0.00617 z M 2.5250069,1.8476943 c 0.0034,-0.00136 0.00745,-0.00119 0.00902,3.711e-4 0.00156,0.00156 -0.00122,0.00267 -0.00617,0.00247 -0.00548,-2.258e-4 -0.00659,-0.00134 -0.00284,-0.00284 z M 1.0277593,1.8132778 c 0.00468,-0.00517 0.00957,-0.00941 0.010865,-0.00941 0.00129,0 -0.00148,0.00423 -0.00616,0.00941 -0.00468,0.00517 -0.00957,0.00941 -0.010865,0.00941 -0.00129,0 0.00148,-0.00423 0.00616,-0.00941 z m 2.8880739,-0.032926 c 0.00468,-0.00517 0.00957,-0.00941 0.010866,-0.00941 0.00129,0 -0.00148,0.00423 -0.00616,0.00941 -0.00468,0.00517 -0.00957,0.00941 -0.010865,0.00941 -0.00129,0 0.00148,-0.00423 0.00616,-0.00941 z M 3.85208,1.4993056 3.83587,1.4816666 l 0.017639,0.01621 c 0.016418,0.015088 0.019802,0.019068 0.01621,0.019068 -7.86e-4,0 -0.00872,-0.00794 -0.017639,-0.017639 z M 2.4215254,1.4337683 c 0.0034,-0.00136 0.00745,-0.00119 0.00902,3.712e-4 0.00156,0.00156 -0.00122,0.00267 -0.00617,0.00247 -0.00548,-2.257e-4 -0.00659,-0.00134 -0.00284,-0.00284 z M 2.0922662,0.82699055 c 0.0034,-0.001359 0.00745,-0.001192 0.00902,3.7134e-4 0.00156,0.001563 -0.00122,0.002675 -0.00617,0.00247 -0.00548,-2.257e-4 -0.00659,-0.00134 -0.00284,-0.002842 z m 0.1881481,0 c 0.0034,-0.001359 0.00745,-0.001192 0.00902,3.7134e-4 0.00156,0.001563 -0.00122,0.002675 -0.00617,0.00247 -0.00548,-2.257e-4 -0.00659,-0.00134 -0.00284,-0.002842 z"
         id="path639" /><path
         style="fill:#ffffff;fill-opacity:1;stroke-width:0.0047037"
         d="m 0.05174085,3.2502592 c 0.006076,-0.00647 0.01210558,-0.011759 0.0133991,-0.011759 0.0012935,0 -0.0026194,0.00529 -0.0086954,0.011759 -0.006076,0.00647 -0.01210558,0.011759 -0.0133991,0.011759 -0.0012935,0 0.0026194,-0.00529 0.0086954,-0.011759 z m 0.08466666,-0.088794 c 0,-9.767e-4 0.003704,-0.00468 0.008231,-0.00823 0.00746,-0.00585 0.007627,-0.00568 0.001776,0.00178 -0.006145,0.00784 -0.0100074,0.010327 -0.0100074,0.00646 z M 4.1909999,3.0297611 c 0,-9.767e-4 0.0037,-0.00468 0.00823,-0.00823 0.00746,-0.00585 0.00763,-0.00568 0.00178,0.00178 -0.00614,0.00784 -0.010007,0.010327 -0.010007,0.00646 z m -0.2590597,-0.020567 -0.011403,-0.012935 0.012935,0.011403 c 0.00711,0.00627 0.012935,0.012093 0.012935,0.012935 0,0.00369 -0.00381,6.866e-4 -0.014467,-0.011403 z M 3.1314907,2.924736 c 0.00582,-0.00112 0.015346,-0.00112 0.021167,0 0.00582,0.00112 0.00106,0.00204 -0.010583,0.00204 -0.011642,0 -0.016404,-9.173e-4 -0.010583,-0.00204 z m 0.9392688,-0.1954119 -0.013815,-0.015287 0.015287,0.013815 c 0.00841,0.0076 0.015287,0.014478 0.015287,0.015287 0,0.00363 -0.00388,4.346e-4 -0.016759,-0.013815 z m -1.380841,-0.00235 c -0.00585,-0.00746 -0.00568,-0.00763 0.00178,-0.00178 0.00453,0.00355 0.00823,0.00725 0.00823,0.00823 0,0.00387 -0.00386,0.00138 -0.010007,-0.00646 z M 2.5494074,2.466815 c 0,-0.00274 0.00212,-0.00367 0.0047,-0.00207 0.00259,0.0016 0.0047,0.00384 0.0047,0.00498 0,0.00114 -0.00212,0.00207 -0.0047,0.00207 -0.00259,0 -0.0047,-0.00224 -0.0047,-0.00498 z M 1.5808158,2.4032006 c 2.258e-4,-0.00548 0.00134,-0.00659 0.00284,-0.00284 0.00136,0.0034 0.00119,0.00745 -3.711e-4,0.00902 -0.00156,0.00156 -0.00267,-0.00122 -0.00247,-0.00617 z M 2.5058981,1.8477922 c 0.00323,-0.0013 0.00853,-0.0013 0.011759,0 0.00323,0.0013 5.879e-4,0.00237 -0.00588,0.00237 -0.00647,0 -0.00911,-0.00107 -0.00588,-0.00237 z m 0.03322,-9.78e-5 c 0.0034,-0.00136 0.00745,-0.00119 0.00902,3.711e-4 0.00156,0.00156 -0.00122,0.00267 -0.00617,0.00247 -0.00548,-2.258e-4 -0.00659,-0.00134 -0.00284,-0.00284 z M 2.31775,1.4338663 c 0.00323,-0.0013 0.00853,-0.0013 0.011759,0 0.00323,0.0013 5.88e-4,0.00237 -0.00588,0.00237 -0.00647,0 -0.00911,-0.00107 -0.00588,-0.00237 z M 2.1957477,1.2221017 c 0.0034,-0.00136 0.00745,-0.00119 0.00902,3.713e-4 0.00156,0.00156 -0.00122,0.00267 -0.00617,0.00247 -0.00548,-2.257e-4 -0.00659,-0.00134 -0.00284,-0.00284 z M 2.1085247,0.82694409 c 0.00458,-0.001193 0.010927,-0.001114 0.014111,1.7429e-4 0.00318,0.001288 -5.599e-4,0.002264 -0.00832,0.002168 -0.00776,-9.586e-5 -0.010367,-0.00115 -0.00579,-0.002343 z m 0.1505185,0 c 0.00458,-0.001193 0.010927,-0.001114 0.014111,1.7429e-4 0.00318,0.001288 -5.599e-4,0.002264 -0.00832,0.002168 -0.00776,-9.586e-5 -0.010367,-0.00115 -0.00579,-0.002343 z"
         id="path637" /><path
         style="fill:#ffffff;fill-opacity:1;stroke-width:0.0047037"
         d="m 0.02094546,3.3266944 -0.0185935,-0.019991 0.01999074,0.018594 c 0.01099491,0.010226 0.01999074,0.019222 0.01999074,0.019991 0,0.00356 -0.0040962,-2.3e-6 -0.02138798,-0.018594 z m 0.38357315,-0.071731 c 0.0166663,-0.016816 0.0313606,-0.030574 0.0326542,-0.030574 0.001294,0 -0.0112842,0.013758 -0.0279505,0.030574 -0.0166663,0.016816 -0.0313606,0.030574 -0.0326542,0.030574 -0.001294,0 0.0112842,-0.013758 0.0279505,-0.030574 z M 0.08231492,3.2196852 c 0.0101047,-0.010348 0.01943051,-0.018815 0.02072403,-0.018815 0.001294,0 -0.0059156,0.00847 -0.01602033,0.018815 C 0.07691393,3.2300333 0.06758812,3.2385 0.0662946,3.2385 c -0.0012935,0 0.0059156,-0.00847 0.01602032,-0.018815 z m 0.37864813,-0.025294 c 0,-9.767e-4 0.003704,-0.00468 0.008231,-0.00823 0.00746,-0.00585 0.007627,-0.00568 0.001776,0.00178 -0.006145,0.00784 -0.0100074,0.010327 -0.0100074,0.00646 z M 0.15051862,3.1473537 c 0,-9.767e-4 0.003704,-0.00468 0.008231,-0.00823 0.00746,-0.00585 0.007627,-0.00568 0.001776,0.00178 -0.006145,0.00784 -0.0100074,0.010327 -0.0100074,0.00646 z m 0.0376296,-0.042333 c 0,-9.767e-4 0.003704,-0.00468 0.008231,-0.00823 0.00746,-0.00585 0.007627,-0.00568 0.001776,0.00178 -0.006145,0.00784 -0.0100074,0.010327 -0.0100074,0.00646 z M 2.7113892,2.7481389 2.697574,2.7328518 2.7128611,2.746667 c 0.00841,0.0076 0.015287,0.014478 0.015287,0.015287 0,0.00363 -0.00388,4.346e-4 -0.016759,-0.013815 z M 1.4863704,2.6152592 c 0.00878,-0.00905 0.017015,-0.016463 0.018308,-0.016463 0.00129,0 -0.00483,0.00741 -0.013605,0.016463 -0.00878,0.00905 -0.017015,0.016463 -0.018308,0.016463 -0.00129,0 0.00483,-0.00741 0.013605,-0.016463 z M 3.2976676,2.365571 c 2.258e-4,-0.00548 0.00134,-0.00659 0.00284,-0.00284 0.00136,0.0034 0.00119,0.00745 -3.711e-4,0.00902 -0.00156,0.00156 -0.00267,-0.00122 -0.00247,-0.00617 z M 1.5362912,2.2122319 c 0.00136,-0.0022 0.00444,-0.00278 0.00685,-0.00129 0.00615,0.0038 0.00546,0.00529 -0.00247,0.00529 -0.00377,0 -0.00574,-0.0018 -0.00438,-0.004 z M 3.3749073,1.9637963 c 0.00468,-0.00517 0.00957,-0.00941 0.010865,-0.00941 0.00129,0 -0.00148,0.00423 -0.00616,0.00941 -0.00468,0.00517 -0.00957,0.00941 -0.010865,0.00941 -0.00129,0 0.00148,-0.00423 0.00616,-0.00941 z M 2.492081,1.8476943 c 0.0034,-0.00136 0.00745,-0.00119 0.00902,3.711e-4 0.00156,0.00156 -0.00122,0.00267 -0.00617,0.00247 -0.00548,-2.258e-4 -0.00659,-0.00134 -0.00284,-0.00284 z M 0.99483339,1.7897593 c 0.004682,-0.00517 0.009572,-0.00941 0.0108655,-0.00941 0.00129,0 -0.00148,0.00423 -0.006162,0.00941 -0.004682,0.00517 -0.009572,0.00941 -0.0108655,0.00941 -0.001294,0 0.001479,-0.00423 0.006162,-0.00941 z M 3.9646221,1.6216019 c -0.00585,-0.00746 -0.00568,-0.00763 0.00178,-0.00178 0.00784,0.00614 0.010327,0.010007 0.00646,0.010007 -9.767e-4,0 -0.00468,-0.0037 -0.00823,-0.00823 z m -0.042089,-0.047037 -0.011403,-0.012935 0.012935,0.011403 c 0.00711,0.00627 0.012935,0.012093 0.012935,0.012935 0,0.00369 -0.00381,6.866e-4 -0.014467,-0.011403 z m -2.87386,-0.1317037 -0.01621,-0.017639 0.017639,0.01621 c 0.016418,0.015088 0.019802,0.019068 0.01621,0.019068 -7.861e-4,0 -0.00872,-0.00794 -0.017639,-0.017639 z m 2.7445682,0.00235 -0.013815,-0.015287 0.015287,0.013815 c 0.00841,0.0076 0.015287,0.014478 0.015287,0.015287 0,0.00363 -0.00388,4.346e-4 -0.016759,-0.013815 z M 2.3365648,1.4338663 c 0.00323,-0.0013 0.00853,-0.0013 0.011759,0 0.00323,0.0013 5.879e-4,0.00237 -0.00588,0.00237 -0.00647,0 -0.00911,-0.00107 -0.00588,-0.00237 z m 0.042333,-2.041e-4 c 0.00582,-0.00112 0.015346,-0.00112 0.021167,0 0.00582,0.00112 0.00106,0.00204 -0.010583,0.00204 -0.011642,0 -0.016404,-9.173e-4 -0.010583,-0.00204 z M 3.743548,1.4005278 c -0.00585,-0.00746 -0.00568,-0.00763 0.00178,-0.00178 0.00453,0.00355 0.00823,0.00725 0.00823,0.00823 0,0.00387 -0.00386,0.00138 -0.010007,-0.00646 z M 0.96425932,1.3476111 c -0.004239,-0.00274 -0.00482,-0.00459 -0.001454,-0.00463 0.003081,-3.76e-5 0.00691,0.00204 0.008509,0.00463 0.003609,0.00584 0.001981,0.00584 -0.007055,0 z M 1.7568072,1.1970638 c -0.0047,-0.00519 -0.00767,-0.010274 -0.00661,-0.011299 0.00106,-0.00102 0.00573,0.00322 0.010382,0.00944 0.010265,0.013724 0.00798,0.014851 -0.00377,0.00186 z m 0.2021592,-0.1516656 -0.0328,-0.034102 0.034102,0.0328 c 0.031674,0.030464 0.03625,0.035404 0.0328,0.035404 -7.161e-4,0 -0.016062,-0.015346 -0.034102,-0.034102 z M 2.3415625,0.83169425 c 0.0034,-0.001359 0.00745,-0.001192 0.00902,3.7134e-4 0.00156,0.001563 -0.00122,0.002675 -0.00617,0.00247 -0.00548,-2.257e-4 -0.00659,-0.00134 -0.00284,-0.002842 z m -0.2049051,-0.00486 c 0.00711,-0.001078 0.018756,-0.001078 0.02587,0 0.00711,0.001078 0.00129,0.00196 -0.012935,0.00196 -0.014229,0 -0.02005,-8.8178e-4 -0.012935,-0.00196 z m 0.087019,4.948e-5 c 0.00582,-0.001121 0.015346,-0.001121 0.021167,0 0.00582,0.001121 0.00106,0.002038 -0.010583,0.002038 -0.011642,0 -0.016404,-9.1729e-4 -0.010583,-0.002038 z"
         id="path635" /><path
         style="fill:#ffffff;fill-opacity:1;stroke-width:0.0047037"
         d="M 0.12520206,3.3887565 C 0.09466963,3.3811436 0.05465831,3.3569907 0.02820387,3.3302035 L 0.00311275,3.3047968 0.06152865,3.2444396 C 0.26832053,3.0307755 0.31267572,2.9622357 0.3837536,2.7465218 0.4032228,2.6874348 0.4248554,2.6285406 0.4318261,2.6156455 c 0.026757,-0.049498 0.0647931,-0.073584 0.13026659,-0.08249 0.0549303,-0.00747 0.0885338,-0.017501 0.13875925,-0.041414 0.036063,-0.01717 0.0510754,-0.027727 0.0778029,-0.054712 0.0545651,-0.055091 0.0748901,-0.1025719 0.11274688,-0.2633836 0.0269042,-0.1142865 0.0661762,-0.2377449 0.0921055,-0.28955 C 1.0055941,1.8399679 1.0409216,1.8009299 1.0842238,1.772801 l 0.028202,-0.01832 -0.020451,-0.00147 C 1.0494868,1.749961 1.0071948,1.772325 0.97460697,1.81508 L 0.96426897,1.828643 0.94440727,1.815499 C 0.91636207,1.796939 0.88319077,1.761644 0.86394237,1.72988 0.80496007,1.632549 0.81157137,1.5133157 0.88115127,1.4195206 c 0.0209959,-0.028303 0.0704132,-0.071903 0.0815029,-0.07191 0.002998,-1.7e-6 0.0162683,0.013763 0.0294903,0.030587 0.0577459,0.07348 0.13492773,0.1386788 0.21005363,0.1774405 0.1035632,0.053434 0.1777655,0.07078 0.4283481,0.1001325 0.2674498,0.031328 0.3837261,0.055759 0.5848983,0.1228942 0.06597,0.022015 0.1411111,0.045071 0.1669815,0.051236 0.1548424,0.036897 0.2557652,0.022264 0.3317715,-0.048104 0.064239,-0.059474 0.1040678,-0.1460919 0.1336824,-0.2907262 0.017988,-0.087852 0.042809,-0.1808041 0.056616,-0.2120241 0.00656,-0.014827 0.011341,-0.02754 0.01063,-0.028251 -7.107e-4,-7.107e-4 -0.021376,0.01241 -0.045922,0.029157 C 2.7213758,1.3808146 2.5532619,1.4324223 2.3709342,1.4329154 2.2107855,1.4333486 2.0711305,1.3976914 1.9321569,1.3208858 1.8655899,1.2840967 1.7544815,1.2009668 1.7544815,1.1879513 c 0,-0.00426 0.033647,-0.01968 0.1027716,-0.047102 l 0.048679,-0.019312 0.025675,0.017042 c 0.055843,0.037066 0.1411837,0.068366 0.2179657,0.079941 0.024588,0.00371 0.047351,0.00675 0.050584,0.00677 0.012113,5.71e-5 0.00521,-0.00825 -0.014042,-0.016897 -0.1194249,-0.05363 -0.2710616,-0.1920526 -0.3536263,-0.32281259 -0.019999,-0.031673 -0.025793,-0.0278273 0.0584,-0.0387611 0.1370555,-0.0177986 0.3451002,-0.0230845 0.4797777,-0.0121898 0.5166533,0.0417944 0.9873233,0.23396089 1.3617222,0.55596779 0.062268,0.053554 0.1755263,0.1648913 0.2254644,0.2216393 l 0.032117,0.036496 -0.012478,0.034059 c -0.031387,0.085672 -0.110862,0.153355 -0.2215844,0.188708 -0.056226,0.017953 -0.072602,0.020737 -0.1696845,0.028848 -0.1160789,0.0097 -0.1485228,0.017803 -0.1902468,0.047521 -0.025728,0.018325 -0.048621,0.049201 -0.063343,0.085433 -0.021458,0.052808 -0.02627,0.089881 -0.030667,0.2362343 l -0.00417,0.1387593 0.012684,0.010658 c 0.017804,0.01496 0.068215,0.029914 0.1773139,0.052598 0.2350521,0.048872 0.3569745,0.093071 0.4772803,0.1730219 0.067789,0.045051 0.14502,0.1209675 0.1874804,0.1842914 0.038731,0.057762 0.077858,0.1384727 0.074198,0.1530547 -0.00424,0.016876 -0.041804,0.055715 -0.067043,0.06931 C 4.084643,3.0916661 3.989627,3.0702135 3.9283369,2.9989899 3.8645821,2.9249023 3.8330694,2.8973921 3.7862845,2.8749801 3.7316961,2.8488298 3.6942321,2.839003 3.6355283,2.8354364 3.5742707,2.8317148 3.5157498,2.8420854 3.4011267,2.8769754 3.288096,2.9113806 3.2217083,2.9233835 3.1451344,2.9232587 3.0444662,2.9230945 2.9688951,2.9063081 2.8810185,2.864591 2.7653852,2.8096972 2.6672824,2.7163749 2.6065531,2.6035 2.5869641,2.5670909 2.5588148,2.4897148 2.5588148,2.4722784 c 0,-0.00544 -0.00212,-0.00989 -0.0047,-0.00989 -0.00726,0 -0.00566,0.07795 0.00257,0.1252079 0.014194,0.081553 0.051388,0.1739372 0.098033,0.2434973 0.011933,0.017795 0.021697,0.032875 0.021697,0.03351 0,0.00296 -0.064257,-0.012821 -0.1061932,-0.026086 C 2.490772,2.8133888 2.394168,2.7699671 2.2077076,2.6755778 2.0122781,2.5766482 1.9471517,2.547123 1.8690893,2.5220643 1.796815,2.4988637 1.7687625,2.493829 1.709196,2.493368 L 1.656855,2.492963 1.654465,2.467093 C 1.647035,2.386816 1.601111,2.2791925 1.5490832,2.2201485 c -0.018754,-0.021282 -0.019018,-0.023084 0.00829,0.056445 0.016779,0.048861 0.019698,0.063396 0.021721,0.1081852 0.00172,0.038147 3.325e-4,0.060251 -0.00529,0.084134 C 1.5454652,2.5892117 1.4148193,2.7023121 1.2394914,2.7583232 1.1777608,2.7780439 1.1160453,2.7916374 0.96957069,2.817776 0.85520358,2.8381849 0.80610707,2.8516539 0.75259266,2.8773009 0.70217056,2.9014659 0.66445439,2.9384462 0.58329391,3.0432963 0.457989,3.205176 0.37606893,3.2928756 0.3077155,3.3383169 0.2442967,3.3804779 0.17206189,3.4004409 0.12520206,3.3887565 Z"
         id="path633" /></g></g></svg>
