<?xml version="1.0" encoding="UTF-8" standalone="no"?>
<!-- Created with Inkscape (http://www.inkscape.org/) -->

<svg
   width="197.0424"
   height="40.54184"
   viewBox="0 0 52.134134 10.726695"
   version="1.1"
   id="svg5"
   xml:space="preserve"
   xmlns:inkscape="http://www.inkscape.org/namespaces/inkscape"
   xmlns:sodipodi="http://sodipodi.sourceforge.net/DTD/sodipodi-0.dtd"
   xmlns="http://www.w3.org/2000/svg"
   xmlns:svg="http://www.w3.org/2000/svg"><sodipodi:namedview
     id="namedview7"
     pagecolor="#000000"
     bordercolor="#000000"
     borderopacity="0.25"
     inkscape:showpageshadow="2"
     inkscape:pageopacity="1"
     inkscape:pagecheckerboard="0"
     inkscape:deskcolor="#d1d1d1"
     inkscape:document-units="mm"
     showgrid="false" /><defs
     id="defs2" /><g
     inkscape:label="Layer 1"
     inkscape:groupmode="layer"
     id="layer1"
     transform="translate(0,-3.1033188)"><path
       style="fill:#ffffff;stroke-width:0.264583"
       d="M 11.12372,13.723077 C 9.86606,13.490728 9.1426,13.064594 8.51901,12.188852 7.30506,10.484019 7.5806,7.9789429 9.13187,6.6169059 c 1.94332,-1.706251 5.19996,-1.253911 6.41479,0.890996 0.32749,0.578228 0.5974,1.171178 0.59979,1.317667 0.002,0.146489 -1.21184,0.75898 -2.6983,1.3610931 -1.48646,0.602112 -2.74203,1.212865 -2.79015,1.357228 -0.0481,0.144363 0.27775,0.389804 0.72417,0.545424 0.6304,0.219759 1.10891,0.186943 2.14275,-0.146951 1.28986,-0.416579 1.34815,-0.412844 1.88157,0.120581 l 0.55048,0.550477 -1.02756,0.514861 c -1.23704,0.619819 -2.55515,0.825828 -3.80569,0.594795 z m 1.25445,-4.6549331 c 1.50496,-0.66204 1.62129,-1.124716 0.42039,-1.671885 -1.26295,-0.575436 -2.99775,0.517372 -2.99775,1.888376 0,0.8727961 0.12507,0.8622901 2.57736,-0.216491 z m 17.24325,4.6444341 c -1.91209,-0.32489 -3.42412,-2.171229 -3.41209,-4.1665191 0.0114,-1.897396 2.3191,-4.029541 4.36127,-4.029541 1.04958,0 3.00705,1.002231 3.62944,1.858287 0.74327,1.022323 0.87619,2.461286 0.35372,3.8293491 -0.73166,1.915815 -2.65708,2.895022 -4.93234,2.508424 z m 2.42474,-2.354874 C 33.5784,9.8254649 32.6304,7.3976399 30.49182,7.3770149 c -2.00816,-0.01937 -2.88836,2.489109 -1.39678,3.9806891 1.00356,1.003562 1.94756,1.003562 2.95112,0 z m 14.86909,2.358114 c -1.98498,-0.447248 -3.24516,-1.997062 -3.24679,-3.9929851 -0.003,-3.100242 3.31693,-5.080914 6.18685,-3.691612 1.55033,0.750502 2.27883,1.915614 2.27883,3.644587 0,2.7215401 -2.49579,4.6535681 -5.21889,4.0400101 z m 2.46209,-2.197405 c 0.56425,-0.485348 0.71229,-0.845008 0.71229,-1.7304801 0,-1.473954 -0.84081,-2.419332 -2.15174,-2.419332 -1.36363,0 -2.15375,0.846607 -2.15375,2.307713 0,2.1256051 2.04486,3.1739281 3.5932,1.8420991 z M 0.07178,8.4930799 l 0.0717,-5.225521 0.99218,-0.08212 0.99219,-0.08212 v 4.381597 4.3815971 h 2.64583 2.64584 v 0.926042 0.926041 H 3.70976 0 Z m 17.13736,1.256771 v -3.96875 h 1.05833 c 0.72793,0 1.05834,0.114997 1.05834,0.368353 0,0.290986 0.20625,0.2632 0.98198,-0.132292 1.17388,-0.598475 1.90569,-0.627798 3.10998,-0.124613 1.40017,0.585025 1.72887,1.517123 1.72887,4.9024961 v 2.923556 h -1.05833 -1.05834 v -2.645833 c 0,-3.0421831 -0.3473,-3.7041671 -1.94336,-3.7041671 -1.48494,0 -1.7608,0.573237 -1.7608,3.6588541 v 2.691146 H 18.26747 17.20914 Z M 37.9997,13.487619 c -0.27211,-0.440285 -3.06348,-7.2682371 -3.06348,-7.4935631 0,-0.117125 0.51819,-0.212955 1.15153,-0.212955 h 1.15152 l 0.72739,2.050521 c 0.40006,1.127786 0.78873,2.3184111 0.8637,2.6458331 0.075,0.327422 0.22704,0.595313 0.33794,0.595313 0.2073,0 0.2567,-0.114346 1.45745,-3.3734381 l 0.70674,-1.918229 h 1.16363 1.16363 l -0.5326,1.389062 c -0.29293,0.763985 -0.64486,1.627188 -0.78206,1.91823 -0.1372,0.291041 -0.59622,1.4221351 -1.02004,2.5135411 l -0.77058,1.984376 -1.19765,0.07966 C 38.69811,13.70978 38.0874,13.62953 37.9997,13.487616 Z"
       id="path876" /></g></svg>
