<?xml version="1.0" encoding="UTF-8" standalone="no"?>
<svg
   viewBox="0 0 196.04 130.578"
   version="1.1"
   id="svg43"
   sodipodi:docname="sideline_logo.svg"
   inkscape:version="1.2.1 (9c6d41e4, 2022-07-14)"
   xmlns:inkscape="http://www.inkscape.org/namespaces/inkscape"
   xmlns:sodipodi="http://sodipodi.sourceforge.net/DTD/sodipodi-0.dtd"
   xmlns="http://www.w3.org/2000/svg"
   xmlns:svg="http://www.w3.org/2000/svg">
  <sodipodi:namedview
     id="namedview45"
     pagecolor="#ffffff"
     bordercolor="#000000"
     borderopacity="0.25"
     inkscape:showpageshadow="2"
     inkscape:pageopacity="0.0"
     inkscape:pagecheckerboard="0"
     inkscape:deskcolor="#d1d1d1"
     showgrid="false"
     inkscape:zoom="1.8073488"
     inkscape:cx="45.646971"
     inkscape:cy="65.289001"
     inkscape:window-width="1680"
     inkscape:window-height="1050"
     inkscape:window-x="0"
     inkscape:window-y="67"
     inkscape:window-maximized="0"
     inkscape:current-layer="svg43" />
  <defs
     id="defs4">
    <style
       id="style2">
      .cls-1 {
        fill: #1b1b1b;
        stroke-width: 0.365px;
      }

      .cls-1, .cls-5 {
        stroke: #fff;
      }

      .cls-2, .cls-3, .cls-4 {
        fill: #fff;
        font-family: Gotham-Light, Gotham;
        font-weight: 300;
      }

      .cls-2 {
        font-size: 32px;
      }

      .cls-3 {
        font-size: 31px;
      }

      .cls-4 {
        font-size: 11px;
        letter-spacing: 0.088em;
      }

      .cls-5 {
        fill: none;
        stroke-width: 1.462px;
      }
    </style>
  </defs>
  <g
     id="g559">
    <rect
       id="rect1070"
       class="cls-1"
       width="48.432999"
       height="48.432999"
       x="1.5779999"
       y="0.73100001" />
    <rect
       id="rect1072"
       class="cls-1"
       width="48.432999"
       height="48.432999"
       x="50.011002"
       y="0.73100001" />
    <rect
       id="rect1078"
       class="cls-1"
       width="48.432999"
       height="48.432999"
       x="98.444"
       y="0.73100001" />
    <rect
       id="rect1080"
       class="cls-1"
       width="48.432999"
       height="48.432999"
       x="146.87601"
       y="0.73100001" />
    <rect
       id="rect1082"
       class="cls-1"
       width="48.432999"
       height="48.432999"
       x="98.444"
       y="49.164001" />
    <rect
       id="rect1084"
       class="cls-1"
       width="48.432999"
       height="48.432999"
       x="146.87601"
       y="49.164001" />
    <rect
       id="rect1074"
       class="cls-1"
       width="48.432999"
       height="48.432999"
       x="1.5779999"
       y="49.164001" />
    <rect
       id="rect1076"
       class="cls-1"
       width="48.432999"
       height="48.432999"
       x="50.011002"
       y="49.164001" />
    <path
       d="m 32.33,30.282001 v -0.064 q 0,-2.464 -1.728,-3.904 -1.728,-1.472 -5.632,-2.272 -1.984,-0.416 -3.264,-0.896 -1.28,-0.48 -2.016,-1.056 -0.704,-0.608 -0.992,-1.312 -0.256,-0.736 -0.256,-1.632 v -0.064 q 0,-0.864 0.384,-1.632 0.384,-0.768 1.088,-1.344 0.736,-0.576 1.728,-0.896 1.024,-0.352 2.272,-0.352 1.856,0 3.456,0.576 1.632,0.576 3.232,1.952 l 1.056,-1.312 q -1.696,-1.376 -3.488,-2.048 -1.76,-0.672 -4.192,-0.672 -1.568,0 -2.88,0.448 -1.312,0.448 -2.272,1.248 -0.96,0.8 -1.504,1.888 -0.544,1.056 -0.544,2.304 v 0.064 q 0,1.28 0.416,2.272 0.416,0.992 1.312,1.76 0.928,0.736 2.368,1.312 1.44,0.544 3.456,0.96 1.92,0.384 3.136,0.864 1.216,0.448 1.92,1.024 0.736,0.576 0.992,1.28 0.288,0.704 0.288,1.6 v 0.064 q 0,0.96 -0.416,1.792 -0.416,0.8 -1.152,1.408 -0.736,0.576 -1.792,0.928 -1.056,0.32 -2.304,0.32 -1.248,0 -2.304,-0.192 -1.056,-0.224 -2.016,-0.608 -0.96,-0.416 -1.888,-1.024 -0.896,-0.64 -1.824,-1.504 l -1.088,1.248 q 2.016,1.792 4.16,2.688 2.176,0.896 4.864,0.896 1.632,0 2.976,-0.448 1.376,-0.448 2.336,-1.248 0.992,-0.8 1.536,-1.92 0.576,-1.152 0.576,-2.496 z"
       id="path448"
       style="font-weight:300;font-size:32px;font-family:Gotham-Light, Gotham;fill:#ffffff" />
    <path
       d="m 74.837002,36.382 v -22.4 h -1.664 v 22.4 z"
       id="path453"
       style="font-weight:300;font-size:32px;font-family:Gotham-Light, Gotham;fill:#ffffff" />
    <path
       d="m 32.091,84.815002 v -1.488 H 19.35 v -20.212 h -1.612 v 21.7 z"
       id="path458"
       style="font-weight:300;font-size:31px;font-family:Gotham-Light, Gotham;fill:#ffffff" />
    <path
       d="m 75.254002,84.815002 v -22.4 h -1.664 v 22.4 z"
       id="path463"
       style="font-weight:300;font-size:32px;font-family:Gotham-Light, Gotham;fill:#ffffff" />
    <path
       d="m 131.68,25.182 v -0.064 q 0,-2.368 -0.864,-4.384 -0.864,-2.048 -2.464,-3.552 -1.568,-1.504 -3.776,-2.336 -2.176,-0.864 -4.8,-0.864 h -7.456 v 22.4 h 7.456 q 2.624,0 4.8,-0.864 2.208,-0.864 3.776,-2.368 1.6,-1.504 2.464,-3.552 0.864,-2.048 0.864,-4.416 z m -1.728,0.064 q 0,2.016 -0.736,3.776 -0.704,1.728 -2.016,3.04 -1.312,1.28 -3.2,2.048 -1.888,0.736 -4.224,0.736 h -5.792 V 15.518 h 5.792 q 2.336,0 4.224,0.768 1.888,0.768 3.2,2.08 1.312,1.312 2.016,3.072 0.736,1.76 0.736,3.744 z"
       id="path468"
       style="font-weight:300;font-size:32px;font-family:Gotham-Light, Gotham;fill:#ffffff" />
    <path
       d="m 131.33,84.815002 v -22.4 h -1.6 v 19.488 l -15.456,-19.488 h -1.568 v 22.4 h 1.6 v -19.904 l 15.776,19.904 z"
       id="path473"
       style="font-weight:300;font-size:32px;font-family:Gotham-Light, Gotham;fill:#ffffff" />
    <path
       d="m 178.56301,36.382 v -1.536 h -14.432 v -8.992 h 12.832 v -1.536 h -12.832 v -8.8 h 14.272 v -1.536 h -15.936 v 22.4 z"
       id="path478"
       style="font-weight:300;font-size:32px;font-family:Gotham-Light, Gotham;fill:#ffffff" />
    <path
       d="m 178.56301,84.815002 v -1.536 h -14.432 v -8.992 h 12.832 v -1.536 h -12.832 v -8.8 h 14.272 v -1.536 h -15.936 v 22.4 z"
       id="path483"
       style="font-weight:300;font-size:32px;font-family:Gotham-Light, Gotham;fill:#ffffff" />
    <path
       d="m 7.799,125.72899 v -0.022 q 0,-0.814 -0.297,-1.507 -0.297,-0.704 -0.847,-1.221 -0.539,-0.517 -1.298,-0.803 -0.748,-0.297 -1.65,-0.297 H 1.144 v 7.7 h 2.563 q 0.902,0 1.65,-0.297 0.759,-0.297 1.298,-0.814 0.55,-0.517 0.847,-1.221 0.297,-0.704 0.297,-1.518 z m -0.594,0.022 q 0,0.693 -0.253,1.298 -0.242,0.594 -0.693,1.045 -0.451,0.44 -1.1,0.704 -0.649,0.253 -1.452,0.253 H 1.716 v -6.644 h 1.991 q 0.803,0 1.452,0.264 0.649,0.264 1.1,0.715 0.451,0.451 0.693,1.056 0.253,0.605 0.253,1.287 z"
       id="path355"
       style="font-weight:300;font-size:11px;font-family:Gotham-Light, Gotham;letter-spacing:0.088em;fill:#ffffff" />
    <path
       d="m 11.362996,129.57899 v -7.7 h -0.572 v 7.7 z"
       id="path357"
       style="font-weight:300;font-size:11px;font-family:Gotham-Light, Gotham;letter-spacing:0.088em;fill:#ffffff" />
    <path
       d="m 21.251976,128.55599 v -2.97 h -3.124 v 0.528 h 2.574 v 2.211 q -0.209,0.176 -0.484,0.341 -0.275,0.154 -0.594,0.275 -0.308,0.121 -0.66,0.198 -0.352,0.066 -0.715,0.066 -0.77,0 -1.386,-0.264 -0.605,-0.264 -1.034,-0.726 -0.429,-0.462 -0.66,-1.1 -0.22,-0.638 -0.22,-1.386 v -0.022 q 0,-0.693 0.231,-1.32 0.231,-0.627 0.649,-1.1 0.429,-0.473 1.012,-0.748 0.583,-0.275 1.287,-0.275 0.869,0 1.441,0.264 0.583,0.264 1.034,0.66 l 0.374,-0.429 q -0.286,-0.242 -0.594,-0.429 -0.297,-0.187 -0.638,-0.319 -0.33,-0.132 -0.726,-0.198 -0.385,-0.066 -0.858,-0.066 -0.858,0 -1.562,0.33 -0.704,0.33 -1.21,0.88 -0.495,0.55 -0.77,1.276 -0.264,0.715 -0.264,1.496 v 0.022 q 0,0.814 0.264,1.54 0.264,0.715 0.759,1.254 0.495,0.539 1.21,0.858 0.726,0.308 1.639,0.308 0.946,0 1.716,-0.341 0.781,-0.352 1.309,-0.814 z"
       id="path359"
       style="font-weight:300;font-size:11px;font-family:Gotham-Light, Gotham;letter-spacing:0.088em;fill:#ffffff" />
    <path
       d="m 24.936959,129.57899 v -7.7 h -0.572 v 7.7 z"
       id="path361"
       style="font-weight:300;font-size:11px;font-family:Gotham-Light, Gotham;letter-spacing:0.088em;fill:#ffffff" />
    <path
       d="m 33.65994,122.40699 v -0.528 h -5.94 v 0.528 h 2.684 v 7.172 h 0.572 v -7.172 z"
       id="path363"
       style="font-weight:300;font-size:11px;font-family:Gotham-Light, Gotham;letter-spacing:0.088em;fill:#ffffff" />
    <path
       d="m 42.437926,129.57899 -3.586,-7.755 h -0.55 l -3.586,7.755 h 0.594 l 0.979,-2.156 h 4.543 l 0.979,2.156 z m -1.848,-2.673 h -4.059 l 2.035,-4.455 z"
       id="path365"
       style="font-weight:300;font-size:11px;font-family:Gotham-Light, Gotham;letter-spacing:0.088em;fill:#ffffff" />
    <path
       d="m 50.126915,129.57899 v -0.528 h -4.521 v -7.172 h -0.572 v 7.7 z"
       id="path367"
       style="font-weight:300;font-size:11px;font-family:Gotham-Light, Gotham;letter-spacing:0.088em;fill:#ffffff" />
    <path
       d="m 62.237902,127.58799 v -0.022 q 0,-0.847 -0.594,-1.342 -0.594,-0.506 -1.936,-0.781 -0.682,-0.143 -1.122,-0.308 -0.44,-0.165 -0.693,-0.363 -0.242,-0.209 -0.341,-0.451 -0.088,-0.253 -0.088,-0.561 v -0.022 q 0,-0.297 0.132,-0.561 0.132,-0.264 0.374,-0.462 0.253,-0.198 0.594,-0.308 0.352,-0.121 0.781,-0.121 0.638,0 1.188,0.198 0.561,0.198 1.111,0.671 l 0.363,-0.451 q -0.583,-0.473 -1.199,-0.704 -0.605,-0.231 -1.441,-0.231 -0.539,0 -0.99,0.154 -0.451,0.154 -0.781,0.429 -0.33,0.275 -0.517,0.649 -0.187,0.363 -0.187,0.792 v 0.022 q 0,0.44 0.143,0.781 0.143,0.341 0.451,0.605 0.319,0.253 0.814,0.451 0.495,0.187 1.188,0.33 0.66,0.132 1.078,0.297 0.418,0.154 0.66,0.352 0.253,0.198 0.341,0.44 0.099,0.242 0.099,0.55 v 0.022 q 0,0.33 -0.143,0.616 -0.143,0.275 -0.396,0.484 -0.253,0.198 -0.616,0.319 -0.363,0.11 -0.792,0.11 -0.429,0 -0.792,-0.066 -0.363,-0.077 -0.693,-0.209 -0.33,-0.143 -0.649,-0.352 -0.308,-0.22 -0.627,-0.517 l -0.374,0.429 q 0.693,0.616 1.43,0.924 0.748,0.308 1.672,0.308 0.561,0 1.023,-0.154 0.473,-0.154 0.803,-0.429 0.341,-0.275 0.528,-0.66 0.198,-0.396 0.198,-0.858 z"
       id="path369"
       style="font-weight:300;font-size:11px;font-family:Gotham-Light, Gotham;letter-spacing:0.088em;fill:#ffffff" />
    <path
       d="m 70.740894,124.25499 v -0.022 q 0,-0.561 -0.209,-0.99 -0.209,-0.44 -0.594,-0.737 -0.374,-0.308 -0.902,-0.462 -0.517,-0.165 -1.155,-0.165 h -2.794 v 7.7 h 0.572 v -2.871 h 2.079 q 0.605,0 1.144,-0.154 0.55,-0.154 0.957,-0.462 0.418,-0.308 0.66,-0.77 0.242,-0.462 0.242,-1.067 z m -0.572,0.033 q 0,0.429 -0.176,0.781 -0.176,0.352 -0.495,0.605 -0.308,0.242 -0.748,0.374 -0.44,0.132 -0.979,0.132 h -2.112 v -3.773 h 2.178 q 0.517,0 0.946,0.121 0.429,0.121 0.737,0.352 0.308,0.231 0.473,0.583 0.176,0.341 0.176,0.803 z"
       id="path371"
       style="font-weight:300;font-size:11px;font-family:Gotham-Light, Gotham;letter-spacing:0.088em;fill:#ffffff" />
    <path
       d="m 80.805888,125.72899 q 0.011,-0.011 0,-0.022 0,-0.792 -0.275,-1.507 -0.275,-0.715 -0.781,-1.254 -0.506,-0.55 -1.221,-0.869 -0.715,-0.33 -1.584,-0.33 -0.88,0 -1.595,0.33 -0.715,0.319 -1.221,0.869 -0.506,0.55 -0.792,1.276 -0.275,0.715 -0.275,1.507 v 0.022 q 0,0.792 0.275,1.507 0.275,0.715 0.781,1.265 0.506,0.539 1.21,0.869 0.715,0.319 1.595,0.319 0.869,0 1.584,-0.319 0.726,-0.33 1.232,-0.88 0.506,-0.55 0.781,-1.265 0.286,-0.726 0.286,-1.518 z m -0.594,0.022 q 0,0.715 -0.242,1.342 -0.242,0.627 -0.682,1.1 -0.429,0.462 -1.034,0.737 -0.594,0.264 -1.309,0.264 -0.715,0 -1.32,-0.275 -0.605,-0.275 -1.045,-0.737 -0.429,-0.473 -0.682,-1.1 -0.242,-0.638 -0.242,-1.353 v -0.022 q 0,-0.715 0.242,-1.342 0.242,-0.627 0.671,-1.089 0.44,-0.473 1.034,-0.737 0.605,-0.275 1.32,-0.275 0.715,0 1.32,0.275 0.605,0.275 1.034,0.748 0.44,0.462 0.682,1.1 0.253,0.627 0.253,1.342 z"
       id="path373"
       style="font-weight:300;font-size:11px;font-family:Gotham-Light, Gotham;letter-spacing:0.088em;fill:#ffffff" />
    <path
       d="m 89.990866,129.57899 -2.541,-3.289 q 0.484,-0.066 0.891,-0.231 0.418,-0.176 0.715,-0.451 0.308,-0.275 0.473,-0.649 0.176,-0.385 0.176,-0.869 v -0.022 q 0,-0.484 -0.198,-0.88 -0.198,-0.407 -0.561,-0.693 -0.352,-0.297 -0.858,-0.451 -0.506,-0.165 -1.133,-0.165 h -3.234 v 7.7 h 0.572 v -3.19 h 2.519 l 2.453,3.19 z m -0.858,-5.467 q 0,0.418 -0.176,0.748 -0.165,0.319 -0.462,0.55 -0.297,0.22 -0.715,0.341 -0.407,0.121 -0.891,0.121 h -2.596 v -3.465 h 2.629 q 1.056,0 1.628,0.451 0.583,0.451 0.583,1.232 z"
       id="path375"
       style="font-weight:300;font-size:11px;font-family:Gotham-Light, Gotham;letter-spacing:0.088em;fill:#ffffff" />
    <path
       d="m 97.921863,122.40699 v -0.528 h -5.94 v 0.528 h 2.684 v 7.172 h 0.572 v -7.172 z"
       id="path377"
       style="font-weight:300;font-size:11px;font-family:Gotham-Light, Gotham;letter-spacing:0.088em;fill:#ffffff" />
    <path
       d="m 105.62183,127.58799 v -0.022 q 0,-0.847 -0.594,-1.342 -0.594,-0.506 -1.936,-0.781 -0.682,-0.143 -1.122,-0.308 -0.44,-0.165 -0.693,-0.363 -0.242,-0.209 -0.341,-0.451 -0.088,-0.253 -0.088,-0.561 v -0.022 q 0,-0.297 0.132,-0.561 0.132,-0.264 0.374,-0.462 0.253,-0.198 0.594,-0.308 0.352,-0.121 0.781,-0.121 0.638,0 1.188,0.198 0.561,0.198 1.111,0.671 l 0.363,-0.451 q -0.583,-0.473 -1.199,-0.704 -0.605,-0.231 -1.441,-0.231 -0.539,0 -0.99,0.154 -0.451,0.154 -0.781,0.429 -0.33,0.275 -0.517,0.649 -0.187,0.363 -0.187,0.792 v 0.022 q 0,0.44 0.143,0.781 0.143,0.341 0.451,0.605 0.319,0.253 0.814,0.451 0.495,0.187 1.188,0.33 0.66,0.132 1.078,0.297 0.418,0.154 0.66,0.352 0.253,0.198 0.341,0.44 0.099,0.242 0.099,0.55 v 0.022 q 0,0.33 -0.143,0.616 -0.143,0.275 -0.396,0.484 -0.253,0.198 -0.616,0.319 -0.363,0.11 -0.792,0.11 -0.429,0 -0.792,-0.066 -0.363,-0.077 -0.693,-0.209 -0.33,-0.143 -0.649,-0.352 -0.308,-0.22 -0.627,-0.517 l -0.373998,0.429 q 0.692998,0.616 1.429998,0.924 0.748,0.308 1.672,0.308 0.561,0 1.023,-0.154 0.473,-0.154 0.803,-0.429 0.341,-0.275 0.528,-0.66 0.198,-0.396 0.198,-0.858 z"
       id="path379"
       style="font-weight:300;font-size:11px;font-family:Gotham-Light, Gotham;letter-spacing:0.088em;fill:#ffffff" />
    <path
       d="m 118.27182,129.57899 v -0.528 h -4.961 v -3.091 h 4.411 v -0.528 h -4.411 v -3.025 h 4.906 v -0.528 h -5.478 v 7.7 z"
       id="path381"
       style="font-weight:300;font-size:11px;font-family:Gotham-Light, Gotham;letter-spacing:0.088em;fill:#ffffff" />
    <path
       d="m 127.3138,129.57899 -3.058,-3.938 2.948,-3.762 h -0.671 l -2.618,3.388 -2.629,-3.388 h -0.682 l 2.959,3.773 -3.069,3.927 h 0.671 l 2.728,-3.553 2.739,3.553 z"
       id="path383"
       style="font-weight:300;font-size:11px;font-family:Gotham-Light, Gotham;letter-spacing:0.088em;fill:#ffffff" />
    <path
       d="m 135.64077,124.25499 v -0.022 q 0,-0.561 -0.209,-0.99 -0.209,-0.44 -0.594,-0.737 -0.374,-0.308 -0.902,-0.462 -0.517,-0.165 -1.155,-0.165 h -2.794 v 7.7 h 0.572 v -2.871 h 2.079 q 0.605,0 1.144,-0.154 0.55,-0.154 0.957,-0.462 0.418,-0.308 0.66,-0.77 0.242,-0.462 0.242,-1.067 z m -0.572,0.033 q 0,0.429 -0.176,0.781 -0.176,0.352 -0.495,0.605 -0.308,0.242 -0.748,0.374 -0.44,0.132 -0.979,0.132 h -2.112 v -3.773 h 2.178 q 0.517,0 0.946,0.121 0.429,0.121 0.737,0.352 0.308,0.231 0.473,0.583 0.176,0.341 0.176,0.803 z"
       id="path385"
       style="font-weight:300;font-size:11px;font-family:Gotham-Light, Gotham;letter-spacing:0.088em;fill:#ffffff" />
    <path
       d="m 143.83577,129.57899 v -0.528 h -4.961 v -3.091 h 4.411 v -0.528 h -4.411 v -3.025 h 4.906 v -0.528 h -5.478 v 7.7 z"
       id="path387"
       style="font-weight:300;font-size:11px;font-family:Gotham-Light, Gotham;letter-spacing:0.088em;fill:#ffffff" />
    <path
       d="m 152.91075,129.57899 -2.541,-3.289 q 0.484,-0.066 0.891,-0.231 0.418,-0.176 0.715,-0.451 0.308,-0.275 0.473,-0.649 0.176,-0.385 0.176,-0.869 v -0.022 q 0,-0.484 -0.198,-0.88 -0.198,-0.407 -0.561,-0.693 -0.352,-0.297 -0.858,-0.451 -0.506,-0.165 -1.133,-0.165 h -3.234 v 7.7 h 0.572 v -3.19 h 2.519 l 2.453,3.19 z m -0.858,-5.467 q 0,0.418 -0.176,0.748 -0.165,0.319 -0.462,0.55 -0.297,0.22 -0.715,0.341 -0.407,0.121 -0.891,0.121 h -2.596 v -3.465 h 2.629 q 1.056,0 1.628,0.451 0.583,0.451 0.583,1.232 z"
       id="path389"
       style="font-weight:300;font-size:11px;font-family:Gotham-Light, Gotham;letter-spacing:0.088em;fill:#ffffff" />
    <path
       d="m 156.21074,129.57899 v -7.7 h -0.572 v 7.7 z"
       id="path391"
       style="font-weight:300;font-size:11px;font-family:Gotham-Light, Gotham;letter-spacing:0.088em;fill:#ffffff" />
    <path
       d="m 165.07673,129.57899 v -0.528 h -4.961 v -3.091 h 4.411 v -0.528 h -4.411 v -3.025 h 4.906 v -0.528 h -5.478 v 7.7 z"
       id="path393"
       style="font-weight:300;font-size:11px;font-family:Gotham-Light, Gotham;letter-spacing:0.088em;fill:#ffffff" />
    <path
       d="m 174.2837,129.57899 v -7.7 h -0.55 v 6.699 l -5.313,-6.699 h -0.539 v 7.7 h 0.55 v -6.842 l 5.423,6.842 z"
       id="path395"
       style="font-weight:300;font-size:11px;font-family:Gotham-Light, Gotham;letter-spacing:0.088em;fill:#ffffff" />
    <path
       d="m 184.08469,128.36899 -0.385,-0.374 q -0.583,0.583 -1.199,0.891 -0.616,0.308 -1.452,0.308 -0.693,0 -1.287,-0.264 -0.594,-0.275 -1.034,-0.737 -0.429,-0.473 -0.682,-1.1 -0.253,-0.638 -0.253,-1.364 v -0.022 q 0,-0.726 0.242,-1.353 0.253,-0.627 0.682,-1.089 0.44,-0.473 1.034,-0.737 0.594,-0.264 1.287,-0.264 0.429,0 0.792,0.088 0.374,0.088 0.682,0.242 0.319,0.143 0.594,0.352 0.275,0.209 0.528,0.451 l 0.407,-0.418 q -0.297,-0.275 -0.616,-0.495 -0.308,-0.231 -0.671,-0.396 -0.352,-0.165 -0.77,-0.253 -0.418,-0.088 -0.935,-0.088 -0.836,0 -1.54,0.319 -0.704,0.308 -1.221,0.858 -0.506,0.539 -0.803,1.265 -0.286,0.726 -0.286,1.54 v 0.022 q 0,0.825 0.286,1.551 0.286,0.726 0.792,1.265 0.517,0.528 1.221,0.836 0.704,0.308 1.529,0.308 0.506,0 0.935,-0.099 0.429,-0.099 0.792,-0.275 0.374,-0.176 0.693,-0.418 0.33,-0.253 0.638,-0.55 z"
       id="path397"
       style="font-weight:300;font-size:11px;font-family:Gotham-Light, Gotham;letter-spacing:0.088em;fill:#ffffff" />
    <path
       d="m 192.15869,129.57899 v -0.528 h -4.961 v -3.091 h 4.411 v -0.528 h -4.411 v -3.025 h 4.906 v -0.528 h -5.478 v 7.7 z"
       id="path399"
       style="font-weight:300;font-size:11px;font-family:Gotham-Light, Gotham;letter-spacing:0.088em;fill:#ffffff" />
    <rect
       id="rect1020"
       class="cls-5"
       width="193.731"
       height="96.864998"
       x="1.5779999"
       y="0.73100001" />
  </g>
</svg>
