<svg width="16" height="16" version="1.1" viewBox="0 0 4.2333 4.2333" xmlns="http://www.w3.org/2000/svg">
  <g transform="translate(7.6595 .16139)">
    <g transform="translate(8.1259 -.00019673)">
      <g stroke-width=".0021614">
        <path
          d="m-23.605 0.34208c1.05e-4 -0.002514 6.17e-4 -0.003025 0.0013-0.001302 6.25e-4 0.001557 5.47e-4 0.003421-1.7e-4 0.004148-7.19e-4 7.1821e-4 -0.0012-5.5841e-4 -0.0011-0.002834z" />
        <path
          d="m-23.605 0.51714c1.05e-4 -0.002514 6.17e-4 -0.003025 0.0013-0.001302 6.25e-4 0.001557 5.47e-4 0.003421-1.7e-4 0.004148-7.19e-4 7.1821e-4 -0.0012-5.584e-4 -0.0011-0.002834z" />
        <path
          d="m-23.603 0.55821c1.04e-4 -0.002514 6.16e-4 -0.003025 0.0013-0.001302 6.24e-4 0.001557 5.48e-4 0.003421-1.71e-4 0.004148-7.19e-4 7.1821e-4 -0.0012-5.5853e-4 -0.0011-0.002834z" />
        <path
          d="m-22.988 1.9248-0.01508-0.01567 0.01568 0.015071c0.01455 0.013998 0.01666 0.016267 0.01508 0.016267-3.3e-4 0-0.0074-0.00705-0.01568-0.01567z" />
        <path
          d="m-22.914-1.135c0.0022-0.00238 0.0043-0.00432 5e-3 -0.00432 5.94e-4 0-6.79e-4 0.00195-0.0028 0.00432-0.0022 0.00238-0.0043 0.00432-5e-3 0.00432-5.93e-4 0 6.8e-4 -0.00195 0.0028-0.00432z" />
        <path
          d="m-22.948-1.1037c0.0041-0.00416 0.0078-0.00757 0.0084-0.00757 5.95e-4 0-0.0022 0.0034-0.0063 0.00757-0.0041 0.00416-0.0078 0.00757-0.0084 0.00757-5.94e-4 0 0.0022-0.0034 0.0063-0.00757z" />
        <path
          d="m-23.026-1.0259c0.0028-0.00297 0.0056-0.0054 0.0061-0.0054 5.93e-4 0-0.0012 0.00243-4e-3 0.0054s-0.0056 0.0054-0.0061 0.0054c-5.94e-4 0 0.0012-0.00243 4e-3 -0.0054z" />
        <path
          d="m-23.075-0.97159c0-4.488e-4 0.0017-0.00215 0.0038-0.00378 0.0034-0.00269 0.0034-0.00261 8.16e-4 8.16e-4 -0.0028 0.0036-0.0046 0.00475-0.0046 0.00297z" />
        <path
          d="m-23.592 0.1843c1.05e-4 -0.002514 6.16e-4 -0.003025 0.0013-0.001302 6.26e-4 0.001557 5.48e-4 0.003421-1.69e-4 0.004148-7.19e-4 7.1821e-4 -0.0012-5.5841e-4 -0.0011-0.002834z" />
        <path
          d="m-23.596 0.22321c1.03e-4 -0.002514 6.15e-4 -0.003025 0.0013-0.001302 6.24e-4 0.001557 5.48e-4 0.003421-1.71e-4 0.004148-7.19e-4 7.1821e-4 -0.0012-5.5841e-4 -0.0011-0.002834z" />
        <path
          d="m-23.598 0.247c1.05e-4 -0.002514 6.16e-4 -0.003025 0.0013-0.001302 6.26e-4 0.001557 5.48e-4 0.003421-1.69e-4 0.004148-7.19e-4 7.1821e-4 -0.0012-5.5854e-4 -0.0011-0.002834z" />
        <path
          d="m-23.6 0.27418c0-0.002974 4.9e-4 -0.004186 0.0011-0.002706 6e-4 0.001481 6e-4 0.003918 0 0.005399s-0.0011 2.7008e-4 -0.0011-0.002706z" />
        <path
          d="m-23.603 0.30661c0-0.002974 4.91e-4 -0.004186 0.0011-0.002706 6e-4 0.001481 6e-4 0.003918 0 0.005399-5.99e-4 0.001481-0.0011 2.7007e-4 -0.0011-0.002706z" />
        <path
          d="m-23.604 0.35307c2.3e-5 -0.004761 4.66e-4 -0.006446 9.83e-4 -0.003752 5.17e-4 0.002693 4.98e-4 0.006573-4.3e-5 0.008641s-9.64e-4 -1.3402e-4 -9.4e-4 -0.004888z" />
        <path
          d="m-23.605 0.50758c0-0.004161 4.45e-4 -0.005858 9.89e-4 -0.003778s5.44e-4 0.005488 0 0.007569c-5.44e-4 0.00208-9.89e-4 3.7831e-4 -9.89e-4 -0.003778z" />
        <path
          d="m-23.602 0.54973c4.4e-5 -0.003561 5.28e-4 -0.004761 0.0011-0.002655 5.49e-4 0.002106 5.13e-4 0.005016-7.9e-5 0.006484-5.93e-4 0.001468-1e-3 -2.5719e-4 -9.97e-4 -0.003829z" />
        <path
          d="m-23.6 0.58538c0-0.002974 4.9e-4 -0.004186 0.0011-0.002706 6e-4 0.001481 6e-4 0.003918 0 0.005399s-0.0011 2.7008e-4 -0.0011-0.002706z" />
        <path
          d="m-23.598 0.61222c1.04e-4 -0.002514 6.16e-4 -0.003025 0.0013-0.001302 6.25e-4 0.001557 5.48e-4 0.003421-1.7e-4 0.004148-7.18e-4 7.182e-4 -0.0012-5.5854e-4 -0.0011-0.002834z" />
        <path
          d="m-23.596 0.63599c1.03e-4 -0.002514 6.15e-4 -0.003025 0.0013-0.001302 6.25e-4 0.001557 5.48e-4 0.003421-1.71e-4 0.004148-7.18e-4 7.182e-4 -0.0012-5.5854e-4 -0.0011-0.002834z" />
        <path
          d="m-23.063 1.8459c-0.0027-0.00343-0.0026-0.00351 8.17e-4 -8.161e-4 0.0036 0.00282 0.0047 0.00459 0.0029 0.00459-4.5e-4 0-0.0022-0.0017-0.0038-0.00378z" />
        <path
          d="m-23.037 1.874c-0.0027-0.00343-0.0026-0.00351 8.17e-4 -8.162e-4 0.0036 0.00282 0.0047 0.00459 0.0029 0.00459-4.5e-4 0-0.0022-0.0017-0.0038-0.00378z" />
        <path
          d="m-22.937 1.9735-0.0052-0.00595 6e-3 0.00525c0.0033 0.00288 6e-3 0.00555 6e-3 0.00595 0 0.0017-0.0018 3.156e-4 -0.0066-0.00525z" />
      </g>
      <path
        d="m-14.12 4.0763c-0.0096-0.00388-0.02542-0.017169-0.03514-0.02953l-0.01768-0.022475v-1.7837h-0.2858c-0.29716 0-0.30789-0.00115-0.3362-0.036108-0.01307-0.016132-0.0143-0.050121-0.01447-0.39848-1.81e-4 -0.37536 6.6e-5 -0.38111 0.01715-0.39945 0.0095-0.010231 0.02652-0.022095 0.03775-0.026364 0.01126-0.00428 0.14591-0.00776 0.30034-0.00776h0.27992l0.0036-0.32866c0.0032-0.29083 0.0056-0.33774 0.02053-0.4075 0.09681-0.45211 0.39824-0.72569 0.85532-0.7763 0.04416-0.00489 0.21847-0.00889 0.38736-0.00889 0.33398 0 0.35028 0.002036 0.37043 0.046263 0.0066 0.014429 0.0094 0.12591 0.0092 0.3696-1.68e-4 0.31813-0.0014 0.3505-0.01447 0.36658-0.02759 0.034056-0.04244 0.036108-0.26145 0.036108-0.24952 0-0.31817 0.008046-0.37889 0.04441-0.0344 0.0206-0.0483 0.035853-0.06824 0.074867l-0.02504 0.048996-0.0052 0.53399 0.6804 0.00466 0.04824 0.054004v0.37235c0 0.40388-3.66e-4 0.40735-0.04524 0.4278-0.01565 0.00713-0.11352 0.00988-0.35202 0.00988h-0.33034v0.88083c0 0.74256-0.0018 0.88525-0.01175 0.90896-0.02274 0.054415-0.02004 0.054085-0.43639 0.053503-0.206-2.886e-4 -0.3824-0.0037-0.39201-0.00758z"
        stroke-width=".0082682" />
    </g>
  </g>
</svg>