<?xml version="1.0" encoding="UTF-8" standalone="no"?>
<!-- Created with Inkscape (http://www.inkscape.org/) -->

<svg
   width="512"
   height="512"
   viewBox="0 0 135.46667 135.46667"
   version="1.1"
   id="svg5"
   inkscape:version="1.2.1 (9c6d41e4, 2022-07-14)"
   sodipodi:docname="icon-512.svg"
   xmlns:inkscape="http://www.inkscape.org/namespaces/inkscape"
   xmlns:sodipodi="http://sodipodi.sourceforge.net/DTD/sodipodi-0.dtd"
   xmlns:xlink="http://www.w3.org/1999/xlink"
   xmlns="http://www.w3.org/2000/svg"
   xmlns:svg="http://www.w3.org/2000/svg">
  <sodipodi:namedview
     id="namedview7"
     pagecolor="#000000"
     bordercolor="#000000"
     borderopacity="0.25"
     inkscape:showpageshadow="2"
     inkscape:pageopacity="0"
     inkscape:pagecheckerboard="0"
     inkscape:deskcolor="#d1d1d1"
     inkscape:document-units="mm"
     showgrid="false"
     inkscape:zoom="0.066204945"
     inkscape:cx="219.01687"
     inkscape:cy="-2054.2272"
     inkscape:window-width="1680"
     inkscape:window-height="1050"
     inkscape:window-x="0"
     inkscape:window-y="67"
     inkscape:window-maximized="0"
     inkscape:current-layer="layer1" />
  <defs
     id="defs2">
    <inkscape:path-effect
       effect="powerstroke"
       id="path-effect872"
       is_visible="true"
       lpeversion="1"
       offset_points="0.89810443,0.15301204"
       not_jump="true"
       sort_points="true"
       interpolator_type="CentripetalCatmullRom"
       interpolator_beta="0.75"
       start_linecap_type="round"
       linejoin_type="spiro"
       miter_limit="4"
       scale_width="1"
       end_linecap_type="round" />
    <inkscape:path-effect
       effect="simplify"
       id="path-effect870"
       is_visible="true"
       lpeversion="1"
       steps="1"
       threshold="0.0047745358"
       smooth_angles="0"
       helper_size="0"
       simplify_individual_paths="false"
       simplify_just_coalesce="false"
       step="1" />
    <linearGradient
       inkscape:collect="always"
       xlink:href="#linearGradient6098"
       id="linearGradient1512"
       x1="1202.7327"
       y1="448.18814"
       x2="1282.7323"
       y2="658.64227"
       gradientUnits="userSpaceOnUse"
       gradientTransform="matrix(0.00683989,0,0,0.00683989,-7.2755713,-2.8560919)" />
    <linearGradient
       inkscape:collect="always"
       id="linearGradient6098">
      <stop
         style="stop-color:#70b5fa;stop-opacity:1;"
         offset="0"
         id="stop6094" />
      <stop
         style="stop-color:#70b5fa;stop-opacity:0;"
         offset="1"
         id="stop6096" />
    </linearGradient>
  </defs>
  <g
     inkscape:label="Layer 1"
     inkscape:groupmode="layer"
     id="layer1">
    <g
       id="g4363"
       transform="matrix(31.999998,0,0,31.999998,20.115829,-3.2973329e-6)">
      <path
         id="rect463"
         style="fill:#70b5fa;fill-opacity:1;stroke-width:0.00729885"
         d="m 1.4150849,1.1064e-5 c -0.72783858,0 -1.31378071,0.585942096 -1.31378071,1.313780836 v 1.6057717 0.02129 h 4.3851e-4 c 0.0114015,0.717854 0.59254634,1.2924801 1.3132151,1.2924801 h 0.1460514 c 0.7278386,0 1.3137808,-0.58594 1.3137808,-1.3137806 0,-0.3029498 -0.2728408,-0.5202365 -0.2728408,-0.8028848 C 2.6019492,1.834022 2.87479,1.6167288 2.87479,1.3137812 2.87479,0.58594228 2.2888478,1.04e-7 1.5610092,1.04e-7 Z m 0.013488,0.116819676 c 0.049853,1.0306e-4 0.099709,-2.1267e-4 0.1495632,2.1927e-4 0.02325,4.3853e-4 0.04723,0.001096 0.070363,0.002938 0.043173,0.002982 0.086898,0.008573 0.1290544,0.0162034 0.1179744,0.0213998 0.2326571,0.0605312 0.3388974,0.11614 0.1704923,0.0887325 0.3188547,0.21954523 0.4282962,0.37753323 0.1091936,0.1564944 0.1793987,0.33975024 0.2033857,0.52902656 0.00153,0.012672 0.00277,0.023928 0.00408,0.03671 0.00363,0.042104 0.00632,0.084395 0.00566,0.1266752 -2.192e-4,0.010304 -8.769e-4,0.0214 -0.00197,0.032293 C 2.749317,1.4194156 2.7270914,1.481446 2.7001618,1.54039 2.6453186,1.6597724 2.5724994,1.7707031 2.5277092,1.8946991 2.499194,1.9725823 2.482202,2.0555463 2.4861268,2.1387599 c 0.00326,0.082622 0.02513,0.1635528 0.056992,0.2395286 0.04475,0.1079328 0.1074688,0.2071131 0.1563632,0.313064 0.029731,0.065386 0.054434,0.1346256 0.057898,0.207008 6.578e-4,0.011904 4.386e-4,0.02572 4.386e-4,0.038525 0,0.013568 -4.386e-4,0.026539 -0.0011,0.039432 -0.00132,0.02932 -0.00374,0.05937 -0.00715,0.088037 -0.0036,0.029974 -0.00827,0.059203 -0.014048,0.088605 -0.00691,0.03523 -0.015392,0.07076 -0.025608,0.1056032 -0.045098,0.1548128 -0.122568,0.2999435 -0.2252524,0.4242159 -0.135352,0.1644209 -0.315737,0.2911028 -0.5161079,0.3631452 -0.040795,0.01464 -0.08392,0.027533 -0.1261104,0.037619 -0.049502,0.011792 -0.1013136,0.02083 -0.1525088,0.026173 -0.065918,0.00746 -0.13228,0.00686 -0.1985115,0.0068 -0.059342,1.973e-4 -0.1192144,8.77e-4 -0.1780042,-0.0043 -0.019098,-0.00153 -0.03772,-0.0036 -0.056992,-0.00611 -0.028376,-0.00374 -0.057381,-0.00859 -0.085886,-0.014496 C 1.134961,4.0843072 1.0991738,4.075224 1.064033,4.0645216 1.0368063,4.0562567 1.0108108,4.0473986 0.98424744,4.037216 0.79021752,3.9629351 0.61648008,3.8366127 0.48570232,3.6752044 0.38966648,3.5570165 0.31650806,3.4202991 0.27189299,3.2746687 c -0.004517,-0.014624 -0.008419,-0.028293 -0.012344,-0.04283 -0.006139,-0.023042 -0.0121696,-0.048323 -0.016883,-0.071722 -0.008792,-0.04319 -0.0152384,-0.087595 -0.0191414,-0.1309824 -0.002653,-0.029592 -0.00399,-0.059906 -0.004867,-0.090078 -4.3879e-4,-0.2606307 -4.3879e-4,-0.5211755 -4.3879e-4,-0.78181 0,-0.2742901 -2.1926e-4,-0.5486504 1.1181e-4,-0.8229405 -6.5778e-4,-0.06529 0.00296,-0.1306064 0.0124752,-0.195227 0.006051,-0.042163 0.0149536,-0.086739 0.0254934,-0.1272416 0.038592,-0.14950084 0.1064376,-0.29129604 0.19896547,-0.4149258 0.01032,-0.013616 0.0221152,-0.0289952 0.0335376,-0.0428304 0.008336,-0.010192 0.0174752,-0.0208736 0.0257184,-0.0303648 0.073224,-0.0832928 0.157856,-0.1565488 0.25108576,-0.21664221 0.007216,-0.004693 0.014736,-0.009472 0.0218608,-0.0138128 0.014272,-0.008792 0.0291264,-0.0174312 0.0441904,-0.0258333 0.038936,-0.0216629 0.0785216,-0.0408197 0.119424,-0.0579 0.0203904,-0.00855 0.0396032,-0.0159408 0.0602784,-0.0233403 0.040734,-0.0144928 0.083336,-0.0271115 0.1245216,-0.0368248 0.014368,-0.003464 0.02916,-0.006555 0.04385,-0.009515 0.022094,-0.004298 0.045058,-0.008288 0.068096,-0.0114448 0.05988,-0.00853 0.1203888,-0.0115776 0.1808371,-0.0115552 z" />
      <path
         id="path1455"
         style="fill:url(#linearGradient1512);fill-opacity:1;stroke-width:0.0068399"
         d="m 1.4102458,0.20831263 c -0.028898,4.3851e-4 -0.057075,0.001096 -0.085898,0.003202 -0.0043,4.3851e-4 -0.00955,6.5778e-4 -0.013984,0.001316 -0.1559488,0.0139008 -0.308964,0.0609741 -0.44521436,0.13821504 -0.0993888,0.0560192 -0.18990576,0.1276624 -0.2674448,0.21133616 -0.0923632,0.0995632 -0.16694912,0.21722336 -0.21686592,0.3440456 -0.0510306,0.12855357 -0.0773024,0.26677607 -0.0775261,0.40506787 -6.5778e-4,0.1493071 -1.7541e-4,0.2986149 -2.1925e-4,0.4479202 0.0349632,0.00677 0.0704022,0.012624 0.10523168,0.017606 0.0560608,0.00798 0.1120976,0.013856 0.16843792,0.017475 0.0277344,0.00197 0.0567648,0.00342 0.0846912,0.00413 0.0554352,0.00153 0.1107264,-2.194e-4 0.16564896,-0.00357 0.0411712,-0.00248 0.0833873,-0.00634 0.12451045,-0.011168 0.0693968,-0.00813 0.13784482,-0.019427 0.20610242,-0.033997 0.033051,-0.00704 0.066955,-0.01504 0.099613,-0.023549 0.08173,-0.021312 0.1625091,-0.047299 0.2408507,-0.07739 0.091766,-0.035206 0.1809795,-0.076202 0.2676203,-0.1229552 0.060365,-0.032555 0.1203328,-0.068499 0.1775546,-0.1063056 0.036656,-0.02424 0.072915,-0.049744 0.1078,-0.075762 0.1899298,-0.141624 0.3582886,-0.3120291 0.4981066,-0.50326571 -0.00368,-0.007952 -0.00702,-0.014576 -0.01096,-0.0225568 -0.048651,-0.0971888 -0.1120208,-0.18691936 -0.186801,-0.26575872 -0.00371,-0.003888 -0.00886,-0.009168 -0.013104,-0.0136 -0.017694,-0.0179568 -0.035971,-0.0353136 -0.054787,-0.052088 -0.00395,-0.003488 -0.00947,-0.008288 -0.014032,-0.012256 -0.070672,-0.060536 -0.1489264,-0.1122544 -0.2324773,-0.15324304 -0.01024,-0.004998 -0.021882,-0.0105248 -0.03281,-0.0154144 -0.053816,-0.0242546 -0.1096,-0.044113 -0.1666005,-0.0594414 -0.012304,-0.003245 -0.025922,-0.006688 -0.038824,-0.009648 -0.012064,-0.002763 -0.026362,-0.005789 -0.038501,-0.008134 -0.021707,-0.004144 -0.043504,-0.007674 -0.065013,-0.0105248 -0.02037,-0.002784 -0.041842,-0.004824 -0.06171,-0.006381 -0.013664,-0.001096 -0.026811,-0.001754 -0.040784,-0.002302 C 1.5320306,0.20778042 1.4711682,0.2084382 1.4103303,0.2084382 Z" />
    </g>
  </g>
</svg>
