<?xml version="1.0" encoding="UTF-8" standalone="no"?>
<!-- Created with Inkscape (http://www.inkscape.org/) -->

<svg
   width="192"
   height="192"
   viewBox="0 0 50.799998 50.8"
   version="1.1"
   id="svg5"
   inkscape:version="1.2.1 (9c6d41e4, 2022-07-14)"
   sodipodi:docname="icon-192.svg"
   xmlns:inkscape="http://www.inkscape.org/namespaces/inkscape"
   xmlns:sodipodi="http://sodipodi.sourceforge.net/DTD/sodipodi-0.dtd"
   xmlns:xlink="http://www.w3.org/1999/xlink"
   xmlns="http://www.w3.org/2000/svg"
   xmlns:svg="http://www.w3.org/2000/svg">
  <sodipodi:namedview
     id="namedview7"
     pagecolor="#ffffff"
     bordercolor="#000000"
     borderopacity="0.25"
     inkscape:showpageshadow="2"
     inkscape:pageopacity="0.0"
     inkscape:pagecheckerboard="0"
     inkscape:deskcolor="#d1d1d1"
     inkscape:document-units="mm"
     showgrid="false"
     inkscape:zoom="0.70618608"
     inkscape:cx="74.343012"
     inkscape:cy="96.291901"
     inkscape:window-width="1680"
     inkscape:window-height="1050"
     inkscape:window-x="0"
     inkscape:window-y="67"
     inkscape:window-maximized="0"
     inkscape:current-layer="layer1" />
  <defs
     id="defs2">
    <inkscape:path-effect
       effect="powerstroke"
       id="path-effect872"
       is_visible="true"
       lpeversion="1"
       offset_points="0.89810443,0.15301204"
       not_jump="true"
       sort_points="true"
       interpolator_type="CentripetalCatmullRom"
       interpolator_beta="0.75"
       start_linecap_type="round"
       linejoin_type="spiro"
       miter_limit="4"
       scale_width="1"
       end_linecap_type="round" />
    <inkscape:path-effect
       effect="simplify"
       id="path-effect870"
       is_visible="true"
       lpeversion="1"
       steps="1"
       threshold="0.0047745358"
       smooth_angles="0"
       helper_size="0"
       simplify_individual_paths="false"
       simplify_just_coalesce="false"
       step="1" />
    <linearGradient
       inkscape:collect="always"
       xlink:href="#linearGradient6098"
       id="linearGradient1512"
       x1="1202.7327"
       y1="448.18814"
       x2="1282.7323"
       y2="658.64227"
       gradientUnits="userSpaceOnUse"
       gradientTransform="matrix(0.08207867,0,0,0.08207867,-79.763412,-34.273101)" />
    <linearGradient
       inkscape:collect="always"
       id="linearGradient6098">
      <stop
         style="stop-color:#70b5fa;stop-opacity:1;"
         offset="0"
         id="stop6094" />
      <stop
         style="stop-color:#70b5fa;stop-opacity:0;"
         offset="1"
         id="stop6096" />
    </linearGradient>
  </defs>
  <g
     inkscape:label="Layer 1"
     inkscape:groupmode="layer"
     id="layer1">
    <path
       style="fill:#1a1a1a;fill-opacity:1;stroke-width:0.0875862"
       d="m 24.68631,1.4019681 c 0.598236,0.00124 1.196508,-0.00255 1.794758,0.00263 0.279,0.00526 0.56676,0.013152 0.844356,0.035256 0.518076,0.035784 1.042776,0.102876 1.548653,0.1944408 1.415692,0.2567976 2.791884,0.7263743 4.066768,1.3936799 2.045907,1.0647899 3.826256,2.6345425 5.139554,4.5303983 1.310323,1.8779327 2.152784,4.0770029 2.440628,6.3483189 0.01836,0.152064 0.03324,0.287136 0.04896,0.440519 0.04356,0.505248 0.07584,1.01274 0.06792,1.520103 -0.0026,0.123648 -0.01052,0.2568 -0.02364,0.387516 -0.07903,0.778154 -0.345737,1.522519 -0.668892,2.229847 -0.658118,1.432588 -1.531948,2.763757 -2.069431,4.251709 -0.342182,0.934598 -0.546086,1.930166 -0.498989,2.928729 0.03912,0.991464 0.30156,1.962633 0.683904,2.874343 0.537,1.295193 1.289626,2.485357 1.876359,3.756768 0.356772,0.784632 0.653208,1.615507 0.694776,2.484095 0.0079,0.142848 0.0053,0.30864 0.0053,0.4623 0,0.162816 -0.0053,0.318468 -0.0132,0.473184 -0.01584,0.35184 -0.04488,0.71244 -0.0858,1.056444 -0.0432,0.359688 -0.09924,0.710436 -0.168576,1.06326 -0.08292,0.42276 -0.184704,0.84912 -0.307296,1.267238 -0.541176,1.857754 -1.470816,3.599322 -2.703029,5.090591 -1.624224,1.97305 -3.788843,3.493233 -6.193294,4.357742 -0.48954,0.17568 -1.00704,0.330396 -1.513325,0.451428 -0.594024,0.141504 -1.215763,0.24996 -1.830105,0.314076 -0.791016,0.08952 -1.58736,0.08232 -2.382138,0.0816 -0.712104,0.0024 -1.430573,0.01052 -2.13605,-0.0516 -0.229176,-0.01836 -0.45264,-0.0432 -0.683904,-0.07332 -0.340512,-0.04488 -0.688572,-0.10308 -1.030632,-0.173952 -0.426941,-0.08763 -0.856387,-0.19663 -1.278077,-0.325059 -0.32672,-0.09918 -0.638666,-0.205476 -0.957426,-0.327667 -2.328359,-0.89137 -4.413208,-2.407239 -5.982541,-4.344139 -1.15243,-1.418254 -2.030331,-3.058863 -2.565712,-4.806428 -0.0542,-0.175488 -0.101028,-0.339516 -0.148128,-0.51396 -0.07367,-0.276504 -0.146035,-0.579875 -0.202596,-0.860663 -0.105504,-0.51828 -0.182861,-1.05114 -0.229697,-1.571789 -0.03184,-0.355104 -0.04788,-0.718872 -0.0584,-1.080936 -0.0053,-3.127568 -0.0053,-6.254106 -0.0053,-9.381719 0,-3.291481 -0.0026,-6.583805 0.0013,-9.875285 -0.0079,-0.78348 0.03552,-1.567277 0.149703,-2.342724 0.07261,-0.505956 0.179443,-1.040868 0.305921,-1.526899 0.463104,-1.79401 1.277251,-3.4955527 2.387585,-4.9791097 0.12384,-0.163392 0.265382,-0.3479424 0.402451,-0.5139648 0.100032,-0.122304 0.209703,-0.2504831 0.308621,-0.3643775 0.878688,-0.9995135 1.894272,-1.8785855 3.013029,-2.5997063 0.08659,-0.056316 0.176832,-0.113664 0.262329,-0.1657536 0.171264,-0.105504 0.349517,-0.2091744 0.530285,-0.3099996 0.467232,-0.2599548 0.942259,-0.4898364 1.433088,-0.6947999 0.244685,-0.1026 0.475238,-0.1912896 0.723341,-0.2800836 0.488808,-0.1739136 1.000032,-0.325338 1.494259,-0.4418976 0.172416,-0.041568 0.34992,-0.07866 0.5262,-0.11418 0.265128,-0.051576 0.540696,-0.099456 0.817152,-0.1373376 0.71856,-0.1023599 1.444665,-0.1389311 2.170045,-0.1386623 z"
       id="path1766" />
    <path
       style="fill:#70b5fa;fill-opacity:1;stroke-width:0.0875862"
       d="M 24.524454,1.3206066e-4 C 15.790391,1.3206066e-4 8.7590865,7.0314366 8.7590865,15.765501 v 19.269259 0.25548 h 0.00526 c 0.136818,8.614247 7.1105555,15.509759 15.7585795,15.509759 h 1.752617 c 8.734063,0 15.765368,-7.031279 15.765368,-15.765365 0,-3.635398 -3.274089,-6.242838 -3.274089,-9.634617 0,-3.391756 3.274089,-5.999274 3.274089,-9.634645 C 42.040913,7.0313061 35.009608,5.4066679e-7 26.275545,5.4066679e-7 Z"
       id="rect463" />
    <path
       id="path1455"
       style="fill:url(#linearGradient1512);fill-opacity:1;stroke-width:0.0820788"
       d="m 24.466384,2.4997506 c -0.346775,0.00526 -0.684899,0.013152 -1.030775,0.038424 -0.0516,0.00526 -0.1146,0.00789 -0.167808,0.015792 -1.871386,0.1668096 -3.707568,0.7316892 -5.342572,1.6585804 -1.192666,0.6722303 -2.278869,1.5319487 -3.209338,2.5360337 -1.108358,1.1947583 -2.003389,2.6066801 -2.60239,4.1285473 -0.612368,1.542642 -0.927629,3.201312 -0.930314,4.860814 -0.0079,1.791685 -0.0021,3.583378 -0.0026,5.375042 0.419559,0.08124 0.844827,0.151488 1.26278,0.211272 0.67273,0.09576 1.345172,0.166272 2.021255,0.209699 0.332813,0.02364 0.681178,0.04104 1.016295,0.04956 0.665222,0.01836 1.328716,-0.0026 1.987787,-0.04284 0.494054,-0.02976 1.000648,-0.07608 1.494125,-0.134015 0.832762,-0.09756 1.654138,-0.233124 2.473229,-0.407964 0.396612,-0.08448 0.80346,-0.18048 1.195356,-0.282588 0.98076,-0.255744 1.950109,-0.567588 2.890208,-0.92868 1.101192,-0.422472 2.171754,-0.914424 3.211444,-1.475463 0.724379,-0.39066 1.443993,-0.821988 2.130655,-1.275667 0.439872,-0.29088 0.874979,-0.596928 1.293599,-0.909144 2.279158,-1.699488 4.299463,-3.744349 5.977279,-6.039188 C 38.090439,9.992542 38.050359,9.9130543 38.003079,9.8172848 37.419267,8.6510193 36.65883,7.5742526 35.761467,6.6281804 35.716947,6.5815244 35.655147,6.5181644 35.604219,6.4649804 35.39186,6.2494988 35.172536,6.0412172 34.946744,5.8399244 34.899344,5.7980684 34.833104,5.7404685 34.77836,5.6928525 33.930297,4.9664205 32.991244,4.3457998 31.988633,3.8539361 31.865753,3.7939601 31.726049,3.7276385 31.594913,3.6689633 30.949121,3.3779082 30.279713,3.1396074 29.595707,2.9556666 29.448059,2.9167266 29.284643,2.8754106 29.129819,2.8398906 28.985051,2.8067346 28.813475,2.7704226 28.667807,2.7422826 28.407323,2.6925546 28.145759,2.6501946 27.887651,2.615985 27.643211,2.582577 27.385547,2.558097 27.147131,2.539413 26.983163,2.526261 26.825399,2.518365 26.657724,2.511789 25.927802,2.4933641 25.197453,2.5012575 24.467398,2.5012575 Z" />
    <path
       style="fill:#1a1a1a;fill-opacity:1;stroke-width:0.0771042"
       d="m 70.243344,4.0885424 c 0.476348,0.0012 0.952791,-0.0025 1.429167,0.0026 0.222168,0.0051 0.451312,0.01285 0.672333,0.03387 0.412516,0.03504 0.830384,0.100435 1.233191,0.189192 1.127324,0.249921 2.223181,0.706901 3.23837,1.356344 1.629166,1.036236 3.046856,2.563973 4.092642,4.4090406 1.043406,1.827618 1.714258,3.967778 1.943469,6.178242 0.01433,0.147967 0.02676,0.279467 0.03918,0.428719 0.0344,0.491666 0.0602,0.985667 0.05447,1.479377 -0.0021,0.120289 -0.0084,0.24992 -0.01911,0.3771 -0.06307,0.757352 -0.275297,1.481736 -0.53263,2.170115 -0.52403,1.394205 -1.219889,2.689716 -1.647885,4.137806 -0.272431,0.909523 -0.434877,1.878456 -0.397323,2.850272 0.03153,0.96488 0.240133,1.910058 0.544575,2.797334 0.427613,1.260498 1.026932,2.418787 1.494144,3.656127 0.284089,0.763658 0.520113,1.572233 0.553271,2.417548 0.0063,0.138974 0.0042,0.300371 0.0042,0.449856 0,0.158478 -0.0042,0.309948 -0.01051,0.460485 -0.01242,0.342414 -0.03536,0.693354 -0.0688,1.028177 -0.0344,0.350005 -0.07931,0.691368 -0.134256,1.034717 -0.06593,0.411435 -0.147061,0.826372 -0.24472,1.233299 -0.430958,1.807976 -1.171213,3.502892 -2.152431,4.954217 -1.293372,1.920183 -3.017062,3.399642 -4.93173,4.240998 -0.38987,0.170973 -0.801908,0.32151 -1.205059,0.439346 -0.473003,0.13769 -0.968118,0.243263 -1.457318,0.305627 -0.629906,0.08759 -1.264017,0.08058 -1.896895,0.07941 -0.56703,0.0023 -1.139173,0.01024 -1.700947,-0.05022 -0.182513,-0.01752 -0.360438,-0.04204 -0.544575,-0.07124 -0.271188,-0.04321 -0.548301,-0.100435 -0.820732,-0.169338 -0.339989,-0.08525 -0.681984,-0.191412 -1.017731,-0.316372 -0.260199,-0.09693 -0.508549,-0.199936 -0.762442,-0.31894 -1.854077,-0.867481 -3.514241,-2.342747 -4.763905,-4.227766 -0.917722,-1.380262 -1.616753,-2.976915 -2.043077,-4.677658 -0.043,-0.17074 -0.08027,-0.330385 -0.117916,-0.500191 -0.05829,-0.269073 -0.116292,-0.564307 -0.161299,-0.837584 -0.08409,-0.504395 -0.145628,-1.023039 -0.182895,-1.529688 -0.0258,-0.345568 -0.03822,-0.699661 -0.04682,-1.052002 -0.0042,-3.043774 -0.0042,-6.086556 -0.0042,-9.130388 0,-3.203302 -0.0021,-6.407422 0.0011,-9.610725 -0.0063,-0.762491 0.02867,-1.525297 0.119254,-2.279963 0.05829,-0.492367 0.142857,-1.012995 0.243573,-1.485999 0.368751,-1.745951 1.017071,-3.401906 1.901233,-4.8457226 0.09861,-0.159062 0.211275,-0.338561 0.320496,-0.500192 0.07931,-0.119004 0.166936,-0.24373 0.24577,-0.35456 0.699662,-0.972704 1.508411,-1.828261 2.399282,-2.530059 0.0688,-0.05489 0.140849,-0.110946 0.208885,-0.16128 0.136359,-0.102771 0.278356,-0.203557 0.422263,-0.301656 0.372096,-0.252957 0.750307,-0.476718 1.14117,-0.676187 0.194839,-0.09927 0.378403,-0.186156 0.576013,-0.272577 0.3892,-0.169221 0.796365,-0.316604 1.189884,-0.43012 0.137314,-0.04087 0.278642,-0.07708 0.419014,-0.110946 0.211084,-0.05022 0.430576,-0.09693 0.650738,-0.133719 0.57219,-0.09927 1.150391,-0.135237 1.728009,-0.134887 z"
       id="path5917" />
  </g>
</svg>
