<?xml version="1.0" encoding="UTF-8" standalone="no"?>
<!-- Created with Inkscape (http://www.inkscape.org/) -->

<svg
   width="422.13995"
   height="63.999966"
   viewBox="0 0 111.69119 16.933324"
   version="1.1"
   id="svg5"
   xml:space="preserve"
   xmlns:inkscape="http://www.inkscape.org/namespaces/inkscape"
   xmlns:sodipodi="http://sodipodi.sourceforge.net/DTD/sodipodi-0.dtd"
   xmlns="http://www.w3.org/2000/svg"
   xmlns:svg="http://www.w3.org/2000/svg"><sodipodi:namedview
     id="namedview7"
     pagecolor="#000000"
     bordercolor="#000000"
     borderopacity="0.25"
     inkscape:showpageshadow="2"
     inkscape:pageopacity="1"
     inkscape:pagecheckerboard="0"
     inkscape:deskcolor="#d1d1d1"
     inkscape:document-units="mm"
     showgrid="false" /><defs
     id="defs2" /><g
     inkscape:label="Layer 1"
     inkscape:groupmode="layer"
     id="layer1"><path
       style="fill:#ffffff;stroke-width:0.0959108"
       d="m 29.219529,16.85378 c -0.28376,-0.0471 -0.69837,-0.1664 -0.92136,-0.26504 -0.37193,-0.16452 -0.40935,-0.21402 -0.45274,-0.59901 -0.026,-0.23082 -0.0161,-0.61364 0.0222,-0.8507 0.0382,-0.23707 0.0749,-0.38316 0.0815,-0.32465 0.0254,0.22463 0.83777,1.03227 1.20718,1.20007 0.73936,0.33585 1.81045,0.17773 2.06903,-0.30544 0.17175,-0.32091 0.1344,-0.91774 -0.0754,-1.20583 -0.10484,-0.14392 -0.69949,-0.60989 -1.32144,-1.03549 -1.24981,-0.85524 -1.71583,-1.3928 -1.82217,-2.1019 -0.13539,-0.90283 0.37089,-1.7145399 1.25792,-2.0167799 0.53378,-0.18187 1.9461,-0.20992 2.57658,-0.0512 0.45362,0.11422 0.53226,0.27103 0.53226,1.0613899 v 0.37485 l -0.32803,-0.32802 c -0.41908,-0.4190799 -1.09018,-0.6814599 -1.55149,-0.6065999 -0.72709,0.11799 -1.09236,0.5908699 -0.90199,1.1677199 0.13166,0.39894 0.31289,0.56208 1.62148,1.4596 1.35547,0.92967 1.66297,1.31889 1.71741,2.17377 0.10605,1.66545 -1.47387,2.62478 -3.71086,2.25322 z m 55.2446,0.006 c -0.28376,-0.0504 -0.70457,-0.17516 -0.93514,-0.27715 l -0.4192,-0.18543 0.006,-0.84462 c 0.005,-0.69411 0.026,-0.81178 0.11989,-0.66038 0.51817,0.83556 1.26667,1.3026 2.08672,1.30203 0.69273,-3.5e-4 1.09539,-0.24464 1.249,-0.75737 0.20486,-0.68374 -0.12248,-1.11546 -1.49508,-1.97183 -1.41348,-0.88187 -2.02809,-1.88066 -1.76624,-2.87023 0.12362,-0.46715 0.46994,-0.8630599 0.99895,-1.1419999 0.48987,-0.25829 2.16038,-0.34179 2.82937,-0.14143 l 0.4316,0.12927 0.0288,0.6625699 0.0288,0.66258 -0.21305,-0.27085 c -0.24777,-0.31499 -1.06778,-0.7240799 -1.45412,-0.7254399 -0.377,-10e-4 -0.89796,0.2357099 -1.02024,0.4641999 -0.16243,0.30349 -0.12199,0.77427 0.0924,1.0753 0.1078,0.15138 0.57176,0.52179 1.03104,0.82313 1.20806,0.79261 1.61734,1.1427 1.9002,1.62538 0.21919,0.374 0.2463,0.51132 0.21396,1.08361 -0.0288,0.51026 -0.094,0.74148 -0.29452,1.04444 -0.52924,0.79972 -2.0164,1.22352 -3.41873,0.97422 z m -72.47216,-0.0577 c -0.10551,-0.0299 -0.3039,-0.13388 -0.44088,-0.23106 -0.27277,-0.19351 -1.09263,-1.33897 -1.41733,-1.98022 -0.2830601,-0.55902 -0.7646101,-1.0853 -1.1344301,-1.23982 -0.17057,-0.0713 -0.33309,-0.12957 -0.36116,-0.12957 -0.0974,0 -0.0518,3.17623 0.0482,3.36318 0.0952,0.17797 0.0581,0.18551 -0.91453,0.18551 -0.9726,0 -1.00977,-0.008 -0.91453,-0.18551 0.15381,-0.28739 0.13448,-7.0299299 -0.0206,-7.1859899 -0.0963,-0.0969 0.24966,-0.11483 1.7577,-0.0911 1.8746501,0.0295 1.8784801,0.03 2.4438901,0.31942 0.89045,0.4558399 1.23431,1.3172399 0.87199,2.1843899 -0.17541,0.41982 -0.74297,0.89985 -1.21384,1.02664 l -0.38683,0.10417 0.40955,0.31201 c 0.22525,0.17162 0.76529,0.80362 1.20008,1.40446 0.94985,1.3126 1.18898,1.57107 1.67678,1.81242 0.20543,0.10164 0.32859,0.21256 0.27368,0.24649 -0.13636,0.0843 -1.63995,0.15201 -1.87779,0.0846 z m -2.3535201,-4.394 c 0.6070401,-0.31392 0.8878101,-1.00812 0.6835201,-1.68999 -0.12728,-0.42482 -0.4015401,-0.64116 -0.9766401,-0.7703699 -0.7461,-0.16764 -0.7582,-0.14668 -0.7582,1.3139799 v 1.28833 h 0.38841 c 0.21362,0 0.51193,-0.0639 0.66291,-0.14195 z m 51.0596401,4.35887 c -0.3616,-0.11217 -0.91136,-0.71243 -1.41847,-1.54876 -0.68752,-1.13387 -1.10383,-1.62269 -1.55011,-1.8201 -0.23205,-0.10265 -0.46459,-0.16027 -0.51673,-0.12805 -0.15816,0.0977 -0.11979,2.9224 0.044,3.23631 l 0.13759,0.26375 h -1.01164 c -0.93084,0 -1.00507,-0.0134 -0.92944,-0.16784 0.12533,-0.25594 0.15631,-6.8932699 0.0332,-7.1232299 -0.0995,-0.18595 -0.0665,-0.18997 1.56274,-0.18997 1.2208,0 1.79721,0.0394 2.16272,0.14799 1.216,0.36111 1.75137,1.5001599 1.20327,2.5600699 -0.16247,0.31419 -0.85137,0.84064 -1.10004,0.84064 -0.24474,0 -0.31608,0.16713 -0.10054,0.23554 0.29773,0.0945 0.8424,0.68181 1.71461,1.84886 0.78882,1.05546 1.41887,1.65612 1.73716,1.65612 0.0968,0 0.11595,0.0327 0.0549,0.0937 -0.13488,0.13488 -1.66334,0.20661 -2.02329,0.095 z m -2.47616,-4.35502 c 0.4579,-0.19132 0.71755,-0.65243 0.71799,-1.27507 2.9e-4,-0.41263 -0.0466,-0.55444 -0.26339,-0.79643 -0.28686,-0.32021 -0.91768,-0.5200399 -1.3216,-0.4186699 l -0.23695,0.0595 v 1.2843999 1.2844 h 0.38672 c 0.2127,0 0.53545,-0.0621 0.71723,-0.1381 z M 0.0168389,16.60226 c 0.12867,-0.26275 0.15603,-6.8938099 0.0294,-7.1303799 -0.10507,-0.19633 -0.0977,-0.197 1.8439,-0.16599 l 1.9494,0.0311 0.52513,0.29786 c 1.19774,0.6793499 1.31402,2.2255999 0.21957,2.9196799 l -0.42005,0.26639 0.51045,0.14839 c 0.84493,0.24563 1.32289,0.87718 1.32289,1.74801 0,0.90834 -0.5324,1.52961 -1.59101,1.85659 -0.55013,0.16992 -0.89191,0.19617 -2.55352,0.19617 -1.79439,0 -1.91306,-0.0108 -1.83618,-0.16784 z m 3.82287,-0.9018 c 0.43079,-0.47017 0.5229,-1.04573 0.26183,-1.63593 -0.24933,-0.56366 -0.65091,-0.75492 -1.63336,-0.77789 l -0.73867,-0.0173 -0.0269,1.28996 c -0.0148,0.70947 -0.004,1.35037 0.0246,1.4242 0.0403,0.10496 0.24132,0.12694 0.92151,0.10075 0.86205,-0.0332 0.87293,-0.0367 1.19097,-0.38381 z m -0.63614,-3.39804 c 0.64531,-0.3812 0.77611,-1.41163 0.24903,-1.96179 -0.29449,-0.30738 -1.09377,-0.5293799 -1.52042,-0.4222999 l -0.25062,0.0629 v 1.2975299 1.29753 l 0.6124,-0.0492 c 0.33845,-0.0272 0.74536,-0.12769 0.90961,-0.22471 z m 11.3266601,4.28217 c 0.13541,-0.25302 0.13541,-6.8569899 0,-7.1100099 -0.0952,-0.17797 -0.0581,-0.18552 0.91452,-0.18552 0.97261,0 1.00978,0.008 0.91453,0.18552 -0.063,0.11781 -0.0993,1.4188899 -0.0993,3.5651199 0,3.01017 0.0173,3.39879 0.15873,3.55501 0.15288,0.16893 0.11916,0.17539 -0.91452,0.17539 -1.03138,0 -1.06939,-0.007 -0.97397,-0.18551 z m 5.03325,-0.0277 c 0.12764,-0.18224 0.1493,-0.66224 0.1493,-3.30892 v -3.09576 h -1.14468 c -0.62958,0 -1.2554,0.0421 -1.39071,0.0935 -0.2968,0.11284 -0.29718,0.1089 -0.0463,-0.4742199 l 0.1997,-0.4642 3.42094,-0.0364 c 1.88151,-0.02 3.4335,-0.0296 3.44885,-0.0212 0.0154,0.008 -0.0869,0.15168 -0.22722,0.31846 -0.42364,0.5034599 -0.70842,0.5973099 -1.74877,0.5762999 l -0.92925,-0.0188 -0.0253,3.09719 c -0.0217,2.65416 -0.004,3.12938 0.1221,3.32219 l 0.14742,0.225 h -1.06267 -1.06266 z m 5.17918,0 c 0.12822,-0.18305 0.1493,-0.68656 0.1493,-3.56512 0,-2.98444 -0.0174,-3.3711899 -0.15873,-3.5273599 -0.15287,-0.16892 -0.11943,-0.17539 0.90547,-0.17539 h 1.06419 l -0.13759,0.26375 c -0.20955,0.40171 -0.20287,6.5273899 0.008,6.9343199 l 0.14633,0.28297 h -1.06293 -1.06292 l 0.14931,-0.21317 z m 9.31388,-0.0506 c 0.21271,-0.40777 0.20325,-6.6988899 -0.0105,-7.0041199 l -0.1493,-0.21316 h 1.02276 c 0.9411,0 1.01627,0.0134 0.94144,0.16784 -0.0447,0.0923 -0.0946,0.7982999 -0.11083,1.5688499 l -0.0295,1.40101 0.44965,0.0616 c 0.56984,0.0781 1.66458,0.0779 2.31711,-3.4e-4 l 0.50353,-0.0605 -6.9e-4,-1.30541 c -3.5e-4,-0.94641 -0.0384,-1.3779499 -0.13818,-1.5691699 l -0.13759,-0.26375 h 1.00475 c 0.97176,0 1.00141,0.006 0.90308,0.18996 -0.12307,0.22996 -0.0921,6.8672899 0.0333,7.1232399 0.0756,0.15443 10e-4,0.16784 -0.92945,0.16784 h -1.01163 l 0.13758,-0.26376 c 0.10172,-0.19498 0.13775,-0.64164 0.13818,-1.71303 l 7e-4,-1.44928 -0.50353,-0.0605 c -0.64365,-0.0773 -1.61026,-0.0773 -2.25391,0 l -0.50353,0.0605 v 1.49987 c 0,1.20227 0.0296,1.54217 0.14931,1.71303 l 0.1493,0.21317 h -1.05477 -1.05477 l 0.13759,-0.26376 z m 9.80539,0 c 0.10148,-0.14506 0.75853,-1.74785 1.46011,-3.56175 1.06596,-2.756 1.25724,-3.3273799 1.16395,-3.4767599 -0.1061,-0.16989 -0.0646,-0.17877 0.8354,-0.17877 h 0.94705 l 1.27491,3.5071199 c 0.7012,1.92892 1.35752,3.61216 1.45849,3.74052 l 0.18359,0.2334 h -1.00504 c -0.90971,0 -1.00095,-0.0159 -0.96184,-0.16785 0.0238,-0.0923 -0.1247,-0.62102 -0.32992,-1.1749 l -0.37313,-1.00707 -1.38854,-0.0264 -1.38852,-0.0264 -0.40057,1.01432 c -0.22031,0.55788 -0.40056,1.09849 -0.40056,1.20136 0,0.16644 -0.0693,0.18702 -0.62995,0.18702 h -0.62995 z m 4.28207,-2.91084 c 0.0661,-0.0662 -0.90092,-2.77267 -0.98983,-2.77029 -0.0552,10e-4 -1.06593,2.56351 -1.06593,2.70191 0,0.0351 0.0755,0.0856 0.16784,0.11211 0.22691,0.0652 1.81591,0.0284 1.88792,-0.0437 z m 3.73198,2.9992 c 0.14138,-0.15622 0.15873,-0.54484 0.15873,-3.555 0,-2.14624 -0.0362,-3.4473099 -0.0993,-3.5651299 -0.0952,-0.17797 -0.0581,-0.18551 0.91453,-0.18551 0.97261,0 1.00978,0.008 0.91453,0.18551 -0.063,0.11779 -0.0993,1.4157499 -0.0993,3.5550099 0,2.13926 0.0362,3.43722 0.0993,3.555 0.0954,0.17828 0.0574,0.18552 -0.97398,0.18552 -1.03368,0 -1.0674,-0.006 -0.91452,-0.1754 z m 12.23368,-0.0884 c -0.0555,-0.14506 -0.61974,-1.64487 -1.25379,-3.3329 -0.63405,-1.68803 -1.25349,-3.2525699 -1.37652,-3.4767599 l -0.22371,-0.40762 h 0.98701 c 0.97075,0 0.9864,0.004 0.94951,0.2158 -0.0311,0.1791 1.50209,4.5151199 1.64823,4.6612599 0.0736,0.0736 0.0682,0.0873 0.95928,-2.47153 0.63917,-1.8355199 0.86865,-2.3924699 0.92866,-2.2538999 0.0439,0.10123 0.48286,1.1933999 0.97559,2.4270599 0.49272,1.23365 0.91781,2.20474 0.94463,2.15799 0.16685,-0.29087 1.51636,-4.5582099 1.46684,-4.6383399 -0.0393,-0.0637 0.17933,-0.0983 0.61999,-0.0983 h 0.68077 l -0.18576,0.19939 c -0.10217,0.10967 -0.72393,1.7821099 -1.38169,3.7165399 -0.85496,2.51444 -1.23993,3.52587 -1.3503,3.54773 -0.30917,0.0612 -0.61202,-0.44952 -1.29771,-2.18857 -0.38478,-0.97589 -0.72835,-1.80454 -0.76347,-1.84143 -0.0351,-0.0369 -0.38755,0.85844 -0.78318,1.98964 l -0.71933,2.05673 -0.36204,3.5e-4 c -0.30675,3.5e-4 -0.37746,-0.0398 -0.46301,-0.26325 z m 6.24028,0 c 0.32721,-0.44521 2.70341,-6.6548799 2.66211,-6.9568099 l -0.0365,-0.26703 0.90767,0.0273 0.90767,0.0273 1.18489,3.2609699 c 1.33793,3.68213 1.44875,3.95438 1.65976,4.07782 0.0992,0.058 -0.20134,0.0895 -0.87384,0.0914 -0.91802,0.002 -1.0238,-0.0146 -1.01282,-0.16493 0.007,-0.0923 -0.15656,-0.63291 -0.36291,-1.20132 l -0.37517,-1.03349 -1.38821,0.0264 -1.3882,0.0264 -0.40836,1.00707 c -0.22459,0.55388 -0.41037,1.08259 -0.41283,1.1749 -0.004,0.14226 -0.1,0.16785 -0.63078,0.16785 h -0.62629 z m 4.27758,-2.92299 c 0.0773,-0.0774 -0.85266,-2.71176 -0.95724,-2.71176 -0.0526,0 -1.11067,2.55781 -1.11067,2.68501 0,0.13982 1.9301,0.16478 2.06791,0.0267 z m 4.35474,3.00123 c 0.0573,-0.10707 0.0993,-0.87687 0.0993,-1.82046 v -1.63496 l -0.87304,-1.41652 c -0.94426,-1.53208 -1.29281,-1.9610199 -1.81246,-2.2304699 l -0.33569,-0.17406 0.4569,-0.0686 c 0.2513,-0.0377 0.73545,-0.0508 1.0759,-0.0292 0.78463,0.05 0.86986,0.12832 1.88114,1.7293299 l 0.78326,1.24004 0.52414,-0.89386 c 0.73269,-1.24953 1.00156,-1.7970999 0.93518,-1.9045199 -0.0345,-0.0558 0.21225,-0.0923 0.62449,-0.0923 h 0.68156 l -0.27926,0.35966 c -0.1536,0.19782 -0.67355,1.0553899 -1.15545,1.9057099 l -0.87619,1.54604 v 1.6493 c 0,0.95349 0.0419,1.72756 0.0993,1.83481 0.0952,0.17798 0.0581,0.18552 -0.91453,0.18552 -0.9726,0 -1.00977,-0.008 -0.91452,-0.18552 z m 24.988121,-5.34717 c -0.97936,-0.12606 -3.985941,-0.82018 -7.289211,-1.6828399 -0.21101,-0.0551 -0.41999,-0.13273 -0.4644,-0.17248 -0.0444,-0.0398 0.25772,-0.17143 0.67138,-0.29258 3.288401,-0.96314 8.266891,-2.8069 9.623871,-3.56417 0.79394,-0.44305 1.8223,-1.13215 1.8223,-1.2211 0,-0.0433 -0.37765,-0.13675 -0.83922,-0.20779 -0.63095,-0.0971 -1.63655,-0.11741 -4.05223,-0.0819 -6.627671,0.0974 -19.938611,0.0511 -21.963561,-0.0765 -3.88297,-0.24467 -5.57439,-0.44174 -8.0565,-0.93867 -1.7588,-0.35213 -6.41002,-1.50283 -6.67584,-1.65159 -0.18005,-0.10076 0.22877,-0.12218 8.64201,-0.45290002 3.32331,-0.13063 8.09247,-0.32297 10.59813,-0.42742 10.80694,-0.4505 12.54279,-0.5012 15.489591,-0.45239 2.38392,0.0395 3.17477,0.0865 3.99002,0.2371 1.78341,0.3295 3.18955,0.91053002 3.95501,1.63423002 0.39435,0.37284 1.24605,1.68277 1.79443,2.75988 0.39473,0.77529 0.47504,1.02014 0.47504,1.44834 0,1.29751 -1.11772,2.37967 -3.80289,3.6819 -0.95765,0.4644399 -3.59289,1.5646899 -3.62217,1.5122999 -0.004,-0.008 -0.1375,-0.031 -0.29576,-0.0514 z"
       id="path474" /></g></svg>
