<?xml version="1.0" encoding="UTF-8" standalone="no"?>
<!-- Created with Inkscape (http://www.inkscape.org/) -->

<svg
   width="16"
   height="16"
   viewBox="0 0 4.2333332 4.2333333"
   version="1.1"
   id="svg5"
   inkscape:version="1.2.1 (9c6d41e4, 2022-07-14)"
   sodipodi:docname="favicon.svg"
   xmlns:inkscape="http://www.inkscape.org/namespaces/inkscape"
   xmlns:sodipodi="http://sodipodi.sourceforge.net/DTD/sodipodi-0.dtd"
   xmlns="http://www.w3.org/2000/svg"
   xmlns:svg="http://www.w3.org/2000/svg">
  <sodipodi:namedview
     id="namedview7"
     pagecolor="#ffffff"
     bordercolor="#000000"
     borderopacity="0.25"
     inkscape:showpageshadow="2"
     inkscape:pageopacity="0.0"
     inkscape:pagecheckerboard="0"
     inkscape:deskcolor="#d1d1d1"
     inkscape:document-units="mm"
     showgrid="false"
     inkscape:zoom="14.75"
     inkscape:cx="8.0338983"
     inkscape:cy="6.3050847"
     inkscape:window-width="1728"
     inkscape:window-height="1080"
     inkscape:window-x="0"
     inkscape:window-y="37"
     inkscape:window-maximized="0"
     inkscape:current-layer="layer1" />
  <defs
     id="defs2" />
  <g
     inkscape:label="Layer 1"
     inkscape:groupmode="layer"
     id="layer1">
    <path
       style="fill:#70b5fa;stroke-width:0.311283;fill-opacity:1"
       id="path234"
       sodipodi:type="arc"
       sodipodi:cx="2.1166666"
       sodipodi:cy="2.1166666"
       sodipodi:rx="2.1166666"
       sodipodi:ry="2.1166666"
       sodipodi:start="0"
       sodipodi:end="6.2706527"
       sodipodi:open="true"
       sodipodi:arc-type="arc"
       d="M 4.2333331,2.1166666 A 2.1166666,2.1166666 0 0 1 2.1232984,4.2333227 2.1166666,2.1166666 0 0 1 4.1556972e-5,2.1299301 2.1166666,2.1166666 0 0 1 2.0967713,9.3502804e-5 2.1166666,2.1166666 0 0 1 4.2331669,2.0901399" />
    <path
       style="font-size:4.23333px;font-family:Arial;-inkscape-font-specification:Arial;fill:#ffffff;stroke-width:0.622565"
       d="m 1.373559,3.2742177 h 0.7544753 q 0.1943032,0 0.2728513,-0.014469 0.1384928,-0.024805 0.2315103,-0.082682 0.093017,-0.057878 0.1529621,-0.1674315 0.059945,-0.111621 0.059945,-0.2563149 0,-0.1694986 -0.086816,-0.2935219 Q 2.6716699,2.3337074 2.5166407,2.2840981 2.3636786,2.2324217 2.0742909,2.2324217 H 1.373559 Z"
       id="path1066" />
    <path
       style="font-size:4.23333px;font-family:Arial;-inkscape-font-specification:Arial;fill:#ffffff;stroke-width:0.622565"
       d="m 1.373559,1.8748211 h 0.6552566 q 0.2666502,0 0.3824053,-0.03514 0.1529621,-0.045475 0.2294432,-0.150895 0.078548,-0.1054199 0.078548,-0.2645831 0,-0.1508951 -0.072347,-0.2645831 Q 2.5745183,1.0438647 2.4401597,1.0025236 2.3058011,0.95911546 1.9792063,0.95911546 H 1.373559 Z"
       id="path1064" />
    <path
       style="font-size:4.23333px;font-family:Arial;-inkscape-font-specification:Arial;fill:#ffffff;stroke-width:0.622565"
       d="M 0.97255025,3.6318183 V 0.60151485 H 2.1094308 q 0.3472653,0 0.5560379,0.0930175 0.2108397,0.0909505 0.3286619,0.28318661 0.1198892,0.19016914 0.1198892,0.39894174 0,0.1943032 -0.1054198,0.3658688 -0.1054199,0.1715656 -0.3183266,0.2769855 0.2749184,0.080615 0.4216793,0.2749184 0.148828,0.1943032 0.148828,0.4588863 0,0.2129067 -0.09095,0.3968747 -0.088884,0.1819008 -0.2211753,0.2811195 -0.1322916,0.099219 -0.332796,0.1508951 -0.1984373,0.049609 -0.4878251,0.049609 z"
       id="path1056" />
  </g>
</svg>
