<svg id="Layer_1" data-name="Layer 1" xmlns="http://www.w3.org/2000/svg" width="100.5417mm" height="29.5146mm" viewBox="0 0 285 83.6634"><defs><style>.cls-1{fill:#fff;}</style></defs><path class="cls-1" d="M100.2825,63.47c-.6561,0-1.4636,0-2.4226-.0505-1.0093-.05-1.6654-.05-1.9683-.05-5.703,0-9.1349-1.3122-10.2957-3.8356a9.8588,9.8588,0,0,1-.6056-3.6338v-17.26c0-1.11.5047-1.6655,1.4131-1.6655a10.3561,10.3561,0,0,1,1.8169.1009c.5552.2019.858.7571.858,1.615V55.6469a3.3726,3.3726,0,0,0,2.5739,3.3815,16.9375,16.9375,0,0,0,4.29.4542h5.6021a14.4078,14.4078,0,0,0,4.29-.4542,3.28,3.28,0,0,0,2.5739-3.331V38.6388c0-.858.2524-1.3627.858-1.615a10.0308,10.0308,0,0,1,1.7664-.101c.9085,0,1.4132.5552,1.4132,1.6655V55.8488C112.4456,60.9462,108.3575,63.47,100.2825,63.47Z"/><path class="cls-1" d="M147.6226,63.5706c-.1514,0-.3028-.05-.4542-.05a4.1335,4.1335,0,0,1-1.8673-1.2617l-18.926-19.1279V61.6023c0,.9084-.3028,1.4131-.858,1.615a5.75,5.75,0,0,1-1.7664.1514c-.9589,0-1.4636-.5551-1.4636-1.7159V39.5977a4.2649,4.2649,0,0,1,.1514-1.4636,1.7985,1.7985,0,0,1,.9084-1.06,1.8664,1.8664,0,0,1,1.06-.3028,3.7367,3.7367,0,0,1,2.6748,1.3627L145.8057,57.01V38.6388a1.57,1.57,0,0,1,.858-1.615,10.0308,10.0308,0,0,1,1.7664-.101c.959,0,1.4637.5552,1.4637,1.6655V60.5424C149.8938,62.5107,149.1367,63.5706,147.6226,63.5706Z"/><path class="cls-1" d="M162.41,63.3687a5.9373,5.9373,0,0,1-1.8169-.1514c-.5551-.2019-.8579-.7065-.8579-1.615V38.6388c0-.858.3028-1.4132.8579-1.615a10.3416,10.3416,0,0,1,1.8169-.101c.959,0,1.4132.5552,1.4132,1.6655v23.014C163.8233,62.8136,163.3186,63.3687,162.41,63.3687Z"/><path class="cls-1" d="M197.5368,63.3687H184.768a30.298,30.298,0,0,1-4.9964-.3028,7.8992,7.8992,0,0,1-4.5423-2.2206,6.1241,6.1241,0,0,1-1.5645-4.4413V38.6388c0-1.11.5047-1.6655,1.4636-1.6655a10.0459,10.0459,0,0,1,1.7664.1009c.5552.2019.858.7571.858,1.615V56.4544c0,1.4132.9589,2.3216,2.8263,2.7758a23.8915,23.8915,0,0,0,4.1385.2524h12.8192a1.2206,1.2206,0,0,1,1.2112.6056,4.1471,4.1471,0,0,1,.2019,1.615C198.95,62.8136,198.4957,63.3687,197.5368,63.3687Z"/><path class="cls-1" d="M211.4663,63.3687a5.9364,5.9364,0,0,1-1.8169-.1514c-.5552-.2019-.858-.7065-.858-1.615V38.6388c0-.858.3028-1.4132.858-1.615a10.34,10.34,0,0,1,1.8169-.101c.9589,0,1.4131.5552,1.4131,1.6655v23.014C212.8794,62.8136,212.3747,63.3687,211.4663,63.3687Z"/><path class="cls-1" d="M248.0565,63.5706c-.1514,0-.3028-.05-.4542-.05a4.1337,4.1337,0,0,1-1.8674-1.2617l-18.926-19.1279V61.6023c0,.9084-.3028,1.4131-.858,1.615a5.7491,5.7491,0,0,1-1.7664.1514c-.9589,0-1.4636-.5551-1.4636-1.7159V39.5977a4.2676,4.2676,0,0,1,.1514-1.4636,1.7985,1.7985,0,0,1,.9084-1.06,1.8666,1.8666,0,0,1,1.06-.3028,3.7371,3.7371,0,0,1,2.6749,1.3627L246.24,57.01V38.6388a1.57,1.57,0,0,1,.858-1.615,10.0314,10.0314,0,0,1,1.7665-.101c.9589,0,1.4636.5552,1.4636,1.6655V60.5424C250.3276,62.5107,249.5706,63.5706,248.0565,63.5706Z"/><path class="cls-1" d="M285,61.7537a1.4569,1.4569,0,0,1-1.6655,1.615,7.3343,7.3343,0,0,1-2.12-.2019L264.1562,52.4674v9.1854c0,1.1608-.4543,1.7159-1.4132,1.7159a5.3364,5.3364,0,0,1-1.7159-.1514c-.5047-.2019-.8075-.7066-.8075-1.615V38.6388c0-.858.3028-1.3627.8075-1.5646a5.3364,5.3364,0,0,1,1.7159-.1514c.959,0,1.4132.5552,1.4132,1.6655v8.8826l16.4529-10.3967a1.0145,1.0145,0,0,1,.6561-.2018h1.5141a1.4055,1.4055,0,0,1,1.615,1.5645,1.8447,1.8447,0,0,1-.9589,1.6655l-15.7464,9.791,16.3016,10.1948A2.0169,2.0169,0,0,1,285,61.7537Z"/><path class="cls-1" d="M69.799,48.1775a15.04,15.04,0,1,1-15.04-15.04A15.045,15.045,0,0,1,69.799,48.1775Z"/><path class="cls-1" d="M29.4236,44.9474A14.5886,14.5886,0,0,1,27.8591,56.303a14.8624,14.8624,0,0,1-20.49,4.946,14.9144,14.9144,0,0,1-5.2993-20.39,14.7094,14.7094,0,0,1,8.0246-6.41l.05-.1009s5.2992-.8075,7.8732-5.1479A19.03,19.03,0,0,0,20.44,17.694v-.05A14.61,14.61,0,0,1,22.156,7.146a15.0411,15.0411,0,0,1,25.84,15.3931,14.3506,14.3506,0,0,1-9.69,6.8133A15.0836,15.0836,0,0,0,30.3825,36.62C28.9189,39.4463,29.2217,43.3324,29.4236,44.9474Z"/><path class="cls-1" d="M85.1515,80.8272v-9.44h6.3027v1.151H86.412v3.0007h4.3162v1.1371H86.412V79.69h5.0422v1.1373Z"/><path class="cls-1" d="M97.8637,80.8272l-1.5209-2.5484L94.781,80.8272H93.3971l2.3017-3.48-2.1647-3.3159h1.4112l1.4114,2.37,1.4386-2.37h1.3975L97.0007,77.32l2.288,3.5076Z"/><path class="cls-1" d="M103.5578,73.9628a4.7374,4.7374,0,0,1,1.1988.1593,2.2256,2.2256,0,0,1,1.0893.6869l-.6988.8938a2.0663,2.0663,0,0,0-.8424-.5276,2.7648,2.7648,0,0,0-.6921-.1026,1.9328,1.9328,0,0,0-.5412.0818,1.3687,1.3687,0,0,0-.5069.2726,1.438,1.438,0,0,0-.37.497,1.7387,1.7387,0,0,0-.1439.7424V78.192a1.8094,1.8094,0,0,0,.137.7424,1.4052,1.4052,0,0,0,.3563.4973,1.3008,1.3008,0,0,0,.5.2723,2.0144,2.0144,0,0,0,.5687.082,2.7437,2.7437,0,0,0,.733-.1234,1.6963,1.6963,0,0,0,.7468-.4385l.7263.8253a2.55,2.55,0,0,1-1.0621.6661,3.9409,3.9409,0,0,1-1.1713.18,3.2144,3.2144,0,0,1-1.0962-.1779,2.6763,2.6763,0,0,1-.8563-.4933,2.1561,2.1561,0,0,1-.5617-.7605,2.374,2.374,0,0,1-.1988-.98V76.47a2.4163,2.4163,0,0,1,.2193-1.0415,2.443,2.443,0,0,1,.589-.7946,2.55,2.55,0,0,1,.8564-.5A3.05,3.05,0,0,1,103.5578,73.9628Z"/><path class="cls-1" d="M108.941,77.8677V78.32a1.5682,1.5682,0,0,0,.137.6918,1.2945,1.2945,0,0,0,.3769.4658,1.5351,1.5351,0,0,0,.5481.2674,2.4609,2.4609,0,0,0,.6371.082,2.7872,2.7872,0,0,0,.7946-.137,2.2473,2.2473,0,0,0,.877-.5342l.74.8083a2.7542,2.7542,0,0,1-1.1576.7332,4.2884,4.2884,0,0,1-1.2813.1984,3.77,3.77,0,0,1-1.096-.1573,2.7267,2.7267,0,0,1-.9111-.4659,2.1893,2.1893,0,0,1-.6167-.7743,2.4509,2.4509,0,0,1-.226-1.0823v-1.795a2.8345,2.8345,0,0,1,.2049-1.0962,2.4023,2.4023,0,0,1,.5672-.8358,2.5084,2.5084,0,0,1,.861-.5275,3.1455,3.1455,0,0,1,1.1-.1849,3.3132,3.3132,0,0,1,1.1071.1782,2.5192,2.5192,0,0,1,.868.507,2.2328,2.2328,0,0,1,.56.8016,2.7231,2.7231,0,0,1,.1982,1.0617v1.3428Zm3.1105-1.2194a1.917,1.917,0,0,0-.1234-.7262,1.4028,1.4028,0,0,0-.3358-.5,1.2822,1.2822,0,0,0-.4933-.2877,1.9592,1.9592,0,0,0-.5959-.0892,1.7772,1.7772,0,0,0-.5893.0959,1.4943,1.4943,0,0,0-.4931.2877,1.3067,1.3067,0,0,0-.3427.4864,1.79,1.79,0,0,0-.1231.6921v.3013h3.0966Z"/><path class="cls-1" d="M116.91,79.0186q0,.5346.2366.6646a1.5809,1.5809,0,0,0,.791.1028l.0275,1.0687q-.1921.0272-.3633.0409t-.3219.0139a2.1413,2.1413,0,0,1-.7741-.1165,1.1007,1.1007,0,0,1-.4727-.3426,1.25,1.25,0,0,1-.24-.5479,3.9425,3.9425,0,0,1-.0614-.7332V71.0169H116.91Z"/><path class="cls-1" d="M121.57,79.0186q0,.5346.2367.6646a1.58,1.58,0,0,0,.7909.1028l.0275,1.0687q-.1921.0272-.3633.0409t-.3218.0139a2.141,2.141,0,0,1-.7741-.1165,1.1,1.1,0,0,1-.4728-.3426,1.2509,1.2509,0,0,1-.24-.5479,3.951,3.951,0,0,1-.0614-.7332V71.0169H121.57Z"/><path class="cls-1" d="M125.8554,77.8677V78.32a1.5668,1.5668,0,0,0,.1371.6918,1.2932,1.2932,0,0,0,.3768.4658,1.5356,1.5356,0,0,0,.5482.2674,2.46,2.46,0,0,0,.637.082,2.7878,2.7878,0,0,0,.7947-.137,2.247,2.247,0,0,0,.8769-.5342l.74.8083a2.7551,2.7551,0,0,1-1.1577.7332,4.2879,4.2879,0,0,1-1.2813.1984,3.77,3.77,0,0,1-1.096-.1573,2.7267,2.7267,0,0,1-.9111-.4659,2.1893,2.1893,0,0,1-.6167-.7743,2.4509,2.4509,0,0,1-.226-1.0823v-1.795a2.8345,2.8345,0,0,1,.2049-1.0962,2.405,2.405,0,0,1,.5672-.8358,2.5079,2.5079,0,0,1,.8611-.5275,3.1446,3.1446,0,0,1,1.1-.1849,3.3138,3.3138,0,0,1,1.1072.1782,2.52,2.52,0,0,1,.868.507,2.2338,2.2338,0,0,1,.56.8016,2.7212,2.7212,0,0,1,.1982,1.0617v1.3428Zm3.1105-1.2194a1.9151,1.9151,0,0,0-.1234-.7262,1.4039,1.4039,0,0,0-.3357-.5,1.2833,1.2833,0,0,0-.4934-.2877,1.9592,1.9592,0,0,0-.5959-.0892,1.7781,1.7781,0,0,0-.5893.0959,1.4929,1.4929,0,0,0-.493.2877,1.3056,1.3056,0,0,0-.3427.4864,1.7877,1.7877,0,0,0-.1232.6921v.3013h3.0966Z"/><path class="cls-1" d="M135.8849,73.9628a1.9849,1.9849,0,0,1,1.562.63,2.6107,2.6107,0,0,1,.5617,1.795v4.4393H136.83V76.5385a1.4918,1.4918,0,0,0-.3427-1.1165,1.163,1.163,0,0,0-.863-.3082,2.77,2.77,0,0,0-.9661.2123,6.0958,6.0958,0,0,0-1.0757.5412v4.96h-1.1782v-6.796h1.0414l.1368.7535a7.7176,7.7176,0,0,1,.788-.4383,4.594,4.594,0,0,1,.6234-.2466,3.0635,3.0635,0,0,1,.4934-.11A3.2569,3.2569,0,0,1,135.8849,73.9628Z"/><path class="cls-1" d="M143.0536,73.9628a4.7385,4.7385,0,0,1,1.1988.1593,2.2258,2.2258,0,0,1,1.0892.6869l-.6987.8938a2.0659,2.0659,0,0,0-.8425-.5276,2.7642,2.7642,0,0,0-.6921-.1026,1.9321,1.9321,0,0,0-.5411.0818,1.3691,1.3691,0,0,0-.507.2726,1.4366,1.4366,0,0,0-.37.497,1.7386,1.7386,0,0,0-.144.7424V78.192a1.811,1.811,0,0,0,.137.7424,1.4052,1.4052,0,0,0,.3563.4973,1.3012,1.3012,0,0,0,.5.2723,2.0137,2.0137,0,0,0,.5686.082,2.7437,2.7437,0,0,0,.733-.1234,1.6963,1.6963,0,0,0,.7468-.4385l.7263.8253a2.55,2.55,0,0,1-1.062.6661,3.9414,3.9414,0,0,1-1.1713.18,3.2136,3.2136,0,0,1-1.0962-.1779,2.6779,2.6779,0,0,1-.8564-.4933,2.1561,2.1561,0,0,1-.5617-.7605,2.374,2.374,0,0,1-.1987-.98V76.47a2.4163,2.4163,0,0,1,.2193-1.0415,2.4413,2.4413,0,0,1,.5889-.7946,2.55,2.55,0,0,1,.8564-.5A3.05,3.05,0,0,1,143.0536,73.9628Z"/><path class="cls-1" d="M148.4365,77.8677V78.32a1.5682,1.5682,0,0,0,.137.6918,1.2945,1.2945,0,0,0,.3769.4658,1.5351,1.5351,0,0,0,.5481.2674,2.4609,2.4609,0,0,0,.6371.082,2.7872,2.7872,0,0,0,.7946-.137,2.2463,2.2463,0,0,0,.8769-.5342l.74.8083a2.7542,2.7542,0,0,1-1.1576.7332,4.2884,4.2884,0,0,1-1.2813.1984,3.77,3.77,0,0,1-1.096-.1573,2.7267,2.7267,0,0,1-.9111-.4659,2.1893,2.1893,0,0,1-.6167-.7743,2.4509,2.4509,0,0,1-.226-1.0823v-1.795a2.8345,2.8345,0,0,1,.2049-1.0962,2.4023,2.4023,0,0,1,.5672-.8358,2.5084,2.5084,0,0,1,.861-.5275,3.1455,3.1455,0,0,1,1.1-.1849,3.3132,3.3132,0,0,1,1.1071.1782,2.5192,2.5192,0,0,1,.868.507,2.2328,2.2328,0,0,1,.56.8016,2.7231,2.7231,0,0,1,.1982,1.0617v1.3428Zm3.1105-1.2194a1.917,1.917,0,0,0-.1234-.7262,1.4028,1.4028,0,0,0-.3358-.5,1.2822,1.2822,0,0,0-.4933-.2877,1.96,1.96,0,0,0-.596-.0892,1.7771,1.7771,0,0,0-.5892.0959,1.4943,1.4943,0,0,0-.4931.2877,1.3067,1.3067,0,0,0-.3427.4864,1.79,1.79,0,0,0-.1231.6921v.3013h3.0966Z"/><path class="cls-1" d="M162.9462,72.5514v8.2758h-1.2878V72.5514h-2.7266V71.3868h6.7274v1.1646Z"/><path class="cls-1" d="M171.2017,73.9628a2.059,2.059,0,0,1,1.651.63,2.6767,2.6767,0,0,1,.5411,1.795v4.4393h-1.1782V76.5385a1.4678,1.4678,0,0,0-.3427-1.11,1.2266,1.2266,0,0,0-.8633-.3149,2.8177,2.8177,0,0,0-.9728.2054,5.3961,5.3961,0,0,0-1.0687.5481v4.96H167.79v-9.81h1.1782v3.7817a5.4578,5.4578,0,0,1,1.3428-.6851A3.2927,3.2927,0,0,1,171.2017,73.9628Z"/><path class="cls-1" d="M179.5389,75.1958a5.2438,5.2438,0,0,0-2.425.7674v4.864h-1.1785v-6.796h1.0414l.1232,1h.0139a3.37,3.37,0,0,1,.4519-.37,4.6378,4.6378,0,0,1,.5893-.3494,3.9364,3.9364,0,0,1,.6715-.26,2.5612,2.5612,0,0,1,.7123-.1029Z"/><path class="cls-1" d="M187.07,78.4294a2.3338,2.3338,0,0,1-.2267,1.0481,2.2711,2.2711,0,0,1-.618.7744,2.7882,2.7882,0,0,1-.9.4794,3.5054,3.5054,0,0,1-1.085.1643,3.55,3.55,0,0,1-1.099-.1643,2.6267,2.6267,0,0,1-.8858-.4794,2.2686,2.2686,0,0,1-.5974-.7744,2.3967,2.3967,0,0,1-.22-1.0481V76.4565a2.3377,2.3377,0,0,1,.2265-1.0484,2.4262,2.4262,0,0,1,.6043-.7807,2.6491,2.6491,0,0,1,.8928-.4934,3.4384,3.4384,0,0,1,1.0922-.1712,3.5748,3.5748,0,0,1,1.1332.1712,2.6477,2.6477,0,0,1,.8927.4934,2.1951,2.1951,0,0,1,.5836.7807,2.5347,2.5347,0,0,1,.2061,1.0484Zm-1.1784-1.763a1.6716,1.6716,0,0,0-.1507-.7424,1.4314,1.4314,0,0,0-.3905-.497,1.4948,1.4948,0,0,0-.5275-.2726,2.0512,2.0512,0,0,0-.5618-.0818,2.0954,2.0954,0,0,0-.5753.0818,1.4927,1.4927,0,0,0-.5276.2726,1.4256,1.4256,0,0,0-.3905.497,1.6689,1.6689,0,0,0-.1506.7424V78.192a1.8936,1.8936,0,0,0,.13.7424,1.3392,1.3392,0,0,0,.3494.4973,1.2905,1.2905,0,0,0,.5206.2723,2.4392,2.4392,0,0,0,.644.082,2.04,2.04,0,0,0,.5618-.082,1.4892,1.4892,0,0,0,.5275-.2723,1.43,1.43,0,0,0,.3905-.4973,1.67,1.67,0,0,0,.1507-.7424Z"/><path class="cls-1" d="M194.0184,80.8272l-.1371-.7166q-.4248.2572-.7468.4129a4.483,4.483,0,0,1-.5753.2368,2.7341,2.7341,0,0,1-.4523.1086,2.8687,2.8687,0,0,1-.3766.0267,2.221,2.221,0,0,1-1.6854-.63,2.494,2.494,0,0,1-.6029-1.795V74.0312h1.1785v4.3264a1.4788,1.4788,0,0,0,.3494,1.1195,1.1846,1.1846,0,0,0,.87.3089,2.5884,2.5884,0,0,0,.9523-.22,5.18,5.18,0,0,0,1.0892-.618V74.0312H195.06v6.796Z"/><path class="cls-1" d="M199.7358,73.9628a2.9572,2.9572,0,0,1,.87.1576,5.9212,5.9212,0,0,1,1.2674.6371l.137-.7263h1.0412v7.2071a2.1922,2.1922,0,0,1-.24,1.0412,2.3,2.3,0,0,1-.644.7605,2.8885,2.8885,0,0,1-.925.4658,3.7142,3.7142,0,0,1-1.0823.1576,4.1114,4.1114,0,0,1-1.2538-.2081,3.3216,3.3216,0,0,1-1.1988-.6936l.7263-.8658a2.1584,2.1584,0,0,0,.3766.2741,2.5207,2.5207,0,0,0,.4522.2054,4.0273,4.0273,0,0,0,.4659.13,2.04,2.04,0,0,0,.418.0478,2.4832,2.4832,0,0,0,.637-.0813,1.5527,1.5527,0,0,0,.5548-.2716,1.3419,1.3419,0,0,0,.3906-.4894,1.6794,1.6794,0,0,0,.1439-.7334v-.7857a4.7162,4.7162,0,0,1-1.2263.5617,3.718,3.718,0,0,1-.9111.1417,2.2429,2.2429,0,0,1-1.6374-.6232,2.39,2.39,0,0,1-.637-1.7882V76.3879a2.4136,2.4136,0,0,1,.637-1.795A2.23,2.23,0,0,1,199.7358,73.9628Zm2.1374,1.989a5.1691,5.1691,0,0,0-1.0687-.6046,2.5868,2.5868,0,0,0-.9592-.2334,1.2063,1.2063,0,0,0-.8836.3162,1.5567,1.5567,0,0,0-.3221,1.1266v1.7863a1.5707,1.5707,0,0,0,.3288,1.12,1.1283,1.1283,0,0,0,.8769.3228,2.9547,2.9547,0,0,0,.98-.1992,5.1611,5.1611,0,0,0,1.0481-.5156Z"/><path class="cls-1" d="M208.9418,73.9628a2.0589,2.0589,0,0,1,1.651.63,2.6761,2.6761,0,0,1,.5412,1.795v4.4393h-1.1782V76.5385a1.4678,1.4678,0,0,0-.3427-1.11,1.227,1.227,0,0,0-.8633-.3149,2.8172,2.8172,0,0,0-.9728.2054,5.3907,5.3907,0,0,0-1.0687.5481v4.96H205.53v-9.81h1.1782v3.7817a5.4592,5.4592,0,0,1,1.3427-.6851A3.2933,3.2933,0,0,1,208.9418,73.9628Z"/><path class="cls-1" d="M218.2727,80.8272v-9.44h1.2605v9.44Z"/><path class="cls-1" d="M225.7044,73.9628a1.9849,1.9849,0,0,1,1.562.63,2.6107,2.6107,0,0,1,.5617,1.795v4.4393H226.65V76.5385a1.4918,1.4918,0,0,0-.3427-1.1165,1.163,1.163,0,0,0-.863-.3082,2.77,2.77,0,0,0-.9661.2123,6.0958,6.0958,0,0,0-1.0757.5412v4.96h-1.1782v-6.796h1.0414l.1368.7535a7.7176,7.7176,0,0,1,.788-.4383,4.5991,4.5991,0,0,1,.6234-.2466,3.0635,3.0635,0,0,1,.4934-.11A3.2569,3.2569,0,0,1,225.7044,73.9628Z"/><path class="cls-1" d="M233.7225,73.9628a1.9849,1.9849,0,0,1,1.562.63,2.61,2.61,0,0,1,.5618,1.795v4.4393h-1.1782V76.5385a1.4918,1.4918,0,0,0-.3427-1.1165,1.1634,1.1634,0,0,0-.8631-.3082,2.7708,2.7708,0,0,0-.9661.2123,6.095,6.095,0,0,0-1.0756.5412v4.96h-1.1783v-6.796h1.0415l.1368.7535a7.7065,7.7065,0,0,1,.7879-.4383,4.5948,4.5948,0,0,1,.6235-.2466,3.0625,3.0625,0,0,1,.4933-.11A3.2569,3.2569,0,0,1,233.7225,73.9628Z"/><path class="cls-1" d="M243.829,78.4294a2.3351,2.3351,0,0,1-.2267,1.0481,2.2723,2.2723,0,0,1-.618.7744,2.7892,2.7892,0,0,1-.9.4794A3.5056,3.5056,0,0,1,241,80.8956a3.55,3.55,0,0,1-1.0989-.1643,2.6272,2.6272,0,0,1-.8859-.4794,2.2711,2.2711,0,0,1-.5974-.7744,2.3982,2.3982,0,0,1-.22-1.0481V76.4565a2.3391,2.3391,0,0,1,.2265-1.0484,2.4265,2.4265,0,0,1,.6044-.7807,2.6477,2.6477,0,0,1,.8927-.4934,3.4394,3.4394,0,0,1,1.0923-.1712,3.5742,3.5742,0,0,1,1.1331.1712,2.6491,2.6491,0,0,1,.8928.4934,2.196,2.196,0,0,1,.5835.7807,2.5348,2.5348,0,0,1,.2062,1.0484Zm-1.1785-1.763a1.673,1.673,0,0,0-.1506-.7424,1.4316,1.4316,0,0,0-.3906-.497,1.494,1.494,0,0,0-.5275-.2726,2.05,2.05,0,0,0-.5617-.0818,2.0966,2.0966,0,0,0-.5754.0818,1.4914,1.4914,0,0,0-.5275.2726,1.4244,1.4244,0,0,0-.3905.497,1.6688,1.6688,0,0,0-.1507.7424V78.192a1.8917,1.8917,0,0,0,.13.7424,1.338,1.338,0,0,0,.3494.4973,1.2892,1.2892,0,0,0,.5206.2723,2.4381,2.4381,0,0,0,.644.082,2.0395,2.0395,0,0,0,.5617-.082,1.4883,1.4883,0,0,0,.5275-.2723,1.43,1.43,0,0,0,.3906-.4973,1.6712,1.6712,0,0,0,.1506-.7424Z"/><path class="cls-1" d="M248.6571,79.2379l.7674-2.5076.8769-2.6855h1.2741l-2.4114,6.7824h-1.151l-2.4251-6.7824h1.288l.8906,2.6583.8082,2.5348Z"/><path class="cls-1" d="M257.6783,80.17a5.8471,5.8471,0,0,1-1.3225.5823,3.8064,3.8064,0,0,1-.9247.13,2.2208,2.2208,0,0,1-1.5757-.5481,1.94,1.94,0,0,1-.5892-1.4934,1.6777,1.6777,0,0,1,.2535-.9453,2.1043,2.1043,0,0,1,.63-.6235,2.6332,2.6332,0,0,1,.8083-.3426,3.3874,3.3874,0,0,1,.7744-.1026h1.9865v-.5209a1.1347,1.1347,0,0,0-.3972-.9933,1.9565,1.9565,0,0,0-1.1374-.2808,4.5516,4.5516,0,0,0-.87.1028,2.4042,2.4042,0,0,0-1.0345.5273l-.5753-.8905a3.4154,3.4154,0,0,1,1.3289-.6576,5.72,5.72,0,0,1,1.2468-.1507,2.8684,2.8684,0,0,1,1.9731.5823,2.2938,2.2938,0,0,1,.644,1.788v4.4941h-1.0394l-.1385-.63Zm.0409-2.37h-1.7948a3.5491,3.5491,0,0,0-.4727.0342,1.6084,1.6084,0,0,0-.4728.137.8886.8886,0,0,0-.363.3152.9719.9719,0,0,0-.144.5548.8582.8582,0,0,0,.3358.74,1.408,1.408,0,0,0,.8563.2465,2.0843,2.0843,0,0,0,.5412-.0753,4.5485,4.5485,0,0,0,.5481-.1848q.2673-.11.5139-.24t.452-.24Z"/><path class="cls-1" d="M265.5017,80.6657a3.8961,3.8961,0,0,1-.8291.1829q-.4315.0471-.6371.047a2.1323,2.1323,0,0,1-1.57-.4931,2.2938,2.2938,0,0,1-.4849-1.6443V75.0863h-.9592V74.0312h.9864l.2773-1.5757h.8737v1.5757h1.8908v1.0551h-1.8908v3.3253a2.563,2.563,0,0,0,.0753.68,1.152,1.152,0,0,0,.2057.4262.6328.6328,0,0,0,.3218.2128,1.5929,1.5929,0,0,0,.4386.055,4.2422,4.2422,0,0,0,.5137-.0344q.2806-.0337.5962-.0753Z"/><path class="cls-1" d="M269.0185,71.976a.7486.7486,0,0,1-.74.74.6962.6962,0,0,1-.507-.2193.71.71,0,0,1-.219-.5206.6893.6893,0,0,1,.219-.5139.7078.7078,0,0,1,.507-.2123.7236.7236,0,0,1,.5208.2123A.69.69,0,0,1,269.0185,71.976Zm-1.3153,8.8512v-6.796h1.1783v6.796Z"/><path class="cls-1" d="M277.0354,78.4294a2.3351,2.3351,0,0,1-.2267,1.0481,2.2723,2.2723,0,0,1-.618.7744,2.7892,2.7892,0,0,1-.9.4794,3.5056,3.5056,0,0,1-1.0851.1643,3.55,3.55,0,0,1-1.0989-.1643,2.6282,2.6282,0,0,1-.8859-.4794,2.2711,2.2711,0,0,1-.5974-.7744,2.3982,2.3982,0,0,1-.22-1.0481V76.4565a2.3391,2.3391,0,0,1,.2265-1.0484,2.4265,2.4265,0,0,1,.6044-.7807,2.6477,2.6477,0,0,1,.8927-.4934,3.4394,3.4394,0,0,1,1.0923-.1712,3.5742,3.5742,0,0,1,1.1331.1712,2.6491,2.6491,0,0,1,.8928.4934,2.196,2.196,0,0,1,.5835.7807,2.5332,2.5332,0,0,1,.2062,1.0484Zm-1.1785-1.763a1.673,1.673,0,0,0-.1506-.7424,1.43,1.43,0,0,0-.3906-.497,1.494,1.494,0,0,0-.5275-.2726,2.05,2.05,0,0,0-.5617-.0818,2.0966,2.0966,0,0,0-.5754.0818,1.4923,1.4923,0,0,0-.5275.2726,1.4244,1.4244,0,0,0-.3905.497,1.6688,1.6688,0,0,0-.1507.7424V78.192a1.8917,1.8917,0,0,0,.13.7424,1.338,1.338,0,0,0,.3494.4973,1.2892,1.2892,0,0,0,.5206.2723,2.4381,2.4381,0,0,0,.644.082,2.0395,2.0395,0,0,0,.5617-.082,1.4883,1.4883,0,0,0,.5275-.2723,1.4288,1.4288,0,0,0,.3906-.4973,1.6712,1.6712,0,0,0,.1506-.7424Z"/><path class="cls-1" d="M282.8762,73.9628a1.9852,1.9852,0,0,1,1.5621.63A2.6107,2.6107,0,0,1,285,76.3879v4.4393h-1.1782V76.5385a1.4918,1.4918,0,0,0-.3427-1.1165,1.1634,1.1634,0,0,0-.8631-.3082,2.7712,2.7712,0,0,0-.9661.2123,6.095,6.095,0,0,0-1.0756.5412v4.96h-1.1782v-6.796h1.0414l.1368.7535a7.7171,7.7171,0,0,1,.7879-.4383,4.6,4.6,0,0,1,.6235-.2466,3.0625,3.0625,0,0,1,.4933-.11A3.2582,3.2582,0,0,1,282.8762,73.9628Z"/></svg>